<?xml version="1.0" encoding="utf-8"?>
<svg xmlns="http://www.w3.org/2000/svg"
	xmlns:xlink="http://www.w3.org/1999/xlink"
	width="1152px" height="306px" viewBox="0 0 576 153">
<style type="text/css"><![CDATA[
.style0 {
  font-size: 24px;
  font-family: "GEInspira";
  fill: rgb(131,164,209);
}
.style1 {
  font-size: 36.0354px;
  font-family: "GEInspiraCE-Bold";
  fill: rgb(255,255,255);
}
.style2 {
  font-size: 36.0354px;
  font-family: "GEInspiraCE-Medium";
  fill: rgb(255,255,255);
}
]]></style>
<text transform="matrix(1.09,0.00,0.00,1.09,185.47,124.60)" class="style0"><tspan y="17.04" x="0.00 13.01 20.95 26.57 39.89 53.16 58.78 72.09 85.51 90.60 102.77 115.77 133.20 145.22 153.07 158.16 165.96 179.13 184.22 192.17 205.49 217.51 222.60 234.77 246.79 259.96 273.62 279.28 291.31 296.40 302.01 315.33 320.42 334.34 346.15" fill="rgb(130,163,208)">Bringing Power to the People in CEE</tspan></text><path fillRule="evenodd" d="M 152.8 76.4C 152.8 34.28 118.58-0 76.54-0 34.5-0 0.29 34.28 0.29 76.4 0.29 118.68 34.5 152.8 76.54 152.8 118.58 152.8 152.8 118.68 152.8 76.4 152.8 76.4 152.8 76.4 152.8 76.4 152.8 76.4 152.8 76.4 152.8 76.4ZM 149.15 76.4C 149.15 116.61 116.68 149.16 76.54 149.16 36.4 149.16 3.87 116.61 3.87 76.4 3.87 36.18 36.4 3.59 76.54 3.59 116.68 3.59 149.15 36.4 149.15 76.4 149.15 76.4 149.15 76.4 149.15 76.4 149.15 76.4 149.15 76.4 149.15 76.4ZM 144.54 76.4C 144.54 52.24 132.27 27.26 105.87 19.26 100.38 17.58 95.77 16.49 90.45 16.49 78.23 16.49 77.79 23.45 72.09 23.45 68.94 23.45 66.82 21.17 66.82 18.4 66.82 13.55 72.52 9.74 81.59 9.74 90.07 9.74 96.59 11.87 97.83 12.46 97.83 12.46 98.05 11.87 98.05 11.87 95.77 10.99 87.73 8.22 76.54 8.22 52.21 8.22 27.5 20.73 19.52 46.96 17.83 52.46 16.74 57.14 16.74 62.42 16.74 74.71 23.7 75.31 23.7 81.03 23.7 84.02 21.42 86.14 18.64 86.14 13.81 86.14 10.01 80.59 10.01 71.29 10.01 62.85 12.13 56.27 12.51 55.01 12.51 55.01 11.92 54.8 11.92 54.8 11.26 57.35 8.49 65.19 8.49 76.4 8.49 100.94 20.98 125.7 47.16 133.75 52.65 135.44 57.31 136.48 62.58 136.48 74.86 136.48 75.24 129.29 80.95 129.29 83.93 129.29 86.26 131.63 86.26 134.57 86.26 139.25 80.72 143.06 71.44 143.06 63.02 143.06 56.22 140.94 55.2 140.5 55.2 140.5 54.99 141.15 54.99 141.15 57.31 142.19 65.35 144.53 76.54 144.53 100.81 144.53 125.75 132.23 133.57 105.79 135.25 100.51 136.29 95.67 136.29 90.55 136.29 78.09 129.34 77.65 129.34 71.94 129.34 68.78 131.45 66.65 134.39 66.65 139.27 66.65 143.07 72.37 143.07 81.68 143.07 89.95 140.95 96.48 140.52 97.95 140.52 97.95 141.18 98.17 141.18 98.17 141.99 95.67 144.54 87.83 144.54 76.4 144.54 76.4 144.54 76.4 144.54 76.4 144.54 76.4 144.54 76.4 144.54 76.4ZM 118.96 96.7C 118.96 106.22 110.75 116.18 98.7 116.18 84.15 116.18 76.76 103.88 76.76 92.89 76.76 77.43 87.3 70.9 91.75 68.56 90.88 67.91 90.23 67.09 89.63 66 84.53 69.6 79.91 72.81 70.19 78.3 69.75 85.05 69.16 92.45 67.42 97.57 63.84 108.35 56.45 116.18 46.73 116.18 38.52 116.18 34.5 110.25 34.5 103.88 34.5 99.25 37.23 93.33 42.11 88.86 48.25 83.36 54.99 79.99 64.27 75.09 64.48 73.84 64.7 72.59 64.92 71.07 62.58 73.19 59.22 74.06 56.45 74.06 52.04 74.06 48.41 70.25 47.6 66.22 41.67 65.79 37.23 61.54 37 54.8 37 49.95 38.9 45.71 42.11 45.71 43.36 45.71 43.79 46.74 43.79 47.61 43.79 48.43 42.71 51.2 42.71 53.92 42.71 56.7 44.01 60.29 47.38 60.29 47.38 49.3 55.41 35.1 64.92 35.1 71.22 35.1 72.09 39.78 72.09 41.9 72.09 51.86 62.15 62.85 54.11 65.57 54.33 66.44 55.2 68.78 57.74 68.78 60.9 68.78 64.7 65.79 66.61 63.45 67.42 59.04 70.63 52.68 74.86 52.68 76.54 52.68 77.36 53.92 77.36 55.45 77.36 58.61 73.99 62.63 71.44 65.36 71.06 67.47 70.84 69.81 70.84 71.72 78.23 67.26 82.03 64.97 87.52 60.95 87.08 59.48 87.08 57.74 87.08 56.05 87.08 46.15 93.65 35.1 102.28 35.1 107.17 35.1 109.67 38.53 109.67 42.34 109.67 49.52 103.54 55.83 94.9 62.42 95.56 64.1 96.59 65.57 98.27 66.44 98.48 66 101.25 65.57 103.54 65.57 106.09 65.57 109.67 66.22 109.67 68.78 109.67 71.72 105.66 72.37 102.5 72.37 100.81 72.59 98.05 71.94 98.05 71.94 93.43 73.19 84.53 78.52 84.53 92.02 84.53 101.16 90.23 109.59 99.14 109.59 105.87 109.59 111.36 104.53 111.57 96.7 111.58 91.64 109.45 86.3 104.4 86.3 101.85 86.3 99.57 88.21 99.57 90.98 99.36 95.23 102.5 95.67 102.5 98.38 102.5 100.29 101.04 101.16 99.57 101.16 95.34 101.16 92.13 96.91 92.13 91.64 92.13 85.27 97.67 79.99 104.84 79.99 114.13 79.99 118.96 88.05 118.96 96.7 118.96 96.7 118.96 96.7 118.96 96.7 118.96 96.7 118.96 96.7 118.96 96.7ZM 103.38 43.37C 103.38 42.34 103.15 41.03 101.85 41.03 98.7 41.03 93.65 47.83 93.65 56.49 99.95 50.99 103.38 46.31 103.38 43.37 103.38 43.37 103.38 43.37 103.38 43.37 103.38 43.37 103.38 43.37 103.38 43.37ZM 65.95 42.5C 65.95 41.46 65.35 41.03 64.48 41.03 60.03 41.03 53.74 52.68 53.74 59.64 60.68 55.83 65.95 47.18 65.95 42.5 65.95 42.5 65.95 42.5 65.95 42.5 65.95 42.5 65.95 42.5 65.95 42.5ZM 63.45 82.11C 53.95 86.74 41.89 95.01 41.89 104.1 41.89 107.47 43.57 109.59 46.73 109.59 56.01 109.59 61.71 94.79 63.45 82.11 63.45 82.11 63.45 82.11 63.45 82.11 63.45 82.11 63.45 82.11 63.45 82.11Z" fill="rgb(255,255,255)"/><text transform="matrix(2.18,0.00,0.00,2.18,181.04,49.74)"><tspan y="25.58" x="0.00 21.48" fill="rgb(255,255,255)" class="style1">GE</tspan><tspan y="25.58" x="37.40 43.24 51.49 69.48 79.46 85.29 104.39 120.32" fill="rgb(255,255,255)" class="style2"> for CEE</tspan></text></svg>