<?xml version="1.0" standalone="no"?>
<!DOCTYPE svg PUBLIC "-//W3C//DTD SVG 1.1//EN" "http://www.w3.org/Graphics/SVG/1.1/DTD/svg11.dtd" >
<svg xmlns="http://www.w3.org/2000/svg">
<metadata>Generated by IcoMoon</metadata>
<defs>
<font id="GE-Icon" horiz-adv-x="1024">
<font-face units-per-em="1024" ascent="960" descent="-64" />
<missing-glyph horiz-adv-x="1024" />
<glyph unicode="&#x20;" d="" horiz-adv-x="512" />
<glyph unicode="&#xe600;" d="M978.272 876.48c-16.437 10.4-135.605 78.187-466.272 78.187-330.709 0-449.835-67.787-466.251-78.187-12.896-7.989-45.749-28.672-45.749-69.067v-721.355c0-40.32 32.853-61.056 45.749-68.971 16.416-10.475 135.541-78.251 466.251-78.251 330.667 0 449.835 67.776 466.272 78.261 12.853 7.915 45.728 28.64 45.728 68.96v721.355c0 40.395-32.875 61.077-45.728 69.067zM505.856 83.104c0-10.581-5.792-16.917-14.005-16.917-2.848 0-5.995 0.757-9.259 2.357l-288.192 140.267c-12.8 6.229-23.275 22.965-23.275 37.205v330.357c0 10.688 5.941 17.141 14.368 17.141 2.805 0 5.867-0.715 9.077-2.219l287.829-134.496c12.896-6.027 23.456-22.603 23.456-36.843v-336.853zM495.776 518.731l-288.267 136.853c-14.816 7.019-14.997 18.912-0.448 26.443l281.781 145.525c14.56 7.52 38.507 7.765 53.227 0.544l295.979-145.173c14.709-7.221 14.645-18.912-0.128-25.995l-288.363-138.091c-14.784-7.083-38.997-7.125-53.781-0.107zM585.301 80.171c-17.152 0-31.040 13.899-31.040 31.019s13.888 30.997 31.040 30.997c17.109 0 30.997-13.877 30.997-30.997s-13.877-31.019-30.997-31.019zM585.301 187.339c-17.152 0-31.040 13.877-31.040 31.019 0 17.109 13.888 30.997 31.040 30.997 17.109 0 30.997-13.888 30.997-30.997 0-17.141-13.877-31.019-30.997-31.019zM585.301 294.517c-17.152 0-31.040 13.888-31.040 30.997 0 17.131 13.888 31.029 31.040 31.029 17.109 0 30.997-13.899 30.997-31.029 0-17.109-13.877-30.997-30.997-30.997zM585.301 401.685c-17.152 0-31.040 13.899-31.040 31.040 0 17.12 13.888 31.019 31.040 31.019 17.109 0 30.997-13.899 30.997-31.019 0-17.141-13.877-31.040-30.997-31.040zM670.549 127.605c-17.152 0-31.040 13.899-31.040 31.019s13.888 30.997 31.040 30.997c17.109 0 30.987-13.877 30.987-30.997s-13.867-31.019-30.987-31.019zM670.549 234.784c-17.152 0-31.040 13.877-31.040 31.019 0 17.109 13.888 30.997 31.040 30.997 17.109 0 30.987-13.888 30.987-30.997 0.011-17.141-13.867-31.019-30.987-31.019zM670.549 341.963c-17.152 0-31.040 13.888-31.040 30.997 0 17.131 13.888 31.029 31.040 31.029 17.109 0 30.987-13.899 30.987-31.029 0.011-17.12-13.867-30.997-30.987-30.997zM670.549 449.12c-17.152 0-31.040 13.899-31.040 31.040 0 17.12 13.888 31.019 31.040 31.019 17.109 0 30.987-13.899 30.987-31.019 0.011-17.141-13.867-31.040-30.987-31.040zM755.808 171.296c-17.163 0-31.040 13.92-31.040 31.019 0 17.141 13.877 30.997 31.040 30.997 17.109 0 30.997-13.856 30.997-30.997 0.011-17.109-13.877-31.019-30.997-31.019zM755.808 278.475c-17.163 0-31.040 13.877-31.040 31.019 0 17.109 13.877 30.997 31.040 30.997 17.109 0 30.997-13.888 30.997-30.997 0.011-17.141-13.877-31.019-30.997-31.019zM755.808 385.653c-17.163 0-31.040 13.888-31.040 30.997 0 17.131 13.877 31.029 31.040 31.029 17.109 0 30.997-13.899 30.997-31.029 0.011-17.109-13.877-30.997-30.997-30.997zM755.808 492.832c-17.163 0-31.040 13.899-31.040 31.019 0 17.141 13.877 31.019 31.040 31.019 17.109 0 30.997-13.877 30.997-31.019 0.011-17.12-13.877-31.019-30.997-31.019zM841.067 212.981c-17.152 0-31.040 13.899-31.040 31.019s13.888 30.997 31.040 30.997c17.109 0 30.997-13.877 30.997-30.997s-13.888-31.019-30.997-31.019zM841.067 320.16c-17.152 0-31.040 13.877-31.040 31.019 0 17.109 13.888 30.997 31.040 30.997 17.109 0 30.997-13.888 30.997-30.997 0-17.152-13.888-31.019-30.997-31.019zM841.067 427.328c-17.152 0-31.040 13.888-31.040 30.997 0 17.131 13.888 31.029 31.040 31.029 17.109 0 30.997-13.899 30.997-31.029 0-17.109-13.888-30.997-30.997-30.997zM841.067 534.496c-17.152 0-31.040 13.899-31.040 31.040 0 17.12 13.888 31.019 31.040 31.019 17.109 0 30.997-13.899 30.997-31.019 0-17.141-13.888-31.040-30.997-31.040z" />
<glyph unicode="&#xe601;" d="M986.195 881.208c-16.644 10.451-136.768 78.792-470.088 78.792s-453.443-68.341-470.002-78.792c-12.946-8.086-46.106-28.902-46.106-69.631v-727.109c0-40.643 33.16-61.589 46.106-69.545 16.558-10.623 136.682-78.921 470.002-78.921s453.443 68.298 470.088 78.878c12.903 8 46.020 28.902 46.020 69.588v727.109c0 40.729-33.117 61.546-46.020 69.631zM499.119 92.208c0-10.666-5.806-17.032-14.107-17.032-2.839 0-6.021 0.774-9.333 2.409l-290.439 141.37c-12.903 6.279-23.44 23.139-23.44 37.504v332.975c0 10.752 5.978 17.247 14.451 17.247 2.796 0 5.935-0.731 9.161-2.236l290.138-135.564c13.032-6.064 23.612-22.752 23.612-37.117v-339.556zM488.969 531.33l-290.568 137.93c-14.924 7.053-15.096 19.096-0.473 26.623l284.074 146.747c14.709 7.57 38.794 7.828 53.675 0.559l298.396-146.359c14.795-7.269 14.795-19.053-0.172-26.192l-290.654-139.134c-14.967-7.182-39.31-7.226-54.277-0.172zM601.136 101.929c-21.849 0-39.568 17.591-39.568 39.482 0 21.806 17.72 39.439 39.568 39.439 21.763 0 39.482-17.634 39.482-39.439 0-21.892-17.763-39.482-39.482-39.482zM601.136 243.127c-21.849 0-39.568 17.72-39.568 39.482 0 21.849 17.72 39.568 39.568 39.568 21.763 0 39.482-17.72 39.482-39.568 0-21.763-17.763-39.482-39.482-39.482zM601.136 384.411c-21.849 0-39.568 17.634-39.568 39.482s17.72 39.482 39.568 39.482c21.763 0 39.482-17.634 39.482-39.482s-17.763-39.482-39.482-39.482zM709.648 162.27c-21.849 0-39.568 17.72-39.568 39.482 0 21.849 17.72 39.439 39.568 39.439 21.763 0 39.482-17.591 39.482-39.439 0-21.763-17.72-39.482-39.482-39.482zM709.648 303.511c-21.849 0-39.568 17.677-39.568 39.482s17.72 39.525 39.568 39.525c21.763 0 39.482-17.72 39.482-39.525s-17.72-39.482-39.482-39.482zM709.648 444.796c-21.849 0-39.568 17.72-39.568 39.439 0 21.892 17.72 39.525 39.568 39.525 21.763 0 39.482-17.634 39.482-39.525 0-21.677-17.72-39.439-39.482-39.439zM818.159 217.924c-21.849 0-39.568 17.634-39.568 39.525 0 21.763 17.72 39.439 39.568 39.439 21.763 0 39.482-17.677 39.482-39.439 0-21.892-17.72-39.525-39.482-39.525zM818.159 359.165c-21.849 0-39.568 17.72-39.568 39.482 0 21.849 17.72 39.482 39.568 39.482 21.763 0 39.482-17.634 39.482-39.482 0-21.763-17.72-39.482-39.482-39.482zM818.159 500.363c-21.849 0-39.568 17.72-39.568 39.568 0 21.763 17.72 39.482 39.568 39.482 21.763 0 39.482-17.72 39.482-39.482 0-21.806-17.72-39.568-39.482-39.568z" horiz-adv-x="1032" />
<glyph unicode="&#xe602;" d="M512.005 960c-282.776 0-512.005-229.229-512.005-512.005s229.229-511.995 512.005-511.995 512.005 229.218 512.005 511.995-229.229 512.005-512.005 512.005zM834.782 430.224c0-23.467-19.2-42.667-42.667-42.667h-181.335c-23.467 0-42.667-19.2-42.667-42.667v-192.002c0-23.467-19.2-42.667-42.667-42.667h-21.334c-23.467 0-42.667 19.2-42.667 42.667v192.002c0 23.467-19.2 42.667-42.667 42.667h-181.335c-23.467 0-42.667 19.2-42.667 42.667v21.334c0 23.467 19.2 42.667 42.667 42.667h181.335c23.467 0 42.667 19.2 42.667 42.667v170.668c0 23.467 19.2 42.667 42.667 42.667h21.334c23.467 0 42.667-19.2 42.667-42.667v-170.668c0-23.467 19.2-42.667 42.667-42.667h181.335c23.467 0 42.667-19.2 42.667-42.667v-21.334z" />
<glyph unicode="&#xe603;" d="M512 960c-282.752 0-512-229.248-512-512 0-282.795 229.248-512 512-512s512 229.205 512 512c0 282.752-229.248 512-512 512zM805.973 423.979c0-27.563-22.443-50.048-50.048-50.048h-119.851c-27.435 0-50.005-22.571-50.005-50.005v-119.851c0-27.563-22.443-50.048-50.005-50.048h-48.171c-27.563 0-50.005 22.443-50.005 50.048v119.851c0 27.435-22.571 50.005-50.005 50.005h-119.808c-27.563 0-50.048 22.443-50.048 50.048v48.085c0 27.563 22.443 50.048 50.048 50.048h119.851c27.435 0 50.005 22.571 50.005 50.005v119.893c0 27.563 22.443 50.005 50.005 50.005h48.171c27.563 0 50.005-22.443 50.005-50.005v-119.893c0-27.435 22.571-50.005 50.005-50.005h119.851c27.563 0 50.048-22.443 50.048-50.048v-48.085z" />
<glyph unicode="&#xe604;" d="M978.272 876.48c-16.459 10.4-135.605 78.187-466.272 78.187-330.709 0-449.835-67.787-466.261-78.187-12.885-8-45.739-28.672-45.739-69.067v-721.355c0-40.331 32.853-61.067 45.739-68.981 16.427-10.475 135.552-78.251 466.261-78.251 330.667 0 449.813 67.776 466.272 78.251 12.864 7.925 45.728 28.651 45.728 68.981v721.355c0 40.395-32.864 61.067-45.728 69.067zM917.664 566.005c-0.245-0.896-0.608-2.123-1.067-3.659-6.997-22.987-28.139-37.792-50.987-37.792-5.163 0-10.411 0.747-15.573 2.336-28.181 8.587-44.053 38.389-35.467 66.56l0.16 0.523c7.957 28.245 37.205 44.992 65.6 37.163 28.299-7.808 45.013-36.8 37.333-65.131zM848.032 805.291c29.141 2.443 55.115-19.349 57.557-48.715l0.181-2.123c2.443-29.355-19.36-55.125-48.715-57.568-1.515-0.128-2.997-0.192-4.491-0.192-27.445 0-50.784 21.056-53.099 48.907l-0.171 2.123c-2.443 29.355 19.371 55.125 48.736 57.568zM939.989 240.672c-10.304-14.336-30.293-17.632-44.672-7.317-10.283 7.392-20.224 14.421-29.877 21.216-103.339 72.928-178.005 125.621-275.627 355.435-21.333 50.197-45.067 52.309-52.843 53.003-58.411 5.045-147.637-89.568-192.683-158.475-42.613-65.163-82.443-159.755-106.261-216.256-7.115-16.907-13.056-30.933-17.493-40.672-3.723-8.139-9.515-20.405-19.445-27.584v-43.264h717.813c0 0 27.211-30.603 0-64h-749.803c-17.664 0-32 14.325-32 32v651.179c0 0 30.272 18.741 64 0l0.107-48.843c0 0 7.051-0.085 10.667-0.672 29.056-4.768 48.747-32.203 43.979-61.259-4.277-26.144-26.891-44.704-52.555-44.704-0.725 0-1.472 0.149-2.197 0.192v-275.851c23.883 54.859 55.157 121.749 88.907 173.653-5.717 4.821-10.528 10.944-13.92 18.187l-0.757 1.621c-12.661 26.592-1.333 58.421 25.28 71.061 18.987 9.024 40.512 5.664 55.936-6.56 48.704 52.704 118.091 109.888 186.091 104.021 31.808-2.827 76.064-21.035 106.080-91.733 33.355-78.485 62.752-133.899 91.669-176.224l1.504 2.016c17.845 23.467 51.285 28.032 74.741 10.229 23.456-17.813 28.043-51.275 10.219-74.731l-0.992-1.333c-4.907-6.581-11.072-11.648-17.877-15.232 28.523-26.411 59.019-47.947 94.4-72.907 9.771-6.891 19.851-14.016 30.304-21.525 14.325-10.315 17.611-30.315 7.307-44.672zM712.416 295.317c-0.224-0.896-0.597-2.123-1.056-3.659-6.997-22.987-28.149-37.792-50.987-37.792-5.163 0-10.4 0.747-15.573 2.336-28.181 8.587-44.053 38.389-35.467 66.56l0.171 0.523c7.947 28.245 37.205 44.992 65.579 37.163 28.288-7.819 45.024-36.811 37.333-65.131zM543.84 277.643c-8.021-21.408-28.341-34.613-49.931-34.613-6.208 0-12.555 1.099-18.741 3.403l-1.995 0.747c-27.584 10.347-41.557 41.088-31.211 68.672 10.336 27.573 41.067 41.557 68.672 31.211l2.005-0.747c27.584-10.347 41.557-41.088 31.2-68.672zM395.573 365.397c-6.848-2.933-13.973-4.32-20.981-4.32-20.683 0-40.373 12.117-49.056 32.331l-1.099 2.635c-11.243 27.232 1.728 58.411 28.96 69.643 27.221 11.211 58.411-1.728 69.643-28.96l0.544-1.301c11.616-27.072-0.928-58.421-28.011-70.027z" />
<glyph unicode="&#xe605;" d="M986.109 881.208c-16.558 10.451-136.682 78.792-470.002 78.792-333.448 0-453.443-68.341-470.002-78.792-12.989-8.086-46.106-28.902-46.106-69.631v-727.109c0-40.643 33.117-61.589 46.106-69.545 16.558-10.623 136.553-78.921 470.002-78.921 333.319 0 453.443 68.298 470.002 78.878 12.946 8 46.106 28.902 46.106 69.588v727.109c0 40.729-33.16 61.546-46.106 69.631zM800.827 718.806c0 35.611 28.859 64.513 64.513 64.513 35.611 0 64.513-28.902 64.513-64.513s-28.902-65.589-64.513-65.589c-35.654 0-64.513 27.784-64.513 63.438v2.15zM770.462 516.492c0.516 0.946 2.107 3.785 2.624 4.688 18.408 30.536 58.148 40.471 88.555 22.15 30.493-18.322 40.471-57.976 22.15-88.512-12.215-20.386-34.192-32.042-56.557-32.042-10.58 0-21.246 2.624-31.052 8.129-30.493 17.247-42.235 54.707-25.719 85.588zM948.089 222.139c-13.806-19.225-40.686-23.741-60.040-9.806l-30.020 21.375c-45.891 32.429-86.362 60.944-125.457 102.103 14.666-29.762 4.645-66.32-24.429-83.695-10.494-6.322-22.279-9.376-33.891-9.376-21.633 0-42.837 10.58-54.965 30.063-18.58 29.934-10.58 68.685 19.010 87.738 0.602 0.387 2.925 1.849 3.527 2.193 21.763 13.161 48.127 11.612 68.212-1.419-43.009 51.568-85.502 122.403-133.5 235.216-12.559 29.633-27.483 45.46-44.342 46.966-35.568 3.398-91.652-40.514-139.005-95.351 3.656-5.333 6.838-11.139 8.86-17.591 0.43-1.462 1.462-4.989 1.849-6.494 8.086-34.708-13.419-69.416-48.041-77.588-4.946-1.161-9.978-1.72-14.838-1.72-6.021 0-11.741 1.333-17.419 2.925-32.988-59.653-62.707-129.93-81.932-175.563-18.881-44.815-29.547-69.631-47.095-77.975v-30.106h723.583c0 0 27.483-30.837 0-64.513h-755.882c-17.763 0-32.257 14.451-32.257 32.257v656.36c0 0 30.579 18.881 64.513 0v-38.493c2.409 0.043 4.774 0.215 7.182-0.043 0.731-0.086 3.656-0.516 4.43-0.602 35.267-5.204 59.653-37.977 54.449-73.201-4.731-32.085-32.257-55.137-63.739-55.137-0.817 0-1.548 0.129-2.322 0.172v-240.678c22.924 51.267 51.095 109.2 81.416 155.477 5.505 8.344 133.586 204.594 263.903 193.497 34.923-3.14 83.437-22.838 115.866-99.050 89.975-211.862 150.875-254.871 251.86-326.137l30.708-21.849c19.354-13.806 23.698-40.686 9.806-59.954zM505.957 272.244c-12.215-20.386-34.192-32.042-56.557-32.042-10.58 0-21.289 2.624-31.052 8.129-30.45 17.204-42.106 54.664-25.676 85.545 0.473 0.946 2.107 3.785 2.667 4.688 18.365 30.536 58.062 40.471 88.512 22.15 30.493-18.279 40.428-57.933 22.107-88.469z" horiz-adv-x="1032" />
<glyph unicode="&#xe606;" d="M928.459 805.888c-0.48 0.213-1.024 0.331-1.525 0.565-4.587 1.813-9.397 3.328-14.539 4.459-1.333 0.309-2.709 0.661-4.085 0.896-5.899 1.067-11.915 1.835-18.272 1.835-2.496-0.021-5.355-0.288-8.331-0.629l-30.997-6.709c-3.456-0.661-10.133-1.899-19.371-3.52l92.448 123.083c7.061 9.419 5.163 22.795-4.245 29.877-9.44 7.051-22.795 5.163-29.877-4.245l-119.083-158.549c-67.296-10.016-165.941-21.899-259.061-22.603-4.64-0.043-9.184-0.053-13.749-0.053-215.648 0-363.915 40.661-363.915 40.661-17.984 0-34.272-4.725-47.253-12.213-16.832-8.459-26.187-20.725-27.147-35.648-0.309-1.941-0.789-3.851-0.789-5.835 0-7.872 3.083-15.061 7.317-21.813h-0.779l7.339-9.525c1.045-1.621 1.749-3.253 3.147-4.939l11.605-14.293v-0.043l351.936-435.168c9.035-11.157 19.392-19.659 30.443-25.771v-172.875c0-14.059-11.083-28.672-24.629-32.437l-162.88-45.44c-13.547-3.776-24.629-18.357-24.629-32.416v-0.213c0-14.059 11.509-25.557 25.557-25.557 0 0 27.648 0 228.853 0 201.184 0 228.811 0 228.811 0 14.048 0 25.557 11.499 25.557 25.557v0.213c0 14.059-11.093 28.587-24.661 32.288l-167.456 45.707c-13.568 3.691-24.661 18.229-24.661 32.288v170.389c12.789 6.176 24.768 15.563 35.061 28.277l363.605 449.504c4.917 6.144 8.501 12.128 11.061 17.963l0.043 0.107c0.107 0.107 0.107 0.192 0.149 0.267 3.669 6.336 5.749 13.312 5.749 20.629 0 19.573-14.827 36.512-36.747 45.931zM247.904 616.203l-92.608 114.507v0.128l-5.184 6.389c57.728-12.523 183.989-34.923 347.669-34.923 4.736 0 9.483 0.011 14.272 0.053 69.173 0.533 140.565 6.848 201.141 14.197l-84.256-112.192c-33.099-1.12-70.944-1.803-114.635-1.803-137.195-0.011-218.411 6.485-266.4 13.643zM548.107 368.299c-46.581 0-84.309 37.749-84.309 84.309 0 46.581 37.728 84.309 84.309 84.309 46.56 0 84.309-37.728 84.309-84.309 0-46.56-37.749-84.309-84.309-84.309zM775.339 615.413c-22.731-3.2-52.469-6.208-91.136-8.523l88.309 117.568c45.131 6.571 78.421 12.661 90.869 15.019l0.853 0.171 0.853 0.192 13.205 2.859-102.955-127.285z" />
<glyph unicode="&#xe607;" d="M891.52 798.933c-0.512 0.171-0.981 0.256-1.451 0.512-4.224 1.621-8.704 3.115-13.483 4.096-1.195 0.341-2.475 0.683-3.755 0.853-5.461 0.981-11.051 1.707-16.896 1.707-2.432 0-5.035-0.213-7.765-0.555-7.083-0.597-13.909-1.664-20.096-3.627-7.339-1.707-11.733-3.115-8.661-2.645-3.883-0.768-12.032-2.261-23.424-4.224l86.912 114.389c10.496 13.867 7.808 33.621-6.059 44.16s-33.621 7.765-44.117-6.016l-126.251-166.144c-58.411-7.68-131.584-15.019-201.429-15.531-206.763-1.621-349.952 37.675-349.952 37.675-16.725 0-31.787-4.437-43.776-11.307-15.616-7.851-24.32-19.2-25.131-33.067-0.299-1.792-0.853-3.541-0.853-5.419 0-7.211 2.901-13.952 6.827-20.181h-0.64l6.741-8.789c0.981-1.579 1.664-3.029 2.901-4.565l10.752-13.312 326.187-403.328c4.651-5.845 9.813-10.88 15.232-15.232v-200.789c0-9.173-7.808-19.413-16.597-21.888l-160.341-44.715c-17.92-4.949-31.915-23.424-31.915-42.197 0-19.712 16-35.712 35.669-35.712h450.603c19.669 0 35.669 16 35.669 35.883 0 18.603-14.080 36.992-32 41.941l-164.864 44.971c-8.789 2.389-16.555 12.501-16.555 21.717v197.845c6.997 4.992 13.739 10.752 19.797 18.176l336.981 416.64c4.48 5.632 7.893 11.221 10.24 16.64v0.043c0 0 0.085 0.171 0.128 0.256 3.413 5.845 5.376 12.331 5.376 19.115 0 18.133-13.781 33.835-34.005 42.624zM580.267 481.195c-41.344 0-74.795 33.451-74.795 74.752 0 41.344 33.451 74.837 74.795 74.837s74.837-33.493 74.837-74.837c0-41.301-33.536-74.752-74.837-74.752z" />
<glyph unicode="&#xe608;" d="M1026.986 153.142c1.013 39.828-16.718 92.214-58.616 184.503-39.031 86.102-90.026 182.951-139.792 265.766-207.818 345.81-273.548 345.81-308.871 345.81-2.102 0-4.128-0.334-6.23-0.42-2.026 0.086-4.085 0.42-6.155 0.42-35.323 0-101.096 0-308.882-345.81-49.81-82.869-100.718-179.663-139.792-265.723-45.767-100.848-62.69-154.107-57.851-195.293v-0.043c1.563-13.387 5.389-25.514 11.242-37.554 9.432-19.24 23.832-34.277 40.798-44 83.752-69.136 258.565-116.801 460.757-116.844 202.774 0 378.018 47.869 461.511 117.35 16.546 9.723 30.569 24.587 39.828 43.45 4.128 8.375 7.114 16.837 9.184 25.729 0.216 0.798 0.377 1.638 0.636 2.447 0.043 0.129 0.043 0.377 0.086 0.507 1.52 6.489 2.361 13.096 2.361 19.704h-0.216zM466.718 658.901c0 0.776 0.172 1.39 0.216 2.123h-0.216c0 23.412 15.112 29.75 47.115 29.75 31.108 0 47.115-6.338 47.115-29.75h-0.183c0.032-0.733 0.183-1.347 0.183-2.123v-336.777c0-23.433-15.155-29.75-47.158-29.75-31.097 0-47.072 6.316-47.072 29.75v336.777zM513.595 128.868c-32.606 0-58.95 26.398-58.95 58.972 0 32.531 26.333 58.929 58.95 58.929 32.585 0 58.95-26.398 58.95-58.929 0-32.574-26.355-58.972-58.95-58.972z" />
<glyph unicode="&#xe609;" d="M1016.277 150.912c0.981 39.424-16.555 91.264-57.984 182.571-38.613 85.163-89.088 180.992-138.325 262.997-205.696 342.187-270.72 342.187-305.664 342.187-2.091 0-4.096-0.341-6.187-0.427-2.005 0.085-4.053 0.427-6.059 0.427-34.944 0-100.053 0-305.664-342.187-49.28-82.005-99.669-177.835-138.325-262.997-45.312-99.755-62.037-152.491-57.259-193.237v0c1.536-13.269 5.333-25.259 11.136-37.163 9.344-19.072 23.595-33.92 40.363-43.563 82.859-68.437 255.872-115.584 455.979-115.584 200.661 0 374.101 47.317 456.704 116.096 16.384 9.685 30.251 24.32 39.424 43.008 4.096 8.32 7.040 16.683 9.088 25.515 0.213 0.768 0.384 1.579 0.64 2.432 0.043 0.085 0.043 0.341 0.085 0.512 1.493 6.4 2.347 12.928 2.347 19.499h-0.299zM442.155 668.16c0 1.408 0.597 2.261 0.683 3.584h-0.683c0 39.595 21.163 50.261 65.707 50.261 43.307 0 65.451-10.667 65.451-50.261h-0.597c0.085-1.323 0.597-2.176 0.597-3.584v-290.987c0-39.595-20.992-50.261-65.579-50.261-43.349 0-65.579 10.667-65.579 50.261v290.987zM508.245 84.267c-46.507 0-84.096 37.675-84.096 84.181 0 46.421 37.589 84.011 84.096 84.011s84.096-37.589 84.096-84.011c0-46.549-37.589-84.181-84.096-84.181z" />
<glyph unicode="&#xe60a;" d="M994.037 107.776h-960c-17.6 0-32-14.411-32-32v-107.776c0-17.589 14.4-32 32-32h960c17.6 0 32 14.411 32 32v107.776c0 17.6-14.389 32-32 32zM290.731 788.224h443.915c17.6 0 32 14.411 32 32v107.776c0 17.589-14.4 32-32 32h-443.915c-17.6 0-32-14.411-32-32v-107.776c0-17.6 14.389-32 32-32zM994.187 675.925h-960.288c-18.645 0-33.899-15.253-33.899-33.899v-103.979c0-18.645 15.253-33.899 33.899-33.899h960.288c18.645 0 33.899 15.253 33.899 33.899v103.979c0 18.645-15.253 33.899-33.899 33.899zM735.477 220.075c18.645 0 33.899 15.253 33.899 33.899v103.979c0 18.645-15.253 33.899-33.899 33.899h-445.557c-18.645 0-33.899-15.253-33.899-33.899v-103.979c0-18.645 15.253-33.899 33.899-33.899h445.557z" horiz-adv-x="1028" />
<glyph unicode="&#xe60b;" d="M994.005 107.776h-960c-17.579 0-32-14.421-32-32v-107.776c0-17.621 14.421-32 32-32h960c17.579 0 32 14.379 32 32v107.776c0 17.579-14.421 32-32 32zM290.645 788.224h443.904c17.579 0 32 14.421 32 32v107.776c0 17.621-14.421 32-32 32h-443.904c-17.579 0-32-14.379-32-32v-107.776c0-17.579 14.421-32 32-32zM994.176 675.968h-960.341c-18.603 0-33.835-15.275-33.835-33.92v-104.021c0-18.688 15.232-33.92 33.835-33.92h960.341c18.688 0 33.92 15.232 33.92 33.92v104.021c0 18.645-15.275 33.92-33.92 33.92zM735.403 220.032c18.688 0 33.92 15.232 33.92 33.92v104.021c0 18.688-15.232 33.92-33.92 33.92h-445.568c-18.603 0-33.835-15.275-33.835-33.92v-104.021c0-18.688 15.232-33.92 33.835-33.92h445.568z" horiz-adv-x="1028" />
<glyph unicode="&#xe60c;" d="M987.136 111.283h-950.103c-17.419 0-31.67-14.262-31.67-31.67v-106.665c0-17.408 14.252-31.67 31.67-31.67h950.103c17.419 0 31.67 14.262 31.67 31.67v106.665c0 17.419-14.252 31.67-31.67 31.67zM37.033 784.717h947.422c17.419 0 31.67 14.262 31.67 31.67v106.665c0 17.408-14.252 31.67-31.67 31.67h-947.422c-17.419 0-31.67-14.262-31.67-31.67v-106.665c0-17.419 14.241-31.67 31.67-31.67zM33.549 503.581h950.388c18.453 0 33.549 15.096 33.549 33.549v102.896c0 18.453-15.096 33.549-33.549 33.549h-950.388c-18.453 0-33.549-15.096-33.549-33.549v-102.907c0-18.453 15.096-33.539 33.549-33.539zM33.549 222.424h949.026c18.453 0 33.549 15.096 33.549 33.549v102.907c0 18.453-15.096 33.549-33.549 33.549h-949.026c-18.453-0.011-33.549-15.096-33.549-33.549v-102.907c0-18.453 15.096-33.549 33.549-33.549z" />
<glyph unicode="&#xe60d;" d="M997.461 107.776h-960c-17.579 0-32-14.421-32-32v-107.776c0-17.621 14.421-32 32-32h960c17.579 0 32 14.379 32 32v107.776c0 17.579-14.421 32-32 32zM37.461 788.224h958.677c17.579 0 32 14.421 32 32v107.776c0 17.621-14.421 32-32 32h-958.677c-17.579 0-32-14.379-32-32v-107.776c0-17.579 14.421-32 32-32zM33.963 504.107h960.341c18.603 0 33.835 15.232 33.835 33.92v104.021c0 18.688-15.232 33.92-33.835 33.92h-960.341c-18.688 0-33.963-15.275-33.963-33.92v-104.021c0-18.645 15.275-33.92 33.963-33.92zM33.963 220.032h960.256c18.688 0 33.92 15.232 33.92 33.92v104.021c0 18.688-15.232 33.92-33.92 33.92h-960.256c-18.688 0-33.963-15.275-33.963-33.92v-104.021c0-18.645 15.275-33.92 33.963-33.92z" horiz-adv-x="1029" />
<glyph unicode="&#xe60e;" d="M992 107.776h-960c-17.6 0-32-14.411-32-32v-107.776c0-17.589 14.4-32 32-32h960c17.6 0 32 14.411 32 32v107.776c0 17.6-14.4 32-32 32zM32 788.224h576.021c17.6 0 32 14.411 32 32v107.776c0 17.589-14.4 32-32 32h-576.021c-17.6 0-32-14.411-32-32v-107.776c0-17.6 14.4-32 32-32zM33.899 504.16h960.288c18.645 0 33.899 15.253 33.899 33.899v103.968c0 18.645-15.253 33.899-33.899 33.899h-960.288c-18.645 0-33.899-15.253-33.899-33.899v-103.979c0-18.645 15.253-33.888 33.899-33.888zM33.899 220.075h577.664c18.645 0 33.899 15.253 33.899 33.899v103.979c0 18.645-15.253 33.899-33.899 33.899h-577.664c-18.645-0.011-33.899-15.253-33.899-33.899v-103.979c0-18.645 15.253-33.899 33.899-33.899z" horiz-adv-x="1028" />
<glyph unicode="&#xe60f;" d="M997.419 107.776h-960c-17.579 0-32-14.421-32-32v-107.776c0-17.621 14.421-32 32-32h960c17.579 0 32 14.379 32 32v107.776c0 17.579-14.421 32-32 32zM37.419 788.224h576c17.579 0 32 14.421 32 32v107.776c0 17.621-14.421 32-32 32h-576c-17.579 0-32-14.379-32-32v-107.776c0-17.579 14.421-32 32-32zM33.835 504.107h960.341c18.688 0 33.92 15.232 33.92 33.92v104.021c0 18.688-15.232 33.92-33.92 33.92h-960.341c-18.603 0-33.835-15.275-33.835-33.92v-104.021c0-18.645 15.232-33.92 33.835-33.92zM33.835 220.032h577.664c18.688 0 33.92 15.232 33.92 33.92v104.021c0 18.688-15.232 33.92-33.92 33.92h-577.664c-18.603 0-33.835-15.275-33.835-33.92v-104.021c0-18.645 15.232-33.92 33.835-33.92z" horiz-adv-x="1029" />
<glyph unicode="&#xe610;" d="M996.065 107.794h-959.98c-17.6 0-31.999-14.421-31.999-31.999v-107.784c0-17.578 14.4-31.999 31.999-31.999h959.98c17.6 0 31.999 14.421 31.999 31.999v107.784c0 17.578-14.4 31.999-31.999 31.999zM996.065 960h-576.020c-17.6 0-31.999-14.421-31.999-31.999v-107.784c0-17.6 14.4-31.999 31.999-31.999h576.020c17.6 0 31.999 14.4 31.999 31.999v107.784c0 17.578-14.4 31.999-31.999 31.999zM994.166 675.921h-960.268c-18.656 0-33.898-15.242-33.898-33.898v-103.977c0-18.645 15.242-33.898 33.898-33.898h960.268c18.645 0 33.898 15.253 33.898 33.898v103.977c0 18.656-15.253 33.898-33.898 33.898zM994.166 391.841h-577.663c-18.634 0-33.887-15.253-33.887-33.898v-103.977c0-18.645 15.253-33.898 33.887-33.898h577.663c18.645 0 33.898 15.253 33.898 33.898v103.977c0 18.656-15.253 33.898-33.898 33.898z" horiz-adv-x="1028" />
<glyph unicode="&#xe611;" d="M991.917 107.804h-959.92c-17.577 0-31.997-14.42-31.997-31.997v-107.81c0-17.577 14.42-31.997 31.997-31.997h959.92c17.62 0 31.997 14.42 31.997 31.997v107.81c0 17.62-14.377 31.997-31.997 31.997zM415.965 788.196h575.952c17.62 0 31.997 14.42 31.997 31.997v107.81c0 17.577-14.377 31.997-31.997 31.997h-575.952c-17.577 0-31.997-14.42-31.997-31.997v-107.81c0-17.577 14.42-31.997 31.997-31.997zM995.458 675.949h-960.176c-18.686 0-33.917-15.231-33.917-33.917v-104.013c0-18.686 15.188-33.917 33.917-33.917h960.176c18.686 0 33.917 15.231 33.917 33.917v104.013c0 18.644-15.231 33.917-33.917 33.917zM995.458 391.898h-577.531c-18.686 0-33.96-15.273-33.96-33.917v-104.013c0-18.686 15.273-33.917 33.96-33.917h577.531c18.686 0 33.917 15.231 33.917 33.917v104.013c0 18.644-15.231 33.917-33.917 33.917z" horiz-adv-x="1029" />
<glyph unicode="&#xe612;" d="M976.96 876.608c-16.427 10.368-135.445 78.059-465.632 78.059-63.979 0-119.925-2.56-168.832-6.731-1.664-0.149-3.296-0.288-4.949-0.437-58.837-5.205-107.285-12.747-146.549-21.045-94.112-19.893-136.053-44-145.323-49.845-12.853-7.979-45.675-28.64-45.675-68.981v-720.405c0-40.245 32.821-60.96 45.675-68.853 6.752-4.309 30.901-18.293 79.915-33.269 70.144-21.44 191.296-44.896 385.728-44.896 330.187 0 449.205 67.691 465.632 78.165 12.821 7.893 45.653 28.608 45.653 68.853v720.405c0.011 40.341-32.821 61.003-45.643 68.981zM505.675 322.315c-19.125 0-34.603 15.52-34.603 34.581 0 19.136 15.477 34.624 34.603 34.624 19.093 0 34.613-15.488 34.613-34.624 0-19.061-15.52-34.581-34.613-34.581zM598.24 247.755c-19.115 0-34.56 15.52-34.56 34.581 0 19.147 15.445 34.624 34.56 34.624 19.136 0 34.603-15.477 34.603-34.624 0-19.061-15.467-34.581-34.603-34.581zM607.797 391.52c-19.104 0-34.549 15.488-34.549 34.613 0 19.115 15.445 34.603 34.549 34.603 19.147 0 34.603-15.488 34.603-34.603 0.011-19.125-15.456-34.613-34.603-34.613zM615.093 523.147c-59.221-36.043-194.336-54.987-197.12-68.512l-0.384 2.88c-3.819-33.653-9.099-85.131-7.296-101.323 2.763-24.747 49.696-65.579 19.819-98.581-29.867-32.96-77.547-44.352-69.291-58.080 8.224-13.749 66.005-80.032 27.381-103.541-23.403-14.251-48.576-52.992-77.888-81.632-166.197 18.453-226.923 55.883-230.208 57.973l-0.48 0.309-0.48 0.288c-10.048 6.155-15.147 10.976-15.147 14.304v720.395c0 5.024 11.2 11.968 15.413 14.581l0.235 0.16 0.245 0.16c3.776 2.4 83.733 51.125 309.973 64.661 88.715-114.837 242.411-208.896 257.995-253.984 0 0 26.464-73.984-32.768-110.059zM696.427 178.571c-19.104 0-34.581 15.488-34.581 34.571 0 19.147 15.477 34.603 34.581 34.603 19.147 0 34.603-15.456 34.603-34.603 0-19.083-15.456-34.571-34.603-34.571zM696.427 322.336c-19.104 0-34.581 15.499-34.581 34.56 0 19.136 15.477 34.624 34.581 34.624 19.125 0 34.603-15.488 34.603-34.624 0-19.061-15.477-34.56-34.603-34.56zM513.824 569.995c-51.957 24.363-146.016-41.525-146.016-41.525l0.352-0.512c-2.379-3.168-2.709-7.52-0.448-11.019 2.283-3.488 6.411-4.917 10.261-4.043l0.117-0.213c0.971 0.501 1.792 0.875 2.688 1.376 0.096 0.043 0.171 0.021 0.235 0.075 0 0 0.021 0.021 0.064 0.021 62.539 32.96 101.899 5.216 130.816 24.021 22.123 14.432 1.931 31.819 1.931 31.819z" />
<glyph unicode="&#xe613;" d="M512.366 591.413c-68.599 32.085-192.766-54.836-192.766-54.836l0.516-0.688c-3.14-4.215-3.613-9.892-0.602-14.623 2.968-4.473 8.43-6.365 13.462-5.247l0.172-0.301c1.333 0.688 2.365 1.161 3.613 1.763 0.086 0.086 0.215 0.086 0.258 0.172 0 0 0.043 0 0.129 0 82.534 43.482 134.532 6.881 172.681 31.741 29.203 19.010 2.538 42.020 2.538 42.020zM986.152 881.208c-16.601 10.451-136.725 78.792-470.045 78.792-64.040 0-120.124-2.538-169.154-6.709-206.443-17.376-287.515-63.61-300.891-72.083-12.946-8.086-46.063-28.902-46.063-69.588v-727.195c0-40.6 33.117-61.546 46.063-69.502 11.096-7.053 68.857-39.912 205.196-60.901 67.61-10.408 154.273-17.978 264.849-17.978 333.319 0 453.443 68.298 470.045 78.878 12.903 7.957 46.063 28.859 46.063 69.502v727.195c0 40.686-33.16 61.503-46.063 69.588zM561.998 220.289c-41.762 0-75.481 33.934-75.481 75.696s33.719 75.696 75.481 75.696 75.653-33.934 75.653-75.696-33.891-75.696-75.653-75.696zM597.222 529.739c-66.75-40.643-219.045-61.976-222.141-77.287l-0.43 3.355c-4.387-37.977-10.279-95.953-8.215-114.232 3.097-27.87 55.998-73.846 22.365-111.135-33.59-37.117-87.351-49.89-78.061-65.417s74.362-90.19 30.837-116.683c-5.419-3.312-10.967-7.957-16.644-13.247-168.38 17.763-230.098 55.137-231.818 56.213-0.774 0.516-2.021 1.29-3.269 2.107v709.175c1.419 0.946 3.011 1.935 4.301 2.667 0.903 0.602 88.469 53.503 340.846 63.266 87.394-83.996 188.035-182.444 199.217-214.744-0.086 0 29.762-83.394-36.988-124.038zM791.709 69.070c-41.762 0-75.524 33.934-75.524 75.438 0 42.020 33.762 75.782 75.524 75.782 41.848 0 75.61-33.762 75.61-75.782 0-41.504-33.762-75.438-75.61-75.438zM782.161 319.898c-41.762 0-75.567 33.676-75.567 75.438 0 41.848 33.805 75.524 75.567 75.524 41.848 0 75.61-33.676 75.61-75.524-0.043-41.762-33.805-75.438-75.61-75.438z" horiz-adv-x="1032" />
<glyph unicode="&#xe614;" d="M462.891 779.083v63.584c0 17.675-14.325 32-32 32s-32-14.325-32-32v-65.611c11.371 3.488 23.424 5.387 35.925 5.387 9.675 0 19.040-1.248 28.075-3.36zM284.619 774.315c-15.605 8.352-34.976 2.464-43.317-13.099-8.341-15.584-2.475-34.976 13.099-43.328l60.32-32.32c4.683 21.611 15.125 41.045 29.547 56.789l-59.648 31.957zM605.877 717.899c15.573 8.341 21.44 27.744 13.099 43.328-8.331 15.573-27.712 21.44-43.328 13.099l-53.333-28.576c15.019-15.243 26.005-34.411 31.477-55.755l52.085 27.904zM991.488 659.488l-497.728 0.011c0 32.555-26.4 58.933-58.944 58.933s-58.933-26.389-58.933-58.933c0-2.453 0.203-4.864 0.491-7.253-17.643-3.328-39.328-7.829-62.581-13.621-71.371-17.76-156.96-47.488-182.197-91.637l0.16-0.032-88.704-206.752c-19.072-49.504-43.051-121.355-43.051-121.355v-42.453h50.411c25.163 53.781 79.648 91.211 142.837 91.211 82.059 0 149.621-62.997 157.013-143.168h335.232c7.381 80.171 74.933 143.168 157.003 143.168 63.2 0 117.675-37.429 142.837-91.211h35.637v438.635c-0.021 25.963-21.141 39.296-29.483 44.459zM280.171 393.931h-173.867c48.021 149.899 89.536 154.997 89.536 154.997 72.779 12.896 84.331 0 84.331 0v-154.997zM695.179 389.365c-5.44-5.44-13.461-8.213-23.872-8.213h-75.989c-0.491-0.267-6.443-0.117-10.443-4.192-4.256-4.213-3.893-10.101-3.893-10.155l0.021-74.528c0-21.259-10.837-32.96-30.517-32.96h-0.107c-19.349 0-30.016 11.701-30.016 32.96v76.171c0 0.117-0.181 4.544-4.203 8.608-4.021 4-10.261 4.107-10.261 4.107h-76.192c-18.293 0-29.099 9.141-30.88 25.899h-0.245l-0.107 4.981c-0.043 10.315 2.645 18.069 7.957 23.392 5.408 5.397 13.397 8.149 23.765 8.149h76.053c0.811-0.213 6.379 0.128 10.464 4.224 4.235 4.203 3.861 10.101 3.861 10.155l-0.021 74.507c0 21.259 10.88 32.971 30.613 32.971 13.696 0 30.005-5.717 30.059-32.96v-76.192c0-0.149 0.16-4.544 4.139-8.565 4.032-4.043 10.251-4.149 10.251-4.149h76.213c16.704 0 26.997-7.253 30.176-21.141l1.067 0.896 0.075-10.581c0.021-10.315-2.656-18.048-7.968-23.381zM286.987 109.845c0-51.776-41.973-93.749-93.749-93.749s-93.749 41.973-93.749 93.749c0 51.776 41.973 93.749 93.749 93.749s93.749-41.973 93.749-93.749zM936.224 109.845c0-51.776-41.973-93.749-93.749-93.749s-93.749 41.973-93.749 93.749c0 51.776 41.973 93.749 93.749 93.749s93.749-41.973 93.749-93.749z" />
<glyph unicode="&#xe615;" d="M991.488 794.368h-412.501c-11.136 57.899-61.909 101.632-123.051 101.632-66.944 0-121.003-52.437-124.757-118.357-29.653-6.827-62.933-15.872-94.165-27.349-47.019-17.152-89.003-39.723-105.429-68.437l0.171-0.043-88.704-206.763c-19.072-49.493-43.051-168.533-43.051-168.533v-108.843h96.683c-4.693-14.677-7.979-30.037-7.979-46.293 0-83.285 67.755-151.083 151.040-151.083 81.323 0 147.456 64.811 150.485 145.408h287.915c0-83.285 67.755-151.083 150.997-151.083 83.328 0 151.125 67.797 151.125 151.083 0 18.347-3.797 35.669-9.771 51.968h50.432v552.192c0 26.027-21.077 39.339-29.44 44.501zM330.453 495.488h-191.787c52.992 165.333 98.731 170.965 98.731 170.965 80.341 14.251 93.056 0 93.056 0v-170.965zM728.917 406.443c-1.707-1.749-1.664-4.608-1.664-4.651v-87.509c0-30.165-16.981-48.171-45.483-48.171-27.989 0-44.757 18.005-44.757 48.171v88.96c0-0.085 1.237-0.085-2.176 3.499-1.109 1.067-4.139 1.621-5.333 1.664h-88.704c-27.819 0-44.843 16.085-45.952 43.179-0.128 0.896-0.213 1.749-0.213 2.645 0 29.312 17.493 46.549 46.805 46.549h88.747c0.085-0.128 3.243-0.128 5.461 2.091 1.451 1.493 1.621 3.968 1.621 3.968l-0.085 88.107c0 30.123 16.981 48.128 45.483 48.128 28.075 0 44.757-18.005 44.757-48.128v-89.003c0 0.085-1.152 0.128 2.261-3.371 1.152-1.152 4.181-1.749 5.333-1.792h88.576c28.501 0 45.824-16.896 46.251-45.269 0-0.171 0-0.299 0-0.469v-0.085c0.085-14.677-3.968-25.941-11.989-34.048-8.235-8.277-20.011-12.501-34.773-12.501h-88.747c-0.256-0.043-3.499 0.043-5.419-1.963z" />
<glyph unicode="&#xe616;" d="M978.272 876.48c-16.437 10.4-135.605 78.187-466.272 78.187-330.709 0-449.835-67.787-466.251-78.187-12.896-8-45.749-28.672-45.749-69.067v-721.355c0-40.331 32.853-61.067 45.749-68.981 16.416-10.475 135.541-78.24 466.251-78.24 330.667 0 449.835 67.776 466.272 78.251 12.853 7.915 45.728 28.64 45.728 68.971v721.355c0 40.395-32.875 61.067-45.728 69.067zM300.544 631.253h-176.832c-21.141 0-26.859 10.869-26.859 32 0 21.717 5.707 32 26.859 32h176.832c0.683 0 1.248-0.107 1.92-0.128v0.128c21.141 0 26.859-10.859 26.859-31.989 0-21.717-5.707-32.011-26.859-32.011v0.149c-0.672-0.032-1.237-0.149-1.92-0.149zM123.712 571.328h91.2c0.693 0 1.259-0.107 1.92-0.128v0.128c21.141 0 26.859-10.859 26.859-31.989 0-21.717-5.707-32.011-26.859-32.011v0.149c-0.661-0.021-1.216-0.149-1.92-0.149h-91.2c-21.141 0-26.859 10.869-26.859 32 0 21.728 5.707 32 26.859 32zM123.712 385.877h91.2c0.693 0 1.259-0.128 1.92-0.149v0.149c21.141 0 26.859-10.293 26.859-32 0-21.141-5.707-32-26.859-32v0.128c-0.661-0.021-1.216-0.128-1.92-0.128h-91.2c-21.141 0-26.859 10.293-26.859 32 0 21.141 5.707 32 26.859 32zM123.712 261.963h176.832c0.683 0 1.248-0.128 1.92-0.149v0.149c21.141 0 26.859-10.293 26.859-32 0-21.141-5.707-32-26.859-32v0.117c-0.661-0.021-1.227-0.128-1.92-0.128h-176.832c-21.141 0-26.859 10.293-26.859 32 0 21.152 5.707 32.011 26.859 32.011zM411.296 74.624v0.128c-0.661-0.021-1.227-0.128-1.92-0.128h-285.664c-21.141 0-26.859 10.293-26.859 32 0 21.141 5.707 32 26.859 32h285.664c0.683 0 1.248-0.128 1.92-0.149v0.149c21.141 0 26.859-10.293 26.859-32-0.011-21.141-5.717-32-26.859-32zM411.296 754.581v0.149c-0.661-0.021-1.227-0.149-1.92-0.149h-285.664c-21.141 0-26.859 10.869-26.859 32 0 21.717 5.707 32 26.859 32h285.664c0.683 0 1.248-0.107 1.92-0.128v0.128c21.141 0 26.859-10.859 26.859-31.989-0.011-21.717-5.717-32.011-26.859-32.011zM901.877 74.624h-285.664c-0.683 0-1.248 0.107-1.92 0.128v-0.128c-21.141 0-26.859 10.859-26.859 32 0 21.707 5.707 32 26.859 32v-0.149c0.661 0.021 1.227 0.149 1.92 0.149h285.664c21.141 0 26.859-10.859 26.859-32-0.011-21.707-5.717-32-26.859-32zM901.877 197.963h-176.832c-0.683 0-1.248 0.107-1.92 0.128v-0.128c-21.141 0-26.859 10.859-26.859 32 0 21.707 5.707 32 26.859 32v-0.149c0.661 0.021 1.227 0.149 1.92 0.149h176.832c21.141 0 26.859-10.859 26.859-32-0.011-21.717-5.717-32-26.859-32zM901.877 321.877h-91.211c-0.683 0-1.248 0.107-1.909 0.128v-0.128c-21.141 0-26.869 10.859-26.869 32 0 21.707 5.717 32 26.869 32v-0.149c0.661 0.021 1.216 0.149 1.909 0.149h91.211c21.141 0 26.859-10.859 26.859-32-0.011-21.707-5.717-32-26.859-32zM901.877 507.328h-91.211c-0.683 0-1.248 0.128-1.909 0.149v-0.149c-21.141 0-26.869 10.293-26.869 32.011 0 21.131 5.717 31.989 26.869 31.989v-0.128c0.661 0.021 1.216 0.128 1.909 0.128h91.211c21.141 0 26.859-10.283 26.859-32-0.011-21.131-5.717-32-26.859-32zM901.877 631.253h-176.832c-0.683 0-1.248 0.128-1.92 0.149v-0.149c-21.141 0-26.859 10.293-26.859 32.011 0 21.131 5.707 31.989 26.859 31.989v-0.128c0.661 0.021 1.227 0.128 1.92 0.128h176.832c21.141 0 26.859-10.283 26.859-32-0.011-21.141-5.717-32-26.859-32zM901.877 754.581h-285.664c-0.683 0-1.248 0.128-1.92 0.149v-0.149c-21.141 0-26.859 10.293-26.859 32.011 0 21.131 5.707 31.989 26.859 31.989v-0.128c0.661 0.021 1.227 0.128 1.92 0.128h285.664c21.141 0 26.859-10.283 26.859-32-0.011-21.131-5.717-32-26.859-32z" />
<glyph unicode="&#xe617;" d="M986.152 881.208c-16.601 10.451-136.768 78.792-470.045 78.792-333.362 0-453.443-68.341-470.002-78.792-12.946-8.086-46.106-28.902-46.106-69.631v-727.109c0-40.643 33.16-61.589 46.106-69.545 16.558-10.623 136.639-78.921 470.002-78.921 333.276 0 453.443 68.298 470.045 78.878 12.903 8 46.063 28.902 46.063 69.588v727.109c0 40.729-33.16 61.546-46.063 69.631zM303.17 633.82h-179.82c-21.504 0-27.268 10.451-27.268 32.601 0 21.504 5.763 32.601 27.268 32.601h179.82c0.774 0 1.204-0.301 1.935-0.344v0.344c21.59 0 27.397-10.494 27.397-32.644 0-21.504-5.806-32.558-27.397-32.558v0.258c-0.731 0-1.204-0.258-1.935-0.258zM123.35 573.995h94.448c0.774 0 1.204-0.301 1.935-0.344v0.344c21.59 0 27.397-10.494 27.397-32.644 0-21.504-5.806-32.558-27.397-32.558v0.258c-0.731 0-1.161-0.258-1.935-0.258h-94.448c-21.504 0-27.268 10.451-27.268 32.601 0 21.547 5.763 32.601 27.268 32.601zM123.35 387.508h94.448c0.774 0 1.204-0.258 1.935-0.301v0.301c21.59 0 27.397-11.096 27.397-32.601 0-22.15-5.806-32.601-27.397-32.601v0.301c-0.731-0.043-1.161-0.301-1.935-0.301h-94.448c-21.504 0-27.268 11.053-27.268 32.558 0 22.15 5.763 32.644 27.268 32.644zM123.35 262.524h179.82c0.774 0 1.204-0.258 1.935-0.301v0.301c21.59 0 27.397-11.096 27.397-32.601 0-22.15-5.806-32.601-27.397-32.601v0.301c-0.731-0.043-1.161-0.301-1.935-0.301h-179.82c-21.504 0-27.268 11.053-27.268 32.558 0 22.15 5.763 32.644 27.268 32.644zM411.381 73.371v0.301c-0.731-0.043-1.161-0.301-1.935-0.301h-286.096c-21.504 0-27.268 11.053-27.268 32.558 0 22.15 5.763 32.644 27.268 32.644h286.096c0.774 0 1.204-0.258 1.935-0.301v0.258c21.547 0 27.311-11.096 27.311-32.601 0-22.107-5.763-32.558-27.311-32.558zM411.381 757.815v0.258c-0.731 0-1.161-0.258-1.935-0.258h-286.096c-21.504 0-27.268 10.451-27.268 32.601 0 21.504 5.763 32.601 27.268 32.601h286.096c0.774 0 1.204-0.301 1.935-0.344v0.301c21.547 0 27.311-10.494 27.311-32.644 0-21.461-5.763-32.515-27.311-32.515zM907.919 73.371h-286.053c-0.774 0-1.161 0.258-1.935 0.301v-0.301c-21.547 0-27.311 10.451-27.311 32.601 0 21.504 5.763 32.601 27.311 32.601v-0.301c0.774 0.043 1.161 0.301 1.935 0.301h286.053c21.504 0 27.311-10.494 27.311-32.644 0-21.504-5.806-32.558-27.311-32.558zM907.919 197.365h-179.777c-0.774 0-1.204 0.258-1.935 0.301v-0.301c-21.547 0-27.397 10.451-27.397 32.601 0 21.504 5.849 32.601 27.397 32.601v-0.301c0.731 0.043 1.161 0.301 1.935 0.301h179.777c21.504 0 27.311-10.494 27.311-32.644 0-21.547-5.806-32.558-27.311-32.558zM907.919 322.349h-94.405c-0.774 0-1.247 0.258-1.935 0.301v-0.301c-21.59 0-27.354 10.451-27.354 32.601 0 21.504 5.763 32.601 27.354 32.601v-0.301c0.688 0.043 1.161 0.301 1.935 0.301h94.405c21.504 0 27.311-10.494 27.311-32.644 0-21.504-5.806-32.558-27.311-32.558zM907.919 508.836h-94.405c-0.774 0-1.247 0.258-1.935 0.258v-0.258c-21.59 0-27.354 11.053-27.354 32.558 0 22.15 5.763 32.644 27.354 32.644v-0.344c0.688 0.043 1.161 0.344 1.935 0.344h94.405c21.504 0 27.311-11.096 27.311-32.601 0-22.15-5.806-32.601-27.311-32.601zM907.919 633.82h-179.777c-0.774 0-1.204 0.258-1.935 0.258v-0.258c-21.547 0-27.397 11.053-27.397 32.558 0 22.15 5.849 32.644 27.397 32.644v-0.344c0.731 0.043 1.161 0.344 1.935 0.344h179.777c21.504 0 27.311-11.096 27.311-32.601 0-22.15-5.806-32.601-27.311-32.601zM907.919 757.815h-286.053c-0.774 0-1.161 0.258-1.935 0.258v-0.258c-21.547 0-27.311 11.053-27.311 32.558 0 22.15 5.763 32.644 27.311 32.644v-0.344c0.774 0.043 1.161 0.344 1.935 0.344h286.053c21.504 0 27.311-11.096 27.311-32.601 0-22.15-5.806-32.601-27.311-32.601z" horiz-adv-x="1032" />
<glyph unicode="&#xe618;" d="M1004.064 309.216l-192.235 188.939c24.789 44.661 38.965 95.979 38.965 150.581 0.011 171.637-139.627 311.264-311.264 311.264s-311.275-139.627-311.275-311.264c0-25.216 3.093-49.717 8.779-73.205-120.064-9.376-172.16-36.32-186.613-45.525-37.269-23.008-45.088-52.8-45.088-73.739v-395.925c0-20.885 7.797-50.635 44.587-73.451 18.112-11.52 91.509-49.088 275.733-49.088 184.096 0 257.589 37.547 275.371 48.832 37.173 23.061 44.981 52.811 44.981 73.696v295.893c26.272 9.579 50.848 22.688 73.28 38.613l187.072-183.872c0.288-0.299 0.48-0.725 0.811-1.056 21.301-21.28 60.555-16.565 87.691 10.571 27.136 27.104 31.84 66.379 10.539 87.701-0.405 0.405-0.928 0.651-1.333 1.035zM560.661 62.357c-1.376-1.173-3.648-2.581-5.003-3.424-2.304-1.461-58.379-35.776-230.016-35.776-171.733 0-227.648 34.293-230.336 36-1.077 0.661-3.285 2.027-4.64 3.2v391.872c1.397 1.195 3.712 2.624 5.077 3.467 2.016 1.291 46.037 28.245 174.933 34.464 54.027-92.437 154.272-154.709 268.853-154.709 7.115 0 14.144 0.32 21.131 0.8v-275.893zM539.531 408.64c-132.395 0-240.117 107.712-240.117 240.107s107.723 240.107 240.117 240.107 240.107-107.712 240.107-240.107-107.712-240.107-240.107-240.107zM539.531 827.84c-98.773 0-179.115-80.341-179.115-179.104s80.341-179.104 179.115-179.104c98.763 0 179.104 80.341 179.104 179.104s-80.341 179.104-179.104 179.104z" />
<glyph unicode="&#xe619;" d="M991.485 297.291c-0.426 0.384-0.895 0.639-1.321 1.023l-196.285 192.919c25.1 45.3 39.504 97.29 39.504 152.648 0 174.296-141.781 316.077-316.034 316.077-174.296 0-316.077-141.781-316.077-316.077 0-25.186 3.281-49.519 8.864-73-104.45-10.654-151.412-34.731-165.176-43.425-37.16-23.012-44.959-52.8-44.959-73.682v-395.426c0-20.881 7.799-50.627 44.533-73.341 18.111-11.549 91.452-49.007 275.379-49.007 183.97 0 257.31 37.501 274.996 48.752 37.16 23.012 44.959 52.715 44.959 73.639v294.3c21.222 8.949 41.124 20.37 59.661 33.538l191.129-187.848c0.298-0.341 0.511-0.767 0.852-1.065 21.691-21.691 61.622-16.876 89.236 10.782 27.615 27.487 32.43 67.46 10.739 89.194zM555.531 61.246c-0.938-1.236-4.262-3.281-5.924-4.347-2.301-1.449-58.17-35.712-229.738-35.712-171.483 0-227.395 34.263-230.079 36.010-0.895 0.554-2.855 1.747-3.921 1.747-0.341 0-0.639-0.128-0.639-0.597l-0.895 392.571c0.895 1.236 4.219 3.281 5.753 4.262 1.96 1.193 41.379 25.015 152.434 33.069 54.42-95.586 157.122-160.361 274.74-160.361 12.657 0 25.058 0.938 37.331 2.429v-236.472l0.938-32.601zM517.306 413.119c-127.292 0-230.846 103.555-230.846 230.804s103.555 230.761 230.846 230.761c127.249 0 230.761-103.512 230.761-230.761s-103.512-230.804-230.761-230.804zM517.306 797.849c-84.932 0-154.011-69.037-154.011-153.926s69.079-153.969 154.011-153.969c84.889 0 153.926 69.079 153.926 153.969s-69.037 153.926-153.926 153.926z" horiz-adv-x="1005" />
<glyph unicode="&#xe61a;" d="M1023.872 819.243c0.021 0.832 0.128 1.643 0.128 2.496 0 30.955-16.736 57.792-41.515 72.672-0.565 0.32-1.131 0.512-1.717 0.885-5.152 2.859-10.624 5.269-16.416 7.051-1.547 0.523-3.040 1.045-4.608 1.419-6.677 1.696-13.493 2.901-20.661 2.901-2.837-0.032-6.037-0.448-9.419-0.971-8.587-0.96-16.811-2.827-24.437-6.123-8.981-2.976-14.453-5.419-10.496-4.48-27.669-7.349-213.451-55.019-382.731-56.907-169.28 1.888-355.061 49.557-382.731 56.907 3.957-0.939-1.525 1.504-10.496 4.48-7.627 3.307-15.851 5.163-24.437 6.123-3.381 0.523-6.581 0.939-9.419 0.971-7.168 0-13.984-1.205-20.683-2.891-1.547-0.384-3.051-0.896-4.608-1.419-5.771-1.781-11.243-4.203-16.395-7.051-0.587-0.384-1.173-0.565-1.728-0.885-24.768-14.891-41.504-41.728-41.504-72.683 0-0.853 0.107-1.664 0.128-2.496-0.043-0.608-0.128-1.195-0.128-1.792 0-12.416 3.477-23.776 8.288-34.453h-0.896l4.309-7.851c2.133-4.939 4.587-9.941 7.52-14.997l13.109-22.688v-0.021l397.557-688.523c22.581-39.083 52.341-58.624 82.112-58.624s59.531 19.541 82.112 58.624l410.667 711.232c2.933 5.067 5.387 10.059 7.52 14.997l4.309 7.851h-0.896c4.811 10.677 8.288 22.037 8.288 34.453 0 0.597-0.085 1.184-0.128 1.792z" />
<glyph unicode="&#xe61b;" d="M1023.872 808.533c0.043 0.896 0.128 1.664 0.128 2.56 0 30.933-16.768 57.771-41.515 72.661-0.555 0.341-1.152 0.512-1.749 0.853-5.12 2.859-10.581 5.291-16.384 7.040-1.536 0.512-3.029 1.024-4.608 1.408-6.656 1.707-13.483 2.944-20.651 2.944-2.816-0.043-6.059-0.469-9.429-0.981-8.576-0.896-16.853-2.816-24.405-6.101-9.003-2.987-14.507-5.419-10.496-4.48-27.691-7.381-213.461-55.040-382.763-56.917-169.301 1.877-355.072 49.536-382.763 56.917 4.011-0.896-1.493 1.493-10.496 4.48-7.595 3.243-15.829 5.163-24.405 6.101-3.371 0.512-6.571 0.939-9.429 0.981-7.168 0-13.995-1.237-20.651-2.901-1.579-0.384-3.072-0.939-4.651-1.451-5.76-1.749-11.221-4.139-16.341-7.040-0.597-0.341-1.195-0.512-1.749-0.853-24.747-14.933-41.515-41.771-41.515-72.661 0-0.896 0.085-1.664 0.128-2.56-0.043-0.555-0.128-1.152-0.128-1.792 0-12.416 3.499-23.765 8.235-34.432h-0.853l4.309-7.893c2.133-4.949 4.565-9.941 7.552-15.019l410.624-711.168c22.571-39.125 52.395-58.667 82.133-58.667s59.563 19.541 82.133 58.667l410.624 711.168c2.944 5.035 5.419 10.027 7.552 15.019l4.309 7.893h-0.896c4.779 10.709 8.277 22.016 8.277 34.432 0 0.64-0.085 1.237-0.128 1.792z" />
<glyph unicode="&#xe61c;" d="M512.005 960c-282.776 0-512.005-229.229-512.005-512.005s229.229-511.995 512.005-511.995 512.005 229.218 512.005 511.995-229.229 512.005-512.005 512.005zM533.926 256.526c-5.312-7.584-13.067-11.787-22.454-12.224-1.237-0.139-2.432-0.363-3.701-0.363-4.949 0-9.493 1.387-13.739 3.307v-0.341l-6.005 3.296c-1.024 0.469-2.048 0.789-3.093 1.419l-9.035 5.216h-0.021l-274.414 158.444c-31.158 18.006-31.158 47.456 0 65.462l283.459 163.671c3.851 2.219 7.627 3.829 11.317 4.981 0.032 0.021 0.043 0.021 0.064 0.043 0.064 0.032 0.107 0.032 0.107 0.032 4.053 1.675 8.459 2.613 13.088 2.613 12.32 0 23.019-6.677 28.939-16.555 0.149-0.224 0.224-0.459 0.363-0.683 1.141-2.048 2.101-4.224 2.816-6.528 0.224-0.629 0.405-1.227 0.576-1.845 0.661-2.667 1.141-5.376 1.141-8.235-0.011-1.12-0.181-2.411-0.373-3.744-0.384-3.424-1.12-6.709-2.453-9.749-1.355-4.128-2.443-6.421-1.515-3.2-0.299-1.131-1.205-4.544-2.443-9.557l-118.604-68.481c-30.518-17.643-48.033-45.152-48.033-75.478s17.515-57.835 48.033-75.467l115.052-66.433c4.736-18.112 8.661-28.31 8.661-28.31-0.032-8.107-3.008-15.456-7.733-21.291zM784.104 614.471c-0.395-3.424-1.131-6.709-2.443-9.749-0.917-2.773-1.717-4.715-1.856-4.715 0 0-0.032 0.171 0.043 0.533-2.933-11.147-21.931-85.26-22.656-152.716-1.131-100.428 25.611-170.018 25.611-170.018 0-8.085-2.987-15.435-7.733-21.27-5.312-7.584-13.056-11.787-22.443-12.224-1.237-0.139-2.432-0.363-3.701-0.363-4.96 0-9.483 1.387-13.728 3.307v-0.341l-6.005 3.296c-1.035 0.469-2.059 0.789-3.104 1.419l-283.48 163.65c-31.147 18.006-31.147 47.456 0 65.462l283.47 163.671c3.84 2.219 7.637 3.829 11.307 4.981 0.032 0.021 0.053 0.021 0.075 0.043 0.064 0.032 0.117 0.032 0.117 0.032 4.043 1.675 8.448 2.613 13.056 2.613 12.352 0 23.030-6.677 28.982-16.555 0.128-0.224 0.213-0.459 0.352-0.683 1.141-2.048 2.101-4.224 2.816-6.528 0.203-0.629 0.416-1.227 0.555-1.845 0.672-2.667 1.163-5.376 1.163-8.235-0.032-1.141-0.192-2.432-0.395-3.765z" />
<glyph unicode="&#xe61d;" d="M512 960c-282.752 0-512-229.248-512-512 0-282.795 229.248-512 512-512s512 229.205 512 512c0 282.752-229.248 512-512 512zM777.728 653.483c-0.469-4.181-1.365-8.149-2.944-11.819-1.067-3.413-2.091-5.803-2.091-5.803s-0.213 0.171-0.171 0.597c-3.627-13.653-47.189-106.325-47.189-188.459 0-128 50.773-204.672 50.773-204.672 0-9.856-3.627-18.816-9.429-25.899-6.443-9.259-15.872-14.464-27.349-14.976-1.451-0.128-2.944-0.427-4.523-0.427-6.016 0-11.563 1.664-16.683 4.053v-0.469l-7.339 4.096c-1.28 0.555-2.517 0.939-3.797 1.707l-11.051 6.315-160.427 92.587c8.576-42.069 18.091-66.987 18.091-66.987 0-9.856-3.584-18.816-9.429-25.899-6.485-9.259-15.915-14.464-27.349-14.976-1.536-0.128-2.987-0.427-4.565-0.427-6.016 0-11.52 1.664-16.683 4.053v-0.469l-7.381 4.096c-1.237 0.555-2.475 0.939-3.797 1.707l-10.965 6.315-317.141 169.813c-37.931 21.931-37.931 69.333 0 91.349l328.064 211.029c4.736 2.688 9.344 4.693 13.824 6.101l0.085 0.085h0.128c4.949 2.048 10.283 3.2 15.872 3.2 15.104 0 28.075-8.149 35.285-20.224 0.213-0.256 0.299-0.555 0.469-0.853 1.408-2.475 2.603-5.163 3.413-8.021 0.256-0.683 0.555-1.408 0.768-2.176 0.811-3.243 1.323-6.613 1.323-10.069 0-1.365-0.171-2.901-0.427-4.523-0.512-4.181-1.408-8.149-2.987-11.819-1.067-3.413-2.091-5.803-2.091-5.803s-0.213 0.171-0.085 0.597c-1.408-5.077-5.461-20.864-10.069-42.923l167.040 96.427c4.693 2.688 9.301 4.693 13.739 6.101l0.128 0.085 0.299 0.043c4.907 2.005 10.197 3.157 15.829 3.157 15.061 0 28.032-8.149 35.243-20.224 0.256-0.256 0.341-0.555 0.512-0.853 1.451-2.389 2.603-5.12 3.456-7.936 0.213-0.683 0.469-1.408 0.64-2.176 0.853-3.243 1.408-6.613 1.408-10.069 0-1.365-0.213-2.944-0.427-4.565z" />
<glyph unicode="&#xe61e;" d="M649.173-61.109v0l-274.485 0.021c-80.149 0.011-145.355 65.237-145.355 145.376l0.085 549.557c0 23.563 19.104 42.656 42.667 42.656h0.011c23.563 0 42.656-19.104 42.656-42.667l-0.085-549.547c0-33.109 26.923-60.032 60.021-60.043l274.475-0.021c33.109-0.011 60.032 26.912 60.043 60.021l0.107 730.379c0 33.099-26.923 60.021-60.021 60.032l-123.36 0.011c-33.099 0.011-60.032-26.912-60.043-60.021l-0.075-535.253c-0.011-17.419 5.376-34.123 14.773-45.877 4.224-5.291 13.077-14.165 24.715-14.165 18.688 0 39.52 24.661 39.531 60.043l0.053 416.309c0 23.563 19.104 42.667 42.667 42.667h0.011c23.563 0 42.656-19.104 42.656-42.667l-0.053-416.331c-0.032-80.149-56.043-145.355-124.853-145.355h-0.011c-34.581 0.011-67.872 16.843-91.349 46.187-21.589 26.997-33.483 62.229-33.472 99.211l0.075 535.243c0.011 80.16 65.227 145.344 145.376 145.344l123.371-0.011c80.139-0.011 145.344-65.216 145.344-145.376l-0.107-730.379c-0.011-80.149-65.227-145.344-145.365-145.344z" />
<glyph unicode="&#xe61f;" d="M654.507-61.099l-274.475 0.043c-80.171 0-145.365 65.237-145.365 145.408l0.085 549.547c0 23.552 19.115 42.667 42.667 42.667v0c23.595 0 42.667-19.115 42.667-42.667l-0.085-549.547c0-33.067 26.923-60.032 60.032-60.032l274.475-0.043c33.109 0 60.032 26.923 60.075 60.032l0.085 730.368c0 33.067-26.965 59.989-60.032 59.989h-123.392c-15.915 0-30.933-6.229-42.325-17.621s-17.664-26.453-17.664-42.368l-0.085-535.253c0-17.408 5.376-34.133 14.763-45.824 4.224-5.291 13.099-14.165 24.747-14.165h0.043c11.605 0 20.437 8.832 24.661 14.123 9.429 11.733 14.805 28.459 14.805 45.867l0.085 416.341c0 23.595 19.115 42.667 42.667 42.667v0c23.595 0 42.667-19.072 42.667-42.667l-0.085-416.341c0-36.992-11.904-72.192-33.493-99.2-23.467-29.312-56.747-46.123-91.307-46.123h-0.085c-34.56 0-67.883 16.853-91.349 46.165-21.632 27.008-33.493 62.251-33.451 99.2l0.085 535.211c0 38.741 15.147 75.221 42.667 102.699s63.957 42.624 102.656 42.624h123.392c80.171 0 145.365-65.237 145.365-145.323l-0.085-730.411c-0.043-80.171-65.28-145.365-145.408-145.365z" />
<glyph unicode="&#xe620;" d="M612.896 760.171c18.048 0 32.683 14.645 32.683 32.693 0 18.091-14.635 32.693-32.683 32.693-18.037 0-32.704-14.603-32.704-32.693 0-18.048 14.667-32.693 32.704-32.693zM705.184 668.875c18.080 0 32.683 14.635 32.683 32.704 0 18.080-14.603 32.693-32.683 32.693-18.048 0-32.683-14.613-32.683-32.693 0-18.069 14.635-32.704 32.683-32.704zM645.6 884.48c0-18.062-14.642-32.704-32.704-32.704s-32.704 14.642-32.704 32.704c0 18.062 14.642 32.704 32.704 32.704s32.704-14.642 32.704-32.704zM852.832 599.424l-326.667 0.075c-8.821 0.021-15.979 7.179-15.979 16 0 1.099 0.107 2.165 0.32 3.2v309.611c0 36.971-34.656 31.381-34.656 31.381h-59.317l-230.496-21.013-1.611-0.416c-27.157-7.317-44.736-28.299-44.736-53.429l-1.024-318.699v-577.696c0-29.205 17.045-49.973 33.12-49.973 29.547 0 29.248 1.525 105.963 16.864 46.741 9.365 95.893 13.451 139.157 15.125 0.064 0 0.117-0.021 0.181-0.021 0.192 0 0.352 0.053 0.533 0.053 0.117 0.011 0.245 0.011 0.363 0.021 0 0 0.053 0.021 0.075 0.032 8.021 0.48 14.4 6.837 14.923 14.848l0.043 0.064v0.363c0 0.224 0.064 0.416 0.064 0.629s-0.064 0.405-0.064 0.629v54.709c0 0-0.053 0.117-0.085 0.192 0.011 0.149 0.085 0.256 0.085 0.405 0 3.872-2.816 6.955-6.475 7.701-0.171 0.064-0.331 0.192-0.501 0.235-7.275 2.123-17.6 7.605-17.6 21.6 0 13.845 0 35.659 0 49.472 0 1.088-0.277 1.963-0.704 2.709-1.152 2.987-4.021 5.12-7.413 5.12-1.835 0-3.435-0.725-4.789-1.76l-129.173-68.064c0 0-11.637-7.605-17.611 1.877-5.995 9.515-42.965 68.032-42.965 68.032s-5.045 8.576 3.328 14.805c7.136 5.323 190.027 141.717 243.829 181.845 0.224 0.171 0.427 0.309 0.651 0.48 0.213 0.16 0.459 0.341 0.459 0.341 0.427 0.309 0.875 0.651 1.28 0.949 2.528 1.557 5.493 2.485 8.672 2.485 5.589 0 10.517-2.773 13.547-6.987l0.469-0.661 1.035-1.451 65.365-92.384c0.277-0.341 0.64-0.629 0.907-1.003l0.48-0.661c0.171-0.256 0.224-0.587 0.395-0.853 1.408-2.443 2.315-5.205 2.315-8.224 0-5.227-2.453-9.845-6.219-12.917l-45.216-23.872c0 0 3.584-5.92 3.584-13.141 0-7.243 0-92.437 0-92.437s1.269-21.376-17.525-25.813c-0.171-0.043-0.427-0.256-0.619-0.341-3.819-0.608-6.805-3.776-6.805-7.765 0-0.213 0.107-0.384 0.117-0.587-0.011-0.096-0.096-0.224-0.096-0.309 0-12.181 0-31.424 0-53.099 0-0.075-0.021-0.139-0.021-0.213s0.021-0.139 0.021-0.213c0-0.128 0-0.245 0-0.373 0-0.107 0.064-0.245 0.075-0.352 0.427-7.413 5.877-13.461 13.013-14.773 0.544-0.192 1.067-0.363 1.525-0.363 7.157-0.064 13.739-0.16 19.68-0.256 49.675 0.853 145.237 1.568 232.235-15.829 76.704-15.339 76.416-16.864 105.963-16.864 16.085 0 33.12 20.757 33.12 49.973v577.696c-0.043 0 1.525 33.291-28.523 33.291zM738.656 261.653c-36.256-36.256-79.797-40.885-98.155-41.088 0 0-0.128-0.021-0.213-0.021 0 0-0.128 0.021-0.192 0.021-5.024 0.064-9.472 2.368-12.501 5.931-0.651 0.757-1.227 1.579-1.728 2.443l-119.765 169.28c-0.341 0.448-0.672 0.896-0.971 1.376-1.6 2.56-2.539 5.547-2.539 8.779 0 1.387 0.213 2.709 0.523 4l-0.011 0.085c0 0 0.181 0.555 0.469 1.376 0.171 0.469 0.309 0.949 0.512 1.387 1.664 4.448 5.717 14.005 13.451 25.664 9.195 15.648 22.133 31.179 50.912 49.163 51.936 32.48 124.704 22.293 172.949-25.941 48.224-48.213 59.232-140.491-2.741-202.453zM705.184 760.171c18.080 0 32.683 14.645 32.683 32.693 0 18.091-14.603 32.693-32.683 32.693-18.048 0-32.683-14.603-32.683-32.693 0-18.048 14.635-32.693 32.683-32.693zM645.6 701.579c0-18.062-14.642-32.704-32.704-32.704s-32.704 14.642-32.704 32.704c0 18.062 14.642 32.704 32.704 32.704s32.704-14.642 32.704-32.704zM797.504 668.875c18.059 0 32.683 14.635 32.683 32.704 0 18.080-14.624 32.693-32.683 32.693-18.080 0-32.715-14.613-32.715-32.693-0.011-18.069 14.624-32.704 32.715-32.704z" />
<glyph unicode="&#xe621;" d="M862.677 596.224h-320.213c-0.085 0-0.128-0.043-0.128-0.043l-0.427 0.043-0.043 0.043c-11.264 0.171-20.352 9.131-20.779 20.395l-0.341 0.341v307.755c0 36.907-34.645 31.275-34.645 31.275h-59.264l-230.272-20.949-1.579-0.427c-27.136-7.339-44.672-28.331-44.672-53.376l-0.981-318.336v-577.067c0-29.141 16.981-49.877 33.067-49.877 29.44 0 29.184 1.536 105.771 16.853 43.733 8.704 89.515 12.8 130.645 14.677 1.152-0.171 2.219-0.683 3.413-0.683 11.776 0 21.333 9.557 21.333 21.333 0 0.384-0.171 0.683-0.256 1.024v57.173c0 0-24.491 1.365-24.491 22.869 0 6.997 0 28.075 0 43.776 0 0-0.256 0.341-0.341 0.555l0.085 0.085c0 5.931-4.736 10.667-10.667 10.667-1.237 0-2.048-0.896-3.115-1.28-1.024 0.043-2.048 0.085-2.048 0.085l-125.909-66.347c0 0-11.605-7.637-17.664 1.877-5.888 9.472-42.837 67.968-42.837 67.968s-5.035 8.491 3.328 14.763c7.168 5.333 189.781 141.568 243.584 181.675 0.213 0.171 0.384 0.299 0.597 0.512 0.171 0.128 0.512 0.341 0.512 0.341 0.427 0.299 0.853 0.683 1.237 0.896 2.517 1.536 5.461 2.517 8.704 2.517 5.547 0 10.453-2.731 13.44-6.997l0.427-0.64 1.109-1.451 65.28-92.288c0.256-0.341 0.597-0.597 0.853-0.896l0.555-0.768c0.171-0.256 0.213-0.555 0.427-0.896 1.365-2.432 2.304-5.163 2.304-8.149 0-5.205-2.475-9.813-6.229-12.971l-5.717-3.029-39.424-20.821c0 0 3.584-5.845 3.584-13.099s0-92.331 0-92.331 1.579-26.624-24.917-26.624c0-9.301 0-29.867 0-54.315-0.043-0.683-0.384-1.195-0.384-1.877 0-11.776 9.557-21.333 21.333-21.333 2.773 0 12.459-0.171 13.269-0.171 49.664 0.896 145.152 1.536 232.021-15.829 76.672-15.275 76.373-16.853 105.813-16.853 16.085 0 33.109 20.736 33.109 49.877v577.067c0 0 1.536 33.28-28.459 33.28zM748.629 258.773c-36.224-36.181-79.701-40.789-98.133-41.003 0 0-0.085 0-0.171 0h-0.213c-4.992 0.043-9.429 2.389-12.416 5.931-0.683 0.811-1.195 1.579-1.792 2.475l-119.552 169.088c-0.384 0.469-0.725 0.896-0.981 1.365-1.621 2.517-2.517 5.504-2.517 8.704 0 1.408 0.256 2.731 0.555 4.011v0.085c0 0 0.171 0.597 0.469 1.408 0.128 0.427 0.299 0.939 0.512 1.365 4.437 8.576 8.235 16.683 12.928 24.704 9.856 15.189 25.899 34.133 51.371 50.091 51.883 32.384 124.544 22.229 172.715-25.941 48.128-48.171 59.136-140.331-2.773-202.283zM715.563 722.005c0-34.569-28.023-62.592-62.592-62.592s-62.592 28.023-62.592 62.592c0 34.569 28.023 62.592 62.592 62.592s62.592-28.023 62.592-62.592zM715.563 897.408c0-34.569-28.023-62.592-62.592-62.592s-62.592 28.023-62.592 62.592c0 34.569 28.023 62.592 62.592 62.592s62.592-28.023 62.592-62.592zM892.203 722.005c0-34.569-28.023-62.592-62.592-62.592s-62.592 28.023-62.592 62.592c0 34.569 28.023 62.592 62.592 62.592s62.592-28.023 62.592-62.592z" />
<glyph unicode="&#xe622;" d="M512 960c-282.773 0-512-229.227-512-512s229.227-512 512-512 512 229.227 512 512-229.227 512-512 512zM383.829 223.275c0-19.776-16-35.776-35.787-35.776h-69.227c-19.755 0-35.776 16.011-35.776 35.776v429.312c0 19.776 16.021 35.776 35.776 35.776h69.227c19.787 0 35.787-16.011 35.787-35.776v-429.312zM812.917 241.888c-0.213-0.661-0.416-1.312-0.629-1.984-0.789-2.485-1.835-4.832-3.040-7.040-0.149-0.245-0.267-0.512-0.416-0.736-6.4-10.635-17.899-17.835-31.232-17.835-4.939 0-9.664 1.024-13.984 2.795-0.064 0.032-0.107 0.032-0.213 0.043 0 0.032 0 0.032-0.043 0.064-3.957 1.227-8.043 2.955-12.192 5.365l-305.419 176.331c-33.579 19.413-33.579 51.157 0 70.571l305.44 176.331c1.12 0.661 2.208 1.035 3.317 1.525l6.517 3.563v-0.384c4.565 2.080 9.461 3.563 14.795 3.563 1.355 0 2.645-0.256 3.979-0.395 10.101-0.448 18.453-5.003 24.213-13.163 5.109-6.304 8.288-14.208 8.288-22.912 0 0-28.811-74.987-27.605-183.221 0.853-75.435 22.837-158.624 24.747-165.589-1.024 3.467 0.192 1.003 1.643-3.445 1.376-3.285 2.208-6.827 2.624-10.496 0.224-1.451 0.373-2.837 0.416-4.043 0-3.104-0.523-6.048-1.205-8.907z" />
<glyph unicode="&#xe623;" d="M512 960c-282.752 0-512-229.248-512-512s229.248-512 512-512 512 229.248 512 512-229.248 512-512 512zM383.829 223.232c0-19.755-16-35.755-35.797-35.755h-69.205c-19.755 0-35.797 16-35.797 35.755v429.355c0 19.755 16.043 35.797 35.797 35.797h69.205c19.797 0 35.797-16.043 35.797-35.797v-429.355zM812.928 241.877c-0.213-0.683-0.427-1.28-0.64-1.963-0.811-2.517-1.835-4.821-3.029-7.040-0.171-0.256-0.256-0.555-0.427-0.768-6.4-10.624-17.92-17.835-31.232-17.835-4.907 0-9.685 1.024-13.952 2.773-0.043 0.043-0.128 0.043-0.213 0.043v0.085c-4.011 1.237-8.064 2.987-12.245 5.376l-305.408 176.341c-33.579 19.413-33.579 51.157 0 70.571l305.451 176.341c1.152 0.683 2.261 1.024 3.328 1.536l6.485 3.541v-0.384c4.565 2.091 9.515 3.541 14.848 3.541 1.323 0 2.645-0.256 3.968-0.384 10.112-0.469 18.475-4.992 24.192-13.184 5.077-6.315 8.277-14.208 8.277-22.912 0 0-28.8-75.008-27.605-183.253 0.896-75.435 22.827-158.592 24.747-165.589-0.981 3.499 0.213 0.981 1.664-3.413 1.365-3.285 2.219-6.827 2.645-10.496 0.213-1.451 0.384-2.816 0.427-4.096-0.085-3.029-0.64-5.973-1.28-8.832z" />
<glyph unicode="&#xe624;" d="M874.202 810.202c-199.71 199.72-524.705 199.731-724.414 0.011s-199.71-524.705 0.011-724.425 524.694-199.72 724.414 0 199.71 524.705-0.011 724.414zM172.646 200.711l-19.049 19.038c-104.657 164.344-85.427 385.397 57.904 528.749 148.368 148.358 379.933 163.746 545.738 46.464l4.834-4.824c7.62-7.62 8.324-19.583 2.241-28.099l-563.582-563.592c-8.505-6.072-20.468-5.357-28.088 2.262zM812.488 147.512c-143.342-143.353-364.395-162.551-528.739-57.915l-19.017 19.017c-7.705 7.705-8.324 19.817-2.049 28.323l563.155 563.155c8.495 6.275 20.628 5.645 28.323-2.049l4.802-4.802c117.282-165.806 101.893-397.381-46.475-545.728z" />
<glyph unicode="&#xe625;" d="M874.27 810.27c-96.617 96.532-225.254 149.73-362.227 149.73-137.015 0-265.653-53.199-362.27-149.73-96.574-96.617-149.773-225.254-149.773-362.227 0-137.015 53.199-265.653 149.773-362.27s225.254-149.773 362.27-149.773c136.973 0 265.611 53.199 362.227 149.773 199.612 199.782 199.612 524.715 0 724.497zM184.005 241.754c-95.383 151.814-72.888 353.425 54.007 480.234 73.058 73.058 170.312 113.244 273.86 113.244 80.84 0 158.235-24.494 221.002-68.508l6.847-2.764-539.003-538.833-16.712 16.627zM785.988 174.054c-73.015-73.058-170.27-113.244-273.818-113.244-74.078 0-145.988 20.837-208.032 60.258l-16.967 13.821 538.238 538.663c0.17 0.085 0.34 0.128 0.383 0.128l2.637-2.041c109.247-154.493 91.429-363.801-42.44-497.584z" />
<glyph unicode="&#xe626;" d="M624.512 666.987c-0.117 0.064-0.149 0.139-0.245 0.192-34.773 17.963-73.269 27.467-113.163 27.467-65.963 0-127.904-25.611-174.421-72.117-75.947-75.936-93.12-193.941-44.469-288.128 6.944-13.685 26.432-12.725 35.029-5.291l301.909 301.909c8.117 8.128 9.525 28.8-4.64 35.968zM511.979 960c-282.752 0-511.979-229.237-511.979-512s229.227-512 511.979-512c282.763 0 512 229.237 512 512s-229.237 512-512 512zM750.784 208.416c-63.904-63.893-148.992-99.083-239.584-99.083-90.581 0-175.669 35.189-239.573 99.083-132.085 132.149-132.085 347.093-0.011 479.168 63.904 63.893 148.992 99.083 239.584 99.083s175.68-35.189 239.584-99.083c132.085-132.096 132.085-347.040 0-479.168zM694.357 566.059l-301.045-301.184c-7.829-7.829-8.747-27.819 3.893-35.669 35.051-18.24 74.059-27.851 114.080-27.851 65.984 0 127.915 25.621 174.421 72.139 77.12 77.099 93.557 193.461 44.491 287.829-7.456 13.248-27.701 12.501-35.84 4.736z" />
<glyph unicode="&#xe627;" d="M694.229 566.016l-300.885-301.141c-7.637-7.637-8.32-26.496 3.285-34.731 35.243-18.517 74.325-28.757 114.688-28.757 66.005 0 127.915 25.6 174.421 72.107 77.568 77.525 93.141 194.56 43.008 289.195-8.277 11.392-26.795 10.709-34.517 3.328zM512 960c-282.752 0-512-229.248-512-512s229.248-512 512-512 512 229.248 512 512-229.248 512-512 512zM750.805 208.427c-63.915-63.872-148.992-99.072-239.573-99.072s-175.659 35.2-239.573 99.072c-132.096 132.139-132.096 347.093 0 479.147 63.915 63.872 148.992 99.072 239.573 99.072s175.659-35.2 239.573-99.072c132.053-132.053 132.053-347.051 0-479.147zM625.195 666.325c-35.029 18.347-73.771 28.288-114.133 28.288-65.92 0-127.872-25.6-174.421-72.064-76.587-76.629-92.629-195.669-42.368-290.261 8.107-11.051 25.6-10.027 33.365-2.773l301.483 301.525c8.021 7.936 9.259 27.691-3.925 35.285z" />
<glyph unicode="&#xe628;" d="M1021.845 597.024c-2.336 10.4-6.581 98.379-134.507 226.315-127.979 127.947-215.936 132.16-226.293 134.496-8.085 1.899-28.789 6.603-44.427-9.024l-326.24-326.24c-0.043-0.032-0.075-0.053-0.117-0.096l-279.083-279.125c-15.605-15.595-10.912-36.32-8.992-44.373 2.293-10.421 22.165-82.731 150.112-210.677 127.936-127.936 200.277-147.819 210.677-150.133 8.053-1.909 28.789-6.592 44.384 9.003l605.44 605.451c15.637 15.616 10.923 36.352 9.045 44.405zM765.163 375.691l-173.099-173.109c-15.36-15.371-35.829-23.829-57.621-23.829-21.675 0-42.059 8.384-57.419 23.616 0 0-47.072 46.731-114.091 113.739-64.224 64.224-90.475 87.595-90.677 87.776-16.544 14.603-26.411 35.541-27.083 57.44s7.883 43.392 23.488 59.008l173.131 173.12c15.488 15.467 37.163 24.352 59.456 24.352 19.435 0 38.293-6.667 53.067-18.763 1.941-1.579 47.957-39.328 100.811-92.192 51.637-51.627 109.76-114.315 112.224-116.96 29.696-32.053 28.725-83.275-2.187-114.197zM614.88 566.603c-51.456 51.456-96.597 88.363-96.597 88.363-4.832 3.957-10.933 5.899-17.035 5.899-7.061 0-14.123-2.592-19.232-7.701l-173.109-173.099c-9.525-9.525-9.067-24.608 1.035-33.525 0 0 26.325-23.275 93.237-90.187 66.933-66.912 113.941-113.579 113.941-113.579 4.757-4.725 11.040-7.093 17.312-7.093 6.304 0 12.608 2.389 17.376 7.157l173.109 173.109c9.515 9.525 9.813 25.397 0.661 35.275 0-0.011-59.253 63.925-110.699 115.381zM486.059 564.288c16.853 16.896 44.192 16.896 61.099 0 16.853-16.875 16.864-44.213 0-61.109-16.864-16.853-44.235-16.875-61.109 0-16.917 16.907-16.853 44.256 0.011 61.109zM400.395 417.291c-16.853 16.875-16.821 44.245 0.043 61.109 16.885 16.875 44.213 16.875 61.088 0 16.896-16.875 16.928-44.224 0.043-61.12-16.853-16.864-44.235-16.864-61.173 0.011zM547.157 331.691c-16.864-16.875-44.235-16.896-61.109-0.011-16.917 16.907-16.853 44.245 0.011 61.109 16.853 16.885 44.192 16.885 61.099 0 16.853-16.896 16.864-44.213 0-61.099zM633.376 417.92c-16.864-16.864-44.213-16.885-61.067 0-16.928 16.907-16.896 44.224 0 61.109 16.853 16.896 44.16 16.896 61.067-0.011 16.885-16.885 16.896-44.203 0-61.099z" />
<glyph unicode="&#xe629;" d="M975.211 613.931h-33.621v0.128c-13.973 0-25.696 8.96-30.219 21.355v62.987c-0.011 17.76-14.539 32.267-32.309 32.267h-846.763c-17.771 0-32.299-14.507-32.299-32.267v-504.747c0-17.76 14.528-32.267 32.299-32.267h846.773c17.771 0 32.299 14.507 32.299 32.267v63.136c4.565 12.341 16.267 21.259 30.219 21.259v0.064h33.621c26.901 0 48.789 21.813 48.789 48.683v238.453c0 26.88-21.888 48.683-48.789 48.683zM179.371 273.547c-3.797-23.488-25.461-42.699-48.299-43.189 0.288 0 0.587-0.085 0.875-0.085h-1.749c0.288 0 0.587 0.085 0.875 0.085-22.848 0.491-44.501 19.701-48.299 43.189 0 0-6.304 38.688-6.304 172.469 0 133.771 6.304 172.469 6.304 172.469 3.776 23.499 25.461 42.709 48.299 43.189-0.288 0.011-0.587 0.096-0.875 0.096h1.749c-0.288 0-0.587-0.085-0.875-0.096 22.848-0.48 44.523-19.691 48.299-43.189 0 0 6.304-38.699 6.304-172.469 0-133.792-6.304-172.469-6.304-172.469z" />
<glyph unicode="&#xe62a;" d="M975.189 608.811h-33.621v0.085c-13.952 0-25.685 8.96-30.208 21.291v62.933c0 17.749-14.507 32.213-32.256 32.213h-846.805c-17.749 0-32.299-14.464-32.299-32.213v-503.936c0-17.664 14.549-32.213 32.299-32.213h846.805c17.749 0 32.299 14.549 32.299 32.213v63.104c4.523 12.245 16.299 21.163 30.208 21.163v0.085h33.621c26.923 0 48.811 21.717 48.811 48.64v238.037c-0.043 26.837-21.931 48.597-48.853 48.597zM176.981 277.589c-3.669-22.272-24.192-40.405-45.909-40.875 0.299 0 0.555-0.171 0.853-0.171h-1.664c0.299 0 0.555 0.171 0.853 0.171-21.675 0.469-42.24 18.603-45.909 40.875 0 0-5.931 36.693-5.931 163.584 0 126.805 5.931 163.499 5.931 163.499 3.669 22.315 24.235 40.405 45.909 40.917-0.299 0-0.555 0.171-0.853 0.171h1.664c-0.299 0-0.555-0.171-0.853-0.171 21.717-0.512 42.24-18.603 45.909-40.917 0 0 5.973-36.693 5.973-163.499 0-126.891-5.973-163.584-5.973-163.584z" />
<glyph unicode="&#xe62b;" d="M975.211 613.931h-33.621v0.128c-13.973 0-25.696 8.96-30.219 21.355v62.987c-0.011 17.76-14.539 32.267-32.309 32.267h-846.773c-17.76 0-32.288-14.507-32.288-32.267v-504.747c0-17.76 14.528-32.267 32.288-32.267h846.784c17.771 0 32.299 14.507 32.299 32.267v63.136c4.565 12.341 16.267 21.259 30.219 21.259v0.064h33.621c26.901 0 48.789 21.813 48.789 48.683v238.453c0 26.88-21.888 48.683-48.789 48.683zM391.104 232.085h-268.405c-22.955 0-44.907 19.317-48.725 42.901 0 0-6.24 38.368-6.24 171.019s6.24 171.019 6.24 171.019c3.797 23.616 25.771 42.923 48.725 42.923h51.104c22.976 0 50.571-17.312 61.344-38.453l178.187-350.965c10.763-21.131 0.757-38.443-22.229-38.443z" />
<glyph unicode="&#xe62c;" d="M975.189 609.579h-33.579v0.128c-13.995 0-25.771 8.875-30.251 21.163v62.464c0 17.621-14.507 32-32.256 32h-846.805c-17.749 0-32.299-14.379-32.299-32v-500.48c0-17.579 14.549-32 32.299-32h846.805c17.749 0 32.299 14.421 32.299 32v62.635c4.523 12.203 16.299 21.035 30.251 21.035v0.085h33.579c26.923 0 48.811 21.632 48.811 48.299v236.416c-0.043 26.624-21.931 48.256-48.853 48.256zM375.040 250.539h-243.84c-20.864 0-40.789 17.365-44.245 38.571 0 0-5.675 34.56-5.675 153.941s5.675 153.899 5.675 153.899c3.456 21.291 23.381 38.656 44.245 38.656h46.464c20.821 0 45.867-15.573 55.68-34.645l161.835-315.861c9.728-18.987 0.64-34.56-20.139-34.56z" />
<glyph unicode="&#xe62d;" d="M975.211 613.931h-33.621v0.128c-13.973 0-25.685 8.96-30.219 21.355v62.987c-0.011 17.76-14.539 32.267-32.309 32.267h-846.763c-17.771 0-32.299-14.507-32.299-32.267v-504.747c0-17.76 14.528-32.267 32.299-32.267h846.773c17.771 0 32.299 14.507 32.299 32.267v63.136c4.565 12.341 16.267 21.259 30.219 21.259v0.064h33.621c26.901 0 48.789 21.813 48.789 48.683v238.453c0 26.88-21.888 48.683-48.789 48.683zM546.219 232.085h-427.136c-23.179 0-45.323 19.317-49.173 42.901 0 0-6.304 38.368-6.304 171.019s6.304 171.019 6.304 171.019c3.829 23.616 25.995 42.923 49.173 42.923h207.808c23.211 0 51.051-17.312 61.92-38.453l179.84-350.955c10.869-21.141 0.779-38.453-22.432-38.453z" />
<glyph unicode="&#xe62e;" d="M975.189 609.579h-33.664v0.128c-13.909 0-25.685 8.875-30.165 21.163v62.464c0 17.621-14.507 32-32.256 32h-846.805c-17.749 0-32.299-14.379-32.299-32v-500.48c0-17.579 14.549-32 32.299-32h846.805c17.749 0 32.299 14.421 32.299 32v62.635c4.523 12.203 16.256 21.035 30.165 21.035v0.085h33.664c26.923 0 48.811 21.632 48.811 48.299v236.416c-0.043 26.624-21.931 48.256-48.853 48.256zM523.435 250.539h-384.427c-20.821 0-40.789 17.365-44.245 38.571 0 0-5.717 34.56-5.717 153.941s5.717 153.899 5.717 153.899c3.456 21.291 23.424 38.656 44.245 38.656h187.093c20.821 0 45.867-15.573 55.723-34.645l161.792-315.861c9.771-18.987 0.683-34.56-20.181-34.56z" />
<glyph unicode="&#xe62f;" d="M975.211 613.941h-33.621v0.128c-13.963 0-25.685 8.939-30.208 21.333v62.997c-0.011 17.76-14.549 32.267-32.32 32.267h-846.763c-17.76 0-32.299-14.507-32.299-32.267v-504.747c0-17.771 14.539-32.277 32.299-32.277h846.773c17.771 0 32.309 14.507 32.309 32.277v63.136c4.555 12.341 16.267 21.248 30.208 21.248v0.064h33.621c26.891 0 48.789 21.824 48.789 48.683v238.464c0 26.88-21.899 48.693-48.789 48.693zM743.168 230.272h-624.085c-23.168 0-45.312 19.467-49.173 43.264 0 0-6.304 38.699-6.304 172.48 0 133.771 6.304 172.469 6.304 172.469 3.84 23.797 26.005 43.275 49.173 43.275h404.768c23.211 0 51.040-17.451 61.92-38.784l179.829-353.931c10.869-21.312 0.779-38.773-22.432-38.773z" />
<glyph unicode="&#xe630;" d="M975.147 609.579h-33.579v0.128c-13.995 0-25.728 8.875-30.251 21.12v62.464c0 17.621-14.464 32.043-32.213 32.043h-846.805c-17.792 0-32.299-14.421-32.299-32.043v-500.437c0-17.621 14.507-32 32.299-32h846.805c17.749 0 32.256 14.379 32.256 32v62.592c4.565 12.245 16.299 21.077 30.251 21.077v0.085h33.579c26.923 0 48.853 21.632 48.853 48.299v236.373c-0.043 26.667-21.973 48.299-48.896 48.299zM710.485 250.539h-561.664c-20.821 0-40.747 17.365-44.245 38.613 0 0-5.675 34.517-5.675 153.899s5.675 153.899 5.675 153.899c3.499 21.248 23.424 38.656 44.245 38.656h364.288c20.864 0 45.952-15.616 55.765-34.645l161.792-315.861c9.813-18.987 0.768-34.56-20.181-34.56z" />
<glyph unicode="&#xe631;" d="M975.211 613.931h-33.621v0.128c-13.973 0-25.685 8.949-30.229 21.344v62.997c-0.011 17.749-14.528 32.267-32.299 32.267h-846.773c-17.76 0-32.288-14.517-32.288-32.267v-504.757c0-17.76 14.528-32.267 32.288-32.267h846.784c17.771 0 32.288 14.507 32.288 32.267v63.147c4.576 12.341 16.288 21.248 30.229 21.248v0.064h33.621c26.901 0 48.789 21.824 48.789 48.683v238.453c0 26.88-21.888 48.693-48.789 48.693zM796.789 273.536c-3.861-23.787-26.005-43.285-49.184-43.285h-628.523c-23.168 0-45.312 19.488-49.173 43.285 0 0-6.304 38.688-6.304 172.469 0 133.771 6.304 172.469 6.304 172.469 3.84 23.808 26.005 43.296 49.173 43.296h628.533c23.179 0 45.344-19.477 49.184-43.296 0 0 6.293-38.699 6.293-172.469-0.011-133.781-6.304-172.469-6.304-172.469z" />
<glyph unicode="&#xe632;" d="M975.189 609.579h-33.621v0.128c-13.995 0-25.728 8.875-30.251 21.163v62.464c0 17.621-14.507 32-32.256 32h-846.763c-17.792 0-32.299-14.379-32.299-32v-500.48c0-17.621 14.507-32 32.299-32h846.805c17.749 0 32.256 14.379 32.256 32v62.635c4.565 12.203 16.299 21.035 30.251 21.035v0.085h33.621c26.88 0 48.811 21.632 48.811 48.299v236.373c-0.043 26.667-21.973 48.299-48.853 48.299zM760.448 289.109c-3.499-21.205-23.467-38.613-44.288-38.613h-565.675c-20.821 0-40.747 17.408-44.245 38.613 0 0-5.675 34.56-5.675 153.899 0 119.424 5.675 153.941 5.675 153.941 3.456 21.291 23.424 38.656 44.245 38.656h565.675c20.821 0 40.832-17.365 44.288-38.613 0 0 5.675-34.56 5.675-153.941s-5.675-153.941-5.675-153.941z" />
<glyph unicode="&#xe633;" d="M973.184 614.069h-33.568v0.128c-13.941 0-25.632 8.939-30.155 21.323v62.923c0 17.728-14.507 32.224-32.235 32.224h-845.003c-17.728 0-32.224-14.496-32.224-32.224v-504.107c0-17.728 14.496-32.224 32.224-32.224h845.003c17.728 0 32.224 14.496 32.224 32.224v63.061c4.555 12.331 16.235 21.227 30.155 21.227v0.064h33.568c26.837 0 48.672 21.792 48.672 48.629v238.144c0.021 26.827-21.824 48.608-48.661 48.608zM828.213 274.133c-3.808-23.776-25.952-43.232-49.077-43.232h-660.299c-23.136 0-45.227 19.445-49.088 43.221 0 0-6.283 38.635-6.283 172.245 0 133.589 6.283 172.235 6.283 172.235 3.829 23.776 25.952 43.232 49.088 43.232h660.309c23.125 0 45.237-19.445 49.077-43.221 0 0 6.304-38.635 6.304-172.245-0.021-133.589-6.315-172.235-6.315-172.235zM515.584 557.696c-3.040 4-9.003 5.088-13.248 2.411l-136.832-86.091c-4.256-2.667-11.083-2.464-15.168 0.459l-118.891 85.184c-4.085 2.923-11.541 5.323-16.555 5.323h-18.784c-5.024 0-6.645-3.296-3.627-7.285l159.253-210.784c3.040-3.989 8.992-5.109 13.269-2.443l137.291 85.611c4.267 2.667 11.104 2.453 15.211-0.459l118.88-84.693c4.096-2.912 11.552-5.301 16.565-5.301h18.795c5.013 0 6.624 3.285 3.605 7.285l-159.765 210.784z" />
<glyph unicode="&#xe634;" d="M974.464 608.597h-33.621v0.128c-13.909 0-25.643 8.96-30.165 21.333v62.976c0 17.792-14.592 32.299-32.256 32.299h-846.165c-17.749 0-32.256-14.507-32.256-32.299v-504.789c0-17.749 14.507-32.256 32.256-32.256h846.208c17.664 0 32.256 14.507 32.256 32.256v63.147c4.523 12.331 16.256 21.248 30.165 21.248v0.085h33.621c26.88 0 48.768 21.803 48.768 48.725v238.421c-0.085 26.923-21.931 48.725-48.811 48.725zM790.571 285.739c-3.499-21.376-23.339-38.869-44.117-38.869h-593.792c-20.821 0-40.661 17.493-44.16 38.869 0 0-5.717 34.688-5.717 154.88s5.717 154.88 5.717 154.88c3.499 21.461 23.339 38.869 44.16 38.869h593.792c20.779 0 40.619-17.408 44.117-38.869 0 0 5.675-34.688 5.675-154.837 0-120.192-5.675-154.923-5.675-154.923zM516.267 552.149c-3.072 3.968-9.045 5.077-13.312 2.389l-137.045-86.229c-4.139-2.688-11.051-2.475-15.104 0.469l-119.083 85.291c-4.053 2.944-11.563 5.333-16.555 5.333h-18.773c-5.035 0-6.699-3.285-3.669-7.339l159.445-210.987c2.987-4.053 8.96-5.12 13.269-2.517l137.515 85.76c4.309 2.645 11.179 2.475 15.189-0.469l119.125-84.821c4.053-2.859 11.563-5.291 16.597-5.291h18.731c5.035 0 6.656 3.285 3.584 7.296l-159.915 211.115z" />
<glyph unicode="&#xe635;" d="M610.933 34.592c0-54.451-44.141-98.592-98.592-98.592s-98.592 44.141-98.592 98.592c0 54.451 44.141 98.592 98.592 98.592s98.592-44.141 98.592-98.592zM955.627 264.416c-0.085 0.16-0.139 0.331-0.245 0.501l-15.2 16.96v0.053l-46.197 47.509c-140.469 178.645-133.045 325.099-131.765 349.76 1.12 9.579 1.739 19.317 1.739 29.184 0 138.965-112.629 251.616-251.595 251.616-138.987 0-251.637-112.651-251.637-251.616 0-13.472 1.099-26.699 3.104-39.595 0.736-53.877-6.304-191.499-149.941-357.899l-44.544-45.984c-0.565-0.981-0.928-1.931-1.461-2.923-12.299-13.216-19.883-30.88-19.883-50.379 0-25.856 13.28-48.608 33.376-61.867 2.528-2.005 5.216-3.851 8.011-5.547 0.533-0.288 1.067-0.469 1.536-0.789 4.672-2.581 9.557-4.747 14.752-6.357 1.419-0.448 2.763-0.939 4.16-1.259 6.005-1.536 12.139-2.603 18.592-2.603 2.549 0.021 5.419 0.373 8.459 0.864 7.744 0.875 15.115 2.549 21.941 5.504 6.976 2.304 11.595 4.235 10.496 4.224 27.947 6.389 193.013 37.525 343.456 39.157 182.379 2.037 319.573-28.96 366.187-41.131 3.616-1.269 7.339-2.293 11.168-3.008 4.021-1.131 6.187-1.792 6.187-1.792 2.091 0 4.096 0.395 6.133 0.565 0.405-0.011 0.8-0.075 1.227-0.075 40.928 0 74.133 33.195 74.133 74.123 0 20.672-8.523 39.349-22.187 52.8z" />
<glyph unicode="&#xe636;" d="M620.288 41.003c0-54.457-44.146-98.603-98.603-98.603s-98.603 44.146-98.603 98.603c0 54.457 44.146 98.603 98.603 98.603s98.603-44.146 98.603-98.603zM957.483 275.285c0 0-0.213 0.341-0.256 0.512l-15.019 16.683v0.043l-45.483 46.805c-138.24 175.829-130.987 320.043-129.664 344.277 1.024 9.472 1.749 18.987 1.749 28.715 0.043 136.747-110.976 247.68-247.723 247.68-136.789 0-247.68-110.933-247.68-247.723 0-13.269 1.067-26.283 2.987-38.955 0.768-53.035-6.187-188.501-147.541-352.299l-43.861-45.269c-0.512-0.981-0.853-1.92-1.365-2.859-12.16-13.013-19.627-30.421-19.627-49.621 0-25.472 13.099-47.829 32.853-60.885 2.517-1.963 5.163-3.84 7.979-5.461 0.469-0.299 0.939-0.469 1.408-0.811 4.608-2.56 9.515-4.651 14.592-6.229 1.365-0.469 2.688-0.896 4.096-1.237 5.931-1.493 11.904-2.603 18.304-2.603 2.56 0.043 5.333 0.427 8.32 0.896 7.595 0.853 14.848 2.517 21.632 5.419 6.784 2.261 11.349 4.181 10.283 4.139 27.52 6.315 189.995 36.949 338.091 38.528 179.584 2.048 314.581-28.501 360.533-40.448 3.499-1.28 7.168-2.261 10.965-2.944 3.968-1.109 6.101-1.749 6.101-1.749 2.048 0 4.011 0.341 6.016 0.512 0.427 0 0.853-0.043 1.237-0.043 40.235 0 73.003 32.683 73.003 72.96-0.085 20.352-8.448 38.741-21.931 51.968z" />
<glyph unicode="&#xe637;" d="M807.020 780.768h-169.488c-5.605 0-9.561 4.549-8.785 10.089l14.853 107.897c0.755 5.54 5.972 10.089 11.566 10.089h142.627c5.605 0 10.175 4.57 10.175 10.165v30.817c0 5.605-4.581 10.175-10.175 10.175h-187.23c-5.605 0-10.801-4.538-11.577-10.089l-21.892-159.065c-0.755-5.54-5.961-10.089-11.555-10.089h-346.381c-5.605 0-9.604-4.538-8.882-10.089l98.918-775.168v-2.242c0-16.018 13.064-24.263 18.195-27.411 6.51-4.171 53.83-31.086 185.204-31.086 131.363 0 178.683 26.915 185.225 31.086 4.171 2.565 13.506 8.591 16.858 19.37 0.755 1.283 1.315 2.673 1.509 4.182l99.748 781.29c0.69 5.54-3.309 10.078-8.914 10.078zM318.809 556.576v0.054c-0.862 0.022-1.585 0.129-2.425 0.183-1.293 0.129-2.641 0.237-3.934 0.366-11.63 1.854-16.837 8.515-18.572 20.243l-16.028 125.467h1.024l-0.927 7.362c-0.711 5.551 3.288 10.1 8.882 10.1h270.314c5.616 0 9.582-4.538 8.796-10.089l-7.653-55.501-0.28-0.011-14.692-106.593c-11.447-0.172-23.132-0.269-35.15-0.269-73.211 0-135.782 3.374-189.354 8.688zM420.401 442.611c37.92 0 68.662-30.752 68.662-68.683 0-13.366-3.87-25.794-10.477-36.347-12.159-19.391-33.641-32.326-58.185-32.326-18.378 0-35.042 7.265-47.373 19.025-13.107 12.514-21.321 30.116-21.321 49.648 0.011 37.931 30.752 68.683 68.694 68.683zM435.858 23.59c-37.931 0-68.673 30.763-68.673 68.673 0 37.942 30.752 68.683 68.673 68.683s68.683-30.752 68.683-68.683c0-37.92-30.763-68.673-68.683-68.673zM566.563 159.081c-37.942 0-68.705 30.763-68.705 68.683 0 37.942 30.763 68.683 68.705 68.683 37.92 0 68.662-30.752 68.662-68.683 0.011-37.92-30.742-68.683-68.662-68.683zM731.589 577.229c-1.811-8.235-5.81-13.571-13.247-16.104-36.142-3.999-76.628-7.125-121.931-8.914l14.207 103.111-0.561-0.011 7.567 54.951c0.765 5.551 5.972 10.089 11.566 10.089h110.085c5.605 0 9.604-4.549 8.903-10.1l-0.345-2.652h0.42l-16.664-130.371z" />
<glyph unicode="&#xe638;" d="M804.011 782.635h-167.851c-5.504 0-9.429 4.48-8.661 9.984l14.763 106.752c0.725 5.504 5.888 9.984 11.435 9.984h141.099c5.675 0 10.069 4.48 10.069 10.027v30.549c-0.043 5.547-4.437 10.069-10.112 10.069h-185.216c-5.589 0-10.709-4.48-11.435-9.984l-21.675-157.397c-0.853-5.504-5.931-9.984-11.477-9.984h-342.784c-5.504 0-9.472-4.48-8.747-9.984l97.835-767.104v-2.261c0-15.829 12.971-23.979 18.091-27.093 6.4-4.181 53.205-30.805 183.168-30.805 130.048 0 176.896 26.624 183.339 30.805 4.139 2.517 13.355 8.491 16.725 19.157 0.811 1.237 1.28 2.645 1.493 4.139l98.688 773.12c0.683 5.504-3.285 10.027-8.747 10.027zM320.811 560.811v0c-0.853 0.043-1.536 0.171-2.389 0.213-1.28 0.128-2.645 0.256-3.883 0.384-11.52 1.792-16.683 8.363-18.432 19.968l-15.829 124.16h1.024l-0.939 7.296c-0.683 5.504 3.2 9.984 8.789 9.984h267.52c5.589 0 9.472-4.48 8.704-9.941l-7.595-54.955h-0.256l-14.507-105.472c-11.435-0.171-22.955-0.299-34.859-0.299-72.405 0-134.315 3.371-187.349 8.661zM381.227 273.536c-15.36 14.677-24.96 35.285-24.96 58.155 0 44.331 35.968 80.384 80.384 80.384 44.373 0 80.427-36.053 80.427-80.384 0-15.701-4.523-30.251-12.288-42.581-14.251-22.699-39.381-37.888-68.139-37.888-21.504 0.043-41.045 8.576-55.424 22.315zM553.6 51.2c-44.416 0-80.469 36.053-80.469 80.384 0 44.416 36.053 80.469 80.469 80.469 44.331 0 80.341-36.053 80.341-80.469-0.043-44.331-36.011-80.384-80.341-80.384zM729.344 581.205c-1.835-8.149-5.803-13.397-13.184-15.915-35.755-4.011-75.819-7.083-120.661-8.832l14.080 102.059-0.597-0.043 7.509 54.4c0.768 5.461 5.931 9.941 11.52 9.941h108.885c5.589 0 9.515-4.48 8.789-9.984l-0.299-2.603h0.384l-16.427-129.024z" />
<glyph unicode="&#xe639;" d="M997.003 944h-970.005c-14.837 0-26.997-12.16-26.997-26.997v-180.672c0-14.837 12.16-26.997 26.997-26.997h970.005c14.827 0 26.997 12.16 26.997 26.997v180.672c0 14.837-12.171 26.997-26.997 26.997z" />
<glyph unicode="&#xe63a;" d="M1000.971 642.592h-977.941c-12.661 0-23.029-10.368-23.029-23.029v-124.608c0-12.672 10.368-23.029 23.029-23.029h977.941c12.672 0 23.029 10.368 23.029 23.029v124.608c0 12.661-10.379 23.029-23.029 23.029z" />
<glyph unicode="&#xe63b;" d="M1003.253 404.811h-982.496c-11.413 0-20.757-9.355-20.757-20.779v-97.131c0-11.104 8.853-20.16 19.829-20.661h984.341c10.976 0.501 19.829 9.547 19.829 20.651v97.141c0 11.424-9.344 20.779-20.747 20.779z" />
<glyph unicode="&#xe63c;" d="M1005.792 202.24h-987.584c-10.016 0-18.208-8.203-18.208-18.208v-70.251c0-10.005 8.192-18.208 18.208-18.208h987.584c10.016 0 18.208 8.203 18.208 18.208v70.251c0 10.005-8.192 18.208-18.208 18.208z" />
<glyph unicode="&#xe63d;" d="M1008.768 31.040h-993.536c-8.373 0-15.232-6.859-15.232-15.243v-44.224c0-8.373 6.859-15.232 15.232-15.232h993.547c8.363 0 15.232 6.859 15.232 15.232v44.224c-0.011 8.384-6.869 15.243-15.243 15.243z" />
<glyph unicode="&#xe63e;" d="M996.992 896h-969.984c-14.848 0-27.008-12.16-27.008-27.008v-180.651c0-13.227 9.813-23.808 22.4-26.069 0.213 0 0.427 0.085 0.64 0.085h977.92c0.213 0 0.469-0.085 0.64-0.085 12.587 2.261 22.4 12.843 22.4 26.069v180.651c0 14.848-12.16 27.008-27.008 27.008z" />
<glyph unicode="&#xe63f;" d="M1000.96 576.981h-977.92c-12.672 0-23.040-10.368-23.040-23.040v-124.587c0-10.752 7.637-19.456 17.621-21.973 1.024 0.043 2.048 0.384 3.115 0.384h982.528c1.024 0 2.091-0.341 3.072-0.384 9.984 2.517 17.664 11.264 17.664 21.973v124.587c0 12.672-10.368 23.040-23.040 23.040z" />
<glyph unicode="&#xe640;" d="M1003.264 322.432h-982.528c-11.392 0-20.736-9.344-20.736-20.779v-97.152c0-11.435 9.344-20.736 20.736-20.736h982.528c11.435 0 20.693 9.344 20.693 20.736v97.152c0.043 11.435-9.301 20.779-20.693 20.779z" />
<glyph unicode="&#xe641;" d="M1005.781 96.171h-987.563c-10.027 0-18.219-8.192-18.219-18.219v-70.229c0-9.984 8.192-18.261 18.219-18.261h987.563c9.941 0 18.219 8.149 18.219 18.261v70.229c0 10.027-8.149 18.219-18.219 18.219z" />
<glyph unicode="&#xe642;" d="M515.968 405.461h-97.536v-140.544c0-7.936 4.416-14.037 12.309-14.037h93.109c49.205 0 81.717 24.565 81.717 75.499 0 56.224-41.312 79.083-89.6 79.083zM978.272 876.48c-16.437 10.4-135.605 78.187-466.272 78.187-330.709 0-449.835-67.787-466.251-78.187-12.896-8-45.749-28.672-45.749-69.067v-721.355c0-40.331 32.853-61.067 45.749-68.981 16.416-10.475 135.541-78.24 466.251-78.24 330.667 0 449.835 67.776 466.272 78.251 12.853 7.915 45.728 28.64 45.728 68.971v721.355c0 40.395-32.875 61.067-45.728 69.067zM522.101 148.085h-137.013c-55.371 0-87.872 28.96-87.872 82.539v425.205c0 54.453 27.253 89.579 93.109 89.579h115.093c117.707 0 199.392-43.915 199.392-153.728 0-67.648-43.904-111.541-90.453-124.747 64.117-17.557 112.427-65.877 112.427-142.293 0-119.477-84.331-176.555-204.683-176.555zM583.584 575.893c0 43.915-21.952 65.877-78.165 65.877h-72.043c-8.768 0-14.933-7.040-14.933-16.661v-113.355h95.765c41.269 0 69.376 25.472 69.376 64.139z" />
<glyph unicode="&#xe643;" d="M520.408 403.421h-105.372v-151.779c0-8.559 4.774-15.182 13.333-15.182h100.555c53.116 0 88.254 26.537 88.254 81.545 0 60.686-44.643 85.416-96.77 85.416zM593.437 587.5c0 47.439-23.741 71.137-84.427 71.137h-77.846c-9.548 0-16.128-7.613-16.128-18.021v-122.403h103.437c44.6 0.043 74.965 27.483 74.965 69.287zM986.109 881.208c-16.558 10.451-136.682 78.792-470.002 78.792-333.362 0-453.486-68.341-470.002-78.792-13.032-8.086-46.106-28.902-46.106-69.631v-727.109c0-40.643 33.074-61.589 46.106-69.545 16.515-10.623 136.639-78.921 470.002-78.921 333.319 0 453.443 68.298 470.002 78.878 12.946 8 46.106 28.902 46.106 69.588v727.109c0 40.729-33.16 61.546-46.106 69.631zM527.032 125.454h-148.037c-59.825 0-94.878 31.268-94.878 89.115v459.25c0 58.836 29.418 96.77 100.598 96.77h124.296c127.091 0 215.346-47.482 215.346-166.015 0-73.029-47.396-120.468-97.716-134.747 69.244-18.924 121.457-71.137 121.457-153.671 0-129.070-91.136-190.702-221.066-190.702z" horiz-adv-x="1032" />
<glyph unicode="&#xe644;" d="M952.255 592.33c-2.854 6.046-12.027 20.099-35.742 20.099l-422.258 0.011 208.199 287.395c9.597 13.236 11.449 27.997 5.076 40.502-6.384 12.495-19.423 19.663-35.786 19.663h-259.344c-22.822 0-47.877-14.205-59.555-33.748l-280.761-468.415c-8.17-13.628-8.922-28.389-2.059-40.513 6.863-12.103 19.903-19.053 35.786-19.053l469.635-0.011-226.892-408.108c-7.647-13.737-7.996-28.465-0.959-40.437 7.026-11.972 20.077-18.835 35.786-18.835h12.724c21.406 0 46.832 11.983 60.47 28.509l488.426 592.569c15.088 18.301 10.098 34.326 7.255 40.372z" />
<glyph unicode="&#xe645;" d="M953.771 599.979c-2.773 5.931-11.733 19.669-34.944 19.669h-413.525l203.904 281.429c9.387 13.013 11.179 27.477 4.907 39.68-6.229 12.245-18.987 19.243-34.987 19.243h-253.995c-22.229 0-46.72-13.867-58.325-33.024l-274.901-458.667c-8.021-13.355-8.704-27.819-2.005-39.68 6.741-11.819 19.499-18.645 34.987-18.645h459.904l-222.123-399.616c-7.509-13.44-7.851-27.904-0.896-39.637 6.869-11.691 19.669-18.432 34.987-18.432h12.501c20.907 0 45.824 11.733 59.179 27.904l478.293 580.267c14.763 17.963 9.813 33.621 7.040 39.509z" />
<glyph unicode="&#xe646;" d="M952.026 804.374c0 0-17.212 27.18-28.705 33.193-3.628 1.961-8.039 2.516-8.039 2.516-11.885 1.514-21.602-7.059-21.602-19.042v-647.843c0-11.983 0.545-31.57 1.187-43.542 0 0 7.081-129.242-98.206-107.836-141.366 28.737-392.399 44.293-612.276-2.407-20.556-4.368-40.851 8.769-45.209 29.369-4.379 20.611 8.769 40.851 29.358 45.219 231.086 49.065 496.259 35.557 644.826 2.211 0.795-0.185 0.795-0.185 0.795-0.185 1.885-0.436 3.399 9.020 3.377 21.003l-0.044 12.582c-0.044 11.983-0.076 31.591-0.076 43.574v712.083c0 11.983-5.567 29.859-12.342 39.74 0 0-12.027 17.495-20.524 22.691-12.103 7.615-100.439 12.299-345.339 12.299-244.954 0-333.268-4.684-345.447-12.299-9.554-5.893-23.443-31.439-23.443-31.439-5.719-10.512-10.403-28.944-10.403-40.916v-4.466c0-11.983 0.218-21.787 0.49-21.787s0.447-9.804 0.403-21.787l-0.044-11.689c-0.065-11.983-0.261-22.931-0.468-24.325-0.207-1.416-0.381-15.131-0.381-27.114v-5.447c0-11.983 0.109-21.787 0.272-21.787 0.142 0 0.218-9.804 0.174-21.787l-0.359-93.162c-0.044-11.983-0.087-31.591-0.087-43.574v-73.641c0-11.983 0-31.591 0-43.574v-320.294c0-11.983 0-31.591 0-43.574v-62.42c0-11.983 1.808-31.428 4.020-43.204 0 0 12.125-64.621 165.223-34.086 156.89 31.286 335.099 32.387 499.418 4.978 95.003-15.839 142.499-35.894 194.8-22.539 27.648 7.059 35.96 47.834 35.96 47.834 2.397 11.743 4.347 31.156 4.347 43.139v430.178c0 11.983 0 21.874 0 21.983 0 0.098 0 0.327 0 0.512 0 0.174 0 10.665 0 22.648v257.819c0 11.983-5.262 30.077-11.656 40.197zM156.574 777.172c0 11.983 9.804 21.787 21.787 21.787h533.831c11.983 0 21.787-9.804 21.787-21.787v-34.151c0-11.983-9.804-21.787-21.787-21.787h-533.831c-11.983 0-21.787 9.804-21.787 21.787v34.151zM156.574 620.13c0 11.983 9.804 21.787 21.787 21.787h533.831c11.983 0 21.787-9.804 21.787-21.787v-34.151c0-11.983-9.804-21.787-21.787-21.787h-533.831c-11.983 0-21.787 9.804-21.787 21.787v34.151z" />
<glyph unicode="&#xe647;" d="M937.515 807.595c0 0-16.853 26.624-28.075 32.512-3.584 1.92-7.936 2.517-7.936 2.517-11.605 1.451-21.12-6.912-21.12-18.688v-634.325c0-11.733 0.555-30.933 1.152-42.624 0 0 6.912-126.549-96.171-105.643-138.368 28.16-384.213 43.435-599.552-2.347-20.096-4.309-40.021 8.576-44.245 28.757-4.309 20.181 8.576 40.021 28.757 44.288 226.261 48.043 485.931 34.773 631.424 2.176 0.768-0.171 0.768-0.171 0.768-0.171 1.835-0.469 3.328 8.832 3.328 20.523l-0.085 12.331c0 11.733-0.043 30.933-0.043 42.667v697.259c0 11.691-5.461 29.227-12.075 38.912 0 0-11.776 17.109-20.139 22.229-11.819 7.467-98.347 12.032-338.091 12.032-239.915 0-326.357-4.565-338.304-12.032-9.387-5.803-22.955-30.805-22.955-30.805-5.589-10.283-10.155-28.331-10.155-40.064v-4.395c0-11.691 0.171-21.333 0.171-21.333s0.768-9.6 0.683-21.333v-11.477c-0.085-11.691-0.299-22.4-0.512-23.765-0.171-1.365-0.341-14.805-0.341-26.539v-5.333c0-11.733 0.085-21.333 0.085-21.333s0.341-9.6 0.341-21.333l-0.341-91.221c-0.085-11.733-0.085-30.933-0.085-42.667v-72.107c0-11.691 0-30.933 0-42.667v-313.643c0-11.691 0-30.933 0-42.667v-61.141c0-11.691 1.749-30.763 3.925-42.283 0 0 11.904-63.275 161.792-33.365 153.643 30.635 328.107 31.701 489.003 4.864 93.056-15.488 139.563-35.115 190.72-22.101 27.093 6.912 35.243 46.848 35.243 46.848 2.347 11.52 4.267 30.549 4.267 42.24v421.205c0 11.733 0 21.419 0 21.419v0.64c0 0 0 10.453 0 22.187v252.459c-0.043 11.733-5.205 29.44-11.435 39.339zM158.635 780.971c0 11.733 9.643 21.333 21.333 21.333h522.709c11.733 0 21.333-9.6 21.333-21.333v-33.408c0-11.733-9.6-21.333-21.333-21.333h-522.709c-11.691 0-21.333 9.6-21.333 21.333v33.408zM158.635 627.2c0 11.691 9.643 21.333 21.333 21.333h522.709c11.733 0 21.333-9.643 21.333-21.333v-33.451c0-11.691-9.6-21.333-21.333-21.333h-522.709c-11.691 0-21.333 9.643-21.333 21.333v33.451z" />
<glyph unicode="&#xe648;" d="M862.837 914.379c-0.085 0.683-0.267 1.248-0.395 1.877-0.875 7.317-6.603 13.067-13.941 13.931-0.128 0.032-0.288 0.075-0.416 0.107-66.709 14.805-181.877 29.707-335.733 29.707-154.517 0-270.016-19.776-336.565-35.2-3.52-0.811-10.475-2.731-12.597-11.861-0.128-0.523-0.213-1.035-0.288-1.557-0.064-0.416-0.192-0.747-0.235-1.184-2.955-28.192-8-122.613-8-438.677 0-446.187 10.059-519.051 10.059-519.051 0-10.677 4.715-16.469 11.819-16.469 4.107 0 9.003 1.931 14.229 5.931l295.776 227.275c7.147 5.525 16.587 8.277 26.005 8.277 9.44 0 18.88-2.763 26.037-8.277l295.755-227.275c5.216-4 10.091-5.931 14.197-5.931 7.104 0 11.829 5.792 11.829 16.469 0 0 11.712 70.475 11.712 519.051 0 316.277-5.813 413.195-9.248 442.859z" />
<glyph unicode="&#xe649;" d="M857.6 914.389c-0.171 0.725-0.256 1.237-0.427 1.877-0.853 7.339-6.571 13.099-13.909 13.909l-0.427 0.128c-66.773 14.763-181.931 29.696-335.744 29.696-154.496 0-269.995-19.797-336.597-35.2-3.499-0.811-10.496-2.731-12.587-11.904-0.171-0.469-0.256-0.981-0.341-1.536 0-0.427-0.171-0.768-0.171-1.152-2.987-28.203-8.064-122.624-8.064-438.699 0-446.165 10.069-519.040 10.069-519.040 0-10.667 4.736-16.469 11.819-16.469 4.096 0 9.003 1.92 14.251 5.931l295.765 227.285c7.168 5.504 16.597 8.277 25.984 8.277s18.816-2.773 25.984-8.277l295.851-227.285c5.205-4.011 10.112-5.931 14.208-5.931 7.083 0 11.819 5.803 11.819 16.469 0 0 11.648 70.485 11.648 519.040 0 316.288-5.717 413.184-9.131 442.88z" />
<glyph unicode="&#xe64a;" d="M714.496 878.624l0.021 0.032c0 0.032-0.021 0.064-0.021 0.064-1.024 21.355-1.984 34.251-2.891 42.005-0.043 0.352-0.171 0.683-0.245 1.045-0.981 6.080-5.376 10.976-11.168 12.715-0.523 0.224-1.003 0.405-1.44 0.501-55.541 12.491-151.125 25.013-278.624 25.013-126.987 0-222.251-16.331-277.899-29.291-3.125-0.725-8.811-2.315-11.584-8.971-1.045-2.112-1.664-4.459-1.664-6.976 0-0.117 0.021-0.224 0.021-0.341-2.485-27.68-6.336-111.776-6.336-367.371 0-377.216 8.373-438.816 8.373-438.816 0-9.056 3.936-13.931 9.835-13.931 3.392 0 7.456 1.632 11.829 5.024l86.379 67.477c-1.312 65.525-2.336 158.443-2.336 289.611 0 263.381 4.085 344.704 6.539 369.803 0.043 0.437 0.171 0.779 0.224 1.184 0.043 0.203 0.064 0.395 0.107 0.597 1.184 6.208 4.832 9.163 8.267 10.667 1.664 0.864 3.499 1.44 5.461 1.664 55.787 12.917 150.624 29.035 276.832 29.035 53.333 0 100.981-2.208 142.539-5.675 6.688-0.245 13.248-0.533 19.712-0.832 0.683-0.085 1.376-0.213 2.080-0.213 8.352 0 15.147 6.443 15.851 14.613 0.043 0.277 0.171 0.619 0.171 0.864-0.011 0.181-0.011 0.32-0.032 0.501zM256.395 840.128c0.309 0.075 0.661 0.149 0.96 0.224-1.963-0.224-3.787-0.8-5.461-1.664 1.664 0.715 3.296 1.152 4.501 1.44zM243.52 827.413c0.043 0.213 0.085 0.395 0.107 0.597-0.043-0.203-0.064-0.395-0.107-0.597zM893.163 761.365c-0.043 0.384-0.149 0.672-0.213 1.045-0.085 1.003-0.267 1.973-0.544 2.901-0.043 0.16-0.107 0.299-0.149 0.459-0.213 0.672-0.437 1.333-0.747 1.963-2.837 6.624-8.309 8.256-11.253 8.928-32.331 7.285-78.315 14.549-136.192 19.349-41.557 3.467-89.205 5.675-142.539 5.675-127.019 0-222.293-16.352-277.941-29.28-0.245-0.053-0.501-0.128-0.747-0.192-3.019-0.704-8.267-2.336-10.891-9.056-0.171-0.341-0.267-0.704-0.395-1.077-0.149-0.459-0.309-0.885-0.416-1.387-0.213-0.757-0.331-1.557-0.416-2.368-0.085-0.501-0.192-0.917-0.245-1.461-2.475-26.944-6.379-110.315-6.379-368.149 0-131.168 1.024-224.096 2.336-289.621 2.453-122.901 6.016-149.173 6.016-149.173 0-9.056 3.936-13.941 9.835-13.941 3.413 0 7.499 1.643 11.829 5.035l245.941 192.128c5.963 4.672 13.792 6.997 21.621 6.997 7.851 0 15.712-2.336 21.643-6.997l245.941-192.128c4.363-3.371 8.405-5.013 11.808-5.013 5.941 0 9.856 4.885 9.856 13.941 0 0 9.749 59.573 9.749 438.805 0 261.44-4.629 345.579-7.509 372.619z" />
<glyph unicode="&#xe64b;" d="M247.979 840.491c52.437 12.885 150.016 31.147 283.093 31.147 52.267 0 98.987-2.219 139.733-5.547 12.928-0.469 25.685-1.024 37.675-1.792-2.731 66.859-5.675 68.779-5.675 68.779-52.395 12.971-149.973 26.923-283.477 26.923-133.163 0-230.656-18.261-283.179-31.147 0 0-8.149-3.669-8.149-371.371s8.149-427.691 8.149-427.691c0-8.832 3.84-13.568 9.685-13.568 3.328 0 7.339 1.579 11.563 4.907l84.651 65.749c-1.323 63.872-2.261 154.411-2.261 282.24 0.043 367.701 8.192 371.371 8.192 371.371zM902.229 752.896c-31.915 7.936-80.597 16.128-143.829 21.333-40.661 3.413-87.424 5.547-139.563 5.547-133.163 0-230.741-18.261-283.179-31.104 0 0-8.149-3.712-8.149-371.371 0-127.872 0.853-218.411 2.261-282.283 2.432-119.808 5.931-145.365 5.931-145.365-0.043-8.917 3.883-13.653 9.557-13.653 3.328 0 7.424 1.579 11.563 4.864l240.896 187.264c5.845 4.523 13.483 6.827 21.163 6.827 7.765 0 15.403-2.304 21.248-6.827l240.896-187.264c4.309-3.285 8.235-4.864 11.648-4.864 5.76 0 9.6 4.736 9.6 13.568 0 0 9.6 58.027 9.6 427.648s-9.643 375.68-9.643 375.68z" />
<glyph unicode="&#xe64c;" d="M511.419 820.276c21.696 0 33.43 7.605 33.43 28.726v83.446c0 21.696-11.157 27.552-32.843 27.552-22.294 0-32.854-5.856-32.854-27.552v-83.436c0-21.131 9.984-28.736 32.267-28.736zM512.005 76.513c-22.294 0-32.854-5.856-32.854-27.552v-83.436c0-0.704 0.107-1.291 0.128-1.973h-0.128c0-21.696 11.168-27.552 32.843-27.552 22.304 0 32.854 5.856 32.854 27.552h-0.149c0.032 0.672 0.149 1.259 0.149 1.973v83.436c0 21.696-11.157 27.552-32.843 27.552zM205.218 708.328c14.933-14.933 27.36-13.259 43.126 2.485 15.339 15.339 18.262 29.024 3.317 43.947l-58.987 59.009c-15.339 15.339-27.371 11.595-42.71-3.733-15.765-15.776-19.083-27.382-3.744-42.72l58.998-58.987zM877.673 128.557c-0.459 0.501-0.789 1.003-1.291 1.504l-58.998 58.987c-15.339 15.349-27.371 11.616-42.699-3.723-15.765-15.776-19.094-27.371-3.755-42.71l59.009-59.009c0.501-0.501 1.003-0.843 1.483-1.301l-0.085-0.096c15.339-15.339 27.36-11.595 42.688 3.733 15.776 15.776 19.094 27.382 3.755 42.72l-0.107-0.107zM110.977 480.827l-83.425 0.011c-21.696-0.011-27.552-11.157-27.552-32.832 0-22.304 5.856-32.864 27.552-32.864h83.425c21.12 0 28.726 9.995 28.726 32.256 0.032 21.707-7.595 33.44-28.726 33.43zM996.437 480.827v-0.149c-0.672 0.021-1.248 0.149-1.963 0.149h-83.436c-21.696 0.011-27.552-11.147-27.552-32.822 0-22.304 5.856-32.864 27.552-32.864h83.446c0.704 0 1.28 0.107 1.963 0.128v-0.128c21.696 0 27.563 11.157 27.563 32.832 0 22.304-5.867 32.864-27.574 32.854zM205.218 187.64l-58.998-58.987c-15.339-15.339-11.595-27.36 3.744-42.688 15.755-15.776 27.36-19.094 42.71-3.765l58.998 58.998c14.933 14.923 13.248 27.36-2.496 43.126-15.339 15.371-29.003 18.262-43.958 3.317zM817.395 706.909l59.009 59.009c0.501 0.501 0.832 0.992 1.291 1.493l0.107-0.096c15.328 15.339 11.584 27.36-3.755 42.688-15.765 15.776-27.371 19.094-42.71 3.755l0.107-0.107c-0.501-0.459-1.003-0.789-1.504-1.291l-58.998-58.998c-15.349-15.339-11.605-27.36 3.733-42.688 15.755-15.776 27.371-19.094 42.72-3.765zM512.005 753.758c-168.61 0-305.774-137.164-305.774-305.774s137.164-305.774 305.774-305.774c168.62 0 305.795 137.164 305.795 305.774s-137.175 305.774-305.795 305.774z" />
<glyph unicode="&#xe64d;" d="M511.915 753.74c-168.618 0-305.826-137.208-305.826-305.826 0-168.661 137.208-305.868 305.826-305.868 168.661 0 305.868 137.208 305.868 305.868 0 168.618-137.208 305.826-305.868 305.826zM988.236 490.677v-0.427c-0.982 0.043-1.579 0.427-2.561 0.427h-66.15c-28.167 0-35.764-14.468-35.764-42.635 0-29.021 7.597-42.72 35.764-42.72h66.15c0.939 0 1.536 0.341 2.561 0.384v-0.384c28.252 0 35.806 14.468 35.806 42.635 0 29.021-7.554 42.72-35.806 42.72zM140.28 447.957c0 29.021-7.597 42.72-35.806 42.72v-0.427c-0.939 0.043-1.536 0.427-2.561 0.427h-66.15c-28.124 0-35.764-14.468-35.764-42.635 0-29.021 7.639-42.72 35.806-42.72h66.15c0.982 0 1.579 0.341 2.561 0.384v-0.384c28.167 0 35.764 14.468 35.764 42.635zM830.373 706.027l46.774 46.774c0.768 0.726 0.896 1.323 1.494 2.049l0.341-0.299c19.93 20.016 15.108 35.55-4.823 55.481-20.485 20.528-35.593 24.881-55.523 4.865l0.256-0.256c-0.768-0.64-1.408-0.811-2.091-1.494l-46.774-46.774c-19.93-19.93-15.065-35.55 4.865-55.481 20.485-20.485 35.55-24.796 55.481-4.865zM193.712 189.973l0.256-0.299c-0.683-0.64-1.366-0.811-2.091-1.494l-46.774-46.774c-19.93-19.93-15.065-35.508 4.865-55.438 20.485-20.485 35.55-24.838 55.481-4.908l46.774 46.774c0.726 0.726 0.896 1.366 1.579 2.091l0.256-0.299c19.93 19.973 15.108 35.55-4.823 55.481-20.528 20.528-35.593 24.838-55.523 4.865zM512.043 819.805c29.021 0 42.677 7.597 42.677 35.764v66.107c0 0.982-0.341 1.579-0.341 2.561h0.384c-0.043 28.167-14.468 35.764-42.635 35.764-29.021 0.043-42.763-7.597-42.72-35.806h0.384c-0.043-0.939-0.427-1.536-0.427-2.561v-66.107c0-28.124 14.51-35.721 42.677-35.721zM512.128 76.28c-29.021 0-42.763-7.597-42.677-35.849h0.341c-0.043-0.939-0.427-1.579-0.427-2.603v-66.107c0-28.167 14.51-35.764 42.677-35.764 29.021 0 42.677 7.597 42.677 35.764v66.15c0 0.982-0.341 1.579-0.341 2.561h0.341c0 28.21-14.425 35.849-42.592 35.849zM145.444 754.807c0.683-0.683 0.811-1.366 1.494-2.049l46.774-46.732c19.93-19.93 35.508-15.065 55.438 4.865 20.485 20.528 24.838 35.55 4.908 55.481l-46.774 46.774c-0.64 0.683-1.323 0.854-1.963 1.536l0.256 0.256c-20.016 19.973-35.508 15.108-55.481-4.823-20.57-20.485-24.881-35.593-4.865-55.523l0.213 0.213zM832.208 188.223c-0.683 0.726-1.323 0.896-2.006 1.494l0.256 0.256c-20.016 20.016-35.593 15.15-55.523-4.737-20.485-20.485-24.838-35.593-4.823-55.523l0.171 0.213c0.726-0.726 0.896-1.408 1.579-2.134l46.774-46.774c19.93-19.93 35.55-15.022 55.481 4.908 20.528 20.485 24.838 35.55 4.908 55.481l-46.817 46.817z" />
<glyph unicode="&#xe64e;" d="M1008.030 932.729c-15.223 18.094-38.897 27.271-70.361 27.271h-7.573l-506.675-515.776 97.805-89.473 501.929 510.9 0.932 5.558c0.65 3.619 5.482 35.96-16.057 61.52zM303.513 322.16l98.715-88.52 72.159 73.427-98.726 88.53zM249.394 252.84c0 0-145.402 2.34-150.538-158.967l-0.076 0.542c0 0-17.671-89.722-69.786-116.917-10.304-5.721-20.153-11.517-22.699-14.161-0.098-0.098-0.022-0.238-0.098-0.336-3.684-2.752-6.197-6.934-6.197-11.875 0-8.343 6.75-15.125 15.093-15.125 3.532 0.228 6.934 0.498 10.369 0.748h0.022c391.848 28.777 298.507 247.866 298.507 247.866l-74.597 68.226zM238.906 100.222c-17.411-19.026-46.925-20.369-65.951-2.936-19.026 17.401-20.337 46.947-2.947 65.951 17.411 19.047 46.947 20.348 65.951 2.936 19.037-17.401 20.348-46.936 2.947-65.951z" horiz-adv-x="1025" />
<glyph unicode="&#xe64f;" d="M943.33 960h-7.33l-584.353-594.009 93.486-88.087 581.061 590.761 0.922 5.355c0.614 3.555 5.311 34.805-15.449 59.515-14.879 17.6-37.833 26.466-68.337 26.466zM289.236 303.404c0 0-168.538 2.721-174.551-184.382l-0.132 0.658c0 0-20.453-104.020-80.933-135.533-11.938-6.627-23.35-13.386-26.29-16.503 0 0 0-0.219-0.176-0.351-4.257-3.16-7.154-8.032-7.154-13.738 0-9.787 7.856-17.556 17.512-17.556 4.126 0.307 8.12 0.614 12.026 0.878h0.044c427.534 31.425 356.914 258.074 347.127 284.759l-61.358 57.935-26.115 23.832z" horiz-adv-x="1028" />
</font>
</defs>
</svg>
