<?xml version="1.0" standalone="no"?>
<!DOCTYPE svg PUBLIC "-//W3C//DTD SVG 1.1//EN" "http://www.w3.org/Graphics/SVG/1.1/DTD/svg11.dtd" >
<svg>
<metadata>
Created by FontForge 20090622 at Mon Jun 29 11:27:21 2015
 By deploy user
Designed by Paul van der Laan, Pieter van Rosmalen &#38; Mike Abbink 2013. Produced by Bold Monday. FOR EXCLUSIVE USE BY GENERAL ELECTRIC COMPANY AND ITS AFFILIATES ONLY.
</metadata>
<defs>
<font id="GEInspiraSerif-BoldItalic" horiz-adv-x="1176" >
  <font-face 
    font-family="GE Inspira Serif"
    font-weight="700"
    font-style="italic"
    font-stretch="normal"
    units-per-em="2048"
    panose-1="2 6 8 2 7 0 0 0 0 3"
    ascent="1588"
    descent="-460"
    x-height="980"
    cap-height="1324"
    bbox="-468 -450 2468 1982"
    underline-thickness="136"
    underline-position="-36"
    slope="-9"
    unicode-range="U+0020-U+FB02"
  />
<missing-glyph horiz-adv-x="476" 
d="M136 -380q-20 0 -28 8t-8 28v1768q0 20 8 28t28 8h204q20 0 28 -8t8 -28v-1768q0 -20 -8 -28t-28 -8h-204z" />
    <glyph glyph-name="f_b" unicode="fb" horiz-adv-x="1790" 
d="M1014 200q30 -30 69.5 -47t90.5 -17t91 23t70 61.5t51.5 88.5t34.5 103t19 105.5t6 96.5q0 47 -7.5 87.5t-24.5 70.5t-45.5 47t-70.5 17q-29 0 -63 -12t-66 -45t-58.5 -90t-40.5 -147zM394 16q-18 -116 -59.5 -198.5t-101 -135t-135 -77.5t-160.5 -25q-131 0 -202.5 48.5
t-71.5 137.5q0 33 10.5 60t29.5 46t44.5 29.5t55.5 10.5q27 0 49 -8.5t37 -23t23.5 -33.5t8.5 -41q0 -36 -17 -63t-49 -47q21 -12 54 -12q31 0 61 13.5t55.5 44.5t45.5 82t32 126l142 904h-126q-36 0 -30 36l8 54q3 20 12.5 28t29.5 8h124l14 84q18 115 61 198t104.5 135.5
t138 77.5t162.5 25q85 0 153.5 -16t116.5 -48l172 52q34 9 28 -26l-92 -600q50 65 117 101.5t161 36.5q88 0 151.5 -33t104 -88.5t59.5 -127.5t19 -151q0 -112 -33.5 -222.5t-99 -199t-163 -143.5t-224.5 -55q-75 0 -138 23.5t-116 80.5l-56 -58q-14 -14 -27 -20t-33 -6
h-102q-36 0 -30 36l202 1302q-20 18 -55.5 31t-86.5 13q-34 0 -66 -11.5t-59 -40t-47.5 -77t-31.5 -123.5l-24 -150h176q36 0 30 -36l-8 -54q-3 -20 -12.5 -28t-29.5 -8h-176z" />
    <glyph glyph-name="f_f" unicode="ff" horiz-adv-x="1294" 
d="M768 1362q-34 0 -65.5 -11.5t-58.5 -40t-47.5 -77t-32.5 -123.5l-20 -130h310l14 84q9 62 26 114t40 96q-17 35 -58.5 61.5t-107.5 26.5zM394 16q-18 -116 -59.5 -198.5t-101 -135t-135 -77.5t-160.5 -25q-131 0 -202.5 48.5t-71.5 137.5q0 33 10.5 60t29.5 46t44.5 29.5
t55.5 10.5q27 0 49 -8.5t37 -23t23.5 -33.5t8.5 -41q0 -36 -17 -63t-49 -47q21 -12 54 -12q31 0 61 13.5t55.5 44.5t45.5 82t32 126l140 904h-124q-36 0 -30 36l8 54q3 20 12.5 28t29.5 8h124l10 64q18 115 61 198t104.5 135.5t138 77.5t162.5 25q92 0 161.5 -26t110.5 -74
q63 62 143.5 91t174.5 29q65 0 117 -13.5t88 -39t55.5 -61.5t19.5 -80q0 -33 -10.5 -60t-29.5 -46t-44.5 -29.5t-55.5 -10.5q-27 0 -49 8.5t-37 23t-23.5 33.5t-8.5 41q0 36 18 64t50 48q-26 16 -62 16q-32 0 -62.5 -13t-57.5 -44t-48 -81.5t-32 -125.5l-24 -150h176
q36 0 30 -36l-8 -54q-3 -20 -12.5 -28t-29.5 -8h-174l-132 -844q-17 -112 -57 -192t-95 -131t-121.5 -75t-136.5 -24q-62 0 -106 14.5t-71.5 38.5t-40 53.5t-12.5 59.5q0 28 9 51.5t25 40t37.5 25.5t46.5 9q44 0 71 -21t27 -65q0 -30 -18 -54t-50 -38q12 -8 27.5 -11
t32.5 -3q54 0 85.5 49t48.5 155l150 962h-312z" />
    <glyph glyph-name="f_h" unicode="fh" horiz-adv-x="1812" 
d="M1118 848q20 30 47.5 57.5t63.5 48.5t81 33.5t100 12.5q87 0 143.5 -30t87.5 -81t38 -118.5t-5 -142.5l-60 -376q-6 -45 -6 -58q0 -20 9.5 -32t32.5 -12q14 0 26 3.5t30 14.5q15 9 26 9t22 -17l20 -30q14 -20 9 -37.5t-31 -38.5q-11 -10 -31 -22.5t-47 -24t-62 -19.5
t-76 -8q-63 0 -103.5 16t-63.5 42t-32 60t-9 70q0 32 5 66.5t13 79.5l50 320q7 42 7 79t-10.5 65t-34.5 44t-64 16q-29 0 -62.5 -12t-65 -45.5t-58 -93t-40.5 -153.5l-76 -498q-3 -20 -12.5 -28t-29.5 -8h-210q-36 0 -30 36l204 1302q-20 18 -55.5 31t-86.5 13
q-34 0 -66 -11.5t-59 -40t-47.5 -77t-31.5 -123.5l-24 -150h176q36 0 30 -36l-8 -54q-3 -20 -12.5 -28t-29.5 -8h-176l-130 -838q-18 -116 -59.5 -198.5t-101 -135t-135 -77.5t-160.5 -25q-131 0 -202.5 48.5t-71.5 137.5q0 33 10.5 60t29.5 46t44.5 29.5t55.5 10.5
q27 0 49 -8.5t37 -23t23.5 -33.5t8.5 -41q0 -36 -17 -63t-49 -47q21 -12 54 -12q31 0 61 13.5t55.5 44.5t45.5 82t32 126l142 904h-126q-36 0 -30 36l8 54q3 20 12.5 28t29.5 8h124l14 84q18 115 61 198t104.5 135.5t138 77.5t162.5 25q85 0 153.5 -16t116.5 -48l172 52
q34 9 28 -26l-96 -614v0z" />
    <glyph glyph-name="f_i" unicode="fi" horiz-adv-x="1238" 
d="M1024 252q-6 -45 -6 -58q0 -20 9.5 -32t32.5 -12q14 0 26 3.5t30 14.5q15 9 26 9t22 -17l16 -24q9 -14 11.5 -20.5t2.5 -15.5q0 -11 -8.5 -21.5t-23.5 -24.5q-11 -10 -31 -22.5t-47 -24t-62 -19.5t-76 -8q-63 0 -103.5 16t-63.5 42t-32 60t-9 70q0 35 4 68t12 78l84 540
h-314l-130 -838q-18 -116 -59.5 -198.5t-101 -135t-135 -77.5t-160.5 -25q-131 0 -202.5 48.5t-71.5 137.5q0 33 10.5 60t29.5 46t44.5 29.5t55.5 10.5q27 0 49 -8.5t37 -23t23.5 -33.5t8.5 -41q0 -36 -17 -63t-49 -47q21 -12 54 -12q31 0 61 13.5t55.5 44.5t45.5 82t32 126
l142 904h-126q-36 0 -30 36l8 54q3 20 12.5 28t29.5 8h124l14 84q18 115 69 198t123 135.5t158.5 77.5t175.5 25q77 0 143.5 -14t115.5 -41t77 -66t28 -89q0 -36 -11.5 -66t-32 -51t-49.5 -33t-63 -12q-32 0 -56.5 10t-42 26.5t-26.5 38.5t-9 47q0 39 17.5 66.5t50.5 45.5
q-23 9 -52 14.5t-62 5.5q-44 0 -86 -11.5t-78 -40t-62.5 -77t-37.5 -123.5l-24 -150h438l122 8q36 3 30 -34l-110 -702v0z" />
    <glyph glyph-name="f_j" unicode="fj" horiz-adv-x="1202" 
d="M988 16q-17 -112 -57 -192.5t-95 -133t-121.5 -77.5t-136.5 -25q-62 0 -106 14.5t-71.5 38.5t-40 53.5t-12.5 59.5q0 28 9 51.5t25 40t37.5 25.5t46.5 9q44 0 71 -21t27 -65q0 -30 -18 -54t-50 -38q12 -8 27.5 -11t32.5 -3q54 0 85.5 51t48.5 157l148 958h-314l-128 -824
q-18 -116 -60 -200.5t-102 -140t-135.5 -82.5t-160.5 -27q-131 0 -202.5 48.5t-71.5 137.5q0 33 10.5 60t29.5 46t44.5 29.5t55.5 10.5q27 0 49 -8.5t37 -23t23.5 -33.5t8.5 -41q0 -36 -17 -63t-49 -47q21 -12 54 -12q31 0 61 13.5t55.5 44.5t45.5 82t32 126l142 904h-126
q-36 0 -30 36l8 54q3 20 12.5 28t29.5 8h124l14 84q18 115 69 198t123 135.5t158.5 77.5t175.5 25q77 0 143.5 -14t115.5 -41t77 -66t28 -89q0 -36 -11.5 -66t-32 -51t-49.5 -33t-63 -12q-32 0 -56.5 10t-42 26.5t-26.5 38.5t-9 47q0 39 17.5 66.5t50.5 45.5q-23 9 -52 14.5
t-62 5.5q-44 0 -86 -11.5t-78 -40t-62.5 -77t-37.5 -123.5l-24 -150h438l122 8q36 3 30 -34l-146 -938v0z" />
    <glyph glyph-name="f_k" unicode="fk" horiz-adv-x="1784" 
d="M1696 52q-12 -11 -30 -24t-43.5 -23.5t-58 -17.5t-72.5 -7q-44 0 -78.5 9t-63 29t-52 52t-44.5 78l-102 220q-8 17 -10.5 28.5t0.5 31.5l4 28q3 17 11.5 23.5t28.5 8.5q67 4 113.5 25.5t76 53.5t43 72t13.5 83q0 21 -3.5 42t-14 38t-29 27.5t-47.5 10.5
q-47 0 -91.5 -27.5t-82 -75.5t-65 -113.5t-39.5 -141.5l-70 -446q-3 -20 -12.5 -28t-29.5 -8h-208q-36 0 -30 36l204 1302q-20 18 -55.5 31t-86.5 13q-34 0 -66 -11.5t-59 -40t-47.5 -77t-31.5 -123.5l-24 -150h176q36 0 30 -36l-8 -54q-3 -20 -12.5 -28t-29.5 -8h-176
l-130 -838q-18 -116 -59.5 -198.5t-101 -135t-135 -77.5t-160.5 -25q-131 0 -202.5 48.5t-71.5 137.5q0 33 10.5 60t29.5 46t44.5 29.5t55.5 10.5q27 0 49 -8.5t37 -23t23.5 -33.5t8.5 -41q0 -36 -17 -63t-49 -47q21 -12 54 -12q31 0 61 13.5t55.5 44.5t45.5 82t32 126
l142 904h-126q-36 0 -30 36l8 54q3 20 12.5 28t29.5 8h124l14 84q18 115 61 198t104.5 135.5t138 77.5t162.5 25q85 0 153.5 -16t116.5 -48l172 52q34 9 28 -26l-102 -656q23 34 54 69t72.5 62.5t94.5 45t121 17.5t117.5 -18t81.5 -50t47.5 -76t15.5 -96q0 -71 -25.5 -126.5
t-68 -97.5t-99 -69.5t-117.5 -40.5l126 -208q17 -27 33 -47.5t45 -20.5q12 0 23 4t23 12q9 6 18 6.5t18 -14.5l20 -32q5 -8 7.5 -14.5t2.5 -15.5q0 -18 -26 -44z" />
    <glyph glyph-name="f_l" unicode="fl" horiz-adv-x="1238" 
d="M1184 1488q28 9 28 -20q0 -12 -4 -39l-10 -65l-174 -1112q-6 -45 -6 -58q0 -20 9.5 -32t32.5 -12q14 0 26 3.5t30 14.5q15 9 26 9t22 -17l20 -30q14 -20 9 -37.5t-31 -38.5q-11 -10 -31 -22.5t-47 -24t-62 -19.5t-76 -8q-63 0 -103.5 16t-63.5 42t-32 60t-9 70
q0 32 4 66.5t12 79.5l160 1024q-20 18 -55.5 31t-86.5 13q-34 0 -66 -11.5t-59 -40t-47.5 -77t-31.5 -123.5l-24 -150h176q36 0 30 -36l-8 -54q-3 -20 -12.5 -28t-29.5 -8h-176l-130 -838q-18 -116 -59.5 -198.5t-101 -135t-135 -77.5t-160.5 -25q-131 0 -202.5 48.5
t-71.5 137.5q0 33 10.5 60t29.5 46t44.5 29.5t55.5 10.5q27 0 49 -8.5t37 -23t23.5 -33.5t8.5 -41q0 -36 -17 -63t-49 -47q21 -12 54 -12q31 0 61 13.5t55.5 44.5t45.5 82t32 126l142 904h-126q-36 0 -30 36l8 54q3 20 12.5 28t29.5 8h124l14 84q18 115 61 198t104.5 135.5
t138 77.5t162.5 25q85 0 153.5 -16t116.5 -48l170 52v0z" />
    <glyph glyph-name="f_f_b" unicode="ffb" horiz-adv-x="2380" 
d="M768 1362q-34 0 -65.5 -11.5t-58.5 -40t-47.5 -77t-32.5 -123.5l-20 -130h310l14 84q11 66 29.5 121.5t44.5 100.5q-23 33 -67 54.5t-107 21.5zM1604 200q30 -30 69.5 -47t90.5 -17t91 23t70 61.5t51.5 88.5t34.5 103t19 105.5t6 96.5q0 47 -7.5 87.5t-24.5 70.5
t-45.5 47t-70.5 17q-29 0 -63 -12t-66 -45t-58.5 -90t-40.5 -147zM394 16q-18 -116 -59.5 -198.5t-101 -135t-135 -77.5t-160.5 -25q-131 0 -202.5 48.5t-71.5 137.5q0 33 10.5 60t29.5 46t44.5 29.5t55.5 10.5q27 0 49 -8.5t37 -23t23.5 -33.5t8.5 -41q0 -36 -17 -63
t-49 -47q21 -12 54 -12q31 0 61 13.5t55.5 44.5t45.5 82t32 126l140 904h-124q-36 0 -30 36l8 54q3 20 12.5 28t29.5 8h124l10 64q18 115 61 198t104.5 135.5t138 77.5t162.5 25q92 0 164 -24.5t116 -71.5q63 60 143 88t171 28q85 0 153.5 -16t116.5 -48l172 52q34 9 28 -26
l-92 -600q50 65 117 101.5t161 36.5q88 0 151.5 -33t104 -88.5t59.5 -127.5t19 -151q0 -112 -33.5 -222.5t-99 -199t-163 -143.5t-224.5 -55q-75 0 -138 23.5t-116 80.5l-56 -58q-14 -14 -27 -20t-33 -6h-102q-36 0 -30 36l202 1302q-20 18 -55.5 31t-86.5 13
q-34 0 -65.5 -11.5t-58.5 -40t-47.5 -77t-32.5 -123.5l-24 -150h176q36 0 30 -36l-8 -54q-3 -20 -12.5 -28t-29.5 -8h-174l-132 -844q-17 -112 -57 -192t-95 -131t-121.5 -75t-136.5 -24q-62 0 -106 14.5t-71.5 38.5t-40 53.5t-12.5 59.5q0 28 9 51.5t25 40t37.5 25.5
t46.5 9q44 0 71 -21t27 -65q0 -30 -18 -54t-50 -38q12 -8 27.5 -11t32.5 -3q54 0 85.5 49t48.5 155l150 962h-312z" />
    <glyph glyph-name="f_f_h" unicode="ffh" horiz-adv-x="2402" 
d="M768 1362q-34 0 -65.5 -11.5t-58.5 -40t-47.5 -77t-32.5 -123.5l-20 -130h310l14 84q11 66 29.5 121.5t44.5 100.5q-23 33 -67 54.5t-107 21.5zM1708 848q20 30 47.5 57.5t63.5 48.5t81 33.5t100 12.5q87 0 143.5 -30t87.5 -81t38 -118.5t-5 -142.5l-60 -376
q-6 -45 -6 -58q0 -20 9.5 -32t32.5 -12q14 0 26 3.5t30 14.5q15 9 26 9t22 -17l20 -30q14 -20 9 -37.5t-31 -38.5q-11 -10 -31 -22.5t-47 -24t-62 -19.5t-76 -8q-63 0 -103.5 16t-63.5 42t-32 60t-9 70q0 32 5 66.5t13 79.5l50 320q7 42 7 79t-10.5 65t-34.5 44t-64 16
q-29 0 -62.5 -12t-65 -45.5t-58 -93t-40.5 -153.5l-76 -498q-3 -20 -12.5 -28t-29.5 -8h-210q-36 0 -30 36l204 1302q-20 18 -55.5 31t-86.5 13q-34 0 -65.5 -11.5t-58.5 -40t-47.5 -77t-32.5 -123.5l-24 -150h176q36 0 30 -36l-8 -54q-3 -20 -12.5 -28t-29.5 -8h-174
l-132 -844q-17 -112 -57 -192t-95 -131t-121.5 -75t-136.5 -24q-62 0 -106 14.5t-71.5 38.5t-40 53.5t-12.5 59.5q0 28 9 51.5t25 40t37.5 25.5t46.5 9q44 0 71 -21t27 -65q0 -30 -18 -54t-50 -38q12 -8 27.5 -11t32.5 -3q54 0 85.5 49t48.5 155l150 962h-312l-130 -838
q-18 -116 -59.5 -198.5t-101 -135t-135 -77.5t-160.5 -25q-131 0 -202.5 48.5t-71.5 137.5q0 33 10.5 60t29.5 46t44.5 29.5t55.5 10.5q27 0 49 -8.5t37 -23t23.5 -33.5t8.5 -41q0 -36 -17 -63t-49 -47q21 -12 54 -12q31 0 61 13.5t55.5 44.5t45.5 82t32 126l140 904h-124
q-36 0 -30 36l8 54q3 20 12.5 28t29.5 8h124l10 64q18 115 61 198t104.5 135.5t138 77.5t162.5 25q92 0 164 -24.5t116 -71.5q63 60 143 88t171 28q85 0 153.5 -16t116.5 -48l172 52q34 9 28 -26z" />
    <glyph glyph-name="f_f_i" unicode="ffi" horiz-adv-x="1824" 
d="M768 1362q-34 0 -65.5 -11.5t-58.5 -40t-47.5 -77t-32.5 -123.5l-20 -130h310l14 84q21 125 78 212q-20 38 -65 62t-113 24zM1706 168q15 9 26 9t22 -17l16 -24q9 -14 11.5 -20.5t2.5 -15.5q0 -11 -8.5 -21.5t-23.5 -24.5q-11 -10 -31 -22.5t-47 -24t-62 -19.5t-76 -8
q-63 0 -103.5 16t-63.5 42t-32 60t-9 70q0 35 4 68t12 78l84 540h-312l-132 -844q-17 -112 -57 -192t-95 -131t-121.5 -75t-136.5 -24q-62 0 -106 14.5t-71.5 38.5t-40 53.5t-12.5 59.5q0 28 9 51.5t25 40t37.5 25.5t46.5 9q44 0 71 -21t27 -65q0 -30 -18 -54t-50 -38
q12 -8 27.5 -11t32.5 -3q54 0 85.5 49t48.5 155l150 962h-312l-130 -838q-18 -116 -59.5 -198.5t-101 -135t-135 -77.5t-160.5 -25q-131 0 -202.5 48.5t-71.5 137.5q0 33 10.5 60t29.5 46t44.5 29.5t55.5 10.5q27 0 49 -8.5t37 -23t23.5 -33.5t8.5 -41q0 -36 -17 -63
t-49 -47q21 -12 54 -12q31 0 61 13.5t55.5 44.5t45.5 82t32 126l140 904h-124q-36 0 -30 36l8 54q3 20 12.5 28t29.5 8h124l10 64q18 115 61 198t104.5 135.5t138 77.5t162.5 25q98 0 173 -27.5t117 -78.5q75 64 170.5 95t193.5 31q77 0 143.5 -14t115.5 -41t77 -66t28 -89
q0 -36 -11.5 -66t-32 -51t-49.5 -33t-63 -12q-32 0 -56.5 10t-42 26.5t-26.5 38.5t-9 47q0 39 17.5 66.5t50.5 45.5q-23 9 -52 14.5t-62 5.5q-44 0 -86 -11.5t-77.5 -40t-62 -77t-38.5 -123.5l-24 -150h438l122 8q36 3 30 -34l-110 -702q-6 -45 -6 -58q0 -20 9.5 -32
t32.5 -12q14 0 26 3.5t30 14.5z" />
    <glyph glyph-name="f_f_j" unicode="ffj" horiz-adv-x="1792" 
d="M768 1362q-34 0 -65.5 -11.5t-58.5 -40t-47.5 -77t-32.5 -123.5l-20 -130h310l14 84q21 125 78 212q-20 38 -65 62t-113 24zM1578 24q-17 -112 -57 -192.5t-95 -133t-121.5 -77.5t-136.5 -25q-62 0 -106 14.5t-71.5 38.5t-40 53.5t-12.5 59.5q0 28 9 51.5t25 40
t37.5 25.5t46.5 9q44 0 71 -21t27 -65q0 -30 -18 -54t-50 -38q12 -8 27.5 -11t32.5 -3q54 0 85.5 51t48.5 157l148 950h-312l-128 -818q-20 -128 -61 -213.5t-96 -138t-121 -74.5t-136 -22q-62 0 -106 14.5t-71.5 38.5t-40 53.5t-12.5 59.5q0 28 9 51.5t25 40t37.5 25.5
t46.5 9q44 0 71 -21t27 -65q0 -30 -18 -54t-50 -38q12 -8 27.5 -11t32.5 -3q54 0 85.5 49t48.5 155l150 962h-312l-130 -838q-18 -116 -59.5 -198.5t-101 -135t-135 -77.5t-160.5 -25q-131 0 -202.5 48.5t-71.5 137.5q0 33 10.5 60t29.5 46t44.5 29.5t55.5 10.5
q27 0 49 -8.5t37 -23t23.5 -33.5t8.5 -41q0 -36 -17 -63t-49 -47q21 -12 54 -12q31 0 61.5 13.5t56 44.5t45.5 82t31 126l140 904h-124q-36 0 -30 36l8 54q3 20 12.5 28t29.5 8h124l10 64q18 115 61 198t104.5 135.5t138 77.5t162.5 25q98 0 173 -27.5t117 -78.5
q75 64 170.5 95t193.5 31q77 0 143.5 -14t115.5 -41t77 -66t28 -89q0 -36 -11.5 -66t-32 -51t-49.5 -33t-63 -12q-32 0 -56.5 10t-42 26.5t-26.5 38.5t-9 47q0 39 17.5 66.5t50.5 45.5q-23 9 -52 14.5t-62 5.5q-44 0 -86 -11.5t-77.5 -40t-62 -77t-38.5 -123.5l-24 -150h438
l122 8q36 3 30 -34z" />
    <glyph glyph-name="f_f_k" unicode="ffk" horiz-adv-x="2374" 
d="M768 1362q-34 0 -65.5 -11.5t-58.5 -40t-47.5 -77t-32.5 -123.5l-20 -130h310l14 84q11 66 29.5 121.5t44.5 100.5q-23 33 -67 54.5t-107 21.5zM2286 52q-12 -11 -30 -24t-43.5 -23.5t-58 -17.5t-72.5 -7q-44 0 -78.5 9t-63 29t-52 52t-44.5 78l-102 220
q-8 17 -10.5 28.5t0.5 31.5l4 28q3 17 11.5 23.5t28.5 8.5q67 4 113.5 25.5t76 53.5t43 72t13.5 83q0 21 -3.5 42t-14 38t-29 27.5t-47.5 10.5q-47 0 -91.5 -27.5t-82 -75.5t-65 -113.5t-39.5 -141.5l-70 -446q-3 -20 -12.5 -28t-29.5 -8h-208q-36 0 -30 36l204 1302
q-20 18 -55.5 31t-86.5 13q-34 0 -65.5 -11.5t-58.5 -40t-47.5 -77t-32.5 -123.5l-24 -150h176q36 0 30 -36l-8 -54q-3 -20 -12.5 -28t-29.5 -8h-174l-132 -844q-17 -112 -57 -192t-95 -131t-121.5 -75t-136.5 -24q-62 0 -106 14.5t-71.5 38.5t-40 53.5t-12.5 59.5
q0 28 9 51.5t25 40t37.5 25.5t46.5 9q44 0 71 -21t27 -65q0 -30 -18 -54t-50 -38q12 -8 27.5 -11t32.5 -3q54 0 85.5 49t48.5 155l150 962h-312l-130 -838q-18 -116 -59.5 -198.5t-101 -135t-135 -77.5t-160.5 -25q-131 0 -202.5 48.5t-71.5 137.5q0 33 10.5 60t29.5 46
t44.5 29.5t55.5 10.5q27 0 49 -8.5t37 -23t23.5 -33.5t8.5 -41q0 -36 -17 -63t-49 -47q21 -12 54 -12q31 0 61 13.5t55.5 44.5t45.5 82t32 126l140 904h-124q-36 0 -30 36l8 54q3 20 12.5 28t29.5 8h124l10 64q18 115 61 198t104.5 135.5t138 77.5t162.5 25q92 0 164 -24.5
t116 -71.5q63 60 143 88t171 28q85 0 153.5 -16t116.5 -48l172 52q34 9 28 -26l-102 -656q23 34 54 69t72.5 62.5t94.5 45t121 17.5t117.5 -18t81.5 -50t47.5 -76t15.5 -96q0 -71 -25.5 -126.5t-68 -97.5t-99 -69.5t-117.5 -40.5l126 -208q17 -27 33 -47.5t45 -20.5
q12 0 23 4t23 12q9 6 18 6.5t18 -14.5l20 -32q5 -8 7.5 -14.5t2.5 -15.5q0 -18 -26 -44z" />
    <glyph glyph-name="f_f_l" unicode="ffl" horiz-adv-x="1828" 
d="M1774 1488q14 5 22 -0.5t8 -19.5q0 -8 -3.5 -31l-8.5 -55l-178 -1130q-6 -45 -6 -58q0 -20 9.5 -32t32.5 -12q14 0 26 3.5t30 14.5q15 9 26 9t22 -17l20 -30q14 -20 9 -37.5t-31 -38.5q-11 -10 -31 -22.5t-47 -24t-62 -19.5t-76 -8q-63 0 -103.5 16t-63.5 42t-32 60
t-9 70q0 32 4 66.5t12 79.5l160 1024q-20 18 -55.5 31t-86.5 13q-34 0 -65.5 -11.5t-58.5 -40t-47.5 -77t-32.5 -123.5l-24 -150h176q36 0 30 -36l-8 -54q-3 -20 -12.5 -28t-29.5 -8h-174l-132 -844q-17 -112 -57 -192t-95 -131t-121.5 -75t-136.5 -24q-62 0 -106 14.5
t-71.5 38.5t-40 53.5t-12.5 59.5q0 28 9 51.5t25 40t37.5 25.5t46.5 9q44 0 71 -21t27 -65q0 -30 -18 -54t-50 -38q12 -8 27.5 -11t32.5 -3q54 0 85.5 49t48.5 155l150 962h-312l-130 -838q-18 -116 -59.5 -198.5t-101 -135t-135 -77.5t-160.5 -25q-131 0 -202.5 48.5
t-71.5 137.5q0 33 10.5 60t29.5 46t44.5 29.5t55.5 10.5q27 0 49 -8.5t37 -23t23.5 -33.5t8.5 -41q0 -36 -17 -63t-49 -47q21 -12 54 -12q31 0 61 13.5t55.5 44.5t45.5 82t32 126l140 904h-124q-36 0 -30 36l8 54q3 20 12.5 28t29.5 8h124l10 64q18 115 61 198t104.5 135.5
t138 77.5t162.5 25q92 0 164 -24.5t116 -71.5q63 60 143 88t171 28q85 0 153.5 -16t116.5 -48zM768 1362q-34 0 -65.5 -11.5t-58.5 -40t-47.5 -77t-32.5 -123.5l-20 -130h310l14 84q11 66 29.5 121.5t44.5 100.5q-23 33 -67 54.5t-107 21.5z" />
    <glyph glyph-name=".notdef" horiz-adv-x="476" 
d="M136 -380q-20 0 -28 8t-8 28v1768q0 20 8 28t28 8h204q20 0 28 -8t8 -28v-1768q0 -20 -8 -28t-28 -8h-204z" />
    <glyph glyph-name=".null" horiz-adv-x="0" 
 />
    <glyph glyph-name="nonmarkingreturn" horiz-adv-x="476" 
 />
    <glyph glyph-name="space" unicode=" " horiz-adv-x="476" 
 />
    <glyph glyph-name="uni00A0" unicode="&#xa0;" horiz-adv-x="476" 
 />
    <glyph glyph-name="bar" unicode="|" horiz-adv-x="574" 
d="M142 -180q-30 0 -30 26v7.5t2 16.5l252 1598q3 20 12.5 28t29.5 8h78q30 0 30 -26q0 -3 -0.5 -10.5t-3.5 -27.5l-250 -1584q-3 -20 -12.5 -28t-29.5 -8h-78z" />
    <glyph glyph-name="brokenbar" unicode="&#xa6;" horiz-adv-x="574" 
d="M428 910q-3 -20 -12.5 -28t-29.5 -8h-78q-36 0 -30 36l88 558q3 20 12.5 28t29.5 8h78q30 0 30 -26q0 -3 -0.5 -10.5t-3.5 -27.5zM200 414q3 20 12.5 28t29.5 8h78q36 0 30 -36l-88 -558q-3 -20 -12.5 -28t-29.5 -8h-78q-30 0 -30 26v7.5t2 16.5z" />
    <glyph glyph-name="hyphen" unicode="-" horiz-adv-x="692" 
d="M116 644q3 20 12.5 28t29.5 8h440q30 0 30 -26v-5.5t-2 -14.5l-20 -126q-3 -20 -12.5 -28t-29.5 -8h-440q-30 0 -30 26v5.5t2 12.5z" />
    <glyph glyph-name="uni00AD" unicode="&#xad;" horiz-adv-x="692" 
d="M116 644q3 20 12.5 28t29.5 8h440q30 0 30 -26v-5.5t-2 -14.5l-20 -126q-3 -20 -12.5 -28t-29.5 -8h-440q-30 0 -30 26v5.5t2 12.5z" />
    <glyph glyph-name="endash" unicode="&#x2013;" horiz-adv-x="1000" 
d="M128 614q3 20 12.5 28t29.5 8h710q30 0 30 -26v-5.5t-2 -14.5l-10 -66q-3 -20 -12.5 -28t-29.5 -8h-710q-30 0 -30 26v5.5t2 12.5z" />
    <glyph glyph-name="emdash" unicode="&#x2014;" horiz-adv-x="1600" 
d="M128 614q3 20 12.5 28t29.5 8h1308q32 0 32 -26v-5.5t-2 -14.5l-10 -66q-3 -20 -12.5 -28t-29.5 -8h-1310q-30 0 -30 26v5.5t2 12.5z" />
    <glyph glyph-name="underscore" unicode="_" horiz-adv-x="940" 
d="M-102 -36q3 20 12.5 28t29.5 8h906q30 0 30 -26v-4.5t-2 -11.5l-12 -78q-3 -20 -12.5 -28t-29.5 -8h-906q-30 0 -30 26v6t2 12z" />
    <glyph glyph-name="asciitilde" unicode="~" 
d="M400 660q52 0 94 -13.5t77 -33.5t65 -43l58 -43t56 -33.5t60 -13.5q53 0 93.5 31.5t72.5 78.5q9 14 14.5 19t13.5 5q6 0 12 -2.5t12 -5.5l34 -18q9 -5 15.5 -13t6.5 -17q0 -3 -0.5 -7.5t-3.5 -10.5q-20 -40 -47.5 -78.5t-65 -69t-84.5 -49.5t-105 -19q-52 0 -94 13.5
t-77 33.5t-65 43l-58 43t-56.5 33.5t-59.5 13.5q-53 0 -93.5 -31t-72.5 -79q-13 -22 -30 -22q-10 0 -22 6l-34 18q-22 11 -22 28q0 5 0.5 10t5.5 14q19 39 47 77t65 68t83.5 48.5t104.5 18.5z" />
    <glyph glyph-name="plus" unicode="+" 
d="M658 416l-60 -380q-3 -20 -12.5 -28t-29.5 -8h-92q-36 0 -30 36l60 380h-354q-30 0 -30 26q0 3 0.5 11t3.5 23l10 56q3 20 12.5 28t29.5 8h352l58 376q3 20 12.5 28t29.5 8h92q36 0 30 -36l-58 -376h352q30 0 30 -26q0 -3 -1.5 -12.5l-4.5 -29.5l-8 -48q-3 -20 -12.5 -28
t-29.5 -8h-350z" />
    <glyph glyph-name="plusminus" unicode="&#xb1;" 
d="M962 152q17 0 23.5 -6t6.5 -20q0 -3 -1.5 -12.5l-4.5 -29.5l-8 -48q-3 -20 -12.5 -28t-29.5 -8h-868q-30 0 -30 26q0 3 0.5 11t3.5 23l10 56q3 20 12.5 28t29.5 8h868zM1050 710q17 0 23.5 -6t6.5 -20q0 -3 -1.5 -12.5l-4.5 -29.5l-8 -48q-3 -20 -12.5 -28t-29.5 -8h-352
l-44 -270q-3 -20 -12.5 -28t-29.5 -8h-92q-36 0 -30 36l44 270h-352q-30 0 -30 26q0 3 0.5 11t3.5 23l10 56q3 20 12.5 28t29.5 8h350l42 266q3 20 12.5 28t29.5 8h92q36 0 30 -36l-42 -266h354z" />
    <glyph glyph-name="minus" unicode="&#x2212;" 
d="M140 416q-30 0 -30 26q0 3 0.5 11t3.5 23l10 56q3 20 12.5 28t29.5 8h868q17 0 23.5 -6t6.5 -20q0 -3 -1.5 -12.5l-4.5 -29.5l-8 -48q-3 -20 -12.5 -28t-29.5 -8h-868z" />
    <glyph glyph-name="multiply" unicode="&#xd7;" 
d="M872 56q-12 -12 -24 -12q-11 0 -24 16l-246 304l-346 -308q-12 -12 -26 -12q-13 0 -24 14l-64 70q-12 12 -12 26q0 13 14 24l354 314l-246 306q-12 14 -11.5 26t17.5 26l72 62q15 12 26 12t24 -16l244 -304l342 308q12 12 24 12q13 0 26 -16l60 -70q12 -15 12 -26
q0 -15 -14 -26l-346 -310l244 -306q12 -15 11.5 -27.5t-15.5 -24.5z" />
    <glyph glyph-name="equal" unicode="=" 
d="M108 216q-30 0 -30 26q0 3 0.5 11t3.5 23l10 56q3 20 12.5 28t29.5 8h868q30 0 30 -26q0 -3 -1.5 -12.5l-4.5 -29.5l-8 -48q-3 -20 -12.5 -28t-29.5 -8h-868zM172 616q-30 0 -30 26q0 3 0.5 11t3.5 23l10 56q3 20 12.5 28t29.5 8h868q17 0 23.5 -6t6.5 -20
q0 -3 -1.5 -12.5l-4.5 -29.5l-8 -48q-3 -20 -12.5 -28t-29.5 -8h-868z" />
    <glyph glyph-name="notequal" unicode="&#x2260;" 
d="M306 -22q-11 -17 -23.5 -23.5t-32.5 -6.5h-74q-17 0 -21 8t5 22l164 238h-216q-30 0 -30 26q0 3 0.5 11t3.5 23l10 56q3 20 12.5 28t29.5 8h294l170 248h-426q-30 0 -30 26q0 3 0.5 11t3.5 23l10 56q3 20 12.5 28t29.5 8h504l164 238q11 17 23.5 23.5t32.5 6.5h76
q17 0 21 -8t-5 -22l-164 -238h216q17 0 23.5 -6t6.5 -20q0 -3 -1.5 -12.5l-4.5 -29.5l-8 -48q-3 -20 -12.5 -28t-29.5 -8h-294l-172 -248h428q30 0 30 -26q0 -3 -1.5 -12.5l-4.5 -29.5l-8 -48q-3 -20 -12.5 -28t-29.5 -8h-506l-164 -238v0z" />
    <glyph glyph-name="approxequal" unicode="&#x2248;" 
d="M369 461q52 0 94 -13.5t77 -33.5t65 -43l58 -43t56 -33.5t60 -13.5q53 0 93.5 31.5t72.5 78.5q9 14 14.5 19t13.5 5q6 0 12 -2.5t12 -5.5l34 -18q9 -5 15.5 -13t6.5 -17q0 -3 -0.5 -7.5t-3.5 -10.5q-20 -40 -47.5 -78.5t-65 -69t-84.5 -49.5t-105 -19q-52 0 -94 13.5
t-77 33.5t-65 43l-58 43t-56.5 33.5t-59.5 13.5q-53 0 -93.5 -31t-72.5 -79q-13 -22 -30 -22q-10 0 -22 6l-34 18q-22 11 -22 28q0 5 0.5 10t5.5 14q19 39 47 77t65 68t83.5 48.5t104.5 18.5zM428 860q52 0 94 -13.5t77 -33.5t65 -43l58 -43t56 -33.5t60 -13.5
q53 0 93.5 31.5t72.5 78.5q9 14 14.5 19t13.5 5q6 0 12 -2.5t12 -5.5l34 -18q9 -5 15.5 -13t6.5 -17q0 -3 -0.5 -7.5t-3.5 -10.5q-20 -40 -47.5 -78.5t-65 -69t-84.5 -49.5t-105 -19q-52 0 -94 13.5t-77 33.5t-65 43l-58 43t-56.5 33.5t-59.5 13.5q-53 0 -93.5 -31
t-72.5 -79q-13 -22 -30 -22q-10 0 -22 6l-34 18q-22 11 -22 28q0 5 0.5 10t5.5 14q19 39 47 77t65 68t83.5 48.5t104.5 18.5z" />
    <glyph glyph-name="less" unicode="&#x3c;" 
d="M340 482l566 -316q17 -9 20 -19.5t-6 -28.5l-42 -70q-12 -18 -28 -18q-10 0 -22 6l-640 358q-28 17 -28 34q0 8 1.5 17l4.5 27l10 66q3 20 11.5 31.5t26.5 20.5l764 360q12 6 20 6q17 0 26 -24l26 -66q6 -18 6 -26q0 -19 -22 -30z" />
    <glyph glyph-name="greater" unicode="&#x3e;" 
d="M830 502l-566 316q-15 9 -19 19.5t5 28.5l42 70q12 18 28 18q10 0 22 -6l640 -358q28 -17 28 -42q0 -7 -6 -40l-10 -62q-3 -20 -11.5 -31.5t-26.5 -20.5l-764 -360q-12 -6 -20 -6q-17 0 -26 24l-28 72q-3 6 -3.5 10.5t-0.5 9.5q0 19 22 30z" />
    <glyph glyph-name="lessequal" unicode="&#x2264;" 
d="M974 1028q12 5 20.5 7.5t13.5 2.5q17 0 26 -24l28 -78q2 -5 3 -9.5t1 -10.5q0 -16 -26 -28l-674 -262l570 -256q33 -15 16 -46l-38 -74q-9 -17 -20 -21t-28 5l-664 302q-17 9 -23 20.5t-3 31.5l16 92q3 20 12.5 31t27.5 19zM896 152q17 0 23.5 -6t6.5 -20
q0 -3 -1.5 -12.5l-4.5 -29.5l-8 -48q-3 -20 -12.5 -28t-29.5 -8h-750q-30 0 -30 26q0 3 0.5 11t3.5 23l10 56q3 20 12.5 28t29.5 8h750z" />
    <glyph glyph-name="greaterequal" unicode="&#x2265;" 
d="M902 152q17 0 23.5 -6t6.5 -20q0 -3 -1.5 -12.5l-4.5 -29.5l-8 -48q-3 -20 -12.5 -28t-29.5 -8h-750q-30 0 -30 26q0 3 0.5 11t3.5 23l10 56q3 20 12.5 28t29.5 8h750zM830 640l-570 256q-33 15 -16 46l38 74q6 11 11.5 16.5t14.5 5.5q8 0 17 -4l23 -10l646 -294
q14 -6 20 -16.5t6 -21.5q0 -6 -0.5 -13t-3.5 -27l-12 -66q-3 -20 -12.5 -31t-27.5 -19l-756 -304q-35 -14 -46 20l-28 78q-6 18 -1 29t23 19z" />
    <glyph glyph-name="exclam" unicode="!" horiz-adv-x="758" 
d="M442 498q-20 -58 -70 -58q-49 0 -52 58l-22 790q-2 20 6 28t28 8h360q36 0 24 -34zM486 166q0 -39 -12.5 -73t-36 -59t-56.5 -39.5t-73 -14.5q-71 0 -106.5 41.5t-35.5 104.5q0 39 12.5 73t36 59t56 39.5t73.5 14.5q71 0 106.5 -41.5t35.5 -104.5z" />
    <glyph glyph-name="exclamdown" unicode="&#xa1;" horiz-adv-x="718" 
d="M252 814q0 39 12.5 73t36 59t56 39.5t73.5 14.5q71 0 106.5 -41.5t35.5 -104.5q0 -39 -12.5 -73t-36 -59t-56.5 -39.5t-73 -14.5q-71 0 -106.5 41.5t-35.5 104.5zM296 482q20 58 70 58q49 0 52 -58l22 -790q2 -20 -6 -28t-28 -8h-360q-36 0 -24 34z" />
    <glyph glyph-name="question" unicode="?" horiz-adv-x="940" 
d="M640 692l-68.5 -48.5t-54 -49t-41 -59t-30.5 -77.5q-5 -18 -15 -26t-31 -8h-10q-34 0 -40 36q-2 9 -2 19.5v22.5q0 39 11.5 73.5t33 67t52.5 64.5t71 67q31 28 58.5 60.5t48 70t32 80.5t11.5 91q0 66 -40 102t-114 36q-45 0 -90 -10t-84 -34q35 -18 53.5 -44.5
t18.5 -67.5q0 -28 -11.5 -50.5t-31 -39t-46 -25.5t-57.5 -9q-53 0 -84.5 35t-31.5 91q0 80 40.5 134.5t104.5 87.5t143 47.5t156 14.5q80 0 147.5 -15.5t116 -46t75.5 -76t27 -104.5q0 -70 -27 -128.5t-72 -108t-102 -92.5t-117 -81zM534 166q0 -39 -12.5 -73t-36 -59
t-56.5 -39.5t-73 -14.5q-71 0 -106.5 41.5t-35.5 104.5q0 39 12.5 73t36 59t56 39.5t73.5 14.5q71 0 106.5 -41.5t35.5 -104.5z" />
    <glyph glyph-name="questiondown" unicode="&#xbf;" horiz-adv-x="900" 
d="M404 814q0 39 12.5 73t36 59t56 39.5t73.5 14.5q71 0 106.5 -41.5t35.5 -104.5q0 -39 -12.5 -73t-36 -59t-56.5 -39.5t-73 -14.5q-71 0 -106.5 41.5t-35.5 104.5zM790 -80q0 -80 -40.5 -134.5t-104.5 -87.5t-143 -47.5t-156 -14.5q-80 0 -147.5 15.5t-116 46t-75.5 76
t-27 104.5q0 70 27 128.5t72 108t102 92.5t117 81q38 25 68.5 48t54 49.5t41 59t30.5 77.5q5 18 15 26t31 8h10q34 0 40 -36q2 -9 2 -19.5v-22.5q0 -39 -11.5 -73.5t-33 -67t-52.5 -65t-71 -66.5q-32 -28 -59 -60.5t-47.5 -70t-32 -80.5t-11.5 -91q0 -66 40 -102t114 -36
q45 0 90 10t84 34q-35 18 -53.5 44.5t-18.5 67.5q0 28 11.5 50.5t31 39t46 25.5t57.5 9q53 0 84.5 -35t31.5 -91z" />
    <glyph glyph-name="quotesingle" unicode="'" horiz-adv-x="424" 
d="M256 846q-20 0 -28 8t-8 28l14 518q0 20 8 28t28 8h176q28 0 28 -22q0 -6 -3.5 -20.5t-8.5 -29.5l-134 -484q-9 -34 -46 -34h-26z" />
    <glyph glyph-name="quotedbl" unicode="&#x22;" horiz-adv-x="768" 
d="M256 846q-20 0 -28 8t-8 28l14 518q0 20 8 28t28 8h176q28 0 28 -22q0 -6 -3.5 -20.5t-8.5 -29.5l-134 -484q-9 -34 -46 -34h-26zM600 846q-20 0 -28 8t-8 28l14 518q0 20 8 28t28 8h176q28 0 28 -22q0 -6 -3.5 -20.5t-8.5 -29.5l-134 -484q-9 -34 -46 -34h-26z" />
    <glyph glyph-name="comma" unicode="," horiz-adv-x="532" 
d="M378 164q0 -63 -24.5 -129t-65 -129t-91.5 -120.5t-103 -103.5q-8 -6 -14 -10t-14 -4q-6 0 -13 2t-15 8l-32 22q-16 11 -16 26q0 11 18 32q45 53 79.5 106t60.5 116q-48 17 -77 59.5t-29 98.5q0 38 13.5 72.5t38.5 60.5t59.5 41.5t76.5 15.5q71 0 109.5 -43.5
t38.5 -120.5z" />
    <glyph glyph-name="period" unicode="." horiz-adv-x="524" 
d="M374 174q0 -41 -13.5 -76t-38 -61.5t-59 -41.5t-75.5 -15q-36 0 -64 11.5t-47 32.5t-29 49t-10 61q0 40 13.5 75.5t38 62t59 41.5t75.5 15q36 0 64 -11.5t47 -32.5t29 -49t10 -61z" />
    <glyph glyph-name="ellipsis" unicode="&#x2026;" horiz-adv-x="1572" 
d="M1422 174q0 -41 -13.5 -76t-38 -61.5t-59 -41.5t-75.5 -15q-36 0 -64 11.5t-47 32.5t-29 49t-10 61q0 40 13.5 75.5t38 62t59 41.5t75.5 15q36 0 64 -11.5t47 -32.5t29 -49t10 -61zM898 174q0 -41 -13.5 -76t-38 -61.5t-59 -41.5t-75.5 -15q-36 0 -64 11.5t-47 32.5
t-29 49t-10 61q0 40 13.5 75.5t38 62t59 41.5t75.5 15q36 0 64 -11.5t47 -32.5t29 -49t10 -61zM374 174q0 -41 -13.5 -76t-38 -61.5t-59 -41.5t-75.5 -15q-36 0 -64 11.5t-47 32.5t-29 49t-10 61q0 40 13.5 75.5t38 62t59 41.5t75.5 15q36 0 64 -11.5t47 -32.5t29 -49
t10 -61z" />
    <glyph glyph-name="colon" unicode=":" horiz-adv-x="580" 
d="M402 174q0 -41 -13.5 -76t-38 -61.5t-59 -41.5t-75.5 -15q-36 0 -64 11.5t-47 32.5t-29 49t-10 61q0 40 13.5 75.5t38 62t59 41.5t75.5 15q36 0 64 -11.5t47 -32.5t29 -49t10 -61zM510 846q0 -41 -13.5 -76t-38 -61.5t-59 -41.5t-75.5 -15q-36 0 -64 11.5t-47 32.5
t-29 49t-10 61q0 40 13.5 75.5t38 62t59 41.5t75.5 15q36 0 64 -11.5t47 -32.5t29 -49t10 -61z" />
    <glyph glyph-name="semicolon" unicode=";" horiz-adv-x="588" 
d="M406 164q0 -63 -24.5 -129t-65 -129t-91.5 -120.5t-103 -103.5q-8 -6 -14 -10t-14 -4q-6 0 -13 2t-15 8l-32 22q-16 11 -16 26q0 11 18 32q45 53 79.5 106t60.5 116q-48 17 -77 59.5t-29 98.5q0 38 13.5 72.5t38.5 60.5t59.5 41.5t76.5 15.5q71 0 109.5 -43.5
t38.5 -120.5zM514 846q0 -41 -13.5 -76t-38 -61.5t-59 -41.5t-75.5 -15q-36 0 -64 11.5t-47 32.5t-29 49t-10 61q0 40 13.5 75.5t38 62t59 41.5t75.5 15q36 0 64 -11.5t47 -32.5t29 -49t10 -61z" />
    <glyph glyph-name="periodcentered" unicode="&#xb7;" horiz-adv-x="524" 
d="M442 596q0 -41 -13.5 -76t-38 -61.5t-59 -41.5t-75.5 -15q-36 0 -64 11.5t-47 32.5t-29 49t-10 61q0 40 13.5 75.5t38 62t59 41.5t75.5 15q36 0 64 -11.5t47 -32.5t29 -49t10 -61z" />
    <glyph glyph-name="bullet" unicode="&#x2022;" horiz-adv-x="788" 
d="M700 584q0 -62 -20.5 -116t-59 -94.5t-93 -64t-121.5 -23.5q-68 0 -122 23.5t-92.5 64t-59 94.5t-20.5 116q0 61 20.5 115.5t59 95t92.5 64t122 23.5q67 0 121.5 -23.5t93 -64t59 -95t20.5 -115.5z" />
    <glyph glyph-name="quoteleft" unicode="&#x2018;" horiz-adv-x="456" 
d="M462 1022q0 -35 -12 -65.5t-34.5 -54t-53.5 -37t-68 -13.5q-65 0 -99.5 39.5t-34.5 108.5q0 56 22 115t57.5 115t80.5 107.5t92 92.5q14 14 30 14q6 0 11.5 -2t14.5 -8l24 -18q16 -13 16 -26q0 -6 -4 -12t-10 -14q-23 -27 -41.5 -51t-33.5 -48t-28 -48.5t-25 -52.5
q45 -15 70.5 -53t25.5 -89z" />
    <glyph glyph-name="quotedblleft" unicode="&#x201c;" horiz-adv-x="852" 
d="M462 1022q0 -35 -12 -65.5t-34.5 -54t-53.5 -37t-68 -13.5q-65 0 -99.5 39.5t-34.5 108.5q0 56 22 115t57.5 115t80.5 107.5t92 92.5q14 14 30 14q6 0 11.5 -2t14.5 -8l24 -18q16 -13 16 -26q0 -6 -4 -12t-10 -14q-23 -27 -41.5 -51t-33.5 -48t-28 -48.5t-25 -52.5
q45 -15 70.5 -53t25.5 -89zM858 1022q0 -35 -12 -65.5t-34.5 -54t-53.5 -37t-68 -13.5q-65 0 -99.5 39.5t-34.5 108.5q0 56 22 115t57.5 115t80.5 107.5t92 92.5q14 14 30 14q6 0 11.5 -2t14.5 -8l24 -18q16 -13 16 -26q0 -6 -4 -12t-10 -14q-23 -27 -41.5 -51t-33.5 -48
t-28 -48.5t-25 -52.5q45 -15 70.5 -53t25.5 -89z" />
    <glyph glyph-name="quoteright" unicode="&#x2019;" horiz-adv-x="456" 
d="M198 1274q0 34 12 65t34.5 54.5t53 37t68.5 13.5q65 0 99.5 -39.5t34.5 -108.5q0 -56 -22 -115t-57.5 -115t-81 -107.5t-91.5 -92.5q-14 -14 -30 -14q-6 0 -11.5 2t-14.5 8l-24 18q-9 8 -12.5 13t-3.5 13q0 6 4 12t10 14q23 27 41.5 51t33.5 48t28 48.5t25 52.5
q-45 15 -70.5 53t-25.5 89z" />
    <glyph glyph-name="quotedblright" unicode="&#x201d;" horiz-adv-x="852" 
d="M198 1274q0 34 12 65t34.5 54.5t53 37t68.5 13.5q65 0 99.5 -39.5t34.5 -108.5q0 -56 -22 -115t-57.5 -115t-81 -107.5t-91.5 -92.5q-14 -14 -30 -14q-6 0 -11.5 2t-14.5 8l-24 18q-9 8 -12.5 13t-3.5 13q0 6 4 12t10 14q23 27 41.5 51t33.5 48t28 48.5t25 52.5
q-45 15 -70.5 53t-25.5 89zM594 1274q0 34 12 65t34.5 54.5t53 37t68.5 13.5q65 0 99.5 -39.5t34.5 -108.5q0 -56 -22 -115t-57.5 -115t-81 -107.5t-91.5 -92.5q-14 -14 -30 -14q-6 0 -11.5 2t-14.5 8l-24 18q-9 8 -12.5 13t-3.5 13q0 6 4 12t10 14q23 27 41.5 51t33.5 48
t28 48.5t25 52.5q-45 15 -70.5 53t-25.5 89z" />
    <glyph glyph-name="quotesinglbase" unicode="&#x201a;" horiz-adv-x="456" 
d="M196 328q65 0 99.5 -39.5t34.5 -108.5q0 -56 -22 -115t-57.5 -115t-81 -107.5t-91.5 -92.5q-14 -14 -30 -14q-6 0 -11.5 2t-14.5 8l-24 18q-16 13 -16 26q0 6 4 12t10 14q23 27 41.5 51t33.5 48t28 48.5t25 52.5q-45 15 -70.5 53t-25.5 89q0 34 12 65t34.5 54.5t53 37
t68.5 13.5z" />
    <glyph glyph-name="quotedblbase" unicode="&#x201e;" horiz-adv-x="852" 
d="M196 328q65 0 99.5 -39.5t34.5 -108.5q0 -56 -22 -115t-57.5 -115t-81 -107.5t-91.5 -92.5q-14 -14 -30 -14q-6 0 -11.5 2t-14.5 8l-24 18q-16 13 -16 26q0 6 4 12t10 14q23 27 41.5 51t33.5 48t28 48.5t25 52.5q-45 15 -70.5 53t-25.5 89q0 34 12 65t34.5 54.5t53 37
t68.5 13.5zM592 328q65 0 99.5 -39.5t34.5 -108.5q0 -56 -22 -115t-57.5 -115t-81 -107.5t-91.5 -92.5q-14 -14 -30 -14q-6 0 -11.5 2t-14.5 8l-24 18q-16 13 -16 26q0 6 4 12t10 14q23 27 41.5 51t33.5 48t28 48.5t25 52.5q-45 15 -70.5 53t-25.5 89q0 34 12 65t34.5 54.5
t53 37t68.5 13.5z" />
    <glyph glyph-name="guilsinglleft" unicode="&#x2039;" horiz-adv-x="620" 
d="M354 516l106 -322q5 -15 1 -27t-21 -21l-46 -22q-12 -6 -20 -6q-16 0 -32 22l-240 362q-5 8 -7.5 14t-2.5 12q0 14 16 30l362 370q14 14 26 14q14 0 26 -12l38 -34q8 -8 12 -14t4 -14q0 -6 -2.5 -12t-7.5 -14z" />
    <glyph glyph-name="guillemotleft" unicode="&#xab;" horiz-adv-x="1078" 
d="M354 516l106 -322q5 -15 1 -27t-21 -21l-46 -22q-12 -6 -20 -6q-16 0 -32 22l-240 362q-5 8 -7.5 14t-2.5 12q0 14 16 30l362 370q14 14 26 14q14 0 26 -12l38 -34q8 -8 12 -14t4 -14q0 -6 -2.5 -12t-7.5 -14zM812 516l106 -322q5 -15 1 -27t-21 -21l-46 -22
q-12 -6 -20 -6q-16 0 -32 22l-240 362q-5 8 -7.5 14t-2.5 12q0 14 16 30l362 370q14 14 26 14q14 0 26 -12l38 -34q8 -8 12 -14t4 -14q0 -6 -2.5 -12t-7.5 -14z" />
    <glyph glyph-name="guilsinglright" unicode="&#x203a;" horiz-adv-x="612" 
d="M268 548l-106 322q-5 15 -1 27t21 21l46 22q12 6 20 6q16 0 32 -22l240 -362q5 -8 7.5 -14t2.5 -12q0 -14 -16 -30l-362 -370q-14 -14 -26 -14q-14 0 -26 12l-38 34q-8 8 -12 14t-4 14q0 6 2.5 12t7.5 14z" />
    <glyph glyph-name="guillemotright" unicode="&#xbb;" horiz-adv-x="1078" 
d="M268 548l-106 322q-5 15 -1 27t21 21l46 22q12 6 20 6q16 0 32 -22l240 -362q5 -8 7.5 -14t2.5 -12q0 -14 -16 -30l-362 -370q-14 -14 -26 -14q-14 0 -26 12l-38 34q-8 8 -12 14t-4 14q0 6 2.5 12t7.5 14zM734 548l-106 322q-5 15 -1 27t21 21l46 22q12 6 20 6
q16 0 32 -22l240 -362q5 -8 7.5 -14t2.5 -12q0 -14 -16 -30l-362 -370q-14 -14 -26 -14q-14 0 -26 12l-38 34q-8 8 -12 14t-4 14q0 6 2.5 12t7.5 14z" />
    <glyph glyph-name="slash" unicode="/" horiz-adv-x="574" 
d="M-32 -180q-26 0 -26 18q0 3 1 7t3 9l664 1616q8 18 19 26t31 8h86q26 0 26 -18q0 -3 -1 -7t-3 -9l-664 -1616q-8 -18 -19 -26t-31 -8h-86z" />
    <glyph glyph-name="backslash" unicode="\" horiz-adv-x="574" 
d="M220 1504q20 0 29 -8t11 -28l162 -1594q2 -11 2 -17v-9q0 -28 -32 -28h-76q-20 0 -29 8t-11 28l-162 1594q-2 11 -2 16.5v7.5q0 30 32 30h76z" />
    <glyph glyph-name="fraction" unicode="&#x2044;" horiz-adv-x="272" 
d="M-448 0q-20 0 -20 14q0 3 4 9.5t16 20.5l1020 1252q12 15 25 21.5t33 6.5h90q20 0 20 -14q0 -5 -7 -14l-19 -24l-1014 -1244q-12 -15 -25 -21.5t-33 -6.5h-90z" />
    <glyph glyph-name="parenleft" unicode="(" horiz-adv-x="630" 
d="M342 -214q-19 0 -30 20q-26 46 -56 116t-55.5 155.5t-43 183.5t-17.5 199q0 124 20.5 238.5t54 216t77 189.5t90 160.5t91.5 127.5t83 92q14 14 28 14q6 0 12.5 -4t17.5 -12l28 -20q17 -12 20 -24t-8 -30q-61 -103 -111 -235t-86 -280t-55.5 -305.5t-19.5 -311.5
q0 -98 8.5 -205t31.5 -211q5 -20 -1 -30.5t-23 -19.5l-36 -18q-12 -6 -20 -6z" />
    <glyph glyph-name="parenright" unicode=")" horiz-adv-x="630" 
d="M96 -214q-6 0 -12.5 4t-17.5 12l-28 20q-17 12 -20 24t8 30q61 103 111 235t86 280t55.5 305.5t19.5 311.5q0 98 -8.5 205t-31.5 211q-5 20 1 30.5t23 19.5l36 18q12 6 20 6q19 0 30 -20q25 -46 55.5 -116t56 -155.5t43 -183.5t17.5 -199q0 -124 -20.5 -238.5t-54 -216
t-77 -189.5t-90 -160.5t-92 -128t-82.5 -91.5q-14 -14 -28 -14z" />
    <glyph glyph-name="braceleft" unicode="{" horiz-adv-x="630" 
d="M494 -164q-3 -17 -11 -24.5t-25 -7.5h-36q-64 0 -118 14.5t-93 46t-61 80.5t-22 119q0 26 2.5 56t7.5 62l18 116q5 33 7.5 61t2.5 57q0 31 -4 58t-14.5 48t-28 35.5t-43.5 20.5q-32 6 -32 28q0 5 1 11.5t3 18.5l4 28q3 21 11 29t29 13q40 7 68.5 31t49 61.5t34 86
t22.5 105.5l20 130q17 109 53.5 185t86.5 115q28 22 61 34.5t67.5 18t68.5 6.5t65 1h36q28 0 28 -26v-5.5t-2 -14.5l-8 -48q-3 -26 -30 -26h-30q-63 0 -92 -32q-6 -7 -13.5 -18.5t-15 -29.5t-14.5 -44t-13 -62l-26 -154q-9 -54 -18.5 -96.5t-21.5 -76.5t-26.5 -61t-33.5 -50
q-30 -38 -64.5 -63t-73.5 -43q65 -36 96.5 -93t31.5 -145q0 -33 -4 -74.5t-12 -89.5l-20 -126q-6 -45 -6 -74q0 -48 21.5 -76t74.5 -28h30q22 0 22 -20v-5.5t-2 -14.5z" />
    <glyph glyph-name="braceright" unicode="}" horiz-adv-x="630" 
d="M184 1448q3 17 11 24.5t25 7.5h36q64 0 118 -14.5t93 -46t61 -80.5t22 -119q0 -26 -2.5 -56t-7.5 -62l-18 -116q-5 -33 -7.5 -61t-2.5 -57q0 -31 4 -58t14.5 -48t28 -35.5t43.5 -20.5q32 -6 32 -28q0 -5 -1 -11.5t-3 -18.5l-4 -28q-3 -21 -11 -29t-29 -13
q-40 -8 -68.5 -31.5t-49 -61t-34 -86t-22.5 -105.5l-20 -130q-17 -109 -53.5 -185t-86.5 -115q-29 -23 -61.5 -35t-67 -17.5t-68.5 -6.5t-65 -1h-36q-28 0 -28 26v5.5t2 14.5l8 48q3 26 30 26h30q63 0 92 32q12 13 28 47.5t28 106.5l26 154q9 54 18.5 96.5t21.5 76.5
t26.5 61t33.5 50q30 38 64.5 63t73.5 43q-65 36 -96.5 93t-31.5 145q0 33 4 74.5t12 89.5l20 126q6 45 6 74q0 48 -21.5 76t-74.5 28h-30q-22 0 -22 20v5.5t2 14.5z" />
    <glyph glyph-name="bracketleft" unicode="[" horiz-adv-x="630" 
d="M442 -76q32 0 32 -24v-5.5t-2 -14.5l-6 -40q-3 -20 -12.5 -28t-29.5 -8h-354q-30 0 -30 26q0 3 0.5 10t3.5 24l250 1580q3 20 12.5 28t29.5 8h354q32 0 32 -24v-5.5t-2 -14.5l-6 -40q-3 -20 -12.5 -28t-29.5 -8h-152l-230 -1436h152v0z" />
    <glyph glyph-name="bracketright" unicode="]" horiz-adv-x="630" 
d="M610 1480q30 0 30 -26q0 -3 -0.5 -10t-3.5 -24l-250 -1580q-3 -20 -12.5 -28t-29.5 -8h-354q-32 0 -32 24v5.5t2 14.5l6 40q3 20 12.5 28t29.5 8h152l230 1436h-152q-30 0 -30 26v10l6 48q3 20 12.5 28t29.5 8h354z" />
    <glyph glyph-name="percent" unicode="%" horiz-adv-x="1800" 
d="M862 1032q0 -81 -24.5 -160.5t-74.5 -142.5t-126.5 -102t-180.5 -39q-75 0 -130.5 21.5t-91.5 60t-54 91.5t-18 115q0 85 24.5 168.5t74.5 150t126.5 108t180.5 41.5q75 0 130.5 -23.5t91.5 -65.5t54 -99t18 -124zM340 0q-15 0 -19 8t5 20l1034 1268q12 15 25 21.5
t33 6.5h90q15 0 19 -8t-5 -20l-1034 -1268q-12 -15 -25 -21.5t-33 -6.5h-90zM376 830q0 -69 18.5 -105.5t65.5 -36.5q35 0 62.5 21t48.5 55t35.5 78t24 90t13.5 90t4 80q0 69 -18.5 105.5t-65.5 36.5q-35 0 -62.5 -21t-48.5 -55.5t-35.5 -78t-24 -89.5t-13.5 -90.5t-4 -79.5
zM1688 424q0 -81 -24.5 -160.5t-74.5 -142.5t-126.5 -102t-180.5 -39q-75 0 -130.5 21.5t-91.5 60t-54 91.5t-18 115q0 85 24.5 168.5t74.5 150t126.5 108t180.5 41.5q75 0 130.5 -23.5t91.5 -65.5t54 -99t18 -124zM1202 222q0 -69 18.5 -105.5t65.5 -36.5q35 0 62.5 21
t48.5 55t35.5 78t24 90t13.5 90t4 80q0 69 -18.5 105.5t-65.5 36.5q-35 0 -62.5 -21t-48.5 -55.5t-35.5 -78t-24 -89.5t-13.5 -90.5t-4 -79.5z" />
    <glyph glyph-name="perthousand" unicode="&#x2030;" horiz-adv-x="2580" 
d="M862 1032q0 -81 -24.5 -160.5t-74.5 -142.5t-126.5 -102t-180.5 -39q-75 0 -130.5 21.5t-91.5 60t-54 91.5t-18 115q0 85 24.5 168.5t74.5 150t126.5 108t180.5 41.5q75 0 130.5 -23.5t91.5 -65.5t54 -99t18 -124zM340 0q-15 0 -19 8t5 20l1034 1268q12 15 25 21.5
t33 6.5h90q15 0 19 -8t-5 -20l-1034 -1268q-12 -15 -25 -21.5t-33 -6.5h-90zM376 830q0 -69 18.5 -105.5t65.5 -36.5q35 0 62.5 21t48.5 55t35.5 78t24 90t13.5 90t4 80q0 69 -18.5 105.5t-65.5 36.5q-35 0 -62.5 -21t-48.5 -55.5t-35.5 -78t-24 -89.5t-13.5 -90.5t-4 -79.5
zM1688 424q0 -81 -24.5 -160.5t-74.5 -142.5t-126.5 -102t-180.5 -39q-75 0 -130.5 21.5t-91.5 60t-54 91.5t-18 115q0 85 24.5 168.5t74.5 150t126.5 108t180.5 41.5q75 0 130.5 -23.5t91.5 -65.5t54 -99t18 -124zM2468 424q0 -81 -24.5 -160.5t-74.5 -142.5t-126.5 -102
t-180.5 -39q-75 0 -130.5 21.5t-91.5 60t-54 91.5t-18 115q0 85 24.5 168.5t74.5 150t126.5 108t180.5 41.5q75 0 130.5 -23.5t91.5 -65.5t54 -99t18 -124zM1202 222q0 -69 18.5 -105.5t65.5 -36.5q35 0 62.5 21t48.5 55t35.5 78t24 90t13.5 90t4 80q0 69 -18.5 105.5
t-65.5 36.5q-35 0 -62.5 -21t-48.5 -55.5t-35.5 -78t-24 -89.5t-13.5 -90.5t-4 -79.5zM1982 222q0 -69 18.5 -105.5t65.5 -36.5q35 0 62.5 21t48.5 55t35.5 78t24 90t13.5 90t4 80q0 69 -18.5 105.5t-65.5 36.5q-35 0 -62.5 -21t-48.5 -55.5t-35.5 -78t-24 -89.5
t-13.5 -90.5t-4 -79.5z" />
    <glyph glyph-name="zero" unicode="0" 
d="M1136 824q0 -93 -15 -191.5t-47 -192.5t-81.5 -177.5t-118.5 -146.5t-158 -99.5t-200 -36.5q-115 0 -195 39.5t-130 109t-72.5 164.5t-22.5 207q0 93 15 191.5t47 192.5t81.5 177.5t118.5 146.5t158 99.5t200 36.5q115 0 195 -39.5t130 -109t72.5 -164.5t22.5 -207z
M372 408q0 -141 34 -216.5t118 -75.5q62 0 111.5 40t87 106.5t63.5 151t42.5 173.5t24 174.5t7.5 154.5q0 141 -34 216.5t-118 75.5q-63 0 -112 -40t-86.5 -106.5t-63.5 -151t-42.5 -173.5t-24 -175t-7.5 -154z" />
    <glyph glyph-name="zero.zero" 
d="M1136 824q0 -93 -15 -191.5t-47 -192.5t-81.5 -177.5t-118.5 -146.5t-158 -99.5t-200 -36.5q-115 0 -195 39.5t-130 109t-72.5 164.5t-22.5 207q0 93 15 191.5t47 192.5t81.5 177.5t118.5 146.5t158 99.5t200 36.5q115 0 195 -39.5t130 -109t72.5 -164.5t22.5 -207z
M372 408q0 -141 34 -216.5t118 -75.5q62 0 111.5 40t87 106.5t63.5 151t42.5 173.5t24 174.5t7.5 154.5q0 141 -34 216.5t-118 75.5q-63 0 -112 -40t-86.5 -106.5t-63.5 -151t-42.5 -173.5t-24 -175t-7.5 -154zM718 676q0 -51 -31.5 -85.5t-82.5 -34.5q-44 0 -67 26.5
t-23 67.5q0 25 8 46.5t23 37.5t36 25t47 9q44 0 67 -26.5t23 -65.5z" />
    <glyph glyph-name="one" unicode="1" 
d="M418 134l154 960l-224 -28q-20 -2 -29 5t-11 27l-4 46q-2 20 5 30t25 16l538 150q34 9 28 -26l-188 -1180h204q30 0 30 -26q0 -4 -6 -46l-4 -26q-3 -20 -12.5 -28t-29.5 -8h-714q-30 0 -30 26q0 4 6 46l4 26q3 20 12.5 28t29.5 8h216z" />
    <glyph glyph-name="two" unicode="2" 
d="M954 36q-3 -20 -12.5 -28t-29.5 -8h-834q-36 0 -30 36l6 38q15 94 56 168.5t98 136.5t124 114l134 101l111 81t108.5 97t82 117t32.5 143q0 83 -44.5 130.5t-129.5 47.5q-115 0 -200 -58q32 -18 49 -44.5t17 -59.5q0 -31 -12 -58t-33 -47.5t-50 -32.5t-63 -12
q-57 0 -89.5 35t-32.5 91q0 58 21 104.5t56.5 82t83 60.5t100.5 41.5t108 24t107 7.5q87 0 163 -19.5t132 -57t88.5 -94t32.5 -129.5q0 -95 -42.5 -172.5t-110.5 -142.5t-152.5 -120.5l-168.5 -106.5l-107.5 -67.5t-99.5 -68.5t-87.5 -73t-71.5 -81h556l48 124q11 34 48 34
h64q36 0 30 -36z" />
    <glyph glyph-name="three" unicode="3" 
d="M1050 426q0 -100 -47.5 -182t-129.5 -140.5t-192.5 -91t-236.5 -32.5q-98 0 -170.5 19t-121 52.5t-72.5 79.5t-24 101q0 34 10 67.5t30 60.5t51 43.5t73 16.5q25 0 47 -7.5t38.5 -21t26.5 -33t10 -44.5q0 -51 -26 -87.5t-76 -56.5q39 -30 89.5 -42t110.5 -12
q75 0 134 23.5t100 66t62.5 101t21.5 129.5q0 104 -47.5 167t-150.5 71q-21 2 -33 5t-21 17l-16 22q-9 12 -8.5 21t14.5 23l350 364h-422l-54 -138q-11 -34 -48 -34h-64q-36 0 -30 36l56 298q3 20 12.5 28t29.5 8h770q36 0 30 -36l-6 -48q-3 -20 -10.5 -34t-19.5 -28
l-388 -402q78 -14 142 -43.5t110 -74t71 -103t25 -129.5z" />
    <glyph glyph-name="four" unicode="4" 
d="M1058 370q-3 -20 -12.5 -28t-29.5 -8h-144l-32 -200h82q36 0 30 -36l-10 -62q-3 -20 -12.5 -28t-29.5 -8h-458q-36 0 -30 36l10 62q3 20 12.5 28t29.5 8h82l32 200h-534q-32 0 -32 26v6.5t2 13.5l6 34q3 18 8.5 32t19.5 32l612 818q12 15 25 21.5t33 6.5h134q17 0 20 -8
t-6 -20l-620 -816h354l52 324q3 20 12.5 30t27.5 16l242 72q34 9 28 -26l-66 -416h142q30 0 30 -28v-6.5t-2 -13.5z" />
    <glyph glyph-name="five" unicode="5" 
d="M1032 444q0 -100 -45.5 -185t-124 -147t-185 -97t-227.5 -35q-99 0 -172.5 19t-122.5 52.5t-73 79.5t-24 101q0 34 10 67.5t30 60.5t51 43.5t73 16.5q25 0 47 -7.5t38.5 -21t26.5 -33t10 -44.5q0 -51 -26 -87.5t-76 -56.5q39 -30 89.5 -42t110.5 -12q73 0 129 26
t93.5 71.5t56.5 106.5t19 132q0 51 -11 94t-35 74.5t-62.5 49.5t-93.5 18q-60 0 -113.5 -14t-100.5 -40q-18 -9 -30.5 -8.5t-29.5 14.5l-28 24q-15 12 -19.5 25t1.5 31l162 570q6 18 16 26t30 8h530l30 64q8 18 19 25t31 7h44q37 0 28 -36l-46 -238q-5 -20 -14.5 -28
t-29.5 -8h-532l-90 -324q42 17 94 27.5t112 10.5q99 0 178.5 -30t135.5 -82t86 -121t30 -147z" />
    <glyph glyph-name="six" unicode="6" 
d="M710 846q79 0 144.5 -24t112 -68.5t72 -108.5t25.5 -143q0 -107 -41 -202t-114 -166t-172.5 -112.5t-216.5 -41.5q-88 0 -165 26.5t-134 85t-90 151.5t-33 225q0 89 15.5 179t46 175.5t76 162.5t104.5 141q94 103 224 160.5t288 57.5q83 0 145.5 -13.5t104.5 -34.5
q33 -15 14 -46l-46 -76q-11 -17 -22.5 -20.5t-29.5 4.5q-41 18 -85 26t-91 8q-89 0 -156.5 -30t-117 -85.5t-82.5 -136t-52 -180.5q59 41 131.5 63.5t144.5 22.5zM394 384q0 -74 8.5 -124.5t26.5 -81.5t45.5 -44.5t65.5 -13.5q66 0 110.5 37.5t71.5 94t38.5 122.5t11.5 122
q0 46 -10 83t-30 63.5t-51 41t-73 14.5q-54 0 -102 -15t-90 -41q-6 -42 -10 -76.5t-7 -64.5t-4 -58.5t-1 -58.5z" />
    <glyph glyph-name="seven" unicode="7" 
d="M1164 1236q-3 -18 -9.5 -33.5t-18.5 -30.5q-90 -114 -180.5 -251t-175.5 -285t-161 -301.5t-137 -300.5q-8 -18 -19 -26t-31 -8h-148q-35 0 -22 32q70 160 151 309.5t168 285.5t177.5 257.5t179.5 225.5h-540l-48 -122q-11 -34 -48 -34h-64q-30 0 -30 26q0 5 1 13t3 19
l52 276q3 20 12.5 28t29.5 8h836q14 0 22 -7.5t8 -18.5v-8t-2 -14z" />
    <glyph glyph-name="eight" unicode="8" 
d="M1038 382q0 -65 -22.5 -120.5t-61 -100t-91 -78.5t-112 -57t-124 -34.5t-127.5 -11.5q-100 0 -178.5 21.5t-133 61t-83.5 95.5t-29 124q0 81 35 144t92 111t128.5 84t144.5 63q-47 22 -92.5 48t-81 60.5t-57 78t-21.5 99.5q0 61 21 113t57.5 93.5t85.5 73t104.5 52.5
t114.5 31.5t117 10.5q77 0 149 -19t127.5 -55.5t88.5 -89.5t33 -120q0 -74 -32 -132t-84 -103t-117.5 -79.5t-132.5 -61.5q49 -21 99 -48.5t90.5 -63.5t66.5 -83t26 -107zM704 1218q-51 0 -87.5 -27t-60.5 -67t-35 -85.5t-11 -82.5q0 -43 7.5 -76t22 -58.5t35.5 -45
t47 -34.5q46 23 85 55t66.5 72t43 87t15.5 100q0 84 -37 123t-91 39zM368 298q0 -53 13 -90t34 -59.5t48.5 -32.5t56.5 -10q58 0 101.5 29.5t72.5 74t43.5 95.5t14.5 95q0 47 -9.5 82t-27.5 62t-44.5 47t-60.5 37q-55 -25 -99.5 -55t-76 -69t-49 -89.5t-17.5 -116.5z" />
    <glyph glyph-name="nine" unicode="9" 
d="M448 842q0 -92 41.5 -140t126.5 -48q54 0 102 15t90 41q5 35 8.5 64.5t5.5 56t3 52t1 53.5q0 74 -9 125.5t-27 83.5t-45.5 46.5t-64.5 14.5q-66 0 -110.5 -36.5t-71.5 -91.5t-38.5 -118.5t-11.5 -117.5zM880 200q-94 -103 -221 -161.5t-285 -58.5q-83 0 -145.5 14.5
t-106.5 35.5q-33 15 -14 46l50 74q11 17 22.5 20.5t29.5 -4.5q39 -18 83 -26t91 -8q91 0 159.5 32t117 92t80 145.5t49.5 192.5q-57 -41 -130.5 -64.5t-145.5 -23.5q-80 0 -145.5 21.5t-113 63.5t-73.5 103.5t-26 141.5q0 106 41 198.5t114 161.5t172.5 108.5t216.5 39.5
q88 0 165 -26.5t134 -84.5t90 -150.5t33 -224.5q0 -89 -15.5 -179t-46 -175.5t-76 -162.5t-104.5 -141z" />
    <glyph glyph-name="onesuperior" unicode="&#xb9;" horiz-adv-x="780" 
d="M202 556q-32 0 -32 24v7t2 13l2 12q3 20 12.5 28t29.5 8h110l84 516l-112 -10q-20 -2 -27.5 5t-10.5 27l-2 12q-3 20 5.5 29t26.5 15l324 86q34 9 28 -26l-104 -654h104q15 0 22.5 -5t7.5 -19v-8t-2 -14l-2 -10q-5 -20 -13.5 -28t-28.5 -8h-424v0z" />
    <glyph glyph-name="twosuperior" unicode="&#xb2;" horiz-adv-x="780" 
d="M676 592q-3 -20 -12.5 -28t-29.5 -8h-494q-25 0 -22 26l4 28q10 58 35 103t59.5 81t74.5 65.5l79 56.5l55 37t58 49.5t46 65t19 82.5q0 45 -22.5 71.5t-63.5 26.5q-59 0 -106 -28q20 -12 31 -28.5t11 -37.5q0 -20 -8.5 -38t-23.5 -31.5t-34 -21t-40 -7.5q-38 0 -59 22.5
t-21 57.5q0 41 14.5 72t38.5 53t55 36.5t63.5 23t64.5 12t58 3.5q50 0 97 -11t83 -33.5t58 -55.5t22 -76q0 -56 -26 -100.5t-66.5 -81t-91.5 -67l-100 -57.5l-62.5 -37l-59 -36.5t-53 -38t-43.5 -40.5h320l22 54q11 34 48 34h22q36 0 30 -36z" />
    <glyph glyph-name="threesuperior" unicode="&#xb3;" horiz-adv-x="780" 
d="M728 808q0 -60 -30 -109t-81 -83.5t-119.5 -53t-145.5 -18.5q-126 0 -185 43t-59 111q0 23 7 45.5t21.5 40.5t35.5 29t50 11q33 0 56.5 -19t23.5 -51q0 -68 -68 -96q24 -15 52 -19.5t60 -4.5q83 0 128.5 48.5t45.5 133.5q0 59 -24.5 92.5t-69.5 39.5q-12 2 -17.5 4
t-10.5 8l-12 14q-8 8 -6.5 13.5t10.5 14.5l186 188h-238l-26 -66q-8 -18 -19 -26t-31 -8h-20q-36 0 -30 36l28 162q3 20 12.5 28t29.5 8h456q18 0 25 -8t5 -26l-2 -4q-2 -18 -9 -32t-19 -26l-208 -218q94 -21 146 -71.5t52 -130.5z" />
    <glyph glyph-name="uni2082" unicode="&#x2082;" horiz-adv-x="780" 
d="M594 36q-3 -20 -12.5 -28t-29.5 -8h-494q-25 0 -22 26l4 28q10 58 35 103t59.5 81t74.5 65.5l79 56.5l55 37t58 49.5t46 65t19 82.5q0 45 -22.5 71.5t-63.5 26.5q-59 0 -106 -28q20 -12 31 -28.5t11 -37.5q0 -20 -8.5 -38t-23.5 -31.5t-34 -21t-40 -7.5q-38 0 -59 22.5
t-21 57.5q0 41 14.5 72t38.5 53t55 36.5t63.5 23t64.5 12t58 3.5q50 0 97 -11t83 -33.5t58 -55.5t22 -76q0 -56 -26 -100t-67 -80.5t-91.5 -67l-99.5 -58.5q-65 -36 -122.5 -73t-95.5 -79h320l22 54q11 34 48 34h22q36 0 30 -36z" />
    <glyph glyph-name="uni2084" unicode="&#x2084;" horiz-adv-x="780" 
d="M280 0q-36 0 -30 36l4 20q5 20 13.5 28t28.5 8h22l16 98h-288q-14 0 -23 6t-9 18v5.5t2 12.5l2 12q1 8 3 14t5 11t7 11t11 14l334 446q12 15 25 21.5t33 6.5h68q17 0 20 -8t-6 -20l-348 -452h180l22 136q3 20 12.5 30t27.5 16l154 40q34 9 28 -26l-32 -196h62
q17 0 23.5 -7.5t6.5 -18.5v-7t-2 -15l-2 -14q-3 -20 -12.5 -28t-29.5 -8h-62l-16 -98h26q36 0 30 -36l-4 -20q-5 -20 -13.5 -28t-28.5 -8h-260v0z" />
    <glyph glyph-name="onehalf" unicode="&#xbd;" horiz-adv-x="1834" 
d="M202 556q-32 0 -32 24v7t2 13l2 12q3 20 12.5 28t29.5 8h110l84 516l-112 -10q-20 -2 -27.5 5t-10.5 27l-2 12q-3 20 5.5 29t26.5 15l324 86q34 9 28 -26l-104 -654h104q15 0 22.5 -5t7.5 -19v-8t-2 -14l-2 -10q-5 -20 -13.5 -28t-28.5 -8h-424v0zM364 0q-20 0 -20 14
q0 3 4 9.5t16 20.5l1020 1252q12 15 25 21.5t33 6.5h90q20 0 20 -14q0 -5 -7 -14l-19 -24l-1014 -1244q-12 -15 -25 -21.5t-33 -6.5h-90zM1648 36q-3 -20 -12.5 -28t-29.5 -8h-494q-25 0 -22 26l4 28q10 58 35 103t59.5 81t74.5 65.5l79 56.5l55 37t58 49.5t46 65t19 82.5
q0 45 -22.5 71.5t-63.5 26.5q-59 0 -106 -28q20 -12 31 -28.5t11 -37.5q0 -20 -8.5 -38t-23.5 -31.5t-34 -21t-40 -7.5q-38 0 -59 22.5t-21 57.5q0 41 14.5 72t38.5 53t55 36.5t63.5 23t64.5 12t58 3.5q50 0 97 -11t83 -33.5t58 -55.5t22 -76q0 -56 -26 -100t-67 -80.5
t-91.5 -67l-99.5 -58.5q-65 -36 -122.5 -73t-95.5 -79h320l22 54q11 34 48 34h22q36 0 30 -36z" />
    <glyph glyph-name="onequarter" unicode="&#xbc;" horiz-adv-x="1750" 
d="M1250 0q-36 0 -30 36l4 20q5 20 13.5 28t28.5 8h22l16 98h-288q-14 0 -23 6t-9 18v5.5t2 12.5l2 12q1 8 3 14t5 11t7 11t11 14l334 446q12 15 25 21.5t33 6.5h68q17 0 20 -8t-6 -20l-348 -452h180l22 136q3 20 12.5 30t27.5 16l154 40q34 9 28 -26l-32 -196h62
q17 0 23.5 -7.5t6.5 -18.5v-7t-2 -15l-2 -14q-3 -20 -12.5 -28t-29.5 -8h-62l-16 -98h26q36 0 30 -36l-4 -20q-5 -20 -13.5 -28t-28.5 -8h-260v0zM202 556q-32 0 -32 24v7t2 13l2 12q3 20 12.5 28t29.5 8h110l84 516l-112 -10q-20 -2 -27.5 5t-10.5 27l-2 12q-3 20 5.5 29
t26.5 15l324 86q34 9 28 -26l-104 -654h104q15 0 22.5 -5t7.5 -19v-8t-2 -14l-2 -10q-5 -20 -13.5 -28t-28.5 -8h-424v0zM364 0q-20 0 -20 14q0 3 4 9.5t16 20.5l1020 1252q12 15 25 21.5t33 6.5h90q20 0 20 -14q0 -5 -7 -14l-19 -24l-1014 -1244q-12 -15 -25 -21.5
t-33 -6.5h-90z" />
    <glyph glyph-name="threequarters" unicode="&#xbe;" horiz-adv-x="1720" 
d="M728 808q0 -60 -30 -109t-81 -83.5t-119.5 -53t-145.5 -18.5q-126 0 -185 43t-59 111q0 23 7 45.5t21.5 40.5t35.5 29t50 11q33 0 56.5 -19t23.5 -51q0 -68 -68 -96q24 -15 52 -19.5t60 -4.5q83 0 128.5 48.5t45.5 133.5q0 59 -24.5 92.5t-69.5 39.5q-12 2 -17.5 4
t-10.5 8l-12 14q-8 8 -6.5 13.5t10.5 14.5l186 188h-238l-26 -66q-8 -18 -19 -26t-31 -8h-20q-36 0 -30 36l28 162q3 20 12.5 28t29.5 8h456q18 0 25 -8t5 -26l-2 -4q-2 -18 -9 -32t-19 -26l-208 -218q94 -21 146 -71.5t52 -130.5zM1220 0q-36 0 -30 36l4 20q5 20 13.5 28
t28.5 8h22l16 98h-288q-14 0 -23 6t-9 18v5.5t2 12.5l2 12q1 8 3 14t5 11t7 11t11 14l334 446q12 15 25 21.5t33 6.5h68q17 0 20 -8t-6 -20l-348 -452h180l22 136q3 20 12.5 30t27.5 16l154 40q34 9 28 -26l-32 -196h62q17 0 23.5 -7.5t6.5 -18.5v-7t-2 -15l-2 -14
q-3 -20 -12.5 -28t-29.5 -8h-62l-16 -98h26q36 0 30 -36l-4 -20q-5 -20 -13.5 -28t-28.5 -8h-260v0zM334 0q-20 0 -20 14q0 3 4 9.5t16 20.5l1020 1252q12 15 25 21.5t33 6.5h90q20 0 20 -14q0 -5 -7 -14l-19 -24l-1014 -1244q-12 -15 -25 -21.5t-33 -6.5h-90z" />
    <glyph glyph-name="A" unicode="A" horiz-adv-x="1336" 
d="M794 500q-21 142 -46 274.5t-54 259.5l-136 -259.5t-134 -274.5h370zM716 0q-36 0 -30 36l10 62q3 20 12.5 28t29.5 8h104q-6 57 -13 114t-15 114h-454l-51 -114l-49 -114h106q36 0 30 -36l-10 -62q-3 -20 -12.5 -28t-29.5 -8h-374q-32 0 -32 24q0 5 1 14t3 20l6 40
q3 20 12.5 28t29.5 8h80q67 154 142.5 308l154 302.5l157.5 287.5l154 262q9 17 21.5 23.5t32.5 6.5h130q20 0 30 -8t16 -26q36 -123 71 -261.5t66.5 -286.5t57.5 -301.5t45 -306.5h82q32 0 32 -24q0 -5 -1 -14t-3 -20l-6 -40q-3 -20 -12.5 -28t-29.5 -8h-494z" />
    <glyph glyph-name="B" unicode="B" horiz-adv-x="1244" 
d="M1168 386q0 -96 -47.5 -168.5t-126 -120.5t-180 -72.5t-208.5 -24.5h-566q-36 0 -30 36l10 62q3 20 12.5 28t29.5 8h82l168 1056h-82q-36 0 -30 36l10 62q3 20 12.5 28t29.5 8h512q122 0 207 -24t137.5 -66t76 -98t23.5 -120q0 -74 -25.5 -129.5t-70 -96.5t-104 -68.5
t-126.5 -43.5q146 -26 216 -99.5t70 -192.5zM904 1002q0 40 -9 73.5t-28.5 57.5t-52 37.5t-78.5 13.5h-130l-72 -452h126q57 0 102 20t76.5 56t48.5 85.5t17 108.5zM866 404q0 90 -45.5 143t-138.5 53h-170l-74 -460h170q61 0 109 19t81 53.5t50.5 83.5t17.5 108z" />
    <glyph glyph-name="C" unicode="C" horiz-adv-x="1208" 
d="M992 254q17 12 28 11.5t22 -15.5l26 -36q15 -21 10 -36.5t-26 -33.5q-42 -35 -89 -65t-101.5 -52t-119 -34.5t-140.5 -12.5q-136 0 -233.5 38.5t-160.5 107.5t-92.5 163t-29.5 205q0 105 22 209t65 198.5t107 175.5t149 140.5t189.5 93t229.5 33.5q97 0 169 -19t120 -53
t71.5 -80t23.5 -100q0 -42 -11 -80t-33 -66.5t-54.5 -45t-75.5 -16.5q-26 0 -49.5 8t-41.5 23t-28.5 36.5t-10.5 48.5q0 54 27.5 91.5t80.5 58.5q-36 24 -84 36t-98 12q-89 0 -157.5 -32.5t-120 -87.5t-87 -127.5t-57.5 -152t-32 -162t-10 -156.5q0 -166 69.5 -254
t218.5 -88q46 0 87 7.5t78.5 22.5t74 36.5t74.5 49.5z" />
    <glyph glyph-name="D" unicode="D" horiz-adv-x="1372" 
d="M1342 754q0 -99 -24.5 -193t-70.5 -177.5t-112.5 -154t-150.5 -121.5t-184.5 -79.5t-213.5 -28.5h-546q-36 0 -30 36l10 62q3 20 12.5 28t29.5 8h82l168 1056h-82q-36 0 -30 36l10 62q3 20 12.5 28t29.5 8h540q130 0 232 -43.5t172.5 -120t108 -181t37.5 -225.5z
M1038 778q0 86 -16.5 160t-52.5 128t-93.5 85t-139.5 31h-130l-168 -1040h136q87 0 155.5 27.5t120 74.5t87.5 110t58.5 133.5t32.5 145t10 145.5z" />
    <glyph glyph-name="E" unicode="E" horiz-adv-x="1144" 
d="M144 134l168 1056h-82q-36 0 -30 36l10 62q3 20 12.5 28t29.5 8h870q21 0 27.5 -10t6.5 -22q0 -8 -2.5 -29.5t-5.5 -44.5l-28 -200q-3 -20 -11.5 -28t-28.5 -8h-64q-20 0 -28 8t-10 28l-10 164h-362l-72 -440h244l18 108q3 20 12.5 28t29.5 8h68q36 0 30 -36l-56 -352
q-3 -20 -12.5 -28t-29.5 -8h-68q-36 0 -30 36l18 108h-244l-76 -464h376l76 194q11 34 48 34h64q36 0 30 -36l-56 -298q-3 -20 -12.5 -28t-29.5 -8h-892q-32 0 -32 24q0 5 1 14t3 20l6 40q3 20 12.5 28t29.5 8h82z" />
    <glyph glyph-name="F" unicode="F" horiz-adv-x="1068" 
d="M1098 1018q-3 -20 -11.5 -28t-28.5 -8h-68q-20 0 -28 8t-10 28l-8 164h-338l-76 -472h242l18 108q3 20 12.5 28t29.5 8h68q36 0 30 -36l-56 -352q-3 -20 -12.5 -28t-29.5 -8h-68q-36 0 -30 36l18 108h-244l-70 -440h102q36 0 30 -36l-10 -62q-3 -20 -12.5 -28t-29.5 -8
h-476q-32 0 -32 24q0 5 1 14t3 20l6 40q3 20 12.5 28t29.5 8h82l168 1056h-82q-36 0 -30 36l10 62q3 20 12.5 28t29.5 8h844q21 0 27.5 -10t6.5 -22q0 -8 -2.5 -29.5t-5.5 -44.5z" />
    <glyph glyph-name="G" unicode="G" horiz-adv-x="1362" 
d="M1148 124q-3 -20 -11.5 -30.5t-26.5 -19.5q-53 -26 -106.5 -44t-108.5 -29t-112.5 -16t-118.5 -5q-150 0 -259 42t-180 115t-105 170.5t-34 208.5q0 105 25.5 207.5t73.5 194.5t118 170t158 135t193.5 89t225.5 32q104 0 182 -19t129.5 -53t77 -80t25.5 -100
q0 -42 -11 -80t-33 -66.5t-54.5 -45t-75.5 -16.5q-26 0 -49.5 8t-41.5 23t-28.5 36.5t-10.5 48.5q0 104 100 146q-44 27 -101 39.5t-125 12.5q-85 0 -153.5 -32.5t-121.5 -87.5t-90.5 -127t-61.5 -151.5t-35.5 -161t-11.5 -154.5q0 -80 16.5 -146.5t52 -114t91 -73.5
t132.5 -26q45 0 88.5 5t87.5 19l58 368h-102q-36 0 -30 36l10 62q3 20 12.5 28t29.5 8h478q36 0 30 -36l-10 -62q-3 -20 -12.5 -28t-29.5 -8h-82z" />
    <glyph glyph-name="H" unicode="H" horiz-adv-x="1506" 
d="M1520 1324q32 0 32 -24q0 -5 -1 -14t-3 -20l-6 -40q-3 -20 -12.5 -28t-29.5 -8h-82l-168 -1056h82q36 0 30 -36l-10 -62q-3 -20 -12.5 -28t-29.5 -8h-458q-36 0 -30 36l10 62q3 20 12.5 28t29.5 8h82l74 464h-518l-74 -464h82q36 0 30 -36l-10 -62q-3 -20 -12.5 -28
t-29.5 -8h-456q-32 0 -32 24q0 5 1 14t3 20l6 40q3 20 12.5 28t29.5 8h82l168 1056h-82q-36 0 -30 36l10 62q3 20 12.5 28t29.5 8h458q36 0 30 -36l-10 -62q-3 -20 -12.5 -28t-29.5 -8h-82l-72 -448h518l72 448h-82q-36 0 -30 36l10 62q3 20 12.5 28t29.5 8h456v0z" />
    <glyph glyph-name="I" unicode="I" horiz-adv-x="694" 
d="M606 1190l-168 -1056h82q36 0 30 -36l-10 -62q-3 -20 -12.5 -28t-29.5 -8h-456q-32 0 -32 24q0 5 1 14t3 20l6 40q3 20 12.5 28t29.5 8h82l168 1056h-82q-36 0 -30 36l10 62q3 20 12.5 28t29.5 8h456q32 0 32 -24q0 -5 -1 -14t-3 -20l-6 -40q-3 -20 -12.5 -28t-29.5 -8
h-82z" />
    <glyph glyph-name="J" unicode="J" horiz-adv-x="1080" 
d="M1020 1190l-116 -724q-38 -236 -167 -361t-361 -125q-92 0 -162.5 19.5t-119 54t-73.5 82.5t-25 104q0 39 12 71.5t33 56.5t51 37t66 13q54 0 89 -30.5t35 -83.5q0 -45 -25.5 -81t-76.5 -59q32 -26 68.5 -35t81.5 -9q64 0 110 20t79 61t54 103t35 146l118 740h-102
q-36 0 -30 36l10 62q3 20 12.5 28t29.5 8h476q32 0 32 -24q0 -5 -1 -14t-3 -20l-6 -40q-3 -20 -12.5 -28t-29.5 -8h-82z" />
    <glyph glyph-name="K" unicode="K" horiz-adv-x="1348" 
d="M1224 134q36 0 30 -36l-10 -62q-3 -20 -12.5 -28t-29.5 -8h-288q-20 0 -30 8t-16 26q-42 154 -111 300.5t-155 265.5q-51 -39 -102 -72l-62 -394h82q36 0 30 -36l-10 -62q-3 -20 -12.5 -28t-29.5 -8h-456q-32 0 -32 24q0 5 1 14t3 20l6 40q3 20 12.5 28t29.5 8h82
l168 1056h-82q-36 0 -30 36l10 62q3 20 12.5 28t29.5 8h458q36 0 30 -36l-10 -62q-3 -20 -12.5 -28t-29.5 -8h-82l-76 -484q137 104 268.5 225.5t253.5 258.5h-86q-36 0 -30 36l10 62q3 20 12.5 28t29.5 8h380q32 0 32 -24q0 -5 -1 -14t-3 -20l-6 -40q-3 -20 -12.5 -28
t-29.5 -8h-96q-101 -116 -207.5 -220t-218.5 -198q100 -133 183.5 -297t140.5 -341h74z" />
    <glyph glyph-name="L" unicode="L" horiz-adv-x="1018" 
d="M42 0q-32 0 -32 24q0 5 1 14t3 20l6 40q3 20 12.5 28t29.5 8h82l168 1056h-82q-36 0 -30 36l10 62q3 20 12.5 28t29.5 8h478q36 0 30 -36l-10 -62q-3 -20 -12.5 -28t-29.5 -8h-102l-168 -1048h288l86 222q8 18 19 26t31 8h66q28 0 28 -28q0 -5 -1.5 -16.5t-4.5 -25.5
l-54 -292q-3 -20 -12.5 -28t-29.5 -8h-812v0z" />
    <glyph glyph-name="M" unicode="M" horiz-adv-x="1704" 
d="M1718 1324q32 0 32 -24q0 -5 -1 -14t-3 -20l-6 -40q-3 -20 -12.5 -28t-29.5 -8h-82l-168 -1056h82q36 0 30 -36l-10 -62q-3 -20 -12.5 -28t-29.5 -8h-458q-36 0 -30 36l10 62q3 20 12.5 28t29.5 8h82l144 902l-440 -708q-11 -17 -23.5 -23.5t-32.5 -6.5h-96q-20 0 -30 8
t-16 26l-214 690l-140 -888h82q36 0 30 -36l-10 -62q-3 -20 -12.5 -28t-29.5 -8h-324q-32 0 -32 24q0 5 1 14t3 20l6 40q3 20 12.5 28t29.5 8h82l168 1056h-82q-36 0 -30 36l10 62q3 20 12.5 28t29.5 8h356q20 0 30 -8t16 -26l214 -690l432 694q11 17 23.5 23.5t32.5 6.5
h362v0z" />
    <glyph glyph-name="N" unicode="N" horiz-adv-x="1478" 
d="M1404 1190l-184 -1154q-3 -20 -12.5 -28t-29.5 -8h-188q-20 0 -31 7t-19 25l-484 1060l-152 -958h82q36 0 30 -36l-10 -62q-3 -20 -12.5 -28t-29.5 -8h-322q-32 0 -32 24q0 5 1 14t3 20l6 40q3 20 12.5 28t29.5 8h82l168 1056h-82q-36 0 -30 36l10 62q3 20 12.5 28
t29.5 8h364q20 0 31 -7t19 -25l440 -968l136 866h-82q-36 0 -30 36l10 62q3 20 12.5 28t29.5 8h324q32 0 32 -24q0 -5 -1 -14t-3 -20l-6 -40q-3 -20 -12.5 -28t-29.5 -8h-82z" />
    <glyph glyph-name="O" unicode="O" horiz-adv-x="1376" 
d="M1346 800q0 -104 -20.5 -205t-62 -192.5t-103 -168.5t-142.5 -133.5t-182.5 -88.5t-221.5 -32q-142 0 -242 43.5t-163.5 117.5t-93 173t-29.5 210q0 104 20.5 205t62 192.5t103 168.5t142.5 133.5t182 88.5t222 32q142 0 242 -43.5t163.5 -117.5t93 -173t29.5 -210z
M390 508q0 -93 12.5 -164.5t41 -119.5t74 -73t112.5 -25q77 0 137.5 30t106 81.5t78 120t52.5 145.5t29 157t9 156q0 93 -12.5 164.5t-41 119.5t-74 73t-112.5 25q-77 0 -137.5 -30t-106 -81.5t-78 -120t-52.5 -145.5t-29 -157.5t-9 -155.5z" />
    <glyph glyph-name="P" unicode="P" horiz-adv-x="1174" 
d="M906 948q0 52 -13 95.5t-40.5 75t-70.5 48.5t-104 17h-72l-92 -570h82q73 0 131 25t97.5 69.5t60.5 105.5t21 134zM40 0q-36 0 -30 36l10 62q3 20 12.5 28t29.5 8h82l168 1056h-82q-36 0 -30 36l10 62q3 20 12.5 28t29.5 8h476q126 0 217 -27t150 -76t87 -117.5
t28 -151.5q0 -102 -39 -189.5t-116 -151.5t-191 -100.5t-264 -36.5h-108l-54 -340h102q36 0 30 -36l-10 -62q-3 -20 -12.5 -28t-29.5 -8h-478z" />
    <glyph glyph-name="Q" unicode="Q" horiz-adv-x="1376" 
d="M1070 -338q-23 -5 -55.5 -8.5t-74.5 -3.5q-87 0 -163 21t-135 63t-98 106t-52 150q-108 18 -185 67t-126 120t-72 160t-23 187q0 104 20.5 205t62 192.5t103 168.5t142.5 133.5t182 88.5t222 32q142 0 242 -43.5t163.5 -117.5t93 -173t29.5 -210q0 -140 -37.5 -274
t-112 -244t-185.5 -187t-257 -103q13 -114 72.5 -164t169.5 -50q18 0 34 1t30 3q20 3 29.5 -0.5t12.5 -23.5l6 -46q6 -41 -38 -50zM390 508q0 -93 12.5 -164.5t41 -119.5t74 -73t112.5 -25q77 0 137.5 30t106 81.5t78 120t52.5 145.5t29 157t9 156q0 93 -12.5 164.5
t-41 119.5t-74 73t-112.5 25q-77 0 -137.5 -30t-106 -81.5t-78 -120t-52.5 -145.5t-29 -157.5t-9 -155.5z" />
    <glyph glyph-name="R" unicode="R" horiz-adv-x="1320" 
d="M944 978q0 46 -11 84t-35 65t-62.5 42t-93.5 15h-136l-82 -508h138q73 0 126.5 23t88 63.5t51 95.5t16.5 120zM144 134l168 1056h-82q-36 0 -30 36l10 62q3 20 12.5 28t29.5 8h544q115 0 200.5 -25t141 -70t83 -108t27.5 -139q0 -151 -87.5 -246.5t-256.5 -139.5
q87 -95 138.5 -214t81.5 -248h76q36 0 30 -36l-10 -62q-3 -20 -12.5 -28t-29.5 -8h-296q-20 0 -29.5 8t-12.5 28q-14 66 -32 134t-43 133t-57 125t-72 110h-134l-64 -404h82q36 0 30 -36l-10 -62q-3 -20 -12.5 -28t-29.5 -8h-458q-36 0 -30 36l10 62q3 20 12.5 28t29.5 8h82
z" />
    <glyph glyph-name="S" unicode="S" horiz-adv-x="1124" 
d="M1040 402q0 -104 -43.5 -182.5t-119.5 -132t-179.5 -80.5t-223.5 -27q-113 0 -197.5 20.5t-140 55.5t-83 82.5t-27.5 101.5q0 42 10.5 78t31.5 62t53 41t75 15q25 0 48.5 -8t41.5 -23t29 -36t11 -47q0 -50 -25.5 -85.5t-66.5 -56.5q45 -30 109.5 -44t136.5 -14
q56 0 111.5 11.5t99 35.5t70.5 60.5t27 86.5q0 45 -19.5 77.5t-56 58.5t-89 49t-119.5 49q-66 26 -128 55t-110 71t-77 101.5t-29 148.5q0 106 42 185t114.5 130.5t169 77t206.5 25.5q108 0 188.5 -20.5t133.5 -55.5t79.5 -82.5t26.5 -101.5q0 -42 -10.5 -78t-31.5 -62
t-53 -41t-75 -15q-26 0 -49.5 8t-41.5 23t-28.5 36t-10.5 47q0 50 26 85.5t68 58.5q-44 29 -102.5 42.5t-123.5 13.5q-56 0 -106 -11.5t-87.5 -35.5t-60 -59.5t-22.5 -83.5q0 -45 19.5 -77.5t56 -58.5t89 -49t119.5 -49q66 -26 128 -55t110 -71t77 -102t29 -148z" />
    <glyph glyph-name="T" unicode="T" horiz-adv-x="1214" 
d="M1254 990q-3 -20 -11.5 -28t-28.5 -8h-68q-20 0 -28 8t-10 28l-8 192h-234l-168 -1048h82q36 0 30 -36l-10 -62q-3 -20 -12.5 -28t-29.5 -8h-458q-36 0 -30 36l10 62q3 20 12.5 28t29.5 8h82l168 1048h-234l-76 -194q-8 -18 -19 -26t-31 -8h-66q-12 0 -20 5t-8 19
q0 8 2.5 20t5.5 30l52 260q5 20 13.5 28t28.5 8h1038q21 0 27.5 -10t6.5 -22q0 -8 -2.5 -29.5t-5.5 -44.5z" />
    <glyph glyph-name="U" unicode="U" horiz-adv-x="1320" 
d="M1150 498q-19 -120 -60 -216t-106 -163t-155.5 -103t-208.5 -36q-237 0 -344.5 92.5t-107.5 281.5q0 33 3.5 72.5t14.5 105.5l104 658h-82q-36 0 -30 36l10 62q3 20 12.5 28t29.5 8h458q36 0 30 -36l-10 -62q-3 -20 -12.5 -28t-29.5 -8h-82l-110 -700q-8 -45 -10 -72
t-2 -48q-2 -116 51.5 -175t160.5 -59q129 0 206.5 85.5t101.5 238.5l116 730h-82q-36 0 -30 36l10 62q3 20 12.5 28t29.5 8h326q36 0 30 -36l-10 -62q-3 -20 -12.5 -28t-29.5 -8h-82z" />
    <glyph glyph-name="V" unicode="V" horiz-adv-x="1310" 
d="M168 1190q-32 0 -32 24q0 5 1 14t3 20l6 40q3 20 12.5 28t29.5 8h490q36 0 30 -36l-10 -62q-3 -20 -12.5 -28t-29.5 -8h-110q20 -244 53.5 -476.5t80.5 -431.5q110 207 212.5 436t199.5 472h-104q-36 0 -30 36l10 62q3 20 12.5 28t29.5 8h374q32 0 32 -24q0 -5 -1 -14
t-3 -20l-6 -40q-3 -20 -12.5 -28t-29.5 -8h-80q-65 -155 -136.5 -309l-146.5 -302.5l-151.5 -287l-151.5 -261.5q-9 -17 -21.5 -23.5t-32.5 -6.5h-130q-20 0 -30 8t-16 26q-36 123 -68.5 261.5t-61 286t-51.5 301t-39 307.5h-80v0z" />
    <glyph glyph-name="W" unicode="W" horiz-adv-x="2020" 
d="M2094 1324q32 0 32 -24q0 -5 -1 -14t-3 -20l-6 -40q-3 -20 -12.5 -28t-29.5 -8h-82l-130 -307l-136 -303.5l-139 -287.5t-139 -260q-9 -18 -21.5 -25t-32.5 -7h-128q-20 0 -30 8t-16 26q-47 175 -83.5 380.5t-66.5 421.5l-208 -424t-208 -382q-9 -17 -21.5 -23.5
t-32.5 -6.5h-130q-20 0 -30 8t-16 26q-30 120 -56.5 258.5t-49 287t-41 303.5t-33.5 307h-76q-32 0 -32 24q0 5 1 14t3 20l6 40q3 20 12.5 28t29.5 8h490q36 0 30 -36l-10 -62q-3 -20 -12.5 -28t-29.5 -8h-100q18 -234 37.5 -462t54.5 -432q106 205 208 433.5t194 460.5
h-100q-36 0 -30 36l10 62q3 20 12.5 28t29.5 8h454q36 0 30 -36l-10 -62q-3 -20 -12.5 -28t-29.5 -8h-94q20 -235 50 -462.5t72 -431.5q97 205 188.5 432l183.5 462h-106q-36 0 -30 36l10 62q3 20 12.5 28t29.5 8h374v0z" />
    <glyph glyph-name="X" unicode="X" horiz-adv-x="1374" 
d="M98 134l480 522l-276 534h-104q-36 0 -30 36l10 62q3 20 12.5 28t29.5 8h562q36 0 30 -36l-10 -62q-3 -20 -12.5 -28t-29.5 -8h-138l168 -346l306 346h-118q-36 0 -30 36l10 62q3 20 12.5 28t29.5 8h424q32 0 32 -24q0 -5 -1 -14t-3 -20l-6 -40q-3 -20 -12.5 -28
t-29.5 -8h-96l-452 -480l298 -576h104q36 0 30 -36l-10 -62q-3 -20 -12.5 -28t-29.5 -8h-562q-36 0 -30 36l10 62q3 20 12.5 28t29.5 8h140l-188 384l-338 -384h118q36 0 30 -36l-10 -62q-3 -20 -12.5 -28t-29.5 -8h-422q-32 0 -32 24q0 5 1 14t3 20l6 40q3 20 12.5 28
t29.5 8h94z" />
    <glyph glyph-name="Y" unicode="Y" horiz-adv-x="1226" 
d="M1212 1190q-50 -98 -105.5 -196l-113.5 -191l-117.5 -179.5t-117.5 -161.5l-52 -328h102q36 0 30 -36l-10 -62q-3 -20 -12.5 -28t-29.5 -8h-498q-36 0 -30 36l10 62q3 20 12.5 28t29.5 8h102l52 326q-35 76 -67.5 162.5t-61 180t-53 191.5t-44.5 196h-82q-32 0 -32 24
q0 5 1 14t3 20l6 40q3 20 12.5 28t29.5 8h470q36 0 30 -36l-10 -62q-3 -20 -12.5 -28t-29.5 -8h-92q13 -80 28.5 -159t34.5 -154.5t41 -145.5t48 -131q45 61 89.5 131t87 145.5t82.5 154.5l77 159h-80q-36 0 -30 36l10 62q3 20 12.5 28t29.5 8h352q32 0 32 -24q0 -5 -1 -14
t-3 -20l-6 -40q-3 -20 -12.5 -28t-29.5 -8h-82z" />
    <glyph glyph-name="Z" unicode="Z" horiz-adv-x="1164" 
d="M1176 1228q-6 -36 -28 -64l-804 -1022h502l86 222q11 34 48 34h64q36 0 30 -36l-60 -326q-3 -20 -12.5 -28t-29.5 -8h-950q-17 0 -23.5 8t-6.5 20q0 2 0.5 10.5t3.5 23.5l6 34q6 36 28 64l802 1022h-436l-76 -194q-8 -18 -19 -26t-31 -8h-64q-36 0 -30 36l60 298
q3 20 12.5 28t29.5 8h880q15 0 21.5 -6.5t6.5 -17.5q0 -2 -0.5 -8t-3.5 -26z" />
    <glyph glyph-name="a" unicode="a" horiz-adv-x="1170" 
d="M344 366q0 -62 9.5 -104t27.5 -68.5t44 -38t59 -11.5q29 0 61.5 12t62.5 45t55.5 90t40.5 147l56 342q-30 30 -67 47t-85 17q-60 0 -109 -38t-83.5 -103t-53 -152t-18.5 -185zM956 252q-6 -45 -6 -58q0 -20 9.5 -32t32.5 -12q14 0 26 3.5t30 14.5q15 9 26 9t22 -17
l20 -30q14 -20 9 -37.5t-31 -38.5q-11 -10 -31 -22.5t-47 -24t-62 -19.5t-76 -8q-56 0 -92 13.5t-58 37t-31.5 55t-10.5 66.5q-26 -38 -56.5 -70t-67.5 -54.5t-81.5 -35t-98.5 -12.5q-81 0 -142 28.5t-102 81t-61.5 126.5t-20.5 166q0 72 14 146t42.5 143t71 129t99.5 104.5
t128 70t157 25.5q74 0 134.5 -23t111.5 -79l54 56q14 14 28 20t34 6h104q36 0 30 -36z" />
    <glyph glyph-name="b" unicode="b" horiz-adv-x="1148" 
d="M1092 600q0 -112 -33.5 -222.5t-99 -199t-163 -143.5t-224.5 -55q-75 0 -138 23.5t-116 80.5l-56 -58q-14 -14 -27 -20t-33 -6h-102q-36 0 -30 36l204 1316l-88 6q-36 3 -30 38l6 40q3 20 12.5 28t29.5 10l338 22q36 3 30 -34l-92 -600q50 65 117 101.5t161 36.5
q88 0 151.5 -33t104 -88.5t59.5 -127.5t19 -151zM372 200q30 -30 69.5 -47t90.5 -17t91 23t70 61.5t51.5 88.5t34.5 103t19 105.5t6 96.5q0 47 -7.5 87.5t-24.5 70.5t-45.5 47t-70.5 17q-29 0 -63 -12t-66 -45t-58.5 -90t-40.5 -147z" />
    <glyph glyph-name="c" unicode="c" horiz-adv-x="942" 
d="M792 88q-63 -51 -144 -79.5t-182 -28.5q-102 0 -177.5 29.5t-125.5 84t-74.5 132t-24.5 174.5q0 121 37 230t107.5 191.5t172 130.5t229.5 48q76 0 136 -17.5t100.5 -50.5t62 -79t21.5 -103q0 -41 -11.5 -73t-32 -54.5t-48.5 -34.5t-60 -12q-29 0 -53 10t-40.5 27
t-25.5 39t-9 46q0 21 7.5 42.5t21.5 41t35 34t48 22.5q-18 17 -44 26.5t-56 9.5q-54 0 -98.5 -21t-78.5 -56.5t-59 -83t-41 -101t-23.5 -110.5t-7.5 -110q0 -135 46.5 -193.5t135.5 -58.5q54 0 105.5 14.5t102.5 49.5q15 11 26 9t22 -19l22 -34q14 -21 9 -36t-31 -36z" />
    <glyph glyph-name="d" unicode="d" horiz-adv-x="1186" 
d="M972 252q-6 -45 -6 -58q0 -20 9.5 -32t32.5 -12q14 0 26 3.5t30 14.5q15 9 26 9t22 -17l20 -30q14 -20 9 -37.5t-31 -38.5q-11 -10 -31 -22.5t-47 -24t-62 -19.5t-76 -8q-56 0 -92 13.5t-58 37t-31.5 55t-10.5 66.5q-53 -77 -128.5 -124.5t-183.5 -47.5q-89 0 -152 33
t-103.5 88.5t-59.5 127.5t-19 151q0 74 15 149t44.5 144t73 128.5t101.5 104t129.5 69.5t156.5 25q149 0 216 -82l72 434l-88 6q-36 3 -30 38l4 40q3 20 12.5 28t29.5 10l340 22q36 3 30 -34zM344 366q0 -47 7.5 -87.5t24.5 -70.5t45.5 -47t70.5 -17q29 0 63 12t65.5 45
t58 90t41.5 147l56 342q-30 30 -69.5 47t-90.5 17t-91 -23t-70 -61.5t-51.5 -88.5t-34.5 -103t-19 -105.5t-6 -96.5z" />
    <glyph glyph-name="e" unicode="e" horiz-adv-x="1002" 
d="M710 736q0 62 -28.5 102t-87.5 40q-39 0 -70.5 -16.5t-57.5 -44.5t-46 -65t-34 -77t-23 -81.5t-13 -77.5h98q82 0 133.5 20.5t80 52.5t38.5 71t10 76zM854 116q-63 -59 -162 -97.5t-224 -38.5q-110 0 -186.5 33t-125 91.5t-70.5 138t-22 173.5q0 119 37.5 224.5
t109.5 184.5t176.5 125t238.5 46q88 0 153 -18.5t108.5 -51.5t65 -80t21.5 -104q0 -70 -24 -122.5t-65.5 -90t-96 -62.5t-115 -39.5t-124 -20t-121.5 -5.5h-80q2 -63 13.5 -112t35.5 -83t63 -51.5t96 -17.5q51 0 112 19.5t114 52.5q17 11 28.5 11t23.5 -17l24 -34
q22 -31 -4 -54z" />
    <glyph glyph-name="f" unicode="f" horiz-adv-x="704" 
d="M394 16q-18 -116 -59.5 -198.5t-101 -135t-135 -77.5t-160.5 -25q-131 0 -202.5 48.5t-71.5 137.5q0 33 10.5 60t29.5 46t44.5 29.5t55.5 10.5q27 0 49 -8.5t37 -23t23.5 -33.5t8.5 -41q0 -36 -17 -63t-49 -47q21 -12 54 -12q31 0 61 13.5t55.5 44.5t45.5 82t32 126
l142 904h-126q-36 0 -30 36l8 54q3 20 12.5 28t29.5 8h124l14 84q18 115 60.5 198t103 135.5t136.5 77.5t162 25q65 0 117 -13.5t88 -39t55.5 -61.5t19.5 -80q0 -33 -10.5 -60t-29.5 -46t-44.5 -29.5t-55.5 -10.5q-27 0 -49 8.5t-37 23t-23.5 33.5t-8.5 41q0 36 18 64t50 48
q-26 16 -62 16q-32 0 -62.5 -13t-57.5 -44t-48 -81.5t-32 -125.5l-24 -150h176q36 0 30 -36l-8 -54q-3 -20 -12.5 -28t-29.5 -8h-176l-130 -838v0z" />
    <glyph glyph-name="g" unicode="g" horiz-adv-x="1154" 
d="M356 396q0 -47 7.5 -86t24.5 -67t45.5 -43.5t70.5 -15.5q29 0 63 12t65.5 45t58 90t41.5 147l50 302q-30 30 -69.5 47t-90.5 17t-90.5 -21.5t-69 -57.5t-50 -82.5t-33 -96.5t-18 -99.5t-5.5 -90.5zM948 64q-20 -128 -72.5 -219.5t-129 -150t-172 -86.5t-200.5 -28
q-83 0 -152.5 16t-120 47t-79 77t-28.5 106q0 77 42 117.5t110 40.5q62 0 98 -30.5t36 -81.5q0 -39 -17.5 -70.5t-58.5 -51.5q62 -50 144 -50q124 0 205 75t105 231l24 152q-48 -63 -117 -100.5t-163 -37.5q-89 0 -152 31.5t-103.5 85t-59.5 124t-19 149.5q0 108 32.5 213.5
t97 189.5t160.5 135.5t224 51.5q75 0 138 -23.5t116 -80.5l56 58q14 15 27 20.5t33 5.5h102q36 0 30 -36z" />
    <glyph glyph-name="h" unicode="h" horiz-adv-x="1172" 
d="M974 252q-6 -45 -6 -58q0 -20 9.5 -32t32.5 -12q14 0 26 3.5t30 14.5q15 9 26 9t22 -17l20 -30q14 -20 9 -37.5t-31 -38.5q-11 -10 -31 -22.5t-47 -24t-62 -19.5t-76 -8q-63 0 -103.5 16t-63.5 42t-32 60t-9 70q0 32 5 66.5t13 79.5l50 320q7 42 7 79t-10.5 65t-34.5 44
t-64 16q-29 0 -62.5 -12t-65 -45.5t-58 -93t-40.5 -153.5l-76 -498q-3 -20 -12.5 -28t-29.5 -8h-210q-36 0 -30 36l206 1316l-88 6q-36 3 -30 38l6 40q3 20 12.5 28t29.5 10l338 22q36 3 30 -34l-96 -614q20 30 47.5 57.5t63.5 48.5t81 33.5t100 12.5q87 0 143.5 -30
t87.5 -81t38 -118.5t-5 -142.5l-60 -376v0z" />
    <glyph glyph-name="i" unicode="i" horiz-adv-x="632" 
d="M604 1312q0 -40 -14.5 -73t-40 -57t-59.5 -37t-72 -13q-66 0 -106 38t-40 98q0 40 14.5 73t40 57t58.5 37t71 13q68 0 108 -38t40 -98zM556 54q-11 -10 -31 -22.5t-47 -24t-62 -19.5t-76 -8q-63 0 -103.5 16t-63.5 42t-32 60t-9 70q0 35 4 68t12 78l80 528l-86 8
q-36 3 -30 38l6 40q3 20 12.5 28t29.5 10l338 22q36 3 30 -34l-110 -702q-6 -45 -6 -58q0 -20 9.5 -32t32.5 -12q14 0 26 3.5t30 14.5q15 9 26 9t22 -17l20 -30q14 -20 9 -37.5t-31 -38.5z" />
    <glyph glyph-name="j" unicode="j" horiz-adv-x="604" 
d="M612 1312q0 -40 -14.5 -73t-40 -57t-59.5 -37t-72 -13q-66 0 -106 38t-40 98q0 40 14.5 73t40 57t58.5 37t71 13q68 0 108 -38t40 -98zM390 16q-18 -116 -59.5 -198.5t-101 -135t-135 -77.5t-160.5 -25q-131 0 -202.5 48.5t-71.5 137.5q0 33 10.5 60t29.5 46t44.5 29.5
t55.5 10.5q27 0 49 -8.5t37 -23t23.5 -33.5t8.5 -41q0 -36 -17 -63t-49 -47q21 -12 54 -12q31 0 61.5 13.5t56 45t45.5 82.5t31 125l138 894l-88 6q-36 3 -30 38l6 40q3 20 12.5 28t29.5 10l338 22q36 3 30 -34z" />
    <glyph glyph-name="k" unicode="k" horiz-adv-x="1144" 
d="M1056 52q-12 -12 -30 -25t-43.5 -23.5t-58 -17t-72.5 -6.5q-44 0 -78.5 9t-63 29t-52 52t-44.5 78l-102 220q-8 17 -10.5 28.5t0.5 31.5l4 28q3 17 11.5 23.5t28.5 8.5q67 4 113.5 25.5t76 53.5t43 72t13.5 83q0 21 -3.5 42t-14 38t-29 27.5t-47.5 10.5
q-47 0 -91.5 -27.5t-82 -75.5t-65 -113.5t-39.5 -141.5l-70 -446q-3 -20 -12.5 -28t-29.5 -8h-210q-14 0 -22 6t-8 18q0 6 3 22.5l9 51.5l196 1254l-88 6q-36 3 -30 38l6 40q3 20 12.5 28t29.5 10l338 22q36 3 30 -34l-102 -656q23 34 54 69t72.5 62.5t94.5 45t121 17.5
t117.5 -18t81.5 -50t47.5 -76t15.5 -96q0 -71 -25.5 -126.5t-68 -97.5t-99 -69.5t-117.5 -40.5l126 -208q17 -27 33 -47.5t45 -20.5q12 0 23 4t23 12q9 6 18 6.5t18 -14.5l20 -32q5 -8 7.5 -14.5t2.5 -15.5q0 -18 -26 -44z" />
    <glyph glyph-name="l" unicode="l" horiz-adv-x="596" 
d="M274 1352l-88 6q-36 3 -30 38l6 40q3 20 12.5 28t29.5 10l336 22q14 2 23 -3t9 -23q0 -11 -4 -35.5l-10 -62.5l-176 -1120q-6 -45 -6 -58q0 -20 9.5 -32t32.5 -12q14 0 26 3.5t30 14.5q15 9 26 9t22 -17l20 -30q14 -20 9 -37.5t-31 -38.5q-11 -10 -31 -22.5t-47 -24
t-62 -19.5t-76 -8q-63 0 -103.5 16t-63.5 42t-32 60t-9 70q0 32 4 66.5t12 79.5z" />
    <glyph glyph-name="m" unicode="m" horiz-adv-x="1786" 
d="M1368 634q7 41 8 78t-8.5 65t-32.5 44.5t-63 16.5q-29 0 -61.5 -12t-64 -45.5t-57.5 -93t-41 -153.5l-76 -498q-3 -20 -12.5 -28t-29.5 -8h-208q-36 0 -30 36l94 598q7 41 8 78t-8.5 65t-32.5 44.5t-63 16.5q-29 0 -62 -12t-64.5 -45.5t-57.5 -93t-40 -153.5l-76 -498
q-3 -20 -12.5 -28t-29.5 -8h-208q-36 0 -30 36l124 810l-88 6q-36 3 -30 38l6 40q3 20 12.5 28t29.5 10l320 20q36 3 30 -34l-22 -136q23 37 53.5 70.5t69.5 58t86 39t103 14.5q55 0 98 -13t74.5 -37t52 -57t31.5 -73q26 39 62 72t78 57t89 37.5t97 13.5q86 0 142 -30
t86 -81t37 -118.5t-5 -142.5l-58 -376q-6 -45 -6 -58q0 -20 9.5 -32t32.5 -12q14 0 26 3.5t30 14.5q15 9 26 9t22 -17l20 -30q14 -20 9 -37.5t-31 -38.5q-11 -10 -31 -22.5t-47 -24t-62 -19.5t-76 -8q-63 0 -103.5 16t-63.5 42t-32 60t-9 70q0 32 4 66.5t12 79.5z" />
    <glyph glyph-name="n" unicode="n" horiz-adv-x="1210" 
d="M1012 252q-6 -45 -6 -58q0 -20 9.5 -32t32.5 -12q14 0 26 3.5t30 14.5q15 9 26 9t22 -17l20 -30q14 -20 9 -37.5t-31 -38.5q-11 -10 -31 -22.5t-47 -24t-62 -19.5t-76 -8q-63 0 -103.5 16t-63.5 42t-32 60t-9 70q0 32 5 66.5t13 79.5l50 320q7 41 7 78t-10.5 65
t-34.5 44.5t-64 16.5q-29 0 -62.5 -12t-65 -45.5t-58 -93t-40.5 -153.5l-76 -498q-3 -20 -12.5 -28t-29.5 -8h-208q-36 0 -30 36l124 810l-88 6q-36 3 -30 38l6 40q3 20 12.5 28t29.5 10l320 20q36 3 30 -34l-22 -136q23 37 54 70.5t70 58t87 39t105 14.5q87 0 143.5 -30
t87.5 -81t38 -118.5t-5 -142.5l-60 -376v0z" />
    <glyph glyph-name="o" unicode="o" horiz-adv-x="1124" 
d="M1064 584q0 -72 -14.5 -144.5t-45 -140t-77 -125.5t-111 -101.5t-147.5 -68t-185 -24.5q-110 0 -190 33t-132 89.5t-77 132t-25 161.5q0 72 14.5 144.5t45 140t77 125.5t111 101.5t147 68t185.5 24.5q110 0 190 -33t132 -89.5t77 -132.5t25 -161zM350 386q0 -146 39 -214
t117 -68q61 0 110.5 37t84.5 102.5t54 155t19 193.5q0 145 -39.5 214.5t-116.5 69.5q-61 0 -110.5 -37.5t-84.5 -103.5t-54 -155.5t-19 -193.5z" />
    <glyph glyph-name="p" unicode="p" horiz-adv-x="1190" 
d="M414 200q30 -30 69.5 -47t90.5 -17t91 23t70 61.5t51.5 88.5t34.5 103t19 105.5t6 96.5q0 47 -7.5 87.5t-24.5 70.5t-45.5 47t-70.5 17q-29 0 -63 -12t-66 -45t-58.5 -90t-40.5 -147zM454 -364q-3 -20 -12.5 -28t-29.5 -8h-452q-36 0 -30 36l8 56q3 20 12.5 28t29.5 8h80
l176 1118l-88 6q-36 3 -30 38l6 40q3 20 12.5 28t29.5 10l320 20q36 3 30 -34l-20 -126q26 38 56.5 70t67.5 54.5t81.5 35t98.5 12.5q88 0 151.5 -33t104 -88.5t59.5 -127.5t19 -151q0 -112 -33.5 -222.5t-99 -199t-163 -143.5t-224.5 -55q-148 0 -218 82l-54 -334h90
q36 0 30 -36z" />
    <glyph glyph-name="q" unicode="q" horiz-adv-x="1148" 
d="M344 366q0 -47 7.5 -87.5t24.5 -70.5t45.5 -47t70.5 -17q29 0 63 12t65.5 45t58 90t41.5 147l56 342q-30 30 -69.5 47t-90.5 17t-91 -23t-70 -61.5t-51.5 -88.5t-34.5 -103t-19 -105.5t-6 -96.5zM1000 -364q-3 -20 -12.5 -28t-29.5 -8h-454q-36 0 -30 36l8 56
q3 20 12.5 28t29.5 8h84l60 390q-50 -65 -117 -101.5t-161 -36.5q-89 0 -152 33t-103.5 88.5t-59.5 127.5t-19 151q0 74 15 149t44.5 144t73 128.5t101.5 104t129.5 69.5t156.5 25q75 0 138 -23.5t116 -80.5l56 58q14 14 27 20t33 6h102q36 0 30 -36l-190 -1216h90
q36 0 30 -36z" />
    <glyph glyph-name="r" unicode="r" horiz-adv-x="908" 
d="M234 846l-88 6q-36 3 -30 38l6 40q3 20 12.5 28t29.5 10l320 20q36 3 30 -34l-28 -174q18 40 47 79.5t67.5 71t84.5 50.5t99 19q80 0 120 -35.5t40 -98.5q0 -32 -10 -61.5t-29 -52t-46.5 -35.5t-62.5 -13q-23 0 -44.5 7t-38 20.5t-26 34.5t-9.5 50q0 19 6 34
q-35 -9 -69 -32t-63.5 -62.5t-52.5 -97t-35 -136.5l-74 -486q-3 -20 -12.5 -28t-29.5 -8h-210q-14 0 -22 5t-8 19q0 5 3 21.5t9 54.5z" />
    <glyph glyph-name="s" unicode="s" horiz-adv-x="966" 
d="M880 308q0 -81 -36 -142.5t-99 -102.5t-147 -62t-180 -21q-99 0 -170 20t-116 53.5t-66.5 76.5t-21.5 90q0 65 36 100.5t96 35.5q51 0 82.5 -27.5t31.5 -74.5q0 -33 -14 -60.5t-46 -47.5q36 -23 82.5 -35.5t105.5 -12.5q39 0 78 7t70.5 23t51.5 41t20 61q0 31 -18 53
t-49 38.5t-72.5 31l-88.5 31.5q-53 19 -102.5 40.5t-87.5 54.5t-61 80t-23 117q0 83 36 144t96.5 101t140 59.5t167.5 19.5q94 0 160.5 -20t108.5 -53t61.5 -76t19.5 -89q0 -68 -35.5 -103t-94.5 -35q-53 0 -84.5 27.5t-31.5 74.5q0 33 16 62.5t52 49.5q-36 21 -79 32.5
t-91 11.5q-38 0 -73.5 -7.5t-64 -24t-45.5 -41.5t-17 -59q0 -29 15 -49t43.5 -36.5t71 -32l98.5 -34.5q51 -18 100 -39.5t88 -54t62.5 -79.5t23.5 -117z" />
    <glyph glyph-name="t" unicode="t" horiz-adv-x="760" 
d="M602 166q15 9 26 8t20 -16l18 -28q12 -20 8 -37.5t-30 -38.5q-11 -10 -32.5 -22.5t-52 -24t-70 -19.5t-87.5 -8q-65 0 -115 12.5t-84.5 40.5t-52.5 73t-18 110q0 18 1.5 43t6.5 49l86 546h-126q-36 0 -30 36l8 54q3 20 12.5 28t29.5 8h124l24 152q3 20 12.5 30t27.5 16
l226 68q34 9 28 -26l-38 -240h248q36 0 30 -36l-8 -54q-3 -20 -12.5 -28t-29.5 -8h-248l-82 -526q-5 -26 -7.5 -52.5t-2.5 -43.5q0 -47 22 -71.5t70 -24.5q32 0 56 9.5t42 20.5z" />
    <glyph glyph-name="u" unicode="u" horiz-adv-x="1190" 
d="M976 252q-6 -45 -6 -58q0 -20 9.5 -32t32.5 -12q14 0 26 3.5t30 14.5q15 9 26 9t22 -17l20 -30q14 -20 9 -37.5t-31 -38.5q-11 -10 -31 -22.5t-47 -24t-62 -19.5t-76 -8q-56 0 -92 13.5t-58 37t-31.5 55t-10.5 66.5q-53 -78 -129 -125t-183 -47q-71 0 -121.5 21.5t-82 59
t-46 88t-14.5 109.5q0 23 3 55t11 79l70 452l-88 6q-36 3 -30 38l6 40q3 20 12.5 28t29.5 10l338 22q36 3 30 -34l-96 -608q-3 -21 -5.5 -41.5t-2.5 -38.5q0 -54 22.5 -89t79.5 -35q27 0 59 12t62 45.5t56 92.5t41 154l76 498q3 20 12.5 28t29.5 8h208q36 0 30 -36
l-108 -692v0z" />
    <glyph glyph-name="v" unicode="v" horiz-adv-x="1024" 
d="M1004 824q0 -49 -18.5 -109.5t-51 -128t-76.5 -139.5t-95 -144t-106 -142l-109 -133q-14 -15 -27 -21.5t-33 -6.5h-158q-37 0 -48 34q-27 79 -47.5 175.5t-34.5 202t-22.5 215.5t-11.5 217l-78 6q-12 2 -21 7t-9 19q0 8 1 17t3 21l2 14q3 20 12.5 28t29.5 10l302 22
q37 3 34 -34q-2 -98 1 -197.5t12 -198t24 -193.5t35 -183q49 62 97 129.5t89 136.5t71 136.5t43 129.5q-60 0 -99 36t-39 96q0 30 10 58t31 49t53 34t76 13q69 0 113.5 -41.5t44.5 -134.5z" />
    <glyph glyph-name="w" unicode="w" horiz-adv-x="1576" 
d="M88 850q-12 2 -21 7t-9 19q0 8 1 17t3 21l2 14q3 20 12.5 28t29.5 10l302 22q37 3 34 -34q-2 -96 1 -195t12 -196.5t23 -191.5t34 -181q69 91 131.5 190.5t104.5 197.5q-6 68 -9 134.5t-5 131.5l-78 6q-36 3 -30 38l6 40q3 20 12.5 28t29.5 10l302 22q37 3 34 -34
q-5 -192 12 -386t56 -368q47 61 92.5 126.5t83.5 131.5t65.5 131t38.5 125q-60 0 -97 34t-37 94q0 30 9.5 58.5t29.5 50.5t51.5 35.5t75.5 13.5q69 0 113.5 -41.5t44.5 -134.5q0 -49 -18 -109.5t-49.5 -128t-74.5 -139.5t-93 -144t-104.5 -142l-108.5 -133
q-14 -15 -27 -21.5t-33 -6.5h-140q-20 0 -31 8t-19 26q-26 72 -45 161t-33 187q-50 -94 -111 -184t-129 -170q-22 -28 -60 -28h-142q-37 0 -48 34q-27 79 -47.5 175.5t-34.5 202t-22.5 215.5t-11.5 217l-78 6v0z" />
    <glyph glyph-name="x" unicode="x" horiz-adv-x="1170" 
d="M326 774q-15 32 -28 44t-40 12q-12 0 -25 -4.5t-31 -13.5q-15 -8 -26 -7.5t-22 17.5l-20 32q-12 20 -6.5 36.5t32.5 37.5q11 9 29 21.5t43.5 23.5t59 19t76.5 8q45 0 80 -9t62.5 -29t49.5 -53t42 -81l56 -144l39.5 71.5t42.5 69.5t44.5 61t45.5 48q38 35 81 50.5t97 15.5
q69 0 109.5 -37.5t40.5 -94.5q0 -62 -36.5 -101t-95.5 -39q-42 0 -73.5 25t-48.5 73q-50 -41 -97 -112.5t-95 -157.5l166 -350q15 -32 28 -44t40 -12q12 0 25 4.5t31 13.5q15 8 26 7.5t22 -17.5l20 -32q12 -20 6.5 -36.5t-32.5 -37.5q-11 -9 -29 -21.5t-43.5 -23.5t-59 -19
t-76.5 -8q-45 0 -80 9t-62.5 29t-50 53t-41.5 81l-74 182l-42 -79t-46 -79.5t-50 -72t-52 -55.5q-38 -35 -80 -50.5t-98 -15.5q-69 0 -108.5 37.5t-39.5 94.5q0 62 35.5 101t94.5 39q44 0 75.5 -24.5t48.5 -71.5q27 22 52.5 53.5t51 70.5t51.5 83l53 91l-148 318v0z" />
    <glyph glyph-name="y" unicode="y" horiz-adv-x="1152" 
d="M124 850q-12 2 -21 7t-9 19q0 8 1 17t3 21l2 14q3 20 12.5 28t29.5 10l338 22q36 3 30 -34l-90 -568q-3 -20 -5.5 -39t-2.5 -37q0 -56 22.5 -92t79.5 -36q27 0 59 12t62 45.5t56 92.5t41 154l70 458q3 20 12.5 28t29.5 8h208q36 0 30 -36l-136 -880
q-20 -128 -70.5 -219.5t-124 -150t-166.5 -86.5t-197 -28q-80 0 -148.5 16t-118 47t-77.5 77t-28 106q0 38 11.5 67.5t32.5 49.5t49 30.5t61 10.5q62 0 98 -31.5t36 -82.5q0 -35 -17 -69t-55 -57q50 -44 132 -44q125 0 197 74.5t95 231.5l22 150q-50 -63 -119 -99.5
t-161 -36.5q-72 0 -122.5 21t-82 58.5t-45.5 88.5t-14 110q0 23 1.5 46.5t6.5 47.5l70 452l-88 6v0z" />
    <glyph glyph-name="z" unicode="z" horiz-adv-x="1012" 
d="M856 36q-5 -20 -14.5 -28t-29.5 -8h-748q-11 0 -20.5 7t-9.5 19q0 14 6 50l10 60q3 17 9 32.5t17 27.5q56 73 137.5 144t171.5 141l179.5 139.5t163.5 139.5h-426l-32 -82q-11 -34 -48 -34h-42q-37 0 -28 36l52 264q5 20 14.5 28t29.5 8h704q14 0 22 -8t8 -22
q0 -5 -1 -14.5t-3 -21.5l-10 -66q-6 -35 -28 -60q-38 -48 -88 -96t-106.5 -95.5l-117 -94.5l-121 -94l-117.5 -94t-106 -94h474l34 90q11 34 48 34h44q35 0 26 -36z" />
    <glyph glyph-name="ordfeminine" unicode="&#xaa;" horiz-adv-x="936" 
d="M886 680q-29 -24 -66 -40t-88 -16q-40 0 -66 9.5t-41 26t-21.5 38t-7.5 46.5q-38 -54 -87.5 -87t-126.5 -33q-56 0 -99 20t-71.5 56.5t-43 88.5t-14.5 117q0 76 22.5 153t67.5 139t112 101t156 39q53 0 95.5 -15.5t78.5 -56.5l30 32q15 14 27.5 20t32.5 6h52q36 0 30 -36
l-72 -462l-4 -28t-2 -28q0 -15 8.5 -21.5t17.5 -6.5t20 3t22 9t20 5t18 -15l8 -12q9 -14 7.5 -27.5t-15.5 -24.5zM356 894q0 -87 25.5 -121.5t72.5 -34.5q20 0 43 8.5t44.5 31.5t39 63t27.5 103l40 240q-21 21 -47 32.5t-61 11.5q-42 0 -76 -26.5t-58 -71.5t-37 -106
t-13 -130z" />
    <glyph glyph-name="ordmasculine" unicode="&#xba;" horiz-adv-x="856" 
d="M860 1048q0 -76 -23 -151.5t-72.5 -136t-126.5 -98.5t-184 -38q-77 0 -133.5 23t-93 63t-54 93t-17.5 113q0 76 23 151.5t72.5 136t126.5 98.5t184 38q77 0 133.5 -23t93 -63t54 -93t17.5 -113zM360 910q0 -103 27 -150.5t81 -47.5q43 0 77.5 26t59 71.5t38 108
t13.5 136.5q0 101 -27.5 150.5t-80.5 49.5q-43 0 -77.5 -26.5t-59 -73t-38 -109t-13.5 -135.5z" />
    <glyph glyph-name="dagger" unicode="&#x2020;" horiz-adv-x="884" 
d="M252 1090q-30 0 -30 24q0 2 1 13t3 25l4 32q3 20 13.5 28t30.5 8h208l36 224q3 20 12.5 28t29.5 8h76q36 0 30 -36l-36 -224h210q30 0 30 -26v-5.5t-2 -14.5l-6 -48q-3 -20 -12.5 -28t-29.5 -8h-210l-94 -586q-3 -20 -12.5 -28t-29.5 -8h-74q-36 0 -30 36l92 586h-210z
" />
    <glyph glyph-name="daggerdbl" unicode="&#x2021;" horiz-adv-x="884" 
d="M780 826q28 0 28 -26v-6t-2 -18l-6 -44q-3 -20 -12 -28t-30 -8h-210l-106 -660q-3 -20 -12.5 -28t-29.5 -8h-74q-36 0 -30 36l104 660h-208q-30 0 -30 24q0 3 1 13.5t3 22.5l4 34q3 20 13.5 28t28.5 8h210l40 264h-210q-30 0 -30 24q0 2 1 12t3 24l4 34q3 20 13.5 28
t30.5 8h208l36 224q3 20 12.5 28t29.5 8h76q36 0 30 -36l-36 -224h210q30 0 30 -26v-5.5t-2 -14.5l-6 -48q-3 -20 -12.5 -28t-29.5 -8h-210l-42 -264h212v0z" />
    <glyph glyph-name="degree" unicode="&#xb0;" horiz-adv-x="728" 
d="M748 1088q0 -64 -21 -125.5t-63.5 -110t-106.5 -78.5t-149 -30q-63 0 -110.5 20.5t-79.5 55t-48 81t-16 99.5q0 64 21 125.5t63 110t105.5 78.5t148.5 30q64 0 112 -20.5t80 -55t48 -81.5t16 -99zM300 1014q0 -26 7 -49.5t22 -41.5t39 -28.5t58 -10.5q43 0 76 17t55.5 44
t33.5 61t11 68q0 25 -7.5 48.5t-23 41.5t-39.5 29t-58 11q-43 0 -75.5 -17t-54.5 -44t-33 -61t-11 -68z" />
    <glyph glyph-name="asterisk" unicode="*" horiz-adv-x="884" 
d="M662 788q-29 -21 -42 14l-86 228l-144 -228q-11 -15 -22 -17.5t-26 9.5l-102 76q-28 21 0 46l206 172l-232 34q-12 2 -17 8.5t-5 15.5q0 7 6 22l60 136q15 34 46 12l190 -122l-6 250q0 20 8 28t28 8h140q36 0 24 -34l-86 -252l222 120q33 18 42 -16l32 -124q2 -5 3 -11
t1 -11q0 -11 -7 -16t-21 -8l-258 -40l168 -170q25 -25 -4 -46z" />
    <glyph glyph-name="asciicircum" unicode="^" horiz-adv-x="1136" 
d="M1080 762q6 -12 6 -20q0 -19 -22 -28l-68 -38q-18 -9 -28.5 -4t-19.5 20l-254 492l-438 -524q-11 -14 -23 -16t-29 12l-56 50q-16 13 -16 26q0 11 12 26l448 538q14 15 27 21.5t33 6.5h100q20 0 31.5 -7t20.5 -25z" />
    <glyph glyph-name="ampersand" unicode="&#x26;" horiz-adv-x="1546" 
d="M328 380q0 -47 14 -91t44.5 -78t79 -54.5t116.5 -20.5q74 0 139 23.5t121 62.5l-408 404q-51 -48 -78.5 -112.5t-27.5 -133.5zM1428 142q36 0 30 -36l-10 -70q-3 -20 -12.5 -28t-29.5 -8h-302q-20 0 -34 6t-28 20l-106 104q-44 -34 -91.5 -61.5t-101.5 -47t-116.5 -30.5
t-136.5 -11q-104 0 -188.5 22.5t-144 66t-91.5 106.5t-32 145q0 74 26 134.5t70 109.5t103 87t125 67q-45 62 -65.5 120t-20.5 118q0 75 32.5 145t96 124t158 86.5t219.5 32.5q94 0 164.5 -19t118 -53t71.5 -81t24 -103q0 -39 -11 -76t-33 -65.5t-54 -45.5t-74 -17
q-27 0 -51 7.5t-42 22.5t-28.5 38t-10.5 54q0 45 26 83t80 59q-36 26 -82.5 38t-93.5 12q-56 0 -101 -14.5t-76.5 -41.5t-49 -64t-17.5 -82q0 -36 11 -66t31.5 -58.5t48.5 -58l63 -63.5l356 -354q47 50 82 109t56 119h-118q-36 0 -30 36l10 70q3 20 12.5 28t29.5 8h380
q36 0 30 -36l-10 -70q-3 -20 -12.5 -28t-29.5 -8h-110q-30 -83 -79 -166.5t-117 -155.5l162 -160h124z" />
    <glyph glyph-name="at" unicode="@" horiz-adv-x="1726" 
d="M1196 -172q-39 -25 -89 -48.5t-108.5 -42t-125 -30t-139.5 -11.5q-146 0 -264.5 47t-202.5 134.5t-129.5 212.5t-45.5 280q0 130 31.5 248t89.5 219.5t140 183.5t184 140t220 89.5t249 31.5q154 0 274.5 -44.5t204 -125t127.5 -193.5t44 -249q0 -72 -12.5 -144.5
t-37 -140t-60 -125.5t-82 -101.5t-103.5 -68t-123 -24.5q-48 0 -87 13t-67 35.5t-43 52t-15 63.5q0 11 1 20.5t3 15.5q-18 -41 -48.5 -73.5t-70 -55t-86.5 -35t-97 -12.5q-68 0 -119 22.5t-85.5 64.5t-52 102t-17.5 135q0 115 37 204t97 149.5t134.5 91.5t149.5 31
q46 0 82.5 -10.5t65 -27.5t48.5 -38t34 -42l62 74q14 15 27 21.5t33 6.5h44q36 0 30 -36l-80 -500q-6 -35 -8 -60.5t-2 -33.5q0 -30 17 -44t41 -14q38 0 81.5 35t80 97t60.5 147.5t24 186.5q0 121 -37 214.5t-104.5 158t-162.5 98t-212 33.5q-102 0 -197.5 -25t-179.5 -72
t-154 -115.5t-120 -154.5t-77.5 -189t-27.5 -220q0 -134 36.5 -238t104 -175t163 -108t212.5 -37q112 0 208 28.5t174 73.5q31 17 50 -14l20 -32q9 -17 6 -28t-18 -22zM686 418q0 -98 33 -143t95 -45q78 0 130 66t72 184l32 194q-24 47 -57.5 63.5t-68.5 16.5
q-46 0 -88.5 -23.5t-75.5 -67t-52.5 -106t-19.5 -139.5z" />
    <glyph glyph-name="numbersign" unicode="#" horiz-adv-x="1200" 
d="M540 832l-106 -340h274l108 340h-276zM820 344l-98 -310q-6 -18 -16 -26t-30 -8h-88q-35 0 -26 34l98 310h-274l-98 -310q-6 -18 -16 -26t-30 -8h-88q-35 0 -26 34l98 310h-152q-15 0 -22.5 7.5t-7.5 18.5q0 12 6 42l8 44q3 20 12.5 28t29.5 8h174l108 340h-150
q-36 0 -30 36l12 76q3 20 12.5 28t29.5 8h172l100 310q8 34 46 34h88q35 0 26 -34l-100 -310h274l100 310q8 34 46 34h88q35 0 26 -34l-100 -310h154q15 0 22.5 -7.5t7.5 -18.5q0 -12 -6 -42l-8 -44q-3 -20 -12.5 -28t-29.5 -8h-176l-108 -340h152q36 0 30 -36l-12 -76
q-3 -20 -12.5 -28t-29.5 -8h-174z" />
    <glyph glyph-name="dollar" unicode="$" 
d="M638 1172q-98 -12 -155 -58.5t-57 -121.5q0 -63 41 -102t115 -70zM602 156q49 7 89 23t68.5 39t44.5 53.5t16 68.5q0 60 -42 98.5t-120 71.5zM468 -128q-36 0 -30 36l18 114q-98 4 -172 24t-123.5 53t-74 77.5t-24.5 97.5q0 34 10 65.5t29.5 56t49 39.5t67.5 15
q26 0 49 -7.5t40 -21.5t27 -35t10 -48q0 -44 -24 -76t-60 -52q42 -27 99 -40.5t117 -15.5l64 392q-71 26 -134.5 55.5t-112 71t-77 99t-28.5 140.5q0 92 35.5 162.5t98.5 119t149 75.5t187 33l18 114q3 20 12.5 28t29.5 8h54q36 0 30 -36l-18 -114q87 -7 152 -28.5
t108.5 -54.5t65.5 -76.5t22 -92.5q0 -34 -10 -65.5t-29.5 -56t-49 -39.5t-67.5 -15q-26 0 -49 7.5t-40 21.5t-27 35t-10 48q0 44 24 76.5t62 53.5q-35 23 -79.5 36t-94.5 18l-62 -388q72 -27 136.5 -57t113.5 -71t77.5 -98t28.5 -138q0 -91 -36.5 -161t-100 -119.5
t-150.5 -78t-187 -35.5l-18 -116q-3 -20 -12.5 -28t-29.5 -8h-54z" />
    <glyph glyph-name="cent" unicode="&#xa2;" 
d="M496 -128q-36 0 -30 36l18 116q-89 10 -156.5 43.5t-112.5 87t-68 125.5t-23 160q0 114 36 217t103.5 183.5t164 132.5t218.5 63l18 116q3 20 12.5 28t29.5 8h62q36 0 30 -36l-18 -116q137 -14 213.5 -78.5t76.5 -167.5q0 -41 -11.5 -73t-32 -54.5t-48.5 -34.5t-60 -12
q-29 0 -53 10t-40.5 27t-25.5 39t-9 46q0 41 27 81t83 57q-24 18 -61 29t-79 11l-118 -740q104 0 200 66q17 12 28 9.5t22 -17.5l24 -38q20 -29 -6 -52q-56 -50 -127 -83t-165 -39l-18 -114q-3 -20 -12.5 -28t-29.5 -8h-62zM624 896q-53 -23 -92 -73t-65.5 -114.5
t-39.5 -137t-13 -139.5q0 -97 25 -154.5t73 -81.5z" />
    <glyph glyph-name="sterling" unicode="&#xa3;" 
d="M964 370q36 0 30 -36l-56 -298q-3 -20 -12.5 -28t-29.5 -8h-832q-36 0 -30 36l12 78q3 21 11.5 32t26.5 22q48 26 90.5 63t74.5 82t50.5 98.5t18.5 112.5q0 33 -6 66h-180q-36 0 -30 36l8 62q3 20 12.5 28t29.5 8h132q-9 42 -16.5 87.5t-7.5 96.5q0 100 38.5 181
t106.5 137.5t161.5 87t203.5 30.5q96 0 166.5 -19.5t116.5 -54t68.5 -81t22.5 -99.5q0 -37 -10 -69.5t-29.5 -56.5t-49 -38t-67.5 -14q-26 0 -48.5 8t-40 23t-27.5 36t-10 47q0 44 26.5 76t71.5 50q-33 27 -79 37.5t-85 10.5q-68 0 -114.5 -24.5t-75 -68t-40.5 -104
t-12 -133.5q0 -35 2.5 -71t7.5 -75h286q36 0 30 -36l-8 -62q-3 -20 -12.5 -28t-29.5 -8h-256v-52q0 -57 -18.5 -106.5t-50 -90.5t-73.5 -73.5t-90 -55.5h462l48 124q11 34 48 34h64z" />
    <glyph glyph-name="yen" unicode="&#xa5;" 
d="M424 386l24 156h-272q-36 0 -30 36l8 62q3 20 12.5 28t29.5 8h198q-42 118 -74.5 245t-55.5 269h-78q-36 0 -30 36l10 62q3 20 12.5 28t29.5 8h460q36 0 30 -36l-10 -62q-3 -20 -12.5 -28t-29.5 -8h-88q33 -283 116 -506q77 109 148 236.5t128 269.5h-82q-36 0 -30 36
l10 62q3 20 12.5 28t29.5 8h338q32 0 32 -24q0 -3 -1 -12t-3 -20l-6 -42q-3 -20 -12.5 -28t-29.5 -8h-72q-66 -137 -139.5 -265t-154.5 -249h194q36 0 30 -36l-8 -62q-3 -20 -12.5 -28t-29.5 -8l-272 -2l-26 -154h272q36 0 30 -36l-8 -62q-3 -20 -12.5 -28t-29.5 -8h-274
l-18 -118h102q36 0 30 -36l-10 -62q-3 -20 -12.5 -28t-29.5 -8h-498q-36 0 -30 36l10 62q3 20 12.5 28t29.5 8h102l18 118h-272q-32 0 -32 24q0 5 1 13t3 19l6 42q3 20 12.5 28t29.5 8h274z" />
    <glyph glyph-name="florin" unicode="&#x192;" 
d="M422 730l28 178q18 115 60.5 198t103 135.5t136.5 77.5t162 25q65 0 117 -13.5t88 -39t55.5 -61.5t19.5 -80q0 -33 -10.5 -60t-29.5 -46t-44.5 -29.5t-55.5 -10.5q-27 0 -49 8.5t-37 23t-23.5 33.5t-8.5 41q0 36 18 64t50 48q-26 16 -62 16q-32 0 -62.5 -13t-57.5 -44
t-48 -81.5t-32 -125.5l-38 -244h236q36 0 30 -36l-8 -54q-3 -20 -12.5 -28t-29.5 -8h-236l-92 -588q-18 -116 -59.5 -198.5t-101 -135t-135 -77.5t-160.5 -25q-131 0 -202.5 48.5t-71.5 137.5q0 33 10.5 60t29.5 46t44.5 29.5t55.5 10.5q27 0 49 -8.5t37 -23t23.5 -33.5
t8.5 -41q0 -36 -17 -63t-49 -47q21 -12 54 -12q31 0 61 13.5t55.5 44.5t45.5 82t32 126l102 654h-184q-36 0 -30 36l8 54q3 20 12.5 28t29.5 8h184z" />
    <glyph glyph-name="Euro" unicode="&#x20ac;" 
d="M1026 182q20 -29 -6 -52q-37 -32 -79 -59.5t-90.5 -47.5t-104 -31.5t-118.5 -11.5q-118 0 -202 34t-138.5 94.5t-82.5 144t-33 183.5h-108q-36 0 -30 36l10 62q3 20 12.5 28t29.5 8h86q3 44 8.5 86t13.5 84h-80q-36 0 -30 36l10 62q3 20 12.5 28t29.5 8h94
q34 100 88.5 186t130.5 149t174.5 99t220.5 36q72 0 131.5 -17.5t102.5 -50.5t66.5 -79.5t23.5 -104.5q0 -85 -44.5 -132.5t-115.5 -47.5q-24 0 -46 8t-39 22.5t-27 34.5t-10 45q0 27 8.5 48.5t23 38t32.5 27.5t38 18q-30 23 -65 33.5t-71 10.5q-67 0 -119.5 -25.5t-93 -69
t-70 -103t-49.5 -126.5h304q36 0 30 -36l-10 -62q-3 -20 -12.5 -28t-29.5 -8h-312q-8 -42 -12.5 -85t-7.5 -85h304q36 0 30 -36l-10 -62q-3 -20 -12.5 -28t-29.5 -8h-284q4 -72 18.5 -127.5t43 -93.5t71.5 -57.5t103 -19.5q66 0 130 24t118 66q28 20 50 -8z" />
    <glyph glyph-name="section" unicode="&#xa7;" horiz-adv-x="1164" 
d="M348 510q0 -39 17.5 -66.5t50.5 -49.5t81 -41.5l109 -42.5q23 -8 44 -16.5l42 -17.5q25 12 47 31.5t37.5 43.5t24.5 50.5t9 52.5q0 39 -17.5 66.5t-50.5 49.5t-81 41.5l-109 42.5q-23 8 -44 16.5l-42 17.5q-26 -12 -47.5 -32t-37 -44t-24.5 -50.5t-9 -51.5zM918 -18
q0 -85 -44 -152t-116 -113.5t-165.5 -71.5t-192.5 -25q-98 0 -172.5 21.5t-124.5 58.5t-75.5 86.5t-25.5 105.5q0 36 10.5 67t31.5 54t51 36t69 13q25 0 47.5 -9t40 -25t28 -38.5t10.5 -49.5q0 -44 -25.5 -75.5t-64.5 -52.5q39 -27 91 -39.5t111 -12.5q46 0 93.5 11t86 32
t62.5 52.5t24 72.5q0 33 -16 56.5t-46.5 42.5t-74.5 35.5l-99 35.5q-61 21 -117 46.5t-99.5 63.5t-69.5 92.5t-26 133.5q0 58 17.5 106.5t49.5 87.5t77 68.5t100 49.5q-56 39 -90 95.5t-34 140.5q0 85 38 152t104 113.5t153.5 71.5t186.5 25q98 0 172.5 -21.5t124.5 -58.5
t75.5 -86.5t25.5 -105.5q0 -36 -10.5 -67t-31.5 -54t-51 -36t-69 -13q-25 0 -47.5 9t-40 25t-28 38.5t-10.5 49.5q0 44 25.5 75.5t64.5 52.5q-39 27 -91 39.5t-111 12.5q-47 0 -88.5 -11t-73 -32t-50 -52.5t-18.5 -72.5q0 -33 16 -56.5t46.5 -42.5t74 -35.5t99.5 -35.5
q61 -21 117 -46.5t99.5 -63.5t69.5 -92.5t26 -133.5q0 -59 -17.5 -107t-49.5 -87t-77 -68.5t-100 -49.5q55 -39 89.5 -95.5t34.5 -140.5z" />
    <glyph glyph-name="currency" unicode="&#xa4;" 
d="M932 138q-14 -12 -25 -11.5t-23 15.5l-102 124q-53 -24 -115 -37t-137 -13q-68 0 -123 12.5t-99 35.5l-138 -122q-27 -24 -50 2l-64 70q-24 27 2 50l130 114q-24 41 -35 89t-11 101q0 52 8.5 104.5t26.5 103t46 97t67 85.5l-92 114q-12 15 -10.5 26.5t16.5 25.5l72 62
q15 12 26.5 11.5t23.5 -15.5l100 -126q54 24 118.5 38t141.5 14q130 0 216 -46l138 122q27 24 50 -4l60 -70q12 -15 11.5 -27.5t-15.5 -24.5l-124 -108q26 -42 37 -91t11 -103q0 -53 -8.5 -106t-26.5 -104t-46.5 -97.5t-68.5 -86.5l88 -110q23 -28 -4 -52zM396 558
q0 -120 39 -169t117 -49q61 0 110.5 32t84.5 88.5t54 134t19 169.5q0 118 -40 169t-116 51q-61 0 -110.5 -32.5t-84.5 -89.5t-54 -135t-19 -169z" />
    <glyph glyph-name="paragraph" unicode="&#xb6;" horiz-adv-x="1232" 
d="M694 -240q-36 0 -30 36l218 1394h-150l-218 -1394q-3 -20 -12.5 -28t-29.5 -8h-140q-36 0 -30 36l132 838q-71 10 -121.5 35.5t-82.5 62.5t-47 83t-15 99q0 100 34.5 177t97.5 128.5t151.5 78t196.5 26.5h596q32 0 32 -24q0 -3 -1 -12t-3 -20l-6 -42q-3 -20 -12.5 -28
t-29.5 -8h-130l-220 -1394q-3 -20 -12.5 -28t-29.5 -8h-138z" />
    <glyph glyph-name="registered" unicode="&#xae;" horiz-adv-x="1346" 
d="M1326 1008q0 -137 -43.5 -265t-128.5 -226.5t-210 -157.5t-288 -59q-131 0 -226.5 40.5t-158 108t-93 156t-30.5 185.5q0 91 19.5 179.5t58.5 167.5t96 145.5t132 115t167.5 75.5t202.5 27q129 0 223.5 -40.5t156.5 -108.5t92 -157t30 -186zM262 808q0 -86 23 -161
t72 -131.5t125 -89t182 -32.5q133 0 236 50t172.5 133t105.5 190.5t36 222.5q0 85 -23 161t-72 132.5t-125 89.5t-182 33q-134 0 -236.5 -50.5t-172 -134t-105.5 -191t-36 -222.5zM668 906h56q32 0 57 12t42 32.5t26 48t9 59.5q0 41 -22.5 65.5t-73.5 24.5h-56zM848 576
q-21 0 -31 8t-13 28q-14 57 -37 116.5t-61 101.5h-50l-28 -180h30q36 0 30 -36v-2q-3 -20 -12.5 -28t-29.5 -8h-208q-36 0 -30 36v2q3 20 12.5 28t29.5 8h22l78 500h-22q-36 0 -30 36v2q3 20 12.5 28t29.5 8h258q58 0 100 -11.5t69 -32.5t40 -51t13 -67q0 -75 -43.5 -123
t-120.5 -71q42 -45 69 -103t39 -115h18q36 0 30 -36v-2q-3 -20 -12.5 -28t-29.5 -8h-122z" />
    <glyph glyph-name="copyright" unicode="&#xa9;" horiz-adv-x="1566" 
d="M1480 786q0 -104 -22 -204t-65.5 -189.5t-107.5 -165.5t-148.5 -130.5t-189 -85.5t-227.5 -31q-148 0 -256.5 46t-179.5 123t-105.5 178t-34.5 211q0 104 22 204t66 189.5t108.5 165.5t149.5 130.5t190 85.5t230 31q146 0 253.5 -46t178 -123t104.5 -178t34 -211z
M274 558q0 -97 26 -182t81 -148.5t141 -100.5t206 -37q152 0 268.5 56.5t195 151t118.5 216t40 252.5q0 97 -25.5 182t-80.5 148.5t-140.5 100.5t-205.5 37q-101 0 -187 -26t-155.5 -72t-122 -109.5t-88 -138.5t-53.5 -159t-18 -171zM762 276q-80 0 -138 22t-95.5 61
t-56 92.5t-18.5 116.5q0 89 28 175.5t84 154t140 109t196 41.5q57 0 100 -11.5t72 -31.5t43.5 -47t14.5 -58q0 -54 -29.5 -91t-82.5 -37q-32 0 -56 19t-24 55q0 29 15.5 52.5t44.5 37.5q-20 12 -44.5 17t-51.5 5q-46 0 -82 -18t-63 -48.5t-46 -71t-30.5 -84.5t-17 -89.5
t-5.5 -86.5q0 -89 38.5 -135.5t113.5 -46.5q48 0 86.5 13t77.5 39q32 23 46 -8l8 -16q6 -12 3.5 -24.5t-17.5 -23.5q-48 -36 -110.5 -59t-143.5 -23z" />
    <glyph glyph-name="trademark" unicode="&#x2122;" horiz-adv-x="1572" 
d="M298 750l80 500h-112l-32 -78q-11 -28 -42 -28h-4q-11 0 -18.5 4.5t-7.5 15.5q0 8 1.5 17.5t6.5 32.5l14 74q3 20 13.5 28t30.5 8h490q35 0 32 -36l-16 -112q-3 -32 -36 -32h-4q-31 0 -34 32l-6 74h-112l-80 -500h32q18 0 25 -8t5 -22l-2 -14q-3 -17 -11.5 -22.5
t-26.5 -5.5h-232q-34 0 -28 32l2 10q3 17 12.5 23.5t27.5 6.5h32zM846 1254q-18 0 -25 7t-5 21l2 14q3 28 38 28h170q20 0 30 -8t16 -26l94 -304l196 308q11 17 23.5 23.5t32.5 6.5h160q17 0 23.5 -6.5t6.5 -17.5v-8.5t-2 -11.5q-3 -15 -11.5 -20.5t-26.5 -5.5h-30l-80 -504
h28q18 0 25 -8t5 -22l-2 -14q-3 -17 -11.5 -22.5t-26.5 -5.5h-216q-34 0 -28 32l2 10q3 17 11.5 23.5t26.5 6.5h22l62 384l-182 -280q-11 -17 -23.5 -23.5t-32.5 -6.5h-28q-20 0 -30 8t-16 26l-98 316l-68 -424h32q18 0 25 -8t5 -22l-2 -14q-3 -17 -11.5 -22.5t-26.5 -5.5
h-148q-15 0 -23 8.5t-5 23.5l2 10q3 17 12 23.5t24 6.5h34l78 504h-28z" />
    <glyph glyph-name="infinity" unicode="&#x221e;" horiz-adv-x="1498" 
d="M1388 562q0 -72 -22.5 -137t-66.5 -114t-110 -78t-153 -29q-60 0 -107.5 16t-86.5 42.5t-70.5 61t-59.5 72.5q-35 -38 -71.5 -73t-78.5 -61.5t-89.5 -42t-102.5 -15.5q-58 0 -105.5 18.5t-81.5 52t-52.5 79.5t-18.5 102q0 72 22.5 137t66.5 114t110 78t153 29
q60 0 107.5 -16t86.5 -42.5t70.5 -61.5t59.5 -72q34 38 71 73t79 61.5t89 42t103 15.5q58 0 105.5 -18.5t81.5 -52t52.5 -80t18.5 -101.5zM842 548q24 -33 48.5 -63t51.5 -53t58.5 -36.5t69.5 -13.5q37 0 69 13t56 37t37.5 57.5t13.5 74.5q0 72 -41.5 112t-104.5 40
q-35 0 -68 -12t-64.5 -34.5t-63 -53.5t-62.5 -68zM254 454q0 -72 41.5 -112t104.5 -40q70 0 132.5 46.5t125.5 121.5q-24 33 -48.5 63t-51.5 53t-58.5 36.5t-69.5 13.5q-37 0 -69 -13t-56 -37t-37.5 -57.5t-13.5 -74.5z" />
    <glyph glyph-name="mu" unicode="&#xb5;" horiz-adv-x="1214" 
d="M926 -20q-54 0 -90.5 12.5t-59 35t-33.5 54.5t-13 70q-25 -39 -51 -71t-57 -54.5t-69 -34.5t-87 -12q-30 0 -58 11.5t-46 28.5q3 -24 3 -80.5t-15 -151.5l-24 -152q-3 -20 -12.5 -28t-29.5 -8h-208q-14 0 -22 6t-8 18q0 6 3 22.5l9 51.5l180 1146l-88 6q-36 3 -30 38
l6 40q3 20 12.5 28t29.5 10l338 22q36 3 30 -34l-96 -608q-7 -41 -7.5 -78t9.5 -65t32 -44.5t60 -16.5q27 0 59 12t62 45.5t56 92.5t41 154l76 498q3 20 12.5 28t29.5 8h208q14 0 22 -6t8 -18q0 -13 -12 -88l-100 -640q-6 -38 3.5 -58t36.5 -20q14 0 28.5 5t29.5 13
q15 9 26 9t22 -17l16 -24q9 -14 11.5 -20.5t2.5 -15.5q0 -19 -30 -46q-11 -10 -31 -22.5t-47 -24t-62 -19.5t-76 -8z" />
    <glyph glyph-name="partialdiff" unicode="&#x2202;" horiz-adv-x="1140" 
d="M438 1498q79 -7 158 -29t151 -63.5t134 -103.5t107.5 -147.5t71.5 -197t26 -251.5q0 -160 -36.5 -293.5t-111 -230t-187.5 -150.5t-267 -54q-110 0 -190 31t-132 84t-77 124.5t-25 152.5q0 68 14.5 137.5t44.5 133t76 119t108.5 96.5t142.5 64.5t178 23.5q57 0 105 -17
t77 -49q-12 91 -40.5 171t-77.5 144.5t-120.5 112.5t-169.5 76q-18 5 -23 14.5t1 27.5l14 42q6 18 17 26t31 6zM350 360q0 -137 39 -197.5t117 -60.5q61 0 110.5 35t84.5 97t54 147t19 185q0 134 -39.5 195t-116.5 61q-61 0 -110.5 -35t-84.5 -97t-54 -146.5t-19 -183.5z
" />
    <glyph glyph-name="summation" unicode="&#x2211;" horiz-adv-x="1122" 
d="M786 790q11 -17 14 -31.5t0 -34.5l-10 -68q-3 -20 -11 -33t-23 -27l-420 -368h500l42 116q11 34 48 34h70q36 0 30 -36l-62 -306q-3 -20 -12.5 -28t-29.5 -8h-890q-30 0 -30 26v9t2 15l8 56q6 37 32 60l504 458l-346 528q-11 17 -14 31.5t0 34.5l10 70q3 20 12.5 28
t29.5 8h862q32 0 32 -26q0 -8 -2.5 -27.5t-5.5 -40.5l-30 -220q-3 -20 -11.5 -28t-28.5 -8h-60q-20 0 -28 8t-10 28l-10 164h-416z" />
    <glyph glyph-name="product" unicode="&#x220f;" horiz-adv-x="1422" 
d="M1334 1190l-168 -1056h82q36 0 30 -36l-10 -62q-3 -20 -12.5 -28t-29.5 -8h-458q-36 0 -30 36l10 62q3 20 12.5 28t29.5 8h82l166 1046h-434l-166 -1046h82q36 0 30 -36l-10 -62q-3 -20 -12.5 -28t-29.5 -8h-458q-30 0 -30 26q0 5 1 13t3 19l6 40q3 20 12.5 28t29.5 8h82
l168 1056h-82q-36 0 -30 36l10 62q3 20 12.5 28t29.5 8h1184q32 0 32 -24q0 -3 -1 -12t-3 -20l-6 -42q-3 -20 -12.5 -28t-29.5 -8h-82z" />
    <glyph glyph-name="pi" unicode="&#x3c0;" horiz-adv-x="1358" 
d="M1312 980q36 0 30 -36l-8 -58q-3 -20 -12.5 -28t-29.5 -8h-98l-98 -598q-6 -45 -6 -58q0 -20 9.5 -32t32.5 -12q14 0 26 3.5t30 14.5q15 9 26 9t22 -17l20 -30q14 -20 9 -37.5t-31 -38.5q-11 -10 -31 -22.5t-47 -24t-62 -19.5t-76 -8q-63 0 -103.5 16t-63.5 42t-32 60
t-9 70q0 35 4 68t12 78l86 536h-240l-74 -466q-17 -107 -56 -183.5t-95 -125.5t-127 -72t-152 -23q-56 0 -97 12.5t-68 35t-40 53t-13 65.5q0 28 9 54.5t26.5 47t43 32.5t59.5 12q42 0 72 -24t30 -66q0 -71 -70 -112q6 -5 15.5 -6.5t18.5 -1.5q27 0 50 10.5t42.5 38t35.5 76
t28 125.5l82 518h-102q-36 0 -30 36l8 58q3 20 12.5 28t29.5 8h1002v0z" />
    <glyph glyph-name="integral" unicode="&#x222b;" horiz-adv-x="1128" 
d="M590 16q-18 -116 -59.5 -198.5t-101 -135t-135 -77.5t-160.5 -25q-131 0 -202.5 48.5t-71.5 137.5q0 33 10.5 60t29.5 46t44.5 29.5t55.5 10.5q27 0 49 -8.5t37 -23t23.5 -33.5t8.5 -41q0 -36 -17 -63t-49 -47q21 -12 54 -12q31 0 61 13.5t55.5 44.5t45.5 82t32 126
l176 1112q18 115 60.5 198t103 135.5t136.5 77.5t162 25q65 0 117 -13.5t88 -39t55.5 -61.5t19.5 -80q0 -33 -10.5 -60t-29.5 -46t-44.5 -29.5t-55.5 -10.5q-27 0 -49 8.5t-37 23t-23.5 33.5t-8.5 41q0 36 18 64t50 48q-26 16 -62 16q-32 0 -62.5 -13t-57.5 -44t-48 -81.5
t-32 -125.5l-176 -1112v0z" />
    <glyph glyph-name="Omega" unicode="&#x2126;" horiz-adv-x="1436" 
d="M436 692q0 -122 40.5 -199.5t115.5 -112.5q20 -9 25.5 -19t2.5 -31l-46 -294q-3 -20 -12.5 -28t-29.5 -8h-468q-35 0 -32 36l30 258q2 20 11 28t29 8h56q20 0 28 -8t10 -28l4 -110h234l14 92q-82 26 -141.5 71.5t-98.5 104.5t-57.5 129t-18.5 147q0 81 19 158t57.5 145.5
t96.5 126t137.5 99t179.5 64.5t222 23q134 0 236.5 -35.5t171.5 -98.5t104.5 -149t35.5 -187q0 -104 -39 -199.5t-106 -175t-155.5 -137.5t-187.5 -86l-14 -92h230l44 112q8 18 19 26t31 8h52q36 0 30 -36l-52 -258q-3 -20 -12.5 -28t-29.5 -8h-470q-36 0 -30 36l46 292
q3 23 11.5 32.5t28.5 17.5q74 24 130.5 81.5t94 130.5t56.5 152.5t19 147.5q0 79 -19 136t-53.5 93.5t-83.5 53.5t-108 17q-70 0 -126 -22.5t-99 -60.5t-74 -88.5t-50.5 -106t-29 -112.5t-9.5 -108z" />
    <glyph glyph-name="logicalnot" unicode="&#xac;" 
d="M948 36q-3 -20 -12.5 -28t-29.5 -8h-92q-18 0 -24 9.5t-6 26.5l60 380h-712q-30 0 -30 26v8t2 14l12 68q3 20 12.5 28t29.5 8h840q28 0 28 -28v-7.5t-2 -16.5z" />
    <glyph glyph-name="radical" unicode="&#x221a;" horiz-adv-x="1280" 
d="M88 856q-30 0 -30 22q0 9 1 18.5t3 21.5l4 26q3 20 12.5 28t29.5 8h368q20 0 29.5 -8t12.5 -28l98 -670l530 1174q8 18 19 25t31 7h96q24 0 24 -16q0 -5 -1 -8t-3 -8l-648 -1416q-9 -18 -20.5 -25t-31.5 -7h-194q-20 0 -29.5 8t-12.5 28l-146 820h-142z" />
    <glyph glyph-name="Delta" unicode="&#x2206;" horiz-adv-x="1336" 
d="M894 220q-17 103 -40.5 214.5t-49.5 218.5t-52.5 203t-49.5 170l-112 -174.5l-119.5 -200l-119.5 -214.5t-111 -217h654zM44 180q6 36 22 68l141.5 260.5l157.5 271.5l164 267l161 247q11 17 23.5 23.5t32.5 6.5h116q37 0 48 -34q24 -67 50.5 -149.5l53 -173l52 -185.5
t48 -188t40.5 -180.5t30 -161.5q2 -8 3 -16.5t1 -17.5t-1 -18t-3 -18l-26 -146q-3 -20 -12.5 -28t-29.5 -8h-1062q-30 0 -30 26v9t2 15z" />
    <glyph glyph-name="divide" unicode="&#xf7;" 
d="M140 416q-30 0 -30 26q0 3 0.5 11t3.5 23l10 56q3 20 12.5 28t29.5 8h868q17 0 23.5 -6t6.5 -20q0 -3 -1.5 -12.5l-4.5 -29.5l-8 -48q-3 -20 -12.5 -28t-29.5 -8h-868zM788 874q0 -33 -11 -62t-31 -50t-48 -33.5t-62 -12.5q-59 0 -90.5 36t-31.5 90q0 33 11 62t31 50
t48 33.5t62 12.5q59 0 90.5 -36t31.5 -90zM674 138q0 -33 -11 -62t-31 -50t-48 -33.5t-62 -12.5q-59 0 -90.5 36t-31.5 90q0 33 11 62t31 50t48 33.5t62 12.5q59 0 90.5 -36t31.5 -90z" />
    <glyph glyph-name="lozenge" unicode="&#x25ca;" horiz-adv-x="1320" 
d="M1040 362l-320 798l-440 -596l320 -798zM894 1324q20 0 31 -8t19 -26l302 -714l6.5 -19t3.5 -19q0 -14 -6 -56l-14 -88q-3 -18 -9.5 -34t-18.5 -30l-516 -702q-12 -15 -25 -21.5t-33 -6.5h-210q-20 0 -31 8t-19 26l-302 718q-5 11 -7.5 20t-2.5 20q0 21 6 54l14 84
q3 18 9.5 34t18.5 30l516 702q12 15 25 21.5t33 6.5h210z" />
    <glyph glyph-name="grave" unicode="`" horiz-adv-x="646" 
d="M492 1178q14 -14 14 -28q0 -6 -2 -12t-8 -14l-18 -24q-15 -18 -30 -18q-6 0 -12 2.5t-12 5.5l-316 180q-20 11 -20 26q0 7 10 20l92 122q11 14 24 14q12 0 24 -12z" />
    <glyph glyph-name="acute" unicode="&#xb4;" horiz-adv-x="648" 
d="M240 1090q-6 -3 -12 -5.5t-12 -2.5q-15 0 -30 18l-18 24q-6 8 -8 14t-2 12q0 14 14 28l254 262q12 12 24 12q13 0 24 -14l92 -122q5 -6 7.5 -11t2.5 -11q0 -13 -20 -24z" />
    <glyph glyph-name="dieresis" unicode="&#xa8;" horiz-adv-x="896" 
d="M766 1278q0 -34 -13 -62.5t-35 -49.5t-51.5 -32.5t-62.5 -11.5q-57 0 -92.5 33.5t-35.5 86.5q0 34 13 62.5t35 49.5t51 32.5t61 11.5q59 0 94.5 -33.5t35.5 -86.5zM402 1278q0 -34 -13 -62.5t-35 -49.5t-51.5 -32.5t-62.5 -11.5q-57 0 -92.5 33.5t-35.5 86.5
q0 34 13 62.5t35 49.5t51 32.5t61 11.5q59 0 94.5 -33.5t35.5 -86.5z" />
    <glyph glyph-name="circumflex" unicode="&#x2c6;" horiz-adv-x="844" 
d="M190 1118q-18 -8 -25.5 -10t-12.5 -2q-6 0 -14 4t-16 18l-14 24q-3 6 -5.5 12t-2.5 12q0 16 20 30l294 216q8 6 14 8t14 2q14 0 28 -14l216 -212q16 -16 16 -30q0 -13 -10 -26l-18 -24q-8 -9 -15.5 -14.5t-16.5 -5.5q-10 0 -22 6l-208 100z" />
    <glyph glyph-name="tilde" unicode="&#x2dc;" horiz-adv-x="868" 
d="M538 1112q-38 0 -70 13.5t-62 30t-58.5 30.5t-57.5 14q-36 0 -63 -12.5t-53 -39.5q-14 -14 -28 -14q-6 0 -11.5 2t-14.5 8l-20 14q-18 12 -18 30q0 10 6 22q16 31 38 62.5t50 57t61.5 42t74.5 16.5q37 0 69.5 -14t62.5 -30.5t58.5 -30t57.5 -13.5q41 0 66.5 12t49.5 38
q8 9 15 12.5t15 3.5q11 0 24 -10l20 -14q18 -12 18 -30q0 -10 -6 -22q-17 -31 -38.5 -62.5t-49.5 -57t-62 -42t-74 -16.5z" />
    <glyph glyph-name="macron" unicode="&#xaf;" horiz-adv-x="776" 
d="M152 1142q-32 0 -32 30v4.5t2 13.5l12 84q3 20 11.5 28t28.5 8h430q32 0 32 -30v-5.5t-2 -12.5l-12 -84q-3 -20 -11.5 -28t-28.5 -8h-430v0z" />
    <glyph glyph-name="breve" unicode="&#x2d8;" horiz-adv-x="816" 
d="M396 1290q22 0 47 5.5t51 17.5t51.5 31t48.5 46q11 12 17.5 17t14.5 5t24 -8l30 -16q22 -11 22 -30q0 -3 -1 -8t-3 -10q-21 -47 -53.5 -89t-74 -74.5t-91.5 -51.5t-105 -19t-97 18.5t-72.5 48.5t-50 69t-28.5 80q-2 6 -3 12.5t-1 15.5q0 24 28 38l32 16q12 6 20 6
q16 0 28 -24q13 -26 32.5 -44t42 -29.5t46 -17t45.5 -5.5z" />
    <glyph glyph-name="dotaccent" unicode="&#x2d9;" horiz-adv-x="484" 
d="M394 1294q0 -37 -14.5 -68.5t-39 -54.5t-57 -36t-69.5 -13q-32 0 -58 10t-44.5 28t-29 42.5t-10.5 53.5q0 37 14.5 68.5t38.5 54.5t56.5 36t68.5 13q65 0 104.5 -37.5t39.5 -96.5z" />
    <glyph glyph-name="ring" unicode="&#x2da;" horiz-adv-x="704" 
d="M312 1066q-59 0 -101 17t-69 47t-39.5 69.5t-12.5 84.5q0 51 19.5 100t56 88t88 62.5t116.5 23.5q58 0 100 -17t69 -47t40 -69.5t13 -84.5q0 -51 -19.5 -100t-56 -88t-88.5 -62.5t-116 -23.5zM220 1290q0 -47 26 -78.5t74 -31.5q32 0 58.5 13.5t45 35t28.5 49t10 56.5
q0 47 -26 78.5t-74 31.5q-32 0 -58.5 -13.5t-45 -35t-28.5 -49.5t-10 -56z" />
    <glyph glyph-name="cedilla" unicode="&#xb8;" horiz-adv-x="656" 
d="M526 -224q0 -47 -20.5 -83t-55.5 -61.5t-81.5 -38.5t-98.5 -13q-46 0 -81 10.5t-59 28.5t-36 41t-12 48q0 16 5 31.5t15 27.5t24.5 19.5t33.5 7.5q24 0 43 -13t19 -39q0 -21 -10 -39t-34 -29q18 -12 39.5 -17t42.5 -5q22 0 41.5 7t34.5 19t23.5 29.5t8.5 38.5
q0 41 -36.5 63.5t-99.5 34.5q-35 6 -16 38l72 118h90l-42 -70q37 -2 71 -12t60.5 -29.5t42.5 -47.5t16 -65z" />
    <glyph glyph-name="hungarumlaut" unicode="&#x2dd;" horiz-adv-x="942" 
d="M490 1346q0 -8 -5.5 -14.5t-16.5 -15.5l-254 -224q-25 -22 -38 -22q-11 0 -26 12l-16 14q-18 15 -18 28q0 7 10 24l190 310q11 16 24 16q9 0 16.5 -4.5t19.5 -15.5l98 -84q16 -13 16 -24zM566 1092q-25 -22 -38 -22q-11 0 -26 12l-16 14q-18 15 -18 28q0 7 10 24l190 310
q11 16 24 16q9 0 16.5 -4.5t19.5 -15.5l98 -84q16 -13 16 -24q0 -8 -5.5 -14.5t-16.5 -15.5z" />
    <glyph glyph-name="ogonek" unicode="&#x2db;" horiz-adv-x="624" 
d="M270 -420q-37 0 -69.5 11t-57 30.5t-39 47t-14.5 61.5q0 37 15.5 73.5t42.5 70.5t63.5 65.5t78.5 60.5h102q-29 -31 -52 -58t-39 -52.5t-24.5 -52t-8.5 -55.5q0 -36 22.5 -57t55.5 -21q42 0 84 18q15 8 23 7t17 -15l12 -22q8 -17 3 -30t-25 -28q-30 -20 -80.5 -37
t-109.5 -17z" />
    <glyph glyph-name="caron" unicode="&#x2c7;" horiz-adv-x="844" 
d="M636 1424q14 6 21.5 8t12.5 2q21 0 32 -22l14 -24q6 -11 7 -15t1 -9q0 -15 -18 -30l-288 -212q-8 -6 -16 -11t-16 -5t-14 4t-14 10l-218 212q-8 8 -12 14t-4 14q0 6 2.5 12t7.5 14l18 28q11 20 30 20q10 0 22 -6l206 -100z" />
    <glyph glyph-name="uni0326" unicode="&#x326;" horiz-adv-x="442" 
d="M250 -60q53 0 87.5 -31t34.5 -81q0 -43 -20.5 -79.5t-54 -68.5t-76.5 -61l-87 -57q-18 -12 -32 -12q-15 0 -26 14l-6 8q-8 11 -10 15.5t-2 10.5t4 12.5t16 15.5l39.5 34.5t40.5 41.5q-30 14 -47 39t-17 57q0 29 12.5 55t34 45.5t49.5 30.5t60 11z" />
    <glyph glyph-name="uni0312" unicode="&#x312;" horiz-adv-x="442" 
d="M178 1122q-53 0 -87.5 31t-34.5 81q0 43 21 79.5t54.5 69t76 61.5t86.5 56q18 12 32 12q15 0 26 -14l6 -8q8 -11 10 -15.5t2 -10.5t-4 -12.5t-16 -15.5l-39.5 -34.5t-40.5 -41.5q30 -14 47 -39t17 -57q0 -29 -12.5 -55t-34 -45.5t-50 -30.5t-59.5 -11z" />
    <glyph glyph-name="uni0315" unicode="&#x315;" horiz-adv-x="474" 
d="M184 1052q-8 -14 -15.5 -19t-16.5 -5q-5 0 -9.5 1t-10.5 3l-20 6q-14 5 -20 11.5t-6 18.5q0 3 1.5 12t6.5 26l90 348q6 26 24 26q5 0 9 -1t9 -3l128 -40q12 -3 17 -9.5t5 -14.5t-6 -20z" />
    <glyph glyph-name="grave.case" horiz-adv-x="646" 
d="M266 1784q12 0 24 -12l254 -262q14 -14 14 -28q0 -6 -2 -12t-8 -14l-18 -24q-15 -18 -30 -18q-6 0 -12 2.5t-12 5.5l-316 180q-20 11 -20 26q0 7 10 20l92 122q11 14 24 14z" />
    <glyph glyph-name="acute.case" horiz-adv-x="648" 
d="M294 1418q-6 -3 -12 -5.5t-12 -2.5q-15 0 -30 18l-18 24q-6 8 -8 14t-2 12q0 14 14 28l254 262q12 12 24 12q13 0 24 -14l92 -122q5 -6 7.5 -11t2.5 -11q0 -13 -20 -24z" />
    <glyph glyph-name="dieresis.case" horiz-adv-x="896" 
d="M832 1608q0 -34 -13 -62.5t-35 -49.5t-51.5 -32.5t-62.5 -11.5q-57 0 -92.5 33.5t-35.5 86.5q0 34 13 62.5t35 49.5t51 32.5t61 11.5q59 0 94.5 -33.5t35.5 -86.5zM440 1608q0 -34 -13 -62.5t-35 -49.5t-51.5 -32.5t-62.5 -11.5q-57 0 -92.5 33.5t-35.5 86.5
q0 34 13 62.5t35 49.5t51 32.5t61 11.5q59 0 94.5 -33.5t35.5 -86.5z" />
    <glyph glyph-name="circumflex.case" horiz-adv-x="844" 
d="M468 1544l-222 -94q-18 -8 -25.5 -10t-12.5 -2q-6 0 -14 4t-16 18l-14 24q-3 6 -5.5 12t-2.5 12q0 16 20 30l294 216q8 6 14 8t14 2q14 0 28 -14l216 -212q16 -16 16 -30q0 -13 -10 -26l-18 -24q-8 -9 -15.5 -14.5t-16.5 -5.5q-10 0 -22 6z" />
    <glyph glyph-name="tilde.case" horiz-adv-x="868" 
d="M592 1442q-38 0 -70 13.5t-62 30t-58.5 30.5t-57.5 14q-36 0 -63 -12.5t-53 -39.5q-14 -14 -28 -14q-6 0 -11.5 2t-14.5 8l-20 14q-18 12 -18 30q0 10 6 22q16 31 38 62.5t50 57t61.5 42t74.5 16.5q37 0 69.5 -14t62.5 -30.5t58.5 -30t57.5 -13.5q41 0 66.5 12t49.5 38
q8 9 15 12.5t15 3.5q11 0 24 -10l20 -14q18 -12 18 -30q0 -10 -6 -22q-17 -31 -38.5 -62.5t-49.5 -57t-62 -42t-74 -16.5z" />
    <glyph glyph-name="macron.case" horiz-adv-x="776" 
d="M654 1644q32 0 32 -30v-5.5t-2 -12.5l-12 -84q-3 -20 -11.5 -28t-28.5 -8h-430q-32 0 -32 30v4.5t2 13.5l12 84q3 20 11.5 28t28.5 8h430z" />
    <glyph glyph-name="breve.case" horiz-adv-x="816" 
d="M450 1620q22 0 47 5.5t51 17.5t51.5 31t48.5 46q11 12 17.5 17t14.5 5t24 -8l30 -16q22 -11 22 -30q0 -3 -1 -8t-3 -10q-21 -47 -53.5 -89t-74 -74.5t-91.5 -51.5t-105 -19t-97 18.5t-72.5 48.5t-50 69t-28.5 80q-2 6 -3 12.5t-1 15.5q0 24 28 38l32 16q12 6 20 6
q16 0 28 -24q13 -26 32.5 -44t42 -29.5t46 -17t45.5 -5.5z" />
    <glyph glyph-name="dotaccent.case" horiz-adv-x="484" 
d="M446 1624q0 -37 -14.5 -68.5t-39 -54.5t-57 -36t-69.5 -13q-32 0 -58 10t-44.5 28t-29 42.5t-10.5 53.5q0 37 14.5 68.5t38.5 54.5t56.5 36t68.5 13q65 0 104.5 -37.5t39.5 -96.5z" />
    <glyph glyph-name="ring.case" horiz-adv-x="704" 
d="M368 1394q-59 0 -101 17t-69 47t-39.5 69.5t-12.5 84.5q0 51 19.5 100t56 88t88 62.5t116.5 23.5q58 0 100 -17t69 -47t40 -69.5t13 -84.5q0 -51 -19.5 -100t-56 -88t-88.5 -62.5t-116 -23.5zM418 1772q-32 0 -58.5 -13.5t-45 -35t-28.5 -49.5t-10 -56q0 -47 26 -78.5
t74 -31.5q32 0 58.5 13.5t45 35t28.5 49t10 56.5q0 47 -26 78.5t-74 31.5z" />
    <glyph glyph-name="hungarumlaut.case" horiz-adv-x="942" 
d="M580 1422q-25 -22 -38 -22q-11 0 -26 12l-16 14q-18 15 -18 28q0 7 10 24l190 310q11 16 24 16q9 0 16.5 -4.5t19.5 -15.5l98 -84q16 -13 16 -24q0 -8 -5.5 -14.5t-16.5 -15.5zM228 1422q-25 -22 -38 -22q-11 0 -26 12l-16 14q-18 15 -18 28q0 7 10 24l190 310
q11 16 24 16q9 0 16.5 -4.5t19.5 -15.5l98 -84q16 -13 16 -24q0 -8 -5.5 -14.5t-16.5 -15.5z" />
    <glyph glyph-name="caron.case" horiz-adv-x="844" 
d="M462 1658l226 96q14 6 21.5 8t12.5 2q21 0 32 -22l14 -24q6 -11 7 -15t1 -9q0 -15 -18 -30l-288 -212q-8 -6 -16 -11t-16 -5t-14 4t-14 10l-218 212q-8 8 -12 14t-4 14q0 6 2.5 12t7.5 14l18 28q11 20 30 20q10 0 22 -6z" />
    <glyph glyph-name="Adieresis" unicode="&#xc4;" horiz-adv-x="1336" 
d="M794 500q-21 142 -46 274.5t-54 259.5l-136 -259.5t-134 -274.5h370zM716 0q-36 0 -30 36l10 62q3 20 12.5 28t29.5 8h104q-6 57 -13 114t-15 114h-454l-51 -114l-49 -114h106q36 0 30 -36l-10 -62q-3 -20 -12.5 -28t-29.5 -8h-374q-32 0 -32 24q0 5 1 14t3 20l6 40
q3 20 12.5 28t29.5 8h80q67 154 142.5 308l154 302.5l157.5 287.5l154 262q9 17 21.5 23.5t32.5 6.5h130q20 0 30 -8t16 -26q36 -123 71 -261.5t66.5 -286.5t57.5 -301.5t45 -306.5h82q32 0 32 -24q0 -5 -1 -14t-3 -20l-6 -40q-3 -20 -12.5 -28t-29.5 -8h-494zM1176 1608
q0 -34 -13 -62.5t-35 -49.5t-51.5 -32.5t-62.5 -11.5q-57 0 -92.5 33.5t-35.5 86.5q0 34 13 62.5t35 49.5t51 32.5t61 11.5q59 0 94.5 -33.5t35.5 -86.5zM784 1608q0 -34 -13 -62.5t-35 -49.5t-51.5 -32.5t-62.5 -11.5q-57 0 -92.5 33.5t-35.5 86.5q0 34 13 62.5t35 49.5
t51 32.5t61 11.5q59 0 94.5 -33.5t35.5 -86.5z" />
    <glyph glyph-name="Aring" unicode="&#xc5;" horiz-adv-x="1336" 
d="M826 1588q-32 0 -58.5 -13.5t-45 -35t-28.5 -49.5t-10 -56q0 -47 26 -78.5t74 -31.5q32 0 58.5 13.5t45 35t28.5 49t10 56.5q0 47 -26 78.5t-74 31.5zM794 500q-21 142 -46 274.5t-54 259.5l-136 -259.5t-134 -274.5h370zM716 0q-36 0 -30 36l10 62q3 20 12.5 28t29.5 8
h104q-6 57 -13 114t-15 114h-454l-51 -114l-49 -114h106q36 0 30 -36l-10 -62q-3 -20 -12.5 -28t-29.5 -8h-376q-32 0 -32 24q0 5 1 14t3 20l6 40q3 20 13 28t31 8h80q64 145 135.5 291.5l145 288l148.5 275l147 253.5q-48 29 -70 78t-22 108q0 51 19.5 100t56 88t88 62.5
t116.5 23.5q58 0 100 -17t69 -47t40 -69.5t13 -84.5q0 -35 -9 -69t-26.5 -65t-43 -57t-57.5 -45q34 -121 67.5 -255t63 -276.5t54.5 -289.5t43 -293h80q32 0 32 -24q0 -5 -1 -14t-3 -20l-6 -40q-3 -20 -12.5 -28t-29.5 -8h-492z" />
    <glyph glyph-name="Agrave" unicode="&#xc0;" horiz-adv-x="1336" 
d="M794 500q-21 142 -46 274.5t-54 259.5l-136 -259.5t-134 -274.5h370zM716 0q-36 0 -30 36l10 62q3 20 12.5 28t29.5 8h104q-6 57 -13 114t-15 114h-454l-51 -114l-49 -114h106q36 0 30 -36l-10 -62q-3 -20 -12.5 -28t-29.5 -8h-374q-32 0 -32 24q0 5 1 14t3 20l6 40
q3 20 12.5 28t29.5 8h80q67 154 142.5 308l154 302.5l157.5 287.5l154 262q9 17 21.5 23.5t32.5 6.5h130q20 0 30 -8t16 -26q36 -123 71 -261.5t66.5 -286.5t57.5 -301.5t45 -306.5h82q32 0 32 -24q0 -5 -1 -14t-3 -20l-6 -40q-3 -20 -12.5 -28t-29.5 -8h-494zM664 1784
q12 0 24 -12l254 -262q14 -14 14 -28q0 -6 -2 -12t-8 -14l-18 -24q-15 -18 -30 -18q-6 0 -12 2.5t-12 5.5l-316 180q-20 11 -20 26q0 7 10 20l92 122q11 14 24 14z" />
    <glyph glyph-name="Atilde" unicode="&#xc3;" horiz-adv-x="1336" 
d="M794 500q-21 142 -46 274.5t-54 259.5l-136 -259.5t-134 -274.5h370zM716 0q-36 0 -30 36l10 62q3 20 12.5 28t29.5 8h104q-6 57 -13 114t-15 114h-454l-51 -114l-49 -114h106q36 0 30 -36l-10 -62q-3 -20 -12.5 -28t-29.5 -8h-374q-32 0 -32 24q0 5 1 14t3 20l6 40
q3 20 12.5 28t29.5 8h80q67 154 142.5 308l154 302.5l157.5 287.5l154 262q9 17 21.5 23.5t32.5 6.5h130q20 0 30 -8t16 -26q36 -123 71 -261.5t66.5 -286.5t57.5 -301.5t45 -306.5h82q32 0 32 -24q0 -5 -1 -14t-3 -20l-6 -40q-3 -20 -12.5 -28t-29.5 -8h-494zM948 1442
q-38 0 -70 13.5t-62 30t-58.5 30.5t-57.5 14q-36 0 -63 -12.5t-53 -39.5q-14 -14 -28 -14q-6 0 -11.5 2t-14.5 8l-20 14q-18 12 -18 30q0 10 6 22q16 31 38 62.5t50 57t61.5 42t74.5 16.5q37 0 69.5 -14t62.5 -30.5t58.5 -30t57.5 -13.5q41 0 66.5 12t49.5 38q8 9 15 12.5
t15 3.5q11 0 24 -10l20 -14q18 -12 18 -30q0 -10 -6 -22q-17 -31 -38.5 -62.5t-49.5 -57t-62 -42t-74 -16.5z" />
    <glyph glyph-name="Acircumflex" unicode="&#xc2;" horiz-adv-x="1336" 
d="M794 500q-21 142 -46 274.5t-54 259.5l-136 -259.5t-134 -274.5h370zM716 0q-36 0 -30 36l10 62q3 20 12.5 28t29.5 8h104q-6 57 -13 114t-15 114h-454l-51 -114l-49 -114h106q36 0 30 -36l-10 -62q-3 -20 -12.5 -28t-29.5 -8h-374q-32 0 -32 24q0 5 1 14t3 20l6 40
q3 20 12.5 28t29.5 8h80q67 154 142.5 308l154 302.5l157.5 287.5l154 262q9 17 21.5 23.5t32.5 6.5h130q20 0 30 -8t16 -26q36 -123 71 -261.5t66.5 -286.5t57.5 -301.5t45 -306.5h82q32 0 32 -24q0 -5 -1 -14t-3 -20l-6 -40q-3 -20 -12.5 -28t-29.5 -8h-494zM836 1544
l-222 -94q-18 -8 -25.5 -10t-12.5 -2q-6 0 -14 4t-16 18l-14 24q-3 6 -5.5 12t-2.5 12q0 16 20 30l294 216q8 6 14 8t14 2q14 0 28 -14l216 -212q16 -16 16 -30q0 -13 -10 -26l-18 -24q-8 -9 -15.5 -14.5t-16.5 -5.5q-10 0 -22 6z" />
    <glyph glyph-name="Aacute" unicode="&#xc1;" horiz-adv-x="1336" 
d="M794 500q-21 142 -46 274.5t-54 259.5l-136 -259.5t-134 -274.5h370zM716 0q-36 0 -30 36l10 62q3 20 12.5 28t29.5 8h104q-6 57 -13 114t-15 114h-454l-51 -114l-49 -114h106q36 0 30 -36l-10 -62q-3 -20 -12.5 -28t-29.5 -8h-374q-32 0 -32 24q0 5 1 14t3 20l6 40
q3 20 12.5 28t29.5 8h80q67 154 142.5 308l154 302.5l157.5 287.5l154 262q9 17 21.5 23.5t32.5 6.5h130q20 0 30 -8t16 -26q36 -123 71 -261.5t66.5 -286.5t57.5 -301.5t45 -306.5h82q32 0 32 -24q0 -5 -1 -14t-3 -20l-6 -40q-3 -20 -12.5 -28t-29.5 -8h-494zM738 1418
q-6 -3 -12 -5.5t-12 -2.5q-15 0 -30 18l-18 24q-6 8 -8 14t-2 12q0 14 14 28l254 262q12 12 24 12q13 0 24 -14l92 -122q5 -6 7.5 -11t2.5 -11q0 -13 -20 -24z" />
    <glyph glyph-name="Abreve" unicode="&#x102;" horiz-adv-x="1336" 
d="M794 500q-21 142 -46 274.5t-54 259.5l-136 -259.5t-134 -274.5h370zM716 0q-36 0 -30 36l10 62q3 20 12.5 28t29.5 8h104q-6 57 -13 114t-15 114h-454l-51 -114l-49 -114h106q36 0 30 -36l-10 -62q-3 -20 -12.5 -28t-29.5 -8h-374q-32 0 -32 24q0 5 1 14t3 20l6 40
q3 20 12.5 28t29.5 8h80q67 154 142.5 308l154 302.5l157.5 287.5l154 262q9 17 21.5 23.5t32.5 6.5h130q20 0 30 -8t16 -26q36 -123 71 -261.5t66.5 -286.5t57.5 -301.5t45 -306.5h82q32 0 32 -24q0 -5 -1 -14t-3 -20l-6 -40q-3 -20 -12.5 -28t-29.5 -8h-494zM834 1620
q22 0 47 5.5t51 17.5t51.5 31t48.5 46q11 12 17.5 17t14.5 5t24 -8l30 -16q22 -11 22 -30q0 -3 -1 -8t-3 -10q-21 -47 -53.5 -89t-74 -74.5t-91.5 -51.5t-105 -19t-97 18.5t-72.5 48.5t-50 69t-28.5 80q-2 6 -3 12.5t-1 15.5q0 24 28 38l32 16q12 6 20 6q16 0 28 -24
q13 -26 32.5 -44t42 -29.5t46 -17t45.5 -5.5z" />
    <glyph glyph-name="Amacron" unicode="&#x100;" horiz-adv-x="1336" 
d="M794 500q-21 142 -46 274.5t-54 259.5l-136 -259.5t-134 -274.5h370zM716 0q-36 0 -30 36l10 62q3 20 12.5 28t29.5 8h104q-6 57 -13 114t-15 114h-454l-51 -114l-49 -114h106q36 0 30 -36l-10 -62q-3 -20 -12.5 -28t-29.5 -8h-374q-32 0 -32 24q0 5 1 14t3 20l6 40
q3 20 12.5 28t29.5 8h80q67 154 142.5 308l154 302.5l157.5 287.5l154 262q9 17 21.5 23.5t32.5 6.5h130q20 0 30 -8t16 -26q36 -123 71 -261.5t66.5 -286.5t57.5 -301.5t45 -306.5h82q32 0 32 -24q0 -5 -1 -14t-3 -20l-6 -40q-3 -20 -12.5 -28t-29.5 -8h-494zM1056 1644
q32 0 32 -30v-5.5t-2 -12.5l-12 -84q-3 -20 -11.5 -28t-28.5 -8h-430q-32 0 -32 30v4.5t2 13.5l12 84q3 20 11.5 28t28.5 8h430z" />
    <glyph glyph-name="Aogonek" unicode="&#x104;" horiz-adv-x="1336" 
d="M794 500q-21 142 -46 274.5t-54 259.5l-136 -259.5t-134 -274.5h370zM70 134q67 154 142.5 308l154 302.5l157.5 287.5l154 262q9 17 21.5 23.5t32.5 6.5h130q20 0 30 -8t16 -26q36 -123 71 -261.5t66.5 -286.5t57.5 -301.5t45 -306.5h82q32 0 32 -24q0 -5 -1 -14t-3 -20
l-6 -40q-3 -20 -12.5 -28t-29.5 -8h-144l-43 -47t-40 -50.5t-29.5 -56.5t-11.5 -64q0 -36 22.5 -57t55.5 -21q45 0 84 18q17 8 24.5 7t15.5 -15l12 -22q9 -17 4 -30t-26 -28q-29 -20 -79.5 -37t-112.5 -17q-37 0 -69.5 11t-56.5 30.5t-38 47t-14 61.5q0 42 18.5 80.5
t47 72.5t64 63.5t70.5 53.5h-248q-36 0 -30 36l10 62q3 20 12.5 28t29.5 8h104q-6 57 -13 114t-15 114h-454l-51 -114l-49 -114h106q36 0 30 -36l-10 -62q-3 -20 -12.5 -28t-29.5 -8h-374q-32 0 -32 24q0 5 1 14t3 20l6 40q3 20 12.5 28t29.5 8h80z" />
    <glyph glyph-name="AE" unicode="&#xc6;" horiz-adv-x="1782" 
d="M948 1172l-244.5 -331.5t-227.5 -340.5h364zM1758 1018q-3 -20 -11.5 -28t-28.5 -8h-64q-20 0 -28 8t-10 28l-10 164h-362l-72 -440h244l18 108q3 20 12.5 28t29.5 8h68q36 0 30 -36l-56 -352q-3 -20 -12.5 -28t-29.5 -8h-68q-36 0 -30 36l18 108h-244l-76 -464h376
l76 194q11 34 48 34h64q36 0 30 -36l-56 -298q-3 -20 -12.5 -28t-29.5 -8h-896q-36 0 -30 36l10 62q3 20 12.5 28t29.5 8h84l36 228h-428l-67 -112l-69 -116h100q36 0 30 -36l-10 -62q-3 -20 -12.5 -28t-29.5 -8h-370q-32 0 -32 24q0 5 1 14t3 20l6 40q3 20 12.5 28t29.5 8
h64l173.5 272.5l178.5 271l179.5 261l178.5 243.5h-96q-36 0 -30 36l10 70q3 20 12.5 28t29.5 8h1078q21 0 27.5 -10t6.5 -22q0 -8 -2.5 -29.5t-5.5 -44.5z" />
    <glyph glyph-name="Ccedilla" unicode="&#xc7;" horiz-adv-x="1208" 
d="M538 -420q-46 0 -81 10.5t-59 28.5t-36 41t-12 48q0 16 5 31.5t15 27.5t24.5 19.5t33.5 7.5q24 0 43 -13t19 -39q0 -21 -10 -39t-34 -29q18 -12 39.5 -17t42.5 -5q22 0 41.5 7t34.5 19t23.5 29.5t8.5 38.5q0 41 -36.5 63.5t-99.5 34.5q-35 6 -16 38l60 100
q-120 8 -206.5 50t-142.5 109.5t-82.5 157.5t-26.5 195t22 209t65 198.5t107 175.5t149 140.5t189.5 93t229.5 33.5q97 0 169 -19t120 -53t71.5 -80t23.5 -100q0 -42 -11 -80t-33 -66.5t-54.5 -45t-75.5 -16.5q-26 0 -49.5 8t-41.5 23t-28.5 36.5t-10.5 48.5q0 54 27.5 91.5
t80.5 58.5q-36 24 -84 36t-98 12q-89 0 -157.5 -32.5t-120 -87.5t-87 -127.5t-57.5 -152t-32 -162t-10 -156.5q0 -166 69.5 -254t218.5 -88q46 0 87 7.5t78.5 22.5t74 36.5t74.5 49.5q17 12 28 11.5t22 -15.5l26 -36q15 -21 10 -36.5t-26 -33.5q-40 -33 -84 -61.5t-95 -50.5
t-110 -35.5t-129 -16.5l-30 -50q37 -2 71 -12t60.5 -29.5t42.5 -47.5t16 -65q0 -47 -20.5 -83t-55.5 -61.5t-81.5 -38.5t-98.5 -13z" />
    <glyph glyph-name="Cacute" unicode="&#x106;" horiz-adv-x="1208" 
d="M992 254q17 12 28 11.5t22 -15.5l26 -36q15 -21 10 -36.5t-26 -33.5q-42 -35 -89 -65t-101.5 -52t-119 -34.5t-140.5 -12.5q-136 0 -233.5 38.5t-160.5 107.5t-92.5 163t-29.5 205q0 105 22 209t65 198.5t107 175.5t149 140.5t189.5 93t229.5 33.5q97 0 169 -19t120 -53
t71.5 -80t23.5 -100q0 -42 -11 -80t-33 -66.5t-54.5 -45t-75.5 -16.5q-26 0 -49.5 8t-41.5 23t-28.5 36.5t-10.5 48.5q0 54 27.5 91.5t80.5 58.5q-36 24 -84 36t-98 12q-89 0 -157.5 -32.5t-120 -87.5t-87 -127.5t-57.5 -152t-32 -162t-10 -156.5q0 -166 69.5 -254
t218.5 -88q46 0 87 7.5t78.5 22.5t74 36.5t74.5 49.5zM756 1418q-6 -3 -12 -5.5t-12 -2.5q-15 0 -30 18l-18 24q-6 8 -8 14t-2 12q0 14 14 28l254 262q12 12 24 12q13 0 24 -14l92 -122q5 -6 7.5 -11t2.5 -11q0 -13 -20 -24z" />
    <glyph glyph-name="Ccaron" unicode="&#x10c;" horiz-adv-x="1208" 
d="M992 254q17 12 28 11.5t22 -15.5l26 -36q15 -21 10 -36.5t-26 -33.5q-42 -35 -89 -65t-101.5 -52t-119 -34.5t-140.5 -12.5q-136 0 -233.5 38.5t-160.5 107.5t-92.5 163t-29.5 205q0 105 22 209t65 198.5t107 175.5t149 140.5t189.5 93t229.5 33.5q97 0 169 -19t120 -53
t71.5 -80t23.5 -100q0 -42 -11 -80t-33 -66.5t-54.5 -45t-75.5 -16.5q-26 0 -49.5 8t-41.5 23t-28.5 36.5t-10.5 48.5q0 54 27.5 91.5t80.5 58.5q-36 24 -84 36t-98 12q-89 0 -157.5 -32.5t-120 -87.5t-87 -127.5t-57.5 -152t-32 -162t-10 -156.5q0 -166 69.5 -254
t218.5 -88q46 0 87 7.5t78.5 22.5t74 36.5t74.5 49.5zM854 1658l226 96q14 6 21.5 8t12.5 2q21 0 32 -22l14 -24q6 -11 7 -15t1 -9q0 -15 -18 -30l-288 -212q-8 -6 -16 -11t-16 -5t-14 4t-14 10l-218 212q-8 8 -12 14t-4 14q0 6 2.5 12t7.5 14l18 28q11 20 30 20q10 0 22 -6
z" />
    <glyph glyph-name="Ccircumflex" unicode="&#x108;" horiz-adv-x="1208" 
d="M992 254q17 12 28 11.5t22 -15.5l26 -36q15 -21 10 -36.5t-26 -33.5q-42 -35 -89 -65t-101.5 -52t-119 -34.5t-140.5 -12.5q-136 0 -233.5 38.5t-160.5 107.5t-92.5 163t-29.5 205q0 105 22 209t65 198.5t107 175.5t149 140.5t189.5 93t229.5 33.5q97 0 169 -19t120 -53
t71.5 -80t23.5 -100q0 -42 -11 -80t-33 -66.5t-54.5 -45t-75.5 -16.5q-26 0 -49.5 8t-41.5 23t-28.5 36.5t-10.5 48.5q0 54 27.5 91.5t80.5 58.5q-36 24 -84 36t-98 12q-89 0 -157.5 -32.5t-120 -87.5t-87 -127.5t-57.5 -152t-32 -162t-10 -156.5q0 -166 69.5 -254
t218.5 -88q46 0 87 7.5t78.5 22.5t74 36.5t74.5 49.5zM854 1544l-222 -94q-18 -8 -25.5 -10t-12.5 -2q-6 0 -14 4t-16 18l-14 24q-3 6 -5.5 12t-2.5 12q0 16 20 30l294 216q8 6 14 8t14 2q14 0 28 -14l216 -212q16 -16 16 -30q0 -13 -10 -26l-18 -24q-8 -9 -15.5 -14.5
t-16.5 -5.5q-10 0 -22 6z" />
    <glyph glyph-name="Cdotaccent" unicode="&#x10a;" horiz-adv-x="1208" 
d="M992 254q17 12 28 11.5t22 -15.5l26 -36q15 -21 10 -36.5t-26 -33.5q-42 -35 -89 -65t-101.5 -52t-119 -34.5t-140.5 -12.5q-136 0 -233.5 38.5t-160.5 107.5t-92.5 163t-29.5 205q0 105 22 209t65 198.5t107 175.5t149 140.5t189.5 93t229.5 33.5q97 0 169 -19t120 -53
t71.5 -80t23.5 -100q0 -42 -11 -80t-33 -66.5t-54.5 -45t-75.5 -16.5q-26 0 -49.5 8t-41.5 23t-28.5 36.5t-10.5 48.5q0 54 27.5 91.5t80.5 58.5q-36 24 -84 36t-98 12q-89 0 -157.5 -32.5t-120 -87.5t-87 -127.5t-57.5 -152t-32 -162t-10 -156.5q0 -166 69.5 -254
t218.5 -88q46 0 87 7.5t78.5 22.5t74 36.5t74.5 49.5zM1018 1624q0 -37 -14.5 -68.5t-39 -54.5t-57 -36t-69.5 -13q-32 0 -58 10t-44.5 28t-29 42.5t-10.5 53.5q0 37 14.5 68.5t38.5 54.5t56.5 36t68.5 13q65 0 104.5 -37.5t39.5 -96.5z" />
    <glyph glyph-name="Dcaron" unicode="&#x10e;" horiz-adv-x="1372" 
d="M1342 754q0 -99 -24.5 -193t-70.5 -177.5t-112.5 -154t-150.5 -121.5t-184.5 -79.5t-213.5 -28.5h-546q-36 0 -30 36l10 62q3 20 12.5 28t29.5 8h82l168 1056h-82q-36 0 -30 36l10 62q3 20 12.5 28t29.5 8h540q130 0 232 -43.5t172.5 -120t108 -181t37.5 -225.5z
M1038 778q0 86 -16.5 160t-52.5 128t-93.5 85t-139.5 31h-130l-168 -1040h136q87 0 155.5 27.5t120 74.5t87.5 110t58.5 133.5t32.5 145t10 145.5zM796 1658l226 96q14 6 21.5 8t12.5 2q21 0 32 -22l14 -24q6 -11 7 -15t1 -9q0 -15 -18 -30l-288 -212q-8 -6 -16 -11t-16 -5
t-14 4t-14 10l-218 212q-8 8 -12 14t-4 14q0 6 2.5 12t7.5 14l18 28q11 20 30 20q10 0 22 -6z" />
    <glyph glyph-name="Eth" unicode="&#xd0;" horiz-adv-x="1388" 
d="M1358 754q0 -99 -24.5 -193t-70.5 -177.5t-112.5 -154t-150.5 -121.5t-184.5 -79.5t-213.5 -28.5h-546q-36 0 -30 36l10 62q3 20 12.5 28t29.5 8h82l74 464h-122q-36 0 -30 36l10 62q3 20 12.5 28t29.5 8h122l72 458h-82q-36 0 -30 36l10 62q3 20 12.5 28t29.5 8h540
q130 0 232 -43.5t172.5 -120t108 -181t37.5 -225.5zM792 634q-3 -20 -12.5 -28t-29.5 -8h-222l-74 -456h136q87 0 155.5 27.5t120 74.5t87.5 110t58.5 133.5t32.5 145t10 145.5q0 86 -16.5 160t-52.5 128t-93.5 85t-139.5 31h-130l-72 -450h222q36 0 30 -36z" />
    <glyph glyph-name="Dcroat" unicode="&#x110;" horiz-adv-x="1388" 
d="M1358 754q0 -99 -24.5 -193t-70.5 -177.5t-112.5 -154t-150.5 -121.5t-184.5 -79.5t-213.5 -28.5h-546q-36 0 -30 36l10 62q3 20 12.5 28t29.5 8h82l74 464h-122q-36 0 -30 36l10 62q3 20 12.5 28t29.5 8h122l72 458h-82q-36 0 -30 36l10 62q3 20 12.5 28t29.5 8h540
q130 0 232 -43.5t172.5 -120t108 -181t37.5 -225.5zM792 634q-3 -20 -12.5 -28t-29.5 -8h-222l-74 -456h136q87 0 155.5 27.5t120 74.5t87.5 110t58.5 133.5t32.5 145t10 145.5q0 86 -16.5 160t-52.5 128t-93.5 85t-139.5 31h-130l-72 -450h222q36 0 30 -36z" />
    <glyph glyph-name="Eacute" unicode="&#xc9;" horiz-adv-x="1144" 
d="M144 134l168 1056h-82q-36 0 -30 36l10 62q3 20 12.5 28t29.5 8h870q21 0 27.5 -10t6.5 -22q0 -8 -2.5 -29.5t-5.5 -44.5l-28 -200q-3 -20 -11.5 -28t-28.5 -8h-64q-20 0 -28 8t-10 28l-10 164h-362l-72 -440h244l18 108q3 20 12.5 28t29.5 8h68q36 0 30 -36l-56 -352
q-3 -20 -12.5 -28t-29.5 -8h-68q-36 0 -30 36l18 108h-244l-76 -464h376l76 194q11 34 48 34h64q36 0 30 -36l-56 -298q-3 -20 -12.5 -28t-29.5 -8h-892q-32 0 -32 24q0 5 1 14t3 20l6 40q3 20 12.5 28t29.5 8h82zM652 1418q-6 -3 -12 -5.5t-12 -2.5q-15 0 -30 18l-18 24
q-6 8 -8 14t-2 12q0 14 14 28l254 262q12 12 24 12q13 0 24 -14l92 -122q5 -6 7.5 -11t2.5 -11q0 -13 -20 -24z" />
    <glyph glyph-name="Ecircumflex" unicode="&#xca;" horiz-adv-x="1144" 
d="M144 134l168 1056h-82q-36 0 -30 36l10 62q3 20 12.5 28t29.5 8h870q21 0 27.5 -10t6.5 -22q0 -8 -2.5 -29.5t-5.5 -44.5l-28 -200q-3 -20 -11.5 -28t-28.5 -8h-64q-20 0 -28 8t-10 28l-10 164h-362l-72 -440h244l18 108q3 20 12.5 28t29.5 8h68q36 0 30 -36l-56 -352
q-3 -20 -12.5 -28t-29.5 -8h-68q-36 0 -30 36l18 108h-244l-76 -464h376l76 194q11 34 48 34h64q36 0 30 -36l-56 -298q-3 -20 -12.5 -28t-29.5 -8h-892q-32 0 -32 24q0 5 1 14t3 20l6 40q3 20 12.5 28t29.5 8h82zM750 1544l-222 -94q-18 -8 -25.5 -10t-12.5 -2q-6 0 -14 4
t-16 18l-14 24q-3 6 -5.5 12t-2.5 12q0 16 20 30l294 216q8 6 14 8t14 2q14 0 28 -14l216 -212q16 -16 16 -30q0 -13 -10 -26l-18 -24q-8 -9 -15.5 -14.5t-16.5 -5.5q-10 0 -22 6z" />
    <glyph glyph-name="Edieresis" unicode="&#xcb;" horiz-adv-x="1144" 
d="M144 134l168 1056h-82q-36 0 -30 36l10 62q3 20 12.5 28t29.5 8h870q21 0 27.5 -10t6.5 -22q0 -8 -2.5 -29.5t-5.5 -44.5l-28 -200q-3 -20 -11.5 -28t-28.5 -8h-64q-20 0 -28 8t-10 28l-10 164h-362l-72 -440h244l18 108q3 20 12.5 28t29.5 8h68q36 0 30 -36l-56 -352
q-3 -20 -12.5 -28t-29.5 -8h-68q-36 0 -30 36l18 108h-244l-76 -464h376l76 194q11 34 48 34h64q36 0 30 -36l-56 -298q-3 -20 -12.5 -28t-29.5 -8h-892q-32 0 -32 24q0 5 1 14t3 20l6 40q3 20 12.5 28t29.5 8h82zM1090 1608q0 -34 -13 -62.5t-35 -49.5t-51.5 -32.5
t-62.5 -11.5q-57 0 -92.5 33.5t-35.5 86.5q0 34 13 62.5t35 49.5t51 32.5t61 11.5q59 0 94.5 -33.5t35.5 -86.5zM698 1608q0 -34 -13 -62.5t-35 -49.5t-51.5 -32.5t-62.5 -11.5q-57 0 -92.5 33.5t-35.5 86.5q0 34 13 62.5t35 49.5t51 32.5t61 11.5q59 0 94.5 -33.5
t35.5 -86.5z" />
    <glyph glyph-name="Egrave" unicode="&#xc8;" horiz-adv-x="1144" 
d="M144 134l168 1056h-82q-36 0 -30 36l10 62q3 20 12.5 28t29.5 8h870q21 0 27.5 -10t6.5 -22q0 -8 -2.5 -29.5t-5.5 -44.5l-28 -200q-3 -20 -11.5 -28t-28.5 -8h-64q-20 0 -28 8t-10 28l-10 164h-362l-72 -440h244l18 108q3 20 12.5 28t29.5 8h68q36 0 30 -36l-56 -352
q-3 -20 -12.5 -28t-29.5 -8h-68q-36 0 -30 36l18 108h-244l-76 -464h376l76 194q11 34 48 34h64q36 0 30 -36l-56 -298q-3 -20 -12.5 -28t-29.5 -8h-892q-32 0 -32 24q0 5 1 14t3 20l6 40q3 20 12.5 28t29.5 8h82zM578 1784q12 0 24 -12l254 -262q14 -14 14 -28q0 -6 -2 -12
t-8 -14l-18 -24q-15 -18 -30 -18q-6 0 -12 2.5t-12 5.5l-316 180q-20 11 -20 26q0 7 10 20l92 122q11 14 24 14z" />
    <glyph glyph-name="Ebreve" unicode="&#x114;" horiz-adv-x="1144" 
d="M144 134l168 1056h-82q-36 0 -30 36l10 62q3 20 12.5 28t29.5 8h870q21 0 27.5 -10t6.5 -22q0 -8 -2.5 -29.5t-5.5 -44.5l-28 -200q-3 -20 -11.5 -28t-28.5 -8h-64q-20 0 -28 8t-10 28l-10 164h-362l-72 -440h244l18 108q3 20 12.5 28t29.5 8h68q36 0 30 -36l-56 -352
q-3 -20 -12.5 -28t-29.5 -8h-68q-36 0 -30 36l18 108h-244l-76 -464h376l76 194q11 34 48 34h64q36 0 30 -36l-56 -298q-3 -20 -12.5 -28t-29.5 -8h-892q-32 0 -32 24q0 5 1 14t3 20l6 40q3 20 12.5 28t29.5 8h82zM748 1620q22 0 47 5.5t51 17.5t51.5 31t48.5 46
q11 12 17.5 17t14.5 5t24 -8l30 -16q22 -11 22 -30q0 -3 -1 -8t-3 -10q-21 -47 -53.5 -89t-74 -74.5t-91.5 -51.5t-105 -19t-97 18.5t-72.5 48.5t-50 69t-28.5 80q-2 6 -3 12.5t-1 15.5q0 24 28 38l32 16q12 6 20 6q16 0 28 -24q13 -26 32.5 -44t42 -29.5t46 -17t45.5 -5.5z
" />
    <glyph glyph-name="Ecaron" unicode="&#x11a;" horiz-adv-x="1144" 
d="M144 134l168 1056h-82q-36 0 -30 36l10 62q3 20 12.5 28t29.5 8h870q21 0 27.5 -10t6.5 -22q0 -8 -2.5 -29.5t-5.5 -44.5l-28 -200q-3 -20 -11.5 -28t-28.5 -8h-64q-20 0 -28 8t-10 28l-10 164h-362l-72 -440h244l18 108q3 20 12.5 28t29.5 8h68q36 0 30 -36l-56 -352
q-3 -20 -12.5 -28t-29.5 -8h-68q-36 0 -30 36l18 108h-244l-76 -464h376l76 194q11 34 48 34h64q36 0 30 -36l-56 -298q-3 -20 -12.5 -28t-29.5 -8h-892q-32 0 -32 24q0 5 1 14t3 20l6 40q3 20 12.5 28t29.5 8h82zM750 1658l226 96q14 6 21.5 8t12.5 2q21 0 32 -22l14 -24
q6 -11 7 -15t1 -9q0 -15 -18 -30l-288 -212q-8 -6 -16 -11t-16 -5t-14 4t-14 10l-218 212q-8 8 -12 14t-4 14q0 6 2.5 12t7.5 14l18 28q11 20 30 20q10 0 22 -6z" />
    <glyph glyph-name="Edotaccent" unicode="&#x116;" horiz-adv-x="1144" 
d="M144 134l168 1056h-82q-36 0 -30 36l10 62q3 20 12.5 28t29.5 8h870q21 0 27.5 -10t6.5 -22q0 -8 -2.5 -29.5t-5.5 -44.5l-28 -200q-3 -20 -11.5 -28t-28.5 -8h-64q-20 0 -28 8t-10 28l-10 164h-362l-72 -440h244l18 108q3 20 12.5 28t29.5 8h68q36 0 30 -36l-56 -352
q-3 -20 -12.5 -28t-29.5 -8h-68q-36 0 -30 36l18 108h-244l-76 -464h376l76 194q11 34 48 34h64q36 0 30 -36l-56 -298q-3 -20 -12.5 -28t-29.5 -8h-892q-32 0 -32 24q0 5 1 14t3 20l6 40q3 20 12.5 28t29.5 8h82zM914 1624q0 -37 -14.5 -68.5t-39 -54.5t-57 -36t-69.5 -13
q-32 0 -58 10t-44.5 28t-29 42.5t-10.5 53.5q0 37 14.5 68.5t38.5 54.5t56.5 36t68.5 13q65 0 104.5 -37.5t39.5 -96.5z" />
    <glyph glyph-name="Emacron" unicode="&#x112;" horiz-adv-x="1144" 
d="M144 134l168 1056h-82q-36 0 -30 36l10 62q3 20 12.5 28t29.5 8h870q21 0 27.5 -10t6.5 -22q0 -8 -2.5 -29.5t-5.5 -44.5l-28 -200q-3 -20 -11.5 -28t-28.5 -8h-64q-20 0 -28 8t-10 28l-10 164h-362l-72 -440h244l18 108q3 20 12.5 28t29.5 8h68q36 0 30 -36l-56 -352
q-3 -20 -12.5 -28t-29.5 -8h-68q-36 0 -30 36l18 108h-244l-76 -464h376l76 194q11 34 48 34h64q36 0 30 -36l-56 -298q-3 -20 -12.5 -28t-29.5 -8h-892q-32 0 -32 24q0 5 1 14t3 20l6 40q3 20 12.5 28t29.5 8h82zM970 1644q32 0 32 -30v-5.5t-2 -12.5l-12 -84
q-3 -20 -11.5 -28t-28.5 -8h-430q-32 0 -32 30v4.5t2 13.5l12 84q3 20 11.5 28t28.5 8h430z" />
    <glyph glyph-name="Eogonek" unicode="&#x118;" horiz-adv-x="1144" 
d="M1122 1324q21 0 27.5 -10t6.5 -22q0 -8 -2.5 -29.5t-5.5 -44.5l-28 -200q-3 -20 -11.5 -28t-28.5 -8h-64q-20 0 -28 8t-10 28l-10 164h-362l-72 -440h244l18 108q3 20 12.5 28t29.5 8h68q36 0 30 -36l-56 -352q-3 -20 -12.5 -28t-29.5 -8h-68q-36 0 -30 36l18 108h-244
l-76 -464h376l76 194q11 34 48 34h64q36 0 30 -36l-56 -298q-3 -20 -12.5 -28t-29.5 -8h-96l-43 -47t-40 -50.5t-29.5 -56.5t-11.5 -64q0 -36 22.5 -57t55.5 -21q45 0 84 18q17 8 24.5 7t15.5 -15l12 -22q9 -17 4 -30t-26 -28q-29 -20 -79.5 -37t-112.5 -17q-37 0 -69.5 11
t-56.5 30.5t-38 47t-14 61.5q0 42 18.5 80.5t47 72.5t64 63.5t70.5 53.5h-694q-32 0 -32 24q0 5 1 14t3 20l6 40q3 20 12.5 28t29.5 8h82l168 1056h-82q-36 0 -30 36l10 62q3 20 12.5 28t29.5 8h870z" />
    <glyph glyph-name="Gbreve" unicode="&#x11e;" horiz-adv-x="1362" 
d="M1148 124q-3 -20 -11.5 -30.5t-26.5 -19.5q-53 -26 -106.5 -44t-108.5 -29t-112.5 -16t-118.5 -5q-150 0 -259 42t-180 115t-105 170.5t-34 208.5q0 105 25.5 207.5t73.5 194.5t118 170t158 135t193.5 89t225.5 32q104 0 182 -19t129.5 -53t77 -80t25.5 -100
q0 -42 -11 -80t-33 -66.5t-54.5 -45t-75.5 -16.5q-26 0 -49.5 8t-41.5 23t-28.5 36.5t-10.5 48.5q0 104 100 146q-44 27 -101 39.5t-125 12.5q-85 0 -153.5 -32.5t-121.5 -87.5t-90.5 -127t-61.5 -151.5t-35.5 -161t-11.5 -154.5q0 -80 16.5 -146.5t52 -114t91 -73.5
t132.5 -26q45 0 88.5 5t87.5 19l58 368h-102q-36 0 -30 36l10 62q3 20 12.5 28t29.5 8h478q36 0 30 -36l-10 -62q-3 -20 -12.5 -28t-29.5 -8h-82zM884 1620q22 0 47 5.5t51 17.5t51.5 31t48.5 46q11 12 17.5 17t14.5 5t24 -8l30 -16q22 -11 22 -30q0 -3 -1 -8t-3 -10
q-21 -47 -53.5 -89t-74 -74.5t-91.5 -51.5t-105 -19t-97 18.5t-72.5 48.5t-50 69t-28.5 80q-2 6 -3 12.5t-1 15.5q0 24 28 38l32 16q12 6 20 6q16 0 28 -24q13 -26 32.5 -44t42 -29.5t46 -17t45.5 -5.5z" />
    <glyph glyph-name="Gcircumflex" unicode="&#x11c;" horiz-adv-x="1362" 
d="M1148 124q-3 -20 -11.5 -30.5t-26.5 -19.5q-53 -26 -106.5 -44t-108.5 -29t-112.5 -16t-118.5 -5q-150 0 -259 42t-180 115t-105 170.5t-34 208.5q0 105 25.5 207.5t73.5 194.5t118 170t158 135t193.5 89t225.5 32q104 0 182 -19t129.5 -53t77 -80t25.5 -100
q0 -42 -11 -80t-33 -66.5t-54.5 -45t-75.5 -16.5q-26 0 -49.5 8t-41.5 23t-28.5 36.5t-10.5 48.5q0 104 100 146q-44 27 -101 39.5t-125 12.5q-85 0 -153.5 -32.5t-121.5 -87.5t-90.5 -127t-61.5 -151.5t-35.5 -161t-11.5 -154.5q0 -80 16.5 -146.5t52 -114t91 -73.5
t132.5 -26q45 0 88.5 5t87.5 19l58 368h-102q-36 0 -30 36l10 62q3 20 12.5 28t29.5 8h478q36 0 30 -36l-10 -62q-3 -20 -12.5 -28t-29.5 -8h-82zM886 1544l-222 -94q-18 -8 -25.5 -10t-12.5 -2q-6 0 -14 4t-16 18l-14 24q-3 6 -5.5 12t-2.5 12q0 16 20 30l294 216q8 6 14 8
t14 2q14 0 28 -14l216 -212q16 -16 16 -30q0 -13 -10 -26l-18 -24q-8 -9 -15.5 -14.5t-16.5 -5.5q-10 0 -22 6z" />
    <glyph glyph-name="Gcommaaccent" unicode="&#x122;" horiz-adv-x="1362" 
d="M1148 124q-3 -20 -11.5 -30.5t-26.5 -19.5q-53 -26 -106.5 -44t-108.5 -29t-112.5 -16t-118.5 -5q-150 0 -259 42t-180 115t-105 170.5t-34 208.5q0 105 25.5 207.5t73.5 194.5t118 170t158 135t193.5 89t225.5 32q104 0 182 -19t129.5 -53t77 -80t25.5 -100
q0 -42 -11 -80t-33 -66.5t-54.5 -45t-75.5 -16.5q-26 0 -49.5 8t-41.5 23t-28.5 36.5t-10.5 48.5q0 104 100 146q-44 27 -101 39.5t-125 12.5q-85 0 -153.5 -32.5t-121.5 -87.5t-90.5 -127t-61.5 -151.5t-35.5 -161t-11.5 -154.5q0 -80 16.5 -146.5t52 -114t91 -73.5
t132.5 -26q45 0 88.5 5t87.5 19l58 368h-102q-36 0 -30 36l10 62q3 20 12.5 28t29.5 8h478q36 0 30 -36l-10 -62q-3 -20 -12.5 -28t-29.5 -8h-82zM628 -60q53 0 87.5 -31t34.5 -81q0 -43 -20.5 -79.5t-54 -68.5t-76.5 -61l-87 -57q-18 -12 -32 -12q-15 0 -26 14l-6 8
q-8 11 -10 15.5t-2 10.5t4 12.5t16 15.5l39.5 34.5t40.5 41.5q-30 14 -47 39t-17 57q0 29 12.5 55t34 45.5t49.5 30.5t60 11z" />
    <glyph glyph-name="Gdotaccent" unicode="&#x120;" horiz-adv-x="1362" 
d="M1148 124q-3 -20 -11.5 -30.5t-26.5 -19.5q-53 -26 -106.5 -44t-108.5 -29t-112.5 -16t-118.5 -5q-150 0 -259 42t-180 115t-105 170.5t-34 208.5q0 105 25.5 207.5t73.5 194.5t118 170t158 135t193.5 89t225.5 32q104 0 182 -19t129.5 -53t77 -80t25.5 -100
q0 -42 -11 -80t-33 -66.5t-54.5 -45t-75.5 -16.5q-26 0 -49.5 8t-41.5 23t-28.5 36.5t-10.5 48.5q0 104 100 146q-44 27 -101 39.5t-125 12.5q-85 0 -153.5 -32.5t-121.5 -87.5t-90.5 -127t-61.5 -151.5t-35.5 -161t-11.5 -154.5q0 -80 16.5 -146.5t52 -114t91 -73.5
t132.5 -26q45 0 88.5 5t87.5 19l58 368h-102q-36 0 -30 36l10 62q3 20 12.5 28t29.5 8h478q36 0 30 -36l-10 -62q-3 -20 -12.5 -28t-29.5 -8h-82zM1050 1624q0 -37 -14.5 -68.5t-39 -54.5t-57 -36t-69.5 -13q-32 0 -58 10t-44.5 28t-29 42.5t-10.5 53.5q0 37 14.5 68.5
t38.5 54.5t56.5 36t68.5 13q65 0 104.5 -37.5t39.5 -96.5z" />
    <glyph glyph-name="Hbar" unicode="&#x126;" horiz-adv-x="1546" 
d="M1066 700l28 176h-518l-28 -176h518zM62 0q-32 0 -32 24q0 5 1 14t3 20l6 40q3 20 12.5 28t29.5 8h82l118 742h-122q-36 0 -30 36l10 62q3 20 12.5 28t29.5 8h122l28 180h-82q-36 0 -30 36l10 62q3 20 12.5 28t29.5 8h458q36 0 30 -36l-10 -62q-3 -20 -12.5 -28t-29.5 -8
h-82l-28 -180h518l28 180h-82q-36 0 -30 36l10 62q3 20 12.5 28t29.5 8h456q32 0 32 -24q0 -5 -1 -14t-3 -20l-6 -40q-3 -20 -12.5 -28t-29.5 -8h-82l-28 -180h114q14 0 22 -7.5t8 -22.5q0 -5 -1 -12t-3 -18l-6 -38q-3 -20 -12.5 -28t-29.5 -8h-114l-118 -742h82
q36 0 30 -36l-10 -62q-3 -20 -12.5 -28t-29.5 -8h-458q-36 0 -30 36l10 62q3 20 12.5 28t29.5 8h82l68 422h-518l-68 -422h82q36 0 30 -36l-10 -62q-3 -20 -12.5 -28t-29.5 -8h-456z" />
    <glyph glyph-name="Hcircumflex" unicode="&#x124;" horiz-adv-x="1506" 
d="M1520 1324q32 0 32 -24q0 -5 -1 -14t-3 -20l-6 -40q-3 -20 -12.5 -28t-29.5 -8h-82l-168 -1056h82q36 0 30 -36l-10 -62q-3 -20 -12.5 -28t-29.5 -8h-458q-36 0 -30 36l10 62q3 20 12.5 28t29.5 8h82l74 464h-518l-74 -464h82q36 0 30 -36l-10 -62q-3 -20 -12.5 -28
t-29.5 -8h-456q-32 0 -32 24q0 5 1 14t3 20l6 40q3 20 12.5 28t29.5 8h82l168 1056h-82q-36 0 -30 36l10 62q3 20 12.5 28t29.5 8h458q36 0 30 -36l-10 -62q-3 -20 -12.5 -28t-29.5 -8h-82l-72 -448h518l72 448h-82q-36 0 -30 36l10 62q3 20 12.5 28t29.5 8h456v0zM920 1544
l-222 -94q-18 -8 -25.5 -10t-12.5 -2q-6 0 -14 4t-16 18l-14 24q-3 6 -5.5 12t-2.5 12q0 16 20 30l294 216q8 6 14 8t14 2q14 0 28 -14l216 -212q16 -16 16 -30q0 -13 -10 -26l-18 -24q-8 -9 -15.5 -14.5t-16.5 -5.5q-10 0 -22 6z" />
    <glyph glyph-name="Iacute" unicode="&#xcd;" horiz-adv-x="694" 
d="M606 1190l-168 -1056h82q36 0 30 -36l-10 -62q-3 -20 -12.5 -28t-29.5 -8h-456q-32 0 -32 24q0 5 1 14t3 20l6 40q3 20 12.5 28t29.5 8h82l168 1056h-82q-36 0 -30 36l10 62q3 20 12.5 28t29.5 8h456q32 0 32 -24q0 -5 -1 -14t-3 -20l-6 -40q-3 -20 -12.5 -28t-29.5 -8
h-82zM418 1418q-6 -3 -12 -5.5t-12 -2.5q-15 0 -30 18l-18 24q-6 8 -8 14t-2 12q0 14 14 28l254 262q12 12 24 12q13 0 24 -14l92 -122q5 -6 7.5 -11t2.5 -11q0 -13 -20 -24z" />
    <glyph glyph-name="Icircumflex" unicode="&#xce;" horiz-adv-x="694" 
d="M606 1190l-168 -1056h82q36 0 30 -36l-10 -62q-3 -20 -12.5 -28t-29.5 -8h-456q-32 0 -32 24q0 5 1 14t3 20l6 40q3 20 12.5 28t29.5 8h82l168 1056h-82q-36 0 -30 36l10 62q3 20 12.5 28t29.5 8h456q32 0 32 -24q0 -5 -1 -14t-3 -20l-6 -40q-3 -20 -12.5 -28t-29.5 -8
h-82zM516 1544l-222 -94q-18 -8 -25.5 -10t-12.5 -2q-6 0 -14 4t-16 18l-14 24q-3 6 -5.5 12t-2.5 12q0 16 20 30l294 216q8 6 14 8t14 2q14 0 28 -14l216 -212q16 -16 16 -30q0 -13 -10 -26l-18 -24q-8 -9 -15.5 -14.5t-16.5 -5.5q-10 0 -22 6z" />
    <glyph glyph-name="Idieresis" unicode="&#xcf;" horiz-adv-x="694" 
d="M606 1190l-168 -1056h82q36 0 30 -36l-10 -62q-3 -20 -12.5 -28t-29.5 -8h-456q-32 0 -32 24q0 5 1 14t3 20l6 40q3 20 12.5 28t29.5 8h82l168 1056h-82q-36 0 -30 36l10 62q3 20 12.5 28t29.5 8h456q32 0 32 -24q0 -5 -1 -14t-3 -20l-6 -40q-3 -20 -12.5 -28t-29.5 -8
h-82zM856 1608q0 -34 -13 -62.5t-35 -49.5t-51.5 -32.5t-62.5 -11.5q-57 0 -92.5 33.5t-35.5 86.5q0 34 13 62.5t35 49.5t51 32.5t61 11.5q59 0 94.5 -33.5t35.5 -86.5zM464 1608q0 -34 -13 -62.5t-35 -49.5t-51.5 -32.5t-62.5 -11.5q-57 0 -92.5 33.5t-35.5 86.5
q0 34 13 62.5t35 49.5t51 32.5t61 11.5q59 0 94.5 -33.5t35.5 -86.5z" />
    <glyph glyph-name="Igrave" unicode="&#xcc;" horiz-adv-x="694" 
d="M606 1190l-168 -1056h82q36 0 30 -36l-10 -62q-3 -20 -12.5 -28t-29.5 -8h-456q-32 0 -32 24q0 5 1 14t3 20l6 40q3 20 12.5 28t29.5 8h82l168 1056h-82q-36 0 -30 36l10 62q3 20 12.5 28t29.5 8h456q32 0 32 -24q0 -5 -1 -14t-3 -20l-6 -40q-3 -20 -12.5 -28t-29.5 -8
h-82zM344 1784q12 0 24 -12l254 -262q14 -14 14 -28q0 -6 -2 -12t-8 -14l-18 -24q-15 -18 -30 -18q-6 0 -12 2.5t-12 5.5l-316 180q-20 11 -20 26q0 7 10 20l92 122q11 14 24 14z" />
    <glyph glyph-name="Ibreve" unicode="&#x12c;" horiz-adv-x="694" 
d="M606 1190l-168 -1056h82q36 0 30 -36l-10 -62q-3 -20 -12.5 -28t-29.5 -8h-456q-32 0 -32 24q0 5 1 14t3 20l6 40q3 20 12.5 28t29.5 8h82l168 1056h-82q-36 0 -30 36l10 62q3 20 12.5 28t29.5 8h456q32 0 32 -24q0 -5 -1 -14t-3 -20l-6 -40q-3 -20 -12.5 -28t-29.5 -8
h-82zM514 1620q22 0 47 5.5t51 17.5t51.5 31t48.5 46q11 12 17.5 17t14.5 5t24 -8l30 -16q22 -11 22 -30q0 -3 -1 -8t-3 -10q-21 -47 -53.5 -89t-74 -74.5t-91.5 -51.5t-105 -19t-97 18.5t-72.5 48.5t-50 69t-28.5 80q-2 6 -3 12.5t-1 15.5q0 24 28 38l32 16q12 6 20 6
q16 0 28 -24q13 -26 32.5 -44t42 -29.5t46 -17t45.5 -5.5z" />
    <glyph glyph-name="Imacron" unicode="&#x12a;" horiz-adv-x="694" 
d="M606 1190l-168 -1056h82q36 0 30 -36l-10 -62q-3 -20 -12.5 -28t-29.5 -8h-456q-32 0 -32 24q0 5 1 14t3 20l6 40q3 20 12.5 28t29.5 8h82l168 1056h-82q-36 0 -30 36l10 62q3 20 12.5 28t29.5 8h456q32 0 32 -24q0 -5 -1 -14t-3 -20l-6 -40q-3 -20 -12.5 -28t-29.5 -8
h-82zM736 1644q32 0 32 -30v-5.5t-2 -12.5l-12 -84q-3 -20 -11.5 -28t-28.5 -8h-430q-32 0 -32 30v4.5t2 13.5l12 84q3 20 11.5 28t28.5 8h430z" />
    <glyph glyph-name="Iogonek" unicode="&#x12e;" horiz-adv-x="694" 
d="M42 0q-32 0 -32 24q0 5 1 14t3 20l6 40q3 20 12.5 28t29.5 8h82l168 1056h-82q-36 0 -30 36l10 62q3 20 12.5 28t29.5 8h456q32 0 32 -24q0 -5 -1 -14t-3 -20l-6 -40q-3 -20 -12.5 -28t-29.5 -8h-82l-168 -1056h82q36 0 30 -36l-10 -62q-3 -20 -12.5 -28t-29.5 -8h-172
l-43 -47t-40 -50.5t-29.5 -56.5t-11.5 -64q0 -36 22.5 -57t55.5 -21q45 0 84 18q17 8 24.5 7t15.5 -15l12 -22q9 -17 4 -30t-26 -28q-29 -20 -79.5 -37t-112.5 -17q-37 0 -69.5 11t-56.5 30.5t-38 47t-14 61.5q0 42 18.5 80.5t47 72.5t64 63.5t70.5 53.5h-182v0z" />
    <glyph glyph-name="Itilde" unicode="&#x128;" horiz-adv-x="694" 
d="M606 1190l-168 -1056h82q36 0 30 -36l-10 -62q-3 -20 -12.5 -28t-29.5 -8h-456q-32 0 -32 24q0 5 1 14t3 20l6 40q3 20 12.5 28t29.5 8h82l168 1056h-82q-36 0 -30 36l10 62q3 20 12.5 28t29.5 8h456q32 0 32 -24q0 -5 -1 -14t-3 -20l-6 -40q-3 -20 -12.5 -28t-29.5 -8
h-82zM628 1442q-38 0 -70 13.5t-62 30t-58.5 30.5t-57.5 14q-36 0 -63 -12.5t-53 -39.5q-14 -14 -28 -14q-6 0 -11.5 2t-14.5 8l-20 14q-18 12 -18 30q0 10 6 22q16 31 38 62.5t50 57t61.5 42t74.5 16.5q37 0 69.5 -14t62.5 -30.5t58.5 -30t57.5 -13.5q41 0 66.5 12t49.5 38
q8 9 15 12.5t15 3.5q11 0 24 -10l20 -14q18 -12 18 -30q0 -10 -6 -22q-17 -31 -38.5 -62.5t-49.5 -57t-62 -42t-74 -16.5z" />
    <glyph glyph-name="Idotaccent" unicode="&#x130;" horiz-adv-x="694" 
d="M606 1190l-168 -1056h82q36 0 30 -36l-10 -62q-3 -20 -12.5 -28t-29.5 -8h-456q-32 0 -32 24q0 5 1 14t3 20l6 40q3 20 12.5 28t29.5 8h82l168 1056h-82q-36 0 -30 36l10 62q3 20 12.5 28t29.5 8h456q32 0 32 -24q0 -5 -1 -14t-3 -20l-6 -40q-3 -20 -12.5 -28t-29.5 -8
h-82zM680 1624q0 -37 -14.5 -68.5t-39 -54.5t-57 -36t-69.5 -13q-32 0 -58 10t-44.5 28t-29 42.5t-10.5 53.5q0 37 14.5 68.5t38.5 54.5t56.5 36t68.5 13q65 0 104.5 -37.5t39.5 -96.5z" />
    <glyph glyph-name="Jcircumflex" unicode="&#x134;" horiz-adv-x="1080" 
d="M1020 1190l-116 -724q-38 -236 -167 -361t-361 -125q-92 0 -162.5 19.5t-119 54t-73.5 82.5t-25 104q0 39 12 71.5t33 56.5t51 37t66 13q54 0 89 -30.5t35 -83.5q0 -45 -25.5 -81t-76.5 -59q32 -26 68.5 -35t81.5 -9q64 0 110 20t79 61t54 103t35 146l118 740h-102
q-36 0 -30 36l10 62q3 20 12.5 28t29.5 8h476q32 0 32 -24q0 -5 -1 -14t-3 -20l-6 -40q-3 -20 -12.5 -28t-29.5 -8h-82zM930 1544l-222 -94q-18 -8 -25.5 -10t-12.5 -2q-6 0 -14 4t-16 18l-14 24q-3 6 -5.5 12t-2.5 12q0 16 20 30l294 216q8 6 14 8t14 2q14 0 28 -14
l216 -212q16 -16 16 -30q0 -13 -10 -26l-18 -24q-8 -9 -15.5 -14.5t-16.5 -5.5q-10 0 -22 6z" />
    <glyph glyph-name="Kcommaaccent" unicode="&#x136;" horiz-adv-x="1348" 
d="M1224 134q36 0 30 -36l-10 -62q-3 -20 -12.5 -28t-29.5 -8h-288q-20 0 -30 8t-16 26q-42 154 -111 300.5t-155 265.5q-51 -39 -102 -72l-62 -394h82q36 0 30 -36l-10 -62q-3 -20 -12.5 -28t-29.5 -8h-456q-32 0 -32 24q0 5 1 14t3 20l6 40q3 20 12.5 28t29.5 8h82
l168 1056h-82q-36 0 -30 36l10 62q3 20 12.5 28t29.5 8h458q36 0 30 -36l-10 -62q-3 -20 -12.5 -28t-29.5 -8h-82l-76 -484q137 104 268.5 225.5t253.5 258.5h-86q-36 0 -30 36l10 62q3 20 12.5 28t29.5 8h380q32 0 32 -24q0 -5 -1 -14t-3 -20l-6 -40q-3 -20 -12.5 -28
t-29.5 -8h-96q-101 -116 -207.5 -220t-218.5 -198q100 -133 183.5 -297t140.5 -341h74zM646 -60q53 0 87.5 -31t34.5 -81q0 -43 -20.5 -79.5t-54 -68.5t-76.5 -61l-87 -57q-18 -12 -32 -12q-15 0 -26 14l-6 8q-8 11 -10 15.5t-2 10.5t4 12.5t16 15.5l39.5 34.5t40.5 41.5
q-30 14 -47 39t-17 57q0 29 12.5 55t34 45.5t49.5 30.5t60 11z" />
    <glyph glyph-name="Lslash" unicode="&#x141;" horiz-adv-x="1038" 
d="M814 862q-3 -20 -11.5 -31.5t-26.5 -20.5l-228 -114l-90 -554h288l86 222q8 18 19 26t31 8h66q28 0 28 -28q0 -5 -1.5 -16.5t-4.5 -25.5l-54 -292q-3 -20 -12.5 -28t-29.5 -8h-812q-32 0 -32 24q0 5 1 14t3 20l6 40q3 20 12.5 28t29.5 8h82l64 402l-124 -62l-16.5 -7.5
t-11.5 -2.5q-5 0 -8.5 3t-3.5 11q0 5 1.5 13.5l4.5 26.5l10 58q3 20 11.5 31.5t26.5 20.5l136 68l78 494h-82q-36 0 -30 36l10 62q3 20 12.5 28t29.5 8h478q36 0 30 -36l-10 -62q-3 -20 -12.5 -28t-29.5 -8h-102l-54 -334l218 108l16.5 7.5t11.5 2.5q5 0 8.5 -3t3.5 -11
q0 -5 -1.5 -13.5l-4.5 -26.5z" />
    <glyph glyph-name="Lacute" unicode="&#x139;" horiz-adv-x="1018" 
d="M42 0q-32 0 -32 24q0 5 1 14t3 20l6 40q3 20 12.5 28t29.5 8h82l168 1056h-82q-36 0 -30 36l10 62q3 20 12.5 28t29.5 8h478q36 0 30 -36l-10 -62q-3 -20 -12.5 -28t-29.5 -8h-102l-168 -1048h288l86 222q8 18 19 26t31 8h66q28 0 28 -28q0 -5 -1.5 -16.5t-4.5 -25.5
l-54 -292q-3 -20 -12.5 -28t-29.5 -8h-812v0zM418 1418q-6 -3 -12 -5.5t-12 -2.5q-15 0 -30 18l-18 24q-6 8 -8 14t-2 12q0 14 14 28l254 262q12 12 24 12q13 0 24 -14l92 -122q5 -6 7.5 -11t2.5 -11q0 -13 -20 -24z" />
    <glyph glyph-name="Lcaron" unicode="&#x13d;" horiz-adv-x="1018" 
d="M42 0q-32 0 -32 24q0 5 1 14t3 20l6 40q3 20 12.5 28t29.5 8h82l168 1056h-82q-36 0 -30 36l10 62q3 20 12.5 28t29.5 8h478q36 0 30 -36l-10 -62q-3 -20 -12.5 -28t-29.5 -8h-102l-168 -1048h288l86 222q8 18 19 26t31 8h66q28 0 28 -28q0 -5 -1.5 -16.5t-4.5 -25.5
l-54 -292q-3 -20 -12.5 -28t-29.5 -8h-812v0zM872 895q-8 -14 -15.5 -19t-16.5 -5q-5 0 -9.5 1t-10.5 3l-20 6q-14 5 -20 11.5t-6 18.5q0 3 1.5 12t6.5 26l90 348q6 26 24 26q5 0 9 -1t9 -3l128 -40q12 -3 17 -9.5t5 -14.5t-6 -20z" />
    <glyph glyph-name="Lcommaaccent" unicode="&#x13b;" horiz-adv-x="1018" 
d="M42 0q-32 0 -32 24q0 5 1 14t3 20l6 40q3 20 12.5 28t29.5 8h82l168 1056h-82q-36 0 -30 36l10 62q3 20 12.5 28t29.5 8h478q36 0 30 -36l-10 -62q-3 -20 -12.5 -28t-29.5 -8h-102l-168 -1048h288l86 222q8 18 19 26t31 8h66q28 0 28 -28q0 -5 -1.5 -16.5t-4.5 -25.5
l-54 -292q-3 -20 -12.5 -28t-29.5 -8h-812v0zM480 -60q53 0 87.5 -31t34.5 -81q0 -43 -20.5 -79.5t-54 -68.5t-76.5 -61l-87 -57q-18 -12 -32 -12q-15 0 -26 14l-6 8q-8 11 -10 15.5t-2 10.5t4 12.5t16 15.5l39.5 34.5t40.5 41.5q-30 14 -47 39t-17 57q0 29 12.5 55t34 45.5
t49.5 30.5t60 11z" />
    <glyph glyph-name="Ldot" unicode="&#x13f;" horiz-adv-x="1018" 
d="M42 0q-32 0 -32 24q0 5 1 14t3 20l6 40q3 20 12.5 28t29.5 8h82l168 1056h-82q-36 0 -30 36l10 62q3 20 12.5 28t29.5 8h478q36 0 30 -36l-10 -62q-3 -20 -12.5 -28t-29.5 -8h-102l-168 -1048h288l86 222q8 18 19 26t31 8h66q28 0 28 -28q0 -5 -1.5 -16.5t-4.5 -25.5
l-54 -292q-3 -20 -12.5 -28t-29.5 -8h-812v0zM1054 810q0 -41 -13.5 -76t-38 -61.5t-59 -41.5t-75.5 -15q-36 0 -64 11.5t-47 32.5t-29 49t-10 61q0 40 13.5 75.5t38 62t59 41.5t75.5 15q36 0 64 -11.5t47 -32.5t29 -49t10 -61z" />
    <glyph glyph-name="Ntilde" unicode="&#xd1;" horiz-adv-x="1478" 
d="M1404 1190l-184 -1154q-3 -20 -12.5 -28t-29.5 -8h-188q-20 0 -31 7t-19 25l-484 1060l-152 -958h82q36 0 30 -36l-10 -62q-3 -20 -12.5 -28t-29.5 -8h-322q-32 0 -32 24q0 5 1 14t3 20l6 40q3 20 12.5 28t29.5 8h82l168 1056h-82q-36 0 -30 36l10 62q3 20 12.5 28
t29.5 8h364q20 0 31 -7t19 -25l440 -968l136 866h-82q-36 0 -30 36l10 62q3 20 12.5 28t29.5 8h324q32 0 32 -24q0 -5 -1 -14t-3 -20l-6 -40q-3 -20 -12.5 -28t-29.5 -8h-82zM1022 1442q-38 0 -70 13.5t-62 30t-58.5 30.5t-57.5 14q-36 0 -63 -12.5t-53 -39.5
q-14 -14 -28 -14q-6 0 -11.5 2t-14.5 8l-20 14q-18 12 -18 30q0 10 6 22q16 31 38 62.5t50 57t61.5 42t74.5 16.5q37 0 69.5 -14t62.5 -30.5t58.5 -30t57.5 -13.5q41 0 66.5 12t49.5 38q8 9 15 12.5t15 3.5q11 0 24 -10l20 -14q18 -12 18 -30q0 -10 -6 -22
q-17 -31 -38.5 -62.5t-49.5 -57t-62 -42t-74 -16.5z" />
    <glyph glyph-name="Nacute" unicode="&#x143;" horiz-adv-x="1478" 
d="M1404 1190l-184 -1154q-3 -20 -12.5 -28t-29.5 -8h-188q-20 0 -31 7t-19 25l-484 1060l-152 -958h82q36 0 30 -36l-10 -62q-3 -20 -12.5 -28t-29.5 -8h-322q-32 0 -32 24q0 5 1 14t3 20l6 40q3 20 12.5 28t29.5 8h82l168 1056h-82q-36 0 -30 36l10 62q3 20 12.5 28
t29.5 8h364q20 0 31 -7t19 -25l440 -968l136 866h-82q-36 0 -30 36l10 62q3 20 12.5 28t29.5 8h324q32 0 32 -24q0 -5 -1 -14t-3 -20l-6 -40q-3 -20 -12.5 -28t-29.5 -8h-82zM812 1418q-6 -3 -12 -5.5t-12 -2.5q-15 0 -30 18l-18 24q-6 8 -8 14t-2 12q0 14 14 28l254 262
q12 12 24 12q13 0 24 -14l92 -122q5 -6 7.5 -11t2.5 -11q0 -13 -20 -24z" />
    <glyph glyph-name="Ncaron" unicode="&#x147;" horiz-adv-x="1478" 
d="M1404 1190l-184 -1154q-3 -20 -12.5 -28t-29.5 -8h-188q-20 0 -31 7t-19 25l-484 1060l-152 -958h82q36 0 30 -36l-10 -62q-3 -20 -12.5 -28t-29.5 -8h-322q-32 0 -32 24q0 5 1 14t3 20l6 40q3 20 12.5 28t29.5 8h82l168 1056h-82q-36 0 -30 36l10 62q3 20 12.5 28
t29.5 8h364q20 0 31 -7t19 -25l440 -968l136 866h-82q-36 0 -30 36l10 62q3 20 12.5 28t29.5 8h324q32 0 32 -24q0 -5 -1 -14t-3 -20l-6 -40q-3 -20 -12.5 -28t-29.5 -8h-82zM910 1658l226 96q14 6 21.5 8t12.5 2q21 0 32 -22l14 -24q6 -11 7 -15t1 -9q0 -15 -18 -30
l-288 -212q-8 -6 -16 -11t-16 -5t-14 4t-14 10l-218 212q-8 8 -12 14t-4 14q0 6 2.5 12t7.5 14l18 28q11 20 30 20q10 0 22 -6z" />
    <glyph glyph-name="Ncommaaccent" unicode="&#x145;" horiz-adv-x="1478" 
d="M1404 1190l-184 -1154q-3 -20 -12.5 -28t-29.5 -8h-188q-20 0 -31 7t-19 25l-484 1060l-152 -958h82q36 0 30 -36l-10 -62q-3 -20 -12.5 -28t-29.5 -8h-322q-32 0 -32 24q0 5 1 14t3 20l6 40q3 20 12.5 28t29.5 8h82l168 1056h-82q-36 0 -30 36l10 62q3 20 12.5 28
t29.5 8h364q20 0 31 -7t19 -25l440 -968l136 866h-82q-36 0 -30 36l10 62q3 20 12.5 28t29.5 8h324q32 0 32 -24q0 -5 -1 -14t-3 -20l-6 -40q-3 -20 -12.5 -28t-29.5 -8h-82zM652 -60q53 0 87.5 -31t34.5 -81q0 -43 -20.5 -79.5t-54 -68.5t-76.5 -61l-87 -57
q-18 -12 -32 -12q-15 0 -26 14l-6 8q-8 11 -10 15.5t-2 10.5t4 12.5t16 15.5l39.5 34.5t40.5 41.5q-30 14 -47 39t-17 57q0 29 12.5 55t34 45.5t49.5 30.5t60 11z" />
    <glyph glyph-name="Odieresis" unicode="&#xd6;" horiz-adv-x="1376" 
d="M1346 800q0 -104 -20.5 -205t-62 -192.5t-103 -168.5t-142.5 -133.5t-182.5 -88.5t-221.5 -32q-142 0 -242 43.5t-163.5 117.5t-93 173t-29.5 210q0 104 20.5 205t62 192.5t103 168.5t142.5 133.5t182 88.5t222 32q142 0 242 -43.5t163.5 -117.5t93 -173t29.5 -210z
M390 508q0 -93 12.5 -164.5t41 -119.5t74 -73t112.5 -25q77 0 137.5 30t106 81.5t78 120t52.5 145.5t29 157t9 156q0 93 -12.5 164.5t-41 119.5t-74 73t-112.5 25q-77 0 -137.5 -30t-106 -81.5t-78 -120t-52.5 -145.5t-29 -157.5t-9 -155.5zM1192 1608q0 -34 -13 -62.5
t-35 -49.5t-51.5 -32.5t-62.5 -11.5q-57 0 -92.5 33.5t-35.5 86.5q0 34 13 62.5t35 49.5t51 32.5t61 11.5q59 0 94.5 -33.5t35.5 -86.5zM800 1608q0 -34 -13 -62.5t-35 -49.5t-51.5 -32.5t-62.5 -11.5q-57 0 -92.5 33.5t-35.5 86.5q0 34 13 62.5t35 49.5t51 32.5t61 11.5
q59 0 94.5 -33.5t35.5 -86.5z" />
    <glyph glyph-name="Otilde" unicode="&#xd5;" horiz-adv-x="1376" 
d="M1346 800q0 -104 -20.5 -205t-62 -192.5t-103 -168.5t-142.5 -133.5t-182.5 -88.5t-221.5 -32q-142 0 -242 43.5t-163.5 117.5t-93 173t-29.5 210q0 104 20.5 205t62 192.5t103 168.5t142.5 133.5t182 88.5t222 32q142 0 242 -43.5t163.5 -117.5t93 -173t29.5 -210z
M390 508q0 -93 12.5 -164.5t41 -119.5t74 -73t112.5 -25q77 0 137.5 30t106 81.5t78 120t52.5 145.5t29 157t9 156q0 93 -12.5 164.5t-41 119.5t-74 73t-112.5 25q-77 0 -137.5 -30t-106 -81.5t-78 -120t-52.5 -145.5t-29 -157.5t-9 -155.5zM964 1442q-38 0 -70 13.5t-62 30
t-58.5 30.5t-57.5 14q-36 0 -63 -12.5t-53 -39.5q-14 -14 -28 -14q-6 0 -11.5 2t-14.5 8l-20 14q-18 12 -18 30q0 10 6 22q16 31 38 62.5t50 57t61.5 42t74.5 16.5q37 0 69.5 -14t62.5 -30.5t58.5 -30t57.5 -13.5q41 0 66.5 12t49.5 38q8 9 15 12.5t15 3.5q11 0 24 -10
l20 -14q18 -12 18 -30q0 -10 -6 -22q-17 -31 -38.5 -62.5t-49.5 -57t-62 -42t-74 -16.5z" />
    <glyph glyph-name="Oacute" unicode="&#xd3;" horiz-adv-x="1376" 
d="M1346 800q0 -104 -20.5 -205t-62 -192.5t-103 -168.5t-142.5 -133.5t-182.5 -88.5t-221.5 -32q-142 0 -242 43.5t-163.5 117.5t-93 173t-29.5 210q0 104 20.5 205t62 192.5t103 168.5t142.5 133.5t182 88.5t222 32q142 0 242 -43.5t163.5 -117.5t93 -173t29.5 -210z
M390 508q0 -93 12.5 -164.5t41 -119.5t74 -73t112.5 -25q77 0 137.5 30t106 81.5t78 120t52.5 145.5t29 157t9 156q0 93 -12.5 164.5t-41 119.5t-74 73t-112.5 25q-77 0 -137.5 -30t-106 -81.5t-78 -120t-52.5 -145.5t-29 -157.5t-9 -155.5zM754 1418q-6 -3 -12 -5.5
t-12 -2.5q-15 0 -30 18l-18 24q-6 8 -8 14t-2 12q0 14 14 28l254 262q12 12 24 12q13 0 24 -14l92 -122q5 -6 7.5 -11t2.5 -11q0 -13 -20 -24z" />
    <glyph glyph-name="Ocircumflex" unicode="&#xd4;" horiz-adv-x="1376" 
d="M1346 800q0 -104 -20.5 -205t-62 -192.5t-103 -168.5t-142.5 -133.5t-182.5 -88.5t-221.5 -32q-142 0 -242 43.5t-163.5 117.5t-93 173t-29.5 210q0 104 20.5 205t62 192.5t103 168.5t142.5 133.5t182 88.5t222 32q142 0 242 -43.5t163.5 -117.5t93 -173t29.5 -210z
M390 508q0 -93 12.5 -164.5t41 -119.5t74 -73t112.5 -25q77 0 137.5 30t106 81.5t78 120t52.5 145.5t29 157t9 156q0 93 -12.5 164.5t-41 119.5t-74 73t-112.5 25q-77 0 -137.5 -30t-106 -81.5t-78 -120t-52.5 -145.5t-29 -157.5t-9 -155.5zM852 1544l-222 -94
q-18 -8 -25.5 -10t-12.5 -2q-6 0 -14 4t-16 18l-14 24q-3 6 -5.5 12t-2.5 12q0 16 20 30l294 216q8 6 14 8t14 2q14 0 28 -14l216 -212q16 -16 16 -30q0 -13 -10 -26l-18 -24q-8 -9 -15.5 -14.5t-16.5 -5.5q-10 0 -22 6z" />
    <glyph glyph-name="Ograve" unicode="&#xd2;" horiz-adv-x="1376" 
d="M1346 800q0 -104 -20.5 -205t-62 -192.5t-103 -168.5t-142.5 -133.5t-182.5 -88.5t-221.5 -32q-142 0 -242 43.5t-163.5 117.5t-93 173t-29.5 210q0 104 20.5 205t62 192.5t103 168.5t142.5 133.5t182 88.5t222 32q142 0 242 -43.5t163.5 -117.5t93 -173t29.5 -210z
M390 508q0 -93 12.5 -164.5t41 -119.5t74 -73t112.5 -25q77 0 137.5 30t106 81.5t78 120t52.5 145.5t29 157t9 156q0 93 -12.5 164.5t-41 119.5t-74 73t-112.5 25q-77 0 -137.5 -30t-106 -81.5t-78 -120t-52.5 -145.5t-29 -157.5t-9 -155.5zM680 1784q12 0 24 -12l254 -262
q14 -14 14 -28q0 -6 -2 -12t-8 -14l-18 -24q-15 -18 -30 -18q-6 0 -12 2.5t-12 5.5l-316 180q-20 11 -20 26q0 7 10 20l92 122q11 14 24 14z" />
    <glyph glyph-name="Obreve" unicode="&#x14e;" horiz-adv-x="1376" 
d="M1346 800q0 -104 -20.5 -205t-62 -192.5t-103 -168.5t-142.5 -133.5t-182.5 -88.5t-221.5 -32q-142 0 -242 43.5t-163.5 117.5t-93 173t-29.5 210q0 104 20.5 205t62 192.5t103 168.5t142.5 133.5t182 88.5t222 32q142 0 242 -43.5t163.5 -117.5t93 -173t29.5 -210z
M390 508q0 -93 12.5 -164.5t41 -119.5t74 -73t112.5 -25q77 0 137.5 30t106 81.5t78 120t52.5 145.5t29 157t9 156q0 93 -12.5 164.5t-41 119.5t-74 73t-112.5 25q-77 0 -137.5 -30t-106 -81.5t-78 -120t-52.5 -145.5t-29 -157.5t-9 -155.5zM850 1620q22 0 47 5.5t51 17.5
t51.5 31t48.5 46q11 12 17.5 17t14.5 5t24 -8l30 -16q22 -11 22 -30q0 -3 -1 -8t-3 -10q-21 -47 -53.5 -89t-74 -74.5t-91.5 -51.5t-105 -19t-97 18.5t-72.5 48.5t-50 69t-28.5 80q-2 6 -3 12.5t-1 15.5q0 24 28 38l32 16q12 6 20 6q16 0 28 -24q13 -26 32.5 -44t42 -29.5
t46 -17t45.5 -5.5z" />
    <glyph glyph-name="Ohungarumlaut" unicode="&#x150;" horiz-adv-x="1376" 
d="M1346 800q0 -104 -20.5 -205t-62 -192.5t-103 -168.5t-142.5 -133.5t-182.5 -88.5t-221.5 -32q-142 0 -242 43.5t-163.5 117.5t-93 173t-29.5 210q0 104 20.5 205t62 192.5t103 168.5t142.5 133.5t182 88.5t222 32q142 0 242 -43.5t163.5 -117.5t93 -173t29.5 -210z
M390 508q0 -93 12.5 -164.5t41 -119.5t74 -73t112.5 -25q77 0 137.5 30t106 81.5t78 120t52.5 145.5t29 157t9 156q0 93 -12.5 164.5t-41 119.5t-74 73t-112.5 25q-77 0 -137.5 -30t-106 -81.5t-78 -120t-52.5 -145.5t-29 -157.5t-9 -155.5zM1018 1422q-25 -22 -38 -22
q-11 0 -26 12l-16 14q-18 15 -18 28q0 7 10 24l190 310q11 16 24 16q9 0 16.5 -4.5t19.5 -15.5l98 -84q16 -13 16 -24q0 -8 -5.5 -14.5t-16.5 -15.5zM666 1422q-25 -22 -38 -22q-11 0 -26 12l-16 14q-18 15 -18 28q0 7 10 24l190 310q11 16 24 16q9 0 16.5 -4.5t19.5 -15.5
l98 -84q16 -13 16 -24q0 -8 -5.5 -14.5t-16.5 -15.5z" />
    <glyph glyph-name="Omacron" unicode="&#x14c;" horiz-adv-x="1376" 
d="M1346 800q0 -104 -20.5 -205t-62 -192.5t-103 -168.5t-142.5 -133.5t-182.5 -88.5t-221.5 -32q-142 0 -242 43.5t-163.5 117.5t-93 173t-29.5 210q0 104 20.5 205t62 192.5t103 168.5t142.5 133.5t182 88.5t222 32q142 0 242 -43.5t163.5 -117.5t93 -173t29.5 -210z
M390 508q0 -93 12.5 -164.5t41 -119.5t74 -73t112.5 -25q77 0 137.5 30t106 81.5t78 120t52.5 145.5t29 157t9 156q0 93 -12.5 164.5t-41 119.5t-74 73t-112.5 25q-77 0 -137.5 -30t-106 -81.5t-78 -120t-52.5 -145.5t-29 -157.5t-9 -155.5zM1072 1644q32 0 32 -30v-5.5
t-2 -12.5l-12 -84q-3 -20 -11.5 -28t-28.5 -8h-430q-32 0 -32 30v4.5t2 13.5l12 84q3 20 11.5 28t28.5 8h430z" />
    <glyph glyph-name="Oslash" unicode="&#xd8;" horiz-adv-x="1376" 
d="M802 1198q-77 0 -137.5 -30t-106 -81.5t-78 -120t-52.5 -145.5t-29 -157.5t-9 -155.5q0 -67 6 -124l598 708q-29 53 -76 79.5t-116 26.5zM436 238q29 -56 76 -84t118 -28q77 0 137.5 30t106 81.5t78 120t52.5 145.5t29 157t9 156q0 36 -1.5 68t-6.5 62zM1346 800
q0 -104 -20.5 -205t-62 -192.5t-103 -168.5t-142.5 -133.5t-182.5 -88.5t-221.5 -32q-103 0 -182.5 22.5t-139.5 63.5l-134 -158q-14 -15 -27 -21.5t-33 -6.5h-92q-15 0 -19 8t7 20l206 244q-60 74 -87 169.5t-27 202.5q0 104 20.5 205t62 192.5t103 168.5t142.5 133.5
t182 88.5t222 32q101 0 179.5 -21.5t138.5 -62.5l132 156q14 15 27 21.5t33 6.5h92q15 0 19 -8t-7 -20l-202 -240q60 -74 88 -170.5t28 -205.5z" />
    <glyph glyph-name="OE" unicode="&#x152;" horiz-adv-x="1814" 
d="M390 508q0 -92 12.5 -160.5t41 -114t74 -68.5t112.5 -23h184l168 1040h-180q-77 0 -137.5 -29t-106 -79.5t-78 -117t-52.5 -141.5t-29 -154t-9 -153zM614 0q-142 0 -242 41.5t-163.5 113t-93 167t-29.5 202.5q0 101 20.5 200t62 188t103 164.5t142.5 130.5t182 86t222 31
h976q35 0 32 -36l-36 -270q-2 -20 -11 -28t-29 -8h-64q-20 0 -28 8t-10 28l-10 164h-362l-72 -440h244l18 108q3 20 12.5 28t29.5 8h68q36 0 30 -36l-56 -352q-3 -20 -12.5 -28t-29.5 -8h-68q-36 0 -30 36l18 108h-244l-76 -464h376l76 194q11 34 48 34h64q36 0 30 -36
l-56 -298q-3 -20 -12.5 -28t-29.5 -8h-990z" />
    <glyph glyph-name="Racute" unicode="&#x154;" horiz-adv-x="1320" 
d="M944 978q0 46 -11 84t-35 65t-62.5 42t-93.5 15h-136l-82 -508h138q73 0 126.5 23t88 63.5t51 95.5t16.5 120zM144 134l168 1056h-82q-36 0 -30 36l10 62q3 20 12.5 28t29.5 8h544q115 0 200.5 -25t141 -70t83 -108t27.5 -139q0 -151 -87.5 -246.5t-256.5 -139.5
q87 -95 138.5 -214t81.5 -248h76q36 0 30 -36l-10 -62q-3 -20 -12.5 -28t-29.5 -8h-296q-20 0 -29.5 8t-12.5 28q-14 66 -32 134t-43 133t-57 125t-72 110h-134l-64 -404h82q36 0 30 -36l-10 -62q-3 -20 -12.5 -28t-29.5 -8h-458q-36 0 -30 36l10 62q3 20 12.5 28t29.5 8h82
zM710 1418q-6 -3 -12 -5.5t-12 -2.5q-15 0 -30 18l-18 24q-6 8 -8 14t-2 12q0 14 14 28l254 262q12 12 24 12q13 0 24 -14l92 -122q5 -6 7.5 -11t2.5 -11q0 -13 -20 -24z" />
    <glyph glyph-name="Rcaron" unicode="&#x158;" horiz-adv-x="1320" 
d="M944 978q0 46 -11 84t-35 65t-62.5 42t-93.5 15h-136l-82 -508h138q73 0 126.5 23t88 63.5t51 95.5t16.5 120zM144 134l168 1056h-82q-36 0 -30 36l10 62q3 20 12.5 28t29.5 8h544q115 0 200.5 -25t141 -70t83 -108t27.5 -139q0 -151 -87.5 -246.5t-256.5 -139.5
q87 -95 138.5 -214t81.5 -248h76q36 0 30 -36l-10 -62q-3 -20 -12.5 -28t-29.5 -8h-296q-20 0 -29.5 8t-12.5 28q-14 66 -32 134t-43 133t-57 125t-72 110h-134l-64 -404h82q36 0 30 -36l-10 -62q-3 -20 -12.5 -28t-29.5 -8h-458q-36 0 -30 36l10 62q3 20 12.5 28t29.5 8h82
zM808 1658l226 96q14 6 21.5 8t12.5 2q21 0 32 -22l14 -24q6 -11 7 -15t1 -9q0 -15 -18 -30l-288 -212q-8 -6 -16 -11t-16 -5t-14 4t-14 10l-218 212q-8 8 -12 14t-4 14q0 6 2.5 12t7.5 14l18 28q11 20 30 20q10 0 22 -6z" />
    <glyph glyph-name="Rcommaaccent" unicode="&#x156;" horiz-adv-x="1320" 
d="M944 978q0 46 -11 84t-35 65t-62.5 42t-93.5 15h-136l-82 -508h138q73 0 126.5 23t88 63.5t51 95.5t16.5 120zM144 134l168 1056h-82q-36 0 -30 36l10 62q3 20 12.5 28t29.5 8h544q115 0 200.5 -25t141 -70t83 -108t27.5 -139q0 -151 -87.5 -246.5t-256.5 -139.5
q87 -95 138.5 -214t81.5 -248h76q36 0 30 -36l-10 -62q-3 -20 -12.5 -28t-29.5 -8h-296q-20 0 -29.5 8t-12.5 28q-14 66 -32 134t-43 133t-57 125t-72 110h-134l-64 -404h82q36 0 30 -36l-10 -62q-3 -20 -12.5 -28t-29.5 -8h-458q-36 0 -30 36l10 62q3 20 12.5 28t29.5 8h82
zM646 -60q53 0 87.5 -31t34.5 -81q0 -43 -20.5 -79.5t-54 -68.5t-76.5 -61l-87 -57q-18 -12 -32 -12q-15 0 -26 14l-6 8q-8 11 -10 15.5t-2 10.5t4 12.5t16 15.5l39.5 34.5t40.5 41.5q-30 14 -47 39t-17 57q0 29 12.5 55t34 45.5t49.5 30.5t60 11z" />
    <glyph glyph-name="Scaron" unicode="&#x160;" horiz-adv-x="1124" 
d="M1040 402q0 -104 -43.5 -182.5t-119.5 -132t-179.5 -80.5t-223.5 -27q-113 0 -197.5 20.5t-140 55.5t-83 82.5t-27.5 101.5q0 42 10.5 78t31.5 62t53 41t75 15q25 0 48.5 -8t41.5 -23t29 -36t11 -47q0 -50 -25.5 -85.5t-66.5 -56.5q45 -30 109.5 -44t136.5 -14
q56 0 111.5 11.5t99 35.5t70.5 60.5t27 86.5q0 45 -19.5 77.5t-56 58.5t-89 49t-119.5 49q-66 26 -128 55t-110 71t-77 101.5t-29 148.5q0 106 42 185t114.5 130.5t169 77t206.5 25.5q108 0 188.5 -20.5t133.5 -55.5t79.5 -82.5t26.5 -101.5q0 -42 -10.5 -78t-31.5 -62
t-53 -41t-75 -15q-26 0 -49.5 8t-41.5 23t-28.5 36t-10.5 47q0 50 26 85.5t68 58.5q-44 29 -102.5 42.5t-123.5 13.5q-56 0 -106 -11.5t-87.5 -35.5t-60 -59.5t-22.5 -83.5q0 -45 19.5 -77.5t56 -58.5t89 -49t119.5 -49q66 -26 128 -55t110 -71t77 -102t29 -148zM726 1658
l226 96q14 6 21.5 8t12.5 2q21 0 32 -22l14 -24q6 -11 7 -15t1 -9q0 -15 -18 -30l-288 -212q-8 -6 -16 -11t-16 -5t-14 4t-14 10l-218 212q-8 8 -12 14t-4 14q0 6 2.5 12t7.5 14l18 28q11 20 30 20q10 0 22 -6z" />
    <glyph glyph-name="Sacute" unicode="&#x15a;" horiz-adv-x="1124" 
d="M1040 402q0 -104 -43.5 -182.5t-119.5 -132t-179.5 -80.5t-223.5 -27q-113 0 -197.5 20.5t-140 55.5t-83 82.5t-27.5 101.5q0 42 10.5 78t31.5 62t53 41t75 15q25 0 48.5 -8t41.5 -23t29 -36t11 -47q0 -50 -25.5 -85.5t-66.5 -56.5q45 -30 109.5 -44t136.5 -14
q56 0 111.5 11.5t99 35.5t70.5 60.5t27 86.5q0 45 -19.5 77.5t-56 58.5t-89 49t-119.5 49q-66 26 -128 55t-110 71t-77 101.5t-29 148.5q0 106 42 185t114.5 130.5t169 77t206.5 25.5q108 0 188.5 -20.5t133.5 -55.5t79.5 -82.5t26.5 -101.5q0 -42 -10.5 -78t-31.5 -62
t-53 -41t-75 -15q-26 0 -49.5 8t-41.5 23t-28.5 36t-10.5 47q0 50 26 85.5t68 58.5q-44 29 -102.5 42.5t-123.5 13.5q-56 0 -106 -11.5t-87.5 -35.5t-60 -59.5t-22.5 -83.5q0 -45 19.5 -77.5t56 -58.5t89 -49t119.5 -49q66 -26 128 -55t110 -71t77 -102t29 -148zM628 1418
q-6 -3 -12 -5.5t-12 -2.5q-15 0 -30 18l-18 24q-6 8 -8 14t-2 12q0 14 14 28l254 262q12 12 24 12q13 0 24 -14l92 -122q5 -6 7.5 -11t2.5 -11q0 -13 -20 -24z" />
    <glyph glyph-name="Scedilla" unicode="&#x15e;" horiz-adv-x="1124" 
d="M430 -420q-46 0 -81 10.5t-59 28.5t-36 41t-12 48q0 16 5 31.5t15 27.5t24.5 19.5t33.5 7.5q24 0 43 -13t19 -39q0 -21 -10 -39t-34 -29q18 -12 39.5 -17t42.5 -5q22 0 41.5 7t34.5 19t23.5 29.5t8.5 38.5q0 41 -36.5 63.5t-99.5 34.5q-35 6 -16 38l60 98
q-104 4 -181 25.5t-128 56.5t-76 80.5t-25 97.5q0 42 10.5 78t31.5 62t53 41t75 15q25 0 48.5 -8t41.5 -23t29 -36t11 -47q0 -50 -25.5 -85.5t-66.5 -56.5q45 -30 109.5 -44t136.5 -14q56 0 111.5 11.5t99 35.5t70.5 60.5t27 86.5q0 45 -19.5 77.5t-56 58.5t-89 49
t-119.5 49q-66 26 -128 55t-110 71t-77 101.5t-29 148.5q0 106 42 185t114.5 130.5t169 77t206.5 25.5q108 0 188.5 -20.5t133.5 -55.5t79.5 -82.5t26.5 -101.5q0 -42 -10.5 -78t-31.5 -62t-53 -41t-75 -15q-26 0 -49.5 8t-41.5 23t-28.5 36t-10.5 47q0 50 26 85.5t68 58.5
q-44 29 -102.5 42.5t-123.5 13.5q-56 0 -106 -11.5t-87.5 -35.5t-60 -59.5t-22.5 -83.5q0 -45 19.5 -77.5t56 -58.5t89 -49t119.5 -49q66 -26 128 -55t110 -71t77 -102t29 -148q0 -98 -39 -173.5t-108 -128.5t-163 -83t-204 -35l-30 -52q37 -2 71 -12t60.5 -29.5t42.5 -47.5
t16 -65q0 -47 -20.5 -83t-55.5 -61.5t-81.5 -38.5t-98.5 -13z" />
    <glyph glyph-name="Scircumflex" unicode="&#x15c;" horiz-adv-x="1124" 
d="M1040 402q0 -104 -43.5 -182.5t-119.5 -132t-179.5 -80.5t-223.5 -27q-113 0 -197.5 20.5t-140 55.5t-83 82.5t-27.5 101.5q0 42 10.5 78t31.5 62t53 41t75 15q25 0 48.5 -8t41.5 -23t29 -36t11 -47q0 -50 -25.5 -85.5t-66.5 -56.5q45 -30 109.5 -44t136.5 -14
q56 0 111.5 11.5t99 35.5t70.5 60.5t27 86.5q0 45 -19.5 77.5t-56 58.5t-89 49t-119.5 49q-66 26 -128 55t-110 71t-77 101.5t-29 148.5q0 106 42 185t114.5 130.5t169 77t206.5 25.5q108 0 188.5 -20.5t133.5 -55.5t79.5 -82.5t26.5 -101.5q0 -42 -10.5 -78t-31.5 -62
t-53 -41t-75 -15q-26 0 -49.5 8t-41.5 23t-28.5 36t-10.5 47q0 50 26 85.5t68 58.5q-44 29 -102.5 42.5t-123.5 13.5q-56 0 -106 -11.5t-87.5 -35.5t-60 -59.5t-22.5 -83.5q0 -45 19.5 -77.5t56 -58.5t89 -49t119.5 -49q66 -26 128 -55t110 -71t77 -102t29 -148zM726 1544
l-222 -94q-18 -8 -25.5 -10t-12.5 -2q-6 0 -14 4t-16 18l-14 24q-3 6 -5.5 12t-2.5 12q0 16 20 30l294 216q8 6 14 8t14 2q14 0 28 -14l216 -212q16 -16 16 -30q0 -13 -10 -26l-18 -24q-8 -9 -15.5 -14.5t-16.5 -5.5q-10 0 -22 6z" />
    <glyph glyph-name="Scommaaccent" unicode="&#x218;" horiz-adv-x="1124" 
d="M1040 402q0 -104 -43.5 -182.5t-119.5 -132t-179.5 -80.5t-223.5 -27q-113 0 -197.5 20.5t-140 55.5t-83 82.5t-27.5 101.5q0 42 10.5 78t31.5 62t53 41t75 15q25 0 48.5 -8t41.5 -23t29 -36t11 -47q0 -50 -25.5 -85.5t-66.5 -56.5q45 -30 109.5 -44t136.5 -14
q56 0 111.5 11.5t99 35.5t70.5 60.5t27 86.5q0 45 -19.5 77.5t-56 58.5t-89 49t-119.5 49q-66 26 -128 55t-110 71t-77 101.5t-29 148.5q0 106 42 185t114.5 130.5t169 77t206.5 25.5q108 0 188.5 -20.5t133.5 -55.5t79.5 -82.5t26.5 -101.5q0 -42 -10.5 -78t-31.5 -62
t-53 -41t-75 -15q-26 0 -49.5 8t-41.5 23t-28.5 36t-10.5 47q0 50 26 85.5t68 58.5q-44 29 -102.5 42.5t-123.5 13.5q-56 0 -106 -11.5t-87.5 -35.5t-60 -59.5t-22.5 -83.5q0 -45 19.5 -77.5t56 -58.5t89 -49t119.5 -49q66 -26 128 -55t110 -71t77 -102t29 -148zM478 -60
q53 0 87.5 -31t34.5 -81q0 -43 -20.5 -79.5t-54 -68.5t-76.5 -61l-87 -57q-18 -12 -32 -12q-15 0 -26 14l-6 8q-8 11 -10 15.5t-2 10.5t4 12.5t16 15.5l39.5 34.5t40.5 41.5q-30 14 -47 39t-17 57q0 29 12.5 55t34 45.5t49.5 30.5t60 11z" />
    <glyph glyph-name="Thorn" unicode="&#xde;" horiz-adv-x="1182" 
d="M880 772q0 49 -13 90t-40.5 69.5t-70.5 44.5t-104 16h-78l-86 -538h82q73 0 131 23.5t97.5 65.5t60.5 100.5t21 128.5zM592 1324q36 0 30 -36l-24 -156h104q126 0 217 -25.5t150 -72t87 -112.5t28 -146q0 -99 -39 -183.5t-116 -146.5t-191 -97t-264 -35h-108l-28 -180
h102q36 0 30 -36l-10 -62q-3 -20 -12.5 -28t-29.5 -8h-478q-36 0 -30 36l10 62q3 20 12.5 28t29.5 8h82l168 1056h-82q-36 0 -30 36l10 62q3 20 12.5 28t29.5 8h340z" />
    <glyph glyph-name="Tbar" unicode="&#x166;" horiz-adv-x="1214" 
d="M1258 1324q21 0 27.5 -10t6.5 -22q0 -8 -2.5 -29.5t-5.5 -44.5l-30 -228q-3 -20 -11.5 -28t-28.5 -8h-68q-20 0 -28 8t-10 28l-8 192h-234l-72 -450h188q36 0 30 -36l-10 -62q-3 -20 -12.5 -28t-29.5 -8h-188l-74 -464h82q36 0 30 -36l-10 -62q-3 -20 -12.5 -28t-29.5 -8
h-458q-36 0 -30 36l10 62q3 20 12.5 28t29.5 8h82l74 464h-186q-36 0 -30 36l10 62q3 20 12.5 28t29.5 8h186l72 450h-234l-76 -194q-8 -18 -19 -26t-31 -8h-66q-12 0 -20 5t-8 19q0 8 2.5 20t5.5 30l52 260q3 20 12.5 28t29.5 8h1038v0z" />
    <glyph glyph-name="Tcaron" unicode="&#x164;" horiz-adv-x="1214" 
d="M1254 990q-3 -20 -11.5 -28t-28.5 -8h-68q-20 0 -28 8t-10 28l-8 192h-234l-168 -1048h82q36 0 30 -36l-10 -62q-3 -20 -12.5 -28t-29.5 -8h-458q-36 0 -30 36l10 62q3 20 12.5 28t29.5 8h82l168 1048h-234l-76 -194q-8 -18 -19 -26t-31 -8h-66q-12 0 -20 5t-8 19
q0 8 2.5 20t5.5 30l52 260q5 20 13.5 28t28.5 8h1038q21 0 27.5 -10t6.5 -22q0 -8 -2.5 -29.5t-5.5 -44.5zM772 1658l226 96q14 6 21.5 8t12.5 2q21 0 32 -22l14 -24q6 -11 7 -15t1 -9q0 -15 -18 -30l-288 -212q-8 -6 -16 -11t-16 -5t-14 4t-14 10l-218 212q-8 8 -12 14
t-4 14q0 6 2.5 12t7.5 14l18 28q11 20 30 20q10 0 22 -6z" />
    <glyph glyph-name="Tcommaaccent" unicode="&#x162;" horiz-adv-x="1214" 
d="M1254 990q-3 -20 -11.5 -28t-28.5 -8h-68q-20 0 -28 8t-10 28l-8 192h-234l-168 -1048h82q36 0 30 -36l-10 -62q-3 -20 -12.5 -28t-29.5 -8h-458q-36 0 -30 36l10 62q3 20 12.5 28t29.5 8h82l168 1048h-234l-76 -194q-8 -18 -19 -26t-31 -8h-66q-12 0 -20 5t-8 19
q0 8 2.5 20t5.5 30l52 260q5 20 13.5 28t28.5 8h1038q21 0 27.5 -10t6.5 -22q0 -8 -2.5 -29.5t-5.5 -44.5zM514 -60q53 0 87.5 -31t34.5 -81q0 -43 -20.5 -79.5t-54 -68.5t-76.5 -61l-87 -57q-18 -12 -32 -12q-15 0 -26 14l-6 8q-8 11 -10 15.5t-2 10.5t4 12.5t16 15.5
l39.5 34.5t40.5 41.5q-30 14 -47 39t-17 57q0 29 12.5 55t34 45.5t49.5 30.5t60 11z" />
    <glyph glyph-name="uni021A" unicode="&#x21a;" horiz-adv-x="1214" 
d="M1254 990q-3 -20 -11.5 -28t-28.5 -8h-68q-20 0 -28 8t-10 28l-8 192h-234l-168 -1048h82q36 0 30 -36l-10 -62q-3 -20 -12.5 -28t-29.5 -8h-458q-36 0 -30 36l10 62q3 20 12.5 28t29.5 8h82l168 1048h-234l-76 -194q-8 -18 -19 -26t-31 -8h-66q-12 0 -20 5t-8 19
q0 8 2.5 20t5.5 30l52 260q5 20 13.5 28t28.5 8h1038q21 0 27.5 -10t6.5 -22q0 -8 -2.5 -29.5t-5.5 -44.5zM514 -60q53 0 87.5 -31t34.5 -81q0 -43 -20.5 -79.5t-54 -68.5t-76.5 -61l-87 -57q-18 -12 -32 -12q-15 0 -26 14l-6 8q-8 11 -10 15.5t-2 10.5t4 12.5t16 15.5
l39.5 34.5t40.5 41.5q-30 14 -47 39t-17 57q0 29 12.5 55t34 45.5t49.5 30.5t60 11z" />
    <glyph glyph-name="Udieresis" unicode="&#xdc;" horiz-adv-x="1320" 
d="M1150 498q-19 -120 -60 -216t-106 -163t-155.5 -103t-208.5 -36q-237 0 -344.5 92.5t-107.5 281.5q0 33 3.5 72.5t14.5 105.5l104 658h-82q-36 0 -30 36l10 62q3 20 12.5 28t29.5 8h458q36 0 30 -36l-10 -62q-3 -20 -12.5 -28t-29.5 -8h-82l-110 -700q-8 -45 -10 -72
t-2 -48q-2 -116 51.5 -175t160.5 -59q129 0 206.5 85.5t101.5 238.5l116 730h-82q-36 0 -30 36l10 62q3 20 12.5 28t29.5 8h326q36 0 30 -36l-10 -62q-3 -20 -12.5 -28t-29.5 -8h-82zM1220 1608q0 -34 -13 -62.5t-35 -49.5t-51.5 -32.5t-62.5 -11.5q-57 0 -92.5 33.5
t-35.5 86.5q0 34 13 62.5t35 49.5t51 32.5t61 11.5q59 0 94.5 -33.5t35.5 -86.5zM828 1608q0 -34 -13 -62.5t-35 -49.5t-51.5 -32.5t-62.5 -11.5q-57 0 -92.5 33.5t-35.5 86.5q0 34 13 62.5t35 49.5t51 32.5t61 11.5q59 0 94.5 -33.5t35.5 -86.5z" />
    <glyph glyph-name="Uacute" unicode="&#xda;" horiz-adv-x="1320" 
d="M1150 498q-19 -120 -60 -216t-106 -163t-155.5 -103t-208.5 -36q-237 0 -344.5 92.5t-107.5 281.5q0 33 3.5 72.5t14.5 105.5l104 658h-82q-36 0 -30 36l10 62q3 20 12.5 28t29.5 8h458q36 0 30 -36l-10 -62q-3 -20 -12.5 -28t-29.5 -8h-82l-110 -700q-8 -45 -10 -72
t-2 -48q-2 -116 51.5 -175t160.5 -59q129 0 206.5 85.5t101.5 238.5l116 730h-82q-36 0 -30 36l10 62q3 20 12.5 28t29.5 8h326q36 0 30 -36l-10 -62q-3 -20 -12.5 -28t-29.5 -8h-82zM782 1418q-6 -3 -12 -5.5t-12 -2.5q-15 0 -30 18l-18 24q-6 8 -8 14t-2 12q0 14 14 28
l254 262q12 12 24 12q13 0 24 -14l92 -122q5 -6 7.5 -11t2.5 -11q0 -13 -20 -24z" />
    <glyph glyph-name="Ucircumflex" unicode="&#xdb;" horiz-adv-x="1320" 
d="M1150 498q-19 -120 -60 -216t-106 -163t-155.5 -103t-208.5 -36q-237 0 -344.5 92.5t-107.5 281.5q0 33 3.5 72.5t14.5 105.5l104 658h-82q-36 0 -30 36l10 62q3 20 12.5 28t29.5 8h458q36 0 30 -36l-10 -62q-3 -20 -12.5 -28t-29.5 -8h-82l-110 -700q-8 -45 -10 -72
t-2 -48q-2 -116 51.5 -175t160.5 -59q129 0 206.5 85.5t101.5 238.5l116 730h-82q-36 0 -30 36l10 62q3 20 12.5 28t29.5 8h326q36 0 30 -36l-10 -62q-3 -20 -12.5 -28t-29.5 -8h-82zM880 1544l-222 -94q-18 -8 -25.5 -10t-12.5 -2q-6 0 -14 4t-16 18l-14 24q-3 6 -5.5 12
t-2.5 12q0 16 20 30l294 216q8 6 14 8t14 2q14 0 28 -14l216 -212q16 -16 16 -30q0 -13 -10 -26l-18 -24q-8 -9 -15.5 -14.5t-16.5 -5.5q-10 0 -22 6z" />
    <glyph glyph-name="Ugrave" unicode="&#xd9;" horiz-adv-x="1320" 
d="M1150 498q-19 -120 -60 -216t-106 -163t-155.5 -103t-208.5 -36q-237 0 -344.5 92.5t-107.5 281.5q0 33 3.5 72.5t14.5 105.5l104 658h-82q-36 0 -30 36l10 62q3 20 12.5 28t29.5 8h458q36 0 30 -36l-10 -62q-3 -20 -12.5 -28t-29.5 -8h-82l-110 -700q-8 -45 -10 -72
t-2 -48q-2 -116 51.5 -175t160.5 -59q129 0 206.5 85.5t101.5 238.5l116 730h-82q-36 0 -30 36l10 62q3 20 12.5 28t29.5 8h326q36 0 30 -36l-10 -62q-3 -20 -12.5 -28t-29.5 -8h-82zM708 1784q12 0 24 -12l254 -262q14 -14 14 -28q0 -6 -2 -12t-8 -14l-18 -24
q-15 -18 -30 -18q-6 0 -12 2.5t-12 5.5l-316 180q-20 11 -20 26q0 7 10 20l92 122q11 14 24 14z" />
    <glyph glyph-name="Ubreve" unicode="&#x16c;" horiz-adv-x="1320" 
d="M1150 498q-19 -120 -60 -216t-106 -163t-155.5 -103t-208.5 -36q-237 0 -344.5 92.5t-107.5 281.5q0 33 3.5 72.5t14.5 105.5l104 658h-82q-36 0 -30 36l10 62q3 20 12.5 28t29.5 8h458q36 0 30 -36l-10 -62q-3 -20 -12.5 -28t-29.5 -8h-82l-110 -700q-8 -45 -10 -72
t-2 -48q-2 -116 51.5 -175t160.5 -59q129 0 206.5 85.5t101.5 238.5l116 730h-82q-36 0 -30 36l10 62q3 20 12.5 28t29.5 8h326q36 0 30 -36l-10 -62q-3 -20 -12.5 -28t-29.5 -8h-82zM878 1620q22 0 47 5.5t51 17.5t51.5 31t48.5 46q11 12 17.5 17t14.5 5t24 -8l30 -16
q22 -11 22 -30q0 -3 -1 -8t-3 -10q-21 -47 -53.5 -89t-74 -74.5t-91.5 -51.5t-105 -19t-97 18.5t-72.5 48.5t-50 69t-28.5 80q-2 6 -3 12.5t-1 15.5q0 24 28 38l32 16q12 6 20 6q16 0 28 -24q13 -26 32.5 -44t42 -29.5t46 -17t45.5 -5.5z" />
    <glyph glyph-name="Uhungarumlaut" unicode="&#x170;" horiz-adv-x="1320" 
d="M1150 498q-19 -120 -60 -216t-106 -163t-155.5 -103t-208.5 -36q-237 0 -344.5 92.5t-107.5 281.5q0 33 3.5 72.5t14.5 105.5l104 658h-82q-36 0 -30 36l10 62q3 20 12.5 28t29.5 8h458q36 0 30 -36l-10 -62q-3 -20 -12.5 -28t-29.5 -8h-82l-110 -700q-8 -45 -10 -72
t-2 -48q-2 -116 51.5 -175t160.5 -59q129 0 206.5 85.5t101.5 238.5l116 730h-82q-36 0 -30 36l10 62q3 20 12.5 28t29.5 8h326q36 0 30 -36l-10 -62q-3 -20 -12.5 -28t-29.5 -8h-82zM1046 1422q-25 -22 -38 -22q-11 0 -26 12l-16 14q-18 15 -18 28q0 7 10 24l190 310
q11 16 24 16q9 0 16.5 -4.5t19.5 -15.5l98 -84q16 -13 16 -24q0 -8 -5.5 -14.5t-16.5 -15.5zM694 1422q-25 -22 -38 -22q-11 0 -26 12l-16 14q-18 15 -18 28q0 7 10 24l190 310q11 16 24 16q9 0 16.5 -4.5t19.5 -15.5l98 -84q16 -13 16 -24q0 -8 -5.5 -14.5t-16.5 -15.5z
" />
    <glyph glyph-name="Umacron" unicode="&#x16a;" horiz-adv-x="1320" 
d="M1150 498q-19 -120 -60 -216t-106 -163t-155.5 -103t-208.5 -36q-237 0 -344.5 92.5t-107.5 281.5q0 33 3.5 72.5t14.5 105.5l104 658h-82q-36 0 -30 36l10 62q3 20 12.5 28t29.5 8h458q36 0 30 -36l-10 -62q-3 -20 -12.5 -28t-29.5 -8h-82l-110 -700q-8 -45 -10 -72
t-2 -48q-2 -116 51.5 -175t160.5 -59q129 0 206.5 85.5t101.5 238.5l116 730h-82q-36 0 -30 36l10 62q3 20 12.5 28t29.5 8h326q36 0 30 -36l-10 -62q-3 -20 -12.5 -28t-29.5 -8h-82zM1100 1644q32 0 32 -30v-5.5t-2 -12.5l-12 -84q-3 -20 -11.5 -28t-28.5 -8h-430
q-32 0 -32 30v4.5t2 13.5l12 84q3 20 11.5 28t28.5 8h430z" />
    <glyph glyph-name="Uogonek" unicode="&#x172;" horiz-adv-x="1320" 
d="M580 -420q-37 0 -69.5 11t-56.5 30.5t-38 47t-14 61.5q0 38 17.5 76t45.5 71t63.5 59.5t71.5 43.5q-119 0 -201 25t-133.5 73t-74.5 117.5t-23 158.5q0 33 3.5 72.5t14.5 105.5l104 658h-82q-36 0 -30 36l10 62q3 20 12.5 28t29.5 8h458q36 0 30 -36l-10 -62
q-3 -20 -12.5 -28t-29.5 -8h-82l-110 -700q-8 -45 -10 -72t-2 -48q-2 -116 51.5 -175t160.5 -59q129 0 206.5 85.5t101.5 238.5l116 730h-82q-36 0 -30 36l10 62q3 20 12.5 28t29.5 8h326q36 0 30 -36l-10 -62q-3 -20 -12.5 -28t-29.5 -8h-82l-110 -692
q-17 -104 -49.5 -186.5t-77.5 -144t-99.5 -101t-115.5 -58.5q-59 -18 -101.5 -43t-71 -54.5t-42 -62t-13.5 -66.5q0 -36 22.5 -57t55.5 -21q45 0 84 18q17 8 24.5 7t15.5 -15l12 -22q9 -17 4 -30t-26 -28q-29 -20 -79.5 -37t-112.5 -17z" />
    <glyph glyph-name="Uring" unicode="&#x16e;" horiz-adv-x="1320" 
d="M1150 498q-19 -120 -60 -216t-106 -163t-155.5 -103t-208.5 -36q-237 0 -344.5 92.5t-107.5 281.5q0 33 3.5 72.5t14.5 105.5l104 658h-82q-36 0 -30 36l10 62q3 20 12.5 28t29.5 8h458q36 0 30 -36l-10 -62q-3 -20 -12.5 -28t-29.5 -8h-82l-110 -700q-8 -45 -10 -72
t-2 -48q-2 -116 51.5 -175t160.5 -59q129 0 206.5 85.5t101.5 238.5l116 730h-82q-36 0 -30 36l10 62q3 20 12.5 28t29.5 8h326q36 0 30 -36l-10 -62q-3 -20 -12.5 -28t-29.5 -8h-82zM858 1394q-59 0 -101 17t-69 47t-39.5 69.5t-12.5 84.5q0 51 19.5 100t56 88t88 62.5
t116.5 23.5q58 0 100 -17t69 -47t40 -69.5t13 -84.5q0 -51 -19.5 -100t-56 -88t-88.5 -62.5t-116 -23.5zM908 1772q-32 0 -58.5 -13.5t-45 -35t-28.5 -49.5t-10 -56q0 -47 26 -78.5t74 -31.5q32 0 58.5 13.5t45 35t28.5 49t10 56.5q0 47 -26 78.5t-74 31.5z" />
    <glyph glyph-name="Utilde" unicode="&#x168;" horiz-adv-x="1320" 
d="M1150 498q-19 -120 -60 -216t-106 -163t-155.5 -103t-208.5 -36q-237 0 -344.5 92.5t-107.5 281.5q0 33 3.5 72.5t14.5 105.5l104 658h-82q-36 0 -30 36l10 62q3 20 12.5 28t29.5 8h458q36 0 30 -36l-10 -62q-3 -20 -12.5 -28t-29.5 -8h-82l-110 -700q-8 -45 -10 -72
t-2 -48q-2 -116 51.5 -175t160.5 -59q129 0 206.5 85.5t101.5 238.5l116 730h-82q-36 0 -30 36l10 62q3 20 12.5 28t29.5 8h326q36 0 30 -36l-10 -62q-3 -20 -12.5 -28t-29.5 -8h-82zM992 1442q-38 0 -70 13.5t-62 30t-58.5 30.5t-57.5 14q-36 0 -63 -12.5t-53 -39.5
q-14 -14 -28 -14q-6 0 -11.5 2t-14.5 8l-20 14q-18 12 -18 30q0 10 6 22q16 31 38 62.5t50 57t61.5 42t74.5 16.5q37 0 69.5 -14t62.5 -30.5t58.5 -30t57.5 -13.5q41 0 66.5 12t49.5 38q8 9 15 12.5t15 3.5q11 0 24 -10l20 -14q18 -12 18 -30q0 -10 -6 -22
q-17 -31 -38.5 -62.5t-49.5 -57t-62 -42t-74 -16.5z" />
    <glyph glyph-name="Wacute" unicode="&#x1e82;" horiz-adv-x="2020" 
d="M2094 1324q32 0 32 -24q0 -5 -1 -14t-3 -20l-6 -40q-3 -20 -12.5 -28t-29.5 -8h-82l-130 -307l-136 -303.5l-139 -287.5t-139 -260q-9 -18 -21.5 -25t-32.5 -7h-128q-20 0 -30 8t-16 26q-47 175 -83.5 380.5t-66.5 421.5l-208 -424t-208 -382q-9 -17 -21.5 -23.5
t-32.5 -6.5h-130q-20 0 -30 8t-16 26q-30 120 -56.5 258.5t-49 287t-41 303.5t-33.5 307h-76q-32 0 -32 24q0 5 1 14t3 20l6 40q3 20 12.5 28t29.5 8h490q36 0 30 -36l-10 -62q-3 -20 -12.5 -28t-29.5 -8h-100q18 -234 37.5 -462t54.5 -432q106 205 208 433.5t194 460.5
h-100q-36 0 -30 36l10 62q3 20 12.5 28t29.5 8h454q36 0 30 -36l-10 -62q-3 -20 -12.5 -28t-29.5 -8h-94q20 -235 50 -462.5t72 -431.5q97 205 188.5 432l183.5 462h-106q-36 0 -30 36l10 62q3 20 12.5 28t29.5 8h374v0zM1136 1418q-6 -3 -12 -5.5t-12 -2.5q-15 0 -30 18
l-18 24q-6 8 -8 14t-2 12q0 14 14 28l254 262q12 12 24 12q13 0 24 -14l92 -122q5 -6 7.5 -11t2.5 -11q0 -13 -20 -24z" />
    <glyph glyph-name="Wcircumflex" unicode="&#x174;" horiz-adv-x="2020" 
d="M2094 1324q32 0 32 -24q0 -5 -1 -14t-3 -20l-6 -40q-3 -20 -12.5 -28t-29.5 -8h-82l-130 -307l-136 -303.5l-139 -287.5t-139 -260q-9 -18 -21.5 -25t-32.5 -7h-128q-20 0 -30 8t-16 26q-47 175 -83.5 380.5t-66.5 421.5l-208 -424t-208 -382q-9 -17 -21.5 -23.5
t-32.5 -6.5h-130q-20 0 -30 8t-16 26q-30 120 -56.5 258.5t-49 287t-41 303.5t-33.5 307h-76q-32 0 -32 24q0 5 1 14t3 20l6 40q3 20 12.5 28t29.5 8h490q36 0 30 -36l-10 -62q-3 -20 -12.5 -28t-29.5 -8h-100q18 -234 37.5 -462t54.5 -432q106 205 208 433.5t194 460.5
h-100q-36 0 -30 36l10 62q3 20 12.5 28t29.5 8h454q36 0 30 -36l-10 -62q-3 -20 -12.5 -28t-29.5 -8h-94q20 -235 50 -462.5t72 -431.5q97 205 188.5 432l183.5 462h-106q-36 0 -30 36l10 62q3 20 12.5 28t29.5 8h374v0zM1234 1544l-222 -94q-18 -8 -25.5 -10t-12.5 -2
q-6 0 -14 4t-16 18l-14 24q-3 6 -5.5 12t-2.5 12q0 16 20 30l294 216q8 6 14 8t14 2q14 0 28 -14l216 -212q16 -16 16 -30q0 -13 -10 -26l-18 -24q-8 -9 -15.5 -14.5t-16.5 -5.5q-10 0 -22 6z" />
    <glyph glyph-name="Wdieresis" unicode="&#x1e84;" horiz-adv-x="2020" 
d="M2094 1324q32 0 32 -24q0 -5 -1 -14t-3 -20l-6 -40q-3 -20 -12.5 -28t-29.5 -8h-82l-130 -307l-136 -303.5l-139 -287.5t-139 -260q-9 -18 -21.5 -25t-32.5 -7h-128q-20 0 -30 8t-16 26q-47 175 -83.5 380.5t-66.5 421.5l-208 -424t-208 -382q-9 -17 -21.5 -23.5
t-32.5 -6.5h-130q-20 0 -30 8t-16 26q-30 120 -56.5 258.5t-49 287t-41 303.5t-33.5 307h-76q-32 0 -32 24q0 5 1 14t3 20l6 40q3 20 12.5 28t29.5 8h490q36 0 30 -36l-10 -62q-3 -20 -12.5 -28t-29.5 -8h-100q18 -234 37.5 -462t54.5 -432q106 205 208 433.5t194 460.5
h-100q-36 0 -30 36l10 62q3 20 12.5 28t29.5 8h454q36 0 30 -36l-10 -62q-3 -20 -12.5 -28t-29.5 -8h-94q20 -235 50 -462.5t72 -431.5q97 205 188.5 432l183.5 462h-106q-36 0 -30 36l10 62q3 20 12.5 28t29.5 8h374v0zM1574 1608q0 -34 -13 -62.5t-35 -49.5t-51.5 -32.5
t-62.5 -11.5q-57 0 -92.5 33.5t-35.5 86.5q0 34 13 62.5t35 49.5t51 32.5t61 11.5q59 0 94.5 -33.5t35.5 -86.5zM1182 1608q0 -34 -13 -62.5t-35 -49.5t-51.5 -32.5t-62.5 -11.5q-57 0 -92.5 33.5t-35.5 86.5q0 34 13 62.5t35 49.5t51 32.5t61 11.5q59 0 94.5 -33.5
t35.5 -86.5z" />
    <glyph glyph-name="Wgrave" unicode="&#x1e80;" horiz-adv-x="2020" 
d="M2094 1324q32 0 32 -24q0 -5 -1 -14t-3 -20l-6 -40q-3 -20 -12.5 -28t-29.5 -8h-82l-130 -307l-136 -303.5l-139 -287.5t-139 -260q-9 -18 -21.5 -25t-32.5 -7h-128q-20 0 -30 8t-16 26q-47 175 -83.5 380.5t-66.5 421.5l-208 -424t-208 -382q-9 -17 -21.5 -23.5
t-32.5 -6.5h-130q-20 0 -30 8t-16 26q-30 120 -56.5 258.5t-49 287t-41 303.5t-33.5 307h-76q-32 0 -32 24q0 5 1 14t3 20l6 40q3 20 12.5 28t29.5 8h490q36 0 30 -36l-10 -62q-3 -20 -12.5 -28t-29.5 -8h-100q18 -234 37.5 -462t54.5 -432q106 205 208 433.5t194 460.5
h-100q-36 0 -30 36l10 62q3 20 12.5 28t29.5 8h454q36 0 30 -36l-10 -62q-3 -20 -12.5 -28t-29.5 -8h-94q20 -235 50 -462.5t72 -431.5q97 205 188.5 432l183.5 462h-106q-36 0 -30 36l10 62q3 20 12.5 28t29.5 8h374v0zM1062 1784q12 0 24 -12l254 -262q14 -14 14 -28
q0 -6 -2 -12t-8 -14l-18 -24q-15 -18 -30 -18q-6 0 -12 2.5t-12 5.5l-316 180q-20 11 -20 26q0 7 10 20l92 122q11 14 24 14z" />
    <glyph glyph-name="Yacute" unicode="&#xdd;" horiz-adv-x="1226" 
d="M1212 1190q-50 -98 -105.5 -196l-113.5 -191l-117.5 -179.5t-117.5 -161.5l-52 -328h102q36 0 30 -36l-10 -62q-3 -20 -12.5 -28t-29.5 -8h-498q-36 0 -30 36l10 62q3 20 12.5 28t29.5 8h102l52 326q-35 76 -67.5 162.5t-61 180t-53 191.5t-44.5 196h-82q-32 0 -32 24
q0 5 1 14t3 20l6 40q3 20 12.5 28t29.5 8h470q36 0 30 -36l-10 -62q-3 -20 -12.5 -28t-29.5 -8h-92q13 -80 28.5 -159t34.5 -154.5t41 -145.5t48 -131q45 61 89.5 131t87 145.5t82.5 154.5l77 159h-80q-36 0 -30 36l10 62q3 20 12.5 28t29.5 8h352q32 0 32 -24q0 -5 -1 -14
t-3 -20l-6 -40q-3 -20 -12.5 -28t-29.5 -8h-82zM716 1418q-6 -3 -12 -5.5t-12 -2.5q-15 0 -30 18l-18 24q-6 8 -8 14t-2 12q0 14 14 28l254 262q12 12 24 12q13 0 24 -14l92 -122q5 -6 7.5 -11t2.5 -11q0 -13 -20 -24z" />
    <glyph glyph-name="Ydieresis" unicode="&#x178;" horiz-adv-x="1226" 
d="M1212 1190q-50 -98 -105.5 -196l-113.5 -191l-117.5 -179.5t-117.5 -161.5l-52 -328h102q36 0 30 -36l-10 -62q-3 -20 -12.5 -28t-29.5 -8h-498q-36 0 -30 36l10 62q3 20 12.5 28t29.5 8h102l52 326q-35 76 -67.5 162.5t-61 180t-53 191.5t-44.5 196h-82q-32 0 -32 24
q0 5 1 14t3 20l6 40q3 20 12.5 28t29.5 8h470q36 0 30 -36l-10 -62q-3 -20 -12.5 -28t-29.5 -8h-92q13 -80 28.5 -159t34.5 -154.5t41 -145.5t48 -131q45 61 89.5 131t87 145.5t82.5 154.5l77 159h-80q-36 0 -30 36l10 62q3 20 12.5 28t29.5 8h352q32 0 32 -24q0 -5 -1 -14
t-3 -20l-6 -40q-3 -20 -12.5 -28t-29.5 -8h-82zM1154 1608q0 -34 -13 -62.5t-35 -49.5t-51.5 -32.5t-62.5 -11.5q-57 0 -92.5 33.5t-35.5 86.5q0 34 13 62.5t35 49.5t51 32.5t61 11.5q59 0 94.5 -33.5t35.5 -86.5zM762 1608q0 -34 -13 -62.5t-35 -49.5t-51.5 -32.5
t-62.5 -11.5q-57 0 -92.5 33.5t-35.5 86.5q0 34 13 62.5t35 49.5t51 32.5t61 11.5q59 0 94.5 -33.5t35.5 -86.5z" />
    <glyph glyph-name="Ycircumflex" unicode="&#x176;" horiz-adv-x="1226" 
d="M1212 1190q-50 -98 -105.5 -196l-113.5 -191l-117.5 -179.5t-117.5 -161.5l-52 -328h102q36 0 30 -36l-10 -62q-3 -20 -12.5 -28t-29.5 -8h-498q-36 0 -30 36l10 62q3 20 12.5 28t29.5 8h102l52 326q-35 76 -67.5 162.5t-61 180t-53 191.5t-44.5 196h-82q-32 0 -32 24
q0 5 1 14t3 20l6 40q3 20 12.5 28t29.5 8h470q36 0 30 -36l-10 -62q-3 -20 -12.5 -28t-29.5 -8h-92q13 -80 28.5 -159t34.5 -154.5t41 -145.5t48 -131q45 61 89.5 131t87 145.5t82.5 154.5l77 159h-80q-36 0 -30 36l10 62q3 20 12.5 28t29.5 8h352q32 0 32 -24q0 -5 -1 -14
t-3 -20l-6 -40q-3 -20 -12.5 -28t-29.5 -8h-82zM814 1544l-222 -94q-18 -8 -25.5 -10t-12.5 -2q-6 0 -14 4t-16 18l-14 24q-3 6 -5.5 12t-2.5 12q0 16 20 30l294 216q8 6 14 8t14 2q14 0 28 -14l216 -212q16 -16 16 -30q0 -13 -10 -26l-18 -24q-8 -9 -15.5 -14.5t-16.5 -5.5
q-10 0 -22 6z" />
    <glyph glyph-name="Ygrave" unicode="&#x1ef2;" horiz-adv-x="1226" 
d="M1212 1190q-50 -98 -105.5 -196l-113.5 -191l-117.5 -179.5t-117.5 -161.5l-52 -328h102q36 0 30 -36l-10 -62q-3 -20 -12.5 -28t-29.5 -8h-498q-36 0 -30 36l10 62q3 20 12.5 28t29.5 8h102l52 326q-35 76 -67.5 162.5t-61 180t-53 191.5t-44.5 196h-82q-32 0 -32 24
q0 5 1 14t3 20l6 40q3 20 12.5 28t29.5 8h470q36 0 30 -36l-10 -62q-3 -20 -12.5 -28t-29.5 -8h-92q13 -80 28.5 -159t34.5 -154.5t41 -145.5t48 -131q45 61 89.5 131t87 145.5t82.5 154.5l77 159h-80q-36 0 -30 36l10 62q3 20 12.5 28t29.5 8h352q32 0 32 -24q0 -5 -1 -14
t-3 -20l-6 -40q-3 -20 -12.5 -28t-29.5 -8h-82zM642 1784q12 0 24 -12l254 -262q14 -14 14 -28q0 -6 -2 -12t-8 -14l-18 -24q-15 -18 -30 -18q-6 0 -12 2.5t-12 5.5l-316 180q-20 11 -20 26q0 7 10 20l92 122q11 14 24 14z" />
    <glyph glyph-name="Zcaron" unicode="&#x17d;" horiz-adv-x="1164" 
d="M1176 1228q-6 -36 -28 -64l-804 -1022h502l86 222q11 34 48 34h64q36 0 30 -36l-60 -326q-3 -20 -12.5 -28t-29.5 -8h-950q-17 0 -23.5 8t-6.5 20q0 2 0.5 10.5t3.5 23.5l6 34q6 36 28 64l802 1022h-436l-76 -194q-8 -18 -19 -26t-31 -8h-64q-36 0 -30 36l60 298
q3 20 12.5 28t29.5 8h880q15 0 21.5 -6.5t6.5 -17.5q0 -2 -0.5 -8t-3.5 -26zM752 1658l226 96q14 6 21.5 8t12.5 2q21 0 32 -22l14 -24q6 -11 7 -15t1 -9q0 -15 -18 -30l-288 -212q-8 -6 -16 -11t-16 -5t-14 4t-14 10l-218 212q-8 8 -12 14t-4 14q0 6 2.5 12t7.5 14l18 28
q11 20 30 20q10 0 22 -6z" />
    <glyph glyph-name="Zacute" unicode="&#x179;" horiz-adv-x="1164" 
d="M1176 1228q-6 -36 -28 -64l-804 -1022h502l86 222q11 34 48 34h64q36 0 30 -36l-60 -326q-3 -20 -12.5 -28t-29.5 -8h-950q-17 0 -23.5 8t-6.5 20q0 2 0.5 10.5t3.5 23.5l6 34q6 36 28 64l802 1022h-436l-76 -194q-8 -18 -19 -26t-31 -8h-64q-36 0 -30 36l60 298
q3 20 12.5 28t29.5 8h880q15 0 21.5 -6.5t6.5 -17.5q0 -2 -0.5 -8t-3.5 -26zM654 1418q-6 -3 -12 -5.5t-12 -2.5q-15 0 -30 18l-18 24q-6 8 -8 14t-2 12q0 14 14 28l254 262q12 12 24 12q13 0 24 -14l92 -122q5 -6 7.5 -11t2.5 -11q0 -13 -20 -24z" />
    <glyph glyph-name="Zdotaccent" unicode="&#x17b;" horiz-adv-x="1164" 
d="M1176 1228q-6 -36 -28 -64l-804 -1022h502l86 222q11 34 48 34h64q36 0 30 -36l-60 -326q-3 -20 -12.5 -28t-29.5 -8h-950q-17 0 -23.5 8t-6.5 20q0 2 0.5 10.5t3.5 23.5l6 34q6 36 28 64l802 1022h-436l-76 -194q-8 -18 -19 -26t-31 -8h-64q-36 0 -30 36l60 298
q3 20 12.5 28t29.5 8h880q15 0 21.5 -6.5t6.5 -17.5q0 -2 -0.5 -8t-3.5 -26zM916 1624q0 -37 -14.5 -68.5t-39 -54.5t-57 -36t-69.5 -13q-32 0 -58 10t-44.5 28t-29 42.5t-10.5 53.5q0 37 14.5 68.5t38.5 54.5t56.5 36t68.5 13q65 0 104.5 -37.5t39.5 -96.5z" />
    <glyph glyph-name="IJ" unicode="&#x132;" horiz-adv-x="1396" 
d="M1442 1324q32 0 32 -24q0 -5 -1 -14t-3 -20l-6 -40q-3 -20 -12.5 -28t-29.5 -8h-82l-94 -594q-24 -150 -74 -265t-130.5 -193t-193.5 -118t-262 -40q-101 0 -180.5 25t-135 67.5t-85 99t-29.5 120.5q0 37 12 73t35 63.5t56.5 44.5t76.5 17q54 0 88 -30.5t34 -83.5
q0 -56 -30.5 -95.5t-83.5 -62.5q38 -44 100.5 -67t147.5 -23q82 0 140.5 22.5t99.5 73.5t68 132.5t46 199.5l100 634h-102q-36 0 -30 36l10 62q3 20 12.5 28t29.5 8h476zM730 1324q36 0 30 -36l-10 -62q-3 -20 -12.5 -28t-29.5 -8h-80l-74 -462h84q36 0 30 -36l-10 -62
q-3 -20 -12.5 -28t-29.5 -8h-456q-15 0 -23.5 5t-8.5 19q0 6 1 14.5t3 19.5l6 40q2 20 11.5 28t30.5 8h80l74 462h-84q-36 0 -30 36l10 62q3 20 12.5 28t29.5 8h458z" />
    <glyph glyph-name="aacute" unicode="&#xe1;" horiz-adv-x="1170" 
d="M344 366q0 -62 9.5 -104t27.5 -68.5t44 -38t59 -11.5q29 0 61.5 12t62.5 45t55.5 90t40.5 147l56 342q-30 30 -67 47t-85 17q-60 0 -109 -38t-83.5 -103t-53 -152t-18.5 -185zM956 252q-6 -45 -6 -58q0 -20 9.5 -32t32.5 -12q14 0 26 3.5t30 14.5q15 9 26 9t22 -17
l20 -30q14 -20 9 -37.5t-31 -38.5q-11 -10 -31 -22.5t-47 -24t-62 -19.5t-76 -8q-56 0 -92 13.5t-58 37t-31.5 55t-10.5 66.5q-26 -38 -56.5 -70t-67.5 -54.5t-81.5 -35t-98.5 -12.5q-81 0 -142 28.5t-102 81t-61.5 126.5t-20.5 166q0 72 14 146t42.5 143t71 129t99.5 104.5
t128 70t157 25.5q74 0 134.5 -23t111.5 -79l54 56q14 14 28 20t34 6h104q36 0 30 -36zM572 1090q-6 -3 -12 -5.5t-12 -2.5q-15 0 -30 18l-18 24q-6 8 -8 14t-2 12q0 14 14 28l254 262q12 12 24 12q13 0 24 -14l92 -122q5 -6 7.5 -11t2.5 -11q0 -13 -20 -24z" />
    <glyph glyph-name="agrave" unicode="&#xe0;" horiz-adv-x="1170" 
d="M344 366q0 -62 9.5 -104t27.5 -68.5t44 -38t59 -11.5q29 0 61.5 12t62.5 45t55.5 90t40.5 147l56 342q-30 30 -67 47t-85 17q-60 0 -109 -38t-83.5 -103t-53 -152t-18.5 -185zM956 252q-6 -45 -6 -58q0 -20 9.5 -32t32.5 -12q14 0 26 3.5t30 14.5q15 9 26 9t22 -17
l20 -30q14 -20 9 -37.5t-31 -38.5q-11 -10 -31 -22.5t-47 -24t-62 -19.5t-76 -8q-56 0 -92 13.5t-58 37t-31.5 55t-10.5 66.5q-26 -38 -56.5 -70t-67.5 -54.5t-81.5 -35t-98.5 -12.5q-81 0 -142 28.5t-102 81t-61.5 126.5t-20.5 166q0 72 14 146t42.5 143t71 129t99.5 104.5
t128 70t157 25.5q74 0 134.5 -23t111.5 -79l54 56q14 14 28 20t34 6h104q36 0 30 -36zM776 1178q14 -14 14 -28q0 -6 -2 -12t-8 -14l-18 -24q-15 -18 -30 -18q-6 0 -12 2.5t-12 5.5l-316 180q-20 11 -20 26q0 7 10 20l92 122q11 14 24 14q12 0 24 -12z" />
    <glyph glyph-name="acircumflex" unicode="&#xe2;" horiz-adv-x="1170" 
d="M344 366q0 -62 9.5 -104t27.5 -68.5t44 -38t59 -11.5q29 0 61.5 12t62.5 45t55.5 90t40.5 147l56 342q-30 30 -67 47t-85 17q-60 0 -109 -38t-83.5 -103t-53 -152t-18.5 -185zM956 252q-6 -45 -6 -58q0 -20 9.5 -32t32.5 -12q14 0 26 3.5t30 14.5q15 9 26 9t22 -17
l20 -30q14 -20 9 -37.5t-31 -38.5q-11 -10 -31 -22.5t-47 -24t-62 -19.5t-76 -8q-56 0 -92 13.5t-58 37t-31.5 55t-10.5 66.5q-26 -38 -56.5 -70t-67.5 -54.5t-81.5 -35t-98.5 -12.5q-81 0 -142 28.5t-102 81t-61.5 126.5t-20.5 166q0 72 14 146t42.5 143t71 129t99.5 104.5
t128 70t157 25.5q74 0 134.5 -23t111.5 -79l54 56q14 14 28 20t34 6h104q36 0 30 -36zM442 1118q-18 -8 -25.5 -10t-12.5 -2q-6 0 -14 4t-16 18l-14 24q-3 6 -5.5 12t-2.5 12q0 16 20 30l294 216q8 6 14 8t14 2q14 0 28 -14l216 -212q16 -16 16 -30q0 -13 -10 -26l-18 -24
q-8 -9 -15.5 -14.5t-16.5 -5.5q-10 0 -22 6l-208 100z" />
    <glyph glyph-name="adieresis" unicode="&#xe4;" horiz-adv-x="1170" 
d="M344 366q0 -62 9.5 -104t27.5 -68.5t44 -38t59 -11.5q29 0 61.5 12t62.5 45t55.5 90t40.5 147l56 342q-30 30 -67 47t-85 17q-60 0 -109 -38t-83.5 -103t-53 -152t-18.5 -185zM956 252q-6 -45 -6 -58q0 -20 9.5 -32t32.5 -12q14 0 26 3.5t30 14.5q15 9 26 9t22 -17
l20 -30q14 -20 9 -37.5t-31 -38.5q-11 -10 -31 -22.5t-47 -24t-62 -19.5t-76 -8q-56 0 -92 13.5t-58 37t-31.5 55t-10.5 66.5q-26 -38 -56.5 -70t-67.5 -54.5t-81.5 -35t-98.5 -12.5q-81 0 -142 28.5t-102 81t-61.5 126.5t-20.5 166q0 72 14 146t42.5 143t71 129t99.5 104.5
t128 70t157 25.5q74 0 134.5 -23t111.5 -79l54 56q14 14 28 20t34 6h104q36 0 30 -36zM998 1278q0 -34 -13 -62.5t-35 -49.5t-51.5 -32.5t-62.5 -11.5q-57 0 -92.5 33.5t-35.5 86.5q0 34 13 62.5t35 49.5t51 32.5t61 11.5q59 0 94.5 -33.5t35.5 -86.5zM634 1278
q0 -34 -13 -62.5t-35 -49.5t-51.5 -32.5t-62.5 -11.5q-57 0 -92.5 33.5t-35.5 86.5q0 34 13 62.5t35 49.5t51 32.5t61 11.5q59 0 94.5 -33.5t35.5 -86.5z" />
    <glyph glyph-name="atilde" unicode="&#xe3;" horiz-adv-x="1170" 
d="M344 366q0 -62 9.5 -104t27.5 -68.5t44 -38t59 -11.5q29 0 61.5 12t62.5 45t55.5 90t40.5 147l56 342q-30 30 -67 47t-85 17q-60 0 -109 -38t-83.5 -103t-53 -152t-18.5 -185zM956 252q-6 -45 -6 -58q0 -20 9.5 -32t32.5 -12q14 0 26 3.5t30 14.5q15 9 26 9t22 -17
l20 -30q14 -20 9 -37.5t-31 -38.5q-11 -10 -31 -22.5t-47 -24t-62 -19.5t-76 -8q-56 0 -92 13.5t-58 37t-31.5 55t-10.5 66.5q-26 -38 -56.5 -70t-67.5 -54.5t-81.5 -35t-98.5 -12.5q-81 0 -142 28.5t-102 81t-61.5 126.5t-20.5 166q0 72 14 146t42.5 143t71 129t99.5 104.5
t128 70t157 25.5q74 0 134.5 -23t111.5 -79l54 56q14 14 28 20t34 6h104q36 0 30 -36zM780 1112q-38 0 -70 13.5t-62 30t-58.5 30.5t-57.5 14q-36 0 -63 -12.5t-53 -39.5q-14 -14 -28 -14q-6 0 -11.5 2t-14.5 8l-20 14q-18 12 -18 30q0 10 6 22q16 31 38 62.5t50 57t61.5 42
t74.5 16.5q37 0 69.5 -14t62.5 -30.5t58.5 -30t57.5 -13.5q41 0 66.5 12t49.5 38q8 9 15 12.5t15 3.5q11 0 24 -10l20 -14q18 -12 18 -30q0 -10 -6 -22q-17 -31 -38.5 -62.5t-49.5 -57t-62 -42t-74 -16.5z" />
    <glyph glyph-name="aring" unicode="&#xe5;" horiz-adv-x="1170" 
d="M344 366q0 -62 9.5 -104t27.5 -68.5t44 -38t59 -11.5q29 0 61.5 12t62.5 45t55.5 90t40.5 147l56 342q-30 30 -67 47t-85 17q-60 0 -109 -38t-83.5 -103t-53 -152t-18.5 -185zM956 252q-6 -45 -6 -58q0 -20 9.5 -32t32.5 -12q14 0 26 3.5t30 14.5q15 9 26 9t22 -17
l20 -30q14 -20 9 -37.5t-31 -38.5q-11 -10 -31 -22.5t-47 -24t-62 -19.5t-76 -8q-56 0 -92 13.5t-58 37t-31.5 55t-10.5 66.5q-26 -38 -56.5 -70t-67.5 -54.5t-81.5 -35t-98.5 -12.5q-81 0 -142 28.5t-102 81t-61.5 126.5t-20.5 166q0 72 14 146t42.5 143t71 129t99.5 104.5
t128 70t157 25.5q74 0 134.5 -23t111.5 -79l54 56q14 14 28 20t34 6h104q36 0 30 -36zM644 1066q-59 0 -101 17t-69 47t-39.5 69.5t-12.5 84.5q0 51 19.5 100t56 88t88 62.5t116.5 23.5q58 0 100 -17t69 -47t40 -69.5t13 -84.5q0 -51 -19.5 -100t-56 -88t-88.5 -62.5
t-116 -23.5zM552 1290q0 -47 26 -78.5t74 -31.5q32 0 58.5 13.5t45 35t28.5 49t10 56.5q0 47 -26 78.5t-74 31.5q-32 0 -58.5 -13.5t-45 -35t-28.5 -49.5t-10 -56z" />
    <glyph glyph-name="abreve" unicode="&#x103;" horiz-adv-x="1170" 
d="M344 366q0 -62 9.5 -104t27.5 -68.5t44 -38t59 -11.5q29 0 61.5 12t62.5 45t55.5 90t40.5 147l56 342q-30 30 -67 47t-85 17q-60 0 -109 -38t-83.5 -103t-53 -152t-18.5 -185zM956 252q-6 -45 -6 -58q0 -20 9.5 -32t32.5 -12q14 0 26 3.5t30 14.5q15 9 26 9t22 -17
l20 -30q14 -20 9 -37.5t-31 -38.5q-11 -10 -31 -22.5t-47 -24t-62 -19.5t-76 -8q-56 0 -92 13.5t-58 37t-31.5 55t-10.5 66.5q-26 -38 -56.5 -70t-67.5 -54.5t-81.5 -35t-98.5 -12.5q-81 0 -142 28.5t-102 81t-61.5 126.5t-20.5 166q0 72 14 146t42.5 143t71 129t99.5 104.5
t128 70t157 25.5q74 0 134.5 -23t111.5 -79l54 56q14 14 28 20t34 6h104q36 0 30 -36zM666 1290q22 0 47 5.5t51 17.5t51.5 31t48.5 46q11 12 17.5 17t14.5 5t24 -8l30 -16q22 -11 22 -30q0 -3 -1 -8t-3 -10q-21 -47 -53.5 -89t-74 -74.5t-91.5 -51.5t-105 -19t-97 18.5
t-72.5 48.5t-50 69t-28.5 80q-2 6 -3 12.5t-1 15.5q0 24 28 38l32 16q12 6 20 6q16 0 28 -24q13 -26 32.5 -44t42 -29.5t46 -17t45.5 -5.5z" />
    <glyph glyph-name="amacron" unicode="&#x101;" horiz-adv-x="1170" 
d="M344 366q0 -62 9.5 -104t27.5 -68.5t44 -38t59 -11.5q29 0 61.5 12t62.5 45t55.5 90t40.5 147l56 342q-30 30 -67 47t-85 17q-60 0 -109 -38t-83.5 -103t-53 -152t-18.5 -185zM956 252q-6 -45 -6 -58q0 -20 9.5 -32t32.5 -12q14 0 26 3.5t30 14.5q15 9 26 9t22 -17
l20 -30q14 -20 9 -37.5t-31 -38.5q-11 -10 -31 -22.5t-47 -24t-62 -19.5t-76 -8q-56 0 -92 13.5t-58 37t-31.5 55t-10.5 66.5q-26 -38 -56.5 -70t-67.5 -54.5t-81.5 -35t-98.5 -12.5q-81 0 -142 28.5t-102 81t-61.5 126.5t-20.5 166q0 72 14 146t42.5 143t71 129t99.5 104.5
t128 70t157 25.5q74 0 134.5 -23t111.5 -79l54 56q14 14 28 20t34 6h104q36 0 30 -36zM440 1142q-32 0 -32 30v4.5t2 13.5l12 84q3 20 11.5 28t28.5 8h430q32 0 32 -30v-5.5t-2 -12.5l-12 -84q-3 -20 -11.5 -28t-28.5 -8h-430v0z" />
    <glyph glyph-name="aogonek" unicode="&#x105;" horiz-adv-x="1170" 
d="M846 -218q0 -36 22.5 -57t55.5 -21q45 0 84 18q17 8 24.5 7t15.5 -15l12 -22q9 -17 4 -30t-26 -28q-29 -20 -79.5 -37t-112.5 -17q-37 0 -69.5 11t-56.5 30.5t-38 47t-14 61.5q0 38 15.5 74t42 68t60.5 59.5t72 48.5q-51 4 -83.5 19t-52 38.5t-27.5 53t-9 61.5
q-26 -38 -56.5 -70t-67.5 -54.5t-81.5 -35t-98.5 -12.5q-81 0 -142 28.5t-102 81t-61.5 126.5t-20.5 166q0 72 14 146t42.5 143t71 129t99.5 104.5t128 70t157 25.5q74 0 134.5 -23.5t111.5 -80.5l54 58q14 12 28 18t34 8h104q36 -3 30 -36l-108 -692q-6 -45 -6 -58
q0 -20 9.5 -32t32.5 -12q14 0 26 3.5t30 14.5q15 9 26 9t22 -17l20 -30q14 -20 8.5 -38t-32.5 -38q-10 -8 -27 -19l-36 -23l-37 -24l-30 -20q-23 -16 -44 -35.5t-37 -42.5t-25.5 -50t-9.5 -58zM344 366q0 -62 9.5 -104t27.5 -68.5t44 -38t59 -11.5q29 0 62 12t63 45t55.5 90
t39.5 147l56 342q-30 30 -67 47t-85 17q-60 0 -109 -38t-83.5 -103t-53 -152t-18.5 -185z" />
    <glyph glyph-name="ae" unicode="&#xe6;" horiz-adv-x="1568" 
d="M1276 736q0 62 -28.5 102t-87.5 40q-39 0 -70.5 -16.5t-57.5 -44.5t-46 -65t-34 -77t-23 -81.5t-13 -77.5h98q82 0 133.5 20.5t80 52.5t38.5 71t10 76zM310 246q0 -21 6.5 -40t21.5 -34t38 -23.5t56 -8.5q69 0 121 21t103 65q-14 44 -20 91.5t-6 100.5h-62
q-55 0 -102 -8.5t-81.5 -28.5t-54.5 -53t-20 -82zM1426 168q20 -29 -6 -52q-69 -62 -165.5 -99t-220.5 -37q-120 0 -200 39t-128 107q-32 -33 -70 -60t-84.5 -46t-101.5 -29.5t-122 -10.5q-79 0 -136 18t-94.5 49.5t-55.5 75t-18 93.5q0 91 41 153.5t110 100t159 54
t188 16.5h118l16 88q6 36 10 64.5t4 63.5q0 52 -35 84t-119 32q-41 0 -84.5 -8t-81.5 -28q21 -11 33.5 -35t12.5 -51q0 -62 -34.5 -99t-97.5 -37q-51 0 -82.5 28.5t-31.5 79.5q0 61 31.5 112t88.5 88t136 57.5t174 20.5q97 0 171 -24t113 -74q66 45 148 69.5t180 24.5
q88 0 153 -18.5t108.5 -51.5t65 -80t21.5 -104q0 -70 -24 -122.5t-65.5 -90t-96 -62.5t-115 -39.5t-124 -20t-121.5 -5.5h-80q2 -63 13.5 -112t35.5 -83t63 -51.5t96 -17.5q25 0 54 5t59 14.5t59.5 23.5t55.5 31q17 11 28.5 8t23.5 -18z" />
    <glyph glyph-name="ccedilla" unicode="&#xe7;" horiz-adv-x="942" 
d="M382 -420q-46 0 -81 10.5t-59 28.5t-36 41t-12 48q0 16 5 31.5t15 27.5t24.5 19.5t33.5 7.5q24 0 43 -13t19 -39q0 -21 -10 -39t-34 -29q18 -12 39.5 -17t42.5 -5q22 0 41.5 7t34.5 19t23.5 29.5t8.5 38.5q0 41 -36.5 63.5t-99.5 34.5q-35 6 -16 38l62 102
q-83 10 -144 44t-101.5 87.5t-60.5 125.5t-20 159q0 121 37 230t107.5 191.5t172 130.5t229.5 48q76 0 136 -17.5t100.5 -50.5t62 -79t21.5 -103q0 -41 -11.5 -73t-32 -54.5t-48.5 -34.5t-60 -12q-29 0 -53 10t-40.5 27t-25.5 39t-9 46q0 21 7.5 42.5t21.5 41t35 34t48 22.5
q-18 17 -44 26.5t-56 9.5q-54 0 -98.5 -21t-78.5 -56.5t-59 -83t-41 -101t-23.5 -110.5t-7.5 -110q0 -135 46.5 -193.5t135.5 -58.5q54 0 105.5 14.5t102.5 49.5q15 11 26 9t22 -19l22 -34q14 -21 9 -36t-31 -36q-63 -51 -142.5 -79.5t-171.5 -28.5l-30 -50q37 -2 71 -12
t60.5 -29.5t42.5 -47.5t16 -65q0 -47 -20.5 -83t-55.5 -61.5t-81.5 -38.5t-98.5 -13z" />
    <glyph glyph-name="cacute" unicode="&#x107;" horiz-adv-x="942" 
d="M792 88q-63 -51 -144 -79.5t-182 -28.5q-102 0 -177.5 29.5t-125.5 84t-74.5 132t-24.5 174.5q0 121 37 230t107.5 191.5t172 130.5t229.5 48q76 0 136 -17.5t100.5 -50.5t62 -79t21.5 -103q0 -41 -11.5 -73t-32 -54.5t-48.5 -34.5t-60 -12q-29 0 -53 10t-40.5 27
t-25.5 39t-9 46q0 21 7.5 42.5t21.5 41t35 34t48 22.5q-18 17 -44 26.5t-56 9.5q-54 0 -98.5 -21t-78.5 -56.5t-59 -83t-41 -101t-23.5 -110.5t-7.5 -110q0 -135 46.5 -193.5t135.5 -58.5q54 0 105.5 14.5t102.5 49.5q15 11 26 9t22 -19l22 -34q14 -21 9 -36t-31 -36z
M538 1090q-6 -3 -12 -5.5t-12 -2.5q-15 0 -30 18l-18 24q-6 8 -8 14t-2 12q0 14 14 28l254 262q12 12 24 12q13 0 24 -14l92 -122q5 -6 7.5 -11t2.5 -11q0 -13 -20 -24z" />
    <glyph glyph-name="ccaron" unicode="&#x10d;" horiz-adv-x="942" 
d="M792 88q-63 -51 -144 -79.5t-182 -28.5q-102 0 -177.5 29.5t-125.5 84t-74.5 132t-24.5 174.5q0 121 37 230t107.5 191.5t172 130.5t229.5 48q76 0 136 -17.5t100.5 -50.5t62 -79t21.5 -103q0 -41 -11.5 -73t-32 -54.5t-48.5 -34.5t-60 -12q-29 0 -53 10t-40.5 27
t-25.5 39t-9 46q0 21 7.5 42.5t21.5 41t35 34t48 22.5q-18 17 -44 26.5t-56 9.5q-54 0 -98.5 -21t-78.5 -56.5t-59 -83t-41 -101t-23.5 -110.5t-7.5 -110q0 -135 46.5 -193.5t135.5 -58.5q54 0 105.5 14.5t102.5 49.5q15 11 26 9t22 -19l22 -34q14 -21 9 -36t-31 -36z
M862 1424q14 6 21.5 8t12.5 2q21 0 32 -22l14 -24q6 -11 7 -15t1 -9q0 -15 -18 -30l-288 -212q-8 -6 -16 -11t-16 -5t-14 4t-14 10l-218 212q-8 8 -12 14t-4 14q0 6 2.5 12t7.5 14l18 28q11 20 30 20q10 0 22 -6l206 -100z" />
    <glyph glyph-name="ccircumflex" unicode="&#x109;" horiz-adv-x="942" 
d="M792 88q-63 -51 -144 -79.5t-182 -28.5q-102 0 -177.5 29.5t-125.5 84t-74.5 132t-24.5 174.5q0 121 37 230t107.5 191.5t172 130.5t229.5 48q76 0 136 -17.5t100.5 -50.5t62 -79t21.5 -103q0 -41 -11.5 -73t-32 -54.5t-48.5 -34.5t-60 -12q-29 0 -53 10t-40.5 27
t-25.5 39t-9 46q0 21 7.5 42.5t21.5 41t35 34t48 22.5q-18 17 -44 26.5t-56 9.5q-54 0 -98.5 -21t-78.5 -56.5t-59 -83t-41 -101t-23.5 -110.5t-7.5 -110q0 -135 46.5 -193.5t135.5 -58.5q54 0 105.5 14.5t102.5 49.5q15 11 26 9t22 -19l22 -34q14 -21 9 -36t-31 -36z
M408 1118q-18 -8 -25.5 -10t-12.5 -2q-6 0 -14 4t-16 18l-14 24q-3 6 -5.5 12t-2.5 12q0 16 20 30l294 216q8 6 14 8t14 2q14 0 28 -14l216 -212q16 -16 16 -30q0 -13 -10 -26l-18 -24q-8 -9 -15.5 -14.5t-16.5 -5.5q-10 0 -22 6l-208 100z" />
    <glyph glyph-name="cdotaccent" unicode="&#x10b;" horiz-adv-x="942" 
d="M792 88q-63 -51 -144 -79.5t-182 -28.5q-102 0 -177.5 29.5t-125.5 84t-74.5 132t-24.5 174.5q0 121 37 230t107.5 191.5t172 130.5t229.5 48q76 0 136 -17.5t100.5 -50.5t62 -79t21.5 -103q0 -41 -11.5 -73t-32 -54.5t-48.5 -34.5t-60 -12q-29 0 -53 10t-40.5 27
t-25.5 39t-9 46q0 21 7.5 42.5t21.5 41t35 34t48 22.5q-18 17 -44 26.5t-56 9.5q-54 0 -98.5 -21t-78.5 -56.5t-59 -83t-41 -101t-23.5 -110.5t-7.5 -110q0 -135 46.5 -193.5t135.5 -58.5q54 0 105.5 14.5t102.5 49.5q15 11 26 9t22 -19l22 -34q14 -21 9 -36t-31 -36z
M802 1294q0 -37 -14.5 -68.5t-39 -54.5t-57 -36t-69.5 -13q-32 0 -58 10t-44.5 28t-29 42.5t-10.5 53.5q0 37 14.5 68.5t38.5 54.5t56.5 36t68.5 13q65 0 104.5 -37.5t39.5 -96.5z" />
    <glyph glyph-name="dcaron" unicode="&#x10f;" horiz-adv-x="1186" 
d="M972 252q-6 -45 -6 -58q0 -20 9.5 -32t32.5 -12q14 0 26 3.5t30 14.5q15 9 26 9t22 -17l20 -30q14 -20 9 -37.5t-31 -38.5q-11 -10 -31 -22.5t-47 -24t-62 -19.5t-76 -8q-56 0 -92 13.5t-58 37t-31.5 55t-10.5 66.5q-53 -77 -128.5 -124.5t-183.5 -47.5q-89 0 -152 33
t-103.5 88.5t-59.5 127.5t-19 151q0 74 15 149t44.5 144t73 128.5t101.5 104t129.5 69.5t156.5 25q149 0 216 -82l72 434l-88 6q-36 3 -30 38l4 40q3 20 12.5 28t29.5 10l340 22q36 3 30 -34zM344 366q0 -47 7.5 -87.5t24.5 -70.5t45.5 -47t70.5 -17q29 0 63 12t65.5 45
t58 90t41.5 147l56 342q-30 30 -69.5 47t-90.5 17t-91 -23t-70 -61.5t-51.5 -88.5t-34.5 -103t-19 -105.5t-6 -96.5zM1282 1052q-8 -14 -15.5 -19t-16.5 -5q-5 0 -9.5 1t-10.5 3l-20 6q-14 5 -20 11.5t-6 18.5q0 3 1.5 12t6.5 26l90 348q6 26 24 26q5 0 9 -1t9 -3l128 -40
q12 -3 17 -9.5t5 -14.5t-6 -20z" />
    <glyph glyph-name="eth" unicode="&#xf0;" horiz-adv-x="1146" 
d="M874 1308q47 -47 86 -106.5t67 -134t43.5 -164.5t15.5 -197q0 -160 -36.5 -293.5t-111 -230t-187.5 -150.5t-267 -54q-110 0 -190 31t-132 84t-77 124.5t-25 152.5q0 68 14.5 137.5t44.5 133t76 119t108.5 96.5t142.5 64.5t178 23.5q57 0 105 -17t77 -49
q-12 92 -41 171.5t-77 144.5l-166 -102q-30 -18 -48 14l-20 40q-18 32 12 50l136 84q-80 66 -202 102q-20 5 -25 14.5t1 27.5l14 42q6 20 17 26t23 6q9 0 21.5 -1.5l26 -3t25 -4t19.5 -3.5q63 -12 127 -34.5t127 -63.5l152 94q30 18 48 -14l22 -40q3 -6 5.5 -12t2.5 -12
q0 -13 -20 -26zM350 360q0 -137 39 -197.5t117 -60.5q61 0 110.5 35t84.5 97t54 147t19 185q0 134 -39.5 195t-116.5 61q-61 0 -110.5 -35t-84.5 -97t-54 -146.5t-19 -183.5z" />
    <glyph glyph-name="dcroat" unicode="&#x111;" horiz-adv-x="1186" 
d="M344 366q0 -47 7.5 -87.5t24.5 -70.5t45.5 -47t70.5 -17q29 0 63 12t65.5 45t58 90t41.5 147l56 342q-30 30 -69.5 47t-90.5 17t-91 -23t-70 -61.5t-51.5 -88.5t-34.5 -103t-19 -105.5t-6 -96.5zM972 252q-6 -45 -6 -58q0 -20 9.5 -32t32.5 -12q14 0 26 3.5t30 14.5
q15 9 26 9t22 -17l20 -30q14 -20 9 -37.5t-31 -38.5q-11 -10 -30.5 -22.5t-46.5 -24t-62 -19.5t-77 -8q-56 0 -92 13.5t-58 37t-31.5 55t-10.5 66.5q-53 -77 -128.5 -124.5t-183.5 -47.5q-89 0 -152 33t-103.5 88.5t-59.5 127.5t-19 151q0 74 15 149t44.5 144t73 128.5
t101.5 104t129.5 69.5t156.5 25q149 0 216 -82l32 196h-208q-36 0 -30 36l8 50q3 20 12.5 28t29.5 8h208l20 116l-88 6q-36 3 -30 38l4 40q3 20 12.5 28t29.5 10l340 22q36 3 30 -34l-36 -226h70q36 0 30 -36l-8 -50q-3 -20 -12.5 -28t-29.5 -8h-68z" />
    <glyph glyph-name="eacute" unicode="&#xe9;" horiz-adv-x="1002" 
d="M710 736q0 62 -28.5 102t-87.5 40q-39 0 -70.5 -16.5t-57.5 -44.5t-46 -65t-34 -77t-23 -81.5t-13 -77.5h98q82 0 133.5 20.5t80 52.5t38.5 71t10 76zM854 116q-63 -59 -162 -97.5t-224 -38.5q-110 0 -186.5 33t-125 91.5t-70.5 138t-22 173.5q0 119 37.5 224.5
t109.5 184.5t176.5 125t238.5 46q88 0 153 -18.5t108.5 -51.5t65 -80t21.5 -104q0 -70 -24 -122.5t-65.5 -90t-96 -62.5t-115 -39.5t-124 -20t-121.5 -5.5h-80q2 -63 13.5 -112t35.5 -83t63 -51.5t96 -17.5q51 0 112 19.5t114 52.5q17 11 28.5 11t23.5 -17l24 -34
q22 -31 -4 -54zM550 1090q-6 -3 -12 -5.5t-12 -2.5q-15 0 -30 18l-18 24q-6 8 -8 14t-2 12q0 14 14 28l254 262q12 12 24 12q13 0 24 -14l92 -122q5 -6 7.5 -11t2.5 -11q0 -13 -20 -24z" />
    </font>
</defs>
</svg>
