<?xml version="1.0" standalone="no"?>
<!DOCTYPE svg PUBLIC "-//W3C//DTD SVG 1.1//EN" "http://www.w3.org/Graphics/SVG/1.1/DTD/svg11.dtd" >
<svg>
<metadata>
Created by FontForge 20090622 at Mon Jun 29 11:26:58 2015
 By deploy user
Designed by Paul van der Laan, Pieter van Rosmalen &#38; Mike Abbink 2013. Produced by Bold Monday. FOR EXCLUSIVE USE BY GENERAL ELECTRIC COMPANY AND ITS AFFILIATES ONLY.
</metadata>
<defs>
<font id="GEInspiraSerif-Bold" horiz-adv-x="1176" >
  <font-face 
    font-family="GE Inspira Serif"
    font-weight="700"
    font-stretch="normal"
    units-per-em="2048"
    panose-1="2 6 8 2 7 0 0 0 0 3"
    ascent="1588"
    descent="-460"
    x-height="980"
    cap-height="1324"
    bbox="-382 -450 2540 1982"
    underline-thickness="136"
    underline-position="-36"
    unicode-range="U+0020-U+FB02"
  />
<missing-glyph horiz-adv-x="490" 
d="M136 -380q-20 0 -28 8t-8 28v1768q0 20 8 28t28 8h218q20 0 28 -8t8 -28v-1768q0 -20 -8 -28t-28 -8h-218z" />
    <glyph glyph-name="f_b" unicode="fb" horiz-adv-x="1870" 
d="M1802 492q0 -120 -28.5 -215t-82 -161t-131 -101t-174.5 -35q-66 0 -119 15t-95 39t-73 55.5t-53 64.5l-76 -124q-11 -17 -23.5 -23.5t-32.5 -6.5h-64q-20 0 -28 8t-8 28v1288q-23 20 -57 33t-85 13q-41 0 -75.5 -11.5t-59.5 -39.5t-39 -74.5t-14 -116.5v-148h196
q20 0 28 -8t8 -28v-62q0 -20 -8 -28t-28 -8h-196v-712h86q20 0 28 -8t8 -28v-62q0 -20 -8 -28t-28 -8h-464q-20 0 -28 8t-8 28v62q0 20 8 28t28 8h86v712h-136q-20 0 -28 8t-8 28v62q0 20 8 28t28 8h136v12q0 129 31.5 224.5t90.5 158.5t144.5 94t193.5 31q57 0 119 -9.5
t113 -32.5l186 34q36 6 36 -30v-612q18 27 46.5 54t66.5 48t85 34.5t102 13.5q97 0 171.5 -33.5t124 -98t75 -159.5t25.5 -217zM1106 264q39 -57 88.5 -82.5t97.5 -25.5q49 0 88 20t66 61t41.5 104t14.5 149t-14.5 148.5t-41.5 103t-65.5 59.5t-86.5 19q-50 0 -99.5 -22.5
t-88.5 -79.5v-454z" />
    <glyph glyph-name="f_f" unicode="ff" horiz-adv-x="1368" 
d="M706 1370q-48 0 -88.5 -12t-70.5 -40t-46.5 -74.5t-16.5 -115.5v-148h352v16q0 95 19.5 174t52.5 138q-33 24 -83 43t-119 19zM570 134q20 0 28 -8t8 -28v-62q0 -20 -8 -28t-28 -8h-464q-20 0 -28 8t-8 28v62q0 20 8 28t28 8h86v712h-136q-20 0 -28 8t-8 28v62q0 20 8 28
t28 8h136v12q0 129 34.5 224.5t98.5 158.5t155.5 94t205.5 31q40 0 82.5 -4t84.5 -13t80.5 -24t70.5 -37q50 39 110 58.5t126 19.5q152 0 231 -55t79 -149q0 -28 -9.5 -54t-27 -46.5t-42 -33t-55.5 -12.5t-55.5 9.5t-42 26t-27 38t-9.5 46.5q0 39 16.5 65t49.5 43
q-15 5 -31 7.5t-33 2.5q-32 0 -60 -11.5t-49.5 -40.5t-34 -79.5t-12.5 -128.5v-148h196q20 0 28 -8t8 -28v-62q0 -20 -8 -28t-28 -8h-196v-712h104q20 0 28 -8t8 -28v-62q0 -20 -8 -28t-28 -8h-482q-20 0 -28 8t-8 28v62q0 20 8 28t28 8h86v712h-352v-712h86z" />
    <glyph glyph-name="f_h" unicode="fh" horiz-adv-x="1896" 
d="M570 134q20 0 28 -8t8 -28v-62q0 -20 -8 -28t-28 -8h-464q-20 0 -28 8t-8 28v62q0 20 8 28t28 8h86v712h-136q-20 0 -28 8t-8 28v62q0 20 8 28t28 8h136v12q0 129 31.5 224.5t90.5 158.5t144.5 94t193.5 31q59 0 124 -10t122 -34l192 36q36 6 36 -30v-600q22 25 50.5 50
t66 44.5t84.5 31.5t105 12q82 0 142 -26.5t98.5 -74t57 -113t18.5 -142.5v-510h86q20 0 28 -8t8 -28v-62q0 -20 -8 -28t-28 -8h-462q-20 0 -28 8t-8 28v62q0 20 8 28t28 8h84v490q0 43 -8 79.5t-25.5 63t-46 41t-68.5 14.5q-44 0 -92 -22t-90 -70v-596h86q20 0 28 -8t8 -28
v-62q0 -20 -8 -28t-28 -8h-462q-20 0 -28 8t-8 28v62q0 20 8 28t28 8h84v1184q-27 21 -66.5 36.5t-95.5 15.5q-41 0 -75.5 -11.5t-59.5 -39.5t-39 -74.5t-14 -116.5v-148h196q20 0 28 -8t8 -28v-62q0 -20 -8 -28t-28 -8h-196v-712h86z" />
    <glyph glyph-name="f_i" unicode="fi" horiz-adv-x="1304" 
d="M570 134q20 0 28 -8t8 -28v-62q0 -20 -8 -28t-28 -8h-464q-20 0 -28 8t-8 28v62q0 20 8 28t28 8h86v712h-136q-20 0 -28 8t-8 28v62q0 20 8 28t28 8h136v12q0 129 37.5 224.5t105 158.5t162 94t209.5 31q96 0 171 -16t126 -45t78 -70.5t27 -92.5q0 -34 -12 -63t-33 -50.5
t-50 -34t-63 -12.5q-71 0 -111.5 36.5t-40.5 95.5q0 33 13 59.5t37 46.5q-27 9 -58.5 14.5t-67.5 5.5q-50 0 -93.5 -16t-75.5 -51t-50.5 -90t-18.5 -133v-104h350l258 16q36 3 36 -34v-828h86q20 0 28 -8t8 -28v-62q0 -20 -8 -28t-28 -8h-464q-20 0 -28 8t-8 28v62
q0 20 8 28t28 8h86v712h-352v-712h86z" />
    <glyph glyph-name="f_j" unicode="fj" horiz-adv-x="1258" 
d="M1116 92q0 -131 -33.5 -227t-92 -159.5t-138 -94.5t-170.5 -31q-127 0 -195.5 48.5t-68.5 131.5q0 28 7.5 52t23 42t39.5 28t56 10q51 0 84.5 -27t33.5 -77q0 -68 -54 -98q30 -6 66 -6q33 0 60.5 12.5t47.5 43.5t31 82.5t11 129.5v894h-340v-712h86q20 0 28 -8t8 -28v-62
q0 -20 -8 -28t-28 -8h-464q-20 0 -28 8t-8 28v62q0 20 8 28t28 8h86v712h-136q-20 0 -28 8t-8 28v62q0 20 8 28t28 8h136v12q0 129 38 224.5t106 158.5t162.5 94t207.5 31q96 0 171 -16t126 -45t78 -70.5t27 -92.5q0 -34 -12 -63t-33 -50.5t-50 -34t-63 -12.5
q-71 0 -111.5 36.5t-40.5 95.5q0 33 13 59.5t37 46.5q-27 9 -58.5 14.5t-67.5 5.5q-50 0 -93.5 -16t-75.5 -51t-50.5 -90t-18.5 -133v-104h338l258 16q36 3 36 -34v-870v0z" />
    <glyph glyph-name="f_k" unicode="fk" horiz-adv-x="1860" 
d="M570 134q20 0 28 -8t8 -28v-62q0 -20 -8 -28t-28 -8h-464q-20 0 -28 8t-8 28v62q0 20 8 28t28 8h86v712h-136q-20 0 -28 8t-8 28v62q0 20 8 28t28 8h136v12q0 129 31.5 224.5t90.5 158.5t144.5 94t193.5 31q59 0 124 -10t122 -34l192 36q36 6 36 -30v-932q91 68 172 146
t158 170h-110q-20 0 -28 8t-8 28v62q0 20 8 28t28 8h428q20 0 28 -8t8 -28v-62q0 -20 -8 -28t-28 -8h-122q-56 -71 -113.5 -132.5t-120.5 -117.5q86 -97 167 -216t141 -246h86q20 0 28 -8t8 -28v-62q0 -20 -8 -28t-28 -8h-320q-20 0 -30.5 7t-19.5 27q-42 104 -106 204.5
t-136 185.5q-15 -11 -36 -25l-38 -25v-240h86q20 0 28 -8t8 -28v-62q0 -20 -8 -28t-28 -8h-462q-20 0 -28 8t-8 28v62q0 20 8 28t28 8h84v1184q-27 21 -66.5 36.5t-95.5 15.5q-41 0 -75.5 -11.5t-59.5 -39.5t-39 -74.5t-14 -116.5v-148h196q20 0 28 -8t8 -28v-62
q0 -20 -8 -28t-28 -8h-196v-712h86z" />
    <glyph glyph-name="f_l" unicode="fl" horiz-adv-x="1302" 
d="M570 134q20 0 28 -8t8 -28v-62q0 -20 -8 -28t-28 -8h-464q-20 0 -28 8t-8 28v62q0 20 8 28t28 8h86v712h-136q-20 0 -28 8t-8 28v62q0 20 8 28t28 8h136v12q0 129 31.5 224.5t91 158.5t145 94t192.5 31q59 0 124 -10t122 -34l192 36q36 6 36 -30v-1328h86q20 0 28 -8
t8 -28v-62q0 -20 -8 -28t-28 -8h-462q-20 0 -28 8t-8 28v62q0 20 8 28t28 8h84v1184q-27 21 -66.5 36.5t-95.5 15.5q-41 0 -75.5 -11.5t-59.5 -39.5t-39 -74.5t-14 -116.5v-148h196q20 0 28 -8t8 -28v-62q0 -20 -8 -28t-28 -8h-196v-712h86z" />
    <glyph glyph-name="f_f_b" unicode="ffb" horiz-adv-x="2514" 
d="M706 1370q-48 0 -88.5 -12t-70.5 -40t-46.5 -74.5t-16.5 -115.5v-148h352v16q2 95 19.5 175t52.5 137q-33 24 -83 43t-119 19zM2446 492q0 -120 -28.5 -215t-82 -161t-131 -101t-174.5 -35q-66 0 -119 15t-95 39t-73 55.5t-53 64.5l-76 -124q-11 -17 -23.5 -23.5
t-32.5 -6.5h-64q-20 0 -28 8t-8 28v1288q-23 20 -57 33t-85 13q-41 0 -75.5 -11.5t-59.5 -39.5t-39 -74.5t-14 -116.5v-148h196q20 0 28 -8t8 -28v-62q0 -20 -8 -28t-28 -8h-196v-712h86q20 0 28 -8t8 -28v-62q0 -20 -8 -28t-28 -8h-464q-20 0 -28 8t-8 28v62q0 20 8 28
t28 8h86v712h-352v-712h86q20 0 28 -8t8 -28v-62q0 -20 -8 -28t-28 -8h-464q-20 0 -28 8t-8 28v62q0 20 8 28t28 8h86v712h-136q-20 0 -28 8t-8 28v62q0 20 8 28t28 8h136v12q0 129 34 224.5t98 158.5t155.5 94t206.5 31q40 0 84 -4t86 -13.5t81 -25t71 -37.5q110 80 288 80
q57 0 119 -9.5t113 -32.5l186 34q36 6 36 -30v-612q18 27 46.5 54t66.5 48t85 34.5t102 13.5q97 0 171.5 -33.5t124 -98t75 -159.5t25.5 -217zM1750 264q39 -57 88.5 -82.5t97.5 -25.5q49 0 88 20t66 61t41.5 104t14.5 149t-14.5 148.5t-41.5 103t-65.5 59.5t-86.5 19
q-50 0 -99.5 -22.5t-88.5 -79.5v-454z" />
    <glyph glyph-name="f_f_h" unicode="ffh" horiz-adv-x="2540" 
d="M706 1370q-48 0 -88.5 -12t-70.5 -40t-46.5 -74.5t-16.5 -115.5v-148h352v16q0 95 18.5 175t53.5 137q-33 24 -83 43t-119 19zM570 134q20 0 28 -8t8 -28v-62q0 -20 -8 -28t-28 -8h-464q-20 0 -28 8t-8 28v62q0 20 8 28t28 8h86v712h-136q-20 0 -28 8t-8 28v62q0 20 8 28
t28 8h136v12q0 129 34 224.5t98 158.5t155.5 94t206.5 31q40 0 84 -4t86 -13.5t81 -25t71 -37.5q110 80 288 80q59 0 124 -10t122 -34l192 36q36 6 36 -30v-600q22 25 50.5 50t66 44.5t84.5 31.5t105 12q82 0 142 -26.5t98.5 -74t57 -113t18.5 -142.5v-510h86q20 0 28 -8
t8 -28v-62q0 -20 -8 -28t-28 -8h-462q-20 0 -28 8t-8 28v62q0 20 8 28t28 8h84v490q0 43 -8 79.5t-25.5 63t-46 41t-68.5 14.5q-44 0 -92 -22t-90 -70v-596h86q20 0 28 -8t8 -28v-62q0 -20 -8 -28t-28 -8h-462q-20 0 -28 8t-8 28v62q0 20 8 28t28 8h84v1184
q-27 21 -66.5 36.5t-95.5 15.5q-41 0 -75.5 -11.5t-59.5 -39.5t-39 -74.5t-14 -116.5v-148h196q20 0 28 -8t8 -28v-62q0 -20 -8 -28t-28 -8h-196v-712h86q20 0 28 -8t8 -28v-62q0 -20 -8 -28t-28 -8h-464q-20 0 -28 8t-8 28v62q0 20 8 28t28 8h86v712h-352v-712h86z" />
    <glyph glyph-name="f_f_i" unicode="ffi" horiz-adv-x="1948" 
d="M706 1370q-48 0 -88.5 -12t-70.5 -40t-46.5 -74.5t-16.5 -115.5v-148h352v16q0 95 21 171.5t59 132.5q-33 27 -84.5 48.5t-125.5 21.5zM570 134q20 0 28 -8t8 -28v-62q0 -20 -8 -28t-28 -8h-464q-20 0 -28 8t-8 28v62q0 20 8 28t28 8h86v712h-136q-20 0 -28 8t-8 28v62
q0 20 8 28t28 8h136v12q0 129 34 224.5t98 158.5t155.5 94t206.5 31q43 0 89 -4.5t90 -15t84 -28t71 -42.5q65 45 147.5 67.5t182.5 22.5q96 0 171 -16t126 -45t78 -70.5t27 -92.5q0 -34 -12 -63t-33 -50.5t-50 -34t-63 -12.5q-71 0 -111.5 36.5t-40.5 95.5q0 33 13 59.5
t37 46.5q-27 9 -58.5 14.5t-67.5 5.5q-50 0 -93.5 -16t-75.5 -51t-50.5 -90t-18.5 -133v-104h350l258 16q36 3 36 -34v-828h86q20 0 28 -8t8 -28v-62q0 -20 -8 -28t-28 -8h-464q-20 0 -28 8t-8 28v62q0 20 8 28t28 8h86v712h-352v-712h86q20 0 28 -8t8 -28v-62q0 -20 -8 -28
t-28 -8h-464q-20 0 -28 8t-8 28v62q0 20 8 28t28 8h86v712h-352v-712h86z" />
    <glyph glyph-name="f_f_j" unicode="ffj" horiz-adv-x="1902" 
d="M706 1370q-48 0 -88.5 -12t-70.5 -40t-46.5 -74.5t-16.5 -115.5v-148h352v16q0 95 21 171t59 133q-33 27 -84.5 48.5t-125.5 21.5zM1760 92q0 -131 -33.5 -227t-92 -159.5t-138 -94.5t-170.5 -31q-127 0 -195.5 48.5t-68.5 131.5q0 28 7.5 52t23 42t39.5 28t56 10
q51 0 84.5 -27t33.5 -77q0 -68 -54 -98q30 -6 66 -6q33 0 60.5 12.5t47.5 43.5t31 82.5t11 129.5v894h-340v-712h86q20 0 28 -8t8 -28v-62q0 -20 -8 -28t-28 -8h-464q-20 0 -28 8t-8 28v62q0 20 8 28t28 8h86v712h-352v-712h86q20 0 28 -8t8 -28v-62q0 -20 -8 -28t-28 -8
h-464q-20 0 -28 8t-8 28v62q0 20 8 28t28 8h86v712h-136q-20 0 -28 8t-8 28v62q0 20 8 28t28 8h136v12q0 129 34 224.5t98 158.5t155.5 94t206.5 31q43 0 89 -4.5t90 -15t84 -28t71 -42.5q65 45 147.5 67.5t182.5 22.5q96 0 171 -16t126 -45t78 -70.5t27 -92.5
q0 -34 -12 -63t-33 -50.5t-50 -34t-63 -12.5q-71 0 -111.5 36.5t-40.5 95.5q0 33 13 59.5t37 46.5q-27 9 -58.5 14.5t-67.5 5.5q-50 0 -93.5 -16t-75.5 -51t-50.5 -90t-18.5 -133v-104h338l258 16q36 3 36 -34v-870z" />
    <glyph glyph-name="f_f_k" unicode="ffk" horiz-adv-x="2504" 
d="M706 1370q-48 0 -88.5 -12t-70.5 -40t-46.5 -74.5t-16.5 -115.5v-148h352v16q0 95 18.5 174t53.5 138q-33 24 -83 43t-119 19zM570 134q20 0 28 -8t8 -28v-62q0 -20 -8 -28t-28 -8h-464q-20 0 -28 8t-8 28v62q0 20 8 28t28 8h86v712h-136q-20 0 -28 8t-8 28v62q0 20 8 28
t28 8h136v12q0 129 34 224.5t98 158.5t155.5 94t206.5 31q40 0 84 -4t86 -13.5t81 -25t71 -37.5q110 80 288 80q59 0 124 -10t122 -34l192 36q36 6 36 -30v-932q91 68 172 146t158 170h-110q-20 0 -28 8t-8 28v62q0 20 8 28t28 8h428q20 0 28 -8t8 -28v-62q0 -20 -8 -28
t-28 -8h-122q-56 -71 -113.5 -132.5t-120.5 -117.5q86 -97 167 -216t141 -246h86q20 0 28 -8t8 -28v-62q0 -20 -8 -28t-28 -8h-320q-20 0 -30.5 7t-19.5 27q-42 104 -106 204.5t-136 185.5q-15 -11 -36 -25l-38 -25v-240h86q20 0 28 -8t8 -28v-62q0 -20 -8 -28t-28 -8h-462
q-20 0 -28 8t-8 28v62q0 20 8 28t28 8h84v1184q-27 21 -66.5 36.5t-95.5 15.5q-41 0 -75.5 -11.5t-59.5 -39.5t-39 -74.5t-14 -116.5v-148h196q20 0 28 -8t8 -28v-62q0 -20 -8 -28t-28 -8h-196v-712h86q20 0 28 -8t8 -28v-62q0 -20 -8 -28t-28 -8h-464q-20 0 -28 8t-8 28v62
q0 20 8 28t28 8h86v712h-352v-712h86z" />
    <glyph glyph-name="f_f_l" unicode="ffl" horiz-adv-x="1946" 
d="M706 1370q-48 0 -88.5 -12t-70.5 -40t-46.5 -74.5t-16.5 -115.5v-148h352v16q0 95 18.5 174t53.5 138q-33 24 -83 43t-119 19zM570 134q20 0 28 -8t8 -28v-62q0 -20 -8 -28t-28 -8h-464q-20 0 -28 8t-8 28v62q0 20 8 28t28 8h86v712h-136q-20 0 -28 8t-8 28v62q0 20 8 28
t28 8h136v12q0 129 34.5 224.5t98.5 158.5t155.5 94t205.5 31q40 0 84 -4t86 -13.5t81 -25t71 -37.5q110 80 288 80q59 0 124 -10t122 -34l192 36q36 6 36 -30v-1328h86q20 0 28 -8t8 -28v-62q0 -20 -8 -28t-28 -8h-462q-20 0 -28 8t-8 28v62q0 20 8 28t28 8h84v1184
q-27 21 -66.5 36.5t-95.5 15.5q-41 0 -75.5 -11.5t-59.5 -39.5t-39 -74.5t-14 -116.5v-148h196q20 0 28 -8t8 -28v-62q0 -20 -8 -28t-28 -8h-196v-712h86q20 0 28 -8t8 -28v-62q0 -20 -8 -28t-28 -8h-464q-20 0 -28 8t-8 28v62q0 20 8 28t28 8h86v712h-352v-712h86z" />
    <glyph glyph-name=".notdef" horiz-adv-x="490" 
d="M136 -380q-20 0 -28 8t-8 28v1768q0 20 8 28t28 8h218q20 0 28 -8t8 -28v-1768q0 -20 -8 -28t-28 -8h-218z" />
    <glyph glyph-name=".null" horiz-adv-x="0" 
 />
    <glyph glyph-name="nonmarkingreturn" horiz-adv-x="490" 
 />
    <glyph glyph-name="space" unicode=" " horiz-adv-x="490" 
 />
    <glyph glyph-name="uni00A0" unicode="&#xa0;" horiz-adv-x="490" 
 />
    <glyph glyph-name="bar" unicode="|" horiz-adv-x="574" 
d="M248 -180q-20 0 -28 8t-8 28v1612q0 20 8 28t28 8h78q20 0 28 -8t8 -28v-1612q0 -20 -8 -28t-28 -8h-78z" />
    <glyph glyph-name="brokenbar" unicode="&#xa6;" horiz-adv-x="574" 
d="M248 874q-20 0 -28 8t-8 28v558q0 20 8 28t28 8h78q20 0 28 -8t8 -28v-558q0 -20 -8 -28t-28 -8h-78zM248 -180q-20 0 -28 8t-8 28v558q0 20 8 28t28 8h78q20 0 28 -8t8 -28v-558q0 -20 -8 -28t-28 -8h-78z" />
    <glyph glyph-name="hyphen" unicode="-" horiz-adv-x="704" 
d="M126 468q-20 0 -28 8t-8 28v144q0 20 8 28t28 8h452q20 0 28 -8t8 -28v-144q0 -20 -8 -28t-28 -8h-452z" />
    <glyph glyph-name="uni00AD" unicode="&#xad;" horiz-adv-x="704" 
d="M126 468q-20 0 -28 8t-8 28v144q0 20 8 28t28 8h452q20 0 28 -8t8 -28v-144q0 -20 -8 -28t-28 -8h-452z" />
    <glyph glyph-name="endash" unicode="&#x2013;" horiz-adv-x="1000" 
d="M146 498q-20 0 -28 8t-8 28v84q0 20 8 28t28 8h708q20 0 28 -8t8 -28v-84q0 -20 -8 -28t-28 -8h-708z" />
    <glyph glyph-name="emdash" unicode="&#x2014;" horiz-adv-x="1600" 
d="M146 498q-20 0 -28 8t-8 28v84q0 20 8 28t28 8h1308q20 0 28 -8t8 -28v-84q0 -20 -8 -28t-28 -8h-1308z" />
    <glyph glyph-name="underscore" unicode="_" horiz-adv-x="940" 
d="M16 -156q-20 0 -28 8t-8 28v84q0 20 8 28t28 8h908q20 0 28 -8t8 -28v-84q0 -20 -8 -28t-28 -8h-908z" />
    <glyph glyph-name="asciitilde" unicode="~" 
d="M196 378q-8 -14 -13 -18t-13 -4q-3 0 -7.5 1t-18.5 7l-36 18q-12 6 -18 12.5t-6 17.5q0 3 1 8t3 10q15 41 40.5 82t61.5 74t84 53.5t108 20.5q49 0 90.5 -13.5t78 -33.5t69 -43l63.5 -43t61.5 -33.5t63.5 -13.5q28 0 53.5 10.5t47.5 27.5t39.5 39t29.5 45q8 15 14 20.5
t14 5.5q3 0 7.5 -1t18.5 -7l36 -18q12 -6 18 -12.5t6 -17.5q0 -3 -1 -8t-3 -10q-15 -41 -40.5 -82t-61.5 -74t-84 -53.5t-108 -20.5q-49 0 -90.5 13.5t-78 33.5t-69 43l-63.5 43t-62 33.5t-63 13.5q-28 0 -53 -10.5t-47 -28t-40.5 -40t-31.5 -47.5z" />
    <glyph glyph-name="plus" unicode="+" 
d="M134 414q-20 0 -28 8t-8 28v84q0 20 8 28t28 8h370v374q0 20 8 28t28 8h96q20 0 28 -8t8 -28v-374h370q20 0 28 -8t8 -28v-84q0 -20 -8 -28t-28 -8h-370v-378q0 -20 -8 -28t-28 -8h-96q-20 0 -28 8t-8 28v378h-370z" />
    <glyph glyph-name="plusminus" unicode="&#xb1;" 
d="M134 556q-20 0 -28 8t-8 28v84q0 20 8 28t28 8h370v264q0 20 8 28t28 8h96q20 0 28 -8t8 -28v-264h370q20 0 28 -8t8 -28v-84q0 -20 -8 -28t-28 -8h-370v-268q0 -20 -8 -28t-28 -8h-96q-20 0 -28 8t-8 28v268h-370zM134 0q-20 0 -28 8t-8 28v84q0 20 8 28t28 8h908
q20 0 28 -8t8 -28v-84q0 -20 -8 -28t-28 -8h-908z" />
    <glyph glyph-name="minus" unicode="&#x2212;" 
d="M134 414q-20 0 -28 8t-8 28v84q0 20 8 28t28 8h908q20 0 28 -8t8 -28v-84q0 -20 -8 -28t-28 -8h-908z" />
    <glyph glyph-name="multiply" unicode="&#xd7;" 
d="M162 796q-14 14 -14 26t14 26l62 62q14 14 26 14t26 -14l312 -312l312 312q14 14 26 14t26 -14l62 -62q14 -14 14 -26t-14 -26l-312 -312l312 -312q14 -14 14 -26t-14 -26l-62 -62q-14 -14 -26 -14t-26 14l-312 312l-312 -312q-14 -14 -26 -14t-26 14l-62 62
q-14 14 -14 26t14 26l312 312z" />
    <glyph glyph-name="equal" unicode="=" 
d="M134 614q-20 0 -28 8t-8 28v84q0 20 8 28t28 8h908q20 0 28 -8t8 -28v-84q0 -20 -8 -28t-28 -8h-908zM134 214q-20 0 -28 8t-8 28v84q0 20 8 28t28 8h908q20 0 28 -8t8 -28v-84q0 -20 -8 -28t-28 -8h-908z" />
    <glyph glyph-name="notequal" unicode="&#x2260;" 
d="M360 214h-226q-20 0 -28 8t-8 28v84q0 20 8 28t28 8h314l136 244h-450q-20 0 -28 8t-8 28v84q0 20 8 28t28 8h536l132 234q11 20 23.5 26t32.5 6h72q22 0 22 -14q0 -3 -2 -8t-12 -24l-124 -220h228q20 0 28 -8t8 -28v-84q0 -20 -8 -28t-28 -8h-314l-136 -244h450
q20 0 28 -8t8 -28v-84q0 -20 -8 -28t-28 -8h-538l-130 -234q-11 -20 -23.5 -26t-32.5 -6h-72q-22 0 -22 14q0 3 1 7.5t9 18.5z" />
    <glyph glyph-name="approxequal" unicode="&#x2248;" 
d="M196 578q-8 -14 -13 -18t-13 -4q-3 0 -7.5 1t-18.5 7l-36 18q-12 6 -18 12.5t-6 17.5q0 3 1 8t3 10q15 41 40.5 82t61.5 74t84 53.5t108 20.5q49 0 90.5 -13.5t78 -33.5t69 -43l63.5 -43t61.5 -33.5t63.5 -13.5q28 0 53.5 10.5t47.5 27.5t39.5 39t29.5 45q8 15 14 20.5
t14 5.5q3 0 7.5 -1t18.5 -7l36 -18q12 -6 18 -12.5t6 -17.5q0 -3 -1 -8t-3 -10q-15 -41 -40.5 -82t-61.5 -74t-84 -53.5t-108 -20.5q-49 0 -90.5 13.5t-78 33.5t-69 43l-63.5 43t-62 33.5t-63 13.5q-28 0 -53 -10.5t-47 -28t-40.5 -40t-31.5 -47.5zM196 179q-8 -14 -13 -18
t-13 -4q-3 0 -7.5 1t-18.5 7l-36 18q-12 6 -18 12.5t-6 17.5q0 3 1 8t3 10q15 41 40.5 82t61.5 74t84 53.5t108 20.5q49 0 90.5 -13.5t78 -33.5t69 -43l63.5 -43t61.5 -33.5t63.5 -13.5q28 0 53.5 10.5t47.5 27.5t39.5 39t29.5 45q8 15 14 20.5t14 5.5q3 0 7.5 -1t18.5 -7
l36 -18q12 -6 18 -12.5t6 -17.5q0 -3 -1 -8t-3 -10q-15 -41 -40.5 -82t-61.5 -74t-84 -53.5t-108 -20.5q-49 0 -90.5 13.5t-78 33.5t-69 43l-63.5 43t-62 33.5t-63 13.5q-28 0 -53 -10.5t-47 -28t-40.5 -40t-31.5 -47.5z" />
    <glyph glyph-name="less" unicode="&#x3c;" 
d="M332 492l656 -320q22 -11 22 -28q0 -3 -0.5 -8t-5.5 -14l-34 -72q-11 -22 -28 -22q-8 0 -20 6l-734 360q-18 9 -25 20.5t-7 31.5v92q0 20 7 31.5t25 20.5l734 360q12 6 20 6q9 0 15.5 -4t12.5 -18l34 -72q8 -16 8 -24q0 -9 -6 -14.5t-18 -11.5z" />
    <glyph glyph-name="greater" unicode="&#x3e;" 
d="M188 812q-12 6 -18 11.5t-6 14.5q0 8 8 24l34 72q6 14 12.5 18t15.5 4q8 0 20 -6l734 -360q18 -9 25 -20.5t7 -31.5v-92q0 -20 -7 -31.5t-25 -20.5l-734 -360q-12 -6 -20 -6q-17 0 -28 22l-34 72q-5 9 -5.5 14t-0.5 8q0 17 22 28l656 320l-656 320v0z" />
    <glyph glyph-name="lessequal" unicode="&#x2264;" 
d="M332 634l650 -262q15 -6 20.5 -11.5t5.5 -14.5q0 -5 -2 -11t-8 -21l-24 -60q-6 -14 -13 -19t-15 -5q-11 0 -30 8l-726 300q-18 8 -26 19t-8 31v92q0 20 8 31t26 19l732 302q15 6 24 6q19 0 28 -24l26 -64q5 -12 6.5 -17.5t1.5 -10.5q0 -16 -26 -26zM192 0q-20 0 -28 8
t-8 28v84q0 20 8 28t28 8h784q20 0 28 -8t8 -28v-84q0 -20 -8 -28t-28 -8h-784z" />
    <glyph glyph-name="greaterequal" unicode="&#x2265;" 
d="M194 896q-14 6 -20 11.5t-6 14.5q0 5 1.5 10.5t6.5 17.5l26 64q9 24 28 24q9 0 24 -6l732 -302q18 -8 26 -19t8 -31v-92q0 -20 -8 -31t-26 -19l-726 -300q-19 -8 -30 -8q-8 0 -15 5t-13 19l-24 60q-6 15 -8 21t-2 11q0 9 5.5 14.5t20.5 11.5l650 262zM984 156q20 0 28 -8
t8 -28v-84q0 -20 -8 -28t-28 -8h-784q-20 0 -28 8t-8 28v84q0 20 8 28t28 8h784z" />
    <glyph glyph-name="exclam" unicode="!" horiz-adv-x="786" 
d="M446 494q-6 -32 -20 -43t-34 -11q-18 0 -32 11t-20 43l-164 794q-9 36 28 36h378q37 0 28 -36zM566 154q0 -36 -12.5 -67.5t-35 -55.5t-54.5 -37.5t-72 -13.5t-72 13.5t-54.5 37.5t-35 55.5t-12.5 67.5t12.5 67.5t35 55.5t54.5 37.5t72 13.5t72 -13.5t54.5 -37.5
t35 -55.5t12.5 -67.5z" />
    <glyph glyph-name="exclamdown" unicode="&#xa1;" horiz-adv-x="714" 
d="M356 652q-40 0 -72 13.5t-54.5 37.5t-35 55.5t-12.5 67.5t12.5 67.5t35 55.5t54.5 37.5t72 13.5t72 -13.5t54.5 -37.5t35 -55.5t12.5 -67.5t-12.5 -67.5t-35 -55.5t-54.5 -37.5t-72 -13.5zM304 486q6 32 20 43t32 11q20 0 34 -11t20 -43l164 -794q9 -36 -28 -36h-378
q-37 0 -28 36z" />
    <glyph glyph-name="question" unicode="?" horiz-adv-x="950" 
d="M434 462q-2 -12 -7 -17t-17 -5h-30q-35 0 -44 34q-5 12 -6.5 26t-1.5 28q0 38 6 68.5t20 58.5t38 56t60 63q31 30 51.5 59t33 61t18 68.5t5.5 81.5q0 84 -49 124t-127 40q-42 0 -81.5 -9.5t-74.5 -30.5q35 -18 52.5 -47t17.5 -65q0 -29 -11 -51.5t-29.5 -39t-42.5 -25
t-49 -8.5q-29 0 -53 11.5t-41 32t-26.5 47.5t-9.5 59q0 55 24.5 102.5t74.5 83t126 56t179 20.5q91 0 168 -18t133.5 -54t88.5 -90t32 -126q0 -71 -25.5 -127t-64.5 -99.5t-85.5 -77.5l-88.5 -62q-38 -26 -66 -47.5t-47.5 -44t-31 -49t-15.5 -61.5zM586 154
q0 -36 -12.5 -67.5t-35 -55.5t-54.5 -37.5t-72 -13.5t-72 13.5t-54.5 37.5t-35 55.5t-12.5 67.5t12.5 67.5t35 55.5t54.5 37.5t72 13.5t72 -13.5t54.5 -37.5t35 -55.5t12.5 -67.5z" />
    <glyph glyph-name="questiondown" unicode="&#xbf;" horiz-adv-x="910" 
d="M312 826q0 36 12.5 67.5t35 55.5t54.5 37.5t72 13.5t72 -13.5t54.5 -37.5t35 -55.5t12.5 -67.5t-12.5 -67.5t-35 -55.5t-54.5 -37.5t-72 -13.5t-72 13.5t-54.5 37.5t-35 55.5t-12.5 67.5zM862 -102q0 -55 -24.5 -102.5t-74.5 -83t-126 -56t-179 -20.5q-91 0 -168 18
t-133.5 54t-88.5 90t-32 126q0 71 25.5 127t64.5 99.5t85.5 77.5l88.5 62q38 25 66 47t47.5 44.5t30.5 49t16 61.5l4 26q2 12 7 17t17 5h30q35 0 44 -34q5 -12 6.5 -26t1.5 -28q0 -38 -6 -68.5t-20 -58.5t-38 -56.5t-60 -62.5q-31 -30 -51.5 -59t-33 -61t-18 -68.5
t-5.5 -81.5q0 -84 49 -124t127 -40q42 0 81.5 9.5t74.5 30.5q-35 18 -52.5 47t-17.5 65q0 28 11 51t29.5 39.5t42 25t49.5 8.5q29 0 53 -11.5t41 -32t26.5 -48t9.5 -58.5z" />
    <glyph glyph-name="quotesingle" unicode="'" horiz-adv-x="424" 
d="M202 846q-20 0 -29.5 8t-12.5 28l-72 518q-6 36 30 36h188q36 0 30 -36l-72 -518q-3 -20 -12.5 -28t-29.5 -8h-20z" />
    <glyph glyph-name="quotedbl" unicode="&#x22;" horiz-adv-x="768" 
d="M546 846q-20 0 -29.5 8t-12.5 28l-72 518q-6 36 30 36h188q36 0 30 -36l-72 -518q-3 -20 -12.5 -28t-29.5 -8h-20zM202 846q-20 0 -29.5 8t-12.5 28l-72 518q-6 36 30 36h188q36 0 30 -36l-72 -518q-3 -20 -12.5 -28t-29.5 -8h-20z" />
    <glyph glyph-name="comma" unicode="," horiz-adv-x="540" 
d="M268 352q86 0 135 -55t49 -161q0 -57 -19 -116.5t-50.5 -118t-71.5 -113.5t-83 -104q-12 -14 -19 -18t-15 -4q-6 0 -12.5 2t-17.5 8l-42 26q-11 6 -16.5 11t-5.5 13q0 6 3 11.5t11 16.5q39 54 67.5 110.5t46.5 121.5q-66 17 -107 67.5t-41 118.5q0 38 13 71.5t37 58.5
t59 39.5t79 14.5z" />
    <glyph glyph-name="period" unicode="." horiz-adv-x="532" 
d="M452 166q0 -38 -13.5 -72t-37.5 -59.5t-58.5 -40t-76.5 -14.5t-76.5 14.5t-58.5 40t-37.5 59.5t-13.5 72t13.5 72t37.5 59.5t58.5 40t76.5 14.5t76.5 -14.5t58.5 -40t37.5 -59.5t13.5 -72z" />
    <glyph glyph-name="ellipsis" unicode="&#x2026;" horiz-adv-x="1596" 
d="M452 166q0 -38 -13.5 -72t-37.5 -59.5t-58.5 -40t-76.5 -14.5t-76.5 14.5t-58.5 40t-37.5 59.5t-13.5 72t13.5 72t37.5 59.5t58.5 40t76.5 14.5t76.5 -14.5t58.5 -40t37.5 -59.5t13.5 -72zM984 166q0 -38 -13.5 -72t-37.5 -59.5t-58.5 -40t-76.5 -14.5t-76.5 14.5
t-58.5 40t-37.5 59.5t-13.5 72t13.5 72t37.5 59.5t58.5 40t76.5 14.5t76.5 -14.5t58.5 -40t37.5 -59.5t13.5 -72zM1516 166q0 -38 -13.5 -72t-37.5 -59.5t-58.5 -40t-76.5 -14.5t-76.5 14.5t-58.5 40t-37.5 59.5t-13.5 72t13.5 72t37.5 59.5t58.5 40t76.5 14.5t76.5 -14.5
t58.5 -40t37.5 -59.5t13.5 -72z" />
    <glyph glyph-name="colon" unicode=":" horiz-adv-x="588" 
d="M480 166q0 -38 -13.5 -72t-37.5 -59.5t-58.5 -40t-76.5 -14.5t-76.5 14.5t-58.5 40t-37.5 59.5t-13.5 72t13.5 72t37.5 59.5t58.5 40t76.5 14.5t76.5 -14.5t58.5 -40t37.5 -59.5t13.5 -72zM480 814q0 -38 -13.5 -72t-37.5 -59.5t-58.5 -40t-76.5 -14.5t-76.5 14.5
t-58.5 40t-37.5 59.5t-13.5 72t13.5 72t37.5 59.5t58.5 40t76.5 14.5t76.5 -14.5t58.5 -40t37.5 -59.5t13.5 -72z" />
    <glyph glyph-name="semicolon" unicode=";" horiz-adv-x="596" 
d="M296 352q86 0 135 -55t49 -161q0 -57 -19 -116.5t-50.5 -118t-71.5 -113.5t-83 -104q-12 -14 -19 -18t-15 -4q-6 0 -12.5 2t-17.5 8l-42 26q-11 6 -16.5 11t-5.5 13q0 6 3 11.5t11 16.5q39 54 67.5 110.5t46.5 121.5q-66 17 -107 67.5t-41 118.5q0 38 13 71.5t37 58.5
t59 39.5t79 14.5zM480 814q0 -38 -13.5 -72t-37.5 -59.5t-58.5 -40t-76.5 -14.5t-76.5 14.5t-58.5 40t-37.5 59.5t-13.5 72t13.5 72t37.5 59.5t58.5 40t76.5 14.5t76.5 -14.5t58.5 -40t37.5 -59.5t13.5 -72z" />
    <glyph glyph-name="periodcentered" unicode="&#xb7;" horiz-adv-x="532" 
d="M452 574q0 -38 -13.5 -72t-37.5 -59.5t-58.5 -40t-76.5 -14.5t-76.5 14.5t-58.5 40t-37.5 59.5t-13.5 72t13.5 72t37.5 59.5t58.5 40t76.5 14.5t76.5 -14.5t58.5 -40t37.5 -59.5t13.5 -72z" />
    <glyph glyph-name="bullet" unicode="&#x2022;" horiz-adv-x="788" 
d="M688 584q0 -62 -20.5 -116t-59 -94.5t-93 -64t-121.5 -23.5q-68 0 -122 23.5t-92.5 64t-59 94.5t-20.5 116q0 61 20.5 115.5t59 95t92.5 64t122 23.5q67 0 121.5 -23.5t93 -64t59 -95t20.5 -115.5z" />
    <glyph glyph-name="quoteleft" unicode="&#x2018;" horiz-adv-x="468" 
d="M398 1010q0 -33 -11 -62t-32 -50t-51 -33.5t-68 -12.5q-74 0 -116 47.5t-42 138.5q0 49 16 100t41.5 100.5t58 96t66.5 85.5q14 17 22 22.5t16 5.5q6 0 11.5 -2t14.5 -8l34 -24q18 -12 18 -26q0 -9 -4 -15.5t-16 -24.5q-32 -47 -52 -87.5t-32 -88.5q57 -15 91.5 -59
t34.5 -103z" />
    <glyph glyph-name="quotedblleft" unicode="&#x201c;" horiz-adv-x="864" 
d="M398 1010q0 -33 -11 -62t-32 -50t-51 -33.5t-68 -12.5q-74 0 -116 47.5t-42 138.5q0 49 16 100t41.5 100.5t58 96t66.5 85.5q14 17 22 22.5t16 5.5q6 0 11.5 -2t14.5 -8l34 -24q18 -12 18 -26q0 -9 -4 -15.5t-16 -24.5q-32 -47 -52 -87.5t-32 -88.5q57 -15 91.5 -59
t34.5 -103zM794 1010q0 -33 -11 -62t-32 -50t-51 -33.5t-68 -12.5q-74 0 -116 47.5t-42 138.5q0 49 16 100t41.5 100.5t58 96t66.5 85.5q14 17 22 22.5t16 5.5q6 0 11.5 -2t14.5 -8l34 -24q18 -12 18 -26q0 -9 -4 -15.5t-16 -24.5q-32 -47 -52 -87.5t-32 -88.5
q57 -15 91.5 -59t34.5 -103z" />
    <glyph glyph-name="quoteright" unicode="&#x2019;" horiz-adv-x="468" 
d="M232 1444q74 0 116 -47.5t42 -138.5q0 -49 -16 -100t-41.5 -100.5t-58 -96t-66.5 -85.5q-14 -17 -22 -22.5t-16 -5.5q-6 0 -11.5 2t-14.5 8l-34 24q-18 12 -18 26q0 9 4 15.5t16 24.5q32 47 52 87.5t32 88.5q-57 15 -91.5 59t-34.5 103q0 33 11 62t32 50t51 33.5t68 12.5
z" />
    <glyph glyph-name="quotedblright" unicode="&#x201d;" horiz-adv-x="864" 
d="M232 1444q74 0 116 -47.5t42 -138.5q0 -49 -16 -100t-41.5 -100.5t-58 -96t-66.5 -85.5q-14 -17 -22 -22.5t-16 -5.5q-6 0 -11.5 2t-14.5 8l-34 24q-18 12 -18 26q0 9 4 15.5t16 24.5q32 47 52 87.5t32 88.5q-57 15 -91.5 59t-34.5 103q0 33 11 62t32 50t51 33.5t68 12.5
zM628 1444q74 0 116 -47.5t42 -138.5q0 -49 -16 -100t-41.5 -100.5t-58 -96t-66.5 -85.5q-14 -17 -22 -22.5t-16 -5.5q-6 0 -11.5 2t-14.5 8l-34 24q-18 12 -18 26q0 9 4 15.5t16 24.5q32 47 52 87.5t32 88.5q-57 15 -91.5 59t-34.5 103q0 33 11 62t32 50t51 33.5t68 12.5z
" />
    <glyph glyph-name="quotesinglbase" unicode="&#x201a;" horiz-adv-x="468" 
d="M232 300q74 0 116 -47.5t42 -138.5q0 -49 -16 -100t-41.5 -100.5t-58 -96t-66.5 -85.5q-14 -17 -22 -22.5t-16 -5.5q-6 0 -11.5 2t-14.5 8l-34 24q-18 12 -18 26q0 9 4 15.5t16 24.5q32 47 52 87.5t32 88.5q-57 15 -91.5 59t-34.5 103q0 33 11 62t32 50t51 33.5t68 12.5z
" />
    <glyph glyph-name="quotedblbase" unicode="&#x201e;" horiz-adv-x="864" 
d="M232 300q74 0 116 -47.5t42 -138.5q0 -49 -16 -100t-41.5 -100.5t-58 -96t-66.5 -85.5q-14 -17 -22 -22.5t-16 -5.5q-6 0 -11.5 2t-14.5 8l-34 24q-18 12 -18 26q0 9 4 15.5t16 24.5q32 47 52 87.5t32 88.5q-57 15 -91.5 59t-34.5 103q0 33 11 62t32 50t51 33.5t68 12.5z
M628 300q74 0 116 -47.5t42 -138.5q0 -49 -16 -100t-41.5 -100.5t-58 -96t-66.5 -85.5q-14 -17 -22 -22.5t-16 -5.5q-6 0 -11.5 2t-14.5 8l-34 24q-18 12 -18 26q0 9 4 15.5t16 24.5q32 47 52 87.5t32 88.5q-57 15 -91.5 59t-34.5 103q0 33 11 62t32 50t51 33.5t68 12.5z
" />
    <glyph glyph-name="guilsinglleft" unicode="&#x2039;" horiz-adv-x="620" 
d="M524 214q6 -12 8 -17.5t2 -10.5q0 -6 -2.5 -12t-13.5 -14l-52 -34q-9 -6 -18 -6q-17 0 -32 18l-316 366q-14 17 -14 28q0 6 2.5 11.5t11.5 16.5l316 366q15 18 32 18q9 0 18 -6l52 -34q11 -8 13.5 -14t2.5 -12q0 -5 -2 -10.5t-8 -17.5l-164 -318l164 -318v0z" />
    <glyph glyph-name="guillemotleft" unicode="&#xab;" horiz-adv-x="1078" 
d="M524 214q6 -12 8 -17.5t2 -10.5q0 -6 -2.5 -12t-13.5 -14l-52 -34q-9 -6 -18 -6q-17 0 -32 18l-316 366q-14 17 -14 28q0 6 2.5 11.5t11.5 16.5l316 366q15 18 32 18q9 0 18 -6l52 -34q11 -8 13.5 -14t2.5 -12q0 -5 -2 -10.5t-8 -17.5l-164 -318l164 -318v0zM982 214
q6 -12 8 -17.5t2 -10.5q0 -6 -2.5 -12t-13.5 -14l-52 -34q-9 -6 -18 -6q-17 0 -32 18l-316 366q-14 17 -14 28q0 6 2.5 11.5t11.5 16.5l316 366q15 18 32 18q9 0 18 -6l52 -34q11 -8 13.5 -14t2.5 -12q0 -5 -2 -10.5t-8 -17.5l-164 -318l164 -318v0z" />
    <glyph glyph-name="guilsinglright" unicode="&#x203a;" horiz-adv-x="620" 
d="M260 532l-164 318q-6 12 -8 17.5t-2 10.5q0 6 2.5 12t13.5 14l52 34q9 6 18 6q17 0 32 -18l316 -366q9 -11 11.5 -16.5t2.5 -11.5q0 -11 -14 -28l-316 -366q-15 -18 -32 -18q-9 0 -18 6l-52 34q-11 8 -13.5 14t-2.5 12q0 5 2 10.5t8 17.5z" />
    <glyph glyph-name="guillemotright" unicode="&#xbb;" horiz-adv-x="1078" 
d="M260 532l-164 318q-6 12 -8 17.5t-2 10.5q0 6 2.5 12t13.5 14l52 34q9 6 18 6q17 0 32 -18l316 -366q9 -11 11.5 -16.5t2.5 -11.5q0 -11 -14 -28l-316 -366q-15 -18 -32 -18q-9 0 -18 6l-52 34q-11 8 -13.5 14t-2.5 12q0 5 2 10.5t8 17.5zM718 532l-164 318
q-6 12 -8 17.5t-2 10.5q0 6 2.5 12t13.5 14l52 34q9 6 18 6q17 0 32 -18l316 -366q9 -11 11.5 -16.5t2.5 -11.5q0 -11 -14 -28l-316 -366q-15 -18 -32 -18q-9 0 -18 6l-52 34q-11 8 -13.5 14t-2.5 12q0 5 2 10.5t8 17.5z" />
    <glyph glyph-name="slash" unicode="/" horiz-adv-x="578" 
d="M64 -180q-28 0 -28 22q0 3 0.5 6.5t3.5 15.5l440 1606q8 34 46 34h82q28 0 28 -20q0 -3 -0.5 -7.5t-3.5 -16.5l-440 -1606q-9 -34 -46 -34h-82z" />
    <glyph glyph-name="backslash" unicode="\" horiz-adv-x="578" 
d="M52 1504q37 0 46 -34l440 -1606q3 -11 3.5 -15t0.5 -7q0 -22 -28 -22h-82q-38 0 -46 34l-440 1606q-3 11 -3.5 15t-0.5 7q0 22 28 22h82z" />
    <glyph glyph-name="fraction" unicode="&#x2044;" horiz-adv-x="272" 
d="M-360 0q-22 0 -22 14q0 3 2 8t10 16l860 1256q11 17 23.5 23.5t32.5 6.5h86q22 0 22 -14q0 -3 -1.5 -6.5t-10.5 -17.5l-860 -1256q-12 -17 -24 -23.5t-32 -6.5h-86z" />
    <glyph glyph-name="parenleft" unicode="(" horiz-adv-x="654" 
d="M124 648q0 132 27.5 252t70.5 225.5t95.5 194.5t102.5 160q14 20 28 20q10 0 26 -8l38 -20q24 -12 24 -28q0 -5 -2.5 -11l-11.5 -27q-32 -76 -57.5 -157t-43.5 -173t-27.5 -198t-9.5 -230q0 -123 9 -229t27 -200.5t44.5 -181t61.5 -169.5l5.5 -15t2.5 -13
q0 -9 -3.5 -14.5t-18.5 -13.5l-34 -18q-12 -6 -17.5 -7t-10.5 -1q-12 0 -21 9.5t-17 20.5q-50 70 -101.5 161t-93 197.5t-67.5 226t-26 247.5z" />
    <glyph glyph-name="parenright" unicode=")" horiz-adv-x="654" 
d="M530 648q0 -128 -26 -247.5t-67.5 -226t-93 -197.5t-101.5 -161q-8 -11 -17 -20.5t-21 -9.5q-5 0 -10.5 1t-17.5 7l-34 18q-15 8 -18.5 13.5t-3.5 14.5q0 6 2.5 13l5.5 15q35 83 61.5 169.5t44.5 181t27 200.5t9 229q0 124 -9.5 230t-27.5 198t-43.5 173t-57.5 157
l-11.5 27t-2.5 11q0 16 24 28l38 20q16 8 26 8q14 0 28 -20q50 -71 102.5 -160t95.5 -194.5t70.5 -225.5t27.5 -252z" />
    <glyph glyph-name="braceleft" unicode="{" horiz-adv-x="630" 
d="M598 -164q0 -32 -32 -32h-36q-29 0 -62 2.5t-67 10t-66 22t-57 37.5q-44 39 -68 112.5t-24 185.5v140q0 63 -6.5 112.5t-22.5 83.5t-42.5 52t-66.5 18h-16q-12 0 -12 12v100q0 12 12 12h16q40 0 66.5 18t42.5 52t22.5 83.5t6.5 112.5v140q0 112 24 185.5t68 112.5
q25 23 57 37.5t66 22t67 10t62 2.5h36q32 0 32 -32v-82q0 -12 -10 -12h-16q-48 0 -75 -12.5t-41 -39.5q-9 -17 -17.5 -56t-8.5 -116v-120q0 -99 -16 -173.5t-70 -128.5q-43 -43 -110 -66q67 -23 110 -66q54 -54 70 -128.5t16 -173.5v-120q0 -77 8.5 -116t17.5 -56
q14 -27 41 -39.5t75 -12.5h16q10 0 10 -12v-82z" />
    <glyph glyph-name="braceright" unicode="}" horiz-adv-x="630" 
d="M64 -196q-32 0 -32 32v82q0 12 12 12h14q48 0 75 12.5t41 39.5q9 17 17.5 56t8.5 116v120q0 99 16 173.5t70 128.5q43 43 110 66q-67 23 -110 66q-54 54 -70 128.5t-16 173.5v120q0 77 -8.5 116t-17.5 56q-14 27 -41 39.5t-75 12.5h-14q-12 0 -12 12v82q0 32 32 32h36
q28 0 61.5 -2.5t67.5 -10t65.5 -22t57.5 -37.5q44 -39 68 -112.5t24 -185.5v-140q0 -63 6.5 -112.5t22.5 -83.5t42.5 -52t66.5 -18h16q12 0 12 -12v-100q0 -12 -12 -12h-16q-40 0 -66.5 -18t-42.5 -52t-22.5 -83.5t-6.5 -112.5v-140q0 -112 -24 -185.5t-68 -112.5
q-26 -23 -57.5 -37.5t-65.5 -22t-67.5 -10t-61.5 -2.5h-36z" />
    <glyph glyph-name="bracketleft" unicode="[" horiz-adv-x="630" 
d="M176 -196q-20 0 -28 8t-8 28v1604q0 20 8 28t28 8h354q20 0 28 -8t8 -28v-54q0 -20 -8 -28t-28 -8h-144v-1424h144q20 0 28 -8t8 -28v-54q0 -20 -8 -28t-28 -8h-354z" />
    <glyph glyph-name="bracketright" unicode="]" horiz-adv-x="630" 
d="M454 1480q20 0 28 -8t8 -28v-1604q0 -20 -8 -28t-28 -8h-354q-20 0 -28 8t-8 28v54q0 20 8 28t28 8h144v1424h-144q-20 0 -28 8t-8 28v54q0 20 8 28t28 8h354z" />
    <glyph glyph-name="percent" unicode="%" horiz-adv-x="1812" 
d="M802 966q0 -74 -21 -142.5t-64.5 -121t-111 -83.5t-161.5 -31t-162 31.5t-112 84t-65 120.5t-21 142t21 142.5t65 121t112 83.5t162 31q93 0 160.5 -31.5t111.5 -84t65 -121t21 -141.5zM410 0q-17 0 -21 8t5 22l866 1264q11 17 23.5 23.5t32.5 6.5h86q17 0 21 -8t-5 -22
l-866 -1264q-11 -17 -23.5 -23.5t-32.5 -6.5h-86zM310 966q0 -144 34 -210t100 -66q64 0 98 66t34 210t-34 210t-98 66q-66 0 -100 -66t-34 -210zM1728 358q0 -74 -21 -142.5t-64.5 -121t-111 -83.5t-161.5 -31t-162 31.5t-112 84t-65 120.5t-21 142t21 142.5t65 121
t112 83.5t162 31q93 0 160.5 -31.5t111.5 -84t65 -121t21 -141.5zM1236 358q0 -144 34 -210t100 -66q64 0 98 66t34 210t-34 210t-98 66q-66 0 -100 -66t-34 -210z" />
    <glyph glyph-name="perthousand" unicode="&#x2030;" horiz-adv-x="2624" 
d="M802 966q0 -74 -21 -142.5t-64.5 -121t-111 -83.5t-161.5 -31t-162 31.5t-112 84t-65 120.5t-21 142t21 142.5t65 121t112 83.5t162 31q93 0 160.5 -31.5t111.5 -84t65 -121t21 -141.5zM410 0q-17 0 -21 8t5 22l866 1264q11 17 23.5 23.5t32.5 6.5h86q17 0 21 -8t-5 -22
l-866 -1264q-11 -17 -23.5 -23.5t-32.5 -6.5h-86zM310 966q0 -144 34 -210t100 -66q64 0 98 66t34 210t-34 210t-98 66q-66 0 -100 -66t-34 -210zM1728 358q0 -74 -21 -142.5t-64.5 -121t-111 -83.5t-161.5 -31t-162 31.5t-112 84t-65 120.5t-21 142t21 142.5t65 121
t112 83.5t162 31q93 0 160.5 -31.5t111.5 -84t65 -121t21 -141.5zM2540 358q0 -74 -21 -142.5t-64.5 -121t-111 -83.5t-161.5 -31t-162 31.5t-112 84t-65 120.5t-21 142t21 142.5t65 121t112 83.5t162 31q93 0 160.5 -31.5t111.5 -84t65 -121t21 -141.5zM1236 358
q0 -144 34 -210t100 -66q64 0 98 66t34 210t-34 210t-98 66q-66 0 -100 -66t-34 -210zM2048 358q0 -144 34 -210t100 -66q64 0 98 66t34 210t-34 210t-98 66q-66 0 -100 -66t-34 -210z" />
    <glyph glyph-name="zero" unicode="0" 
d="M1116 662q0 -86 -11.5 -170.5t-37.5 -160t-67 -140t-100 -111.5t-136.5 -73.5t-175.5 -26.5t-175.5 26.5t-136.5 73.5t-100 111.5t-66.5 140t-37.5 159.5t-12 171q0 86 12 170.5t37.5 160t66.5 140t100 111.5t136 73.5t176 26.5q98 0 175.5 -26.5t136.5 -73.5t100 -111.5
t66.5 -140t37.5 -160t12 -170.5zM364 662q0 -122 11 -222t36.5 -170.5t68.5 -109t108 -38.5q64 0 107.5 38.5t69 109t36.5 170.5t11 222t-11 222t-36.5 170.5t-69 109t-107.5 38.5q-65 0 -108 -38.5t-68.5 -109t-36.5 -170.5t-11 -222z" />
    <glyph glyph-name="zero.zero" 
d="M1116 662q0 -86 -11.5 -170.5t-37.5 -160t-67 -140t-100 -111.5t-136.5 -73.5t-175.5 -26.5t-175.5 26.5t-136.5 73.5t-100 111.5t-66.5 140t-37.5 159.5t-12 171q0 86 12 170.5t37.5 160t66.5 140t100 111.5t136 73.5t176 26.5q98 0 175.5 -26.5t136.5 -73.5t100 -111.5
t66.5 -140t37.5 -160t12 -170.5zM364 662q0 -122 11 -222t36.5 -170.5t68.5 -109t108 -38.5q64 0 107.5 38.5t69 109t36.5 170.5t11 222t-11 222t-36.5 170.5t-69 109t-107.5 38.5q-65 0 -108 -38.5t-68.5 -109t-36.5 -170.5t-11 -222zM692 662q0 -47 -28.5 -76.5
t-75.5 -29.5t-75.5 29.5t-28.5 76.5t28.5 76.5t75.5 29.5t75.5 -29.5t28.5 -76.5z" />
    <glyph glyph-name="one" unicode="1" 
d="M1022 36q0 -20 -8 -28t-28 -8h-744q-20 0 -28 8t-8 28v70q0 20 8 28t28 8h228v938l-228 -30q-20 -2 -29.5 5t-12.5 27l-10 54q-3 20 3.5 30t24.5 16l526 158q34 9 34 -26v-1172h208q20 0 28 -8t8 -28v-70z" />
    <glyph glyph-name="two" unicode="2" 
d="M1028 36q-2 -20 -10 -28t-28 -8h-866q-20 0 -28 8t-8 28v48q0 95 30.5 170t79 136.5t109.5 113t123 98.5l104 81.5t89 84t62 92.5t23 108q0 112 -55.5 171t-156.5 59q-54 0 -101.5 -13.5t-86.5 -42.5q74 -44 74 -126q0 -32 -11.5 -57t-31 -42t-45.5 -26t-54 -9
q-68 0 -105 46t-37 118q0 62 26 116.5t80.5 95t139 63.5t202.5 23q94 0 180.5 -23t152.5 -68.5t105.5 -113.5t39.5 -159q0 -82 -35.5 -149t-93.5 -124t-131 -106.5l-148 -96.5l-99.5 -64t-92 -65.5t-79.5 -70t-61 -76.5h580l24 114q5 20 14.5 28t29.5 8h70q20 0 28 -8t6 -28
z" />
    <glyph glyph-name="three" unicode="3" 
d="M1056 404q0 -86 -33.5 -163t-100.5 -135t-168 -92t-236 -34q-119 0 -204 23t-139.5 63.5t-80.5 95t-26 116.5q0 36 10 66t28.5 52t45 34t60.5 12q28 0 54 -9t45.5 -26t31 -42t11.5 -57q0 -83 -74 -126q77 -56 210 -56q54 0 103.5 16.5t87.5 50t60.5 84.5t22.5 121
q0 58 -13.5 105.5t-42.5 83.5t-74 58.5t-108 30.5l-16 2q-17 2 -27 5.5t-19 12.5l-18 18q-15 15 -13 27.5t11 24.5l286 348h-422l-28 -132q-5 -20 -14.5 -28t-29.5 -8h-68q-20 0 -28 8t-6 28l10 306q2 20 10 28t28 8h788q20 0 28 -8t8 -28v-52q0 -20 -5 -34.5t-17 -29.5
l-320 -388q94 -8 167 -37t123 -78t76 -116t26 -149z" />
    <glyph glyph-name="four" unicode="4" 
d="M998 142q20 0 28 -8t8 -28v-70q0 -20 -8 -28t-28 -8h-478q-20 0 -28 8t-8 28v70q0 20 8 28t28 8h84v190h-552q-20 0 -28 8t-8 28v50q0 37 20 66l532 810q11 17 23.5 23.5t32.5 6.5h138q17 0 21 -8t-5 -22l-532 -810h358v330q0 20 8 29.5t28 12.5l236 46q36 6 36 -30v-388
h150q20 0 28 -8t8 -28v-80q0 -20 -8 -28t-28 -8h-150v-190h86z" />
    <glyph glyph-name="five" unicode="5" 
d="M1042 410q0 -92 -30.5 -171t-93.5 -136.5t-161 -90t-233 -32.5q-113 0 -192 23t-129.5 63.5t-73.5 95t-23 116.5q0 34 10 63t28.5 50t44 33t57.5 12q27 0 51.5 -9t43.5 -26.5t30 -42.5t11 -56q0 -39 -21.5 -70.5t-60.5 -49.5q36 -30 82 -43t114 -13q55 0 101.5 15.5
t80.5 48.5t53 86t19 128q0 132 -58 206t-184 74q-57 0 -109.5 -13t-96.5 -37q-18 -9 -31 -8.5t-31 12.5l-40 30q-17 11 -22.5 23.5t-3.5 32.5l68 564q2 20 11 28t29 8h540l20 66q6 18 16 26t30 8h48q18 0 27 -8t7 -28l-10 -258q-2 -20 -10 -28t-28 -8h-536l-36 -302
q39 15 88.5 25.5t111.5 10.5q115 0 206 -29.5t154.5 -83.5t97.5 -131.5t34 -173.5z" />
    <glyph glyph-name="six" unicode="6" 
d="M672 844q92 0 170.5 -26.5t135.5 -79t89.5 -130t32.5 -178.5q0 -99 -33.5 -181.5t-96.5 -142.5t-152.5 -93t-201.5 -33q-105 0 -199.5 35.5t-166.5 113.5t-114 201t-42 298q0 157 43.5 288.5t126 226.5t201.5 148t271 53q88 0 156 -13.5t118 -34.5q33 -15 18 -48l-42 -88
q-9 -18 -19.5 -22t-28.5 4q-85 38 -188 38q-90 0 -153.5 -28t-105 -82t-62.5 -131.5t-25 -176.5q53 38 123.5 60t144.5 22zM402 638q0 -147 13 -245t39 -157t66 -83.5t94 -24.5q49 0 83.5 20t56.5 57.5t32 90.5t10 120q0 134 -50 205t-156 71q-56 0 -102.5 -15t-85.5 -39z
" />
    <glyph glyph-name="seven" unicode="7" 
d="M1022 1166q-149 -231 -273.5 -519.5t-218.5 -612.5q-6 -18 -16 -26t-30 -8h-148q-35 0 -26 34q47 155 105 301t123.5 279.5t136.5 254t145 225.5h-524l-24 -112q-5 -20 -14.5 -28t-29.5 -8h-68q-20 0 -28 8t-6 28l10 306q2 20 10 28t28 8h832q20 0 28 -8t8 -28v-56
q0 -35 -20 -66z" />
    <glyph glyph-name="eight" unicode="8" 
d="M1082 342q0 -80 -34.5 -146.5t-98.5 -114.5t-155.5 -74.5t-205.5 -26.5t-205 26.5t-155 74.5t-98 114.5t-34 146.5q0 70 31 124.5t80.5 96.5t109.5 72t119 51q-58 22 -113 50t-98.5 67t-70 90t-26.5 119q0 79 39 141.5t103.5 105t147 64.5t170.5 21q86 1 169 -21
t148 -64.5t105 -105t40 -141.5q0 -68 -26.5 -119t-70 -90t-98.5 -67t-113 -50q58 -21 118.5 -51t110 -72t80.5 -96.5t31 -124.5zM588 1212q-33 0 -61.5 -13t-49.5 -39.5t-33 -66.5t-12 -95q0 -54 10.5 -95t30 -72.5t48.5 -54t67 -38.5q37 16 66.5 38.5t50 54t31 72.5
t10.5 95q0 55 -12.5 95t-33.5 66.5t-50 39.5t-62 13zM400 360q0 -68 16.5 -115.5t43 -77t60 -42.5t68.5 -13q34 0 68 13t61 42.5t44 77t17 115.5q0 59 -11.5 101.5t-35 74t-59 53.5t-82.5 41q-47 -19 -82.5 -41t-59.5 -53.5t-36 -74t-12 -101.5z" />
    <glyph glyph-name="nine" unicode="9" 
d="M380 924q0 -125 50 -192.5t156 -67.5q56 0 102.5 15t85.5 39q-2 137 -15.5 229t-39.5 147.5t-65.5 78.5t-91.5 23q-49 0 -83.5 -19t-56.5 -54.5t-32 -86t-10 -112.5zM1082 696q0 -157 -43.5 -288.5t-126 -226.5t-202 -148t-270.5 -53q-88 0 -156 13.5t-118 34.5
q-33 15 -18 48l42 88q9 18 19.5 22t28.5 -4q42 -20 85 -29t85 -9q100 0 169 30.5t112 89t63 142t22 190.5q-54 -39 -125 -61.5t-145 -22.5q-92 0 -170.5 24t-135.5 73.5t-89.5 124.5t-32.5 176q0 99 33.5 179t96.5 137t152.5 87.5t201.5 30.5q105 0 199.5 -35.5
t166.5 -113.5t114 -201t42 -298z" />
    <glyph glyph-name="onesuperior" unicode="&#xb9;" horiz-adv-x="780" 
d="M678 592q0 -20 -8 -28t-28 -8h-452q-20 0 -28 8t-8 28v20q0 20 8 28t28 8h124v512l-120 -14q-20 -2 -29.5 5t-12.5 27l-2 12q-3 20 3.5 30t24.5 16l318 94q34 9 34 -26v-656h112q20 0 28 -8t8 -28v-20z" />
    <glyph glyph-name="twosuperior" unicode="&#xb2;" horiz-adv-x="780" 
d="M678 592q-2 -20 -10 -28t-28 -8h-524q-22 0 -22 22v26q0 58 19 104.5t49 84t68 69l76 60.5l64 51t47 46t29 48t10 57q0 56 -30 87t-84 31q-35 0 -59.5 -7.5t-44.5 -24.5q26 -14 36 -34t10 -44q0 -42 -25 -64t-63 -22q-45 0 -70.5 31t-25.5 79q0 37 16.5 70t50 57.5
t83.5 38.5t118 14q64 0 120 -13t98 -39t66 -65t24 -91q0 -50 -22 -89t-58 -72t-81.5 -62l-92.5 -57q-68 -39 -115 -70.5t-77 -67.5h342l10 40q5 20 14.5 28t29.5 8h22q20 0 28 -8t6 -28z" />
    <glyph glyph-name="threesuperior" unicode="&#xb3;" horiz-adv-x="780" 
d="M684 798q0 -53 -19.5 -99t-60 -80.5t-103 -54.5t-147.5 -20q-73 0 -126 14.5t-87.5 39.5t-51.5 58.5t-17 71.5q0 51 26 80.5t70 29.5q36 0 65 -23t29 -67q0 -52 -48 -82q24 -15 53.5 -21.5t56.5 -6.5q29 0 58 8t51.5 26.5t36.5 49t14 76.5q0 60 -28 101t-90 47
q-15 2 -24.5 6.5t-21.5 13.5q-18 18 -2 34l164 192h-252l-16 -70q-5 -20 -14.5 -28t-29.5 -8h-20q-18 0 -27 8t-7 28l6 166q2 20 10 28t28 8h462q20 0 28 -8t8 -28v-4q0 -20 -5 -34.5t-19 -29.5l-176 -206q113 -9 169.5 -66.5t56.5 -149.5z" />
    <glyph glyph-name="uni2082" unicode="&#x2082;" horiz-adv-x="780" 
d="M678 36q-2 -20 -10 -28t-28 -8h-524q-22 0 -22 22v26q0 58 19 104.5t49 84t68 69l76 60.5l64 51t47 46t29 48t10 57q0 56 -30 87t-84 31q-35 0 -59.5 -7.5t-44.5 -24.5q26 -15 36 -34.5t10 -43.5q0 -42 -25 -64t-63 -22q-45 0 -70.5 31t-25.5 79q0 37 16.5 70t50 57.5
t83.5 38.5t118 14q64 0 120 -13t98 -39t66 -65t24 -91q0 -50 -22 -89t-58 -72t-81.5 -62l-92.5 -57q-68 -39 -115 -70.5t-77 -67.5h342l10 40q5 20 14.5 28t29.5 8h22q20 0 28 -8t6 -28z" />
    <glyph glyph-name="uni2084" unicode="&#x2084;" horiz-adv-x="780" 
d="M646 92q20 0 28 -8t8 -28v-20q0 -20 -8 -28t-28 -8h-274q-20 0 -28 8t-8 28v20q0 20 8 28t28 8h30v96h-306q-20 0 -28 8t-8 28v8q0 20 4.5 34.5t15.5 31.5l302 440q11 17 23.5 23.5t32.5 6.5h66q17 0 21 -8t-5 -22l-308 -452h190v154q0 20 8 29t28 11l142 22q36 3 36 -32
v-184h70q20 0 28 -8t8 -28v-26q0 -20 -8 -28t-28 -8h-70v-96h30z" />
    <glyph glyph-name="onehalf" unicode="&#xbd;" horiz-adv-x="1844" 
d="M678 592q0 -20 -8 -28t-28 -8h-452q-20 0 -28 8t-8 28v20q0 20 8 28t28 8h124v512l-120 -14q-20 -2 -29.5 5t-12.5 27l-2 12q-3 20 3.5 30t24.5 16l318 94q34 9 34 -26v-656h112q20 0 28 -8t8 -28v-20zM448 0q-22 0 -22 14q0 3 2 8t10 16l860 1256q11 17 23.5 23.5
t32.5 6.5h86q22 0 22 -14q0 -3 -1.5 -6.5t-10.5 -17.5l-860 -1256q-12 -17 -24 -23.5t-32 -6.5h-86zM1742 36q-2 -20 -10 -28t-28 -8h-524q-22 0 -22 22v26q0 58 19 104.5t49 84t68 69l76 60.5l64 51t47 46t29 48t10 57q0 56 -30 87t-84 31q-35 0 -59.5 -7.5t-44.5 -24.5
q26 -15 36 -34.5t10 -43.5q0 -42 -25 -64t-63 -22q-45 0 -70.5 31t-25.5 79q0 37 16.5 70t50 57.5t83.5 38.5t118 14q64 0 120 -13t98 -39t66 -65t24 -91q0 -50 -22 -89t-58 -72t-81.5 -62l-92.5 -57q-68 -39 -115 -70.5t-77 -67.5h342l10 40q5 20 14.5 28t29.5 8h22
q20 0 28 -8t6 -28z" />
    <glyph glyph-name="onequarter" unicode="&#xbc;" horiz-adv-x="1752" 
d="M678 592q0 -20 -8 -28t-28 -8h-452q-20 0 -28 8t-8 28v20q0 20 8 28t28 8h124v512l-120 -14q-20 -2 -29.5 5t-12.5 27l-2 12q-3 20 3.5 30t24.5 16l318 94q34 9 34 -26v-656h112q20 0 28 -8t8 -28v-20zM448 0q-22 0 -22 14q0 3 2 8t10 16l860 1256q11 17 23.5 23.5
t32.5 6.5h86q22 0 22 -14q0 -3 -1.5 -6.5t-10.5 -17.5l-860 -1256q-12 -17 -24 -23.5t-32 -6.5h-86zM1618 92q20 0 28 -8t8 -28v-20q0 -20 -8 -28t-28 -8h-274q-20 0 -28 8t-8 28v20q0 20 8 28t28 8h30v96h-306q-20 0 -28 8t-8 28v8q0 20 4.5 34.5t15.5 31.5l302 440
q11 17 23.5 23.5t32.5 6.5h66q17 0 21 -8t-5 -22l-308 -452h190v154q0 20 8 29t28 11l142 22q36 3 36 -32v-184h70q20 0 28 -8t8 -28v-26q0 -20 -8 -28t-28 -8h-70v-96h30z" />
    <glyph glyph-name="threequarters" unicode="&#xbe;" horiz-adv-x="1732" 
d="M684 798q0 -53 -19.5 -99t-60 -80.5t-103 -54.5t-147.5 -20q-73 0 -126 14.5t-87.5 39.5t-51.5 58.5t-17 71.5q0 51 26 80.5t70 29.5q36 0 65 -23t29 -67q0 -52 -48 -82q24 -15 53.5 -21.5t56.5 -6.5q29 0 58 8t51.5 26.5t36.5 49t14 76.5q0 60 -28 101t-90 47
q-15 2 -24.5 6.5t-21.5 13.5q-18 18 -2 34l164 192h-252l-16 -70q-5 -20 -14.5 -28t-29.5 -8h-20q-18 0 -27 8t-7 28l6 166q2 20 10 28t28 8h462q20 0 28 -8t8 -28v-4q0 -20 -5 -34.5t-19 -29.5l-176 -206q113 -9 169.5 -66.5t56.5 -149.5zM428 0q-22 0 -22 14q0 3 2 8
t10 16l860 1256q11 17 23.5 23.5t32.5 6.5h86q22 0 22 -14q0 -3 -1.5 -6.5t-10.5 -17.5l-860 -1256q-12 -17 -24 -23.5t-32 -6.5h-86zM1598 92q20 0 28 -8t8 -28v-20q0 -20 -8 -28t-28 -8h-274q-20 0 -28 8t-8 28v20q0 20 8 28t28 8h30v96h-306q-20 0 -28 8t-8 28v8
q0 20 4.5 34.5t15.5 31.5l302 440q11 17 23.5 23.5t32.5 6.5h66q17 0 21 -8t-5 -22l-308 -452h190v154q0 20 8 29t28 11l142 22q36 3 36 -32v-184h70q20 0 28 -8t8 -28v-26q0 -20 -8 -28t-28 -8h-70v-96h30z" />
    <glyph glyph-name="A" unicode="A" horiz-adv-x="1392" 
d="M822 500l-91.5 262l-94.5 250l-95 -250t-91 -262h372zM482 36q0 -20 -8 -28t-28 -8h-392q-20 0 -28 8t-8 28v70q0 20 8 28t28 8h88q45 151 97 305t108 301.5t114 285.5t115 258q9 18 20.5 25t31.5 7h136q20 0 31.5 -7t20.5 -25q57 -120 115 -258t114 -285.5t108 -301.5
t97 -305h88q20 0 28 -8t8 -28v-70q0 -20 -8 -28t-28 -8h-512q-20 0 -28 8t-8 28v70q0 20 8 28t28 8h104l-30 107.5t-32 106.5h-464q-17 -53 -32.5 -106.5t-29.5 -107.5h104q20 0 28 -8t8 -28v-70z" />
    <glyph glyph-name="B" unicode="B" horiz-adv-x="1264" 
d="M1216 352q0 -68 -26.5 -131.5t-87.5 -112.5t-160 -78.5t-244 -29.5h-588q-20 0 -28 8t-8 28v70q0 20 8 28t28 8h86v1040h-86q-20 0 -28 8t-8 28v70q0 20 8 28t28 8h530q145 0 243.5 -29.5t159 -78.5t87 -111.5t26.5 -128.5q0 -110 -65 -187t-205 -113q87 -14 149.5 -42
t102.5 -69t59 -94.5t19 -118.5zM504 1176v-440h134q57 0 95.5 19t62.5 50.5t34 70.5t10 80q0 40 -10 79.5t-34 71t-63 50.5t-97 19h-132zM504 148h190q58 0 97.5 19.5t63.5 51t34.5 72t10.5 81.5t-10 81.5t-34 72t-63 51t-97 19.5h-192v-448z" />
    <glyph glyph-name="C" unicode="C" horiz-adv-x="1244" 
d="M64 648q0 85 15 170t48 162.5t85 144t126 115t170.5 76.5t219.5 28q109 0 191.5 -23t138 -63.5t83 -95t27.5 -116.5q0 -36 -10 -66t-28.5 -52t-45 -34t-60.5 -12q-28 0 -53 9t-44.5 26t-31 42t-11.5 57q0 80 66 122q-41 27 -90.5 39.5t-103.5 12.5q-106 0 -177.5 -42.5
t-115 -115t-62.5 -168.5t-19 -202q0 -116 21 -211.5t66.5 -163t116.5 -104.5t172 -37q89 0 162 29.5t144 80.5q15 12 26 10t20 -14l40 -56q14 -18 12.5 -34t-24.5 -36q-77 -63 -185.5 -104.5t-252.5 -41.5q-110 0 -200.5 25t-161 69.5t-122.5 106t-85.5 136t-50 158.5
t-16.5 173z" />
    <glyph glyph-name="D" unicode="D" horiz-adv-x="1400" 
d="M110 0q-20 0 -28 8t-8 28v70q0 20 8 28t28 8h86v1040h-86q-20 0 -28 8t-8 28v70q0 20 8 28t28 8h572q151 0 272.5 -46t206 -130t130 -203.5t45.5 -266.5q0 -149 -47.5 -273.5t-134.5 -214.5t-210 -140t-274 -50h-560zM504 150h128q101 0 174 37.5t120 106.5t69.5 166.5
t22.5 217.5t-20.5 212.5t-65.5 155.5t-116 95.5t-172 32.5h-140v-1024z" />
    <glyph glyph-name="E" unicode="E" horiz-adv-x="1162" 
d="M1052 378q20 0 28 -8t6 -28l-10 -306q-2 -20 -10 -28t-28 -8h-928q-20 0 -28 8t-8 28v70q0 20 8 28t28 8h86v1040h-86q-20 0 -28 8t-8 28v70q0 20 8 28t28 8h906q20 0 28 -8t10 -28l8 -278q2 -20 -6 -28t-28 -8h-72q-20 0 -29.5 8t-14.5 28l-38 164h-370v-432h252v112
q0 20 8 28t28 8h72q20 0 28 -8t8 -28v-370q0 -20 -8 -28t-28 -8h-72q-20 0 -28 8t-8 28v114h-252v-448h392l40 192q5 20 14.5 28t29.5 8h72z" />
    <glyph glyph-name="F" unicode="F" horiz-adv-x="1082" 
d="M608 142q20 0 28 -8t8 -28v-70q0 -20 -8 -28t-28 -8h-498q-20 0 -28 8t-8 28v70q0 20 8 28t28 8h86v1040h-86q-20 0 -28 8t-8 28v70q0 20 8 28t28 8h882q20 0 28 -8t10 -28l8 -278q2 -20 -6 -28t-28 -8h-72q-20 0 -29.5 8t-14.5 28l-38 164h-346v-462h248v112q0 20 8 28
t28 8h72q20 0 28 -8t8 -28v-370q0 -20 -8 -28t-28 -8h-72q-20 0 -28 8t-8 28v114h-248v-426h104z" />
    <glyph glyph-name="G" unicode="G" horiz-adv-x="1394" 
d="M1236 124q0 -18 -9 -31t-35 -25q-92 -47 -198.5 -67.5t-233.5 -20.5q-178 0 -309 54.5t-217 146t-128 212t-42 253.5q0 86 16.5 171t52 162.5t91 144.5t133 115.5t177.5 76.5t226 28q109 0 196.5 -23t149 -63.5t95 -95t33.5 -116.5q0 -72 -37 -118t-105 -46
q-35 0 -62 10.5t-45.5 28.5t-28.5 41t-10 48q0 45 16.5 75t49.5 53q-45 26 -108 39t-138 13q-101 0 -173.5 -43t-119 -116.5t-69 -172t-22.5 -210.5q0 -111 21.5 -206t66.5 -164t116 -108.5t170 -39.5q45 0 87.5 5t84.5 17v362h-100q-20 0 -28 8t-8 28v70q0 20 8 28t28 8
h494q20 0 28 -8t8 -28v-70q0 -20 -8 -28t-28 -8h-86v-390z" />
    <glyph glyph-name="H" unicode="H" horiz-adv-x="1524" 
d="M590 142q20 0 28 -8t8 -28v-70q0 -20 -8 -28t-28 -8h-480q-20 0 -28 8t-8 28v70q0 20 8 28t28 8h86v1040h-86q-20 0 -28 8t-8 28v70q0 20 8 28t28 8h480q20 0 28 -8t8 -28v-70q0 -20 -8 -28t-28 -8h-86v-436h516v436h-84q-20 0 -28 8t-8 28v70q0 20 8 28t28 8h478
q20 0 28 -8t8 -28v-70q0 -20 -8 -28t-28 -8h-86v-1040h86q20 0 28 -8t8 -28v-70q0 -20 -8 -28t-28 -8h-478q-20 0 -28 8t-8 28v70q0 20 8 28t28 8h84v452h-516v-452h86z" />
    <glyph glyph-name="I" unicode="I" horiz-adv-x="700" 
d="M110 0q-20 0 -28 8t-8 28v70q0 20 8 28t28 8h86v1040h-86q-20 0 -28 8t-8 28v70q0 20 8 28t28 8h480q20 0 28 -8t8 -28v-70q0 -20 -8 -28t-28 -8h-86v-1040h86q20 0 28 -8t8 -28v-70q0 -20 -8 -28t-28 -8h-480z" />
    <glyph glyph-name="J" unicode="J" horiz-adv-x="1114" 
d="M938 514q0 -126 -28.5 -225t-89 -168t-154.5 -105t-224 -36q-102 0 -179 23t-129 63.5t-78 95t-26 116.5q0 72 37.5 118t108.5 46q29 0 55 -9t45.5 -26t30.5 -42t11 -57q0 -45 -19.5 -79t-64.5 -55q36 -30 76 -42t90 -12q66 0 110 26.5t71 74.5t38 114t11 145v702h-106
q-20 0 -28 8t-8 28v70q0 20 8 28t28 8h500q20 0 28 -8t8 -28v-70q0 -20 -8 -28t-28 -8h-86v-668v0z" />
    <glyph glyph-name="K" unicode="K" horiz-adv-x="1374" 
d="M580 142q20 0 28 -8t8 -28v-70q0 -20 -8 -28t-28 -8h-470q-20 0 -28 8t-8 28v70q0 20 8 28t28 8h86v1040h-86q-20 0 -28 8t-8 28v70q0 20 8 28t28 8h480q20 0 28 -8t8 -28v-70q0 -20 -8 -28t-28 -8h-86v-464q121 91 239 210.5t221 253.5h-90q-20 0 -28 8t-8 28v70
q0 20 8 28t28 8h396q20 0 28 -8t8 -28v-70q0 -20 -8 -28t-28 -8h-102q-83 -115 -173.5 -215t-190.5 -189q124 -130 232.5 -293t199.5 -343h78q20 0 28 -8t8 -28v-70q0 -20 -8 -28t-28 -8h-314q-20 0 -31 7t-19 27q-34 75 -76.5 152t-90 150.5t-98.5 140t-101 121.5l-40 -28
l-40 -28v-400h76z" />
    <glyph glyph-name="L" unicode="L" horiz-adv-x="1040" 
d="M110 0q-20 0 -28 8t-8 28v70q0 20 8 28t28 8h86v1040h-86q-20 0 -28 8t-8 28v70q0 20 8 28t28 8h478q20 0 28 -8t8 -28v-70q0 -20 -8 -28t-28 -8h-84v-1032h304l46 220q5 20 14.5 28t29.5 8h72q20 0 28 -8t6 -28l-12 -334q-2 -20 -10 -28t-28 -8h-844z" />
    <glyph glyph-name="M" unicode="M" horiz-adv-x="1744" 
d="M452 142q20 0 28 -8t8 -28v-70q0 -20 -8 -28t-28 -8h-342q-20 0 -28 8t-8 28v70q0 20 8 28t28 8h86v1040h-86q-20 0 -28 8t-8 28v70q0 20 8 28t28 8h386q20 0 31.5 -7t20.5 -25l336 -692l334 692q9 18 20.5 25t31.5 7h364q20 0 28 -8t8 -28v-70q0 -20 -8 -28t-28 -8h-86
v-1040h86q20 0 28 -8t8 -28v-70q0 -20 -8 -28t-28 -8h-480q-20 0 -28 8t-8 28v70q0 20 8 28t28 8h86v878l-334 -690q-9 -18 -20.5 -25t-31.5 -7h-104q-20 0 -31.5 7t-20.5 25l-332 686v-874h86z" />
    <glyph glyph-name="N" unicode="N" horiz-adv-x="1508" 
d="M452 142q20 0 28 -8t8 -28v-70q0 -20 -8 -28t-28 -8h-342q-20 0 -28 8t-8 28v70q0 20 8 28t28 8h86v1040h-86q-20 0 -28 8t-8 28v70q0 20 8 28t28 8h384q20 0 32.5 -6.5t23.5 -23.5l612 -936v824h-86q-20 0 -28 8t-8 28v70q0 20 8 28t28 8h342q20 0 28 -8t8 -28v-70
q0 -20 -8 -28t-28 -8h-86v-1146q0 -20 -8 -28t-28 -8h-204q-20 0 -32.5 6.5t-23.5 23.5l-670 1024v-912h86z" />
    <glyph glyph-name="O" unicode="O" horiz-adv-x="1416" 
d="M1352 662q0 -87 -16.5 -172t-51 -160.5t-87 -139.5t-124 -111t-163 -73t-202.5 -26q-115 0 -207.5 26.5t-164 73.5t-123 111.5t-84.5 140t-49 159.5t-16 171q0 132 38 255t117 218t200.5 152t288.5 57q115 0 207.5 -26.5t164 -73.5t123 -111.5t84.5 -140t49 -160
t16 -170.5zM382 662q0 -107 15 -202.5t52.5 -168t100.5 -115t158 -42.5t158 42t100.5 114t52.5 168t15 204q0 106 -15 202t-52.5 168.5t-100.5 115t-158 42.5t-158 -42.5t-100.5 -115t-52.5 -168.5t-15 -202z" />
    <glyph glyph-name="P" unicode="P" horiz-adv-x="1202" 
d="M110 0q-20 0 -28 8t-8 28v70q0 20 8 28t28 8h86v1040h-86q-20 0 -28 8t-8 28v70q0 20 8 28t28 8h502q145 0 250 -30t172.5 -85t99.5 -133t32 -174t-35 -177t-104.5 -139.5t-173.5 -91t-243 -32.5h-106v-320h104q20 0 28 -8t8 -28v-70q0 -20 -8 -28t-28 -8h-498zM504 610
h86q70 0 119 20.5t80 58t45 89.5t14 116t-14 116t-44.5 89t-80 57t-119.5 20h-86v-566z" />
    <glyph glyph-name="Q" unicode="Q" horiz-adv-x="1416" 
d="M1238 -340q-27 -6 -55 -10t-63 -4q-96 0 -179 21t-150 63.5t-116 106t-77 149.5q-143 19 -244 82.5t-165.5 156t-94.5 205.5t-30 232q0 132 38 255t117 218t200.5 152t288.5 57q115 0 207.5 -26.5t164 -73.5t123 -111.5t84.5 -140t49 -160t16 -170.5q0 -114 -28.5 -222.5
t-88 -198.5t-151 -154.5t-216.5 -90.5q34 -111 105 -162.5t187 -51.5q14 0 29 1t27 3q24 5 32 -1.5t14 -30.5l10 -40q5 -20 -1.5 -34t-32.5 -20zM382 662q0 -107 15 -202.5t52.5 -168t100.5 -115t158 -42.5t158 42t100.5 114t52.5 168t15 204q0 106 -15 202t-52.5 168.5
t-100.5 115t-158 42.5t-158 -42.5t-100.5 -115t-52.5 -168.5t-15 -202z" />
    <glyph glyph-name="R" unicode="R" horiz-adv-x="1360" 
d="M504 674h148q63 0 107 18.5t72 51.5t40.5 79.5t12.5 102.5t-12.5 102t-40.5 79t-72 51t-107 18h-148v-502zM610 142q20 0 28 -8t8 -28v-70q0 -20 -8 -28t-28 -8h-500q-20 0 -28 8t-8 28v70q0 20 8 28t28 8h86v1040h-86q-20 0 -28 8t-8 28v70q0 20 8 28t28 8h578
q135 0 232 -27.5t160 -78t92.5 -121t29.5 -155.5q0 -273 -288 -342q54 -47 99.5 -101.5t83.5 -113.5t68.5 -120.5t54.5 -122.5h80q20 0 28 -8t8 -28v-70q0 -20 -8 -28t-28 -8h-318q-20 0 -30 8t-18 26q-23 63 -53.5 130.5t-67 132.5t-79.5 124.5t-92 106.5h-138v-386h106z
" />
    <glyph glyph-name="S" unicode="S" horiz-adv-x="1142" 
d="M1078 394q0 -103 -39.5 -180.5t-110.5 -129.5t-169 -78t-215 -26q-115 0 -202.5 23.5t-146.5 64.5t-89 96.5t-30 119.5q0 69 35 111.5t109 42.5q29 0 54 -7.5t43 -23t28.5 -39.5t10.5 -56q0 -39 -15.5 -68t-50.5 -52q44 -32 104.5 -49t129.5 -17q43 0 94.5 8.5t95 29.5
t73 55.5t29.5 86.5q0 49 -26.5 81.5t-71 56.5t-103.5 43l-123 41l-77.5 25.5t-86 33.5t-85 48t-74 69t-52 96.5t-19.5 131.5q0 106 39 183.5t107.5 128.5t161.5 75.5t200 24.5q106 0 188 -22.5t138.5 -62.5t86 -94t29.5 -117q0 -69 -35.5 -113.5t-106.5 -44.5q-29 0 -55 8.5
t-45.5 25t-30.5 41.5t-11 57q0 39 16.5 67t51.5 49q-44 30 -99 45t-115 15q-45 0 -91 -10t-83 -31.5t-60.5 -55.5t-23.5 -83t24.5 -81.5t67.5 -56.5t102 -43.5l128 -42.5q32 -11 74 -24t86 -33t86.5 -48t75.5 -68.5t53.5 -96.5t20.5 -130z" />
    <glyph glyph-name="T" unicode="T" horiz-adv-x="1236" 
d="M360 0q-20 0 -28 8t-8 28v70q0 20 8 28t28 8h104v1032h-244l-38 -192q-5 -20 -14.5 -28t-29.5 -8h-72q-20 0 -28 8t-6 28l10 306q2 20 10 28t28 8h1076q20 0 28 -8t10 -28l10 -306q2 -20 -6 -28t-28 -8h-72q-20 0 -29.5 8t-14.5 28l-40 192h-242v-1032h106q20 0 28 -8
t8 -28v-70q0 -20 -8 -28t-28 -8h-518z" />
    <glyph glyph-name="U" unicode="U" horiz-adv-x="1356" 
d="M1180 502q0 -122 -27 -218.5t-83.5 -164t-144.5 -103.5t-209 -36q-144 0 -246.5 31t-167.5 94t-95.5 159.5t-30.5 227.5v690h-86q-20 0 -28 8t-8 28v70q0 20 8 28t28 8h480q20 0 28 -8t8 -28v-70q0 -20 -8 -28t-28 -8h-86v-726q0 -151 66.5 -231.5t197.5 -80.5
q132 0 197 82.5t65 229.5v726h-86q-20 0 -28 8t-8 28v70q0 20 8 28t28 8h342q20 0 28 -8t8 -28v-70q0 -20 -8 -28t-28 -8h-86v-680v0z" />
    <glyph glyph-name="V" unicode="V" horiz-adv-x="1334" 
d="M598 0q-20 0 -31.5 7t-20.5 25q-56 121 -112 259t-109 285.5t-102 300.5t-91 305h-84q-20 0 -28 8t-8 28v70q0 20 8 28t28 8h512q20 0 28 -8t8 -28v-70q0 -20 -8 -28t-28 -8h-104q59 -228 127.5 -446t146.5 -420q78 202 145.5 420t126.5 446h-110q-20 0 -28 8t-8 28v70
q0 20 8 28t28 8h394q20 0 28 -8t8 -28v-70q0 -20 -8 -28t-28 -8h-90q-41 -152 -89 -305t-100 -300.5t-107.5 -285.5t-111.5 -259q-9 -18 -20.5 -25t-31.5 -7h-138z" />
    <glyph glyph-name="W" unicode="W" horiz-adv-x="2098" 
d="M1392 0q-20 0 -31.5 7.5t-20.5 24.5q-77 169 -147.5 368t-138.5 412q-69 -213 -144 -412t-152 -368q-9 -17 -20.5 -24.5t-31.5 -7.5h-136q-20 0 -31 7.5t-19 24.5q-52 121 -102 259t-97.5 285.5t-92 300.5t-84.5 305h-84q-20 0 -28 8t-8 28v70q0 20 8 28t28 8h512
q20 0 28 -8t8 -28v-70q0 -20 -8 -28t-28 -8h-102l113 -442.5t125 -417.5q75 201 141 417.5t125 442.5h-100q-20 0 -28 8t-8 28v70q0 20 8 28t28 8h470q20 0 28 -8t8 -28v-70q0 -20 -8 -28t-28 -8h-96q59 -226 126 -442.5t144 -415.5q65 199 121.5 415.5l112.5 442.5h-106
q-20 0 -28 8t-8 28v70q0 20 8 28t28 8h392q20 0 28 -8t8 -28v-70q0 -20 -8 -28t-28 -8h-88l-85 -305l-90.5 -300.5t-95.5 -285t-99 -257.5q-8 -18 -19 -26t-31 -8h-138z" />
    <glyph glyph-name="X" unicode="X" horiz-adv-x="1338" 
d="M496 36q0 -20 -8 -28t-28 -8h-396q-20 0 -28 8t-8 28v70q0 20 8 28t28 8h64l82 132t92 133t98 125t100 110q-104 124 -191 260.5t-167 279.5h-60q-20 0 -28 8t-8 28v70q0 20 8 28t28 8h544q20 0 28 -8t8 -28v-70q0 -20 -8 -28t-28 -8h-130q95 -190 236 -370
q71 83 138.5 178t121.5 192h-136q-20 0 -28 8t-8 28v70q0 20 8 28t28 8h400q20 0 28 -8t8 -28v-70q0 -20 -8 -28t-28 -8h-66l-80.5 -126l-88.5 -127t-94 -122t-97 -111q110 -128 202 -265t178 -289h64q20 0 28 -8t8 -28v-70q0 -20 -8 -28t-28 -8h-546q-20 0 -28 8t-8 28v70
q0 20 8 28t28 8h134q-53 104 -116.5 201t-141.5 197q-77 -86 -150 -189t-132 -209h138q20 0 28 -8t8 -28v-70z" />
    <glyph glyph-name="Y" unicode="Y" horiz-adv-x="1262" 
d="M890 142q20 0 28 -8t8 -28v-70q0 -20 -8 -28t-28 -8h-518q-20 0 -28 8t-8 28v70q0 20 8 28t28 8h104v316q-47 73 -93.5 159.5t-90.5 179.5t-85 190.5t-77 194.5h-90q-20 0 -28 8t-8 28v70q0 20 8 28t28 8h492q20 0 28 -8t8 -28v-70q0 -20 -8 -28t-28 -8h-92
q51 -154 114.5 -299t135.5 -267q72 122 134.5 268t113.5 298h-88q-20 0 -28 8t-8 28v70q0 20 8 28t28 8h372q20 0 28 -8t8 -28v-70q0 -20 -8 -28t-28 -8h-90q-35 -97 -76 -195t-85.5 -191.5t-91.5 -180.5t-95 -161v-312h106z" />
    <glyph glyph-name="Z" unicode="Z" horiz-adv-x="1196" 
d="M1120 36q-2 -20 -10 -28t-28 -8h-986q-20 0 -28 8t-8 28v56q0 23 4.5 37t15.5 29l666 1016h-464l-38 -192q-5 -20 -14.5 -28t-29.5 -8h-72q-20 0 -28 8t-6 28l10 306q2 20 10 28t28 8h912q20 0 28 -8t8 -28v-56q0 -20 -4 -34.5t-18 -35.5l-662 -1012h530l46 220
q5 20 14.5 28t29.5 8h72q20 0 28 -8t6 -28z" />
    <glyph glyph-name="a" unicode="a" horiz-adv-x="1114" 
d="M350 280q0 -27 7 -51.5t23.5 -43.5t43 -30t64.5 -11q19 0 40.5 4t43 14.5t41.5 27t37 42.5v180q-26 9 -60 13.5t-82 4.5q-41 0 -71 -13.5t-49.5 -35t-28.5 -48.5t-9 -53zM1090 56q-35 -35 -82.5 -53.5t-119.5 -18.5q-86 0 -142 34.5t-70 105.5q-62 -80 -137 -112
t-163 -32q-80 0 -139.5 21t-98.5 58.5t-58.5 89t-19.5 113.5q0 67 24.5 122t73 93.5t121.5 59.5t171 21q59 0 110.5 -7t89.5 -21v112q0 56 -9.5 98.5t-32 71t-58.5 42.5t-88 14q-92 0 -162 -38q62 -28 62 -108q0 -25 -10 -46t-27.5 -36t-41 -23.5t-51.5 -8.5
q-30 0 -52.5 11.5t-37.5 30.5t-22.5 44t-7.5 52q0 54 30 100.5t84 80.5t130.5 53.5t169.5 19.5q133 0 214.5 -28t126.5 -78t60 -119t15 -151v-354q0 -56 13.5 -80t48.5 -24q17 0 36 8q11 5 18.5 4t15.5 -12l28 -40q14 -20 10 -36t-22 -34z" />
    <glyph glyph-name="b" unicode="b" horiz-adv-x="1198" 
d="M1130 492q0 -120 -28.5 -215t-82 -161t-131 -101t-174.5 -35q-66 0 -119 15t-95 39t-73 55.5t-53 64.5l-76 -124q-11 -17 -23.5 -23.5t-32.5 -6.5h-64q-20 0 -28 8t-8 28v1308l-98 6q-20 2 -28 10t-8 28v48q0 20 8 28t28 10l354 22q36 3 36 -34v-612q18 27 46.5 54
t66.5 48t85 34.5t102 13.5q97 0 171.5 -33.5t124 -98t75 -159.5t25.5 -217zM434 264q39 -57 88.5 -82.5t97.5 -25.5q49 0 88 20t66 61t41.5 104t14.5 149t-14.5 148.5t-41.5 103t-65.5 59.5t-86.5 19q-50 0 -99.5 -22.5t-88.5 -79.5v-454z" />
    <glyph glyph-name="c" unicode="c" horiz-adv-x="968" 
d="M886 156q11 -17 9.5 -32t-21.5 -32q-23 -20 -56 -40t-74.5 -36t-91.5 -26t-108 -10q-122 0 -212.5 39.5t-151 107.5t-90.5 160t-30 197q0 107 32.5 201t95.5 164t155.5 110.5t212.5 40.5q83 0 150 -21.5t113.5 -58t71.5 -86t25 -104.5q0 -38 -11 -69.5t-31.5 -54
t-49 -35.5t-62.5 -13q-59 0 -96.5 35.5t-37.5 94.5q0 50 28.5 83t85.5 47q-26 23 -59 37.5t-81 14.5q-66 0 -112 -29.5t-75 -80.5t-42 -118.5t-13 -143.5q0 -80 15 -145t45.5 -111t77.5 -71t112 -25q56 0 108 18t94 48q15 11 25 9t19 -17z" />
    <glyph glyph-name="d" unicode="d" horiz-adv-x="1232" 
d="M368 490q0 -86 14.5 -148.5t41.5 -103t65.5 -59.5t86.5 -19t98.5 22.5t89.5 79.5v460q-35 50 -85.5 76t-106.5 26q-47 0 -84.5 -19.5t-64 -60.5t-41 -104t-14.5 -150zM778 138q-20 -29 -50 -57t-70.5 -50.5t-91.5 -36.5t-112 -14q-91 0 -162.5 33.5t-121 97t-76 156
t-26.5 211.5q0 124 28.5 221t82.5 164t130.5 102t172.5 35q97 0 165.5 -33t116.5 -81v458l-96 6q-20 2 -28 10t-8 28v48q0 20 8 28t28 10l352 22q36 3 36 -34v-1328h84q20 0 28 -8t8 -28v-62q0 -20 -8 -28t-28 -8h-326q-20 0 -28 8t-8 28v102z" />
    <glyph glyph-name="e" unicode="e" horiz-adv-x="1070" 
d="M724 570q-3 67 -14 122t-32.5 94.5t-55 61.5t-82.5 22q-48 0 -81 -22t-54 -61.5t-31.5 -94.5t-13.5 -122h364zM932 94q-68 -51 -162.5 -82.5t-207.5 -31.5q-131 0 -225.5 40t-156 109t-91 160.5t-29.5 194.5q0 100 28.5 193t87.5 165t149.5 115t214.5 43q130 0 220 -39.5
t145.5 -106.5t80 -156t24.5 -188v-34q0 -32 -30 -32h-620q3 -76 17.5 -132t46 -93t83.5 -55t129 -18q25 0 55.5 4.5t62.5 13.5t62.5 22t55.5 30q15 11 26.5 7.5t19.5 -17.5l28 -48q9 -17 7.5 -33t-21.5 -31z" />
    <glyph glyph-name="f" unicode="f" horiz-adv-x="724" 
d="M588 134q20 0 28 -8t8 -28v-62q0 -20 -8 -28t-28 -8h-482q-20 0 -28 8t-8 28v62q0 20 8 28t28 8h86v712h-136q-20 0 -28 8t-8 28v62q0 20 8 28t28 8h136v8q0 130 32 226t87.5 159.5t128.5 95t156 31.5q152 0 231 -55t79 -149q0 -28 -9.5 -54t-27 -46.5t-42 -33
t-55.5 -12.5t-55.5 9.5t-42 26t-27 38t-9.5 46.5q0 39 17 66t49 42q-15 5 -31 7.5t-33 2.5q-32 0 -60 -11.5t-49.5 -40.5t-34 -79.5t-12.5 -128.5v-148h196q20 0 28 -8t8 -28v-62q0 -20 -8 -28t-28 -8h-196v-712h104z" />
    <glyph glyph-name="g" unicode="g" horiz-adv-x="1072" 
d="M354 658q0 -109 38.5 -158.5t113.5 -49.5q78 0 117 49.5t39 158.5q0 112 -39 162t-117 50q-75 0 -113.5 -50t-38.5 -162zM688 188q75 0 139.5 -16t111.5 -49t74 -83t27 -118q0 -86 -39.5 -150t-112.5 -106.5t-176.5 -64t-231.5 -21.5q-100 0 -184 12.5t-145.5 39
t-96 67.5t-34.5 99q0 77 53.5 128.5t142.5 75.5q-51 18 -77.5 57.5t-26.5 102.5q0 40 12.5 71.5t33.5 57t48 44.5t56 33q-47 23 -81 55t-56 70t-32.5 80.5t-10.5 86.5q0 66 25 127.5t77 108.5t132 75.5t190 28.5q47 0 88.5 -5.5t77.5 -14.5h340q20 0 28 -8t8 -28v-86
q0 -24 -22 -24h-28q-32 0 -62 3.5t-60 8.5q29 -41 42.5 -88.5t13.5 -97.5q0 -66 -25 -127.5t-77 -108.5t-132.5 -75.5t-191.5 -28.5q-39 0 -74.5 3t-67.5 11q-26 -15 -40 -34.5t-14 -45.5q0 -22 7.5 -35t22.5 -20t36 -9t48 -2h264zM236 -162q0 -63 66.5 -96.5t199.5 -33.5
q142 0 220 34t78 100q0 53 -45 85.5t-131 32.5h-328q-27 -20 -43.5 -50.5t-16.5 -71.5z" />
    <glyph glyph-name="h" unicode="h" horiz-adv-x="1238" 
d="M554 134q20 0 28 -8t8 -28v-62q0 -20 -8 -28t-28 -8h-462q-20 0 -28 8t-8 28v62q0 20 8 28t28 8h84v1210l-96 6q-20 2 -28 10t-8 28v48q0 20 8 28t28 10l352 22q36 3 36 -34v-600q22 25 50.5 50t66 44.5t84.5 31.5t105 12q82 0 142 -26.5t98.5 -74t57 -113t18.5 -142.5
v-510h86q20 0 28 -8t8 -28v-62q0 -20 -8 -28t-28 -8h-462q-20 0 -28 8t-8 28v62q0 20 8 28t28 8h84v490q0 43 -8 79.5t-25.5 63t-46 41t-68.5 14.5q-44 0 -92 -22t-90 -70v-596h86z" />
    <glyph glyph-name="i" unicode="i" horiz-adv-x="660" 
d="M512 1286q0 -35 -12.5 -66t-35.5 -54t-55 -36.5t-71 -13.5t-71 13.5t-55 36.5t-35.5 54t-12.5 66t12.5 66t35.5 54t55 36.5t71 13.5t71 -13.5t55 -36.5t35.5 -54t12.5 -66zM606 36q0 -20 -8 -28t-28 -8h-464q-20 0 -28 8t-8 28v62q0 20 8 28t28 8h86v716l-96 6
q-20 2 -28 10t-8 28v48q0 20 8 28.5t28 9.5l352 12q36 3 36 -34v-824h86q20 0 28 -8t8 -28v-62z" />
    <glyph glyph-name="j" unicode="j" horiz-adv-x="610" 
d="M496 1286q0 -35 -12.5 -66t-35.5 -54t-55 -36.5t-71 -13.5t-71 13.5t-55 36.5t-35.5 54t-12.5 66t12.5 66t35.5 54t55 36.5t71 13.5t71 -13.5t55 -36.5t35.5 -54t12.5 -66zM468 92q0 -131 -33.5 -227t-92 -159.5t-138 -94.5t-170.5 -31q-127 0 -195.5 48.5t-68.5 131.5
q0 28 7.5 52t23 42t39.5 28t56 10q51 0 84.5 -27t33.5 -77q0 -68 -54 -98q30 -6 66 -6q33 0 60.5 12.5t47.5 43.5t31 82.5t11 129.5v898l-96 6q-20 2 -28 10t-8 28v48q0 20 8 28.5t28 9.5l352 12q36 3 36 -34v-866z" />
    <glyph glyph-name="k" unicode="k" horiz-adv-x="1202" 
d="M554 134q20 0 28 -8t8 -28v-62q0 -20 -8 -28t-28 -8h-462q-20 0 -28 8t-8 28v62q0 20 8 28t28 8h84v1210l-96 6q-20 2 -28 10t-8 28v48q0 20 8 28t28 10l352 22q36 3 36 -34v-932q91 68 172 146t158 170h-110q-20 0 -28 8t-8 28v62q0 20 8 28t28 8h428q20 0 28 -8t8 -28
v-62q0 -20 -8 -28t-28 -8h-122q-56 -71 -113.5 -132.5t-120.5 -117.5q86 -97 167 -216t141 -246h86q20 0 28 -8t8 -28v-62q0 -20 -8 -28t-28 -8h-320q-20 0 -30.5 7t-19.5 27q-42 104 -106 204.5t-136 185.5q-15 -11 -36 -25l-38 -25v-240h86z" />
    <glyph glyph-name="l" unicode="l" horiz-adv-x="644" 
d="M590 36q0 -20 -8 -28t-28 -8h-462q-20 0 -28 8t-8 28v62q0 20 8 28t28 8h84v1210l-96 6q-20 2 -28 10t-8 28v48q0 20 8 28t28 10l352 22q36 3 36 -34v-1328h86q20 0 28 -8t8 -28v-62z" />
    <glyph glyph-name="m" unicode="m" horiz-adv-x="1876" 
d="M570 134q20 0 28 -8t8 -28v-62q0 -20 -8 -28t-28 -8h-464q-20 0 -28 8t-8 28v62q0 20 8 28t28 8h86v716l-96 6q-20 2 -28 10t-8 28v48q0 20 8 28.5t28 9.5l338 12q36 3 36 -34v-106q21 26 50 52.5t68 47.5t89 34.5t113 13.5q106 0 173.5 -42t102.5 -114q28 33 65.5 61.5
t82 49.5t94.5 33t104 12q82 0 141.5 -26.5t98.5 -74t57.5 -113t18.5 -142.5v-510h84q20 0 28 -8t8 -28v-62q0 -20 -8 -28t-28 -8h-462q-20 0 -28 8t-8 28v62q0 20 8 28t28 8h86v490q0 43 -8 79.5t-25.5 63t-46 41t-68.5 14.5q-45 0 -93 -22t-89 -70v-596h84q20 0 28 -8
t8 -28v-62q0 -20 -8 -28t-28 -8h-462q-20 0 -28 8t-8 28v62q0 20 8 28t28 8h86v490q0 43 -8 79.5t-25.5 63t-46 41t-68.5 14.5q-45 0 -93 -22t-89 -70v-596h86z" />
    <glyph glyph-name="n" unicode="n" horiz-adv-x="1254" 
d="M570 134q20 0 28 -8t8 -28v-62q0 -20 -8 -28t-28 -8h-464q-20 0 -28 8t-8 28v62q0 20 8 28t28 8h86v716l-96 6q-20 2 -28 10t-8 28v48q0 20 8 28.5t28 9.5l338 12q36 3 36 -34v-106q21 26 50 52.5t68 47.5t89 34.5t113 13.5q82 0 141.5 -26.5t98.5 -74t57.5 -113
t18.5 -142.5v-510h84q20 0 28 -8t8 -28v-62q0 -20 -8 -28t-28 -8h-462q-20 0 -28 8t-8 28v62q0 20 8 28t28 8h86v490q0 43 -8 79.5t-25.5 63t-46 41t-68.5 14.5q-45 0 -93 -22t-89 -70v-596h86z" />
    <glyph glyph-name="o" unicode="o" horiz-adv-x="1150" 
d="M1090 490q0 -98 -29 -189.5t-91.5 -163t-160.5 -114.5t-235 -43t-234.5 41.5t-159.5 112t-91 163t-29 193.5q0 65 12.5 128t39.5 119.5t68 105t98 83.5t130.5 54.5t165.5 19.5q137 0 235 -41.5t160.5 -112t91.5 -163t29 -193.5zM362 490q0 -85 13 -155t39 -120t66 -77.5
t94 -27.5q55 0 95.5 27.5t67.5 77.5t40 120t13 155t-13 155t-39.5 120t-67.5 77.5t-96 27.5q-54 0 -94 -27.5t-66 -77.5t-39 -120t-13 -155z" />
    <glyph glyph-name="p" unicode="p" horiz-adv-x="1234" 
d="M468 264q41 -57 90.5 -82.5t97.5 -25.5q49 0 88 20t66 61t41.5 104t14.5 149t-14.5 148.5t-41.5 103t-65.5 59.5t-86.5 19q-50 0 -99.5 -22.5t-90.5 -79.5v-454zM574 -266q20 0 28 -8t8 -28v-62q0 -20 -8 -28t-28 -8h-482q-20 0 -28 8t-8 28v62q0 20 8 28t28 8h84v1116
l-96 6q-20 2 -28 10t-8 28v48q0 20 8 28.5t28 9.5l338 12q36 3 36 -34v-106q21 26 49.5 52.5t66.5 47.5t87.5 34.5t112.5 13.5q97 0 171.5 -33.5t124 -98t75 -159.5t25.5 -217q0 -120 -30 -215t-85.5 -161t-135 -101t-177.5 -35q-42 0 -81 9.5t-73.5 25t-64 36t-51.5 43.5
v-360h106z" />
    <glyph glyph-name="q" unicode="q" horiz-adv-x="1198" 
d="M1178 -364q0 -20 -8 -28t-28 -8h-482q-20 0 -28 8t-8 28v62q0 20 8 28t28 8h104v398q-19 -27 -47.5 -54t-66.5 -49t-84.5 -35.5t-101.5 -13.5q-195 0 -295.5 131.5t-100.5 376.5q0 120 28.5 215t83 161t134 101t180.5 35q57 0 106.5 -13t91.5 -35t75 -51.5t57 -62.5
l76 112q11 17 23.5 23.5t32.5 6.5h64q20 0 28 -8t8 -28v-1210h86q20 0 28 -8t8 -28v-62zM368 490q0 -86 14.5 -148.5t41.5 -103t65.5 -59.5t86.5 -19t98.5 22.5t89.5 79.5v454q-39 57 -89.5 82.5t-98.5 25.5q-98 0 -153 -81t-55 -253z" />
    <glyph glyph-name="r" unicode="r" horiz-adv-x="930" 
d="M792 692q-62 0 -95 27.5t-33 84.5v12q-56 -11 -97 -51t-83 -99v-532h104q20 0 28 -8t8 -28v-62q0 -20 -8 -28t-28 -8h-482q-20 0 -28 8t-8 28v62q0 20 8 28t28 8h86v716l-96 6q-20 2 -28 10t-8 28v48q0 20 8 28.5t28 9.5l338 12q36 3 36 -34v-184q29 48 59.5 89t65 71
t75.5 47t92 17q43 0 76 -12t55.5 -33t33.5 -49.5t11 -61.5q0 -72 -41.5 -111t-104.5 -39z" />
    <glyph glyph-name="s" unicode="s" horiz-adv-x="970" 
d="M908 294q0 -77 -33.5 -135.5t-93 -98t-141 -60t-178.5 -20.5q-95 0 -167.5 18t-122 51t-75 78t-25.5 99q0 57 29.5 91.5t92.5 34.5q24 0 45.5 -6t38 -19t26.5 -33t10 -48q0 -33 -14.5 -55.5t-49.5 -40.5q35 -24 85 -38t107 -14q34 0 74.5 5t75 18t57.5 35.5t23 57.5
q0 32 -18.5 54t-52.5 39t-82 32l-107 33q-28 8 -62.5 19t-71 27t-71 38.5t-61.5 53.5t-43.5 73t-16.5 97q0 80 33 140t91 99.5t136 59t168 19.5q88 0 156 -17.5t113.5 -49t69 -74.5t23.5 -93q0 -60 -32.5 -97t-91.5 -37q-25 0 -47 7t-38.5 20.5t-26.5 34.5t-10 50
q0 32 14.5 55t47.5 41q-33 21 -76 31.5t-90 10.5q-38 0 -74.5 -6t-65 -19.5t-46.5 -37t-18 -57.5q0 -32 18.5 -54t52.5 -39t82 -32l107 -33l63 -19.5t71.5 -26.5t70.5 -38.5t61 -53.5t43.5 -73t16.5 -97z" />
    <glyph glyph-name="t" unicode="t" horiz-adv-x="792" 
d="M746 116q11 -17 9 -33t-23 -31q-44 -30 -106 -51t-154 -21q-70 0 -127.5 17.5t-98.5 58t-63.5 107.5t-22.5 167v516h-136q-20 0 -28 8t-8 28v62q0 20 8 28t28 8h136v190q0 20 8 29.5t28 12.5l220 42q36 6 36 -30v-244h262q20 0 28 -8t8 -28v-62q0 -20 -8 -28t-28 -8h-262
v-528q0 -35 5.5 -66.5t19.5 -55t37.5 -37t59.5 -13.5q24 0 49.5 7t46.5 21q18 9 28.5 7t19.5 -17z" />
    <glyph glyph-name="u" unicode="u" horiz-adv-x="1218" 
d="M764 128q-20 -26 -48 -52.5t-65.5 -47.5t-86.5 -34.5t-112 -13.5q-83 0 -141 26.5t-95.5 74t-54.5 113t-17 142.5v514l-96 6q-20 2 -28 10t-8 28v48q0 20 8 28.5t28 9.5l352 12q36 3 36 -34v-594q0 -44 6.5 -80t23 -62.5t43 -41t67.5 -14.5q45 0 89 18t85 66v600l-96 6
q-20 2 -28 10t-8 28v48q0 20 8 28.5t28 9.5l352 12q36 3 36 -34v-824h84q20 0 28 -8t8 -28v-62q0 -20 -8 -28t-28 -8h-326q-20 0 -28 8t-8 28v92z" />
    <glyph glyph-name="v" unicode="v" horiz-adv-x="1108" 
d="M1092 882q0 -20 -8 -28t-28 -8h-70q-24 -110 -57 -222t-70.5 -218.5t-76.5 -202t-74 -171.5q-9 -17 -20.5 -24.5t-31.5 -7.5h-208q-20 0 -31.5 7.5t-20.5 24.5q-35 76 -74 171.5t-76 202t-70 218.5t-56 222h-68q-20 0 -28 8t-8 28v62q0 20 8 28t28 8h444q20 0 28 -8
t8 -28v-62q0 -20 -8 -28t-28 -8h-74q16 -87 36.5 -176t45 -173.5t52.5 -162.5t58 -142q29 64 57 142t52.5 162.5t45.5 173.5t37 176h-82q-20 0 -28 8t-8 28v62q0 20 8 28t28 8h332q20 0 28 -8t8 -28v-62z" />
    <glyph glyph-name="w" unicode="w" horiz-adv-x="1708" 
d="M1072 0q-20 0 -31.5 7.5t-20.5 24.5q-42 92 -86 210.5t-86 251.5q-38 -130 -80 -250t-84 -212q-9 -17 -20.5 -24.5t-31.5 -7.5h-208q-20 0 -31 8t-19 26q-32 75 -67 170t-68 201.5t-62 218.5t-51 222h-66q-20 0 -28 8t-8 28v62q0 20 8 28t28 8h442q20 0 28 -8t8 -28v-62
q0 -20 -8 -28t-28 -8h-74q14 -85 33 -171.5t40 -169t44.5 -159t46.5 -140.5q27 64 56 140.5t56.5 159t52 169t41.5 171.5h-84q-20 0 -28 8t-8 28v62q0 20 8 28t28 8h390q20 0 28 -8t8 -28v-62q0 -20 -8 -28t-28 -8h-74q17 -85 41 -171t51 -168.5t56 -158.5t56 -140
q23 64 46.5 140t45 158.5t40.5 168.5t34 171h-84q-20 0 -28 8t-8 28v62q0 20 8 28t28 8h332q20 0 28 -8t8 -28v-62q0 -20 -8 -28t-28 -8h-68q-23 -110 -52.5 -222t-62.5 -218.5t-68 -201.5t-67 -170q-8 -18 -19 -26t-31 -8h-208z" />
    <glyph glyph-name="x" unicode="x" horiz-adv-x="1152" 
d="M426 36q0 -20 -8 -28t-28 -8h-336q-20 0 -28 8t-8 28v62q0 20 8 28t28 8h74q62 86 136 173.5t160 170.5q-85 86 -155 175.5t-135 192.5h-62q-20 0 -28 8t-8 28v62q0 20 8 28t28 8h464q20 0 28 -8t8 -28v-62q0 -20 -8 -28t-28 -8h-80q38 -59 83 -115.5t101 -118.5
q56 59 102.5 117t85.5 117h-82q-20 0 -28 8t-8 28v62q0 20 8 28t28 8h338q20 0 28 -8t8 -28v-62q0 -20 -8 -28t-28 -8h-74q-59 -81 -129 -164.5t-151 -163.5q88 -87 162.5 -180t143.5 -204h62q20 0 28 -8t8 -28v-62q0 -20 -8 -28t-28 -8h-464q-20 0 -28 8t-8 28v62
q0 20 8 28t28 8h82q-41 63 -90.5 123.5t-111.5 128.5q-62 -63 -113 -126t-93 -126h82q20 0 28 -8t8 -28v-62z" />
    <glyph glyph-name="y" unicode="y" horiz-adv-x="1108" 
d="M776 188q-66 -157 -127 -270t-126.5 -186.5t-140 -108.5t-166.5 -35q-38 0 -74 10t-64 30t-45 51t-17 73q0 66 36 106t102 40q56 0 91 -29.5t35 -82.5q0 -29 -9 -47.5t-29 -32.5q6 -2 12 -2h12q36 0 69.5 20t66.5 58t66.5 93t69.5 125h-96q-20 0 -31.5 7.5t-20.5 24.5
q-35 76 -74.5 171.5t-77.5 202t-72 218.5t-58 222h-68q-20 0 -28 8t-8 28v62q0 20 8 28t28 8h444q20 0 28 -8t8 -28v-62q0 -20 -8 -28t-28 -8h-74q16 -87 38 -176t47.5 -174t54 -163t58.5 -143q29 65 57.5 143t54 163t47.5 174t39 176h-82q-20 0 -28 8t-8 28v62q0 20 8 28
t28 8h332q20 0 28 -8t8 -28v-62q0 -20 -8 -28t-28 -8h-70q-18 -85 -42.5 -171.5t-52 -170.5t-57.5 -164z" />
    <glyph glyph-name="z" unicode="z" horiz-adv-x="1006" 
d="M940 36q-2 -20 -10 -28t-28 -8h-820q-20 0 -28 8t-8 28v46q0 20 5 34.5t17 31.5l502 692h-338l-32 -154q-5 -20 -14.5 -28t-29.5 -8h-56q-37 0 -34 36l12 258q2 20 10 28t28 8h774q20 0 28 -8t8 -28v-46q0 -20 -5 -34.5t-17 -31.5l-502 -692h386l30 154q5 20 14.5 28
t29.5 8h56q37 0 34 -36z" />
    <glyph glyph-name="ordfeminine" unicode="&#xaa;" horiz-adv-x="784" 
d="M268 836q0 -38 21.5 -66t72.5 -28q29 0 61 13t55 49v126q-18 8 -42 11t-44 3q-36 0 -60 -9.5t-38 -25t-20 -35t-6 -38.5zM788 682q-27 -26 -61 -39t-79 -13q-62 0 -101.5 24.5t-50.5 75.5q-44 -57 -97 -79.5t-115 -22.5q-56 0 -97 15t-68.5 41t-41 62t-13.5 78
q0 96 68.5 153t203.5 57q42 0 79 -5.5t63 -14.5v78q0 81 -29.5 120.5t-104.5 39.5q-32 0 -59 -6.5t-53 -21.5q44 -19 44 -70q0 -23 -8 -39t-21 -26.5t-29 -15.5t-32 -5q-22 0 -38 8.5t-26.5 22t-16 31t-5.5 36.5q0 37 20.5 69.5t59.5 56.5t95.5 38t128.5 14q88 0 143 -20.5
t85.5 -56.5t41 -84t10.5 -103v-248q0 -38 9 -56t33 -18q6 0 12 1t12 3q11 5 16.5 3t13.5 -11l12 -20q21 -27 -4 -52z" />
    <glyph glyph-name="ordmasculine" unicode="&#xba;" horiz-adv-x="856" 
d="M788 986q0 -68 -20.5 -132.5t-64 -114.5t-111.5 -80.5t-164 -30.5t-164.5 30.5t-112 80.5t-63.5 114.5t-20 132.5t20 132.5t63.5 114.5t112 80.5t164.5 30.5t164 -30.5t111.5 -80.5t64 -114.5t20.5 -132.5zM280 986q0 -60 9 -109t27 -84t46 -54t66 -19t66 19t46 54t27 84
t9 109t-9 109t-27 84t-46 54t-66 19t-66 -19t-46 -54t-27 -84t-9 -109z" />
    <glyph glyph-name="dagger" unicode="&#x2020;" horiz-adv-x="884" 
d="M144 1088q-20 0 -28 8t-8 28v60q0 20 8 28t28 8h224v224q0 20 8 28t28 8h76q20 0 28 -8t8 -28v-224h224q20 0 28 -8t8 -28v-60q0 -20 -8 -28t-28 -8h-224v-584q0 -20 -8 -28t-28 -8h-76q-20 0 -28 8t-8 28v584h-224z" />
    <glyph glyph-name="daggerdbl" unicode="&#x2021;" horiz-adv-x="884" 
d="M144 1088q-20 0 -28 8t-8 28v60q0 20 8 28t28 8h224v224q0 20 8 28t28 8h76q20 0 28 -8t8 -28v-224h224q20 0 28 -8t8 -28v-60q0 -20 -8 -28t-28 -8h-224v-260h224q20 0 28 -8t8 -28v-60q0 -20 -8 -28t-28 -8h-224v-660q0 -20 -8 -28t-28 -8h-76q-20 0 -28 8t-8 28v660
h-224q-20 0 -28 8t-8 28v60q0 20 8 28t28 8h224v260h-224z" />
    <glyph glyph-name="degree" unicode="&#xb0;" horiz-adv-x="728" 
d="M668 1044q0 -64 -23.5 -118.5t-64 -95t-96.5 -63.5t-120 -23q-65 0 -120.5 23t-96 63.5t-64 95t-23.5 118.5t23.5 118.5t64 95t96 63.5t120.5 23q64 0 120 -23t96.5 -63.5t64 -95t23.5 -118.5zM208 1044q0 -35 11.5 -64t32.5 -50t49.5 -32.5t62.5 -11.5t62.5 11.5
t49.5 32.5t32.5 50t11.5 64q0 34 -11.5 63t-32.5 50t-49.5 33t-62.5 12t-62.5 -12t-49.5 -33t-32.5 -50t-11.5 -63z" />
    <glyph glyph-name="asterisk" unicode="*" horiz-adv-x="884" 
d="M594 786q-30 -24 -46 10l-106 228l-106 -228q-16 -34 -46 -10l-118 86q-29 23 -4 46l184 170l-250 36q-37 3 -24 38l44 140q12 33 44 16l220 -124l-48 250q-6 36 30 36h148q36 0 30 -36l-48 -250l220 124q32 17 44 -16l44 -140q13 -35 -24 -38l-252 -36l186 -170
q25 -23 -4 -46z" />
    <glyph glyph-name="asciicircum" unicode="^" horiz-adv-x="1136" 
d="M1054 762q6 -9 8 -14.5t2 -11.5q0 -14 -20 -28l-60 -44q-11 -8 -16.5 -10t-11.5 -2t-12 2.5t-14 13.5l-362 512l-362 -510q-12 -18 -26 -18q-5 0 -11 2t-17 10l-60 44q-20 14 -20 28q0 5 1 10t7 14l378 534q11 17 23.5 23.5t32.5 6.5h108q20 0 32 -6.5t24 -23.5z" />
    <glyph glyph-name="ampersand" unicode="&#x26;" horiz-adv-x="1546" 
d="M628 146q65 0 129.5 20t118.5 56l-468 400q-35 -41 -51.5 -90t-16.5 -100q0 -54 17.5 -105.5t53.5 -91.5t90 -64.5t127 -24.5zM1010 730q0 20 8 28t28 8h380q20 0 28 -8t8 -28v-70q0 -20 -8 -28t-28 -8h-106q-17 -81 -51.5 -164t-90.5 -154l192 -164h112q20 0 28 -8
t8 -28v-70q0 -20 -8 -28t-28 -8h-310q-20 0 -34.5 5t-29.5 19l-118 100q-40 -32 -84.5 -58.5t-97 -45.5t-114 -29.5t-134.5 -10.5q-117 0 -210.5 26.5t-158.5 75.5t-100 118t-35 154q0 64 19.5 118t54 98t81.5 79t103 63q-63 69 -91.5 132t-28.5 138q0 73 29 138.5t86.5 115
t142.5 79t198 29.5q100 0 177.5 -23.5t130 -64t79.5 -94t27 -114.5q0 -74 -38 -120t-106 -46q-28 0 -53 8.5t-44.5 25.5t-31 42.5t-11.5 59.5q0 39 17 69t49 51q-39 27 -87.5 40.5t-96.5 13.5q-95 0 -145.5 -46.5t-50.5 -121.5q0 -41 15.5 -76t42 -67t62 -64l76.5 -67
l404 -348q39 48 61 105.5t31 116.5h-112q-20 0 -28 8t-8 28v70z" />
    <glyph glyph-name="at" unicode="@" horiz-adv-x="1726" 
d="M1278 -178q-37 -26 -82.5 -49.5t-99.5 -41.5t-116 -28.5t-132 -10.5q-166 0 -304.5 59t-239 165t-156.5 253.5t-56 324.5q0 175 57 320t161.5 249.5t250.5 162.5t325 58q170 0 309 -52.5t238 -147.5t153 -227t54 -291q0 -94 -20.5 -183.5t-63.5 -160t-109.5 -113.5
t-158.5 -43q-45 0 -84.5 10.5t-70.5 30t-52.5 45.5t-30.5 58q-18 -23 -43.5 -45t-58.5 -38.5t-73 -26.5t-87 -10q-77 0 -138.5 27.5t-105 79t-67 125.5t-23.5 168t23.5 168t67 125.5t104.5 79t137 27.5q92 0 160 -35t110 -83l50 72q11 17 23.5 23.5t32.5 6.5h52q20 0 28 -8
t8 -28v-566q0 -86 64 -86q34 0 66 24.5t57 71t40 113t15 149.5q0 139 -44 253t-123.5 194.5t-192 124.5t-248.5 44q-138 0 -255 -45.5t-202 -131.5t-133 -209.5t-48 -279.5q0 -154 47 -279.5t129.5 -214.5t194.5 -137.5t243 -48.5q108 0 198 31t162 73q17 11 28 8t22 -20
l20 -34q9 -17 7 -29t-19 -21zM866 230q41 0 79.5 18t70.5 62v360q-32 44 -70.5 62t-79.5 18q-81 0 -126.5 -63.5t-45.5 -196.5t45.5 -196.5t126.5 -63.5z" />
    <glyph glyph-name="numbersign" unicode="#" horiz-adv-x="1200" 
d="M480 832l-56 -340h294l56 340h-294zM674 0q-36 0 -30 36l50 308h-294l-50 -308q-3 -20 -12.5 -28t-29.5 -8h-90q-36 0 -30 36l50 308h-158q-20 0 -28 8t-8 28v76q0 20 8 28t28 8h182l56 340h-158q-20 0 -28 8t-8 28v76q0 20 8 28t28 8h182l52 308q3 20 12.5 28t29.5 8h90
q36 0 30 -36l-52 -308h294l52 308q3 20 12.5 28t29.5 8h90q36 0 30 -36l-52 -308h160q20 0 28 -8t8 -28v-76q0 -20 -8 -28t-28 -8h-184l-56 -340h160q20 0 28 -8t8 -28v-76q0 -20 -8 -28t-28 -8h-184l-50 -308q-3 -20 -12.5 -28t-29.5 -8h-90z" />
    <glyph glyph-name="dollar" unicode="$" 
d="M534 1166q-78 -15 -126 -57t-48 -113q0 -34 13 -59.5t36.5 -45t55 -35t69.5 -28.5v338zM664 160q39 7 73 21t59.5 34.5t40.5 48.5t15 64q0 33 -15 58.5t-40.5 45.5t-60 35.5t-72.5 28.5v-336zM570 -128q-20 0 -28 8t-8 28v112q-107 3 -188.5 26t-136 61.5t-82 89
t-27.5 109.5q0 66 33.5 106t102.5 40q54 0 91 -29t37 -91q0 -36 -14.5 -63.5t-47.5 -48.5q44 -30 103.5 -47t128.5 -19v384l-90 27t-93 33t-88 45t-73.5 64t-50.5 89t-19 120q0 88 31 155.5t86 115t131 75t166 36.5v118q0 20 8 28t28 8h58q20 0 28 -8t8 -28v-114
q95 -5 169 -27.5t125 -59.5t77.5 -86t26.5 -105q0 -65 -34.5 -106.5t-99.5 -41.5q-27 0 -51.5 8t-42.5 24t-29 39t-11 53q0 36 15 62.5t47 47.5q-38 26 -88 40.5t-104 17.5v-380q43 -14 91.5 -28t95.5 -33.5t90.5 -46t76.5 -64t52.5 -88t19.5 -118.5q0 -86 -31 -153.5
t-87 -116t-134.5 -77.5t-173.5 -39v-116q0 -20 -8 -28t-28 -8h-58z" />
    <glyph glyph-name="cent" unicode="&#xa2;" 
d="M606 -128q-20 0 -28 8t-8 28v118q-112 15 -197 59t-142 110t-86 150t-29 179q0 94 30.5 179t88.5 152t142.5 112.5t192.5 62.5v122q0 20 8 28t28 8h58q20 0 28 -8t8 -28v-116q79 -3 142.5 -25t108.5 -58t69 -83t24 -100q0 -38 -11 -69.5t-31.5 -54t-49 -35.5t-62.5 -13
q-59 0 -96.5 35.5t-37.5 94.5q0 47 27.5 81.5t84.5 48.5q-61 52 -168 52v-728q78 0 137 19t101 51q17 11 27 9t21 -19l28 -46q9 -15 9 -31.5t-15 -28.5q-50 -41 -127.5 -74t-180.5 -38v-116q0 -20 -8 -28t-28 -8h-58zM570 892q-41 -17 -70 -52.5t-47.5 -83t-27.5 -104
t-9 -114.5q0 -60 9 -114.5t28 -99.5t48 -77.5t69 -48.5v694z" />
    <glyph glyph-name="sterling" unicode="&#xa3;" 
d="M884 622q0 -20 -8 -28t-28 -8h-274q5 -27 7.5 -52t2.5 -48q0 -53 -16 -94.5t-41.5 -73t-59 -55t-67.5 -39.5h486l24 118q5 20 14.5 28t29.5 8h70q20 0 28 -8t6 -28l-8 -306q-2 -20 -10 -28t-28 -8h-866q-20 0 -28 8t-8 28v76q0 23 7 34t25 22q34 20 67.5 50t60.5 68
t43.5 83.5t16.5 96.5q0 30 -5.5 60t-16.5 60h-190q-20 0 -28 8t-8 28v70q0 20 8 28t28 8h132q-23 56 -38.5 117t-15.5 127q0 94 35 164t97 116.5t147 69t185 22.5q105 0 184.5 -23t133.5 -63.5t81 -94.5t27 -115q0 -74 -37 -120t-105 -46q-29 0 -54.5 9t-45 26t-31 42.5
t-11.5 58.5q0 80 74 126q-69 54 -166 54q-104 0 -153 -58.5t-49 -165.5q0 -57 11 -120t25 -126h304q20 0 28 -8t8 -28v-70z" />
    <glyph glyph-name="yen" unicode="&#xa5;" 
d="M1060 286q0 -20 -8 -28t-28 -8h-288v-108h110q20 0 28 -8t8 -28v-70q0 -20 -8 -28t-28 -8h-520q-20 0 -28 8t-8 28v70q0 20 8 28t28 8h110v108h-288q-20 0 -28 8t-8 28v70q0 20 8 28t28 8h288v150h-288q-20 0 -28 8t-8 28v70q0 20 8 28t28 8h196q-57 113 -111.5 240.5
t-96.5 257.5h-80q-20 0 -28 8t-8 28v70q0 20 8 28t28 8h476q20 0 28 -8t8 -28v-70q0 -20 -8 -28t-28 -8h-92q39 -134 93 -263t111 -235q57 106 111 235t93 263h-86q-20 0 -28 8t-8 28v70q0 20 8 28t28 8h356q20 0 28 -8t8 -28v-70q0 -20 -8 -28t-28 -8h-80
q-42 -130 -96.5 -256.5t-111.5 -241.5h194q20 0 28 -8t8 -28v-70q0 -20 -8 -28t-28 -8h-288v-150h288q20 0 28 -8t8 -28v-70z" />
    <glyph glyph-name="florin" unicode="&#x192;" 
d="M590 16q-18 -116 -59.5 -198.5t-101 -135t-135 -77.5t-160.5 -25q-131 0 -202.5 48.5t-71.5 137.5q0 33 10.5 60t29.5 46t44.5 29.5t55.5 10.5q27 0 49 -8.5t37 -23t23.5 -33.5t8.5 -41q0 -36 -17 -63t-49 -47q21 -12 54 -12q31 0 61 13.5t55.5 44.5t45.5 82t32 126
l102 654h-184q-36 0 -30 36l8 54q3 20 12.5 28t29.5 8h184l28 178q18 115 60.5 198t103 135.5t136.5 77.5t162 25q65 0 117 -13.5t88 -39t55.5 -61.5t19.5 -80q0 -33 -10.5 -60t-29.5 -46t-44.5 -29.5t-55.5 -10.5q-27 0 -49 8.5t-37 23t-23.5 33.5t-8.5 41q0 36 18 64
t50 48q-26 16 -62 16q-32 0 -62.5 -13t-57.5 -44t-48 -81.5t-32 -125.5l-38 -244h236q36 0 30 -36l-8 -54q-3 -20 -12.5 -28t-29.5 -8h-236l-92 -588v0z" />
    <glyph glyph-name="Euro" unicode="&#x20ac;" 
d="M824 774q0 -20 -8 -28t-28 -8h-340q-2 -14 -3 -37.5t-1 -44.5q0 -23 1 -46.5t3 -37.5h340q20 0 28 -8t8 -28v-70q0 -20 -8 -28t-28 -8h-322q29 -140 98 -212t190 -72q56 0 117 18t121 60q29 21 46 -10l32 -56q20 -31 -10 -52q-35 -29 -74 -52t-83.5 -39.5t-95.5 -25.5
t-111 -9q-120 0 -212 34.5t-158 94.5t-108.5 142.5t-63.5 178.5h-86q-20 0 -28 8t-8 28v70q0 20 8 28t28 8h66q-2 18 -2 36v38q0 23 1 45.5t3 46.5h-68q-20 0 -28 8t-8 28v70q0 20 8 28t28 8h88q22 95 63.5 179.5t106.5 147.5t155 100t209 37q93 0 167.5 -23t126.5 -63.5
t80 -95t28 -116.5q0 -36 -10 -66t-28.5 -52t-45 -34t-60.5 -12q-29 0 -54.5 9t-45 26t-31 42.5t-11.5 58.5q0 83 76 126q-29 23 -66.5 34.5t-81.5 11.5q-57 0 -101.5 -22t-77.5 -62.5t-55.5 -98t-35.5 -127.5h324q20 0 28 -8t8 -28v-70z" />
    <glyph glyph-name="section" unicode="&#xa7;" horiz-adv-x="1164" 
d="M350 550q0 -47 21.5 -82t60.5 -62.5t93.5 -50.5t120.5 -45l100 -34q47 32 64.5 66t17.5 72q0 47 -21 82.5t-60 63.5t-93.5 50.5t-121.5 43.5l-100 32q-48 -32 -65 -65t-17 -71zM742 846q70 -24 128.5 -55t100.5 -71.5t65.5 -92.5t23.5 -119q0 -98 -50 -172.5t-148 -115.5
q31 -20 59.5 -44.5t50 -56t34 -70.5t12.5 -87q0 -80 -36 -143.5t-100.5 -107.5t-154 -67.5t-195.5 -23.5q-107 0 -190.5 22.5t-142 62.5t-89 94.5t-30.5 118.5q0 34 9 62.5t27 49.5t44.5 32.5t61.5 11.5q60 0 101 -33.5t41 -98.5q0 -74 -66 -116q42 -27 100.5 -43.5
t133.5 -16.5q49 0 93 7.5t77 24t52.5 42.5t19.5 64q0 49 -31.5 81.5t-80.5 55.5t-109 40t-117 37q-71 24 -129.5 55t-100.5 72t-65 93t-23 118q0 97 49.5 172t146.5 114q-32 20 -60 45.5t-49 57t-33 70.5t-12 87q0 80 35 143.5t97 107.5t148 67.5t188 23.5q100 0 178.5 -22
t132.5 -60.5t82.5 -91.5t28.5 -114q0 -69 -35.5 -113.5t-106.5 -44.5q-29 0 -55 8.5t-45.5 25t-30.5 41.5t-11 57q0 74 66 116q-38 24 -88.5 38t-113.5 14q-45 0 -86 -7.5t-72 -24t-49.5 -43t-18.5 -63.5q0 -50 31.5 -82t80.5 -55t109 -40.5t117 -36.5z" />
    <glyph glyph-name="currency" unicode="&#xa4;" 
d="M836 270q-50 -26 -111.5 -40t-136.5 -14t-137 14t-113 40l-130 -128q-26 -26 -52 0l-58 58q-26 26 0 52l116 114q-51 62 -74.5 138.5t-23.5 157.5t23.5 157.5t74.5 136.5l-116 116q-26 26 0 52l58 58q26 26 52 0l130 -128q51 26 113 40t137 14t136.5 -14t111.5 -40
l132 128q26 26 52 0l58 -58q26 -26 0 -52l-118 -116q51 -60 75.5 -136.5t24.5 -157.5t-24.5 -157.5t-75.5 -138.5l118 -114q26 -26 0 -52l-58 -58q-26 -26 -52 0zM378 662q0 -64 11.5 -121t37 -100.5t65.5 -69t96 -25.5t96 25.5t65.5 69t37 100.5t11.5 121t-11.5 121
t-37 100.5t-65.5 69t-96 25.5t-96 -25.5t-65.5 -69t-37 -100.5t-11.5 -121z" />
    <glyph glyph-name="paragraph" unicode="&#xb6;" horiz-adv-x="1254" 
d="M828 -240q-20 0 -28 8t-8 28v1386h-160v-1386q0 -20 -8 -28t-28 -8h-142q-20 0 -28 8t-8 28v838q-89 12 -151 43t-101.5 76.5t-57.5 103.5t-18 123q0 73 23 135.5t74.5 109t135 73t205.5 26.5h620q20 0 28 -8t8 -28v-70q0 -20 -8 -28t-28 -8h-142v-1386q0 -20 -8 -28
t-28 -8h-142z" />
    <glyph glyph-name="registered" unicode="&#xae;" horiz-adv-x="1324" 
d="M1260 900q0 -127 -46 -236.5t-126.5 -190.5t-189.5 -127t-236 -46t-236 46t-189.5 127t-126.5 190.5t-46 236.5t46 236.5t126.5 190.5t189.5 127t236 46t236 -46t189.5 -127t126.5 -190.5t46 -236.5zM1150 900q0 110 -37.5 202t-103 158t-155 103t-192.5 37
q-104 0 -193 -37t-154.5 -103t-103 -158t-37.5 -202t37.5 -202t103 -158t154.5 -103t193 -37q103 0 192.5 37t155 103t103 158t37.5 202zM588 910h58q63 0 89.5 31.5t26.5 84.5q0 54 -26.5 85t-89.5 31h-58v-232zM400 576q-20 0 -28 8t-8 28v8q0 20 8 28t28 8h24v488h-24
q-20 0 -28 8t-8 28v8q0 20 8 28t28 8h270q135 0 197.5 -51t62.5 -135q0 -65 -35.5 -108.5t-104.5 -61.5q51 -45 88 -100t60 -112h20q20 0 28 -8t8 -28v-8q0 -20 -8 -28t-28 -8h-130q-21 0 -31.5 7t-18.5 27q-23 57 -58 116.5t-80 101.5h-52v-172h32q20 0 28 -8t8 -28v-8
q0 -20 -8 -28t-28 -8h-220z" />
    <glyph glyph-name="copyright" unicode="&#xa9;" horiz-adv-x="1564" 
d="M782 1344q97 0 185 -23.5t164 -66.5t137.5 -104.5t105 -137.5t67 -164.5t23.5 -185.5t-23.5 -185.5t-67 -164.5t-105 -137.5t-137.5 -104.5t-164 -66.5t-185 -23.5q-146 0 -270.5 51.5t-216 143t-143.5 216.5t-52 271t52 271t143.5 216.5t216 143t270.5 51.5zM782 1236
q-120 0 -222.5 -43.5t-177.5 -120.5t-117.5 -182t-42.5 -228t42.5 -228t117.5 -182t177.5 -120.5t222.5 -43.5t222.5 43.5t177.5 120.5t117.5 182t42.5 228t-42.5 228t-117.5 182t-177.5 120.5t-222.5 43.5zM1042 356q-45 -36 -107 -58t-143 -22q-93 0 -163.5 29t-117.5 80
t-71 120.5t-24 150.5q0 75 22.5 145.5t70.5 125.5t122 88t177 33q65 0 115 -13t84 -36t51.5 -54t17.5 -67q0 -45 -26 -75.5t-70 -30.5q-19 0 -36 6.5t-30.5 18.5t-21.5 28.5t-8 36.5q0 47 42 74q-18 11 -42 16.5t-48 5.5q-56 0 -95 -24t-63 -64.5t-35 -95.5t-11 -116
q0 -63 11 -114.5t35 -88.5t61 -57t89 -20q44 0 85 14t77 38q17 12 27.5 9.5t22.5 -17.5l10 -14q20 -29 -8 -52z" />
    <glyph glyph-name="trademark" unicode="&#x2122;" horiz-adv-x="1620" 
d="M232 676q-20 0 -28 8t-8 28v8q0 20 8 28t28 8h38v486h-120l-16 -78q-5 -20 -14.5 -28t-29.5 -8h-6q-20 0 -28 8t-6 28l2 124q2 20 10 28t28 8h526q20 0 28 -8t10 -28l2 -124q2 -20 -6 -28t-28 -8h-6q-20 0 -29.5 8t-14.5 28l-16 78h-120v-486h38q20 0 28 -8t8 -28v-8
q0 -20 -8 -28t-28 -8h-242zM902 756q20 0 28 -8t8 -28v-8q0 -20 -8 -28t-28 -8h-150q-20 0 -28 8t-8 28v8q0 20 8 28t28 8h30v488h-30q-20 0 -28 8t-8 28v8q0 20 8 28t28 8h174q20 0 31.5 -7t20.5 -25l154 -308l154 308q9 18 20.5 25t31.5 7h166q20 0 28 -8t8 -28v-8
q0 -20 -8 -28t-28 -8h-30v-488h30q20 0 28 -8t8 -28v-8q0 -20 -8 -28t-28 -8h-226q-20 0 -28 8t-8 28v8q0 20 8 28t28 8h30v392l-148 -294q-9 -18 -20.5 -25t-31.5 -7h-32q-20 0 -31.5 7t-20.5 25l-152 306v-404h30z" />
    <glyph glyph-name="infinity" unicode="&#x221e;" horiz-adv-x="1498" 
d="M1408 512q0 -69 -23 -126t-65 -97.5t-101 -62.5t-131 -22q-62 0 -114 15.5t-96 42t-82 60.5t-72 72q-29 -39 -63 -73.5t-74.5 -60.5t-88 -41t-104.5 -15q-68 0 -124 22t-96 61.5t-62 95t-22 123.5q0 69 23 125.5t65 97t101 63t131 22.5q62 0 114 -15.5t96 -42t81.5 -61
t72.5 -71.5q30 40 64 74.5t74 60t87.5 40.5t104.5 15q68 0 124 -22t96 -61.5t62 -95.5t22 -123zM840 552q30 -35 60 -65.5t61.5 -54t66.5 -37t76 -13.5q71 0 112.5 42t41.5 116q0 40 -12.5 72.5t-35 55.5t-53 35.5t-67.5 12.5q-74 0 -135 -45t-115 -119zM240 478
q0 -40 12.5 -72.5t35 -55.5t53 -35.5t67.5 -12.5q74 0 135 45t115 119l-60 65t-61.5 54.5t-67 37t-75.5 13.5q-71 0 -112.5 -42t-41.5 -116z" />
    <glyph glyph-name="mu" unicode="&#xb5;" horiz-adv-x="1262" 
d="M224 -400q-20 0 -28 8t-8 28v1214l-96 6q-20 2 -28 10t-8 28v48q0 20 8 28.5t28 9.5l352 12q36 3 36 -34v-594q0 -44 6.5 -80t23 -62.5t43 -41t67.5 -14.5q45 0 89 18t85 66v600l-96 6q-20 2 -28 10t-8 28v48q0 20 8 28.5t28 9.5l352 12q36 3 36 -34v-824h84q20 0 28 -8
t8 -28v-62q0 -20 -8 -28t-28 -8h-326q-20 0 -28 8t-8 28v92q-17 -29 -38 -55.5t-48 -47t-61.5 -33t-80.5 -12.5q-45 0 -75 12.5t-51 27.5q8 -24 17 -80.5t9 -151.5v-152q0 -20 -8 -28t-28 -8h-220z" />
    <glyph glyph-name="partialdiff" unicode="&#x2202;" horiz-adv-x="1150" 
d="M754 836q-23 47 -48 83.5t-54 68.5q-81 91 -180 151t-226 87q-17 5 -23.5 11.5t-6.5 20.5q0 3 0.5 8.5t3.5 23.5l4 20q3 17 11 24.5t25 7.5h6q175 -14 309 -71.5t241 -152.5q66 -58 117 -128.5t86 -150t53 -166t18 -175.5q0 -124 -35 -220.5t-101.5 -162.5t-163 -100.5
t-220.5 -34.5q-125 0 -220.5 34.5t-160 95.5t-97 145t-32.5 183q0 94 30 177t90.5 144.5t152.5 97t217 35.5q56 0 108 -10.5t96 -45.5zM576 766q-54 0 -94 -23t-67 -66t-40 -103.5t-13 -135.5t13 -135.5t40 -103.5t67 -66t94 -23t94 23t67 66t40 103.5t13 135.5t-13 135.5
t-40 103.5t-67 66t-94 23z" />
    <glyph glyph-name="summation" unicode="&#x2211;" horiz-adv-x="1178" 
d="M754 812q14 -15 19 -29.5t5 -34.5v-70q0 -20 -6 -34t-20 -28l-392 -388h540l22 114q5 20 14.5 28t29.5 8h72q20 0 28 -8t6 -28l-10 -306q-2 -20 -10 -28t-28 -8h-928q-20 0 -28 8t-8 28v70q0 20 6 34t20 28l448 456l-450 530q-14 15 -19 29.5t-5 34.5v70q0 20 8 28t28 8
h906q20 0 28 -8t10 -28l8 -278q2 -20 -6 -28t-28 -8h-72q-20 0 -29.5 8t-14.5 28l-38 164h-420z" />
    <glyph glyph-name="product" unicode="&#x220f;" horiz-adv-x="1456" 
d="M868 0q-20 0 -28 8t-8 28v70q0 20 8 28t28 8h84v1030h-448v-1030h86q20 0 28 -8t8 -28v-70q0 -20 -8 -28t-28 -8h-480q-20 0 -28 8t-8 28v70q0 20 8 28t28 8h86v1040h-86q-20 0 -28 8t-8 28v70q0 20 8 28t28 8h1236q20 0 28 -8t8 -28v-70q0 -20 -8 -28t-28 -8h-86v-1040
h86q20 0 28 -8t8 -28v-70q0 -20 -8 -28t-28 -8h-478z" />
    <glyph glyph-name="pi" unicode="&#x3c0;" horiz-adv-x="1358" 
d="M864 846h-250v-462q0 -107 -28 -183.5t-79 -125.5t-121 -72t-154 -23q-130 0 -193 48.5t-63 129.5q0 57 30.5 95.5t95.5 38.5q51 0 84.5 -27t33.5 -81q0 -65 -56 -94q8 -5 17.5 -6.5t18.5 -1.5q28 0 51 13t38.5 43t24 77.5t8.5 116.5v514h-108q-20 0 -28 8t-8 28v62
q0 20 8 28t28 8h1046q20 0 28 -8t8 -28v-62q0 -20 -8 -28t-28 -8h-104v-712h106q20 0 28 -8t8 -28v-62q0 -20 -8 -28t-28 -8h-362q-20 0 -28 8t-8 28v810z" />
    <glyph glyph-name="integral" unicode="&#x222b;" horiz-adv-x="1128" 
d="M232 -306q31 0 59.5 11.5t50 40.5t34 79.5t12.5 128.5v1034q0 130 32 226.5t87 160t128.5 94.5t156.5 31q152 0 231 -55t79 -149q0 -28 -9.5 -54t-27 -46.5t-42 -33t-55.5 -12.5t-55.5 9.5t-42 26t-27 38t-9.5 46.5q0 76 66 106q-30 12 -64 12q-32 0 -60 -11.5
t-49.5 -40.5t-34 -79.5t-12.5 -128.5v-1034q0 -131 -32 -227t-87 -159.5t-128.5 -94.5t-156.5 -31q-152 0 -231 55t-79 149q0 28 9.5 54t27 46.5t42 33t55.5 12.5t55.5 -9.5t42 -26t27 -38t9.5 -46.5q0 -38 -17 -64.5t-49 -41.5q30 -12 64 -12z" />
    <glyph glyph-name="Omega" unicode="&#x2126;" horiz-adv-x="1436" 
d="M652 36q0 -20 -8 -28t-28 -8h-492q-20 0 -28 8t-10 28l-10 258q-2 20 7 28t27 8h64q20 0 29.5 -8t14.5 -28l22 -110h240v92q-91 31 -165.5 85t-128 124t-83 153t-29.5 174q0 97 36 192t113.5 170.5t199.5 122.5t295 47q115 0 207.5 -21.5t164 -59t123 -88.5t84.5 -110.5
t49 -124t16 -128.5q0 -91 -29.5 -174t-83 -153t-128 -124t-165.5 -85v-92h240l22 110q5 20 14.5 28t29.5 8h64q18 0 27 -8t7 -28l-10 -258q-2 -20 -10 -28t-28 -8h-492q-20 0 -28 8t-8 28v292q0 23 7 33t27 19q53 22 95 65t71 100t44.5 126.5t15.5 146.5q0 70 -15 137
t-52.5 119.5t-100.5 84t-158 31.5t-158 -31.5t-100.5 -84t-52.5 -119.5t-15 -137q0 -77 15.5 -146.5t44.5 -126.5t71 -100t95 -65q20 -9 27 -19t7 -33v-292z" />
    <glyph glyph-name="logicalnot" unicode="&#xac;" 
d="M134 414q-20 0 -28 8t-8 28v84q0 20 8 28t28 8h874q20 0 28 -8t8 -28v-498q0 -20 -8 -28t-28 -8h-96q-20 0 -28 8t-8 28v378h-742z" />
    <glyph glyph-name="radical" unicode="&#x221a;" horiz-adv-x="1280" 
d="M1060 1446q6 18 16 26t28 8h94q14 0 22 -4.5t8 -15.5q0 -3 -1 -7.5t-7 -24.5l-438 -1394q-9 -34 -46 -34h-206q-37 0 -48 34l-288 822h-148q-20 0 -28 8t-8 28v52q0 20 8 28t28 8h394q37 0 46 -34l216 -672l358 1172v0z" />
    <glyph glyph-name="Delta" unicode="&#x2206;" horiz-adv-x="1336" 
d="M106 0q-20 0 -28 8t-8 28v158q0 37 12 70q47 124 104 257l119 266l126.5 261l126.5 244q9 18 20.5 25t31.5 7h136q20 0 31.5 -7t22.5 -25l76.5 -148l82.5 -170.5l84.5 -183.5l81.5 -186t72.5 -179t58.5 -161q5 -15 7.5 -33t2.5 -35v-160q0 -20 -8 -28t-28 -8h-1124z
M946 230q-35 103 -77 212l-85.5 213l-86 197.5t-79.5 167.5l-87 -172l-92 -194.5t-89.5 -209t-79.5 -214.5h676z" />
    <glyph glyph-name="divide" unicode="&#xf7;" 
d="M736 856q0 -29 -10 -54t-28 -43.5t-44.5 -29.5t-59.5 -11t-59.5 11t-44.5 29.5t-28 43.5t-10 54q0 28 10 53.5t28 44t44.5 29.5t59.5 11t59.5 -11t44.5 -29.5t28 -44t10 -53.5zM134 414q-20 0 -28 8t-8 28v84q0 20 8 28t28 8h908q20 0 28 -8t8 -28v-84q0 -20 -8 -28
t-28 -8h-908zM736 124q0 -29 -10 -54t-28 -43.5t-44.5 -29.5t-59.5 -11t-59.5 11t-44.5 29.5t-28 43.5t-10 54q0 28 10 53.5t28 44t44.5 29.5t59.5 11t59.5 -11t44.5 -29.5t28 -44t10 -53.5z" />
    <glyph glyph-name="lozenge" unicode="&#x25ca;" horiz-adv-x="1320" 
d="M778 1324q20 0 32.5 -6.5t21.5 -23.5l422 -700q18 -30 18 -66v-134q0 -36 -18 -66l-422 -698q-9 -17 -21.5 -23.5t-32.5 -6.5h-236q-20 0 -32.5 6.5t-21.5 23.5l-422 700q-18 30 -18 66v134q0 36 18 66l422 698q9 17 21.5 23.5t32.5 6.5h236zM1078 352l-476 816
l-360 -596l476 -816z" />
    <glyph glyph-name="grave" unicode="`" horiz-adv-x="688" 
d="M522 1180q16 -16 16 -28q0 -11 -10 -24l-26 -34q-11 -14 -26 -14q-10 0 -26 8l-356 188q-14 8 -18 13t-4 13q0 9 10 22l104 140q9 12 14.5 15t11.5 3q12 0 24 -12z" />
    <glyph glyph-name="acute" unicode="&#xb4;" horiz-adv-x="688" 
d="M236 1086q-12 -6 -24 -6q-8 0 -15 3.5t-15 14.5l-20 28q-6 9 -9 14.5t-3 11.5q0 12 16 28l286 290q8 8 13 10t11 2t12 -2.5t12 -11.5l106 -146q10 -13 10 -20q0 -14 -20 -24z" />
    <glyph glyph-name="dieresis" unicode="&#xa8;" horiz-adv-x="896" 
d="M776 1260q0 -29 -10 -54t-28 -43.5t-44.5 -29.5t-59.5 -11t-59.5 11t-44.5 29.5t-28 43.5t-10 54q0 28 10 53.5t28 44t44.5 29.5t59.5 11t59.5 -11t44.5 -29.5t28 -44t10 -53.5zM404 1260q0 -29 -10 -54t-28 -43.5t-44.5 -29.5t-59.5 -11t-59.5 11t-44.5 29.5t-28 43.5
t-10 54q0 28 10 53.5t28 44t44.5 29.5t59.5 11t59.5 -11t44.5 -29.5t28 -44t10 -53.5z" />
    <glyph glyph-name="circumflex" unicode="&#x2c6;" horiz-adv-x="844" 
d="M714 1208q14 -11 17 -16.5t3 -13.5q0 -10 -12 -28l-14 -22q-8 -12 -14.5 -18t-15.5 -6q-3 0 -8 0.5t-16 5.5l-232 94l-232 -94q-11 -5 -16 -5.5t-8 -0.5q-9 0 -15.5 6t-14.5 18l-14 22q-12 18 -12 28q0 8 3 13.5t17 16.5l264 214q15 12 28 12t28 -12l264 -214v0z" />
    <glyph glyph-name="tilde" unicode="&#x2dc;" horiz-adv-x="868" 
d="M114 1210q13 31 32 62.5t45.5 57t60.5 42t76 16.5q39 0 70 -13.5t58.5 -29.5t54 -29.5t57.5 -13.5q24 0 45.5 11t42.5 37q15 18 28 18q6 0 10.5 -2t15.5 -8l28 -16q22 -14 22 -32q0 -7 -6 -22q-12 -29 -31 -60.5t-46 -57t-61 -42t-76 -16.5q-39 0 -70 13.5t-58.5 29.5
t-54 29.5t-57.5 13.5q-24 0 -44.5 -11t-41.5 -37q-15 -18 -28 -18q-6 0 -10.5 2t-15.5 8l-28 16q-14 8 -19 14.5t-5 15.5q0 7 6 22z" />
    <glyph glyph-name="macron" unicode="&#xaf;" horiz-adv-x="776" 
d="M612 1314q20 0 28 -8t8 -28v-104q0 -20 -8 -28t-28 -8h-448q-20 0 -28 8t-8 28v104q0 20 8 28t28 8h448z" />
    <glyph glyph-name="breve" unicode="&#x2d8;" horiz-adv-x="816" 
d="M408 1106q-54 0 -101 17.5t-85 47.5t-65.5 69.5t-42.5 83.5q-5 14 -6.5 20t-1.5 12q0 20 24 32l36 16q11 5 15 5.5t9 0.5q16 0 30 -22q18 -26 41 -44.5t48.5 -30.5t50.5 -17.5t48 -5.5q22 0 47.5 5.5t51 17.5t48.5 30.5t41 44.5q14 22 30 22q5 0 9 -0.5t15 -5.5l36 -16
q24 -12 24 -32q0 -6 -1.5 -12t-6.5 -20q-15 -44 -42.5 -83.5t-65.5 -69.5t-85 -47.5t-101 -17.5z" />
    <glyph glyph-name="dotaccent" unicode="&#x2d9;" horiz-adv-x="484" 
d="M398 1276q0 -32 -11 -60t-31.5 -49t-49.5 -33t-64 -12t-64 12t-49.5 33t-31.5 49t-11 60q0 31 11 59t31.5 48.5t49.5 32.5t64 12t64 -12t49.5 -32.5t31.5 -48.5t11 -59z" />
    <glyph glyph-name="ring" unicode="&#x2da;" horiz-adv-x="704" 
d="M604 1312q0 -56 -20 -101.5t-54.5 -78t-80 -50.5t-97.5 -18t-97.5 18t-80 50.5t-54.5 78t-20 101.5q0 55 20 101t54.5 78.5t80 50.5t97.5 18t97.5 -18t80 -50.5t54.5 -78.5t20 -101zM234 1312q0 -56 33.5 -89t84.5 -33t84.5 33t33.5 89t-33.5 89t-84.5 33t-84.5 -33
t-33.5 -89z" />
    <glyph glyph-name="cedilla" unicode="&#xb8;" horiz-adv-x="656" 
d="M540 -246q0 -44 -18 -76.5t-49.5 -54t-75 -32.5t-95.5 -11t-93 11.5t-69.5 30.5t-44 44t-15.5 52q0 30 20.5 54t53.5 24q29 0 50.5 -18.5t21.5 -45.5q0 -18 -9 -32.5t-23 -25.5q18 -12 38.5 -17t41.5 -5q56 0 80 22.5t24 57.5q0 47 -44 72.5t-118 39.5q-36 6 -20 38
l56 118h94l-34 -70q43 -2 84 -13t73 -32.5t51.5 -54t19.5 -76.5z" />
    <glyph glyph-name="hungarumlaut" unicode="&#x2dd;" horiz-adv-x="942" 
d="M578 1086q-16 -16 -30 -16q-10 0 -28 12l-20 14q-14 9 -18 16t-4 16q0 10 6 22l148 306q9 20 24 20q9 0 22 -10l134 -98q11 -8 13.5 -13.5t2.5 -10.5q0 -12 -12 -24zM210 1086q-16 -16 -30 -16q-10 0 -28 12l-20 14q-14 9 -18 16t-4 16q0 10 6 22l148 306q9 20 24 20
q9 0 22 -10l134 -98q11 -8 13.5 -13.5t2.5 -10.5q0 -12 -12 -24z" />
    <glyph glyph-name="ogonek" unicode="&#x2db;" horiz-adv-x="624" 
d="M92 -250q0 68 45.5 132t120.5 118h104q-24 -32 -41.5 -57.5t-28.5 -48t-16.5 -44t-5.5 -44.5q0 -53 24.5 -77.5t71.5 -24.5q42 0 80 16q20 8 30.5 5.5t19.5 -17.5l8 -14q9 -15 8 -29t-16 -25q-38 -29 -86.5 -44.5t-105.5 -15.5q-44 0 -83 12t-67.5 34t-45 53.5
t-16.5 70.5z" />
    <glyph glyph-name="caron" unicode="&#x2c7;" horiz-adv-x="844" 
d="M450 1118q-15 -12 -28 -12t-28 12l-264 214q-14 11 -17 16.5t-3 13.5q0 10 12 28l14 22q8 12 14.5 18t15.5 6q3 0 8 -0.5t16 -5.5l232 -94l232 94q11 5 16 5.5t8 0.5q9 0 15.5 -6t14.5 -18l14 -22q12 -18 12 -28q0 -8 -3 -13.5t-17 -16.5z" />
    <glyph glyph-name="uni0326" unicode="&#x326;" horiz-adv-x="442" 
d="M174 -430q-18 -12 -27.5 -16t-18.5 -4q-8 0 -15.5 3.5t-18.5 14.5l-4 4q-8 8 -11 12t-3 12t5 14t13 14l38.5 38t35.5 42q-39 15 -62.5 45t-23.5 69q0 23 8.5 45t26 39t43 27.5t60.5 10.5q66 0 104 -39t38 -99q0 -37 -18.5 -70.5t-46.5 -63.5t-61 -54.5t-62 -43.5z" />
    <glyph glyph-name="uni0312" unicode="&#x312;" horiz-adv-x="442" 
d="M274 1358q39 -15 62.5 -45t23.5 -69q0 -23 -8.5 -45t-26 -39t-43.5 -27.5t-60 -10.5q-66 0 -104 39t-38 99q0 37 18.5 72.5t47 68t62.5 60t64 47.5q18 12 27 16t15 4t11 -2t13 -10l14 -14q9 -9 11.5 -13.5t2.5 -10.5q0 -10 -14 -24q-23 -23 -41.5 -46t-36.5 -50z" />
    <glyph glyph-name="uni0315" unicode="&#x315;" horiz-adv-x="474" 
d="M216 1054q-6 -14 -12 -21t-18 -7q-3 0 -6.5 0.5t-15.5 3.5l-22 6q-17 5 -23.5 13t-6.5 23v7.5t2 24.5l34 348q2 17 9 23.5t21 6.5q4 0 11.5 -1t34.5 -7l110 -22q30 -6 30 -24q0 -5 -1 -9t-3 -9z" />
    <glyph glyph-name="grave.case" horiz-adv-x="688" 
d="M512 1510q16 -16 16 -28q0 -11 -10 -24l-26 -34q-11 -14 -26 -14q-10 0 -26 8l-356 188q-14 8 -18 13t-4 13q0 9 10 22l104 140q9 12 14.5 15t11.5 3q12 0 24 -12z" />
    <glyph glyph-name="acute.case" horiz-adv-x="688" 
d="M262 1416q-12 -6 -24 -6q-8 0 -15 3.5t-15 14.5l-20 28q-6 9 -9 14.5t-3 11.5q0 12 16 28l286 290q8 8 13 10t11 2t12 -2.5t12 -11.5l106 -146q10 -13 10 -20q0 -14 -20 -24z" />
    <glyph glyph-name="dieresis.case" horiz-adv-x="896" 
d="M796 1590q0 -29 -10 -54t-28 -43.5t-44.5 -29.5t-59.5 -11t-59.5 11t-44.5 29.5t-28 43.5t-10 54q0 28 10 53.5t28 44t44.5 29.5t59.5 11t59.5 -11t44.5 -29.5t28 -44t10 -53.5zM384 1590q0 -29 -10 -54t-28 -43.5t-44.5 -29.5t-59.5 -11t-59.5 11t-44.5 29.5t-28 43.5
t-10 54q0 28 10 53.5t28 44t44.5 29.5t59.5 11t59.5 -11t44.5 -29.5t28 -44t10 -53.5z" />
    <glyph glyph-name="circumflex.case" horiz-adv-x="844" 
d="M714 1538q14 -11 17 -16.5t3 -13.5q0 -10 -12 -28l-14 -22q-8 -12 -14.5 -18t-15.5 -6q-3 0 -8 0.5t-16 5.5l-232 94l-232 -94q-11 -5 -16 -5.5t-8 -0.5q-9 0 -15.5 6t-14.5 18l-14 22q-12 18 -12 28q0 8 3 13.5t17 16.5l264 214q15 12 28 12t28 -12l264 -214v0z" />
    <glyph glyph-name="tilde.case" horiz-adv-x="868" 
d="M114 1540q13 31 32 62.5t45.5 57t60.5 42t76 16.5q39 0 70 -13.5t58.5 -29.5t54 -29.5t57.5 -13.5q24 0 45.5 11t42.5 37q15 18 28 18q6 0 10.5 -2t15.5 -8l28 -16q22 -14 22 -32q0 -7 -6 -22q-12 -29 -31 -60.5t-46 -57t-61 -42t-76 -16.5q-39 0 -70 13.5t-58.5 29.5
t-54 29.5t-57.5 13.5q-24 0 -44.5 -11t-41.5 -37q-15 -18 -28 -18q-6 0 -10.5 2t-15.5 8l-28 16q-14 8 -19 14.5t-5 15.5q0 7 6 22z" />
    <glyph glyph-name="macron.case" horiz-adv-x="776" 
d="M612 1648q20 0 28 -8t8 -28v-104q0 -20 -8 -28t-28 -8h-448q-20 0 -28 8t-8 28v104q0 20 8 28t28 8h448z" />
    <glyph glyph-name="breve.case" horiz-adv-x="816" 
d="M408 1436q-54 0 -101 17.5t-85 47.5t-65.5 69.5t-42.5 83.5q-5 14 -6.5 20t-1.5 12q0 20 24 32l36 16q11 5 15 5.5t9 0.5q16 0 30 -22q18 -26 41 -44.5t48.5 -30.5t50.5 -17.5t48 -5.5q22 0 47.5 5.5t51 17.5t48.5 30.5t41 44.5q14 22 30 22q5 0 9 -0.5t15 -5.5l36 -16
q24 -12 24 -32q0 -6 -1.5 -12t-6.5 -20q-15 -44 -42.5 -83.5t-65.5 -69.5t-85 -47.5t-101 -17.5z" />
    <glyph glyph-name="dotaccent.case" horiz-adv-x="484" 
d="M398 1606q0 -32 -11 -60t-31.5 -49t-49.5 -33t-64 -12t-64 12t-49.5 33t-31.5 49t-11 60q0 31 11 59t31.5 48.5t49.5 32.5t64 12t64 -12t49.5 -32.5t31.5 -48.5t11 -59z" />
    <glyph glyph-name="ring.case" horiz-adv-x="704" 
d="M604 1642q0 -56 -20 -101.5t-54.5 -78t-80 -50.5t-97.5 -18t-97.5 18t-80 50.5t-54.5 78t-20 101.5q0 55 20 101t54.5 78.5t80 50.5t97.5 18t97.5 -18t80 -50.5t54.5 -78.5t20 -101zM234 1642q0 -56 33.5 -89t84.5 -33t84.5 33t33.5 89t-33.5 89t-84.5 33t-84.5 -33
t-33.5 -89z" />
    <glyph glyph-name="hungarumlaut.case" horiz-adv-x="942" 
d="M578 1416q-16 -16 -30 -16q-10 0 -28 12l-20 14q-14 9 -18 16t-4 16q0 10 6 22l148 306q9 20 24 20q9 0 22 -10l134 -98q11 -8 13.5 -13.5t2.5 -10.5q0 -12 -12 -24zM210 1416q-16 -16 -30 -16q-10 0 -28 12l-20 14q-14 9 -18 16t-4 16q0 10 6 22l148 306q9 20 24 20
q9 0 22 -10l134 -98q11 -8 13.5 -13.5t2.5 -10.5q0 -12 -12 -24z" />
    <glyph glyph-name="caron.case" horiz-adv-x="844" 
d="M450 1448q-15 -12 -28 -12t-28 12l-264 214q-14 11 -17 16.5t-3 13.5q0 10 12 28l14 22q8 12 14.5 18t15.5 6q3 0 8 -0.5t16 -5.5l232 -94l232 94q11 5 16 5.5t8 0.5q9 0 15.5 -6t14.5 -18l14 -22q12 -18 12 -28q0 -8 -3 -13.5t-17 -16.5z" />
    <glyph glyph-name="Adieresis" unicode="&#xc4;" horiz-adv-x="1392" 
d="M822 500l-91.5 262l-94.5 250l-95 -250t-91 -262h372zM482 36q0 -20 -8 -28t-28 -8h-392q-20 0 -28 8t-8 28v70q0 20 8 28t28 8h88q45 151 97 305t108 301.5t114 285.5t115 258q9 18 20.5 25t31.5 7h136q20 0 31.5 -7t20.5 -25q57 -120 115 -258t114 -285.5t108 -301.5
t97 -305h88q20 0 28 -8t8 -28v-70q0 -20 -8 -28t-28 -8h-512q-20 0 -28 8t-8 28v70q0 20 8 28t28 8h104l-30 107.5t-32 106.5h-464q-17 -53 -32.5 -106.5t-29.5 -107.5h104q20 0 28 -8t8 -28v-70zM1038 1590q0 -29 -10 -54t-28 -43.5t-44.5 -29.5t-59.5 -11t-59.5 11
t-44.5 29.5t-28 43.5t-10 54q0 28 10 53.5t28 44t44.5 29.5t59.5 11t59.5 -11t44.5 -29.5t28 -44t10 -53.5zM626 1590q0 -29 -10 -54t-28 -43.5t-44.5 -29.5t-59.5 -11t-59.5 11t-44.5 29.5t-28 43.5t-10 54q0 28 10 53.5t28 44t44.5 29.5t59.5 11t59.5 -11t44.5 -29.5
t28 -44t10 -53.5z" />
    <glyph glyph-name="Aring" unicode="&#xc5;" horiz-adv-x="1392" 
d="M578 1446q0 -56 33.5 -89t84.5 -33t84.5 33t33.5 89t-33.5 89t-84.5 33t-84.5 -33t-33.5 -89zM824 500q-45 139 -92.5 272l-95.5 260l-97.5 -260t-92.5 -272h378zM826 0q-20 0 -28 8t-8 28v70q0 20 8 28t28 8h104l-60 214h-470l-30.5 -107t-29.5 -107h106q20 0 28 -8
t8 -28v-70q0 -20 -8 -28t-28 -8h-392q-20 0 -28 8t-8 28v70q0 20 8 28t28 8h88q42 143 91 288.5t101.5 286t107.5 273t110 250.5q-50 32 -79 84.5t-29 121.5q0 55 20 101t54.5 78.5t80 50.5t97.5 18t97.5 -18t80 -50.5t54.5 -78.5t20 -101q0 -69 -30 -121.5t-78 -84.5
l109 -251.5t107.5 -273t101.5 -285.5t92 -288h88q20 0 28 -8t8 -28v-70q0 -20 -8 -28t-28 -8h-512z" />
    <glyph glyph-name="Agrave" unicode="&#xc0;" horiz-adv-x="1392" 
d="M822 500l-91.5 262l-94.5 250l-95 -250t-91 -262h372zM482 36q0 -20 -8 -28t-28 -8h-392q-20 0 -28 8t-8 28v70q0 20 8 28t28 8h88q45 151 97 305t108 301.5t114 285.5t115 258q9 18 20.5 25t31.5 7h136q20 0 31.5 -7t20.5 -25q57 -120 115 -258t114 -285.5t108 -301.5
t97 -305h88q20 0 28 -8t8 -28v-70q0 -20 -8 -28t-28 -8h-512q-20 0 -28 8t-8 28v70q0 20 8 28t28 8h104l-30 107.5t-32 106.5h-464q-17 -53 -32.5 -106.5t-29.5 -107.5h104q20 0 28 -8t8 -28v-70zM850 1510q16 -16 16 -28q0 -11 -10 -24l-26 -34q-11 -14 -26 -14
q-10 0 -26 8l-356 188q-14 8 -18 13t-4 13q0 9 10 22l104 140q9 12 14.5 15t11.5 3q12 0 24 -12z" />
    <glyph glyph-name="Atilde" unicode="&#xc3;" horiz-adv-x="1392" 
d="M822 500l-91.5 262l-94.5 250l-95 -250t-91 -262h372zM482 36q0 -20 -8 -28t-28 -8h-392q-20 0 -28 8t-8 28v70q0 20 8 28t28 8h88q45 151 97 305t108 301.5t114 285.5t115 258q9 18 20.5 25t31.5 7h136q20 0 31.5 -7t20.5 -25q57 -120 115 -258t114 -285.5t108 -301.5
t97 -305h88q20 0 28 -8t8 -28v-70q0 -20 -8 -28t-28 -8h-512q-20 0 -28 8t-8 28v70q0 20 8 28t28 8h104l-30 107.5t-32 106.5h-464q-17 -53 -32.5 -106.5t-29.5 -107.5h104q20 0 28 -8t8 -28v-70zM376 1540q13 31 32 62.5t45.5 57t60.5 42t76 16.5q39 0 70 -13.5t58.5 -29.5
t54 -29.5t57.5 -13.5q24 0 45.5 11t42.5 37q15 18 28 18q6 0 10.5 -2t15.5 -8l28 -16q22 -14 22 -32q0 -7 -6 -22q-12 -29 -31 -60.5t-46 -57t-61 -42t-76 -16.5q-39 0 -70 13.5t-58.5 29.5t-54 29.5t-57.5 13.5q-24 0 -44.5 -11t-41.5 -37q-15 -18 -28 -18q-6 0 -10.5 2
t-15.5 8l-28 16q-14 8 -19 14.5t-5 15.5q0 7 6 22z" />
    <glyph glyph-name="Acircumflex" unicode="&#xc2;" horiz-adv-x="1392" 
d="M822 500l-91.5 262l-94.5 250l-95 -250t-91 -262h372zM482 36q0 -20 -8 -28t-28 -8h-392q-20 0 -28 8t-8 28v70q0 20 8 28t28 8h88q45 151 97 305t108 301.5t114 285.5t115 258q9 18 20.5 25t31.5 7h136q20 0 31.5 -7t20.5 -25q57 -120 115 -258t114 -285.5t108 -301.5
t97 -305h88q20 0 28 -8t8 -28v-70q0 -20 -8 -28t-28 -8h-512q-20 0 -28 8t-8 28v70q0 20 8 28t28 8h104l-30 107.5t-32 106.5h-464q-17 -53 -32.5 -106.5t-29.5 -107.5h104q20 0 28 -8t8 -28v-70zM988 1538q14 -11 17 -16.5t3 -13.5q0 -10 -12 -28l-14 -22q-8 -12 -14.5 -18
t-15.5 -6q-3 0 -8 0.5t-16 5.5l-232 94l-232 -94q-11 -5 -16 -5.5t-8 -0.5q-9 0 -15.5 6t-14.5 18l-14 22q-12 18 -12 28q0 8 3 13.5t17 16.5l264 214q15 12 28 12t28 -12l264 -214v0z" />
    <glyph glyph-name="Aacute" unicode="&#xc1;" horiz-adv-x="1392" 
d="M822 500l-91.5 262l-94.5 250l-95 -250t-91 -262h372zM482 36q0 -20 -8 -28t-28 -8h-392q-20 0 -28 8t-8 28v70q0 20 8 28t28 8h88q45 151 97 305t108 301.5t114 285.5t115 258q9 18 20.5 25t31.5 7h136q20 0 31.5 -7t20.5 -25q57 -120 115 -258t114 -285.5t108 -301.5
t97 -305h88q20 0 28 -8t8 -28v-70q0 -20 -8 -28t-28 -8h-512q-20 0 -28 8t-8 28v70q0 20 8 28t28 8h104l-30 107.5t-32 106.5h-464q-17 -53 -32.5 -106.5t-29.5 -107.5h104q20 0 28 -8t8 -28v-70zM612 1416q-12 -6 -24 -6q-8 0 -15 3.5t-15 14.5l-20 28q-6 9 -9 14.5
t-3 11.5q0 12 16 28l286 290q8 8 13 10t11 2t12 -2.5t12 -11.5l106 -146q10 -13 10 -20q0 -14 -20 -24z" />
    <glyph glyph-name="Abreve" unicode="&#x102;" horiz-adv-x="1392" 
d="M822 500l-91.5 262l-94.5 250l-95 -250t-91 -262h372zM482 36q0 -20 -8 -28t-28 -8h-392q-20 0 -28 8t-8 28v70q0 20 8 28t28 8h88q45 151 97 305t108 301.5t114 285.5t115 258q9 18 20.5 25t31.5 7h136q20 0 31.5 -7t20.5 -25q57 -120 115 -258t114 -285.5t108 -301.5
t97 -305h88q20 0 28 -8t8 -28v-70q0 -20 -8 -28t-28 -8h-512q-20 0 -28 8t-8 28v70q0 20 8 28t28 8h104l-30 107.5t-32 106.5h-464q-17 -53 -32.5 -106.5t-29.5 -107.5h104q20 0 28 -8t8 -28v-70zM696 1436q-54 0 -101 17.5t-85 47.5t-65.5 69.5t-42.5 83.5q-5 14 -6.5 20
t-1.5 12q0 20 24 32l36 16q11 5 15 5.5t9 0.5q16 0 30 -22q18 -26 41 -44.5t48.5 -30.5t50.5 -17.5t48 -5.5q22 0 47.5 5.5t51 17.5t48.5 30.5t41 44.5q14 22 30 22q5 0 9 -0.5t15 -5.5l36 -16q24 -12 24 -32q0 -6 -1.5 -12t-6.5 -20q-15 -44 -42.5 -83.5t-65.5 -69.5
t-85 -47.5t-101 -17.5z" />
    <glyph glyph-name="Amacron" unicode="&#x100;" horiz-adv-x="1392" 
d="M822 500l-91.5 262l-94.5 250l-95 -250t-91 -262h372zM482 36q0 -20 -8 -28t-28 -8h-392q-20 0 -28 8t-8 28v70q0 20 8 28t28 8h88q45 151 97 305t108 301.5t114 285.5t115 258q9 18 20.5 25t31.5 7h136q20 0 31.5 -7t20.5 -25q57 -120 115 -258t114 -285.5t108 -301.5
t97 -305h88q20 0 28 -8t8 -28v-70q0 -20 -8 -28t-28 -8h-512q-20 0 -28 8t-8 28v70q0 20 8 28t28 8h104l-30 107.5t-32 106.5h-464q-17 -53 -32.5 -106.5t-29.5 -107.5h104q20 0 28 -8t8 -28v-70zM920 1648q20 0 28 -8t8 -28v-104q0 -20 -8 -28t-28 -8h-448q-20 0 -28 8
t-8 28v104q0 20 8 28t28 8h448z" />
    <glyph glyph-name="Aogonek" unicode="&#x104;" horiz-adv-x="1392" 
d="M822 500l-91.5 262l-94.5 250l-95 -250t-91 -262h372zM1098 -420q-44 0 -83 12t-67.5 34t-45 53.5t-16.5 70.5q0 68 45.5 132t120.5 118h-226q-20 0 -28 8t-8 28v70q0 20 8 28t28 8h104l-30 107.5t-32 106.5h-464q-17 -53 -32.5 -106.5t-29.5 -107.5h104q20 0 28 -8
t8 -28v-70q0 -20 -8 -28t-28 -8h-392q-20 0 -28 8t-8 28v70q0 20 8 28t28 8h88q45 151 97 305t108 301.5t114 285.5t115 258q9 18 20.5 25t31.5 7h136q20 0 31.5 -7t20.5 -25q57 -120 115 -258t114 -285.5t108 -301.5t97 -305h88q20 0 28 -8t8 -28v-70q0 -20 -8 -28t-28 -8
h-182q-24 -32 -41.5 -57.5t-28.5 -48t-16.5 -44t-5.5 -44.5q0 -53 24.5 -77.5t71.5 -24.5q42 0 80 16q20 8 30.5 5.5t19.5 -17.5l8 -14q9 -15 8 -29t-16 -25q-38 -29 -86.5 -44.5t-105.5 -15.5z" />
    <glyph glyph-name="AE" unicode="&#xc6;" horiz-adv-x="1850" 
d="M884 1174l-221.5 -360t-174.5 -314h396v674zM42 0q-20 0 -28 8t-8 28v70q0 20 8 28t28 8h80l134 271.5l143.5 269l148.5 258.5l148 241h-108q-20 0 -28 8t-8 28v70q0 20 8 28t28 8h1116q20 0 28 -8t10 -28l8 -278q2 -20 -6 -28t-28 -8h-72q-20 0 -29.5 8t-14.5 28
l-38 164h-370v-432h252v112q0 20 8 28t28 8h72q20 0 28 -8t8 -28v-370q0 -20 -8 -28t-28 -8h-72q-20 0 -28 8t-8 28v114h-252v-448h392l40 192q5 20 14.5 28t29.5 8h72q20 0 28 -8t6 -28l-10 -306q-2 -20 -10 -28t-28 -8h-928q-20 0 -28 8t-8 28v70q0 20 8 28t28 8h86v214
h-464l-50.5 -108.5l-47.5 -105.5h112q20 0 28 -8t8 -28v-70q0 -20 -8 -28t-28 -8h-392z" />
    <glyph glyph-name="Ccedilla" unicode="&#xc7;" horiz-adv-x="1244" 
d="M690 -420q-52 0 -93 11.5t-69.5 30.5t-44 44t-15.5 52q0 30 20.5 54t53.5 24q29 0 50.5 -18.5t21.5 -45.5q0 -18 -9 -32.5t-23 -25.5q18 -12 38.5 -17t41.5 -5q56 0 80 22.5t24 57.5q0 47 -44 72.5t-118 39.5q-36 6 -20 38l48 100q-148 12 -255 70t-176.5 148t-103 205.5
t-33.5 242.5q0 85 15 170t48 162.5t85 144t126 115t170.5 76.5t219.5 28q109 0 191.5 -23t138 -63.5t83 -95t27.5 -116.5q0 -36 -10 -66t-28.5 -52t-45 -34t-60.5 -12q-28 0 -53 9t-44.5 26t-31 42t-11.5 57q0 80 66 122q-41 27 -90.5 39.5t-103.5 12.5q-106 0 -177.5 -42.5
t-115 -115t-62.5 -168.5t-19 -202q0 -116 21 -211.5t66.5 -163t116.5 -104.5t172 -37q89 0 162 29.5t144 80.5q15 12 26 10t20 -14l40 -56q14 -18 12.5 -34t-24.5 -36q-74 -60 -176 -100.5t-238 -45.5l-24 -50q43 -2 84 -13t73 -32.5t51.5 -54t19.5 -76.5t-18 -76.5
t-49.5 -54t-75 -32.5t-95.5 -11z" />
    <glyph glyph-name="Cacute" unicode="&#x106;" horiz-adv-x="1244" 
d="M64 648q0 85 15 170t48 162.5t85 144t126 115t170.5 76.5t219.5 28q109 0 191.5 -23t138 -63.5t83 -95t27.5 -116.5q0 -36 -10 -66t-28.5 -52t-45 -34t-60.5 -12q-28 0 -53 9t-44.5 26t-31 42t-11.5 57q0 80 66 122q-41 27 -90.5 39.5t-103.5 12.5q-106 0 -177.5 -42.5
t-115 -115t-62.5 -168.5t-19 -202q0 -116 21 -211.5t66.5 -163t116.5 -104.5t172 -37q89 0 162 29.5t144 80.5q15 12 26 10t20 -14l40 -56q14 -18 12.5 -34t-24.5 -36q-77 -63 -185.5 -104.5t-252.5 -41.5q-110 0 -200.5 25t-161 69.5t-122.5 106t-85.5 136t-50 158.5
t-16.5 173zM616 1416q-12 -6 -24 -6q-8 0 -15 3.5t-15 14.5l-20 28q-6 9 -9 14.5t-3 11.5q0 12 16 28l286 290q8 8 13 10t11 2t12 -2.5t12 -11.5l106 -146q10 -13 10 -20q0 -14 -20 -24z" />
    <glyph glyph-name="Ccaron" unicode="&#x10c;" horiz-adv-x="1244" 
d="M64 648q0 85 15 170t48 162.5t85 144t126 115t170.5 76.5t219.5 28q109 0 191.5 -23t138 -63.5t83 -95t27.5 -116.5q0 -36 -10 -66t-28.5 -52t-45 -34t-60.5 -12q-28 0 -53 9t-44.5 26t-31 42t-11.5 57q0 80 66 122q-41 27 -90.5 39.5t-103.5 12.5q-106 0 -177.5 -42.5
t-115 -115t-62.5 -168.5t-19 -202q0 -116 21 -211.5t66.5 -163t116.5 -104.5t172 -37q89 0 162 29.5t144 80.5q15 12 26 10t20 -14l40 -56q14 -18 12.5 -34t-24.5 -36q-77 -63 -185.5 -104.5t-252.5 -41.5q-110 0 -200.5 25t-161 69.5t-122.5 106t-85.5 136t-50 158.5
t-16.5 173zM728 1448q-15 -12 -28 -12t-28 12l-264 214q-14 11 -17 16.5t-3 13.5q0 10 12 28l14 22q8 12 14.5 18t15.5 6q3 0 8 -0.5t16 -5.5l232 -94l232 94q11 5 16 5.5t8 0.5q9 0 15.5 -6t14.5 -18l14 -22q12 -18 12 -28q0 -8 -3 -13.5t-17 -16.5z" />
    <glyph glyph-name="Ccircumflex" unicode="&#x108;" horiz-adv-x="1244" 
d="M64 648q0 85 15 170t48 162.5t85 144t126 115t170.5 76.5t219.5 28q109 0 191.5 -23t138 -63.5t83 -95t27.5 -116.5q0 -36 -10 -66t-28.5 -52t-45 -34t-60.5 -12q-28 0 -53 9t-44.5 26t-31 42t-11.5 57q0 80 66 122q-41 27 -90.5 39.5t-103.5 12.5q-106 0 -177.5 -42.5
t-115 -115t-62.5 -168.5t-19 -202q0 -116 21 -211.5t66.5 -163t116.5 -104.5t172 -37q89 0 162 29.5t144 80.5q15 12 26 10t20 -14l40 -56q14 -18 12.5 -34t-24.5 -36q-77 -63 -185.5 -104.5t-252.5 -41.5q-110 0 -200.5 25t-161 69.5t-122.5 106t-85.5 136t-50 158.5
t-16.5 173zM992 1538q14 -11 17 -16.5t3 -13.5q0 -10 -12 -28l-14 -22q-8 -12 -14.5 -18t-15.5 -6q-3 0 -8 0.5t-16 5.5l-232 94l-232 -94q-11 -5 -16 -5.5t-8 -0.5q-9 0 -15.5 6t-14.5 18l-14 22q-12 18 -12 28q0 8 3 13.5t17 16.5l264 214q15 12 28 12t28 -12l264 -214v0z
" />
    <glyph glyph-name="Cdotaccent" unicode="&#x10a;" horiz-adv-x="1244" 
d="M64 648q0 85 15 170t48 162.5t85 144t126 115t170.5 76.5t219.5 28q109 0 191.5 -23t138 -63.5t83 -95t27.5 -116.5q0 -36 -10 -66t-28.5 -52t-45 -34t-60.5 -12q-28 0 -53 9t-44.5 26t-31 42t-11.5 57q0 80 66 122q-41 27 -90.5 39.5t-103.5 12.5q-106 0 -177.5 -42.5
t-115 -115t-62.5 -168.5t-19 -202q0 -116 21 -211.5t66.5 -163t116.5 -104.5t172 -37q89 0 162 29.5t144 80.5q15 12 26 10t20 -14l40 -56q14 -18 12.5 -34t-24.5 -36q-77 -63 -185.5 -104.5t-252.5 -41.5q-110 0 -200.5 25t-161 69.5t-122.5 106t-85.5 136t-50 158.5
t-16.5 173zM856 1606q0 -32 -11 -60t-31.5 -49t-49.5 -33t-64 -12t-64 12t-49.5 33t-31.5 49t-11 60q0 31 11 59t31.5 48.5t49.5 32.5t64 12t64 -12t49.5 -32.5t31.5 -48.5t11 -59z" />
    <glyph glyph-name="Dcaron" unicode="&#x10e;" horiz-adv-x="1400" 
d="M110 0q-20 0 -28 8t-8 28v70q0 20 8 28t28 8h86v1040h-86q-20 0 -28 8t-8 28v70q0 20 8 28t28 8h572q151 0 272.5 -46t206 -130t130 -203.5t45.5 -266.5q0 -149 -47.5 -273.5t-134.5 -214.5t-210 -140t-274 -50h-560zM504 150h128q101 0 174 37.5t120 106.5t69.5 166.5
t22.5 217.5t-20.5 212.5t-65.5 155.5t-116 95.5t-172 32.5h-140v-1024zM680 1448q-15 -12 -28 -12t-28 12l-264 214q-14 11 -17 16.5t-3 13.5q0 10 12 28l14 22q8 12 14.5 18t15.5 6q3 0 8 -0.5t16 -5.5l232 -94l232 94q11 5 16 5.5t8 0.5q9 0 15.5 -6t14.5 -18l14 -22
q12 -18 12 -28q0 -8 -3 -13.5t-17 -16.5z" />
    <glyph glyph-name="Eth" unicode="&#xd0;" horiz-adv-x="1416" 
d="M126 0q-20 0 -28 8t-8 28v70q0 20 8 28t28 8h86v452h-126q-20 0 -28 8t-8 28v70q0 20 8 28t28 8h126v446h-86q-20 0 -28 8t-8 28v70q0 20 8 28t28 8h572q151 0 272.5 -46t206 -130t130 -203.5t45.5 -266.5q0 -149 -47.5 -273.5t-134.5 -214.5t-210 -140t-274 -50h-560z
M520 150h128q101 0 174 37.5t120 106.5t69.5 166.5t22.5 217.5t-20.5 212.5t-65.5 155.5t-116 95.5t-172 32.5h-140v-438h232q20 0 28 -8t8 -28v-70q0 -20 -8 -28t-28 -8h-232v-444z" />
    <glyph glyph-name="Dcroat" unicode="&#x110;" horiz-adv-x="1416" 
d="M126 0q-20 0 -28 8t-8 28v70q0 20 8 28t28 8h86v452h-126q-20 0 -28 8t-8 28v70q0 20 8 28t28 8h126v446h-86q-20 0 -28 8t-8 28v70q0 20 8 28t28 8h572q151 0 272.5 -46t206 -130t130 -203.5t45.5 -266.5q0 -149 -47.5 -273.5t-134.5 -214.5t-210 -140t-274 -50h-560z
M520 150h128q101 0 174 37.5t120 106.5t69.5 166.5t22.5 217.5t-20.5 212.5t-65.5 155.5t-116 95.5t-172 32.5h-140v-438h232q20 0 28 -8t8 -28v-70q0 -20 -8 -28t-28 -8h-232v-444z" />
    <glyph glyph-name="Eacute" unicode="&#xc9;" horiz-adv-x="1162" 
d="M1052 378q20 0 28 -8t6 -28l-10 -306q-2 -20 -10 -28t-28 -8h-928q-20 0 -28 8t-8 28v70q0 20 8 28t28 8h86v1040h-86q-20 0 -28 8t-8 28v70q0 20 8 28t28 8h906q20 0 28 -8t10 -28l8 -278q2 -20 -6 -28t-28 -8h-72q-20 0 -29.5 8t-14.5 28l-38 164h-370v-432h252v112
q0 20 8 28t28 8h72q20 0 28 -8t8 -28v-370q0 -20 -8 -28t-28 -8h-72q-20 0 -28 8t-8 28v114h-252v-448h392l40 192q5 20 14.5 28t29.5 8h72zM518 1416q-12 -6 -24 -6q-8 0 -15 3.5t-15 14.5l-20 28q-6 9 -9 14.5t-3 11.5q0 12 16 28l286 290q8 8 13 10t11 2t12 -2.5
t12 -11.5l106 -146q10 -13 10 -20q0 -14 -20 -24z" />
    <glyph glyph-name="Ecircumflex" unicode="&#xca;" horiz-adv-x="1162" 
d="M1052 378q20 0 28 -8t6 -28l-10 -306q-2 -20 -10 -28t-28 -8h-928q-20 0 -28 8t-8 28v70q0 20 8 28t28 8h86v1040h-86q-20 0 -28 8t-8 28v70q0 20 8 28t28 8h906q20 0 28 -8t10 -28l8 -278q2 -20 -6 -28t-28 -8h-72q-20 0 -29.5 8t-14.5 28l-38 164h-370v-432h252v112
q0 20 8 28t28 8h72q20 0 28 -8t8 -28v-370q0 -20 -8 -28t-28 -8h-72q-20 0 -28 8t-8 28v114h-252v-448h392l40 192q5 20 14.5 28t29.5 8h72zM894 1538q14 -11 17 -16.5t3 -13.5q0 -10 -12 -28l-14 -22q-8 -12 -14.5 -18t-15.5 -6q-3 0 -8 0.5t-16 5.5l-232 94l-232 -94
q-11 -5 -16 -5.5t-8 -0.5q-9 0 -15.5 6t-14.5 18l-14 22q-12 18 -12 28q0 8 3 13.5t17 16.5l264 214q15 12 28 12t28 -12l264 -214v0z" />
    <glyph glyph-name="Edieresis" unicode="&#xcb;" horiz-adv-x="1162" 
d="M1052 378q20 0 28 -8t6 -28l-10 -306q-2 -20 -10 -28t-28 -8h-928q-20 0 -28 8t-8 28v70q0 20 8 28t28 8h86v1040h-86q-20 0 -28 8t-8 28v70q0 20 8 28t28 8h906q20 0 28 -8t10 -28l8 -278q2 -20 -6 -28t-28 -8h-72q-20 0 -29.5 8t-14.5 28l-38 164h-370v-432h252v112
q0 20 8 28t28 8h72q20 0 28 -8t8 -28v-370q0 -20 -8 -28t-28 -8h-72q-20 0 -28 8t-8 28v114h-252v-448h392l40 192q5 20 14.5 28t29.5 8h72zM944 1590q0 -29 -10 -54t-28 -43.5t-44.5 -29.5t-59.5 -11t-59.5 11t-44.5 29.5t-28 43.5t-10 54q0 28 10 53.5t28 44t44.5 29.5
t59.5 11t59.5 -11t44.5 -29.5t28 -44t10 -53.5zM532 1590q0 -29 -10 -54t-28 -43.5t-44.5 -29.5t-59.5 -11t-59.5 11t-44.5 29.5t-28 43.5t-10 54q0 28 10 53.5t28 44t44.5 29.5t59.5 11t59.5 -11t44.5 -29.5t28 -44t10 -53.5z" />
    <glyph glyph-name="Egrave" unicode="&#xc8;" horiz-adv-x="1162" 
d="M1052 378q20 0 28 -8t6 -28l-10 -306q-2 -20 -10 -28t-28 -8h-928q-20 0 -28 8t-8 28v70q0 20 8 28t28 8h86v1040h-86q-20 0 -28 8t-8 28v70q0 20 8 28t28 8h906q20 0 28 -8t10 -28l8 -278q2 -20 -6 -28t-28 -8h-72q-20 0 -29.5 8t-14.5 28l-38 164h-370v-432h252v112
q0 20 8 28t28 8h72q20 0 28 -8t8 -28v-370q0 -20 -8 -28t-28 -8h-72q-20 0 -28 8t-8 28v114h-252v-448h392l40 192q5 20 14.5 28t29.5 8h72zM756 1510q16 -16 16 -28q0 -11 -10 -24l-26 -34q-11 -14 -26 -14q-10 0 -26 8l-356 188q-14 8 -18 13t-4 13q0 9 10 22l104 140
q9 12 14.5 15t11.5 3q12 0 24 -12z" />
    <glyph glyph-name="Ebreve" unicode="&#x114;" horiz-adv-x="1162" 
d="M1052 378q20 0 28 -8t6 -28l-10 -306q-2 -20 -10 -28t-28 -8h-928q-20 0 -28 8t-8 28v70q0 20 8 28t28 8h86v1040h-86q-20 0 -28 8t-8 28v70q0 20 8 28t28 8h906q20 0 28 -8t10 -28l8 -278q2 -20 -6 -28t-28 -8h-72q-20 0 -29.5 8t-14.5 28l-38 164h-370v-432h252v112
q0 20 8 28t28 8h72q20 0 28 -8t8 -28v-370q0 -20 -8 -28t-28 -8h-72q-20 0 -28 8t-8 28v114h-252v-448h392l40 192q5 20 14.5 28t29.5 8h72zM602 1436q-54 0 -101 17.5t-85 47.5t-65.5 69.5t-42.5 83.5q-5 14 -6.5 20t-1.5 12q0 20 24 32l36 16q11 5 15 5.5t9 0.5
q16 0 30 -22q18 -26 41 -44.5t48.5 -30.5t50.5 -17.5t48 -5.5q22 0 47.5 5.5t51 17.5t48.5 30.5t41 44.5q14 22 30 22q5 0 9 -0.5t15 -5.5l36 -16q24 -12 24 -32q0 -6 -1.5 -12t-6.5 -20q-15 -44 -42.5 -83.5t-65.5 -69.5t-85 -47.5t-101 -17.5z" />
    <glyph glyph-name="Ecaron" unicode="&#x11a;" horiz-adv-x="1162" 
d="M1052 378q20 0 28 -8t6 -28l-10 -306q-2 -20 -10 -28t-28 -8h-928q-20 0 -28 8t-8 28v70q0 20 8 28t28 8h86v1040h-86q-20 0 -28 8t-8 28v70q0 20 8 28t28 8h906q20 0 28 -8t10 -28l8 -278q2 -20 -6 -28t-28 -8h-72q-20 0 -29.5 8t-14.5 28l-38 164h-370v-432h252v112
q0 20 8 28t28 8h72q20 0 28 -8t8 -28v-370q0 -20 -8 -28t-28 -8h-72q-20 0 -28 8t-8 28v114h-252v-448h392l40 192q5 20 14.5 28t29.5 8h72zM630 1448q-15 -12 -28 -12t-28 12l-264 214q-14 11 -17 16.5t-3 13.5q0 10 12 28l14 22q8 12 14.5 18t15.5 6q3 0 8 -0.5t16 -5.5
l232 -94l232 94q11 5 16 5.5t8 0.5q9 0 15.5 -6t14.5 -18l14 -22q12 -18 12 -28q0 -8 -3 -13.5t-17 -16.5z" />
    <glyph glyph-name="Edotaccent" unicode="&#x116;" horiz-adv-x="1162" 
d="M1052 378q20 0 28 -8t6 -28l-10 -306q-2 -20 -10 -28t-28 -8h-928q-20 0 -28 8t-8 28v70q0 20 8 28t28 8h86v1040h-86q-20 0 -28 8t-8 28v70q0 20 8 28t28 8h906q20 0 28 -8t10 -28l8 -278q2 -20 -6 -28t-28 -8h-72q-20 0 -29.5 8t-14.5 28l-38 164h-370v-432h252v112
q0 20 8 28t28 8h72q20 0 28 -8t8 -28v-370q0 -20 -8 -28t-28 -8h-72q-20 0 -28 8t-8 28v114h-252v-448h392l40 192q5 20 14.5 28t29.5 8h72zM758 1606q0 -32 -11 -60t-31.5 -49t-49.5 -33t-64 -12t-64 12t-49.5 33t-31.5 49t-11 60q0 31 11 59t31.5 48.5t49.5 32.5t64 12
t64 -12t49.5 -32.5t31.5 -48.5t11 -59z" />
    <glyph glyph-name="Emacron" unicode="&#x112;" horiz-adv-x="1162" 
d="M1052 378q20 0 28 -8t6 -28l-10 -306q-2 -20 -10 -28t-28 -8h-928q-20 0 -28 8t-8 28v70q0 20 8 28t28 8h86v1040h-86q-20 0 -28 8t-8 28v70q0 20 8 28t28 8h906q20 0 28 -8t10 -28l8 -278q2 -20 -6 -28t-28 -8h-72q-20 0 -29.5 8t-14.5 28l-38 164h-370v-432h252v112
q0 20 8 28t28 8h72q20 0 28 -8t8 -28v-370q0 -20 -8 -28t-28 -8h-72q-20 0 -28 8t-8 28v114h-252v-448h392l40 192q5 20 14.5 28t29.5 8h72zM826 1648q20 0 28 -8t8 -28v-104q0 -20 -8 -28t-28 -8h-448q-20 0 -28 8t-8 28v104q0 20 8 28t28 8h448z" />
    <glyph glyph-name="Eogonek" unicode="&#x118;" horiz-adv-x="1162" 
d="M110 0q-20 0 -28 8t-8 28v70q0 20 8 28t28 8h86v1040h-86q-20 0 -28 8t-8 28v70q0 20 8 28t28 8h906q20 0 28 -8t10 -28l8 -278q2 -20 -6 -28t-28 -8h-72q-20 0 -29.5 8t-14.5 28l-38 164h-370v-432h252v112q0 20 8 28t28 8h72q20 0 28 -8t8 -28v-370q0 -20 -8 -28
t-28 -8h-72q-20 0 -28 8t-8 28v114h-252v-448h392l40 192q5 20 14.5 28t29.5 8h72q20 0 28 -8t6 -28l-10 -306q-2 -20 -10 -28t-28 -8h-114q-24 -32 -41.5 -57.5t-28.5 -48t-16.5 -44t-5.5 -44.5q0 -53 24.5 -77.5t71.5 -24.5q42 0 80 16q20 8 30.5 5.5t19.5 -17.5l8 -14
q9 -15 8 -29t-16 -25q-38 -29 -86.5 -44.5t-105.5 -15.5q-44 0 -83 12t-67.5 34t-45 53.5t-16.5 70.5q0 68 45.5 132t120.5 118h-710z" />
    <glyph glyph-name="Gbreve" unicode="&#x11e;" horiz-adv-x="1394" 
d="M1236 124q0 -18 -9 -31t-35 -25q-92 -47 -198.5 -67.5t-233.5 -20.5q-178 0 -309 54.5t-217 146t-128 212t-42 253.5q0 86 16.5 171t52 162.5t91 144.5t133 115.5t177.5 76.5t226 28q109 0 196.5 -23t149 -63.5t95 -95t33.5 -116.5q0 -72 -37 -118t-105 -46
q-35 0 -62 10.5t-45.5 28.5t-28.5 41t-10 48q0 45 16.5 75t49.5 53q-45 26 -108 39t-138 13q-101 0 -173.5 -43t-119 -116.5t-69 -172t-22.5 -210.5q0 -111 21.5 -206t66.5 -164t116 -108.5t170 -39.5q45 0 87.5 5t84.5 17v362h-100q-20 0 -28 8t-8 28v70q0 20 8 28t28 8
h494q20 0 28 -8t8 -28v-70q0 -20 -8 -28t-28 -8h-86v-390zM740 1436q-54 0 -101 17.5t-85 47.5t-65.5 69.5t-42.5 83.5q-5 14 -6.5 20t-1.5 12q0 20 24 32l36 16q11 5 15 5.5t9 0.5q16 0 30 -22q18 -26 41 -44.5t48.5 -30.5t50.5 -17.5t48 -5.5q22 0 47.5 5.5t51 17.5
t48.5 30.5t41 44.5q14 22 30 22q5 0 9 -0.5t15 -5.5l36 -16q24 -12 24 -32q0 -6 -1.5 -12t-6.5 -20q-15 -44 -42.5 -83.5t-65.5 -69.5t-85 -47.5t-101 -17.5z" />
    <glyph glyph-name="Gcircumflex" unicode="&#x11c;" horiz-adv-x="1394" 
d="M1236 124q0 -18 -9 -31t-35 -25q-92 -47 -198.5 -67.5t-233.5 -20.5q-178 0 -309 54.5t-217 146t-128 212t-42 253.5q0 86 16.5 171t52 162.5t91 144.5t133 115.5t177.5 76.5t226 28q109 0 196.5 -23t149 -63.5t95 -95t33.5 -116.5q0 -72 -37 -118t-105 -46
q-35 0 -62 10.5t-45.5 28.5t-28.5 41t-10 48q0 45 16.5 75t49.5 53q-45 26 -108 39t-138 13q-101 0 -173.5 -43t-119 -116.5t-69 -172t-22.5 -210.5q0 -111 21.5 -206t66.5 -164t116 -108.5t170 -39.5q45 0 87.5 5t84.5 17v362h-100q-20 0 -28 8t-8 28v70q0 20 8 28t28 8
h494q20 0 28 -8t8 -28v-70q0 -20 -8 -28t-28 -8h-86v-390zM1032 1538q14 -11 17 -16.5t3 -13.5q0 -10 -12 -28l-14 -22q-8 -12 -14.5 -18t-15.5 -6q-3 0 -8 0.5t-16 5.5l-232 94l-232 -94q-11 -5 -16 -5.5t-8 -0.5q-9 0 -15.5 6t-14.5 18l-14 22q-12 18 -12 28q0 8 3 13.5
t17 16.5l264 214q15 12 28 12t28 -12l264 -214v0z" />
    <glyph glyph-name="Gcommaaccent" unicode="&#x122;" horiz-adv-x="1394" 
d="M1236 124q0 -18 -9 -31t-35 -25q-92 -47 -198.5 -67.5t-233.5 -20.5q-178 0 -309 54.5t-217 146t-128 212t-42 253.5q0 86 16.5 171t52 162.5t91 144.5t133 115.5t177.5 76.5t226 28q109 0 196.5 -23t149 -63.5t95 -95t33.5 -116.5q0 -72 -37 -118t-105 -46
q-35 0 -62 10.5t-45.5 28.5t-28.5 41t-10 48q0 45 16.5 75t49.5 53q-45 26 -108 39t-138 13q-101 0 -173.5 -43t-119 -116.5t-69 -172t-22.5 -210.5q0 -111 21.5 -206t66.5 -164t116 -108.5t170 -39.5q45 0 87.5 5t84.5 17v362h-100q-20 0 -28 8t-8 28v70q0 20 8 28t28 8
h494q20 0 28 -8t8 -28v-70q0 -20 -8 -28t-28 -8h-86v-390zM692 -430q-18 -12 -27.5 -16t-18.5 -4q-8 0 -15.5 3.5t-18.5 14.5l-4 4q-8 8 -11 12t-3 12t5 14t13 14l38.5 38t35.5 42q-39 15 -62.5 45t-23.5 69q0 23 8.5 45t26 39t43 27.5t60.5 10.5q66 0 104 -39t38 -99
q0 -37 -18.5 -70.5t-46.5 -63.5t-61 -54.5t-62 -43.5z" />
    <glyph glyph-name="Gdotaccent" unicode="&#x120;" horiz-adv-x="1394" 
d="M1236 124q0 -18 -9 -31t-35 -25q-92 -47 -198.5 -67.5t-233.5 -20.5q-178 0 -309 54.5t-217 146t-128 212t-42 253.5q0 86 16.5 171t52 162.5t91 144.5t133 115.5t177.5 76.5t226 28q109 0 196.5 -23t149 -63.5t95 -95t33.5 -116.5q0 -72 -37 -118t-105 -46
q-35 0 -62 10.5t-45.5 28.5t-28.5 41t-10 48q0 45 16.5 75t49.5 53q-45 26 -108 39t-138 13q-101 0 -173.5 -43t-119 -116.5t-69 -172t-22.5 -210.5q0 -111 21.5 -206t66.5 -164t116 -108.5t170 -39.5q45 0 87.5 5t84.5 17v362h-100q-20 0 -28 8t-8 28v70q0 20 8 28t28 8
h494q20 0 28 -8t8 -28v-70q0 -20 -8 -28t-28 -8h-86v-390zM896 1606q0 -32 -11 -60t-31.5 -49t-49.5 -33t-64 -12t-64 12t-49.5 33t-31.5 49t-11 60q0 31 11 59t31.5 48.5t49.5 32.5t64 12t64 -12t49.5 -32.5t31.5 -48.5t11 -59z" />
    <glyph glyph-name="Hbar" unicode="&#x126;" horiz-adv-x="1564" 
d="M524 872v-168h516v168h-516zM956 0q-20 0 -28 8t-8 28v70q0 20 8 28t28 8h84v410h-516v-410h86q20 0 28 -8t8 -28v-70q0 -20 -8 -28t-28 -8h-480q-20 0 -28 8t-8 28v70q0 20 8 28t28 8h86v730h-126q-20 0 -28 8t-8 28v70q0 20 8 28t28 8h126v168h-86q-20 0 -28 8t-8 28
v70q0 20 8 28t28 8h480q20 0 28 -8t8 -28v-70q0 -20 -8 -28t-28 -8h-86v-168h516v168h-84q-20 0 -28 8t-8 28v70q0 20 8 28t28 8h478q20 0 28 -8t8 -28v-70q0 -20 -8 -28t-28 -8h-86v-168h126q20 0 28 -8t8 -28v-70q0 -20 -8 -28t-28 -8h-126v-730h86q20 0 28 -8t8 -28v-70
q0 -20 -8 -28t-28 -8h-478z" />
    <glyph glyph-name="Hcircumflex" unicode="&#x124;" horiz-adv-x="1524" 
d="M590 142q20 0 28 -8t8 -28v-70q0 -20 -8 -28t-28 -8h-480q-20 0 -28 8t-8 28v70q0 20 8 28t28 8h86v1040h-86q-20 0 -28 8t-8 28v70q0 20 8 28t28 8h480q20 0 28 -8t8 -28v-70q0 -20 -8 -28t-28 -8h-86v-436h516v436h-84q-20 0 -28 8t-8 28v70q0 20 8 28t28 8h478
q20 0 28 -8t8 -28v-70q0 -20 -8 -28t-28 -8h-86v-1040h86q20 0 28 -8t8 -28v-70q0 -20 -8 -28t-28 -8h-478q-20 0 -28 8t-8 28v70q0 20 8 28t28 8h84v452h-516v-452h86zM1056 1538q14 -11 17 -16.5t3 -13.5q0 -10 -12 -28l-14 -22q-8 -12 -14.5 -18t-15.5 -6q-3 0 -8 0.5
t-16 5.5l-232 94l-232 -94q-11 -5 -16 -5.5t-8 -0.5q-9 0 -15.5 6t-14.5 18l-14 22q-12 18 -12 28q0 8 3 13.5t17 16.5l264 214q15 12 28 12t28 -12l264 -214v0z" />
    <glyph glyph-name="Iacute" unicode="&#xcd;" horiz-adv-x="700" 
d="M110 0q-20 0 -28 8t-8 28v70q0 20 8 28t28 8h86v1040h-86q-20 0 -28 8t-8 28v70q0 20 8 28t28 8h480q20 0 28 -8t8 -28v-70q0 -20 -8 -28t-28 -8h-86v-1040h86q20 0 28 -8t8 -28v-70q0 -20 -8 -28t-28 -8h-480zM266 1416q-12 -6 -24 -6q-8 0 -15 3.5t-15 14.5l-20 28
q-6 9 -9 14.5t-3 11.5q0 12 16 28l286 290q8 8 13 10t11 2t12 -2.5t12 -11.5l106 -146q10 -13 10 -20q0 -14 -20 -24z" />
    <glyph glyph-name="Icircumflex" unicode="&#xce;" horiz-adv-x="700" 
d="M110 0q-20 0 -28 8t-8 28v70q0 20 8 28t28 8h86v1040h-86q-20 0 -28 8t-8 28v70q0 20 8 28t28 8h480q20 0 28 -8t8 -28v-70q0 -20 -8 -28t-28 -8h-86v-1040h86q20 0 28 -8t8 -28v-70q0 -20 -8 -28t-28 -8h-480zM643 1538q14 -11 17 -16.5t3 -13.5q0 -10 -12 -28l-14 -22
q-8 -12 -14.5 -18t-15.5 -6q-3 0 -8 0.5t-16 5.5l-232 94l-232 -94q-11 -5 -16 -5.5t-8 -0.5q-9 0 -15.5 6t-14.5 18l-14 22q-12 18 -12 28q0 8 3 13.5t17 16.5l264 214q15 12 28 12t28 -12l264 -214v0z" />
    <glyph glyph-name="Idieresis" unicode="&#xcf;" horiz-adv-x="700" 
d="M110 0q-20 0 -28 8t-8 28v70q0 20 8 28t28 8h86v1040h-86q-20 0 -28 8t-8 28v70q0 20 8 28t28 8h480q20 0 28 -8t8 -28v-70q0 -20 -8 -28t-28 -8h-86v-1040h86q20 0 28 -8t8 -28v-70q0 -20 -8 -28t-28 -8h-480zM693 1590q0 -29 -10 -54t-28 -43.5t-44.5 -29.5t-59.5 -11
t-59.5 11t-44.5 29.5t-28 43.5t-10 54q0 28 10 53.5t28 44t44.5 29.5t59.5 11t59.5 -11t44.5 -29.5t28 -44t10 -53.5zM281 1590q0 -29 -10 -54t-28 -43.5t-44.5 -29.5t-59.5 -11t-59.5 11t-44.5 29.5t-28 43.5t-10 54q0 28 10 53.5t28 44t44.5 29.5t59.5 11t59.5 -11
t44.5 -29.5t28 -44t10 -53.5z" />
    <glyph glyph-name="Igrave" unicode="&#xcc;" horiz-adv-x="700" 
d="M110 0q-20 0 -28 8t-8 28v70q0 20 8 28t28 8h86v1040h-86q-20 0 -28 8t-8 28v70q0 20 8 28t28 8h480q20 0 28 -8t8 -28v-70q0 -20 -8 -28t-28 -8h-86v-1040h86q20 0 28 -8t8 -28v-70q0 -20 -8 -28t-28 -8h-480zM505 1510q16 -16 16 -28q0 -11 -10 -24l-26 -34
q-11 -14 -26 -14q-10 0 -26 8l-356 188q-14 8 -18 13t-4 13q0 9 10 22l104 140q9 12 14.5 15t11.5 3q12 0 24 -12z" />
    <glyph glyph-name="Ibreve" unicode="&#x12c;" horiz-adv-x="700" 
d="M110 0q-20 0 -28 8t-8 28v70q0 20 8 28t28 8h86v1040h-86q-20 0 -28 8t-8 28v70q0 20 8 28t28 8h480q20 0 28 -8t8 -28v-70q0 -20 -8 -28t-28 -8h-86v-1040h86q20 0 28 -8t8 -28v-70q0 -20 -8 -28t-28 -8h-480zM351 1436q-54 0 -101 17.5t-85 47.5t-65.5 69.5t-42.5 83.5
q-5 14 -6.5 20t-1.5 12q0 20 24 32l36 16q11 5 15 5.5t9 0.5q16 0 30 -22q18 -26 41 -44.5t48.5 -30.5t50.5 -17.5t48 -5.5q22 0 47.5 5.5t51 17.5t48.5 30.5t41 44.5q14 22 30 22q5 0 9 -0.5t15 -5.5l36 -16q24 -12 24 -32q0 -6 -1.5 -12t-6.5 -20q-15 -44 -42.5 -83.5
t-65.5 -69.5t-85 -47.5t-101 -17.5z" />
    <glyph glyph-name="Imacron" unicode="&#x12a;" horiz-adv-x="700" 
d="M110 0q-20 0 -28 8t-8 28v70q0 20 8 28t28 8h86v1040h-86q-20 0 -28 8t-8 28v70q0 20 8 28t28 8h480q20 0 28 -8t8 -28v-70q0 -20 -8 -28t-28 -8h-86v-1040h86q20 0 28 -8t8 -28v-70q0 -20 -8 -28t-28 -8h-480zM575 1648q20 0 28 -8t8 -28v-104q0 -20 -8 -28t-28 -8h-448
q-20 0 -28 8t-8 28v104q0 20 8 28t28 8h448z" />
    <glyph glyph-name="Iogonek" unicode="&#x12e;" horiz-adv-x="700" 
d="M110 0q-20 0 -28 8t-8 28v70q0 20 8 28t28 8h86v1040h-86q-20 0 -28 8t-8 28v70q0 20 8 28t28 8h480q20 0 28 -8t8 -28v-70q0 -20 -8 -28t-28 -8h-86v-1040h86q20 0 28 -8t8 -28v-70q0 -20 -8 -28t-28 -8h-166q-24 -32 -41.5 -57.5t-28.5 -48t-16.5 -44t-5.5 -44.5
q0 -53 24.5 -77.5t71.5 -24.5q42 0 80 16q20 8 30.5 5.5t19.5 -17.5l8 -14q9 -15 8 -29t-16 -25q-38 -29 -86.5 -44.5t-105.5 -15.5q-44 0 -83 12t-67.5 34t-45 53.5t-16.5 70.5q0 68 45.5 132t120.5 118h-210z" />
    <glyph glyph-name="Itilde" unicode="&#x128;" horiz-adv-x="700" 
d="M110 0q-20 0 -28 8t-8 28v70q0 20 8 28t28 8h86v1040h-86q-20 0 -28 8t-8 28v70q0 20 8 28t28 8h480q20 0 28 -8t8 -28v-70q0 -20 -8 -28t-28 -8h-86v-1040h86q20 0 28 -8t8 -28v-70q0 -20 -8 -28t-28 -8h-480zM31 1540q13 31 32 62.5t45.5 57t60.5 42t76 16.5
q39 0 70 -13.5t58.5 -29.5t54 -29.5t57.5 -13.5q24 0 45.5 11t42.5 37q15 18 28 18q6 0 10.5 -2t15.5 -8l28 -16q22 -14 22 -32q0 -7 -6 -22q-12 -29 -31 -60.5t-46 -57t-61 -42t-76 -16.5q-39 0 -70 13.5t-58.5 29.5t-54 29.5t-57.5 13.5q-24 0 -44.5 -11t-41.5 -37
q-15 -18 -28 -18q-6 0 -10.5 2t-15.5 8l-28 16q-14 8 -19 14.5t-5 15.5q0 7 6 22z" />
    <glyph glyph-name="Idotaccent" unicode="&#x130;" horiz-adv-x="700" 
d="M110 0q-20 0 -28 8t-8 28v70q0 20 8 28t28 8h86v1040h-86q-20 0 -28 8t-8 28v70q0 20 8 28t28 8h480q20 0 28 -8t8 -28v-70q0 -20 -8 -28t-28 -8h-86v-1040h86q20 0 28 -8t8 -28v-70q0 -20 -8 -28t-28 -8h-480zM506 1606q0 -32 -11 -60t-31.5 -49t-49.5 -33t-64 -12
t-64 12t-49.5 33t-31.5 49t-11 60q0 31 11 59t31.5 48.5t49.5 32.5t64 12t64 -12t49.5 -32.5t31.5 -48.5t11 -59z" />
    <glyph glyph-name="Jcircumflex" unicode="&#x134;" horiz-adv-x="1114" 
d="M938 514q0 -126 -28.5 -225t-89 -168t-154.5 -105t-224 -36q-102 0 -179 23t-129 63.5t-78 95t-26 116.5q0 72 37.5 118t108.5 46q29 0 55 -9t45.5 -26t30.5 -42t11 -57q0 -45 -19.5 -79t-64.5 -55q36 -30 76 -42t90 -12q66 0 110 26.5t71 74.5t38 114t11 145v702h-106
q-20 0 -28 8t-8 28v70q0 20 8 28t28 8h500q20 0 28 -8t8 -28v-70q0 -20 -8 -28t-28 -8h-86v-668v0zM1076 1538q14 -11 17 -16.5t3 -13.5q0 -10 -12 -28l-14 -22q-8 -12 -14.5 -18t-15.5 -6q-3 0 -8 0.5t-16 5.5l-232 94l-232 -94q-11 -5 -16 -5.5t-8 -0.5q-9 0 -15.5 6
t-14.5 18l-14 22q-12 18 -12 28q0 8 3 13.5t17 16.5l264 214q15 12 28 12t28 -12l264 -214v0z" />
    <glyph glyph-name="Kcommaaccent" unicode="&#x136;" horiz-adv-x="1374" 
d="M580 142q20 0 28 -8t8 -28v-70q0 -20 -8 -28t-28 -8h-470q-20 0 -28 8t-8 28v70q0 20 8 28t28 8h86v1040h-86q-20 0 -28 8t-8 28v70q0 20 8 28t28 8h480q20 0 28 -8t8 -28v-70q0 -20 -8 -28t-28 -8h-86v-464q121 91 239 210.5t221 253.5h-90q-20 0 -28 8t-8 28v70
q0 20 8 28t28 8h396q20 0 28 -8t8 -28v-70q0 -20 -8 -28t-28 -8h-102q-83 -115 -173.5 -215t-190.5 -189q124 -130 232.5 -293t199.5 -343h78q20 0 28 -8t8 -28v-70q0 -20 -8 -28t-28 -8h-314q-20 0 -31 7t-19 27q-34 75 -76.5 152t-90 150.5t-98.5 140t-101 121.5l-40 -28
l-40 -28v-400h76zM664 -430q-18 -12 -27.5 -16t-18.5 -4q-8 0 -15.5 3.5t-18.5 14.5l-4 4q-8 8 -11 12t-3 12t5 14t13 14l38.5 38t35.5 42q-39 15 -62.5 45t-23.5 69q0 23 8.5 45t26 39t43 27.5t60.5 10.5q66 0 104 -39t38 -99q0 -37 -18.5 -70.5t-46.5 -63.5t-61 -54.5
t-62 -43.5z" />
    <glyph glyph-name="Lslash" unicode="&#x141;" horiz-adv-x="1060" 
d="M86 468q-15 -8 -23.5 -2.5t-8.5 22.5v88q0 20 7 31.5t25 20.5l130 68v486h-86q-20 0 -28 8t-8 28v70q0 20 8 28t28 8h478q20 0 28 -8t8 -28v-70q0 -20 -8 -28t-28 -8h-84v-326l218 114q15 8 23.5 2.5t8.5 -22.5v-88q0 -20 -7 -31.5t-25 -20.5l-218 -114v-546h304l46 220
q5 20 14.5 28t29.5 8h72q20 0 28 -8t6 -28l-12 -334q-2 -20 -10 -28t-28 -8h-844q-20 0 -28 8t-8 28v70q0 20 8 28t28 8h86v394z" />
    <glyph glyph-name="Lacute" unicode="&#x139;" horiz-adv-x="1040" 
d="M110 0q-20 0 -28 8t-8 28v70q0 20 8 28t28 8h86v1040h-86q-20 0 -28 8t-8 28v70q0 20 8 28t28 8h478q20 0 28 -8t8 -28v-70q0 -20 -8 -28t-28 -8h-84v-1032h304l46 220q5 20 14.5 28t29.5 8h72q20 0 28 -8t6 -28l-12 -334q-2 -20 -10 -28t-28 -8h-844zM266 1416
q-12 -6 -24 -6q-8 0 -15 3.5t-15 14.5l-20 28q-6 9 -9 14.5t-3 11.5q0 12 16 28l286 290q8 8 13 10t11 2t12 -2.5t12 -11.5l106 -146q10 -13 10 -20q0 -14 -20 -24z" />
    <glyph glyph-name="Lcaron" unicode="&#x13d;" horiz-adv-x="1040" 
d="M110 0q-20 0 -28 8t-8 28v70q0 20 8 28t28 8h86v1040h-86q-20 0 -28 8t-8 28v70q0 20 8 28t28 8h478q20 0 28 -8t8 -28v-70q0 -20 -8 -28t-28 -8h-84v-1032h304l46 220q5 20 14.5 28t29.5 8h72q20 0 28 -8t6 -28l-12 -334q-2 -20 -10 -28t-28 -8h-844zM828 897
q-6 -14 -12 -21t-18 -7q-3 0 -6.5 0.5t-15.5 3.5l-22 6q-17 5 -23.5 13t-6.5 23v7.5t2 24.5l34 348q2 17 9 23.5t21 6.5q4 0 11.5 -1t34.5 -7l110 -22q30 -6 30 -24q0 -5 -1 -9t-3 -9z" />
    <glyph glyph-name="Lcommaaccent" unicode="&#x13b;" horiz-adv-x="1040" 
d="M110 0q-20 0 -28 8t-8 28v70q0 20 8 28t28 8h86v1040h-86q-20 0 -28 8t-8 28v70q0 20 8 28t28 8h478q20 0 28 -8t8 -28v-70q0 -20 -8 -28t-28 -8h-84v-1032h304l46 220q5 20 14.5 28t29.5 8h72q20 0 28 -8t6 -28l-12 -334q-2 -20 -10 -28t-28 -8h-844zM484 -430
q-18 -12 -27.5 -16t-18.5 -4q-8 0 -15.5 3.5t-18.5 14.5l-4 4q-8 8 -11 12t-3 12t5 14t13 14l38.5 38t35.5 42q-39 15 -62.5 45t-23.5 69q0 23 8.5 45t26 39t43 27.5t60.5 10.5q66 0 104 -39t38 -99q0 -37 -18.5 -70.5t-46.5 -63.5t-61 -54.5t-62 -43.5z" />
    <glyph glyph-name="Ldot" unicode="&#x13f;" horiz-adv-x="1040" 
d="M1046 788q0 -38 -13.5 -72t-37.5 -59.5t-58.5 -40t-76.5 -14.5t-76.5 14.5t-58.5 40t-37.5 59.5t-13.5 72t13.5 72t37.5 59.5t58.5 40t76.5 14.5t76.5 -14.5t58.5 -40t37.5 -59.5t13.5 -72zM110 0q-20 0 -28 8t-8 28v70q0 20 8 28t28 8h86v1040h-86q-20 0 -28 8t-8 28v70
q0 20 8 28t28 8h478q20 0 28 -8t8 -28v-70q0 -20 -8 -28t-28 -8h-84v-1032h304l46 220q5 20 14.5 28t29.5 8h72q20 0 28 -8t6 -28l-12 -334q-2 -20 -10 -28t-28 -8h-844z" />
    <glyph glyph-name="Ntilde" unicode="&#xd1;" horiz-adv-x="1508" 
d="M452 142q20 0 28 -8t8 -28v-70q0 -20 -8 -28t-28 -8h-342q-20 0 -28 8t-8 28v70q0 20 8 28t28 8h86v1040h-86q-20 0 -28 8t-8 28v70q0 20 8 28t28 8h384q20 0 32.5 -6.5t23.5 -23.5l612 -936v824h-86q-20 0 -28 8t-8 28v70q0 20 8 28t28 8h342q20 0 28 -8t8 -28v-70
q0 -20 -8 -28t-28 -8h-86v-1146q0 -20 -8 -28t-28 -8h-204q-20 0 -32.5 6.5t-23.5 23.5l-670 1024v-912h86zM444 1540q13 31 32 62.5t45.5 57t60.5 42t76 16.5q39 0 70 -13.5t58.5 -29.5t54 -29.5t57.5 -13.5q24 0 45.5 11t42.5 37q15 18 28 18q6 0 10.5 -2t15.5 -8l28 -16
q22 -14 22 -32q0 -7 -6 -22q-12 -29 -31 -60.5t-46 -57t-61 -42t-76 -16.5q-39 0 -70 13.5t-58.5 29.5t-54 29.5t-57.5 13.5q-24 0 -44.5 -11t-41.5 -37q-15 -18 -28 -18q-6 0 -10.5 2t-15.5 8l-28 16q-14 8 -19 14.5t-5 15.5q0 7 6 22z" />
    <glyph glyph-name="Nacute" unicode="&#x143;" horiz-adv-x="1508" 
d="M452 142q20 0 28 -8t8 -28v-70q0 -20 -8 -28t-28 -8h-342q-20 0 -28 8t-8 28v70q0 20 8 28t28 8h86v1040h-86q-20 0 -28 8t-8 28v70q0 20 8 28t28 8h384q20 0 32.5 -6.5t23.5 -23.5l612 -936v824h-86q-20 0 -28 8t-8 28v70q0 20 8 28t28 8h342q20 0 28 -8t8 -28v-70
q0 -20 -8 -28t-28 -8h-86v-1146q0 -20 -8 -28t-28 -8h-204q-20 0 -32.5 6.5t-23.5 23.5l-670 1024v-912h86zM680 1416q-12 -6 -24 -6q-8 0 -15 3.5t-15 14.5l-20 28q-6 9 -9 14.5t-3 11.5q0 12 16 28l286 290q8 8 13 10t11 2t12 -2.5t12 -11.5l106 -146q10 -13 10 -20
q0 -14 -20 -24z" />
    <glyph glyph-name="Ncaron" unicode="&#x147;" horiz-adv-x="1508" 
d="M452 142q20 0 28 -8t8 -28v-70q0 -20 -8 -28t-28 -8h-342q-20 0 -28 8t-8 28v70q0 20 8 28t28 8h86v1040h-86q-20 0 -28 8t-8 28v70q0 20 8 28t28 8h384q20 0 32.5 -6.5t23.5 -23.5l612 -936v824h-86q-20 0 -28 8t-8 28v70q0 20 8 28t28 8h342q20 0 28 -8t8 -28v-70
q0 -20 -8 -28t-28 -8h-86v-1146q0 -20 -8 -28t-28 -8h-204q-20 0 -32.5 6.5t-23.5 23.5l-670 1024v-912h86zM792 1448q-15 -12 -28 -12t-28 12l-264 214q-14 11 -17 16.5t-3 13.5q0 10 12 28l14 22q8 12 14.5 18t15.5 6q3 0 8 -0.5t16 -5.5l232 -94l232 94q11 5 16 5.5
t8 0.5q9 0 15.5 -6t14.5 -18l14 -22q12 -18 12 -28q0 -8 -3 -13.5t-17 -16.5z" />
    <glyph glyph-name="Ncommaaccent" unicode="&#x145;" horiz-adv-x="1508" 
d="M452 142q20 0 28 -8t8 -28v-70q0 -20 -8 -28t-28 -8h-342q-20 0 -28 8t-8 28v70q0 20 8 28t28 8h86v1040h-86q-20 0 -28 8t-8 28v70q0 20 8 28t28 8h384q20 0 32.5 -6.5t23.5 -23.5l612 -936v824h-86q-20 0 -28 8t-8 28v70q0 20 8 28t28 8h342q20 0 28 -8t8 -28v-70
q0 -20 -8 -28t-28 -8h-86v-1146q0 -20 -8 -28t-28 -8h-204q-20 0 -32.5 6.5t-23.5 23.5l-670 1024v-912h86zM716 -430q-18 -12 -27.5 -16t-18.5 -4q-8 0 -15.5 3.5t-18.5 14.5l-4 4q-8 8 -11 12t-3 12t5 14t13 14l38.5 38t35.5 42q-39 15 -62.5 45t-23.5 69q0 23 8.5 45
t26 39t43 27.5t60.5 10.5q66 0 104 -39t38 -99q0 -37 -18.5 -70.5t-46.5 -63.5t-61 -54.5t-62 -43.5z" />
    <glyph glyph-name="Odieresis" unicode="&#xd6;" horiz-adv-x="1416" 
d="M1352 662q0 -87 -16.5 -172t-51 -160.5t-87 -139.5t-124 -111t-163 -73t-202.5 -26q-115 0 -207.5 26.5t-164 73.5t-123 111.5t-84.5 140t-49 159.5t-16 171q0 132 38 255t117 218t200.5 152t288.5 57q115 0 207.5 -26.5t164 -73.5t123 -111.5t84.5 -140t49 -160
t16 -170.5zM382 662q0 -107 15 -202.5t52.5 -168t100.5 -115t158 -42.5t158 42t100.5 114t52.5 168t15 204q0 106 -15 202t-52.5 168.5t-100.5 115t-158 42.5t-158 -42.5t-100.5 -115t-52.5 -168.5t-15 -202zM1050 1590q0 -29 -10 -54t-28 -43.5t-44.5 -29.5t-59.5 -11
t-59.5 11t-44.5 29.5t-28 43.5t-10 54q0 28 10 53.5t28 44t44.5 29.5t59.5 11t59.5 -11t44.5 -29.5t28 -44t10 -53.5zM638 1590q0 -29 -10 -54t-28 -43.5t-44.5 -29.5t-59.5 -11t-59.5 11t-44.5 29.5t-28 43.5t-10 54q0 28 10 53.5t28 44t44.5 29.5t59.5 11t59.5 -11
t44.5 -29.5t28 -44t10 -53.5z" />
    <glyph glyph-name="Otilde" unicode="&#xd5;" horiz-adv-x="1416" 
d="M1352 662q0 -87 -16.5 -172t-51 -160.5t-87 -139.5t-124 -111t-163 -73t-202.5 -26q-115 0 -207.5 26.5t-164 73.5t-123 111.5t-84.5 140t-49 159.5t-16 171q0 132 38 255t117 218t200.5 152t288.5 57q115 0 207.5 -26.5t164 -73.5t123 -111.5t84.5 -140t49 -160
t16 -170.5zM382 662q0 -107 15 -202.5t52.5 -168t100.5 -115t158 -42.5t158 42t100.5 114t52.5 168t15 204q0 106 -15 202t-52.5 168.5t-100.5 115t-158 42.5t-158 -42.5t-100.5 -115t-52.5 -168.5t-15 -202zM388 1540q13 31 32 62.5t45.5 57t60.5 42t76 16.5q39 0 70 -13.5
t58.5 -29.5t54 -29.5t57.5 -13.5q24 0 45.5 11t42.5 37q15 18 28 18q6 0 10.5 -2t15.5 -8l28 -16q22 -14 22 -32q0 -7 -6 -22q-12 -29 -31 -60.5t-46 -57t-61 -42t-76 -16.5q-39 0 -70 13.5t-58.5 29.5t-54 29.5t-57.5 13.5q-24 0 -44.5 -11t-41.5 -37q-15 -18 -28 -18
q-6 0 -10.5 2t-15.5 8l-28 16q-14 8 -19 14.5t-5 15.5q0 7 6 22z" />
    <glyph glyph-name="Oacute" unicode="&#xd3;" horiz-adv-x="1416" 
d="M1352 662q0 -87 -16.5 -172t-51 -160.5t-87 -139.5t-124 -111t-163 -73t-202.5 -26q-115 0 -207.5 26.5t-164 73.5t-123 111.5t-84.5 140t-49 159.5t-16 171q0 132 38 255t117 218t200.5 152t288.5 57q115 0 207.5 -26.5t164 -73.5t123 -111.5t84.5 -140t49 -160
t16 -170.5zM382 662q0 -107 15 -202.5t52.5 -168t100.5 -115t158 -42.5t158 42t100.5 114t52.5 168t15 204q0 106 -15 202t-52.5 168.5t-100.5 115t-158 42.5t-158 -42.5t-100.5 -115t-52.5 -168.5t-15 -202zM624 1416q-12 -6 -24 -6q-8 0 -15 3.5t-15 14.5l-20 28
q-6 9 -9 14.5t-3 11.5q0 12 16 28l286 290q8 8 13 10t11 2t12 -2.5t12 -11.5l106 -146q10 -13 10 -20q0 -14 -20 -24z" />
    <glyph glyph-name="Ocircumflex" unicode="&#xd4;" horiz-adv-x="1416" 
d="M1352 662q0 -87 -16.5 -172t-51 -160.5t-87 -139.5t-124 -111t-163 -73t-202.5 -26q-115 0 -207.5 26.5t-164 73.5t-123 111.5t-84.5 140t-49 159.5t-16 171q0 132 38 255t117 218t200.5 152t288.5 57q115 0 207.5 -26.5t164 -73.5t123 -111.5t84.5 -140t49 -160
t16 -170.5zM382 662q0 -107 15 -202.5t52.5 -168t100.5 -115t158 -42.5t158 42t100.5 114t52.5 168t15 204q0 106 -15 202t-52.5 168.5t-100.5 115t-158 42.5t-158 -42.5t-100.5 -115t-52.5 -168.5t-15 -202zM1000 1538q14 -11 17 -16.5t3 -13.5q0 -10 -12 -28l-14 -22
q-8 -12 -14.5 -18t-15.5 -6q-3 0 -8 0.5t-16 5.5l-232 94l-232 -94q-11 -5 -16 -5.5t-8 -0.5q-9 0 -15.5 6t-14.5 18l-14 22q-12 18 -12 28q0 8 3 13.5t17 16.5l264 214q15 12 28 12t28 -12l264 -214v0z" />
    <glyph glyph-name="Ograve" unicode="&#xd2;" horiz-adv-x="1416" 
d="M1352 662q0 -87 -16.5 -172t-51 -160.5t-87 -139.5t-124 -111t-163 -73t-202.5 -26q-115 0 -207.5 26.5t-164 73.5t-123 111.5t-84.5 140t-49 159.5t-16 171q0 132 38 255t117 218t200.5 152t288.5 57q115 0 207.5 -26.5t164 -73.5t123 -111.5t84.5 -140t49 -160
t16 -170.5zM382 662q0 -107 15 -202.5t52.5 -168t100.5 -115t158 -42.5t158 42t100.5 114t52.5 168t15 204q0 106 -15 202t-52.5 168.5t-100.5 115t-158 42.5t-158 -42.5t-100.5 -115t-52.5 -168.5t-15 -202zM862 1510q16 -16 16 -28q0 -11 -10 -24l-26 -34q-11 -14 -26 -14
q-10 0 -26 8l-356 188q-14 8 -18 13t-4 13q0 9 10 22l104 140q9 12 14.5 15t11.5 3q12 0 24 -12z" />
    <glyph glyph-name="Obreve" unicode="&#x14e;" horiz-adv-x="1416" 
d="M1352 662q0 -87 -16.5 -172t-51 -160.5t-87 -139.5t-124 -111t-163 -73t-202.5 -26q-115 0 -207.5 26.5t-164 73.5t-123 111.5t-84.5 140t-49 159.5t-16 171q0 132 38 255t117 218t200.5 152t288.5 57q115 0 207.5 -26.5t164 -73.5t123 -111.5t84.5 -140t49 -160
t16 -170.5zM382 662q0 -107 15 -202.5t52.5 -168t100.5 -115t158 -42.5t158 42t100.5 114t52.5 168t15 204q0 106 -15 202t-52.5 168.5t-100.5 115t-158 42.5t-158 -42.5t-100.5 -115t-52.5 -168.5t-15 -202zM708 1436q-54 0 -101 17.5t-85 47.5t-65.5 69.5t-42.5 83.5
q-5 14 -6.5 20t-1.5 12q0 20 24 32l36 16q11 5 15 5.5t9 0.5q16 0 30 -22q18 -26 41 -44.5t48.5 -30.5t50.5 -17.5t48 -5.5q22 0 47.5 5.5t51 17.5t48.5 30.5t41 44.5q14 22 30 22q5 0 9 -0.5t15 -5.5l36 -16q24 -12 24 -32q0 -6 -1.5 -12t-6.5 -20q-15 -44 -42.5 -83.5
t-65.5 -69.5t-85 -47.5t-101 -17.5z" />
    <glyph glyph-name="Ohungarumlaut" unicode="&#x150;" horiz-adv-x="1416" 
d="M1352 662q0 -87 -16.5 -172t-51 -160.5t-87 -139.5t-124 -111t-163 -73t-202.5 -26q-115 0 -207.5 26.5t-164 73.5t-123 111.5t-84.5 140t-49 159.5t-16 171q0 132 38 255t117 218t200.5 152t288.5 57q115 0 207.5 -26.5t164 -73.5t123 -111.5t84.5 -140t49 -160
t16 -170.5zM382 662q0 -107 15 -202.5t52.5 -168t100.5 -115t158 -42.5t158 42t100.5 114t52.5 168t15 204q0 106 -15 202t-52.5 168.5t-100.5 115t-158 42.5t-158 -42.5t-100.5 -115t-52.5 -168.5t-15 -202zM910 1416q-16 -16 -30 -16q-10 0 -28 12l-20 14q-14 9 -18 16
t-4 16q0 10 6 22l148 306q9 20 24 20q9 0 22 -10l134 -98q11 -8 13.5 -13.5t2.5 -10.5q0 -12 -12 -24zM542 1416q-16 -16 -30 -16q-10 0 -28 12l-20 14q-14 9 -18 16t-4 16q0 10 6 22l148 306q9 20 24 20q9 0 22 -10l134 -98q11 -8 13.5 -13.5t2.5 -10.5q0 -12 -12 -24z" />
    <glyph glyph-name="Omacron" unicode="&#x14c;" horiz-adv-x="1416" 
d="M1352 662q0 -87 -16.5 -172t-51 -160.5t-87 -139.5t-124 -111t-163 -73t-202.5 -26q-115 0 -207.5 26.5t-164 73.5t-123 111.5t-84.5 140t-49 159.5t-16 171q0 132 38 255t117 218t200.5 152t288.5 57q115 0 207.5 -26.5t164 -73.5t123 -111.5t84.5 -140t49 -160
t16 -170.5zM382 662q0 -107 15 -202.5t52.5 -168t100.5 -115t158 -42.5t158 42t100.5 114t52.5 168t15 204q0 106 -15 202t-52.5 168.5t-100.5 115t-158 42.5t-158 -42.5t-100.5 -115t-52.5 -168.5t-15 -202zM932 1648q20 0 28 -8t8 -28v-104q0 -20 -8 -28t-28 -8h-448
q-20 0 -28 8t-8 28v104q0 20 8 28t28 8h448z" />
    <glyph glyph-name="Oslash" unicode="&#xd8;" horiz-adv-x="1428" 
d="M714 1190q-95 0 -158 -42.5t-100.5 -115t-52.5 -168.5t-15 -202q0 -80 7 -153.5t27 -136.5l514 714q-38 48 -92.5 76t-129.5 28zM490 236q38 -48 92.5 -75t131.5 -27q95 0 158 42t100.5 114t52.5 168t15 204q0 80 -8 153.5t-28 136.5zM106 -120q-17 0 -21 8t5 22l170 236
q-50 49 -85.5 108t-59 125t-34.5 137.5t-11 145.5q0 132 38 255t117 218t200.5 152t288.5 57q106 0 191.5 -22.5t154.5 -63.5l112 156q12 17 25 23.5t33 6.5h92q17 0 21 -8t-7 -22l-170 -236q50 -49 86.5 -108.5t60 -125.5t34.5 -137.5t11 -144.5q0 -87 -16.5 -172
t-51 -160.5t-87 -139.5t-124 -111t-163 -73t-202.5 -26q-107 0 -193 22.5t-155 61.5l-112 -154q-11 -17 -23.5 -23.5t-32.5 -6.5h-92z" />
    <glyph glyph-name="OE" unicode="&#x152;" horiz-adv-x="1862" 
d="M896 1174h-128q-101 0 -174 -37.5t-120 -106.5t-69.5 -166.5t-22.5 -217.5t20.5 -212.5t65.5 -155.5t116 -95.5t172 -32.5h140v1024zM1492 448q-20 0 -28 8t-8 28v114h-252v-448h392l40 192q5 20 14.5 28t29.5 8h72q20 0 28 -8t6 -28l-10 -306q-2 -20 -10 -28t-28 -8
h-1020q-152 0 -273 46t-205.5 130t-130 203.5t-45.5 266.5q0 148 47.5 272.5t134.5 214.5t210 140.5t274 50.5h986q20 0 28 -8t10 -28l8 -278q2 -20 -6 -28t-28 -8h-72q-20 0 -29.5 8t-14.5 28l-38 164h-370v-432h252v112q0 20 8 28t28 8h72q20 0 28 -8t8 -28v-370
q0 -20 -8 -28t-28 -8h-72z" />
    <glyph glyph-name="Racute" unicode="&#x154;" horiz-adv-x="1360" 
d="M504 674h148q63 0 107 18.5t72 51.5t40.5 79.5t12.5 102.5t-12.5 102t-40.5 79t-72 51t-107 18h-148v-502zM610 142q20 0 28 -8t8 -28v-70q0 -20 -8 -28t-28 -8h-500q-20 0 -28 8t-8 28v70q0 20 8 28t28 8h86v1040h-86q-20 0 -28 8t-8 28v70q0 20 8 28t28 8h578
q135 0 232 -27.5t160 -78t92.5 -121t29.5 -155.5q0 -273 -288 -342q54 -47 99.5 -101.5t83.5 -113.5t68.5 -120.5t54.5 -122.5h80q20 0 28 -8t8 -28v-70q0 -20 -8 -28t-28 -8h-318q-20 0 -30 8t-18 26q-23 63 -53.5 130.5t-67 132.5t-79.5 124.5t-92 106.5h-138v-386h106z
M580 1416q-12 -6 -24 -6q-8 0 -15 3.5t-15 14.5l-20 28q-6 9 -9 14.5t-3 11.5q0 12 16 28l286 290q8 8 13 10t11 2t12 -2.5t12 -11.5l106 -146q10 -13 10 -20q0 -14 -20 -24z" />
    <glyph glyph-name="Rcaron" unicode="&#x158;" horiz-adv-x="1360" 
d="M504 674h148q63 0 107 18.5t72 51.5t40.5 79.5t12.5 102.5t-12.5 102t-40.5 79t-72 51t-107 18h-148v-502zM610 142q20 0 28 -8t8 -28v-70q0 -20 -8 -28t-28 -8h-500q-20 0 -28 8t-8 28v70q0 20 8 28t28 8h86v1040h-86q-20 0 -28 8t-8 28v70q0 20 8 28t28 8h578
q135 0 232 -27.5t160 -78t92.5 -121t29.5 -155.5q0 -273 -288 -342q54 -47 99.5 -101.5t83.5 -113.5t68.5 -120.5t54.5 -122.5h80q20 0 28 -8t8 -28v-70q0 -20 -8 -28t-28 -8h-318q-20 0 -30 8t-18 26q-23 63 -53.5 130.5t-67 132.5t-79.5 124.5t-92 106.5h-138v-386h106z
M692 1448q-15 -12 -28 -12t-28 12l-264 214q-14 11 -17 16.5t-3 13.5q0 10 12 28l14 22q8 12 14.5 18t15.5 6q3 0 8 -0.5t16 -5.5l232 -94l232 94q11 5 16 5.5t8 0.5q9 0 15.5 -6t14.5 -18l14 -22q12 -18 12 -28q0 -8 -3 -13.5t-17 -16.5z" />
    <glyph glyph-name="Rcommaaccent" unicode="&#x156;" horiz-adv-x="1360" 
d="M504 674h148q63 0 107 18.5t72 51.5t40.5 79.5t12.5 102.5t-12.5 102t-40.5 79t-72 51t-107 18h-148v-502zM610 142q20 0 28 -8t8 -28v-70q0 -20 -8 -28t-28 -8h-500q-20 0 -28 8t-8 28v70q0 20 8 28t28 8h86v1040h-86q-20 0 -28 8t-8 28v70q0 20 8 28t28 8h578
q135 0 232 -27.5t160 -78t92.5 -121t29.5 -155.5q0 -273 -288 -342q54 -47 99.5 -101.5t83.5 -113.5t68.5 -120.5t54.5 -122.5h80q20 0 28 -8t8 -28v-70q0 -20 -8 -28t-28 -8h-318q-20 0 -30 8t-18 26q-23 63 -53.5 130.5t-67 132.5t-79.5 124.5t-92 106.5h-138v-386h106z
M656 -430q-18 -12 -27.5 -16t-18.5 -4q-8 0 -15.5 3.5t-18.5 14.5l-4 4q-8 8 -11 12t-3 12t5 14t13 14l38.5 38t35.5 42q-39 15 -62.5 45t-23.5 69q0 23 8.5 45t26 39t43 27.5t60.5 10.5q66 0 104 -39t38 -99q0 -37 -18.5 -70.5t-46.5 -63.5t-61 -54.5t-62 -43.5z" />
    <glyph glyph-name="Scaron" unicode="&#x160;" horiz-adv-x="1142" 
d="M1078 394q0 -103 -39.5 -180.5t-110.5 -129.5t-169 -78t-215 -26q-115 0 -202.5 23.5t-146.5 64.5t-89 96.5t-30 119.5q0 69 35 111.5t109 42.5q29 0 54 -7.5t43 -23t28.5 -39.5t10.5 -56q0 -39 -15.5 -68t-50.5 -52q44 -32 104.5 -49t129.5 -17q43 0 94.5 8.5t95 29.5
t73 55.5t29.5 86.5q0 49 -26.5 81.5t-71 56.5t-103.5 43l-123 41l-77.5 25.5t-86 33.5t-85 48t-74 69t-52 96.5t-19.5 131.5q0 106 39 183.5t107.5 128.5t161.5 75.5t200 24.5q106 0 188 -22.5t138.5 -62.5t86 -94t29.5 -117q0 -69 -35.5 -113.5t-106.5 -44.5q-29 0 -55 8.5
t-45.5 25t-30.5 41.5t-11 57q0 39 16.5 67t51.5 49q-44 30 -99 45t-115 15q-45 0 -91 -10t-83 -31.5t-60.5 -55.5t-23.5 -83t24.5 -81.5t67.5 -56.5t102 -43.5l128 -42.5q32 -11 74 -24t86 -33t86.5 -48t75.5 -68.5t53.5 -96.5t20.5 -130zM616 1448q-15 -12 -28 -12t-28 12
l-264 214q-14 11 -17 16.5t-3 13.5q0 10 12 28l14 22q8 12 14.5 18t15.5 6q3 0 8 -0.5t16 -5.5l232 -94l232 94q11 5 16 5.5t8 0.5q9 0 15.5 -6t14.5 -18l14 -22q12 -18 12 -28q0 -8 -3 -13.5t-17 -16.5z" />
    <glyph glyph-name="Sacute" unicode="&#x15a;" horiz-adv-x="1142" 
d="M1078 394q0 -103 -39.5 -180.5t-110.5 -129.5t-169 -78t-215 -26q-115 0 -202.5 23.5t-146.5 64.5t-89 96.5t-30 119.5q0 69 35 111.5t109 42.5q29 0 54 -7.5t43 -23t28.5 -39.5t10.5 -56q0 -39 -15.5 -68t-50.5 -52q44 -32 104.5 -49t129.5 -17q43 0 94.5 8.5t95 29.5
t73 55.5t29.5 86.5q0 49 -26.5 81.5t-71 56.5t-103.5 43l-123 41l-77.5 25.5t-86 33.5t-85 48t-74 69t-52 96.5t-19.5 131.5q0 106 39 183.5t107.5 128.5t161.5 75.5t200 24.5q106 0 188 -22.5t138.5 -62.5t86 -94t29.5 -117q0 -69 -35.5 -113.5t-106.5 -44.5q-29 0 -55 8.5
t-45.5 25t-30.5 41.5t-11 57q0 39 16.5 67t51.5 49q-44 30 -99 45t-115 15q-45 0 -91 -10t-83 -31.5t-60.5 -55.5t-23.5 -83t24.5 -81.5t67.5 -56.5t102 -43.5l128 -42.5q32 -11 74 -24t86 -33t86.5 -48t75.5 -68.5t53.5 -96.5t20.5 -130zM504 1416q-12 -6 -24 -6
q-8 0 -15 3.5t-15 14.5l-20 28q-6 9 -9 14.5t-3 11.5q0 12 16 28l286 290q8 8 13 10t11 2t12 -2.5t12 -11.5l106 -146q10 -13 10 -20q0 -14 -20 -24z" />
    <glyph glyph-name="Scedilla" unicode="&#x15e;" horiz-adv-x="1142" 
d="M554 -420q-52 0 -93 11.5t-69.5 30.5t-44 44t-15.5 52q0 30 20.5 54t53.5 24q29 0 50.5 -18.5t21.5 -45.5q0 -18 -9 -32.5t-23 -25.5q18 -12 38.5 -17t41.5 -5q56 0 80 22.5t24 57.5q0 47 -44 72.5t-118 39.5q-36 6 -20 38l46 100q-103 4 -181 29.5t-130.5 66t-79.5 93.5
t-27 113q0 69 35 111.5t109 42.5q29 0 54 -7.5t43 -23t28.5 -39.5t10.5 -56q0 -39 -15.5 -68t-50.5 -52q44 -32 104.5 -49t129.5 -17q43 0 94.5 8.5t95 29.5t73 55.5t29.5 86.5q0 49 -26.5 81.5t-71 56.5t-103.5 43l-123 41l-77.5 25.5t-86 33.5t-85 48t-74 69t-52 96.5
t-19.5 131.5q0 106 39 183.5t107.5 128.5t161.5 75.5t200 24.5q106 0 188 -22.5t138.5 -62.5t86 -94t29.5 -117q0 -69 -35.5 -113.5t-106.5 -44.5q-29 0 -55 8.5t-45.5 25t-30.5 41.5t-11 57q0 39 16.5 67t51.5 49q-44 30 -99 45t-115 15q-45 0 -91 -10t-83 -31.5
t-60.5 -55.5t-23.5 -83t24.5 -81.5t67.5 -56.5t102 -43.5l128 -42.5q32 -11 74 -24t86 -33t86.5 -48t75.5 -68.5t53.5 -96.5t20.5 -130q0 -98 -36 -172.5t-100.5 -126.5t-154.5 -80.5t-199 -32.5l-24 -52q43 -2 84 -13t73 -32.5t51.5 -54t19.5 -76.5t-18 -76.5t-49.5 -54
t-75 -32.5t-95.5 -11z" />
    <glyph glyph-name="Scircumflex" unicode="&#x15c;" horiz-adv-x="1142" 
d="M1078 394q0 -103 -39.5 -180.5t-110.5 -129.5t-169 -78t-215 -26q-115 0 -202.5 23.5t-146.5 64.5t-89 96.5t-30 119.5q0 69 35 111.5t109 42.5q29 0 54 -7.5t43 -23t28.5 -39.5t10.5 -56q0 -39 -15.5 -68t-50.5 -52q44 -32 104.5 -49t129.5 -17q43 0 94.5 8.5t95 29.5
t73 55.5t29.5 86.5q0 49 -26.5 81.5t-71 56.5t-103.5 43l-123 41l-77.5 25.5t-86 33.5t-85 48t-74 69t-52 96.5t-19.5 131.5q0 106 39 183.5t107.5 128.5t161.5 75.5t200 24.5q106 0 188 -22.5t138.5 -62.5t86 -94t29.5 -117q0 -69 -35.5 -113.5t-106.5 -44.5q-29 0 -55 8.5
t-45.5 25t-30.5 41.5t-11 57q0 39 16.5 67t51.5 49q-44 30 -99 45t-115 15q-45 0 -91 -10t-83 -31.5t-60.5 -55.5t-23.5 -83t24.5 -81.5t67.5 -56.5t102 -43.5l128 -42.5q32 -11 74 -24t86 -33t86.5 -48t75.5 -68.5t53.5 -96.5t20.5 -130zM880 1538q14 -11 17 -16.5t3 -13.5
q0 -10 -12 -28l-14 -22q-8 -12 -14.5 -18t-15.5 -6q-3 0 -8 0.5t-16 5.5l-232 94l-232 -94q-11 -5 -16 -5.5t-8 -0.5q-9 0 -15.5 6t-14.5 18l-14 22q-12 18 -12 28q0 8 3 13.5t17 16.5l264 214q15 12 28 12t28 -12l264 -214v0z" />
    <glyph glyph-name="Scommaaccent" unicode="&#x218;" horiz-adv-x="1142" 
d="M1078 394q0 -103 -39.5 -180.5t-110.5 -129.5t-169 -78t-215 -26q-115 0 -202.5 23.5t-146.5 64.5t-89 96.5t-30 119.5q0 69 35 111.5t109 42.5q29 0 54 -7.5t43 -23t28.5 -39.5t10.5 -56q0 -39 -15.5 -68t-50.5 -52q44 -32 104.5 -49t129.5 -17q43 0 94.5 8.5t95 29.5
t73 55.5t29.5 86.5q0 49 -26.5 81.5t-71 56.5t-103.5 43l-123 41l-77.5 25.5t-86 33.5t-85 48t-74 69t-52 96.5t-19.5 131.5q0 106 39 183.5t107.5 128.5t161.5 75.5t200 24.5q106 0 188 -22.5t138.5 -62.5t86 -94t29.5 -117q0 -69 -35.5 -113.5t-106.5 -44.5q-29 0 -55 8.5
t-45.5 25t-30.5 41.5t-11 57q0 39 16.5 67t51.5 49q-44 30 -99 45t-115 15q-45 0 -91 -10t-83 -31.5t-60.5 -55.5t-23.5 -83t24.5 -81.5t67.5 -56.5t102 -43.5l128 -42.5q32 -11 74 -24t86 -33t86.5 -48t75.5 -68.5t53.5 -96.5t20.5 -130zM496 -430q-18 -12 -27.5 -16
t-18.5 -4q-8 0 -15.5 3.5t-18.5 14.5l-4 4q-8 8 -11 12t-3 12t5 14t13 14l38.5 38t35.5 42q-39 15 -62.5 45t-23.5 69q0 23 8.5 45t26 39t43 27.5t60.5 10.5q66 0 104 -39t38 -99q0 -37 -18.5 -70.5t-46.5 -63.5t-61 -54.5t-62 -43.5z" />
    <glyph glyph-name="Thorn" unicode="&#xde;" horiz-adv-x="1210" 
d="M110 0q-20 0 -28 8t-8 28v70q0 20 8 28t28 8h86v1040h-86q-20 0 -28 8t-8 28v70q0 20 8 28t28 8h358q20 0 28 -8t8 -28v-156h116q145 0 250 -28t172.5 -80.5t99.5 -127t32 -166.5t-35 -169.5t-104.5 -133t-173.5 -86.5t-243 -31h-114v-168h104q20 0 28 -8t8 -28v-70
q0 -20 -8 -28t-28 -8h-498zM856 722q0 61 -14 110t-44.5 82.5t-80 51.5t-119.5 18h-94v-526h94q70 0 119 18.5t80 53t45 83t14 109.5z" />
    <glyph glyph-name="Tbar" unicode="&#x166;" horiz-adv-x="1236" 
d="M878 142q20 0 28 -8t8 -28v-70q0 -20 -8 -28t-28 -8h-518q-20 0 -28 8t-8 28v70q0 20 8 28t28 8h104v452h-202q-20 0 -28 8t-8 28v70q0 20 8 28t28 8h202v438h-244l-38 -192q-5 -20 -14.5 -28t-29.5 -8h-72q-20 0 -28 8t-6 28l10 306q2 20 10 28t28 8h1076q20 0 28 -8
t10 -28l10 -306q2 -20 -6 -28t-28 -8h-72q-20 0 -29.5 8t-14.5 28l-40 192h-242v-438h202q20 0 28 -8t8 -28v-70q0 -20 -8 -28t-28 -8h-202v-452h106z" />
    <glyph glyph-name="Tcaron" unicode="&#x164;" horiz-adv-x="1236" 
d="M360 0q-20 0 -28 8t-8 28v70q0 20 8 28t28 8h104v1032h-244l-38 -192q-5 -20 -14.5 -28t-29.5 -8h-72q-20 0 -28 8t-6 28l10 306q2 20 10 28t28 8h1076q20 0 28 -8t10 -28l10 -306q2 -20 -6 -28t-28 -8h-72q-20 0 -29.5 8t-14.5 28l-40 192h-242v-1032h106q20 0 28 -8
t8 -28v-70q0 -20 -8 -28t-28 -8h-518zM646 1448q-15 -12 -28 -12t-28 12l-264 214q-14 11 -17 16.5t-3 13.5q0 10 12 28l14 22q8 12 14.5 18t15.5 6q3 0 8 -0.5t16 -5.5l232 -94l232 94q11 5 16 5.5t8 0.5q9 0 15.5 -6t14.5 -18l14 -22q12 -18 12 -28q0 -8 -3 -13.5
t-17 -16.5z" />
    <glyph glyph-name="Tcommaaccent" unicode="&#x162;" horiz-adv-x="1236" 
d="M360 0q-20 0 -28 8t-8 28v70q0 20 8 28t28 8h104v1032h-244l-38 -192q-5 -20 -14.5 -28t-29.5 -8h-72q-20 0 -28 8t-6 28l10 306q2 20 10 28t28 8h1076q20 0 28 -8t10 -28l10 -306q2 -20 -6 -28t-28 -8h-72q-20 0 -29.5 8t-14.5 28l-40 192h-242v-1032h106q20 0 28 -8
t8 -28v-70q0 -20 -8 -28t-28 -8h-518zM570 -430q-18 -12 -27.5 -16t-18.5 -4q-8 0 -15.5 3.5t-18.5 14.5l-4 4q-8 8 -11 12t-3 12t5 14t13 14l38.5 38t35.5 42q-39 15 -62.5 45t-23.5 69q0 23 8.5 45t26 39t43 27.5t60.5 10.5q66 0 104 -39t38 -99q0 -37 -18.5 -70.5
t-46.5 -63.5t-61 -54.5t-62 -43.5z" />
    <glyph glyph-name="uni021A" unicode="&#x21a;" horiz-adv-x="1236" 
d="M360 0q-20 0 -28 8t-8 28v70q0 20 8 28t28 8h104v1032h-244l-38 -192q-5 -20 -14.5 -28t-29.5 -8h-72q-20 0 -28 8t-6 28l10 306q2 20 10 28t28 8h1076q20 0 28 -8t10 -28l10 -306q2 -20 -6 -28t-28 -8h-72q-20 0 -29.5 8t-14.5 28l-40 192h-242v-1032h106q20 0 28 -8
t8 -28v-70q0 -20 -8 -28t-28 -8h-518zM570 -430q-18 -12 -27.5 -16t-18.5 -4q-8 0 -15.5 3.5t-18.5 14.5l-4 4q-8 8 -11 12t-3 12t5 14t13 14l38.5 38t35.5 42q-39 15 -62.5 45t-23.5 69q0 23 8.5 45t26 39t43 27.5t60.5 10.5q66 0 104 -39t38 -99q0 -37 -18.5 -70.5
t-46.5 -63.5t-61 -54.5t-62 -43.5z" />
    <glyph glyph-name="Udieresis" unicode="&#xdc;" horiz-adv-x="1356" 
d="M1180 502q0 -122 -27 -218.5t-83.5 -164t-144.5 -103.5t-209 -36q-144 0 -246.5 31t-167.5 94t-95.5 159.5t-30.5 227.5v690h-86q-20 0 -28 8t-8 28v70q0 20 8 28t28 8h480q20 0 28 -8t8 -28v-70q0 -20 -8 -28t-28 -8h-86v-726q0 -151 66.5 -231.5t197.5 -80.5
q132 0 197 82.5t65 229.5v726h-86q-20 0 -28 8t-8 28v70q0 20 8 28t28 8h342q20 0 28 -8t8 -28v-70q0 -20 -8 -28t-28 -8h-86v-680v0zM1062 1590q0 -29 -10 -54t-28 -43.5t-44.5 -29.5t-59.5 -11t-59.5 11t-44.5 29.5t-28 43.5t-10 54q0 28 10 53.5t28 44t44.5 29.5t59.5 11
t59.5 -11t44.5 -29.5t28 -44t10 -53.5zM650 1590q0 -29 -10 -54t-28 -43.5t-44.5 -29.5t-59.5 -11t-59.5 11t-44.5 29.5t-28 43.5t-10 54q0 28 10 53.5t28 44t44.5 29.5t59.5 11t59.5 -11t44.5 -29.5t28 -44t10 -53.5z" />
    <glyph glyph-name="Uacute" unicode="&#xda;" horiz-adv-x="1356" 
d="M1180 502q0 -122 -27 -218.5t-83.5 -164t-144.5 -103.5t-209 -36q-144 0 -246.5 31t-167.5 94t-95.5 159.5t-30.5 227.5v690h-86q-20 0 -28 8t-8 28v70q0 20 8 28t28 8h480q20 0 28 -8t8 -28v-70q0 -20 -8 -28t-28 -8h-86v-726q0 -151 66.5 -231.5t197.5 -80.5
q132 0 197 82.5t65 229.5v726h-86q-20 0 -28 8t-8 28v70q0 20 8 28t28 8h342q20 0 28 -8t8 -28v-70q0 -20 -8 -28t-28 -8h-86v-680v0zM636 1416q-12 -6 -24 -6q-8 0 -15 3.5t-15 14.5l-20 28q-6 9 -9 14.5t-3 11.5q0 12 16 28l286 290q8 8 13 10t11 2t12 -2.5t12 -11.5
l106 -146q10 -13 10 -20q0 -14 -20 -24z" />
    <glyph glyph-name="Ucircumflex" unicode="&#xdb;" horiz-adv-x="1356" 
d="M1180 502q0 -122 -27 -218.5t-83.5 -164t-144.5 -103.5t-209 -36q-144 0 -246.5 31t-167.5 94t-95.5 159.5t-30.5 227.5v690h-86q-20 0 -28 8t-8 28v70q0 20 8 28t28 8h480q20 0 28 -8t8 -28v-70q0 -20 -8 -28t-28 -8h-86v-726q0 -151 66.5 -231.5t197.5 -80.5
q132 0 197 82.5t65 229.5v726h-86q-20 0 -28 8t-8 28v70q0 20 8 28t28 8h342q20 0 28 -8t8 -28v-70q0 -20 -8 -28t-28 -8h-86v-680v0zM1012 1538q14 -11 17 -16.5t3 -13.5q0 -10 -12 -28l-14 -22q-8 -12 -14.5 -18t-15.5 -6q-3 0 -8 0.5t-16 5.5l-232 94l-232 -94
q-11 -5 -16 -5.5t-8 -0.5q-9 0 -15.5 6t-14.5 18l-14 22q-12 18 -12 28q0 8 3 13.5t17 16.5l264 214q15 12 28 12t28 -12l264 -214v0z" />
    <glyph glyph-name="Ugrave" unicode="&#xd9;" horiz-adv-x="1356" 
d="M1180 502q0 -122 -27 -218.5t-83.5 -164t-144.5 -103.5t-209 -36q-144 0 -246.5 31t-167.5 94t-95.5 159.5t-30.5 227.5v690h-86q-20 0 -28 8t-8 28v70q0 20 8 28t28 8h480q20 0 28 -8t8 -28v-70q0 -20 -8 -28t-28 -8h-86v-726q0 -151 66.5 -231.5t197.5 -80.5
q132 0 197 82.5t65 229.5v726h-86q-20 0 -28 8t-8 28v70q0 20 8 28t28 8h342q20 0 28 -8t8 -28v-70q0 -20 -8 -28t-28 -8h-86v-680v0zM874 1510q16 -16 16 -28q0 -11 -10 -24l-26 -34q-11 -14 -26 -14q-10 0 -26 8l-356 188q-14 8 -18 13t-4 13q0 9 10 22l104 140
q9 12 14.5 15t11.5 3q12 0 24 -12z" />
    <glyph glyph-name="Ubreve" unicode="&#x16c;" horiz-adv-x="1356" 
d="M1180 502q0 -122 -27 -218.5t-83.5 -164t-144.5 -103.5t-209 -36q-144 0 -246.5 31t-167.5 94t-95.5 159.5t-30.5 227.5v690h-86q-20 0 -28 8t-8 28v70q0 20 8 28t28 8h480q20 0 28 -8t8 -28v-70q0 -20 -8 -28t-28 -8h-86v-726q0 -151 66.5 -231.5t197.5 -80.5
q132 0 197 82.5t65 229.5v726h-86q-20 0 -28 8t-8 28v70q0 20 8 28t28 8h342q20 0 28 -8t8 -28v-70q0 -20 -8 -28t-28 -8h-86v-680v0zM720 1436q-54 0 -101 17.5t-85 47.5t-65.5 69.5t-42.5 83.5q-5 14 -6.5 20t-1.5 12q0 20 24 32l36 16q11 5 15 5.5t9 0.5q16 0 30 -22
q18 -26 41 -44.5t48.5 -30.5t50.5 -17.5t48 -5.5q22 0 47.5 5.5t51 17.5t48.5 30.5t41 44.5q14 22 30 22q5 0 9 -0.5t15 -5.5l36 -16q24 -12 24 -32q0 -6 -1.5 -12t-6.5 -20q-15 -44 -42.5 -83.5t-65.5 -69.5t-85 -47.5t-101 -17.5z" />
    <glyph glyph-name="Uhungarumlaut" unicode="&#x170;" horiz-adv-x="1356" 
d="M1180 502q0 -122 -27 -218.5t-83.5 -164t-144.5 -103.5t-209 -36q-144 0 -246.5 31t-167.5 94t-95.5 159.5t-30.5 227.5v690h-86q-20 0 -28 8t-8 28v70q0 20 8 28t28 8h480q20 0 28 -8t8 -28v-70q0 -20 -8 -28t-28 -8h-86v-726q0 -151 66.5 -231.5t197.5 -80.5
q132 0 197 82.5t65 229.5v726h-86q-20 0 -28 8t-8 28v70q0 20 8 28t28 8h342q20 0 28 -8t8 -28v-70q0 -20 -8 -28t-28 -8h-86v-680v0zM922 1416q-16 -16 -30 -16q-10 0 -28 12l-20 14q-14 9 -18 16t-4 16q0 10 6 22l148 306q9 20 24 20q9 0 22 -10l134 -98q11 -8 13.5 -13.5
t2.5 -10.5q0 -12 -12 -24zM554 1416q-16 -16 -30 -16q-10 0 -28 12l-20 14q-14 9 -18 16t-4 16q0 10 6 22l148 306q9 20 24 20q9 0 22 -10l134 -98q11 -8 13.5 -13.5t2.5 -10.5q0 -12 -12 -24z" />
    <glyph glyph-name="Umacron" unicode="&#x16a;" horiz-adv-x="1356" 
d="M1180 502q0 -122 -27 -218.5t-83.5 -164t-144.5 -103.5t-209 -36q-144 0 -246.5 31t-167.5 94t-95.5 159.5t-30.5 227.5v690h-86q-20 0 -28 8t-8 28v70q0 20 8 28t28 8h480q20 0 28 -8t8 -28v-70q0 -20 -8 -28t-28 -8h-86v-726q0 -151 66.5 -231.5t197.5 -80.5
q132 0 197 82.5t65 229.5v726h-86q-20 0 -28 8t-8 28v70q0 20 8 28t28 8h342q20 0 28 -8t8 -28v-70q0 -20 -8 -28t-28 -8h-86v-680v0zM944 1648q20 0 28 -8t8 -28v-104q0 -20 -8 -28t-28 -8h-448q-20 0 -28 8t-8 28v104q0 20 8 28t28 8h448z" />
    <glyph glyph-name="Uogonek" unicode="&#x172;" horiz-adv-x="1356" 
d="M794 -296q42 0 80 16q20 8 30.5 5.5t19.5 -17.5l8 -14q9 -15 8 -29t-16 -25q-38 -29 -86.5 -44.5t-105.5 -15.5q-44 0 -83 12t-67.5 34t-45 53.5t-16.5 70.5q0 31 10 64t31.5 63.5t55.5 57.5t81 47q-140 1 -239 34.5t-162 98t-92 159.5t-29 218v690h-86q-20 0 -28 8
t-8 28v70q0 20 8 28t28 8h480q20 0 28 -8t8 -28v-70q0 -20 -8 -28t-28 -8h-86v-726q0 -151 66.5 -231.5t197.5 -80.5q132 0 197 82.5t65 229.5v726h-86q-20 0 -28 8t-8 28v70q0 20 8 28t28 8h342q20 0 28 -8t8 -28v-70q0 -20 -8 -28t-28 -8h-86v-680q0 -108 -21 -189.5
t-59 -141t-90.5 -100t-115.5 -65.5q-55 -23 -92.5 -45.5t-60.5 -48t-33 -54t-10 -62.5q0 -45 24.5 -68.5t71.5 -23.5z" />
    <glyph glyph-name="Uring" unicode="&#x16e;" horiz-adv-x="1356" 
d="M1180 502q0 -122 -27 -218.5t-83.5 -164t-144.5 -103.5t-209 -36q-144 0 -246.5 31t-167.5 94t-95.5 159.5t-30.5 227.5v690h-86q-20 0 -28 8t-8 28v70q0 20 8 28t28 8h480q20 0 28 -8t8 -28v-70q0 -20 -8 -28t-28 -8h-86v-726q0 -151 66.5 -231.5t197.5 -80.5
q132 0 197 82.5t65 229.5v726h-86q-20 0 -28 8t-8 28v70q0 20 8 28t28 8h342q20 0 28 -8t8 -28v-70q0 -20 -8 -28t-28 -8h-86v-680v0zM972 1642q0 -56 -20 -101.5t-54.5 -78t-80 -50.5t-97.5 -18t-97.5 18t-80 50.5t-54.5 78t-20 101.5q0 55 20 101t54.5 78.5t80 50.5
t97.5 18t97.5 -18t80 -50.5t54.5 -78.5t20 -101zM602 1642q0 -56 33.5 -89t84.5 -33t84.5 33t33.5 89t-33.5 89t-84.5 33t-84.5 -33t-33.5 -89z" />
    <glyph glyph-name="Utilde" unicode="&#x168;" horiz-adv-x="1356" 
d="M1180 502q0 -122 -27 -218.5t-83.5 -164t-144.5 -103.5t-209 -36q-144 0 -246.5 31t-167.5 94t-95.5 159.5t-30.5 227.5v690h-86q-20 0 -28 8t-8 28v70q0 20 8 28t28 8h480q20 0 28 -8t8 -28v-70q0 -20 -8 -28t-28 -8h-86v-726q0 -151 66.5 -231.5t197.5 -80.5
q132 0 197 82.5t65 229.5v726h-86q-20 0 -28 8t-8 28v70q0 20 8 28t28 8h342q20 0 28 -8t8 -28v-70q0 -20 -8 -28t-28 -8h-86v-680v0zM400 1540q13 31 32 62.5t45.5 57t60.5 42t76 16.5q39 0 70 -13.5t58.5 -29.5t54 -29.5t57.5 -13.5q24 0 45.5 11t42.5 37q15 18 28 18
q6 0 10.5 -2t15.5 -8l28 -16q22 -14 22 -32q0 -7 -6 -22q-12 -29 -31 -60.5t-46 -57t-61 -42t-76 -16.5q-39 0 -70 13.5t-58.5 29.5t-54 29.5t-57.5 13.5q-24 0 -44.5 -11t-41.5 -37q-15 -18 -28 -18q-6 0 -10.5 2t-15.5 8l-28 16q-14 8 -19 14.5t-5 15.5q0 7 6 22z" />
    <glyph glyph-name="Wacute" unicode="&#x1e82;" horiz-adv-x="2098" 
d="M1392 0q-20 0 -31.5 7.5t-20.5 24.5q-77 169 -147.5 368t-138.5 412q-69 -213 -144 -412t-152 -368q-9 -17 -20.5 -24.5t-31.5 -7.5h-136q-20 0 -31 7.5t-19 24.5q-52 121 -102 259t-97.5 285.5t-92 300.5t-84.5 305h-84q-20 0 -28 8t-8 28v70q0 20 8 28t28 8h512
q20 0 28 -8t8 -28v-70q0 -20 -8 -28t-28 -8h-102l113 -442.5t125 -417.5q75 201 141 417.5t125 442.5h-100q-20 0 -28 8t-8 28v70q0 20 8 28t28 8h470q20 0 28 -8t8 -28v-70q0 -20 -8 -28t-28 -8h-96q59 -226 126 -442.5t144 -415.5q65 199 121.5 415.5l112.5 442.5h-106
q-20 0 -28 8t-8 28v70q0 20 8 28t28 8h392q20 0 28 -8t8 -28v-70q0 -20 -8 -28t-28 -8h-88l-85 -305l-90.5 -300.5t-95.5 -285t-99 -257.5q-8 -18 -19 -26t-31 -8h-138zM1024 1416q-12 -6 -24 -6q-8 0 -15 3.5t-15 14.5l-20 28q-6 9 -9 14.5t-3 11.5q0 12 16 28l286 290
q8 8 13 10t11 2t12 -2.5t12 -11.5l106 -146q10 -13 10 -20q0 -14 -20 -24z" />
    <glyph glyph-name="Wcircumflex" unicode="&#x174;" horiz-adv-x="2098" 
d="M1392 0q-20 0 -31.5 7.5t-20.5 24.5q-77 169 -147.5 368t-138.5 412q-69 -213 -144 -412t-152 -368q-9 -17 -20.5 -24.5t-31.5 -7.5h-136q-20 0 -31 7.5t-19 24.5q-52 121 -102 259t-97.5 285.5t-92 300.5t-84.5 305h-84q-20 0 -28 8t-8 28v70q0 20 8 28t28 8h512
q20 0 28 -8t8 -28v-70q0 -20 -8 -28t-28 -8h-102l113 -442.5t125 -417.5q75 201 141 417.5t125 442.5h-100q-20 0 -28 8t-8 28v70q0 20 8 28t28 8h470q20 0 28 -8t8 -28v-70q0 -20 -8 -28t-28 -8h-96q59 -226 126 -442.5t144 -415.5q65 199 121.5 415.5l112.5 442.5h-106
q-20 0 -28 8t-8 28v70q0 20 8 28t28 8h392q20 0 28 -8t8 -28v-70q0 -20 -8 -28t-28 -8h-88l-85 -305l-90.5 -300.5t-95.5 -285t-99 -257.5q-8 -18 -19 -26t-31 -8h-138zM1400 1538q14 -11 17 -16.5t3 -13.5q0 -10 -12 -28l-14 -22q-8 -12 -14.5 -18t-15.5 -6q-3 0 -8 0.5
t-16 5.5l-232 94l-232 -94q-11 -5 -16 -5.5t-8 -0.5q-9 0 -15.5 6t-14.5 18l-14 22q-12 18 -12 28q0 8 3 13.5t17 16.5l264 214q15 12 28 12t28 -12l264 -214v0z" />
    <glyph glyph-name="Wdieresis" unicode="&#x1e84;" horiz-adv-x="2098" 
d="M1392 0q-20 0 -31.5 7.5t-20.5 24.5q-77 169 -147.5 368t-138.5 412q-69 -213 -144 -412t-152 -368q-9 -17 -20.5 -24.5t-31.5 -7.5h-136q-20 0 -31 7.5t-19 24.5q-52 121 -102 259t-97.5 285.5t-92 300.5t-84.5 305h-84q-20 0 -28 8t-8 28v70q0 20 8 28t28 8h512
q20 0 28 -8t8 -28v-70q0 -20 -8 -28t-28 -8h-102l113 -442.5t125 -417.5q75 201 141 417.5t125 442.5h-100q-20 0 -28 8t-8 28v70q0 20 8 28t28 8h470q20 0 28 -8t8 -28v-70q0 -20 -8 -28t-28 -8h-96q59 -226 126 -442.5t144 -415.5q65 199 121.5 415.5l112.5 442.5h-106
q-20 0 -28 8t-8 28v70q0 20 8 28t28 8h392q20 0 28 -8t8 -28v-70q0 -20 -8 -28t-28 -8h-88l-85 -305l-90.5 -300.5t-95.5 -285t-99 -257.5q-8 -18 -19 -26t-31 -8h-138zM1450 1590q0 -29 -10 -54t-28 -43.5t-44.5 -29.5t-59.5 -11t-59.5 11t-44.5 29.5t-28 43.5t-10 54
q0 28 10 53.5t28 44t44.5 29.5t59.5 11t59.5 -11t44.5 -29.5t28 -44t10 -53.5zM1038 1590q0 -29 -10 -54t-28 -43.5t-44.5 -29.5t-59.5 -11t-59.5 11t-44.5 29.5t-28 43.5t-10 54q0 28 10 53.5t28 44t44.5 29.5t59.5 11t59.5 -11t44.5 -29.5t28 -44t10 -53.5z" />
    <glyph glyph-name="Wgrave" unicode="&#x1e80;" horiz-adv-x="2098" 
d="M1392 0q-20 0 -31.5 7.5t-20.5 24.5q-77 169 -147.5 368t-138.5 412q-69 -213 -144 -412t-152 -368q-9 -17 -20.5 -24.5t-31.5 -7.5h-136q-20 0 -31 7.5t-19 24.5q-52 121 -102 259t-97.5 285.5t-92 300.5t-84.5 305h-84q-20 0 -28 8t-8 28v70q0 20 8 28t28 8h512
q20 0 28 -8t8 -28v-70q0 -20 -8 -28t-28 -8h-102l113 -442.5t125 -417.5q75 201 141 417.5t125 442.5h-100q-20 0 -28 8t-8 28v70q0 20 8 28t28 8h470q20 0 28 -8t8 -28v-70q0 -20 -8 -28t-28 -8h-96q59 -226 126 -442.5t144 -415.5q65 199 121.5 415.5l112.5 442.5h-106
q-20 0 -28 8t-8 28v70q0 20 8 28t28 8h392q20 0 28 -8t8 -28v-70q0 -20 -8 -28t-28 -8h-88l-85 -305l-90.5 -300.5t-95.5 -285t-99 -257.5q-8 -18 -19 -26t-31 -8h-138zM1262 1510q16 -16 16 -28q0 -11 -10 -24l-26 -34q-11 -14 -26 -14q-10 0 -26 8l-356 188q-14 8 -18 13
t-4 13q0 9 10 22l104 140q9 12 14.5 15t11.5 3q12 0 24 -12z" />
    <glyph glyph-name="Yacute" unicode="&#xdd;" horiz-adv-x="1262" 
d="M890 142q20 0 28 -8t8 -28v-70q0 -20 -8 -28t-28 -8h-518q-20 0 -28 8t-8 28v70q0 20 8 28t28 8h104v316q-47 73 -93.5 159.5t-90.5 179.5t-85 190.5t-77 194.5h-90q-20 0 -28 8t-8 28v70q0 20 8 28t28 8h492q20 0 28 -8t8 -28v-70q0 -20 -8 -28t-28 -8h-92
q51 -154 114.5 -299t135.5 -267q72 122 134.5 268t113.5 298h-88q-20 0 -28 8t-8 28v70q0 20 8 28t28 8h372q20 0 28 -8t8 -28v-70q0 -20 -8 -28t-28 -8h-90q-35 -97 -76 -195t-85.5 -191.5t-91.5 -180.5t-95 -161v-312h106zM588 1416q-12 -6 -24 -6q-8 0 -15 3.5t-15 14.5
l-20 28q-6 9 -9 14.5t-3 11.5q0 12 16 28l286 290q8 8 13 10t11 2t12 -2.5t12 -11.5l106 -146q10 -13 10 -20q0 -14 -20 -24z" />
    <glyph glyph-name="Ydieresis" unicode="&#x178;" horiz-adv-x="1262" 
d="M890 142q20 0 28 -8t8 -28v-70q0 -20 -8 -28t-28 -8h-518q-20 0 -28 8t-8 28v70q0 20 8 28t28 8h104v316q-47 73 -93.5 159.5t-90.5 179.5t-85 190.5t-77 194.5h-90q-20 0 -28 8t-8 28v70q0 20 8 28t28 8h492q20 0 28 -8t8 -28v-70q0 -20 -8 -28t-28 -8h-92
q51 -154 114.5 -299t135.5 -267q72 122 134.5 268t113.5 298h-88q-20 0 -28 8t-8 28v70q0 20 8 28t28 8h372q20 0 28 -8t8 -28v-70q0 -20 -8 -28t-28 -8h-90q-35 -97 -76 -195t-85.5 -191.5t-91.5 -180.5t-95 -161v-312h106zM1014 1590q0 -29 -10 -54t-28 -43.5t-44.5 -29.5
t-59.5 -11t-59.5 11t-44.5 29.5t-28 43.5t-10 54q0 28 10 53.5t28 44t44.5 29.5t59.5 11t59.5 -11t44.5 -29.5t28 -44t10 -53.5zM602 1590q0 -29 -10 -54t-28 -43.5t-44.5 -29.5t-59.5 -11t-59.5 11t-44.5 29.5t-28 43.5t-10 54q0 28 10 53.5t28 44t44.5 29.5t59.5 11
t59.5 -11t44.5 -29.5t28 -44t10 -53.5z" />
    <glyph glyph-name="Ycircumflex" unicode="&#x176;" horiz-adv-x="1262" 
d="M890 142q20 0 28 -8t8 -28v-70q0 -20 -8 -28t-28 -8h-518q-20 0 -28 8t-8 28v70q0 20 8 28t28 8h104v316q-47 73 -93.5 159.5t-90.5 179.5t-85 190.5t-77 194.5h-90q-20 0 -28 8t-8 28v70q0 20 8 28t28 8h492q20 0 28 -8t8 -28v-70q0 -20 -8 -28t-28 -8h-92
q51 -154 114.5 -299t135.5 -267q72 122 134.5 268t113.5 298h-88q-20 0 -28 8t-8 28v70q0 20 8 28t28 8h372q20 0 28 -8t8 -28v-70q0 -20 -8 -28t-28 -8h-90q-35 -97 -76 -195t-85.5 -191.5t-91.5 -180.5t-95 -161v-312h106zM964 1538q14 -11 17 -16.5t3 -13.5
q0 -10 -12 -28l-14 -22q-8 -12 -14.5 -18t-15.5 -6q-3 0 -8 0.5t-16 5.5l-232 94l-232 -94q-11 -5 -16 -5.5t-8 -0.5q-9 0 -15.5 6t-14.5 18l-14 22q-12 18 -12 28q0 8 3 13.5t17 16.5l264 214q15 12 28 12t28 -12l264 -214v0z" />
    <glyph glyph-name="Ygrave" unicode="&#x1ef2;" horiz-adv-x="1262" 
d="M890 142q20 0 28 -8t8 -28v-70q0 -20 -8 -28t-28 -8h-518q-20 0 -28 8t-8 28v70q0 20 8 28t28 8h104v316q-47 73 -93.5 159.5t-90.5 179.5t-85 190.5t-77 194.5h-90q-20 0 -28 8t-8 28v70q0 20 8 28t28 8h492q20 0 28 -8t8 -28v-70q0 -20 -8 -28t-28 -8h-92
q51 -154 114.5 -299t135.5 -267q72 122 134.5 268t113.5 298h-88q-20 0 -28 8t-8 28v70q0 20 8 28t28 8h372q20 0 28 -8t8 -28v-70q0 -20 -8 -28t-28 -8h-90q-35 -97 -76 -195t-85.5 -191.5t-91.5 -180.5t-95 -161v-312h106zM826 1510q16 -16 16 -28q0 -11 -10 -24l-26 -34
q-11 -14 -26 -14q-10 0 -26 8l-356 188q-14 8 -18 13t-4 13q0 9 10 22l104 140q9 12 14.5 15t11.5 3q12 0 24 -12z" />
    <glyph glyph-name="Zcaron" unicode="&#x17d;" horiz-adv-x="1196" 
d="M1120 36q-2 -20 -10 -28t-28 -8h-986q-20 0 -28 8t-8 28v56q0 23 4.5 37t15.5 29l666 1016h-464l-38 -192q-5 -20 -14.5 -28t-29.5 -8h-72q-20 0 -28 8t-6 28l10 306q2 20 10 28t28 8h912q20 0 28 -8t8 -28v-56q0 -20 -4 -34.5t-18 -35.5l-662 -1012h530l46 220
q5 20 14.5 28t29.5 8h72q20 0 28 -8t6 -28zM626 1448q-15 -12 -28 -12t-28 12l-264 214q-14 11 -17 16.5t-3 13.5q0 10 12 28l14 22q8 12 14.5 18t15.5 6q3 0 8 -0.5t16 -5.5l232 -94l232 94q11 5 16 5.5t8 0.5q9 0 15.5 -6t14.5 -18l14 -22q12 -18 12 -28q0 -8 -3 -13.5
t-17 -16.5z" />
    <glyph glyph-name="Zacute" unicode="&#x179;" horiz-adv-x="1196" 
d="M1120 36q-2 -20 -10 -28t-28 -8h-986q-20 0 -28 8t-8 28v56q0 23 4.5 37t15.5 29l666 1016h-464l-38 -192q-5 -20 -14.5 -28t-29.5 -8h-72q-20 0 -28 8t-6 28l10 306q2 20 10 28t28 8h912q20 0 28 -8t8 -28v-56q0 -20 -4 -34.5t-18 -35.5l-662 -1012h530l46 220
q5 20 14.5 28t29.5 8h72q20 0 28 -8t6 -28zM514 1416q-12 -6 -24 -6q-8 0 -15 3.5t-15 14.5l-20 28q-6 9 -9 14.5t-3 11.5q0 12 16 28l286 290q8 8 13 10t11 2t12 -2.5t12 -11.5l106 -146q10 -13 10 -20q0 -14 -20 -24z" />
    <glyph glyph-name="Zdotaccent" unicode="&#x17b;" horiz-adv-x="1196" 
d="M1120 36q-2 -20 -10 -28t-28 -8h-986q-20 0 -28 8t-8 28v56q0 23 4.5 37t15.5 29l666 1016h-464l-38 -192q-5 -20 -14.5 -28t-29.5 -8h-72q-20 0 -28 8t-6 28l10 306q2 20 10 28t28 8h912q20 0 28 -8t8 -28v-56q0 -20 -4 -34.5t-18 -35.5l-662 -1012h530l46 220
q5 20 14.5 28t29.5 8h72q20 0 28 -8t6 -28zM754 1606q0 -32 -11 -60t-31.5 -49t-49.5 -33t-64 -12t-64 12t-49.5 33t-31.5 49t-11 60q0 31 11 59t31.5 48.5t49.5 32.5t64 12t64 -12t49.5 -32.5t31.5 -48.5t11 -59z" />
    <glyph glyph-name="IJ" unicode="&#x132;" horiz-adv-x="1408" 
d="M108 594q-20 0 -28 8t-8 28v70q0 20 8 28t28 8h86v446h-86q-20 0 -28 8t-8 28v70q0 20 8 28t28 8h480q20 0 28 -8t8 -28v-70q0 -20 -8 -28t-28 -8h-86v-446h86q20 0 28 -8t8 -28v-70q0 -20 -8 -28t-28 -8h-480zM1244 592q0 -158 -39.5 -273t-116 -190.5t-189.5 -112
t-261 -36.5q-102 0 -186 26.5t-144 72.5t-93 108t-33 133q0 36 11 67.5t31.5 54.5t49.5 36.5t64 13.5q29 0 55 -9t45.5 -26t30.5 -42t11 -57q0 -47 -21 -81t-69 -55q35 -42 94.5 -67t147.5 -25q87 0 145.5 29t93.5 83.5t50 133.5t15 180v626h-106q-20 0 -28 8t-8 28v70
q0 20 8 28t28 8h500q20 0 28 -8t8 -28v-70q0 -20 -8 -28t-28 -8h-86v-590z" />
    <glyph glyph-name="aacute" unicode="&#xe1;" horiz-adv-x="1114" 
d="M350 280q0 -27 7 -51.5t23.5 -43.5t43 -30t64.5 -11q19 0 40.5 4t43 14.5t41.5 27t37 42.5v180q-26 9 -60 13.5t-82 4.5q-41 0 -71 -13.5t-49.5 -35t-28.5 -48.5t-9 -53zM1090 56q-35 -35 -82.5 -53.5t-119.5 -18.5q-86 0 -142 34.5t-70 105.5q-62 -80 -137 -112
t-163 -32q-80 0 -139.5 21t-98.5 58.5t-58.5 89t-19.5 113.5q0 67 24.5 122t73 93.5t121.5 59.5t171 21q59 0 110.5 -7t89.5 -21v112q0 56 -9.5 98.5t-32 71t-58.5 42.5t-88 14q-92 0 -162 -38q62 -28 62 -108q0 -25 -10 -46t-27.5 -36t-41 -23.5t-51.5 -8.5
q-30 0 -52.5 11.5t-37.5 30.5t-22.5 44t-7.5 52q0 54 30 100.5t84 80.5t130.5 53.5t169.5 19.5q133 0 214.5 -28t126.5 -78t60 -119t15 -151v-354q0 -56 13.5 -80t48.5 -24q17 0 36 8q11 5 18.5 4t15.5 -12l28 -40q14 -20 10 -36t-22 -34zM442 1086q-12 -6 -24 -6
q-8 0 -15 3.5t-15 14.5l-20 28q-6 9 -9 14.5t-3 11.5q0 12 16 28l286 290q8 8 13 10t11 2t12 -2.5t12 -11.5l106 -146q10 -13 10 -20q0 -14 -20 -24z" />
    <glyph glyph-name="agrave" unicode="&#xe0;" horiz-adv-x="1114" 
d="M350 280q0 -27 7 -51.5t23.5 -43.5t43 -30t64.5 -11q19 0 40.5 4t43 14.5t41.5 27t37 42.5v180q-26 9 -60 13.5t-82 4.5q-41 0 -71 -13.5t-49.5 -35t-28.5 -48.5t-9 -53zM1090 56q-35 -35 -82.5 -53.5t-119.5 -18.5q-86 0 -142 34.5t-70 105.5q-62 -80 -137 -112
t-163 -32q-80 0 -139.5 21t-98.5 58.5t-58.5 89t-19.5 113.5q0 67 24.5 122t73 93.5t121.5 59.5t171 21q59 0 110.5 -7t89.5 -21v112q0 56 -9.5 98.5t-32 71t-58.5 42.5t-88 14q-92 0 -162 -38q62 -28 62 -108q0 -25 -10 -46t-27.5 -36t-41 -23.5t-51.5 -8.5
q-30 0 -52.5 11.5t-37.5 30.5t-22.5 44t-7.5 52q0 54 30 100.5t84 80.5t130.5 53.5t169.5 19.5q133 0 214.5 -28t126.5 -78t60 -119t15 -151v-354q0 -56 13.5 -80t48.5 -24q17 0 36 8q11 5 18.5 4t15.5 -12l28 -40q14 -20 10 -36t-22 -34zM680 1180q16 -16 16 -28
q0 -11 -10 -24l-26 -34q-11 -14 -26 -14q-10 0 -26 8l-356 188q-14 8 -18 13t-4 13q0 9 10 22l104 140q9 12 14.5 15t11.5 3q12 0 24 -12z" />
    <glyph glyph-name="acircumflex" unicode="&#xe2;" horiz-adv-x="1114" 
d="M350 280q0 -27 7 -51.5t23.5 -43.5t43 -30t64.5 -11q19 0 40.5 4t43 14.5t41.5 27t37 42.5v180q-26 9 -60 13.5t-82 4.5q-41 0 -71 -13.5t-49.5 -35t-28.5 -48.5t-9 -53zM1090 56q-35 -35 -82.5 -53.5t-119.5 -18.5q-86 0 -142 34.5t-70 105.5q-62 -80 -137 -112
t-163 -32q-80 0 -139.5 21t-98.5 58.5t-58.5 89t-19.5 113.5q0 67 24.5 122t73 93.5t121.5 59.5t171 21q59 0 110.5 -7t89.5 -21v112q0 56 -9.5 98.5t-32 71t-58.5 42.5t-88 14q-92 0 -162 -38q62 -28 62 -108q0 -25 -10 -46t-27.5 -36t-41 -23.5t-51.5 -8.5
q-30 0 -52.5 11.5t-37.5 30.5t-22.5 44t-7.5 52q0 54 30 100.5t84 80.5t130.5 53.5t169.5 19.5q133 0 214.5 -28t126.5 -78t60 -119t15 -151v-354q0 -56 13.5 -80t48.5 -24q17 0 36 8q11 5 18.5 4t15.5 -12l28 -40q14 -20 10 -36t-22 -34zM818 1208q14 -11 17 -16.5t3 -13.5
q0 -10 -12 -28l-14 -22q-8 -12 -14.5 -18t-15.5 -6q-3 0 -8 0.5t-16 5.5l-232 94l-232 -94q-11 -5 -16 -5.5t-8 -0.5q-9 0 -15.5 6t-14.5 18l-14 22q-12 18 -12 28q0 8 3 13.5t17 16.5l264 214q15 12 28 12t28 -12l264 -214v0z" />
    <glyph glyph-name="adieresis" unicode="&#xe4;" horiz-adv-x="1114" 
d="M350 280q0 -27 7 -51.5t23.5 -43.5t43 -30t64.5 -11q19 0 40.5 4t43 14.5t41.5 27t37 42.5v180q-26 9 -60 13.5t-82 4.5q-41 0 -71 -13.5t-49.5 -35t-28.5 -48.5t-9 -53zM1090 56q-35 -35 -82.5 -53.5t-119.5 -18.5q-86 0 -142 34.5t-70 105.5q-62 -80 -137 -112
t-163 -32q-80 0 -139.5 21t-98.5 58.5t-58.5 89t-19.5 113.5q0 67 24.5 122t73 93.5t121.5 59.5t171 21q59 0 110.5 -7t89.5 -21v112q0 56 -9.5 98.5t-32 71t-58.5 42.5t-88 14q-92 0 -162 -38q62 -28 62 -108q0 -25 -10 -46t-27.5 -36t-41 -23.5t-51.5 -8.5
q-30 0 -52.5 11.5t-37.5 30.5t-22.5 44t-7.5 52q0 54 30 100.5t84 80.5t130.5 53.5t169.5 19.5q133 0 214.5 -28t126.5 -78t60 -119t15 -151v-354q0 -56 13.5 -80t48.5 -24q17 0 36 8q11 5 18.5 4t15.5 -12l28 -40q14 -20 10 -36t-22 -34zM854 1260q0 -29 -10 -54t-28 -43.5
t-44.5 -29.5t-59.5 -11t-59.5 11t-44.5 29.5t-28 43.5t-10 54q0 28 10 53.5t28 44t44.5 29.5t59.5 11t59.5 -11t44.5 -29.5t28 -44t10 -53.5zM482 1260q0 -29 -10 -54t-28 -43.5t-44.5 -29.5t-59.5 -11t-59.5 11t-44.5 29.5t-28 43.5t-10 54q0 28 10 53.5t28 44t44.5 29.5
t59.5 11t59.5 -11t44.5 -29.5t28 -44t10 -53.5z" />
    <glyph glyph-name="atilde" unicode="&#xe3;" horiz-adv-x="1114" 
d="M350 280q0 -27 7 -51.5t23.5 -43.5t43 -30t64.5 -11q19 0 40.5 4t43 14.5t41.5 27t37 42.5v180q-26 9 -60 13.5t-82 4.5q-41 0 -71 -13.5t-49.5 -35t-28.5 -48.5t-9 -53zM1090 56q-35 -35 -82.5 -53.5t-119.5 -18.5q-86 0 -142 34.5t-70 105.5q-62 -80 -137 -112
t-163 -32q-80 0 -139.5 21t-98.5 58.5t-58.5 89t-19.5 113.5q0 67 24.5 122t73 93.5t121.5 59.5t171 21q59 0 110.5 -7t89.5 -21v112q0 56 -9.5 98.5t-32 71t-58.5 42.5t-88 14q-92 0 -162 -38q62 -28 62 -108q0 -25 -10 -46t-27.5 -36t-41 -23.5t-51.5 -8.5
q-30 0 -52.5 11.5t-37.5 30.5t-22.5 44t-7.5 52q0 54 30 100.5t84 80.5t130.5 53.5t169.5 19.5q133 0 214.5 -28t126.5 -78t60 -119t15 -151v-354q0 -56 13.5 -80t48.5 -24q17 0 36 8q11 5 18.5 4t15.5 -12l28 -40q14 -20 10 -36t-22 -34zM206 1210q13 31 32 62.5t45.5 57
t60.5 42t76 16.5q39 0 70 -13.5t58.5 -29.5t54 -29.5t57.5 -13.5q24 0 45.5 11t42.5 37q15 18 28 18q6 0 10.5 -2t15.5 -8l28 -16q22 -14 22 -32q0 -7 -6 -22q-12 -29 -31 -60.5t-46 -57t-61 -42t-76 -16.5q-39 0 -70 13.5t-58.5 29.5t-54 29.5t-57.5 13.5q-24 0 -44.5 -11
t-41.5 -37q-15 -18 -28 -18q-6 0 -10.5 2t-15.5 8l-28 16q-14 8 -19 14.5t-5 15.5q0 7 6 22z" />
    <glyph glyph-name="aring" unicode="&#xe5;" horiz-adv-x="1114" 
d="M350 280q0 -27 7 -51.5t23.5 -43.5t43 -30t64.5 -11q19 0 40.5 4t43 14.5t41.5 27t37 42.5v180q-26 9 -60 13.5t-82 4.5q-41 0 -71 -13.5t-49.5 -35t-28.5 -48.5t-9 -53zM1090 56q-35 -35 -82.5 -53.5t-119.5 -18.5q-86 0 -142 34.5t-70 105.5q-62 -80 -137 -112
t-163 -32q-80 0 -139.5 21t-98.5 58.5t-58.5 89t-19.5 113.5q0 67 24.5 122t73 93.5t121.5 59.5t171 21q59 0 110.5 -7t89.5 -21v112q0 56 -9.5 98.5t-32 71t-58.5 42.5t-88 14q-92 0 -162 -38q62 -28 62 -108q0 -25 -10 -46t-27.5 -36t-41 -23.5t-51.5 -8.5
q-30 0 -52.5 11.5t-37.5 30.5t-22.5 44t-7.5 52q0 54 30 100.5t84 80.5t130.5 53.5t169.5 19.5q133 0 214.5 -28t126.5 -78t60 -119t15 -151v-354q0 -56 13.5 -80t48.5 -24q17 0 36 8q11 5 18.5 4t15.5 -12l28 -40q14 -20 10 -36t-22 -34zM778 1312q0 -56 -20 -101.5
t-54.5 -78t-80 -50.5t-97.5 -18t-97.5 18t-80 50.5t-54.5 78t-20 101.5q0 55 20 101t54.5 78.5t80 50.5t97.5 18t97.5 -18t80 -50.5t54.5 -78.5t20 -101zM408 1312q0 -56 33.5 -89t84.5 -33t84.5 33t33.5 89t-33.5 89t-84.5 33t-84.5 -33t-33.5 -89z" />
    <glyph glyph-name="abreve" unicode="&#x103;" horiz-adv-x="1114" 
d="M350 280q0 -27 7 -51.5t23.5 -43.5t43 -30t64.5 -11q19 0 40.5 4t43 14.5t41.5 27t37 42.5v180q-26 9 -60 13.5t-82 4.5q-41 0 -71 -13.5t-49.5 -35t-28.5 -48.5t-9 -53zM1090 56q-35 -35 -82.5 -53.5t-119.5 -18.5q-86 0 -142 34.5t-70 105.5q-62 -80 -137 -112
t-163 -32q-80 0 -139.5 21t-98.5 58.5t-58.5 89t-19.5 113.5q0 67 24.5 122t73 93.5t121.5 59.5t171 21q59 0 110.5 -7t89.5 -21v112q0 56 -9.5 98.5t-32 71t-58.5 42.5t-88 14q-92 0 -162 -38q62 -28 62 -108q0 -25 -10 -46t-27.5 -36t-41 -23.5t-51.5 -8.5
q-30 0 -52.5 11.5t-37.5 30.5t-22.5 44t-7.5 52q0 54 30 100.5t84 80.5t130.5 53.5t169.5 19.5q133 0 214.5 -28t126.5 -78t60 -119t15 -151v-354q0 -56 13.5 -80t48.5 -24q17 0 36 8q11 5 18.5 4t15.5 -12l28 -40q14 -20 10 -36t-22 -34zM526 1106q-54 0 -101 17.5
t-85 47.5t-65.5 69.5t-42.5 83.5q-5 14 -6.5 20t-1.5 12q0 20 24 32l36 16q11 5 15 5.5t9 0.5q16 0 30 -22q18 -26 41 -44.5t48.5 -30.5t50.5 -17.5t48 -5.5q22 0 47.5 5.5t51 17.5t48.5 30.5t41 44.5q14 22 30 22q5 0 9 -0.5t15 -5.5l36 -16q24 -12 24 -32q0 -6 -1.5 -12
t-6.5 -20q-15 -44 -42.5 -83.5t-65.5 -69.5t-85 -47.5t-101 -17.5z" />
    <glyph glyph-name="amacron" unicode="&#x101;" horiz-adv-x="1114" 
d="M350 280q0 -27 7 -51.5t23.5 -43.5t43 -30t64.5 -11q19 0 40.5 4t43 14.5t41.5 27t37 42.5v180q-26 9 -60 13.5t-82 4.5q-41 0 -71 -13.5t-49.5 -35t-28.5 -48.5t-9 -53zM1090 56q-35 -35 -82.5 -53.5t-119.5 -18.5q-86 0 -142 34.5t-70 105.5q-62 -80 -137 -112
t-163 -32q-80 0 -139.5 21t-98.5 58.5t-58.5 89t-19.5 113.5q0 67 24.5 122t73 93.5t121.5 59.5t171 21q59 0 110.5 -7t89.5 -21v112q0 56 -9.5 98.5t-32 71t-58.5 42.5t-88 14q-92 0 -162 -38q62 -28 62 -108q0 -25 -10 -46t-27.5 -36t-41 -23.5t-51.5 -8.5
q-30 0 -52.5 11.5t-37.5 30.5t-22.5 44t-7.5 52q0 54 30 100.5t84 80.5t130.5 53.5t169.5 19.5q133 0 214.5 -28t126.5 -78t60 -119t15 -151v-354q0 -56 13.5 -80t48.5 -24q17 0 36 8q11 5 18.5 4t15.5 -12l28 -40q14 -20 10 -36t-22 -34zM750 1314q20 0 28 -8t8 -28v-104
q0 -20 -8 -28t-28 -8h-448q-20 0 -28 8t-8 28v104q0 20 8 28t28 8h448z" />
    <glyph glyph-name="aogonek" unicode="&#x105;" horiz-adv-x="1114" 
d="M1094 62q-27 -26 -55.5 -46.5l-60.5 -41.5q-25 -18 -46.5 -36.5t-38 -39.5t-26 -45.5t-9.5 -54.5q0 -45 24.5 -69.5t71.5 -24.5q42 0 80 16q20 8 30.5 5.5t19.5 -17.5l8 -14q9 -15 8 -29t-16 -25q-38 -29 -86.5 -44.5t-105.5 -15.5q-44 0 -83 12t-67.5 34t-45 53.5
t-16.5 70.5q0 31 13 64t37.5 64.5t60 59t79.5 48.5q-35 0 -67.5 8.5t-58 25.5t-43.5 43t-25 61q-62 -80 -137 -112t-163 -32q-80 0 -139.5 21t-98.5 58.5t-58.5 89t-19.5 113.5q0 67 24.5 122t73 93.5t121.5 59.5t171 21q59 0 110.5 -7t89.5 -21v112q0 56 -9.5 98.5t-32 71
t-58.5 42.5t-88 14q-92 0 -162 -38q62 -28 62 -108q0 -25 -10 -46t-27.5 -36t-41 -23.5t-51.5 -8.5q-30 0 -52.5 11.5t-37.5 30.5t-22.5 44t-7.5 52q0 54 30 100.5t84 80.5t130.5 53.5t169.5 19.5q133 0 214.5 -28t126.5 -78t60 -119t15 -151v-354q0 -56 13.5 -80t48.5 -24
q17 0 36 8q11 5 18.5 4t15.5 -12l28 -40q14 -20 12 -33t-20 -31zM350 280q0 -27 7 -51.5t23.5 -43.5t43 -30t64.5 -11q19 0 40.5 4t43 14.5t41.5 27t37 42.5v180q-26 9 -60 13.5t-82 4.5q-41 0 -71 -13.5t-49.5 -35t-28.5 -48.5t-9 -53z" />
    <glyph glyph-name="ae" unicode="&#xe6;" horiz-adv-x="1654" 
d="M1204 146q65 0 132.5 17.5t117.5 52.5q15 11 26.5 7.5t19.5 -17.5l28 -48q9 -17 7.5 -33t-21.5 -31q-68 -51 -162.5 -82.5t-207.5 -31.5q-128 0 -221 38t-153 106q-30 -29 -66 -55.5t-80.5 -46t-98.5 -31t-121 -11.5q-89 0 -154 21t-107 58.5t-62.5 89t-20.5 113.5
q0 67 27.5 123t83.5 95.5t140.5 61.5t198.5 22h140v98q0 57 -10.5 96.5t-33 63.5t-59.5 35t-89 11q-88 0 -158 -38q29 -14 45.5 -40t16.5 -62q0 -30 -11 -52.5t-29 -37.5t-41 -22.5t-47 -7.5q-31 0 -54 11t-38 30t-22.5 43.5t-7.5 51.5q0 55 29.5 101.5t84 81t131 54
t171.5 19.5q109 0 178 -29.5t114 -90.5q54 55 130.5 87.5t187.5 32.5q122 0 208.5 -39.5t141.5 -106.5t80.5 -156t25.5 -188v-38q0 -34 -34 -34h-618q4 -69 18 -123.5t44 -92t78.5 -57t121.5 -19.5zM1308 564q-3 67 -14 123t-32 96.5t-54.5 63.5t-81.5 23q-49 0 -82.5 -22.5
t-55 -63t-32.5 -97t-14 -123.5h366zM350 278q0 -25 7.5 -49t25 -43t46 -30.5t71.5 -11.5q60 0 112 21.5t90 56.5q-24 48 -37.5 102.5t-16.5 113.5h-92q-59 0 -98.5 -14.5t-63.5 -37t-34 -51.5t-10 -57z" />
    <glyph glyph-name="ccedilla" unicode="&#xe7;" horiz-adv-x="968" 
d="M544 -420q-52 0 -93 11.5t-69.5 30.5t-44 44t-15.5 52q0 30 20.5 54t53.5 24q29 0 50.5 -18.5t21.5 -45.5q0 -18 -9 -32.5t-23 -25.5q18 -12 38.5 -17t41.5 -5q56 0 80 22.5t24 57.5q0 47 -44 72.5t-118 39.5q-36 6 -20 38l48 100q-107 10 -187 52.5t-133 110
t-79.5 154.5t-26.5 185q0 107 32.5 201t95.5 164t155.5 110.5t212.5 40.5q83 0 150 -21.5t113.5 -58t71.5 -86t25 -104.5q0 -38 -11 -69.5t-31.5 -54t-49 -35.5t-62.5 -13q-59 0 -96.5 35.5t-37.5 94.5q0 50 28.5 83t85.5 47q-26 23 -59 37.5t-81 14.5q-66 0 -112 -29.5
t-75 -80.5t-42 -118.5t-13 -143.5q0 -80 15 -145t45.5 -111t77.5 -71t112 -25q56 0 108 18t94 48q15 11 25 9t19 -17l30 -48q11 -17 9.5 -32t-21.5 -32q-44 -38 -118 -71.5t-178 -38.5l-24 -52q43 -2 84 -13t73 -32.5t51.5 -54t19.5 -76.5t-18 -76.5t-49.5 -54t-75 -32.5
t-95.5 -11z" />
    <glyph glyph-name="cacute" unicode="&#x107;" horiz-adv-x="968" 
d="M886 156q11 -17 9.5 -32t-21.5 -32q-23 -20 -56 -40t-74.5 -36t-91.5 -26t-108 -10q-122 0 -212.5 39.5t-151 107.5t-90.5 160t-30 197q0 107 32.5 201t95.5 164t155.5 110.5t212.5 40.5q83 0 150 -21.5t113.5 -58t71.5 -86t25 -104.5q0 -38 -11 -69.5t-31.5 -54
t-49 -35.5t-62.5 -13q-59 0 -96.5 35.5t-37.5 94.5q0 50 28.5 83t85.5 47q-26 23 -59 37.5t-81 14.5q-66 0 -112 -29.5t-75 -80.5t-42 -118.5t-13 -143.5q0 -80 15 -145t45.5 -111t77.5 -71t112 -25q56 0 108 18t94 48q15 11 25 9t19 -17zM460 1086q-12 -6 -24 -6
q-8 0 -15 3.5t-15 14.5l-20 28q-6 9 -9 14.5t-3 11.5q0 12 16 28l286 290q8 8 13 10t11 2t12 -2.5t12 -11.5l106 -146q10 -13 10 -20q0 -14 -20 -24z" />
    <glyph glyph-name="ccaron" unicode="&#x10d;" horiz-adv-x="968" 
d="M886 156q11 -17 9.5 -32t-21.5 -32q-23 -20 -56 -40t-74.5 -36t-91.5 -26t-108 -10q-122 0 -212.5 39.5t-151 107.5t-90.5 160t-30 197q0 107 32.5 201t95.5 164t155.5 110.5t212.5 40.5q83 0 150 -21.5t113.5 -58t71.5 -86t25 -104.5q0 -38 -11 -69.5t-31.5 -54
t-49 -35.5t-62.5 -13q-59 0 -96.5 35.5t-37.5 94.5q0 50 28.5 83t85.5 47q-26 23 -59 37.5t-81 14.5q-66 0 -112 -29.5t-75 -80.5t-42 -118.5t-13 -143.5q0 -80 15 -145t45.5 -111t77.5 -71t112 -25q56 0 108 18t94 48q15 11 25 9t19 -17zM572 1118q-15 -12 -28 -12t-28 12
l-264 214q-14 11 -17 16.5t-3 13.5q0 10 12 28l14 22q8 12 14.5 18t15.5 6q3 0 8 -0.5t16 -5.5l232 -94l232 94q11 5 16 5.5t8 0.5q9 0 15.5 -6t14.5 -18l14 -22q12 -18 12 -28q0 -8 -3 -13.5t-17 -16.5z" />
    <glyph glyph-name="ccircumflex" unicode="&#x109;" horiz-adv-x="968" 
d="M886 156q11 -17 9.5 -32t-21.5 -32q-23 -20 -56 -40t-74.5 -36t-91.5 -26t-108 -10q-122 0 -212.5 39.5t-151 107.5t-90.5 160t-30 197q0 107 32.5 201t95.5 164t155.5 110.5t212.5 40.5q83 0 150 -21.5t113.5 -58t71.5 -86t25 -104.5q0 -38 -11 -69.5t-31.5 -54
t-49 -35.5t-62.5 -13q-59 0 -96.5 35.5t-37.5 94.5q0 50 28.5 83t85.5 47q-26 23 -59 37.5t-81 14.5q-66 0 -112 -29.5t-75 -80.5t-42 -118.5t-13 -143.5q0 -80 15 -145t45.5 -111t77.5 -71t112 -25q56 0 108 18t94 48q15 11 25 9t19 -17zM836 1208q14 -11 17 -16.5t3 -13.5
q0 -10 -12 -28l-14 -22q-8 -12 -14.5 -18t-15.5 -6q-3 0 -8 0.5t-16 5.5l-232 94l-232 -94q-11 -5 -16 -5.5t-8 -0.5q-9 0 -15.5 6t-14.5 18l-14 22q-12 18 -12 28q0 8 3 13.5t17 16.5l264 214q15 12 28 12t28 -12l264 -214v0z" />
    <glyph glyph-name="cdotaccent" unicode="&#x10b;" horiz-adv-x="968" 
d="M886 156q11 -17 9.5 -32t-21.5 -32q-23 -20 -56 -40t-74.5 -36t-91.5 -26t-108 -10q-122 0 -212.5 39.5t-151 107.5t-90.5 160t-30 197q0 107 32.5 201t95.5 164t155.5 110.5t212.5 40.5q83 0 150 -21.5t113.5 -58t71.5 -86t25 -104.5q0 -38 -11 -69.5t-31.5 -54
t-49 -35.5t-62.5 -13q-59 0 -96.5 35.5t-37.5 94.5q0 50 28.5 83t85.5 47q-26 23 -59 37.5t-81 14.5q-66 0 -112 -29.5t-75 -80.5t-42 -118.5t-13 -143.5q0 -80 15 -145t45.5 -111t77.5 -71t112 -25q56 0 108 18t94 48q15 11 25 9t19 -17zM700 1276q0 -32 -11 -60t-31.5 -49
t-49.5 -33t-64 -12t-64 12t-49.5 33t-31.5 49t-11 60q0 31 11 59t31.5 48.5t49.5 32.5t64 12t64 -12t49.5 -32.5t31.5 -48.5t11 -59z" />
    <glyph glyph-name="dcaron" unicode="&#x10f;" horiz-adv-x="1232" 
d="M368 490q0 -86 14.5 -148.5t41.5 -103t65.5 -59.5t86.5 -19t98.5 22.5t89.5 79.5v460q-35 50 -85.5 76t-106.5 26q-47 0 -84.5 -19.5t-64 -60.5t-41 -104t-14.5 -150zM778 138q-20 -29 -50 -57t-70.5 -50.5t-91.5 -36.5t-112 -14q-91 0 -162.5 33.5t-121 97t-76 156
t-26.5 211.5q0 124 28.5 221t82.5 164t130.5 102t172.5 35q97 0 165.5 -33t116.5 -81v458l-96 6q-20 2 -28 10t-8 28v48q0 20 8 28t28 10l352 22q36 3 36 -34v-1328h84q20 0 28 -8t8 -28v-62q0 -20 -8 -28t-28 -8h-326q-20 0 -28 8t-8 28v102zM1252 1054q-6 -14 -12 -21
t-18 -7q-3 0 -6.5 0.5t-15.5 3.5l-22 6q-17 5 -23.5 13t-6.5 23v7.5t2 24.5l34 348q2 17 9 23.5t21 6.5q4 0 11.5 -1t34.5 -7l110 -22q30 -6 30 -24q0 -5 -1 -9t-3 -9z" />
    <glyph glyph-name="eth" unicode="&#xf0;" horiz-adv-x="1150" 
d="M270 1498q104 -8 198.5 -35.5t177.5 -72.5l142 94q13 8 22 8q16 0 28 -18l32 -50q8 -13 8 -22q0 -16 -18 -28l-98 -64q82 -69 143.5 -153.5t102.5 -181t61.5 -203.5t20.5 -222q0 -152 -35 -260t-101.5 -177t-162.5 -101t-217 -32q-137 0 -234.5 36.5t-159.5 101t-91 151
t-29 187.5q0 102 29 191t87.5 155t146 104t205.5 38q89 0 145.5 -20t86.5 -50q-9 28 -23 64.5t-35.5 78.5t-51.5 86.5t-70 88.5l-154 -100q-13 -8 -22 -8q-8 0 -15 3.5t-13 14.5l-28 46q-8 13 -8 22q0 16 18 28l120 80q-101 75 -228 104q-17 5 -23.5 11.5t-6.5 20.5v12l8 40
q3 17 11 24.5t25 7.5h6zM574 814q-54 0 -94 -25t-66 -71.5t-39 -111.5t-13 -144q0 -80 13 -144.5t39 -111t66 -71.5t94 -25q55 0 95.5 25t67.5 71.5t40 111t13 144.5q0 79 -13 144t-40 111.5t-67.5 71.5t-95.5 25z" />
    <glyph glyph-name="dcroat" unicode="&#x111;" horiz-adv-x="1232" 
d="M368 490q0 -86 14.5 -148.5t41.5 -103t65.5 -59.5t86.5 -19t98.5 22.5t89.5 79.5v460q-35 50 -85.5 76t-106.5 26q-47 0 -84.5 -19.5t-64 -60.5t-41 -104t-14.5 -150zM778 138q-20 -29 -50 -57t-70.5 -50.5t-91.5 -36.5t-112 -14q-91 0 -162.5 33.5t-121 97t-76 156
t-26.5 211.5q0 124 28.5 221t82.5 164t130.5 102t172.5 35q97 0 165.5 -33t116.5 -81v224h-220q-20 0 -28 8t-8 28v58q0 20 8 28t28 8h220v104l-96 6q-20 2 -28 10t-8 28v48q0 20 8 28t28 10l352 22q36 3 36 -34v-222h74q20 0 28 -8t8 -28v-58q0 -20 -8 -28t-28 -8h-74v-976
h84q20 0 28 -8t8 -28v-62q0 -20 -8 -28t-28 -8h-326q-20 0 -28 8t-8 28v102z" />
    <glyph glyph-name="eacute" unicode="&#xe9;" horiz-adv-x="1070" 
d="M724 570q-3 67 -14 122t-32.5 94.5t-55 61.5t-82.5 22q-48 0 -81 -22t-54 -61.5t-31.5 -94.5t-13.5 -122h364zM932 94q-68 -51 -162.5 -82.5t-207.5 -31.5q-131 0 -225.5 40t-156 109t-91 160.5t-29.5 194.5q0 100 28.5 193t87.5 165t149.5 115t214.5 43q130 0 220 -39.5
t145.5 -106.5t80 -156t24.5 -188v-34q0 -32 -30 -32h-620q3 -76 17.5 -132t46 -93t83.5 -55t129 -18q25 0 55.5 4.5t62.5 13.5t62.5 22t55.5 30q15 11 26.5 7.5t19.5 -17.5l28 -48q9 -17 7.5 -33t-21.5 -31zM456 1086q-12 -6 -24 -6q-8 0 -15 3.5t-15 14.5l-20 28
q-6 9 -9 14.5t-3 11.5q0 12 16 28l286 290q8 8 13 10t11 2t12 -2.5t12 -11.5l106 -146q10 -13 10 -20q0 -14 -20 -24z" />
    <glyph glyph-name="egrave" unicode="&#xe8;" horiz-adv-x="1070" 
d="M724 570q-3 67 -14 122t-32.5 94.5t-55 61.5t-82.5 22q-48 0 -81 -22t-54 -61.5t-31.5 -94.5t-13.5 -122h364zM932 94q-68 -51 -162.5 -82.5t-207.5 -31.5q-131 0 -225.5 40t-156 109t-91 160.5t-29.5 194.5q0 100 28.5 193t87.5 165t149.5 115t214.5 43q130 0 220 -39.5
t145.5 -106.5t80 -156t24.5 -188v-34q0 -32 -30 -32h-620q3 -76 17.5 -132t46 -93t83.5 -55t129 -18q25 0 55.5 4.5t62.5 13.5t62.5 22t55.5 30q15 11 26.5 7.5t19.5 -17.5l28 -48q9 -17 7.5 -33t-21.5 -31zM694 1180q16 -16 16 -28q0 -11 -10 -24l-26 -34q-11 -14 -26 -14
q-10 0 -26 8l-356 188q-14 8 -18 13t-4 13q0 9 10 22l104 140q9 12 14.5 15t11.5 3q12 0 24 -12z" />
    <glyph glyph-name="ecircumflex" unicode="&#xea;" horiz-adv-x="1070" 
d="M724 570q-3 67 -14 122t-32.5 94.5t-55 61.5t-82.5 22q-48 0 -81 -22t-54 -61.5t-31.5 -94.5t-13.5 -122h364zM932 94q-68 -51 -162.5 -82.5t-207.5 -31.5q-131 0 -225.5 40t-156 109t-91 160.5t-29.5 194.5q0 100 28.5 193t87.5 165t149.5 115t214.5 43q130 0 220 -39.5
t145.5 -106.5t80 -156t24.5 -188v-34q0 -32 -30 -32h-620q3 -76 17.5 -132t46 -93t83.5 -55t129 -18q25 0 55.5 4.5t62.5 13.5t62.5 22t55.5 30q15 11 26.5 7.5t19.5 -17.5l28 -48q9 -17 7.5 -33t-21.5 -31zM832 1208q14 -11 17 -16.5t3 -13.5q0 -10 -12 -28l-14 -22
q-8 -12 -14.5 -18t-15.5 -6q-3 0 -8 0.5t-16 5.5l-232 94l-232 -94q-11 -5 -16 -5.5t-8 -0.5q-9 0 -15.5 6t-14.5 18l-14 22q-12 18 -12 28q0 8 3 13.5t17 16.5l264 214q15 12 28 12t28 -12l264 -214v0z" />
    <glyph glyph-name="edieresis" unicode="&#xeb;" horiz-adv-x="1070" 
d="M724 570q-3 67 -14 122t-32.5 94.5t-55 61.5t-82.5 22q-48 0 -81 -22t-54 -61.5t-31.5 -94.5t-13.5 -122h364zM932 94q-68 -51 -162.5 -82.5t-207.5 -31.5q-131 0 -225.5 40t-156 109t-91 160.5t-29.5 194.5q0 100 28.5 193t87.5 165t149.5 115t214.5 43q130 0 220 -39.5
t145.5 -106.5t80 -156t24.5 -188v-34q0 -32 -30 -32h-620q3 -76 17.5 -132t46 -93t83.5 -55t129 -18q25 0 55.5 4.5t62.5 13.5t62.5 22t55.5 30q15 11 26.5 7.5t19.5 -17.5l28 -48q9 -17 7.5 -33t-21.5 -31zM868 1260q0 -29 -10 -54t-28 -43.5t-44.5 -29.5t-59.5 -11
t-59.5 11t-44.5 29.5t-28 43.5t-10 54q0 28 10 53.5t28 44t44.5 29.5t59.5 11t59.5 -11t44.5 -29.5t28 -44t10 -53.5zM496 1260q0 -29 -10 -54t-28 -43.5t-44.5 -29.5t-59.5 -11t-59.5 11t-44.5 29.5t-28 43.5t-10 54q0 28 10 53.5t28 44t44.5 29.5t59.5 11t59.5 -11
t44.5 -29.5t28 -44t10 -53.5z" />
    <glyph glyph-name="ebreve" unicode="&#x115;" horiz-adv-x="1070" 
d="M724 570q-3 67 -14 122t-32.5 94.5t-55 61.5t-82.5 22q-48 0 -81 -22t-54 -61.5t-31.5 -94.5t-13.5 -122h364zM932 94q-68 -51 -162.5 -82.5t-207.5 -31.5q-131 0 -225.5 40t-156 109t-91 160.5t-29.5 194.5q0 100 28.5 193t87.5 165t149.5 115t214.5 43q130 0 220 -39.5
t145.5 -106.5t80 -156t24.5 -188v-34q0 -32 -30 -32h-620q3 -76 17.5 -132t46 -93t83.5 -55t129 -18q25 0 55.5 4.5t62.5 13.5t62.5 22t55.5 30q15 11 26.5 7.5t19.5 -17.5l28 -48q9 -17 7.5 -33t-21.5 -31zM540 1106q-54 0 -101 17.5t-85 47.5t-65.5 69.5t-42.5 83.5
q-5 14 -6.5 20t-1.5 12q0 20 24 32l36 16q11 5 15 5.5t9 0.5q16 0 30 -22q18 -26 41 -44.5t48.5 -30.5t50.5 -17.5t48 -5.5q22 0 47.5 5.5t51 17.5t48.5 30.5t41 44.5q14 22 30 22q5 0 9 -0.5t15 -5.5l36 -16q24 -12 24 -32q0 -6 -1.5 -12t-6.5 -20q-15 -44 -42.5 -83.5
t-65.5 -69.5t-85 -47.5t-101 -17.5z" />
    <glyph glyph-name="ecaron" unicode="&#x11b;" horiz-adv-x="1070" 
d="M724 570q-3 67 -14 122t-32.5 94.5t-55 61.5t-82.5 22q-48 0 -81 -22t-54 -61.5t-31.5 -94.5t-13.5 -122h364zM932 94q-68 -51 -162.5 -82.5t-207.5 -31.5q-131 0 -225.5 40t-156 109t-91 160.5t-29.5 194.5q0 100 28.5 193t87.5 165t149.5 115t214.5 43q130 0 220 -39.5
t145.5 -106.5t80 -156t24.5 -188v-34q0 -32 -30 -32h-620q3 -76 17.5 -132t46 -93t83.5 -55t129 -18q25 0 55.5 4.5t62.5 13.5t62.5 22t55.5 30q15 11 26.5 7.5t19.5 -17.5l28 -48q9 -17 7.5 -33t-21.5 -31zM568 1118q-15 -12 -28 -12t-28 12l-264 214q-14 11 -17 16.5
t-3 13.5q0 10 12 28l14 22q8 12 14.5 18t15.5 6q3 0 8 -0.5t16 -5.5l232 -94l232 94q11 5 16 5.5t8 0.5q9 0 15.5 -6t14.5 -18l14 -22q12 -18 12 -28q0 -8 -3 -13.5t-17 -16.5z" />
    <glyph glyph-name="edotaccent" unicode="&#x117;" horiz-adv-x="1070" 
d="M724 570q-3 67 -14 122t-32.5 94.5t-55 61.5t-82.5 22q-48 0 -81 -22t-54 -61.5t-31.5 -94.5t-13.5 -122h364zM932 94q-68 -51 -162.5 -82.5t-207.5 -31.5q-131 0 -225.5 40t-156 109t-91 160.5t-29.5 194.5q0 100 28.5 193t87.5 165t149.5 115t214.5 43q130 0 220 -39.5
t145.5 -106.5t80 -156t24.5 -188v-34q0 -32 -30 -32h-620q3 -76 17.5 -132t46 -93t83.5 -55t129 -18q25 0 55.5 4.5t62.5 13.5t62.5 22t55.5 30q15 11 26.5 7.5t19.5 -17.5l28 -48q9 -17 7.5 -33t-21.5 -31zM696 1276q0 -32 -11 -60t-31.5 -49t-49.5 -33t-64 -12t-64 12
t-49.5 33t-31.5 49t-11 60q0 31 11 59t31.5 48.5t49.5 32.5t64 12t64 -12t49.5 -32.5t31.5 -48.5t11 -59z" />
    <glyph glyph-name="emacron" unicode="&#x113;" horiz-adv-x="1070" 
d="M724 570q-3 67 -14 122t-32.5 94.5t-55 61.5t-82.5 22q-48 0 -81 -22t-54 -61.5t-31.5 -94.5t-13.5 -122h364zM932 94q-68 -51 -162.5 -82.5t-207.5 -31.5q-131 0 -225.5 40t-156 109t-91 160.5t-29.5 194.5q0 100 28.5 193t87.5 165t149.5 115t214.5 43q130 0 220 -39.5
t145.5 -106.5t80 -156t24.5 -188v-34q0 -32 -30 -32h-620q3 -76 17.5 -132t46 -93t83.5 -55t129 -18q25 0 55.5 4.5t62.5 13.5t62.5 22t55.5 30q15 11 26.5 7.5t19.5 -17.5l28 -48q9 -17 7.5 -33t-21.5 -31zM764 1314q20 0 28 -8t8 -28v-104q0 -20 -8 -28t-28 -8h-448
q-20 0 -28 8t-8 28v104q0 20 8 28t28 8h448z" />
    <glyph glyph-name="eogonek" unicode="&#x119;" horiz-adv-x="1070" 
d="M724 570q-3 67 -14 122t-32.5 94.5t-55 61.5t-82.5 22q-48 0 -81 -22t-54 -61.5t-31.5 -94.5t-13.5 -122h364zM738 -420q-44 0 -83 12t-67.5 34t-45 53.5t-16.5 70.5q0 32 12 64.5t33.5 63.5t50.5 59.5t64 54.5q-36 -8 -68.5 -10t-55.5 -2q-131 0 -225.5 40t-156 109
t-91 160.5t-29.5 194.5q0 100 28.5 193t87.5 165t149.5 115t214.5 43q130 0 220 -39.5t145.5 -106.5t80 -156t24.5 -188v-34q0 -32 -30 -32h-620q3 -76 17.5 -132t46 -93t83.5 -55t129 -18q25 0 55.5 4.5t62.5 13.5t62.5 22t55.5 30q15 11 26.5 7.5t19.5 -17.5l28 -48
q9 -17 7 -33t-23 -31l-61 -45.5t-59 -48.5q-45 -39 -75.5 -88t-30.5 -106q0 -53 24.5 -77.5t71.5 -24.5q42 0 80 16q20 8 30.5 5.5t19.5 -17.5l8 -14q9 -15 8 -29t-16 -25q-38 -29 -86.5 -44.5t-105.5 -15.5z" />
    <glyph glyph-name="gbreve" unicode="&#x11f;" horiz-adv-x="1072" 
d="M354 658q0 -109 38.5 -158.5t113.5 -49.5q78 0 117 49.5t39 158.5q0 112 -39 162t-117 50q-75 0 -113.5 -50t-38.5 -162zM688 188q75 0 139.5 -16t111.5 -49t74 -83t27 -118q0 -86 -39.5 -150t-112.5 -106.5t-176.5 -64t-231.5 -21.5q-100 0 -184 12.5t-145.5 39
t-96 67.5t-34.5 99q0 77 53.5 128.5t142.5 75.5q-51 18 -77.5 57.5t-26.5 102.5q0 40 12.5 71.5t33.5 57t48 44.5t56 33q-47 23 -81 55t-56 70t-32.5 80.5t-10.5 86.5q0 66 25 127.5t77 108.5t132 75.5t190 28.5q47 0 88.5 -5.5t77.5 -14.5h340q20 0 28 -8t8 -28v-86
q0 -24 -22 -24h-28q-32 0 -62 3.5t-60 8.5q29 -41 42.5 -88.5t13.5 -97.5q0 -66 -25 -127.5t-77 -108.5t-132.5 -75.5t-191.5 -28.5q-39 0 -74.5 3t-67.5 11q-26 -15 -40 -34.5t-14 -45.5q0 -22 7.5 -35t22.5 -20t36 -9t48 -2h264zM236 -162q0 -63 66.5 -96.5t199.5 -33.5
q142 0 220 34t78 100q0 53 -45 85.5t-131 32.5h-328q-27 -20 -43.5 -50.5t-16.5 -71.5zM538 1106q-54 0 -101 17.5t-85 47.5t-65.5 69.5t-42.5 83.5q-5 14 -6.5 20t-1.5 12q0 20 24 32l36 16q11 5 15 5.5t9 0.5q16 0 30 -22q18 -26 41 -44.5t48.5 -30.5t50.5 -17.5t48 -5.5
q22 0 47.5 5.5t51 17.5t48.5 30.5t41 44.5q14 22 30 22q5 0 9 -0.5t15 -5.5l36 -16q24 -12 24 -32q0 -6 -1.5 -12t-6.5 -20q-15 -44 -42.5 -83.5t-65.5 -69.5t-85 -47.5t-101 -17.5z" />
    <glyph glyph-name="gcircumflex" unicode="&#x11d;" horiz-adv-x="1072" 
d="M354 658q0 -109 38.5 -158.5t113.5 -49.5q78 0 117 49.5t39 158.5q0 112 -39 162t-117 50q-75 0 -113.5 -50t-38.5 -162zM688 188q75 0 139.5 -16t111.5 -49t74 -83t27 -118q0 -86 -39.5 -150t-112.5 -106.5t-176.5 -64t-231.5 -21.5q-100 0 -184 12.5t-145.5 39
t-96 67.5t-34.5 99q0 77 53.5 128.5t142.5 75.5q-51 18 -77.5 57.5t-26.5 102.5q0 40 12.5 71.5t33.5 57t48 44.5t56 33q-47 23 -81 55t-56 70t-32.5 80.5t-10.5 86.5q0 66 25 127.5t77 108.5t132 75.5t190 28.5q47 0 88.5 -5.5t77.5 -14.5h340q20 0 28 -8t8 -28v-86
q0 -24 -22 -24h-28q-32 0 -62 3.5t-60 8.5q29 -41 42.5 -88.5t13.5 -97.5q0 -66 -25 -127.5t-77 -108.5t-132.5 -75.5t-191.5 -28.5q-39 0 -74.5 3t-67.5 11q-26 -15 -40 -34.5t-14 -45.5q0 -22 7.5 -35t22.5 -20t36 -9t48 -2h264zM236 -162q0 -63 66.5 -96.5t199.5 -33.5
q142 0 220 34t78 100q0 53 -45 85.5t-131 32.5h-328q-27 -20 -43.5 -50.5t-16.5 -71.5zM830 1208q14 -11 17 -16.5t3 -13.5q0 -10 -12 -28l-14 -22q-8 -12 -14.5 -18t-15.5 -6q-3 0 -8 0.5t-16 5.5l-232 94l-232 -94q-11 -5 -16 -5.5t-8 -0.5q-9 0 -15.5 6t-14.5 18l-14 22
q-12 18 -12 28q0 8 3 13.5t17 16.5l264 214q15 12 28 12t28 -12l264 -214v0z" />
    <glyph glyph-name="gcommaaccent" unicode="&#x123;" horiz-adv-x="1072" 
d="M354 658q0 -109 38.5 -158.5t113.5 -49.5q78 0 117 49.5t39 158.5q0 112 -39 162t-117 50q-75 0 -113.5 -50t-38.5 -162zM688 188q75 0 139.5 -16t111.5 -49t74 -83t27 -118q0 -86 -39.5 -150t-112.5 -106.5t-176.5 -64t-231.5 -21.5q-100 0 -184 12.5t-145.5 39
t-96 67.5t-34.5 99q0 77 53.5 128.5t142.5 75.5q-51 18 -77.5 57.5t-26.5 102.5q0 40 12.5 71.5t33.5 57t48 44.5t56 33q-47 23 -81 55t-56 70t-32.5 80.5t-10.5 86.5q0 66 25 127.5t77 108.5t132 75.5t190 28.5q47 0 88.5 -5.5t77.5 -14.5h340q20 0 28 -8t8 -28v-86
q0 -24 -22 -24h-28q-32 0 -62 3.5t-60 8.5q29 -41 42.5 -88.5t13.5 -97.5q0 -66 -25 -127.5t-77 -108.5t-132.5 -75.5t-191.5 -28.5q-39 0 -74.5 3t-67.5 11q-26 -15 -40 -34.5t-14 -45.5q0 -22 7.5 -35t22.5 -20t36 -9t48 -2h264zM236 -162q0 -63 66.5 -96.5t199.5 -33.5
q142 0 220 34t78 100q0 53 -45 85.5t-131 32.5h-328q-27 -20 -43.5 -50.5t-16.5 -71.5zM592 1358q39 -15 62.5 -45t23.5 -69q0 -23 -8.5 -45t-26 -39t-43.5 -27.5t-60 -10.5q-66 0 -104 39t-38 99q0 37 18.5 72.5t47 68t62.5 60t64 47.5q18 12 27 16t15 4t11 -2t13 -10
l14 -14q9 -9 11.5 -13.5t2.5 -10.5q0 -10 -14 -24q-23 -23 -41.5 -46t-36.5 -50z" />
    <glyph glyph-name="gdotaccent" unicode="&#x121;" horiz-adv-x="1072" 
d="M354 658q0 -109 38.5 -158.5t113.5 -49.5q78 0 117 49.5t39 158.5q0 112 -39 162t-117 50q-75 0 -113.5 -50t-38.5 -162zM688 188q75 0 139.5 -16t111.5 -49t74 -83t27 -118q0 -86 -39.5 -150t-112.5 -106.5t-176.5 -64t-231.5 -21.5q-100 0 -184 12.5t-145.5 39
t-96 67.5t-34.5 99q0 77 53.5 128.5t142.5 75.5q-51 18 -77.5 57.5t-26.5 102.5q0 40 12.5 71.5t33.5 57t48 44.5t56 33q-47 23 -81 55t-56 70t-32.5 80.5t-10.5 86.5q0 66 25 127.5t77 108.5t132 75.5t190 28.5q47 0 88.5 -5.5t77.5 -14.5h340q20 0 28 -8t8 -28v-86
q0 -24 -22 -24h-28q-32 0 -62 3.5t-60 8.5q29 -41 42.5 -88.5t13.5 -97.5q0 -66 -25 -127.5t-77 -108.5t-132.5 -75.5t-191.5 -28.5q-39 0 -74.5 3t-67.5 11q-26 -15 -40 -34.5t-14 -45.5q0 -22 7.5 -35t22.5 -20t36 -9t48 -2h264zM236 -162q0 -63 66.5 -96.5t199.5 -33.5
q142 0 220 34t78 100q0 53 -45 85.5t-131 32.5h-328q-27 -20 -43.5 -50.5t-16.5 -71.5zM694 1276q0 -32 -11 -60t-31.5 -49t-49.5 -33t-64 -12t-64 12t-49.5 33t-31.5 49t-11 60q0 31 11 59t31.5 48.5t49.5 32.5t64 12t64 -12t49.5 -32.5t31.5 -48.5t11 -59z" />
    <glyph glyph-name="hbar" unicode="&#x127;" horiz-adv-x="1238" 
d="M554 134q20 0 28 -8t8 -28v-62q0 -20 -8 -28t-28 -8h-462q-20 0 -28 8t-8 28v62q0 20 8 28t28 8h84v976h-86q-20 0 -28 8t-8 28v58q0 20 8 28t28 8h86v104l-96 6q-20 2 -28 10t-8 28v48q0 20 8 28t28 10l352 22q36 3 36 -34v-222h208q20 0 28 -8t8 -28v-58q0 -20 -8 -28
t-28 -8h-208v-248q22 25 50.5 50t66 44.5t84.5 31.5t105 12q82 0 142 -26.5t98.5 -74t57 -113t18.5 -142.5v-510h86q20 0 28 -8t8 -28v-62q0 -20 -8 -28t-28 -8h-462q-20 0 -28 8t-8 28v62q0 20 8 28t28 8h84v490q0 43 -8 79.5t-25.5 63t-46 41t-68.5 14.5q-44 0 -92 -22
t-90 -70v-596h86z" />
    <glyph glyph-name="hcircumflex" unicode="&#x125;" horiz-adv-x="1238" 
d="M554 134q20 0 28 -8t8 -28v-62q0 -20 -8 -28t-28 -8h-462q-20 0 -28 8t-8 28v62q0 20 8 28t28 8h84v1210l-96 6q-20 2 -28 10t-8 28v48q0 20 8 28t28 10l352 22q36 3 36 -34v-600q22 25 50.5 50t66 44.5t84.5 31.5t105 12q82 0 142 -26.5t98.5 -74t57 -113t18.5 -142.5
v-510h86q20 0 28 -8t8 -28v-62q0 -20 -8 -28t-28 -8h-462q-20 0 -28 8t-8 28v62q0 20 8 28t28 8h84v490q0 43 -8 79.5t-25.5 63t-46 41t-68.5 14.5q-44 0 -92 -22t-90 -70v-596h86zM615 1652q14 -11 17 -16.5t3 -13.5q0 -10 -12 -28l-14 -22q-8 -12 -14.5 -18t-15.5 -6
q-3 0 -8 0.5t-16 5.5l-232 94l-232 -94q-11 -5 -16 -5.5t-8 -0.5q-9 0 -15.5 6t-14.5 18l-14 22q-12 18 -12 28q0 8 3 13.5t17 16.5l264 214q15 12 28 12t28 -12l264 -214v0z" />
    <glyph glyph-name="iacute" unicode="&#xed;" horiz-adv-x="660" 
d="M606 36q0 -20 -8 -28t-28 -8h-464q-20 0 -28 8t-8 28v62q0 20 8 28t28 8h86v716l-96 6q-20 2 -28 10t-8 28v48q0 20 8 28.5t28 9.5l352 12q36 3 36 -34v-824h86q20 0 28 -8t8 -28v-62zM254 1086q-12 -6 -24 -6q-8 0 -15 3.5t-15 14.5l-20 28q-6 9 -9 14.5t-3 11.5
q0 12 16 28l286 290q8 8 13 10t11 2t12 -2.5t12 -11.5l106 -146q10 -13 10 -20q0 -14 -20 -24z" />
    <glyph glyph-name="igrave" unicode="&#xec;" horiz-adv-x="660" 
d="M606 36q0 -20 -8 -28t-28 -8h-464q-20 0 -28 8t-8 28v62q0 20 8 28t28 8h86v716l-96 6q-20 2 -28 10t-8 28v48q0 20 8 28.5t28 9.5l352 12q36 3 36 -34v-824h86q20 0 28 -8t8 -28v-62zM493 1180q16 -16 16 -28q0 -11 -10 -24l-26 -34q-11 -14 -26 -14q-10 0 -26 8
l-356 188q-14 8 -18 13t-4 13q0 9 10 22l104 140q9 12 14.5 15t11.5 3q12 0 24 -12z" />
    <glyph glyph-name="icircumflex" unicode="&#xee;" horiz-adv-x="660" 
d="M606 36q0 -20 -8 -28t-28 -8h-464q-20 0 -28 8t-8 28v62q0 20 8 28t28 8h86v716l-96 6q-20 2 -28 10t-8 28v48q0 20 8 28.5t28 9.5l352 12q36 3 36 -34v-824h86q20 0 28 -8t8 -28v-62zM631 1208q14 -11 17 -16.5t3 -13.5q0 -10 -12 -28l-14 -22q-8 -12 -14.5 -18
t-15.5 -6q-3 0 -8 0.5t-16 5.5l-232 94l-232 -94q-11 -5 -16 -5.5t-8 -0.5q-9 0 -15.5 6t-14.5 18l-14 22q-12 18 -12 28q0 8 3 13.5t17 16.5l264 214q15 12 28 12t28 -12l264 -214v0z" />
    <glyph glyph-name="idieresis" unicode="&#xef;" horiz-adv-x="660" 
d="M606 36q0 -20 -8 -28t-28 -8h-464q-20 0 -28 8t-8 28v62q0 20 8 28t28 8h86v716l-96 6q-20 2 -28 10t-8 28v48q0 20 8 28.5t28 9.5l352 12q36 3 36 -34v-824h86q20 0 28 -8t8 -28v-62zM667 1260q0 -29 -10 -54t-28 -43.5t-44.5 -29.5t-59.5 -11t-59.5 11t-44.5 29.5
t-28 43.5t-10 54q0 28 10 53.5t28 44t44.5 29.5t59.5 11t59.5 -11t44.5 -29.5t28 -44t10 -53.5zM295 1260q0 -29 -10 -54t-28 -43.5t-44.5 -29.5t-59.5 -11t-59.5 11t-44.5 29.5t-28 43.5t-10 54q0 28 10 53.5t28 44t44.5 29.5t59.5 11t59.5 -11t44.5 -29.5t28 -44t10 -53.5
z" />
    <glyph glyph-name="ibreve" unicode="&#x12d;" horiz-adv-x="660" 
d="M606 36q0 -20 -8 -28t-28 -8h-464q-20 0 -28 8t-8 28v62q0 20 8 28t28 8h86v716l-96 6q-20 2 -28 10t-8 28v48q0 20 8 28.5t28 9.5l352 12q36 3 36 -34v-824h86q20 0 28 -8t8 -28v-62zM339 1106q-54 0 -101 17.5t-85 47.5t-65.5 69.5t-42.5 83.5q-5 14 -6.5 20t-1.5 12
q0 20 24 32l36 16q11 5 15 5.5t9 0.5q16 0 30 -22q18 -26 41 -44.5t48.5 -30.5t50.5 -17.5t48 -5.5q22 0 47.5 5.5t51 17.5t48.5 30.5t41 44.5q14 22 30 22q5 0 9 -0.5t15 -5.5l36 -16q24 -12 24 -32q0 -6 -1.5 -12t-6.5 -20q-15 -44 -42.5 -83.5t-65.5 -69.5t-85 -47.5
t-101 -17.5z" />
    <glyph glyph-name="imacron" unicode="&#x12b;" horiz-adv-x="660" 
d="M606 36q0 -20 -8 -28t-28 -8h-464q-20 0 -28 8t-8 28v62q0 20 8 28t28 8h86v716l-96 6q-20 2 -28 10t-8 28v48q0 20 8 28.5t28 9.5l352 12q36 3 36 -34v-824h86q20 0 28 -8t8 -28v-62zM563 1314q20 0 28 -8t8 -28v-104q0 -20 -8 -28t-28 -8h-448q-20 0 -28 8t-8 28v104
q0 20 8 28t28 8h448z" />
    </font>
</defs>
</svg>
